<?xml version="1.0" encoding="utf-8"?>
<!-- Generator: Adobe Illustrator 22.1.0, SVG Export Plug-In . SVG Version: 6.00 Build 0)  -->
<svg version="1.1" id="Sign" xmlns="http://www.w3.org/2000/svg" xmlns:xlink="http://www.w3.org/1999/xlink" x="0px" y="0px"
	 viewBox="0 0 453.2 254.9" style="enable-background:new 0 0 453.2 254.9;" xml:space="preserve">
<style type="text/css">
	.st0{clip-path:url(#SVGID_2_);fill:#FFFFFF;}
	.st1{clip-path:url(#SVGID_4_);fill:#C5E5E5;}
	.st2{display:none;}
	.st3{display:inline;}
	.st4{display:inline;clip-path:url(#SVGID_6_);fill:#DCEFEF;}
	.st5{display:inline;clip-path:url(#SVGID_8_);fill:#DCEFEF;}
	.st6{display:inline;clip-path:url(#SVGID_10_);fill:#DCEFEF;}
	.st7{display:inline;opacity:0.45;clip-path:url(#SVGID_12_);fill:#FFFFFF;enable-background:new    ;}
	.st8{display:inline;clip-path:url(#SVGID_14_);fill:#E6F5F5;}
	.st9{clip-path:url(#SVGID_16_);fill:#B3B3B3;}
	.st10{display:inline;clip-path:url(#SVGID_18_);fill:#E6F5F5;}
	.st11{clip-path:url(#SVGID_20_);fill:#90C975;}
	.st12{clip-path:url(#SVGID_22_);}
	.st13{fill:#A7A6F6;}
	.st14{fill:#A099E9;}
	.st15{fill:#BEBEFC;}
	.st16{fill:#84CB66;}
	.st17{fill:#96CD7C;}
	.st18{fill:#ABD796;}
	.st19{fill:#4E9DA3;}
	.st20{fill:#75AEB9;}
	.st21{fill:#91BEC7;}
	.st22{fill:#E9CA25;}
	.st23{fill:#FFDF57;}
	.st24{fill:#F9E698;}
	.st25{fill:#EDD262;}
	.st26{fill:#9AD17D;}
	.st27{clip-path:url(#SVGID_24_);fill:#D4AE46;}
	.st28{clip-path:url(#SVGID_26_);fill:#EBCC7A;}
	.st29{display:inline;clip-path:url(#SVGID_28_);}
	.st30{fill:#58838B;}
	.st31{fill:#426268;}
</style>
<g>
	<g>
		<defs>
			<rect id="SVGID_1_" y="0" width="453.2" height="254.9"/>
		</defs>
		<clipPath id="SVGID_2_">
			<use xlink:href="#SVGID_1_"  style="overflow:visible;"/>
		</clipPath>
		<rect x="-0.6" y="0.2" class="st0" width="1363" height="766.7"/>
	</g>
	<g>
		<defs>
			<rect id="SVGID_3_" y="0" width="453.2" height="254.9"/>
		</defs>
		<clipPath id="SVGID_4_">
			<use xlink:href="#SVGID_3_"  style="overflow:visible;"/>
		</clipPath>
		<path class="st1" d="M945.7,121.9C843.5,61.3,769,214.2,607,129.3c-40.5-21.2-95.5-58.8-153.2-58.8c-68.3,0-92.6,61.4-180.6,99.6
			c-47.1,20.5-123.1-6.2-173.4,33.6C50.7,242.7,25,331.4,25,391.9c0,86.3,28.5,93.8,60.3,149.7c31.6,55.4,85.3,27.2,167.9,26.5
			c75.7-0.6,177.3,28.3,277.4,28.3c100.3,0,179.6-12.4,273.8-49.8c55.4-22,148.2,10.1,206.2,21.5c124.7,24.5,304.3,54.7,326.7-110.9
			c0-79.6-7.9-216.3-124.8-247.3C1159.6,195.8,1124.3,227.9,945.7,121.9z"/>
	</g>
	<g class="st2">
		<defs>
			<rect id="SVGID_5_" y="0" width="453.2" height="254.9"/>
		</defs>
		<clipPath id="SVGID_6_" class="st3">
			<use xlink:href="#SVGID_5_"  style="overflow:visible;"/>
		</clipPath>
		<path class="st4" d="M164.1,155.4c-0.1-7.4,5.5-10.7,15.9-9.4c0.4-5.1,2.5-9.4,7.4-12.1c1.5-0.8,3.3-1.7,5-1.7
			c3-0.1,4-1.2,4.8-3.8c3.5-10.9,15.3-18,27.5-16.8c12.4,1.2,22.4,10.2,23.6,21.7c0.2,1.7,0.7,2.5,2.5,3.1c5.8,1.9,10,5.7,12.6,10.7
			c9.9-1.1,14.4,1.3,14.9,8.2C240.2,155.4,202.2,155.4,164.1,155.4z"/>
	</g>
	<g class="st2">
		<defs>
			<rect id="SVGID_7_" y="0" width="453.2" height="254.9"/>
		</defs>
		<clipPath id="SVGID_8_" class="st3">
			<use xlink:href="#SVGID_7_"  style="overflow:visible;"/>
		</clipPath>
		<path class="st5" d="M222.3,217.2c0-2,1.8-2.9,5.1-2.6c0.1-1.4,0.8-2.6,2.4-3.3c0.5-0.2,1.1-0.5,1.6-0.5c1,0,1.3-0.3,1.5-1
			c1.1-3,4.9-5,8.9-4.6c4,0.3,7.2,2.8,7.6,6c0.1,0.5,0.2,0.7,0.8,0.9c1.9,0.5,3.2,1.6,4.1,3c3.2-0.3,4.7,0.4,4.8,2.3
			C246.9,217.2,234.6,217.2,222.3,217.2z"/>
	</g>
	<g class="st2">
		<defs>
			<rect id="SVGID_9_" y="0" width="453.2" height="254.9"/>
		</defs>
		<clipPath id="SVGID_10_" class="st3">
			<use xlink:href="#SVGID_9_"  style="overflow:visible;"/>
		</clipPath>
		<polygon class="st6" points="66,243.3 266.1,252.5 59,255.5 		"/>
	</g>
	<g class="st2">
		<defs>
			<rect id="SVGID_11_" y="0" width="453.2" height="254.9"/>
		</defs>
		<clipPath id="SVGID_12_" class="st3">
			<use xlink:href="#SVGID_11_"  style="overflow:visible;"/>
		</clipPath>
		<path class="st7" d="M118.5,215.1c0.2-1,1.1-1.7,2.3-1.8c0.4,0,0.6-0.1,0.8-0.4c0.4-0.7,1-1.1,1.7-1.4c0.3-0.1,0.4-0.2,0.4-0.5
			c0-1.6,1-2.6,2.8-2.8c0.2,0,0.5-0.2,0.6-0.4c1.8-2.4,5-3.2,7.7-1.9c0.8,0.4,1.4,1,2,1.6c0.2,0.2,0.4,0.4,0.8,0.4
			c0.8,0,1.6,0.2,2.3,0.7c0.2,0.2,0.4,0.2,0.7,0c0.2-0.1,0.5-0.2,0.7-0.2c0.7,0.1,1.2-0.1,1.8-0.3c2.7-0.7,5.4,0.3,6.9,2.5
			c0.2,0.3,0.4,0.4,0.7,0.3c1.4-0.1,2.5,0.4,3.4,1.4c0.1,0.1,0.4,0.2,0.5,0.2c1.2-0.2,2.2,0.2,3,1.2c0.1,0.2,0.4,0.3,0.6,0.3
			c0.8,0.1,1.3,0.6,1.4,1.3C145.8,215.1,132.2,215.1,118.5,215.1z"/>
	</g>
	<g class="st2">
		<defs>
			<rect id="SVGID_13_" y="0" width="453.2" height="254.9"/>
		</defs>
		<clipPath id="SVGID_14_" class="st3">
			<use xlink:href="#SVGID_13_"  style="overflow:visible;"/>
		</clipPath>
		<polygon class="st8" points="311.9,94.9 781.5,84.3 1017,94.9 546.7,104.7 		"/>
	</g>
	<g>
		<defs>
			<rect id="SVGID_15_" y="0" width="453.2" height="254.9"/>
		</defs>
		<clipPath id="SVGID_16_">
			<use xlink:href="#SVGID_15_"  style="overflow:visible;"/>
		</clipPath>
		<path class="st9" d="M404.3,354.2h390.1c0,0-165.2-138.7-181.5-138.7c-6.6,0-26.4,11-47.5,24L404.3,354.2z"/>
	</g>
	<g class="st2">
		<defs>
			<rect id="SVGID_17_" y="0" width="453.2" height="254.9"/>
		</defs>
		<clipPath id="SVGID_18_" class="st3">
			<use xlink:href="#SVGID_17_"  style="overflow:visible;"/>
		</clipPath>
		<polygon class="st10" points="143.9,46.3 499.5,57.8 21,73.6 		"/>
	</g>
	<g>
		<defs>
			<rect id="SVGID_19_" y="0" width="453.2" height="254.9"/>
		</defs>
		<clipPath id="SVGID_20_">
			<use xlink:href="#SVGID_19_"  style="overflow:visible;"/>
		</clipPath>
		<path class="st11" d="M899.9,584.7c-86.9,0-155.7,93.2-324.2,93.2c-172.6,0-227.3-121.5-337.1-91.9C78.4,629.2,25,464.7,25,413.8
			c0,0,73.1-11.5,115.2-39.4c81.9-54.2,116.9-141.1,256.7-141.1c88.3,0,158,64.1,199.3,69.5c79.9,10.4,94.1-12.8,217.1-27.2
			c148.7-17.4,172.9,152.7,291.8,184c0,0,93.7,0.4,194.4,0.4c18.8,0,37.9-2.9,37.9-2.9c-5.3,80.3-88.3,171.1-157.6,181.4
			C1063.3,656.2,974.8,584,899.9,584.7z"/>
	</g>
	<g>
		<defs>
			<rect id="SVGID_21_" y="0" width="453.2" height="254.9"/>
		</defs>
		<clipPath id="SVGID_22_">
			<use xlink:href="#SVGID_21_"  style="overflow:visible;"/>
		</clipPath>
		<g class="st12">
			<g>
				<path class="st13" d="M348.7,208.4c-1.1,1.3-4,2.5-5.4,1.5c-1.5-1-1-3.9,0.1-5.2s3.2-1.6,4.7-0.6
					C349.5,205.2,349.8,207.1,348.7,208.4z"/>
				<polygon class="st14" points="343.4,209.8 342.6,210.1 343.3,210.6 				"/>
				<path class="st14" d="M348.7,208.4c1-1.2,0.9-2.9-0.3-4l0,0c0,0,2.6,4-4,5.9C345.9,210.4,347.8,209.5,348.7,208.4z"/>
				<path class="st15" d="M345.4,204.6c-1,0.2-1.7,0.8-1.8,0.4c-0.1-0.4,0.6-0.9,1.6-1.1c1-0.2,1.9-0.1,2,0.3
					S346.4,204.4,345.4,204.6z"/>
			</g>
			<g>
				<polygon class="st16" points="397,197.3 396,197.6 396.9,198.3 				"/>
				<path class="st17" d="M403.2,196c-1.4,1.5-4.7,2.7-6.4,1.5c-1.6-1.3-0.9-4.5,0.4-6.1c1.4-1.5,3.8-1.7,5.4-0.4
					S404.6,194.5,403.2,196z"/>
				<path class="st16" d="M403.2,196c1.2-1.4,1.2-3.4-0.1-4.7l0,0c0,0,2.8,4.8-5,6.6C399.9,198.2,402.2,197.2,403.2,196z"/>
				<path class="st18" d="M398.3,191.7c-0.7,0.6-1,1.3-1.3,1.1c-0.2-0.2,0.1-0.9,0.8-1.5s1.5-0.9,1.7-0.6
					C399.8,190.9,399,191.1,398.3,191.7z"/>
			</g>
			<g>
				<polygon class="st19" points="409.8,196 408.8,196.3 409.6,196.9 				"/>
				<path class="st20" d="M415.4,194.8c-1.2,1.4-4.3,2.5-5.8,1.3s-0.8-4.1,0.4-5.5c1.2-1.4,3.5-1.5,4.9-0.4
					C416.4,191.4,416.6,193.5,415.4,194.8z"/>
				<path class="st19" d="M415.4,194.8c1.1-1.2,1.1-3-0.1-4.2l0,0c0,0,2.5,4.4-4.5,6C412.4,196.8,414.4,195.9,415.4,194.8z"/>
				<path class="st21" d="M411.9,190.6c-0.8,0.2-1.4,0.8-1.5,0.4c-0.1-0.3,0.5-0.8,1.3-1s1.6-0.2,1.7,0.1
					C413.5,190.5,412.7,190.3,411.9,190.6z"/>
			</g>
			<g>
				<g>
					<path class="st20" d="M448.4,197.4c-1.1,1.3-3.9,2.4-5.4,1.4c-1.4-1-0.9-3.8,0.2-5.1s3.2-1.5,4.6-0.5
						C449.3,194.2,449.6,196.1,448.4,197.4z"/>
					<polygon class="st19" points="443.2,198.6 442.4,198.9 443.1,199.4 					"/>
					<path class="st21" d="M444.7,193.9c-0.9,0.5-1.4,1.2-1.6,0.8s0.3-1,1.2-1.5s1.8-0.5,2-0.2S445.6,193.4,444.7,193.9z"/>
				</g>
				<path class="st19" d="M444.1,199.1c6.1-1.1,4.3-5.6,4.3-5.6s1.8,1.8,0.1,3.9C446.8,199.5,444.1,199.1,444.1,199.1z"/>
			</g>
			<g>
				<polygon class="st16" points="381.7,203.3 380.4,203.7 381.6,204.5 				"/>
				<path class="st17" d="M389.6,201.2c-1.6,2-5.9,3.8-8.1,2.3s-1.5-5.8,0.1-7.8s4.8-2.4,7-0.9C390.8,196.3,391.3,199.2,389.6,201.2
					z"/>
				<path class="st16" d="M389.6,201.3c1.6-1.8,1.4-4.4-0.3-6l0,0c0,0,3.8,6.1-6.2,8.7C385.4,204.2,388.3,202.9,389.6,201.3z"/>
				<path class="st18" d="M383.4,195.9c-0.9,0.7-1.3,1.6-1.6,1.3c-0.3-0.4,0.1-1.2,1-1.9s1.9-1,2.2-0.6S384.3,195.2,383.4,195.9z"/>
			</g>
			<g>
				<polygon class="st16" points="432.2,213.9 431.1,213.9 431.7,214.8 				"/>
				<path class="st17" d="M438.5,214.6c-1.8,1-5.5,1.1-6.6-0.6s0.8-4.6,2.6-5.6s4.2-0.4,5.3,1.3C441,211.4,440.4,213.6,438.5,214.6z
					"/>
				<path class="st16" d="M438.5,214.6c1.7-0.9,2.3-2.8,1.6-4.5l0,0c0,0,0.9,5.4-7.1,4.8C434.6,215.6,437.1,215.4,438.5,214.6z"/>
				<path class="st18" d="M434.8,209.5c-0.9,0.6-1.4,1.3-1.7,1s0.3-1,1.3-1.6c0.9-0.6,1.8-0.8,2.1-0.5
					C436.6,208.8,435.7,208.9,434.8,209.5z"/>
			</g>
			<g>
				<path class="st13" d="M432.6,203.8c-1.5,0.8-4.3,0.9-5.2-0.5c-0.9-1.3,0.6-3.6,2.1-4.4c1.5-0.8,3.3-0.3,4.2,1
					C434.5,201.3,434.1,203,432.6,203.8z"/>
				<polygon class="st14" points="427.6,203.3 426.8,203.3 427.2,204 				"/>
				<path class="st14" d="M432.6,203.8c1.3-0.7,1.8-2.2,1.3-3.5l0,0c0,0,0.7,4.3-5.6,3.7C429.5,204.6,431.5,204.4,432.6,203.8z"/>
				<path class="st15" d="M429.4,200c-0.6,0.5-1,1.2-1.2,1s0.1-0.9,0.8-1.4c0.7-0.5,1.4-0.8,1.6-0.6
					C430.8,199.3,430,199.5,429.4,200z"/>
			</g>
			<g>
				<polygon class="st16" points="416.6,186.4 415.9,186.6 416.5,187.1 				"/>
				<g>
					<path class="st17" d="M421,185.9c-1,0.9-3.4,1.5-4.4,0.6s-0.3-3.1,0.8-4s2.7-0.9,3.7,0.1C422,183.4,422,185,421,185.9z"/>
					<path class="st16" d="M421,185.9c0.9-0.8,1.1-2.2,0.3-3.1l0,0c0,0,1.5,3.4-3.9,4.1C418.5,187.1,420.1,186.6,421,185.9z"/>
					<path class="st18" d="M417.8,183c-0.6,0.5-0.8,1.1-1,0.9s0.1-0.7,0.7-1.2s1.2-0.7,1.4-0.5S418.3,182.5,417.8,183z"/>
				</g>
			</g>
			<g>
				<path class="st17" d="M451.1,184.9c-1.1,1.3-4,2.4-5.4,1.3c-1.4-1.1-0.8-3.8,0.3-5.1s3.2-1.5,4.6-0.4
					C452.1,181.8,452.3,183.7,451.1,184.9z"/>
				<polygon class="st16" points="445.9,186.1 445,186.4 445.8,186.9 				"/>
				<path class="st16" d="M451.1,184.9c1-1.2,1-2.9-0.1-4l0,0c0,0,2.4,4-4.1,5.7C448.3,186.8,450.2,185.9,451.1,184.9z"/>
				<path class="st18" d="M447.5,181.2c-0.8,0.4-1.3,1.1-1.5,0.8s0.3-0.9,1.1-1.4c0.8-0.4,1.6-0.5,1.8-0.2
					C449.2,180.8,448.3,180.8,447.5,181.2z"/>
			</g>
			<g>
				<polygon class="st22" points="412.5,207.2 411.3,207.5 412.3,208.4 				"/>
				<path class="st23" d="M420.3,205.6c-1.7,1.9-5.9,3.4-8,1.8c-2-1.6-1.1-5.7,0.6-7.5c1.7-1.9,4.8-2.1,6.8-0.5
					S422,203.8,420.3,205.6z"/>
				<path class="st22" d="M420.3,205.6c1.6-1.7,1.5-4.2,0-5.8l0,0c0,0,3.4,6-6.3,8.2C416.1,208.3,418.9,207.1,420.3,205.6z"/>
				<path class="st24" d="M414.8,199.9c-1.1,0.6-1.7,1.4-1.9,1c-0.2-0.4,0.4-1.2,1.5-1.7c1.1-0.6,2.1-0.7,2.4-0.3
					C416.9,199.3,415.8,199.4,414.8,199.9z"/>
			</g>
			<g>
				<polygon class="st14" points="424.6,194.2 423.3,194.4 424.2,195.4 				"/>
				<path class="st13" d="M432.8,193.9c-2.1,1.6-6.6,2.5-8.4,0.5s-0.1-5.9,2-7.6c2.1-1.6,5.2-1.4,7,0.6S434.9,192.2,432.8,193.9z"/>
				<path class="st14" d="M432.8,193.9c1.9-1.5,2.3-4,1-5.9l0,0c0,0,2.4,6.6-7.9,7.4C428,195.9,431.1,195.1,432.8,193.9z"/>
				<path class="st15" d="M427.5,187.9c-1.3,0.9-2,2-2.4,1.6c-0.3-0.4,0.4-1.5,1.8-2.4c1.3-0.9,2.7-1.2,3-0.8S428.8,187,427.5,187.9
					z"/>
			</g>
			<g>
				<path class="st23" d="M410,186.4c-1.5,1.3-4.8,2.1-6.1,0.8c-1.4-1.3-0.4-4.4,1.1-5.6c1.5-1.3,3.8-1.2,5.2,0.1
					C411.5,183,411.4,185.1,410,186.4z"/>
				<polygon class="st22" points="404,187 403,187.2 403.8,187.9 				"/>
				<path class="st22" d="M410,186.4c1.3-1.2,1.5-3,0.4-4.4l0,0c0,0,2.1,4.8-5.4,5.8C406.6,188.2,408.9,187.4,410,186.4z"/>
				<path class="st24" d="M406.3,182c-0.9,0.5-1.4,1.2-1.6,0.8s0.3-1,1.2-1.5c0.9-0.5,1.8-0.5,2-0.2
					C408.1,181.6,407.1,181.6,406.3,182z"/>
			</g>
			<g>
				<polygon class="st19" points="418.4,218.8 417.5,219 418.2,219.7 				"/>
				<g>
					<path class="st20" d="M424.4,218.1c-1.4,1.3-4.7,2.2-6.1,0.9s-0.4-4.4,1-5.7s3.7-1.3,5.2,0
						C425.8,214.7,425.8,216.8,424.4,218.1z"/>
					<path class="st19" d="M424.4,218.1c1.3-1.2,1.4-3.1,0.4-4.4l0,0c0,0,2.2,4.7-5.3,5.8C421,219.9,423.3,219.2,424.4,218.1z"/>
					<path class="st21" d="M420.6,213.7c-0.9,0.5-1.4,1.3-1.7,0.9c-0.2-0.4,0.3-1.1,1.3-1.6c0.9-0.5,1.9-0.6,2.1-0.2
						C422.6,213.2,421.6,213.2,420.6,213.7z"/>
				</g>
			</g>
			<g>
				<polygon class="st19" points="372,207.4 371.1,207.6 371.9,208.3 				"/>
				<path class="st20" d="M377.9,206.2c-1.3,1.4-4.5,2.5-6,1.3s-0.8-4.3,0.5-5.7s3.6-1.6,5.1-0.4S379.2,204.8,377.9,206.2z"/>
				<path class="st19" d="M377.9,206.2c1.2-1.3,1.1-3.1,0-4.4l0,0c0,0,2.6,4.5-4.8,6.2C374.7,208.2,376.9,207.3,377.9,206.2z"/>
				<path class="st21" d="M373.9,202.2c-1,0.5-1.6,1.3-1.8,0.9c-0.2-0.4,0.4-1.1,1.4-1.7c1-0.5,2-0.6,2.2-0.2
					S374.9,201.6,373.9,202.2z"/>
			</g>
			<g>
				<polygon class="st16" points="401,216.9 400,217.1 400.7,217.8 				"/>
				<path class="st17" d="M407.1,216.7c-1.6,1.2-5,1.9-6.3,0.4c-1.3-1.4,0-4.4,1.5-5.6c1.6-1.2,3.9-1,5.2,0.4
					C408.8,213.3,408.6,215.5,407.1,216.7z"/>
				<path class="st16" d="M407.1,216.7c1.4-1.1,1.7-3,0.8-4.4l0,0c0,0,1.8,5-5.9,5.5C403.5,218.2,405.9,217.6,407.1,216.7z"/>
				<path class="st18" d="M403.5,212.2c-1,0.5-1.5,1.3-1.8,0.9c-0.2-0.4,0.4-1.1,1.3-1.6c1-0.5,1.9-0.6,2.2-0.2
					C405.5,211.6,404.5,211.6,403.5,212.2z"/>
			</g>
			<g>
				<polygon class="st22" points="432.1,179.4 430.8,179.6 431.7,180.5 				"/>
				<path class="st23" d="M439.7,179.1c-2,1.5-6.2,2.3-7.9,0.5c-1.6-1.8-0.1-5.5,1.9-7.1c2-1.5,4.9-1.3,6.5,0.5
					C441.9,174.9,441.6,177.6,439.7,179.1z"/>
				<path class="st22" d="M439.7,179.1c1.8-1.4,2.2-3.7,1-5.5l0,0c0,0,2.2,6.2-7.4,6.9C435.3,181,438.2,180.3,439.7,179.1z"/>
				<path class="st24" d="M434.9,173.5c-1.1,0.7-1.7,1.7-2,1.3s0.4-1.2,1.4-2s2.2-1,2.5-0.7C437.1,172.6,435.9,172.8,434.9,173.5z"
					/>
			</g>
			<g>
				<polygon class="st14" points="410.8,177.4 410.1,177.6 410.6,178.1 				"/>
				<path class="st13" d="M415.3,176.9c-1.1,1-3.6,1.6-4.6,0.6s-0.3-3.3,0.8-4.2c1.1-1,2.8-0.9,3.9,0.1
					C416.5,174.3,416.4,175.9,415.3,176.9z"/>
				<path class="st14" d="M415.3,176.9c1-0.9,1.1-2.3,0.3-3.3l0,0c0,0,1.6,3.6-4.1,4.3C412.8,178.2,414.5,177.7,415.3,176.9z"/>
				<path class="st15" d="M412.6,173.6c-0.7,0.3-1,0.9-1.2,0.6c-0.2-0.3,0.2-0.8,0.9-1.1c0.7-0.3,1.3-0.4,1.5-0.1
					C413.9,173.3,413.2,173.3,412.6,173.6z"/>
			</g>
			<g>
				<polygon class="st19" points="439.2,223.9 438.3,224 438.9,224.7 				"/>
				<path class="st20" d="M444.6,223.7c-1.4,1.1-4.4,1.6-5.5,0.4c-1.2-1.3,0-3.9,1.3-5c1.4-1.1,3.4-0.9,4.6,0.4
					C446.1,220.7,445.9,222.6,444.6,223.7z"/>
				<path class="st19" d="M444.6,223.7c1.3-1,1.5-2.6,0.7-3.9l0,0c0,0,1.6,4.4-5.2,4.9C441.4,225,443.5,224.5,444.6,223.7z"/>
				<path class="st21" d="M441.3,219.5c-0.8,0.4-1.3,1.1-1.5,0.8s0.3-0.9,1.1-1.3c0.8-0.4,1.6-0.5,1.8-0.2
					C442.9,219.1,442.1,219.1,441.3,219.5z"/>
			</g>
			<g>
				<polygon class="st22" points="395.4,206.5 394.4,206.7 395.1,207.4 				"/>
				<path class="st23" d="M401.5,206.3c-1.6,1.2-5,1.9-6.3,0.4s0-4.4,1.5-5.7s3.9-1,5.2,0.4C403.3,202.9,403.1,205.1,401.5,206.3z"
					/>
				<path class="st22" d="M401.5,206.3c1.4-1.1,1.7-3,0.8-4.4l0,0c0,0,1.8,5-5.9,5.5C398,207.8,400.3,207.2,401.5,206.3z"/>
				<path class="st24" d="M397.7,201.6c-0.9,0.6-1.3,1.3-1.6,1.1c-0.2-0.3,0.3-1,1.2-1.6c0.9-0.6,1.8-0.8,2-0.5
					C399.5,200.9,398.5,201,397.7,201.6z"/>
			</g>
			<g>
				<polygon class="st25" points="397.5,175.7 396.4,175.8 397.2,176.6 				"/>
				<path class="st23" d="M404.3,175.4c-1.8,1.4-5.6,2.1-7,0.5c-1.5-1.6,0-5,1.7-6.3c1.8-1.4,4.4-1.1,5.8,0.5
					C406.3,171.6,406.1,174,404.3,175.4z"/>
				<path class="st22" d="M404.3,175.4c1.6-1.2,1.9-3.4,0.9-4.9l0,0c0,0,2,5.6-6.6,6.2C400.4,177.1,403,176.4,404.3,175.4z"/>
				<path class="st24" d="M400,170.1c-0.9,0.5-1.4,1.3-1.7,1c-0.2-0.3,0.3-1,1.3-1.6c0.9-0.5,1.8-0.7,2.1-0.4
					C401.9,169.5,400.9,169.6,400,170.1z"/>
			</g>
			<g>
				<polygon class="st14" points="367.4,219.6 366.6,219.7 367.2,220.3 				"/>
				<path class="st13" d="M372.2,219.4c-1.2,1-3.9,1.5-4.9,0.3c-1-1.1,0-3.5,1.2-4.4s3.1-0.8,4.1,0.3S373.4,218.5,372.2,219.4z"/>
				<path class="st14" d="M372.2,219.4c1.1-0.9,1.3-2.3,0.6-3.5l0,0c0,0,1.4,3.9-4.6,4.3C369.4,220.6,371.2,220.1,372.2,219.4z"/>
				<path class="st15" d="M369.1,215.8c-0.6,0.4-1,0.9-1.2,0.7s0.2-0.7,0.9-1.1c0.6-0.4,1.3-0.5,1.4-0.3S369.8,215.4,369.1,215.8z"
					/>
			</g>
			<g>
				<polygon class="st22" points="445.9,209.1 444.9,209.2 445.5,209.9 				"/>
				<path class="st23" d="M451.9,208.8c-1.6,1.2-4.9,1.8-6.2,0.4c-1.3-1.4,0-4.4,1.5-5.6s3.9-1,5.2,0.4
					C453.7,205.4,453.5,207.6,451.9,208.8z"/>
				<path class="st22" d="M451.9,208.8c1.4-1.1,1.7-3,0.8-4.4l0,0c0,0,1.8,4.9-5.9,5.5C448.4,210.3,450.7,209.7,451.9,208.8z"/>
				<path class="st24" d="M448.1,204.2c-0.9,0.6-1.3,1.3-1.6,1c-0.2-0.3,0.3-1,1.2-1.6c0.9-0.6,1.7-0.8,2-0.5S449,203.6,448.1,204.2
					z"/>
			</g>
			<g>
				<path class="st13" d="M397.4,186.8c-1.7,1.9-5.9,3.4-8,1.8c-2-1.6-1.1-5.7,0.6-7.5s4.8-2.1,6.8-0.5
					C398.9,182.1,399.1,184.9,397.4,186.8z"/>
				<polygon class="st14" points="389.7,188.3 388.4,188.7 389.5,189.5 				"/>
				<path class="st14" d="M397.4,186.8c1.6-1.7,1.5-4.2,0-5.8l0,0c0,0,3.4,6-6.3,8.2C393.2,189.5,396.1,188.2,397.4,186.8z"/>
				<path class="st15" d="M391.9,181.1c-1.1,0.6-1.7,1.4-1.9,1c-0.2-0.4,0.4-1.2,1.5-1.7c1.1-0.6,2.1-0.7,2.4-0.3
					C394.1,180.5,393,180.6,391.9,181.1z"/>
			</g>
			<g>
				<polygon class="st19" points="414.3,167.9 412.5,168.2 413.8,169.5 				"/>
				<path class="st20" d="M425.1,167.5c-2.8,2.2-8.8,3.3-11.1,0.7c-2.3-2.6-0.1-7.9,2.7-10c2.8-2.2,6.9-1.8,9.2,0.7
					S427.9,165.3,425.1,167.5z"/>
				<path class="st19" d="M425.1,167.5c2.5-2,3.1-5.3,1.4-7.8l0,0c0,0,3.2,8.8-10.5,9.8C418.8,170.2,423,169.1,425.1,167.5z"/>
				<path class="st21" d="M418.2,159.2c-1.5,0.9-2.3,2.1-2.6,1.6c-0.3-0.5,0.6-1.6,2-2.5c1.5-0.9,2.9-1.2,3.3-0.6
					C421.2,158.1,419.7,158.3,418.2,159.2z"/>
			</g>
			<g>
				<path class="st23" d="M381.8,190.7c-2.4,1.8-7.5,2.8-9.5,0.6s-0.1-6.7,2.3-8.6c2.4-1.8,5.9-1.6,7.9,0.6
					C384.5,185.6,384.1,188.8,381.8,190.7z"/>
				<polygon class="st22" points="372.5,191.1 371,191.3 372.1,192.4 				"/>
				<path class="st22" d="M381.8,190.7c2.2-1.7,2.6-4.5,1.2-6.7l0,0c0,0,2.7,7.5-9,8.3C376.4,193,379.9,192.1,381.8,190.7z"/>
				<path class="st24" d="M375.8,183.9c-1.5,1-2.3,2.3-2.7,1.8c-0.4-0.5,0.5-1.7,2-2.7s3-1.4,3.4-0.9
					C378.9,182.6,377.3,182.9,375.8,183.9z"/>
			</g>
			<g>
				<polygon class="st22" points="346.7,225.1 345,225.3 346.2,226.6 				"/>
				<path class="st23" d="M356.5,224.7c-2.5,2-8,3-10.2,0.7c-2.1-2.3-0.1-7.2,2.5-9.1c2.5-2,6.3-1.7,8.4,0.7
					C359.4,219.3,359,222.7,356.5,224.7z"/>
				<path class="st22" d="M356.5,224.7c2.3-1.8,2.8-4.8,1.2-7.1l0,0c0,0,2.9,8-9.6,8.9C350.8,227.2,354.5,226.2,356.5,224.7z"/>
				<path class="st24" d="M349.9,217.1c-1.3,0.9-2,2-2.4,1.6c-0.3-0.4,0.4-1.5,1.8-2.4s2.7-1.2,3-0.8
					C352.7,216,351.2,216.3,349.9,217.1z"/>
			</g>
			<g>
				<polygon class="st22" points="345,188.8 344,188.8 344.6,189.6 				"/>
				<path class="st23" d="M350.9,189.1c-1.7,1-5.1,1.3-6.2-0.2s0.5-4.3,2.2-5.3s3.9-0.6,5,0.9C353.1,186,352.6,188.1,350.9,189.1z"
					/>
				<path class="st22" d="M350.9,189.1c1.5-0.9,2-2.7,1.3-4.2l0,0c0,0,1.1,5-6.4,4.7C347.3,190.3,349.6,189.9,350.9,189.1z"/>
				<path class="st24" d="M348.4,184c-0.9,0.2-1.5,0.6-1.6,0.3c-0.1-0.4,0.6-0.8,1.5-0.9c0.9-0.2,1.7,0,1.7,0.4
					C350.1,184.1,349.3,183.9,348.4,184z"/>
			</g>
			<g>
				<polygon class="st26" points="356.2,208.8 354.9,209 355.8,210 				"/>
				<path class="st17" d="M364.3,208.5c-2.1,1.6-6.6,2.5-8.3,0.5c-1.7-1.9-0.1-5.9,2-7.5s5.2-1.4,6.9,0.6
					C366.6,204,366.3,206.9,364.3,208.5z"/>
				<path class="st16" d="M364.3,208.5c1.9-1.5,2.3-4,1-5.8l0,0c0,0,2.3,6.6-7.8,7.3C359.6,210.5,362.6,209.7,364.3,208.5z"/>
				<path class="st18" d="M359.1,202.3c-1.1,0.6-1.7,1.5-2,1.2s0.4-1.2,1.5-1.8s2.2-0.9,2.4-0.5
					C361.3,201.5,360.2,201.7,359.1,202.3z"/>
			</g>
			<g>
				<polygon class="st14" points="337.1,177.8 335.5,178.1 336.6,179.3 				"/>
				<path class="st13" d="M346.9,177.4c-2.5,2-8,3-10.2,0.7c-2.1-2.3-0.1-7.2,2.5-9.1c2.5-2,6.3-1.7,8.4,0.7
					C349.8,172,349.5,175.5,346.9,177.4z"/>
				<path class="st14" d="M346.9,177.4c2.3-1.8,2.8-4.8,1.2-7.1l0,0c0,0,2.9,8-9.6,8.9C341.2,179.9,345,179,346.9,177.4z"/>
				<path class="st15" d="M340.6,170.2c-1.6,1.1-2.5,2.5-2.9,1.9s0.5-1.8,2.1-2.9c1.6-1.1,3.2-1.5,3.6-1
					C343.9,168.8,342.2,169.1,340.6,170.2z"/>
			</g>
			<g>
				<polygon class="st19" points="359.1,193 358.1,193.4 359,194 				"/>
				<path class="st20" d="M365.5,191.7c-1.4,1.6-4.9,2.8-6.6,1.5s-1-4.7,0.4-6.2c1.4-1.6,3.9-1.8,5.6-0.5S366.9,190.1,365.5,191.7z"
					/>
				<path class="st19" d="M365.5,191.7c1.3-1.4,1.2-3.5-0.1-4.8l0,0c0,0,2.9,4.9-5.1,6.9C362.1,193.9,364.4,192.9,365.5,191.7z"/>
				<path class="st21" d="M361.4,187.1c-1,0.4-1.6,1.2-1.8,0.8c-0.2-0.4,0.4-1.1,1.4-1.5s1.9-0.4,2.1,0
					C363.4,186.7,362.4,186.6,361.4,187.1z"/>
			</g>
			<g>
				<g>
					<polygon class="st16" points="365.8,177.7 364.8,177.9 365.5,178.6 					"/>
					<path class="st17" d="M371.9,177.1c-1.5,1.3-4.9,2.1-6.3,0.7s-0.3-4.5,1.2-5.8s3.9-1.2,5.3,0.2
						C373.5,173.6,373.4,175.8,371.9,177.1z"/>
					<path class="st16" d="M371.9,177.1c1.4-1.2,1.5-3.1,0.5-4.5l0,0c0,0,2.1,4.9-5.6,5.8C368.4,178.9,370.7,178.1,371.9,177.1z"/>
				</g>
				<path class="st18" d="M368.2,172.7c-1,0.5-1.5,1.3-1.7,0.9c-0.2-0.4,0.4-1,1.3-1.5c1-0.5,1.9-0.6,2.1-0.3
					C370.1,172.1,369.1,172.2,368.2,172.7z"/>
			</g>
			<g>
				<g>
					<polygon class="st19" points="378.9,174.7 377.5,174.9 378.4,175.9 					"/>
					<path class="st20" d="M387.2,174.4c-2.1,1.7-6.8,2.5-8.6,0.6c-1.8-2-0.1-6,2.1-7.7s5.3-1.4,7.1,0.6S389.3,172.7,387.2,174.4z"
						/>
					<path class="st19" d="M387.2,174.4c1.9-1.5,2.3-4.1,1.1-6l0,0c0,0,2.4,6.8-8.1,7.5C382.3,176.5,385.5,175.7,387.2,174.4z"/>
				</g>
				<path class="st21" d="M381.9,168c-1.1,0.7-1.8,1.6-2,1.2c-0.3-0.4,0.4-1.2,1.5-1.9s2.2-0.9,2.5-0.5S383,167.4,381.9,168z"/>
			</g>
			<g>
				<g>
					<polygon class="st22" points="382.6,215.3 381.7,215.5 382.5,216.2 					"/>
					<path class="st23" d="M388.4,214.1c-1.3,1.4-4.4,2.5-5.9,1.3s-0.8-4.2,0.5-5.6c1.3-1.4,3.5-1.5,5-0.4
						C389.5,210.7,389.6,212.8,388.4,214.1z"/>
					<path class="st22" d="M388.4,214.1c1.2-1.3,1.1-3.1,0-4.3l0,0c0,0,2.5,4.5-4.7,6.1C385.3,216.1,387.4,215.2,388.4,214.1z"/>
				</g>
				<path class="st24" d="M384.3,209.9c-0.8,0.4-1.2,1-1.4,0.7s0.3-0.9,1.1-1.3c0.8-0.4,1.6-0.5,1.7-0.2
					C385.9,209.5,385.1,209.5,384.3,209.9z"/>
			</g>
		</g>
	</g>
	<g>
		<defs>
			<rect id="SVGID_23_" y="0" width="453.2" height="254.9"/>
		</defs>
		<clipPath id="SVGID_24_">
			<use xlink:href="#SVGID_23_"  style="overflow:visible;"/>
		</clipPath>
		<path class="st27" d="M566.1,640.2c-61.7,0-115.9-10.6-156.5-30.5c-37.5-18.4-60.8-43.7-65.6-71.1c-4.6-26.2,11.2-55,45.6-83.4
			c11.6-9.6,24.2-18.3,36.4-26.7c14.3-9.9,29.1-20.2,42.2-31.7c30.6-27.1,44.3-64,34-91.8c-10.7-29.1-45-45.6-96.4-46.6
			c-1.9,0-3.8-0.1-5.7-0.1c-60.5,0-102.7,19-118.9,53.6c-12.7,27-7.5,62.7,12.6,86.8s30.8,46.6,31.7,66.6
			c0.8,17.4-5.6,33.7-19.2,48.4c-24,25.9-72.1,29.2-111.3,29.2c-35.2,0-67.9-0.9-117.7-1.7c0,0-17.4-19-30.5-47.9
			c46,4.3,105,9,152,9c59.2,0,76.7-16.9,81-27.8c7.2-18.3-2.9-37.6-14.7-59.9c-10.5-20.1-21.4-40.8-21.4-64.2
			c0-80.1,79.7-108.6,148-108.6c28.5,0,57.2,4.8,80.8,13.6c25.3,9.3,43.5,22.5,52.7,38c21,35.2,17.3,70.3-10.4,98.9
			c-10.8,11.1-26.2,23.2-42.6,35.9c-37.2,29-79.3,61.8-83.8,96.4c-2.1,16.3,8.8,30.5,32.5,42.1c23.3,11.4,53.4,17.4,69.3,20
			c16.6,2.7,38.2,4.1,62.5,4.1c48.1,0,99.6-5.5,137.9-14.6c44.3-10.6,68.6-25.3,68.6-41.5c0-9.7-11.4-21.7-31.2-33.2
			c-17-9.8-38.1-17.6-51.2-19l-5.6-0.6l19.3-22.8l1.8,0.5c63.2,16,92.8,48.6,98.9,71.6c3,11.3-0.4,23.8-9.9,36.1
			C753.2,603.5,670.4,640.2,566.1,640.2z"/>
	</g>
	<g>
		<defs>
			<rect id="SVGID_25_" y="0" width="453.2" height="254.9"/>
		</defs>
		<clipPath id="SVGID_26_">
			<use xlink:href="#SVGID_25_"  style="overflow:visible;"/>
		</clipPath>
		<path class="st28" d="M304.1,511.5c23.8-25.7,29.5-60.5-12.6-111.1c-38.8-46.5-32.6-147.9,114.4-145.2
			c123.5,2.3,123.5,91.4,64.4,143.7c-24.4,21.6-53.6,37.8-78.7,58.5S341.7,507.1,347,538c9,51.6,88.5,99.2,219.2,99.2
			c131.3,0,234.1-59.7,222-105.3c-6-22.7-36-54.1-96.7-69.5l-14.4,17c26.2,2.8,85.1,30.5,85.1,55.1c0,50.2-191.1,68.1-272.5,55.1
			c-42.8-6.9-109.4-25.3-104.2-65.4c6.6-51.4,92.2-97.9,127.2-134.1c23-23.8,33-56.7,10-95.3c-42.1-70.6-276-78.7-276,55.5
			c0,48.5,50.3,88.6,35.9,125.2c-9.9,25.1-66.3,30.7-83.8,30.7c-47.8,0-114-5.1-150.5-9.9c7,14.3,15.7,28.6,26.5,41.7
			c38.4,0.9,85.4,1.8,120.2,1.8C231.5,539.8,280.3,537.2,304.1,511.5z"/>
	</g>
	<g class="st2">
		<defs>
			<rect id="SVGID_27_" y="0" width="453.2" height="254.9"/>
		</defs>
		<clipPath id="SVGID_28_" class="st3">
			<use xlink:href="#SVGID_27_"  style="overflow:visible;"/>
		</clipPath>
		<g class="st29">
			<polygon class="st20" points="170.5,249.9 145.7,246.8 143.5,247.3 160.8,252.8 			"/>
			<path class="st20" d="M145.5,254c-6.6-1-13.7-4.3-16.5-5.7c-0.8-0.4-1.7-0.5-2.6-0.3l-3.8,0.8c0,0,8.9,7.9,7.2,9L145.5,254z"/>
			<path class="st30" d="M125.2,259.1c26.1-7.1,56.9-13,65.2-14c9-1.1,10.1,1.5,10.1,1.5s2.2,3.7-43.6,11.6c0,0-7,1.3-13.8,1.7
				s-17.6,0.5-17.6,0.5L125.2,259.1z"/>
			<polygon class="st30" points="158.8,251 144.4,247.3 143.9,247.4 156.7,251.5 			"/>
			<path class="st20" d="M143.8,259.8c6.9-0.4,13.1-1.7,13.1-1.7c33.5-5.8,41.4-9.3,43.1-10.7l0,0c0,0-2.1,0.6-3.7-0.8
				c0,0-6.2,2.2-28.3,6.9c-18.7,4-29.2,5.9-42.6,6.3l0.1,0.4C125.5,260.3,136.9,260.2,143.8,259.8z"/>
			<polygon class="st30" points="123.4,249.5 125.5,249.1 132.3,255.9 129.7,256.4 			"/>
			<path class="st20" d="M181.4,252.4l-19.7,18.2l-2.6,0.6l7.8-14.3l-1.8-1c-0.4-0.2-0.3-0.7,0.1-0.9c0.9-0.4,2.8-1.1,7.2-2.1
				c5-1.1,7.4-1.3,8.6-1.4C181.5,251.5,181.8,252,181.4,252.4z"/>
			<g>
				<path class="st31" d="M164,254.1L164,254.1c-0.3,0.1-0.5-0.1-0.6-0.3l-0.1-0.3c-0.1-0.3,0.1-0.5,0.4-0.6l0,0
					c0.3-0.1,0.5,0.1,0.6,0.3l0.1,0.3C164.4,253.8,164.2,254.1,164,254.1z"/>
				<path class="st31" d="M165.9,253.7L165.9,253.7c-0.3,0.1-0.5-0.1-0.6-0.3l-0.1-0.3c-0.1-0.3,0.1-0.5,0.4-0.6l0,0
					c0.3-0.1,0.5,0.1,0.6,0.3l0.1,0.3C166.4,253.4,166.2,253.7,165.9,253.7z"/>
				<path class="st31" d="M167.9,253.3L167.9,253.3c-0.3,0.1-0.5-0.1-0.6-0.3l-0.1-0.3c-0.1-0.3,0.1-0.5,0.4-0.6l0,0
					c0.3-0.1,0.5,0.1,0.6,0.3l0.1,0.3C168.4,253,168.2,253.2,167.9,253.3z"/>
				<path class="st31" d="M169.9,252.9L169.9,252.9c-0.3,0.1-0.5-0.1-0.6-0.3l-0.1-0.3c-0.1-0.3,0.1-0.5,0.4-0.6l0,0
					c0.3-0.1,0.5,0.1,0.6,0.3l0.1,0.3C170.3,252.6,170.2,252.8,169.9,252.9z"/>
				<path class="st31" d="M171.9,252.5L171.9,252.5c-0.3,0.1-0.5-0.1-0.6-0.3l-0.1-0.3c-0.1-0.3,0.1-0.5,0.4-0.6l0,0
					c0.3-0.1,0.5,0.1,0.6,0.3l0.1,0.3C172.3,252.1,172.1,252.4,171.9,252.5z"/>
				<path class="st31" d="M173.8,252L173.8,252c-0.3,0.1-0.5-0.1-0.6-0.3l-0.1-0.3c-0.1-0.3,0.1-0.5,0.4-0.6l0,0
					c0.3-0.1,0.5,0.1,0.6,0.3l0.1,0.3C174.3,251.7,174.1,252,173.8,252z"/>
				<path class="st31" d="M175.8,251.6L175.8,251.6c-0.3,0.1-0.5-0.1-0.6-0.3l-0.1-0.3c-0.1-0.3,0.1-0.5,0.4-0.6l0,0
					c0.3-0.1,0.5,0.1,0.6,0.3l0.1,0.3C176.2,251.3,176.1,251.5,175.8,251.6z"/>
				<path class="st31" d="M177.8,251.2L177.8,251.2c-0.3,0.1-0.5-0.1-0.6-0.3l-0.1-0.3c-0.1-0.3,0.1-0.5,0.4-0.6l0,0
					c0.3-0.1,0.5,0.1,0.6,0.3l0.1,0.3C178.2,250.9,178,251.1,177.8,251.2z"/>
				<path class="st31" d="M179.7,250.8L179.7,250.8c-0.3,0.1-0.5-0.1-0.6-0.3l-0.1-0.3c-0.1-0.3,0.1-0.5,0.4-0.6l0,0
					c0.3-0.1,0.5,0.1,0.6,0.3l0.1,0.3C180.2,250.4,180,250.7,179.7,250.8z"/>
				<path class="st31" d="M181.7,250.3L181.7,250.3c-0.3,0.1-0.5-0.1-0.6-0.3l-0.1-0.3c-0.1-0.3,0.1-0.5,0.4-0.6l0,0
					c0.3-0.1,0.5,0.1,0.6,0.3l0.1,0.3C182.2,250,182,250.3,181.7,250.3z"/>
				<path class="st31" d="M183.7,249.9L183.7,249.9c-0.3,0.1-0.5-0.1-0.6-0.3l-0.1-0.3c-0.1-0.3,0.1-0.5,0.4-0.6l0,0
					c0.3-0.1,0.5,0.1,0.6,0.3l0.1,0.3C184.1,249.6,184,249.9,183.7,249.9z"/>
				<path class="st31" d="M185.7,249.5L185.7,249.5c-0.3,0.1-0.5-0.1-0.6-0.3l-0.1-0.3c-0.1-0.3,0.1-0.5,0.4-0.6l0,0
					c0.3-0.1,0.5,0.1,0.6,0.3l0.1,0.3C186.1,249.2,185.9,249.4,185.7,249.5z"/>
				<path class="st31" d="M156.1,255.8L156.1,255.8c-0.3,0.1-0.5-0.1-0.6-0.3l-0.1-0.3c-0.1-0.3,0.1-0.5,0.4-0.6l0,0
					c0.3-0.1,0.5,0.1,0.6,0.3l0.1,0.3C156.5,255.5,156.4,255.8,156.1,255.8z"/>
				<path class="st31" d="M158.1,255.4L158.1,255.4c-0.3,0.1-0.5-0.1-0.6-0.3l-0.1-0.3c-0.1-0.3,0.1-0.5,0.4-0.6l0,0
					c0.3-0.1,0.5,0.1,0.6,0.3l0.1,0.3C158.5,255.1,158.3,255.4,158.1,255.4z"/>
				<path class="st31" d="M160,255L160,255c-0.3,0.1-0.5-0.1-0.6-0.3l-0.1-0.3c-0.1-0.3,0.1-0.5,0.4-0.6l0,0
					c0.3-0.1,0.5,0.1,0.6,0.3l0.1,0.3C160.5,254.7,160.3,254.9,160,255z"/>
				<path class="st31" d="M162,254.6L162,254.6c-0.3,0.1-0.5-0.1-0.6-0.3l-0.1-0.3c-0.1-0.3,0.1-0.5,0.4-0.6l0,0
					c0.3-0.1,0.5,0.1,0.6,0.3l0.1,0.3C162.4,254.3,162.3,254.5,162,254.6z"/>
			</g>
			<path class="st31" d="M199.3,245.6c0,0,0.6,0.6-1.4,1.1c-0.5,0.1-1.1,0.1-1.5-0.1l0,0c0,0,2.5-0.5,1.8-1.4
				C198.5,245.3,198.9,245.4,199.3,245.6z"/>
		</g>
	</g>
</g>
</svg>
