<svg xmlns="http://www.w3.org/2000/svg" xmlns:xlink="http://www.w3.org/1999/xlink" id="B8" x="0" y="0" version="1.1" viewBox="0 0 524.5 295" xml:space="preserve"><defs/><style>.st69{fill:#333}.st209{fill:#58838b}.st211{fill:#426268}.st215{fill:#b13b1c}.st216{fill:#679aa3}.st219{fill:#736342}.st506{clip-path:url(#SVGID_16_)}</style><defs><path id="SVGID_13_" d="M-1437.1-2.9h524.5v295h-524.5z"/></defs><clipPath id="SVGID_2_"><use overflow="visible" xlink:href="#SVGID_13_"/></clipPath><path fill="#fff" d="M-1437.1-2.9H136.7v885.3h-1573.8z" clip-path="url(#SVGID_2_)"/><path fill="#bdefef" d="M-1356.2 430.6c93.7 0 142.2-206.2 287.8-225.1 110.9-14.4 155 48.1 208.4 48.1 75.2 0 171.4-76.5 298.9-9.7 81.4 42.6 158.3 90.3 217 96.3s191-26 259.1.6C103.2 414.5 61 665.2 61 665.2h-1426l8.8-234.6z" clip-path="url(#SVGID_2_)"/><path fill="#e2efef" d="M-92.4 205.9l-221.5 18.7 329.5-12.3z" clip-path="url(#SVGID_2_)"/><path fill="#fff" d="M16.8 155.2l-581.5 17.2 580.3 17.1z" clip-path="url(#SVGID_2_)" opacity=".45"/><path fill="#23b347" d="M61.9 523.5c-114.2 0-201.1 9.5-250.8-9.7-120.5-46.4-109.7-187-335.6-187-112.5 0-152 34.6-242.8 34.6-50.5 0-110.5-99.8-217.5-99.8-198.1 0-192.8 154.3-355.8 168.3-13.8 1.2-24.5 12.8-24.5 26.6 0 49.5-2.6 98.6-5 143.6-4.4 82.4-6.4 149.9 21.7 172 38.4 17.2 180.1-25.9 305.9.4 182.3 38.2 240.5 16.6 427.6 6.4 112.3-6.1 275.8-9.3 330.2-8.7 161.5 1.7 308.4 26.6 335.1 1.9 25.8-23.9 24.7-148.9 11.5-248.6z" clip-path="url(#SVGID_2_)"/><path fill="#25bf4c" d="M16.8 529.7c-53.1 2.9-223.8 46.6-280.8-2.2-36.7-31.5-59.7-70.9-81.9-92.4-66.9-64.4-290.3-130.3-408.7-15.7-30.2 29.2-50.1 61.8-30.5 98.9 2.5 4.6 5.8 8.9 9.8 12.7 27.7-.8 84.7-9.6 97.2-35.6l54 7.8c-18.8 25.6-61.8 45.5-99.2 55.9 42.8 15.8 90.4 26.6 90.4 55.4 0 39.5-331 46.4-339.2-29.5-4.8-44.3 88.3-106.3 101.9-122.9 43.6-53.2 51.4-94.8 3.6-144.3-47.8-49.4-122.4-65.8-188.1-45.4-145.1 44.9-143.2 146.9-92.7 218.5 7 9.9 9.9 23.7 4.6 34.7-8.4 17.3-31.9 18.9-51.1 18.1-42.4-1.8-130.2-6-172.6-7.8l-6.4 119.8c57.8-5.8 272.9-16.3 327.6 30.5 48.4 41.4 162.3 62.8 258.1 62.3 150.5 3.3 274.5-90 267-163.5-14-138.4-255.1-75.9-155.8-146.4 65-46.1 189.4-19.3 245.3 14 11.7 7 23.2 15.1 31 26.3 7.8 11.2 11.4 26.1 6.4 38.8-5.6 14.1-20 22.4-33.9 28.6-13.8 6-28.4 10.7-43.3 14.2-20.4 4.8-22.4 33.1-2.8 40.5.2.1.3.1.5.2 15.3 5.6 32.1 5 48.1 2.8 16.1-2.2 32-6 48.2-6.5 36.6-1.2 73.4 9.5 106.1 26C-150 684.2-41.1 603.4 17 552.6l-.2-22.9z" clip-path="url(#SVGID_2_)"/><g clip-path="url(#SVGID_2_)"><defs><path id="SVGID_15_" d="M61.9 523.5c-114.2 0-201.1 9.5-250.8-9.7-120.5-46.4-109.7-187-335.6-187-112.5 0-152 34.6-242.8 34.6-50.5 0-110.5-99.8-217.5-99.8-198.1 0-192.8 154.3-355.8 168.3-13.8 1.2-24.5 12.8-24.5 26.6 0 49.7-3.5 97.2-5 143.6-2.7 82.2-6.3 150 21.7 172 38.4 17.2 180.1-25.9 305.9.4 182.3 38.2 240.5 16.6 427.6 6.4 112.3-6.1 275.8-9.3 330.2-8.7 161.5 1.7 308.4 26.6 335.1 1.9 25.8-23.9 24.7-148.9 11.5-248.6z"/></defs><clipPath id="SVGID_4_"><use overflow="visible" xlink:href="#SVGID_15_"/></clipPath></g><g><defs><path id="SVGID_17_" d="M-718.7-7.1h524.5v295h-524.5z"/></defs><clipPath id="SVGID_6_"><use overflow="visible" xlink:href="#SVGID_17_"/></clipPath><path fill="#fff" d="M-1242.8-7.1H331v885.3h-1573.8z" clip-path="url(#SVGID_6_)"/><path fill="#bdefef" d="M-1161.9 426.4c93.7 0 142.2-206.2 287.8-225.1 110.9-14.4 155 48.1 208.4 48.1 75.2 0 171.4-76.5 298.9-9.7 81.4 42.6 158.3 90.3 217 96.3s191-26 259.1.6c188.2 73.7 146 324.3 146 324.3h-1426l8.8-234.5z" clip-path="url(#SVGID_6_)"/><path fill="#558c8c" d="M67.1 282.6l2.6 3.2v15.6l-4.1-3z" clip-path="url(#SVGID_6_)"/><path fill="#e2efef" d="M102 201.7l-221.6 18.7L210 208.1z" clip-path="url(#SVGID_6_)"/><path fill="#fff" d="M211.2 151.1l-581.6 17.1L210 185.3z" clip-path="url(#SVGID_6_)" opacity=".45"/><path fill="#62a1a1" d="M61.4 282.6h5.7v39.7h-5.7z" clip-path="url(#SVGID_6_)"/><path fill="#23b347" d="M256.3 519.3c-114.2 0-201.1 9.5-250.8-9.7-120.5-46.4-109.7-187-335.6-187-112.5 0-152 34.6-242.8 34.6-50.5 0-110.5-99.8-217.5-99.8-198.1 0-192.8 154.3-355.8 168.3-13.8 1.2-24.5 12.8-24.5 26.6 0 49.5-2.6 98.6-5 143.6-4.4 82.4-6.4 149.9 21.7 172 38.4 17.2 180.1-25.9 305.9.4 182.3 38.2 240.5 16.6 427.6 6.4 112.3-6.1 275.8-9.3 330.2-8.7 161.5 1.7 308.4 26.6 335.1 1.9 25.8-23.9 24.6-148.9 11.5-248.6z" clip-path="url(#SVGID_6_)"/><path fill="#25bf4c" d="M211.1 525.5c-53.1 2.9-223.8 46.6-280.8-2.2-36.7-31.5-59.7-70.9-81.9-92.4-66.9-64.4-290.3-130.3-408.7-15.7-30.2 29.2-50.1 61.8-30.5 98.9 2.5 4.6 5.8 8.9 9.8 12.7 27.7-.8 84.7-9.6 97.2-35.6l54 7.8c-18.8 25.6-61.8 45.5-99.2 55.9 42.8 15.8 90.4 26.6 90.4 55.4 0 39.5-331 46.4-339.2-29.5-4.8-44.3 88.3-106.3 101.9-122.9 43.6-53.2 51.4-94.8 3.6-144.3-47.8-49.4-122.4-65.8-188.1-45.4-145.1 44.9-143.2 146.9-92.7 218.5 7 9.9 9.9 23.7 4.6 34.7-8.4 17.3-31.9 18.9-51.1 18.1-42.4-1.8-130.2-6-172.6-7.8l-6.4 119.8c57.8-5.8 272.9-16.3 327.6 30.5 48.4 41.4 162.3 62.8 258.1 62.3 150.5 3.3 274.5-90 267-163.5-14-138.4-255.1-75.9-155.8-146.4 65-46.1 189.4-19.3 245.3 14 11.7 7 23.2 15.1 31 26.3 7.8 11.2 11.4 26.1 6.4 38.8-5.6 14.1-20 22.4-33.9 28.6-13.8 6-28.4 10.7-43.3 14.2-20.4 4.8-22.4 33.1-2.8 40.5.2.1.3.1.5.2 15.3 5.6 32.1 5 48.1 2.8 16.1-2.2 32-6 48.2-6.5 36.6-1.2 73.4 9.5 106.1 26 120.4 60.7 229.3-20.1 287.4-70.9l-.2-22.9z" clip-path="url(#SVGID_6_)"/><g clip-path="url(#SVGID_6_)"><defs><path id="SVGID_19_" d="M256.3 519.3c-114.2 0-201.1 9.5-250.8-9.7-120.5-46.4-109.7-187-335.6-187-112.5 0-152 34.6-242.8 34.6-50.5 0-110.5-99.8-217.5-99.8-198.1 0-192.8 154.3-355.8 168.3-13.8 1.2-24.5 12.8-24.5 26.6 0 49.7-3.5 97.2-5 143.6-2.7 82.2-6.3 150 21.7 172 38.4 17.2 180.1-25.9 305.9.4 182.3 38.2 240.5 16.6 427.6 6.4 112.3-6.1 275.8-9.3 330.2-8.7 161.5 1.7 308.4 26.6 335.1 1.9 25.8-23.9 24.6-148.9 11.5-248.6z"/></defs><clipPath id="SVGID_8_"><use overflow="visible" xlink:href="#SVGID_19_"/></clipPath></g></g><g><defs><path id="SVGID_21_" d="M-1440.9 486.5h524.5v295h-524.5z"/></defs><clipPath id="SVGID_10_"><use overflow="visible" xlink:href="#SVGID_21_"/></clipPath><path fill="#fff" d="M-1440.9 191.4H132.9v885.3h-1573.8z" clip-path="url(#SVGID_10_)"/></g><g><defs><path id="SVGID_25_" d="M-718.7 486.5h524.5v295h-524.5z"/></defs><clipPath id="SVGID_12_"><use overflow="visible" xlink:href="#SVGID_25_"/></clipPath><path fill="#fff" d="M-1242.8 191.4H331v885.3h-1573.8z" clip-path="url(#SVGID_12_)"/></g><g><defs><path id="SVGID_29_" d="M-2.9 486.5h524.5v295H-2.9z"/></defs><clipPath id="SVGID_14_"><use overflow="visible" xlink:href="#SVGID_29_"/></clipPath><path fill="#fff" d="M-1051.5 191.4H522.3v885.3h-1573.8z" clip-path="url(#SVGID_14_)"/></g><g><defs><path id="SVGID_33_" d="M3.1 0h524.5v295H3.1z"/></defs><clipPath id="SVGID_16_"><use overflow="visible" xlink:href="#SVGID_33_"/></clipPath><path fill="#fff" d="M-1045.5-.1H528.3v885.3h-1573.8z" clip-path="url(#SVGID_16_)"/><path fill="#bdefef" d="M-964.5 433.5c93.7 0 142.2-206.2 287.8-225.1 110.9-14.4 155 48.1 208.4 48.1 75.2 0 171.4-76.5 298.9-9.7 81.4 42.6 158.3 90.3 217 96.3s191-26 259.1.6c188.2 73.7 146 324.3 146 324.3h-1426l8.8-234.5z" clip-path="url(#SVGID_16_)"/><path fill="#558c8c" d="M264.4 289.7l2.7 3.1v15.7l-4.2-3z" clip-path="url(#SVGID_16_)"/><path fill="#e2efef" d="M61 272c0-6.6 2.7-11.4 8.8-14 5-2.2 10.1-1 15.3 3.3 2.9-3.9 6.7-5.8 11.5-4.4 4.7 1.4 7 5 7.2 9.9 5.1 0 8.6 2.3 10.2 7.3 7.1-5 16.3-3.6 20.9 4.8 1.7-.2 3.4-.5 5.1-.5 3.5.2 6.3 1.8 8.3 4.7.6.9 1.2 1.4 2.4 1.4 2.7.1 4.4 1.9 4.7 4.9H41.8c-.2-3 1.8-5.5 5.1-6.3.6-.2 1.5-.6 1.7-1 1.9-5.9 6.1-9.2 12.4-10.1zM299.3 208.8L77.7 227.5l329.6-12.3zM-550.2 207.7l418.2-10.2 209.7 10.2-418.8 9.4z" clip-path="url(#SVGID_16_)"/><path fill="#fff" d="M408.5 158.1L-173 175.3l580.3 17.1z" clip-path="url(#SVGID_16_)" opacity=".45"/><path fill="#62a1a1" d="M258.7 289.7h5.7v39.7h-5.7z" clip-path="url(#SVGID_16_)"/><path fill="#23b347" d="M453.6 526.4c-114.2 0-201.1 9.5-250.8-9.7-120.5-46.4-109.7-187-335.6-187-112.5 0-152 34.6-242.8 34.6-50.5 0-110.5-99.8-217.5-99.8-198.1 0-192.8 154.3-355.8 168.3-13.8 1.2-24.5 12.8-24.5 26.6 0 49.5-2.6 98.6-5 143.6-4.4 82.4-6.4 149.9 21.7 172 38.4 17.2 180.1-25.9 305.9.4 182.3 38.2 240.5 16.6 427.6 6.4 112.3-6.1 275.8-9.3 330.2-8.7 161.5 1.7 308.4 26.6 335.1 1.9 25.8-23.9 24.6-148.9 11.5-248.6z" clip-path="url(#SVGID_16_)"/><path fill="#25bf4c" d="M408.4 532.5c-53.1 2.9-223.8 46.6-280.8-2.2-36.7-31.5-59.7-70.9-81.9-92.4-66.9-64.4-290.3-130.3-408.7-15.7-30.2 29.2-50.1 61.8-30.5 98.9 2.5 4.6 5.8 8.9 9.8 12.7 27.7-.8 84.7-9.6 97.2-35.6l54 7.8c-18.8 25.6-61.8 45.5-99.2 55.9 42.8 15.8 90.4 26.6 90.4 55.4 0 39.5-331 46.4-339.2-29.5-4.8-44.3 88.3-106.3 101.9-122.9 43.6-53.2 51.4-94.8 3.6-144.3-47.8-49.4-122.4-65.8-188.1-45.4-145.1 44.9-143.2 146.9-92.7 218.5 7 9.9 9.9 23.7 4.6 34.7-8.4 17.3-31.9 18.9-51.1 18.1-42.4-1.8-130.2-6-172.6-7.8l-6.4 119.8c57.8-5.8 272.9-16.3 327.6 30.5 48.4 41.4 162.3 62.8 258.1 62.3 150.5 3.3 274.5-90 267-163.5-14-138.4-255.1-75.9-155.8-146.4 65-46.1 189.4-19.3 245.3 14 11.7 7 23.2 15.1 31 26.3 7.8 11.2 11.4 26.1 6.4 38.8-5.6 14.1-20 22.4-33.9 28.6-13.8 6-28.4 10.7-43.3 14.2-20.4 4.8-22.4 33.1-2.8 40.5.2.1.3.1.5.2 15.3 5.6 32.1 5 48.1 2.8 16.1-2.2 32-6 48.2-6.5 36.6-1.2 73.4 9.5 106.1 26 120.4 60.7 229.3-20.1 287.4-70.9l-.2-22.9z" clip-path="url(#SVGID_16_)"/><g class="st506"><defs><path id="SVGID_35_" d="M453.6 526.4c-114.2 0-201.1 9.5-250.8-9.7-120.5-46.4-109.7-187-335.6-187-112.5 0-152 34.6-242.8 34.6-50.5 0-110.5-99.8-217.5-99.8-198.1 0-192.8 154.3-355.8 168.3-13.8 1.2-24.5 12.8-24.5 26.6 0 49.7-3.5 97.2-5 143.6-2.7 82.2-6.3 150 21.7 172 38.4 17.2 180.1-25.9 305.9.4 182.3 38.2 240.5 16.6 427.6 6.4 112.3-6.1 275.8-9.3 330.2-8.7 161.5 1.7 308.4 26.6 335.1 1.9 25.8-23.9 24.6-148.9 11.5-248.6z"/></defs><clipPath id="SVGID_18_"><use overflow="visible" xlink:href="#SVGID_35_"/></clipPath></g><path fill="#333" d="M83.5 186.1c0 2.9-.3 5.3-.7 5.3-.4 0-.7-2.4-.7-5.3s.3-4.3.7-4.3c.4.1.7 1.4.7 4.3zM82.1 188c0 2.9-.3 5.3-.7 5.3-.4 0-.7-2.4-.7-5.3s.3-4.3.7-4.3c.3 0 .7 1.4.7 4.3z" clip-path="url(#SVGID_16_)"/><path fill="#63564b" d="M70.6 186.2l4.7 2 4.9-1.3.3 1.6s-3.2 2.3-4.7 2.3c-1.4 0-5.3-.5-5.3-.5s-1.7-3.4.1-4.1z" clip-path="url(#SVGID_16_)"/><path fill="#736357" d="M67.5 192.8s-3.3-7.9-.4-9.4 9.9 10.3 9.9 10.3l-9.5-.9z" clip-path="url(#SVGID_16_)"/><path fill="#b13b1c" d="M62.6 186.2s2.7-1.5 4.9 1 4 9.2 4 9.2l-11-2.5 2.1-7.7z" clip-path="url(#SVGID_16_)"/><g class="st506"><path d="M13.1 200.8l-8.3-17.3 15.9-1.6 7.9 9.5z" class="st209"/><path fill="#243538" d="M131.3 201.5c1.7-.2 3.5-.5 5.2-.8 3.6-11.3-2.5-25-2.5-25-1.1.1-2.9.3-5.2.6.6 1.3 5.9 13.5 2.5 25.2z"/><path d="M10.4 194.1l2.7 6.6c22.8-2.3 46 11.3 118.3.9 3.3-11.8-1.9-23.9-2.5-25.2-3.3.4-7.8 1.1-13.1 1.8-8.9 1.3-20 2.9-31.6 4.7 0 0 .2 8.2-10.1 9.2-10.4 1.1-11.4-6-11.4-6-27.6 4.1-52.3 8-52.3 8z" class="st209"/><path d="M82.5 178.8L94 160.2s27.9-8.5 28.8-2.9l-12.4 19.4-27.4 2.8c-.4 0-.7-.4-.5-.7zM24.1 188.2l-16.2 1.6-.5 3.7 16.1-1.6z" class="st211"/><path fill="#fff" d="M112.2 178.7c1.2-.2 2.4-.3 3.5-.5 5.2-.8 9.7-1.4 13.1-1.8 2.3-.3 4.1-.5 5.2-.6 0 0 3.5 7.9 3.7 16.6 0-.1-4.3-14.4-25.5-13.7z" opacity=".17"/><path d="M98.7 193.9l1.5-.7-3-29.5-1.5.1z" class="st69"/><path d="M13.1 200.6l-.8-2c18.7-1.8 45.5 6.5 125.2-1.5-.2 1.2-.5 2.5-.8 3.7-1.8.3-3.5.5-5.2.8-72.5 10.4-95.6-3.3-118.4-1z" opacity=".32"/><path d="M114.4 191.2l1.5.1-2.9-29.2-1.6.1z" class="st69"/><path d="M115.7 197.5h1.5v13.9h-1.5z" class="st69" transform="rotate(174.211 116.48 204.453)"/><path d="M114.3 212l1.2-.8-7-12.9-1.5.1zM90.7 182l1.2-.2-.5-4.9-1.3.1zM107 179.6l1.2-.2-.5-4.9-1.2.1z" class="st69"/><circle cx="117.3" cy="216.7" r="5.9" fill="#1f1f1f"/><circle cx="117.3" cy="216.7" r="4.2" fill="gray"/><path d="M137.1 186.1s4.1-.9 4.5 2.3c.3 3.2-3.8 2.7-3.8 2.7l-.7-5z" class="st215"/><path d="M139.4 188.3s.8-22.7-2.3-22.4c-3 .4 2.3 22.4 2.3 22.4zM139.4 188.5s5.3 22.1 2.3 22.4c-3.1.3-2.3-22.4-2.3-22.4z" class="st215"/><path d="M90.8 200.1l4.4-5.9s29-5.8 26.7-1.7l-4 4.8-27.1 2.8z" class="st211"/><path d="M95.2 194.1s29-5.8 26.7-1.7l-.3.4c-1-1.9-26.4 1.3-26.4 1.3zM122.7 157.3l-.7 1.1c-.2-3.5-28.1 1.8-28.1 1.8s27.9-8.4 28.8-2.9z" class="st216"/><path d="M84.1 182.8s2.4 9.1-8.7 10.2c-13.1 1.3-12.8-6.9-12.8-6.9s1.5 8.2 13.6 5.6c8.2-1.8 7.9-8.9 7.9-8.9z" class="st69"/><path fill="#999" d="M114.1 214.1s2.2.2 4 1.7c1.8 1.4 2.5 3.6 2.5 3.6 1.4-1.8 1.2-4.4-.6-5.8s-4.5-1.3-5.9.5z"/></g><path fill="#d19971" d="M80 186.6s1.5-1.9 1.7-.8c.2 1.1-.4 3.1-1.7 3.1s0-2.3 0-2.3z" clip-path="url(#SVGID_16_)"/><g class="st506"><path d="M63.8 179.7s-.1 2.1.8 3.4c.6.9-.4 1.7-.4 1.7l.2.2s1.3-.7.8-1.6c-.5-.9.2-2.2.2-2.2l-1.6-1.5z" class="st219"/><path fill="#d19971" d="M63.8 179.6s.9 5.7 3.8 4.9.4-6.1.4-6.1l-4.2 1.2z"/><path d="M67.9 179.5s.5 0 .8.9c.2.7.4 2.4.4 2.4l.4-.1s-.2-2.5-1.2-3.9l-.4.7z" class="st219"/><path d="M64 180.7s2.5-1.4 4.6-1.2c0 0-.8-2.3-3-1.6-2.6.7-1.6 2.8-1.6 2.8z" class="st219"/><path d="M64.7 182.6s-.7-1.6-.3-2.1H64v.4l.5 1.7h.2z" class="st219"/><path fill="#695a3c" d="M64.2 181.5c-.1-.3.8-.9 2.1-1.3s2.3-.4 2.5-.1c.1.4-.1.8-.5 1-.4.2-.9.3-1.2.3s-.6.1-.8.3c-.2.2-.7.4-1.1.4-.5 0-.9-.3-1-.6z"/><path fill="#73959c" d="M64.4 181.5c-.1-.3.8-.8 1.9-1.1s2.1-.4 2.2-.1c.1.3-.1.7-.4.9-.3.2-.8.3-1 .2s-.6.1-.7.2c-.2.2-.6.3-1 .4-.5 0-.9-.3-1-.5z"/></g><path fill="#d19971" d="M70.2 173.2s-.2-2.6-1.4-2.7c-1.2-.1.2 3 .2 3l1.2-.3z" clip-path="url(#SVGID_16_)"/><path fill="#736357" d="M66.9 184.6c2-.9 2.5-3.5 3.1-5.8l-1.1-5.3 1.2-.5s2.1 4.8 2.1 5.9c0 1.9-1.7 7.6-1.7 7.6l-3.6-1.9z" clip-path="url(#SVGID_16_)"/><path fill="#d19971" d="M68.9 173.5s-1.5-1.1-.9-1.5.9 1.5.9 1.5z" clip-path="url(#SVGID_16_)"/><path fill="none" stroke="#534741" stroke-miterlimit="10" stroke-width="1.06" d="M-53.1 168.7l73.8 16.2-74.4 30" clip-path="url(#SVGID_16_)"/></g></svg>