<svg xmlns="http://www.w3.org/2000/svg" xmlns:xlink="http://www.w3.org/1999/xlink" id="B8" x="0" y="0" version="1.1" viewBox="0 0 524.5 295" xml:space="preserve"><defs/><style>.st10{fill:#e2efef}.st10,.st20{clip-path:url(#SVGID_2_)}.st23{fill:#a7a6f6}.st24{fill:#a099e9}.st25{fill:#bebefc}.st26{fill:#75aeb9}.st27{fill:#4e9da3}.st28{fill:#91bec7}.st29{fill:#96cd7c}.st31{fill:#84cb66}.st32{fill:#abd796}.st33{fill:#ffdf57}.st34{fill:#e9ca25}.st35{fill:#f9e698}.st71{fill:#ff882a}.st106{fill:#b3b3b3}.st203{fill:none;stroke:#736357;stroke-width:.3203;stroke-miterlimit:10}.st204{fill:#8c6239}.st205{fill:#f2f2f2}.st233{fill:#e2efef}.st233,.st243{clip-path:url(#SVGID_6_)}.st348{clip-path:url(#SVGID_10_)}</style><defs><path id="SVGID_15_" d="M0 0h524.5v295H0z"/></defs><clipPath id="SVGID_2_"><use overflow="visible" xlink:href="#SVGID_15_"/></clipPath><path fill="#fff" d="M0-.1h1573.8v885.3H0z" clip-path="url(#SVGID_2_)"/><path fill="#bdefef" d="M80.9 433.5c93.7 0 142.2-206.2 287.8-225.1 110.9-14.4 155 48.1 208.4 48.1 75.2 0 171.4-76.5 298.9-9.7 81.4 42.6 158.3 90.3 217 96.3 58.7 6 191-26 259.1.6 188.2 73.7 146 324.3 146 324.3H72.1l8.8-234.5z" clip-path="url(#SVGID_2_)"/><path d="M153.1 260.4c-.1-7.1 4.9-10.3 14.2-9 .4-4.9 2.2-9.1 6.6-11.7 1.4-.8 2.9-1.6 4.4-1.7 2.6-.1 3.5-1.2 4.3-3.6 3.2-10.5 13.7-17.3 24.5-16.2 11.1 1.2 19.9 9.9 21 20.9.2 1.6.6 2.4 2.2 3 5.2 1.8 8.9 5.5 11.3 10.4 8.8-1.1 12.9 1.2 13.3 7.9H153.1zM454.4 257c.6-3.2 3.5-5.8 7.1-6.1 1.2-.1 1.8-.4 2.4-1.5 1.1-2.2 3-3.8 5.4-4.7.9-.3 1.1-.8 1.1-1.7-.1-5.4 3.2-8.8 8.6-9.2.7-.1 1.5-.8 2-1.4 5.5-8 15.6-10.9 24-6.4 2.4 1.3 4.4 3.4 6.3 5.3.7.7 1.3 1.2 2.4 1.2 2.6-.1 5.1.6 7.1 2.2.7.6 1.3.6 2.1.1.6-.4 1.4-.7 2-.6 2 .4 3.8-.5 5.6-1 8.3-2.3 16.8 1 21.5 8.3.6.9 1.1 1.2 2.2 1.1 4.3-.3 7.8 1.3 10.5 4.7.3.4 1.1.6 1.6.5 3.9-.6 6.9.7 9.1 3.9.4.5 1.2.9 1.9 1 2.4.4 4.1 2 4.3 4.4-42.5-.1-84.9-.1-127.2-.1zM495.3 207.7l418.1-10.2 209.8 10.2-418.8 9.4z" class="st10"/><path fill="#b3b3b3" d="M401.4 409.6h501.9s-212.6-158-233.5-158c-8.5 0-34 12.5-61.1 27.3L401.4 409.6z" clip-path="url(#SVGID_2_)"/><path d="M246.2 157.6L647.9 168l-530.8 19z" class="st10"/><path fill="#23b347" d="M1499 526.4c-114.2 0-201.1 9.5-250.8-9.7-120.5-46.4-109.7-187-335.6-187-112.5 0-152 34.6-242.8 34.6-50.5 0-110.5-99.8-217.5-99.8-198.1 0-192.8 154.3-355.8 168.3C82.7 434 72 445.6 72 459.4c0 49.5-2.6 98.6-5 143.6-4.4 82.4-6.4 149.9 21.7 172 38.4 17.2 180.1-25.9 305.9.4 182.3 38.2 240.5 16.6 427.6 6.4 112.3-6.1 275.8-9.3 330.2-8.7 161.5 1.7 308.4 26.6 335.1 1.9 25.9-23.9 24.7-148.9 11.5-248.6z" clip-path="url(#SVGID_2_)"/><g class="st20"><path d="M372.1 231.8c-1.3 1.7-4.6 3.2-6.3 1.9-1.7-1.3-1.1-4.9.2-6.5 1.3-1.7 3.7-2 5.4-.7s2 3.7.7 5.3z" class="st23"/><path d="M366 233.5l-1 .4.9.7zM372.1 231.8c1.2-1.5 1-3.7-.3-5 0 0 3 5-4.6 7.4 1.7.1 3.9-1 4.9-2.4z" class="st24"/><path d="M368.3 227.1c-1.1.3-1.9 1-2.1.5-.1-.5.7-1.1 1.8-1.4 1.1-.3 2.2-.1 2.3.4s-.8.2-2 .5z" class="st25"/><path d="M428 217.9l-1.1.4 1 .9z" class="st31"/><path d="M435.2 216.3c-1.6 1.9-5.5 3.4-7.4 1.8-1.9-1.6-1.1-5.7.5-7.6 1.6-1.9 4.4-2.1 6.3-.6 1.9 1.7 2.2 4.5.6 6.4z" class="st29"/><path d="M435.2 216.3c1.4-1.7 1.4-4.2-.1-5.8 0 0 3.2 6-5.8 8.3 2.1.3 4.7-1 5.9-2.5z" class="st31"/><path d="M429.5 210.9c-.8.7-1.2 1.7-1.5 1.4s.2-1.2 1-1.9 1.7-1.1 2-.8c.3.3-.7.6-1.5 1.3z" class="st32"/><path d="M442.8 216.3l-1.1.3.9.8z" class="st27"/><path d="M449.3 214.8c-1.4 1.7-5 3.1-6.7 1.7-1.7-1.4-.9-5.2.5-6.9 1.4-1.7 4-1.9 5.7-.5 1.7 1.5 1.9 4 .5 5.7z" class="st26"/><path d="M449.3 214.8c1.3-1.6 1.2-3.8-.1-5.3 0 0 2.9 5.5-5.2 7.5 1.8.3 4.2-.8 5.3-2.2z" class="st27"/><path d="M445.2 209.5c-.9.3-1.6 1-1.7.6-.1-.4.5-1 1.5-1.3s1.8-.2 2 .2c.1.3-.8.2-1.8.5z" class="st28"/><path d="M487.5 218c-1.3 1.6-4.6 3-6.2 1.7-1.6-1.3-1-4.8.3-6.4s3.7-1.9 5.3-.6c1.7 1.3 1.9 3.7.6 5.3z" class="st26"/><path d="M481.5 219.5l-1 .4.9.7z" class="st27"/><path d="M483.2 213.6c-1 .6-1.6 1.5-1.8 1-.2-.4.4-1.3 1.4-1.8 1-.6 2-.7 2.3-.2.2.4-.9.4-1.9 1z" class="st28"/><path d="M482.5 220.2c7.1-1.4 4.9-7 4.9-7s2 2.2.1 4.8c-1.9 2.6-5 2.2-5 2.2z" class="st27"/><path d="M410.3 225.4l-1.5.6 1.4 1z" class="st31"/><path d="M419.5 222.8c-1.9 2.5-6.8 4.8-9.3 2.9-2.5-1.9-1.7-7.2.2-9.8 1.9-2.5 5.5-3 8-1.1s3 5.5 1.1 8z" class="st29"/><path d="M419.4 222.9c1.8-2.3 1.6-5.5-.3-7.5 0 0 4.4 7.6-7.1 10.9 2.5.3 5.9-1.4 7.4-3.4z" class="st31"/><path d="M412.2 216.1c-1 .9-1.5 2.1-1.9 1.6-.4-.5.2-1.5 1.2-2.4 1-.9 2.2-1.2 2.6-.8s-.8.7-1.9 1.6z" class="st32"/><path d="M468.7 238.7l-1.2-.1.6 1.2z" class="st31"/><path d="M476 239.6c-2.1 1.3-6.4 1.4-7.6-.7-1.3-2.1.9-5.8 3-7 2.1-1.3 4.9-.6 6.2 1.6 1.3 2 .6 4.8-1.6 6.1z" class="st29"/><path d="M476 239.6c1.9-1.2 2.7-3.5 1.9-5.6 0 0 1.1 6.8-8.3 6 1.9.8 4.8.5 6.4-.4z" class="st31"/><path d="M471.7 233.2c-1.1.7-1.7 1.7-1.9 1.3s.4-1.3 1.5-2 2.1-1 2.4-.6-.9.6-2 1.3z" class="st32"/><path d="M469.2 226.1c-1.7 1-5 1.1-6-.6s.7-4.5 2.4-5.5 3.9-.4 4.8 1.2.5 3.9-1.2 4.9z" class="st23"/><path d="M463.4 225.4h-.9l.5.8zM469.2 226.1c1.5-.9 2.1-2.8 1.5-4.4 0 0 .8 5.3-6.5 4.7 1.4.7 3.7.4 5-.3z" class="st24"/><path d="M465.4 221.3c-.8.7-1.1 1.5-1.4 1.2-.3-.3.1-1.1.9-1.8s1.6-1 1.8-.7c.4.4-.5.6-1.3 1.3z" class="st25"/><path d="M450.7 204.3l-.8.2.6.6z" class="st31"/><path d="M455.7 203.6c-1.2 1.2-3.9 1.9-5.1.7-1.2-1.2-.3-3.9.9-5.1s3.1-1.1 4.3.1c1.2 1.3 1.1 3.2-.1 4.3z" class="st29"/><path d="M455.7 203.6c1.1-1.1 1.2-2.7.4-3.9 0 0 1.7 4.3-4.5 5.2 1.3.3 3.2-.4 4.1-1.3z" class="st31"/><path d="M452 200c-.7.6-1 1.3-1.2 1.1-.2-.2.1-.9.8-1.5.7-.6 1.4-.9 1.6-.6s-.5.4-1.2 1z" class="st32"/><path d="M490.6 202.4c-1.3 1.6-4.6 3-6.2 1.6-1.6-1.3-1-4.8.4-6.4 1.3-1.6 3.7-1.9 5.3-.5s1.9 3.7.5 5.3z" class="st29"/><path d="M484.6 203.9l-1 .3.9.7zM490.6 202.4c1.2-1.5 1.1-3.6-.1-4.9 0 0 2.8 5.1-4.8 7.1 1.7.2 3.9-.9 4.9-2.2z" class="st31"/><path d="M486.4 197.8c-.9.5-1.5 1.4-1.7 1-.2-.4.3-1.2 1.3-1.7s1.9-.6 2.1-.2c.3.4-.7.4-1.7.9z" class="st32"/><g><path d="M446 230.2l-1.5.5 1.2 1z" class="st34"/><path d="M454.9 228.3c-2 2.3-6.9 4.2-9.2 2.2s-1.2-7.1.8-9.4c2-2.3 5.5-2.6 7.8-.6s2.6 5.5.6 7.8z" class="st33"/><path d="M454.9 228.3c1.8-2.1 1.8-5.2 0-7.3 0 0 4 7.5-7.3 10.3 2.5.4 5.8-1.2 7.3-3z" class="st34"/><path d="M448.6 221.2c-1.2.7-1.9 1.7-2.2 1.3-.3-.5.5-1.4 1.7-2.1 1.2-.7 2.4-.9 2.7-.4.3.5-1 .5-2.2 1.2z" class="st35"/></g><g><path d="M460 214l-1.6.3 1.1 1.2z" class="st24"/><path d="M469.4 213.6c-2.4 2-7.7 3.1-9.7.7s-.1-7.4 2.4-9.5 6-1.7 8.1.7 1.6 6.1-.8 8.1z" class="st23"/><path d="M469.4 213.6c2.2-1.9 2.7-5 1.2-7.4 0 0 2.8 8.3-9.1 9.2 2.4.8 6-.2 7.9-1.8z" class="st24"/><path d="M463.3 206.1c-1.5 1.1-2.4 2.6-2.8 2-.4-.6.5-1.9 2-3s3.1-1.6 3.5-1-1.2.9-2.7 2z" class="st25"/></g><g><path d="M443 204.3c-1.7 1.6-5.5 2.7-7.1 1-1.6-1.7-.4-5.5 1.3-7.1s4.4-1.6 6 .1c1.6 1.7 1.5 4.4-.2 6z" class="st33"/><path d="M436.1 205.1l-1.1.2.8.9zM443 204.3c1.5-1.5 1.7-3.8.5-5.5 0 0 2.4 6-6.3 7.2 1.9.5 4.5-.5 5.8-1.7z" class="st34"/><path d="M438.7 198.8c-1 .6-1.6 1.5-1.8 1-.2-.4.4-1.3 1.4-1.8 1-.6 2-.7 2.3-.2.2.4-.9.4-1.9 1z" class="st35"/></g><g><path d="M452.8 244.9l-1.1.2.8.9z" class="st27"/><path d="M459.7 244c-1.7 1.6-5.5 2.7-7.1 1.1-1.6-1.7-.5-5.4 1.2-7.1 1.7-1.6 4.3-1.6 6 0s1.6 4.4-.1 6z" class="st26"/><path d="M459.7 244c1.5-1.5 1.7-3.8.4-5.5 0 0 2.5 5.9-6.2 7.3 1.9.4 4.5-.5 5.8-1.8z" class="st27"/><path d="M455.4 238.5c-1.1.6-1.7 1.6-2 1.2s.4-1.4 1.5-2c1.1-.6 2.2-.8 2.4-.3s-.9.5-1.9 1.1z" class="st28"/></g><g><path d="M399.1 230.5l-1.1.4.9.7z" class="st27"/><path d="M405.9 229.1c-1.5 1.8-5.2 3.2-6.9 1.7s-.9-5.4.6-7.1 4.2-2 5.9-.5 1.9 4.1.4 5.9z" class="st26"/><path d="M405.9 229.1c1.4-1.6 1.3-3.9 0-5.5 0 0 3 5.7-5.5 7.7 1.8.3 4.3-.9 5.5-2.2z" class="st27"/><path d="M401.3 224c-1.1.7-1.8 1.7-2.1 1.2-.3-.5.4-1.4 1.6-2.1s2.3-.8 2.6-.3c.3.5-1 .5-2.1 1.2z" class="st28"/></g><g><path d="M432.6 242.5l-1.1.2.8.9z" class="st31"/><path d="M439.7 242.2c-1.8 1.5-5.7 2.3-7.3.5s0-5.5 1.8-7.1c1.8-1.5 4.5-1.3 6 .5 1.5 1.9 1.3 4.6-.5 6.1z" class="st29"/><path d="M439.7 242.2c1.6-1.4 2-3.7.9-5.5 0 0 2.1 6.2-6.8 6.9 1.8.5 4.5-.2 5.9-1.4z" class="st31"/><path d="M435.6 236.5c-1.1.6-1.8 1.6-2 1.2-.3-.5.4-1.4 1.5-2s2.3-.8 2.5-.3c.3.4-.9.5-2 1.1z" class="st32"/></g><g><path d="M468.6 195.5l-1.5.2 1 1.2z" class="st34"/><path d="M477.4 195.1c-2.3 1.9-7.2 2.9-9.1.6s-.1-6.9 2.2-8.8 5.6-1.6 7.5.7 1.7 5.6-.6 7.5z" class="st33"/><path d="M477.4 195.1c2.1-1.7 2.5-4.7 1.1-6.9 0 0 2.6 7.8-8.5 8.6 2.3.7 5.6-.2 7.4-1.7z" class="st34"/><path d="M471.8 188.1c-1.3.9-1.9 2.1-2.3 1.6-.3-.5.4-1.6 1.7-2.5 1.3-.9 2.5-1.3 2.9-.8.3.6-1 .8-2.3 1.7z" class="st35"/></g><g><path d="M444 193l-.9.2.7.7z" class="st24"/><path d="M449.2 192.4c-1.3 1.2-4.1 2-5.3.7-1.2-1.3-.3-4.1 1-5.3 1.3-1.2 3.3-1.2 4.5.1 1.1 1.3 1.1 3.3-.2 4.5z" class="st23"/><path d="M449.2 192.4c1.2-1.1 1.3-2.9.4-4.1 0 0 1.8 4.5-4.7 5.4 1.4.3 3.4-.4 4.3-1.3z" class="st24"/><path d="M446 188.3c-.8.4-1.2 1.1-1.4.8-.2-.3.3-.9 1-1.4.8-.4 1.5-.5 1.7-.2.3.3-.5.3-1.3.8z" class="st25"/></g><g><path d="M476.8 251.2l-1 .2.7.8z" class="st27"/><path d="M483 250.9c-1.6 1.3-5.1 2.1-6.4.5-1.3-1.6 0-4.9 1.6-6.2s4-1.1 5.3.5c1.4 1.5 1.1 3.9-.5 5.2z" class="st26"/><path d="M483 250.9c1.5-1.2 1.8-3.3.8-4.9 0 0 1.8 5.5-6 6.1 1.6.5 4-.1 5.2-1.2z" class="st27"/><path d="M479.2 245.8c-.9.5-1.5 1.3-1.7 1s.4-1.1 1.3-1.6 1.9-.7 2.1-.3c.2.3-.7.3-1.7.9z" class="st28"/></g><g><path d="M426.2 229.5l-1.2.1.8 1z" class="st34"/><path d="M433.2 229.1c-1.8 1.5-5.8 2.3-7.3.5s0-5.6 1.8-7.1 4.5-1.3 6 .5c1.6 1.9 1.4 4.6-.5 6.1z" class="st33"/><path d="M433.2 229.1c1.7-1.4 2-3.8.9-5.5 0 0 2.1 6.2-6.8 6.9 1.8.6 4.5-.2 5.9-1.4z" class="st34"/><path d="M428.8 223.3c-1 .7-1.6 1.7-1.8 1.3-.3-.4.3-1.2 1.3-2 1-.7 2-1 2.3-.7.3.5-.8.7-1.8 1.4z" class="st35"/></g><g><path fill="#edd262" d="M428.6 190.8l-1.3.2.9 1.1z"/><path d="M436.5 190.4c-2 1.7-6.4 2.6-8.1.6-1.7-2-.1-6.2 2-7.9s5.1-1.4 6.8.6c1.6 2 1.3 5-.7 6.7z" class="st33"/><path d="M436.5 190.4c1.8-1.6 2.2-4.2 1-6.2 0 0 2.3 7-7.7 7.7 2.1.7 5.1-.1 6.7-1.5z" class="st34"/><path d="M431.5 183.9c-1.1.7-1.7 1.6-1.9 1.2-.3-.4.4-1.3 1.5-2s2.1-.9 2.4-.5c.1.5-1 .6-2 1.3z" class="st35"/></g><g><path d="M393.7 245.8l-.9.2.7.7z" class="st24"/><path d="M399.3 245.6c-1.4 1.2-4.5 1.8-5.7.4-1.2-1.4 0-4.3 1.4-5.5s3.5-1 4.7.4 1 3.5-.4 4.7z" class="st23"/><path d="M399.3 245.6c1.3-1.1 1.6-2.9.7-4.3 0 0 1.6 4.9-5.4 5.4 1.5.4 3.6-.2 4.7-1.1z" class="st24"/><path d="M395.7 241c-.7.5-1.2 1.1-1.3.9s.3-.9 1-1.4 1.5-.6 1.7-.4c.2.3-.6.4-1.4.9z" class="st25"/></g><g><path d="M484.5 232.6l-1.1.2.8.9z" class="st34"/><path d="M491.6 232.3c-1.8 1.5-5.7 2.3-7.2.5s0-5.5 1.8-7 4.5-1.3 6 .5 1.2 4.5-.6 6z" class="st33"/><path d="M491.6 232.3c1.6-1.4 2-3.7.9-5.5 0 0 2 6.2-6.8 6.8 1.8.6 4.4-.1 5.9-1.3z" class="st34"/><path d="M487.1 226.5c-1 .7-1.5 1.7-1.8 1.3-.3-.4.3-1.2 1.3-2 1-.7 2-1 2.3-.7.3.5-.8.7-1.8 1.4z" class="st35"/></g><g><path d="M428.5 204.7c-2 2.3-6.9 4.2-9.2 2.2s-1.2-7.1.8-9.4c2-2.3 5.5-2.6 7.8-.6s2.6 5.5.6 7.8z" class="st23"/><path d="M419.5 206.7l-1.4.4 1.2 1.1zM428.5 204.7c1.8-2.1 1.8-5.2 0-7.3 0 0 4 7.5-7.3 10.3 2.4.4 5.7-1.1 7.3-3z" class="st24"/><path d="M422.1 197.6c-1.2.7-1.9 1.7-2.2 1.3-.3-.5.5-1.4 1.7-2.1 1.2-.7 2.4-.9 2.7-.4.3.5-1 .6-2.2 1.2z" class="st25"/></g><g><path d="M448 181.1l-2 .3 1.4 1.7z" class="st27"/><path d="M460.5 180.6c-3.2 2.7-10.2 4.1-12.9.9s-.1-9.8 3.1-12.5c3.2-2.7 8-2.3 10.7.9 2.8 3.2 2.4 8-.9 10.7z" class="st26"/><path d="M460.5 180.6c2.9-2.5 3.5-6.7 1.6-9.8 0 0 3.6 11-12.1 12.2 3.3 1 8-.3 10.5-2.4z" class="st27"/><path d="M452.6 170.2c-1.7 1.1-2.7 2.6-3.1 2-.4-.6.6-2 2.3-3.1 1.7-1.1 3.4-1.4 3.8-.8.4.6-1.4.8-3 1.9z" class="st28"/></g><g><path d="M410.4 209.6c-2.7 2.3-8.7 3.5-11 .8-2.3-2.7-.1-8.4 2.7-10.7 2.7-2.3 6.8-1.9 9.2.8 2.2 2.7 1.8 6.8-.9 9.1z" class="st33"/><path d="M399.7 210.1l-1.8.2 1.2 1.5zM410.4 209.6c2.5-2.1 3-5.7 1.4-8.4 0 0 3.1 9.4-10.4 10.4 2.8.9 6.8-.2 9-2z" class="st34"/><path d="M403.5 201.1c-1.7 1.3-2.7 2.9-3.1 2.3-.5-.6.6-2.1 2.3-3.4 1.7-1.3 3.5-1.8 4-1.1.3.6-1.5 1-3.2 2.2z" class="st35"/></g><g><path d="M369.7 252.7l-1.8.3 1.3 1.5z" class="st34"/><path d="M381.1 252.2c-2.9 2.5-9.3 3.8-11.8.8-2.5-2.9-.1-9 2.9-11.4 2.9-2.5 7.3-2.1 9.8.9 2.5 2.9 2.1 7.3-.9 9.7z" class="st33"/><path d="M381.1 252.2c2.7-2.2 3.2-6.1 1.4-8.9 0 0 3.3 10.1-11.1 11.1 3.1.9 7.5-.3 9.7-2.2z" class="st34"/><path d="M373.5 242.8c-1.5 1.1-2.4 2.6-2.8 2-.4-.6.5-1.9 2-3s3.1-1.6 3.5-1c.5.5-1.2.9-2.7 2z" class="st35"/></g><g><path d="M367.8 207.2l-1.1.1.6 1z" class="st34"/><path d="M374.7 207.7c-1.9 1.3-5.8 1.6-7.1-.3s.6-5.4 2.5-6.7c1.9-1.3 4.5-.8 5.8 1.2 1.2 1.9.7 4.5-1.2 5.8z" class="st33"/><path d="M374.7 207.7c1.8-1.2 2.4-3.4 1.5-5.3 0 0 1.3 6.3-7.4 5.9 1.7.8 4.4.4 5.9-.6z" class="st34"/><path d="M371.8 201.3c-1 .2-1.8.8-1.8.3-.1-.4.7-1 1.7-1.1 1-.2 1.9 0 2 .5s-.9.1-1.9.3z" class="st35"/></g><g><path fill="#9ad17d" d="M380.8 232.3l-1.5.2 1 1.3z"/><path d="M390.1 231.9c-2.4 2-7.6 3.1-9.6.7-2-2.4-.1-7.3 2.3-9.3 2.4-2 6-1.7 8 .7 2 2.3 1.7 5.9-.7 7.9z" class="st29"/><path d="M390.1 231.9c2.2-1.8 2.6-5 1.2-7.3 0 0 2.7 8.2-9 9.1 2.4.7 5.9-.2 7.8-1.8z" class="st31"/><path d="M384.2 224.2c-1.3.8-2 1.9-2.3 1.5-.3-.5.5-1.5 1.7-2.3 1.3-.8 2.5-1.1 2.8-.6.3.4-1 .6-2.2 1.4z" class="st32"/></g><g><path d="M358.7 193.6l-1.9.2 1.3 1.6z" class="st24"/><path d="M370.1 193c-2.9 2.5-9.3 3.8-11.8.8-2.5-2.9-.1-9 2.9-11.4s7.3-2.1 9.8.9c2.4 2.9 2 7.3-.9 9.7z" class="st23"/><path d="M370.1 193c2.7-2.2 3.2-6.1 1.4-9 0 0 3.3 10.1-11.1 11.1 3 1.1 7.4-.2 9.7-2.1z" class="st24"/><path d="M362.7 184c-1.8 1.3-2.9 3.1-3.3 2.4s.6-2.3 2.5-3.6 3.7-1.9 4.2-1.2c.4.6-1.6 1.1-3.4 2.4z" class="st25"/></g><g><path d="M384.2 212.6l-1.2.4 1 .8z" class="st27"/><path d="M391.6 210.9c-1.6 2-5.6 3.6-7.6 1.9s-1.1-5.9.5-7.8c1.6-2 4.5-2.2 6.5-.6 1.9 1.6 2.2 4.5.6 6.5z" class="st26"/><path d="M391.6 210.9c1.5-1.8 1.4-4.3-.1-6 0 0 3.4 6.2-5.9 8.6 2 .2 4.7-1.1 6-2.6z" class="st27"/><path d="M386.8 205.1c-1.1.5-1.8 1.4-2.1 1-.2-.5.5-1.3 1.6-1.8s2.2-.6 2.5-.1c.3.4-.9.4-2 .9z" class="st28"/></g><g><path d="M391.9 193.4l-1.2.2.9.9z" class="st31"/><path d="M398.9 192.6c-1.7 1.6-5.7 2.7-7.3.9s-.4-5.6 1.4-7.2 4.5-1.5 6.1.2c1.7 1.8 1.6 4.5-.2 6.1z" class="st29"/><path d="M398.9 192.6c1.6-1.5 1.8-3.9.6-5.6 0 0 2.4 6.1-6.5 7.3 1.9.5 4.6-.4 5.9-1.7z" class="st31"/><path d="M394.6 187.1c-1.1.6-1.8 1.6-2 1.1-.2-.4.4-1.3 1.5-1.9 1.1-.6 2.2-.8 2.5-.3.3.4-.9.5-2 1.1z" class="st32"/></g><g><path d="M407 189.6l-1.6.3 1.1 1.3z" class="st27"/><path d="M416.6 189.2c-2.5 2.1-7.8 3.2-9.9.7-2.1-2.5-.1-7.6 2.4-9.6s6.2-1.8 8.2.7c2.1 2.4 1.8 6.1-.7 8.2z" class="st26"/><path d="M416.6 189.2c2.2-1.9 2.7-5.1 1.2-7.5 0 0 2.8 8.5-9.3 9.4 2.5.7 6.2-.3 8.1-1.9z" class="st27"/><path d="M410.5 181.3c-1.3.8-2 2-2.3 1.5-.3-.5.5-1.6 1.8-2.4s2.6-1.1 2.9-.6c.3.4-1.1.6-2.4 1.5z" class="st28"/></g><g><path d="M411.4 240.4l-1.1.4.9.7z" class="st34"/><path d="M418 239c-1.5 1.7-5.1 3.1-6.8 1.6s-.9-5.3.6-7c1.5-1.7 4.1-1.9 5.8-.5s1.9 4.2.4 5.9z" class="st33"/><path d="M418 239c1.3-1.6 1.3-3.9 0-5.4 0 0 2.9 5.6-5.4 7.6 1.8.3 4.3-.9 5.4-2.2z" class="st34"/><path d="M413.3 233.7c-.9.5-1.4 1.3-1.6.9s.4-1.1 1.3-1.6 1.8-.6 2-.3-.8.5-1.7 1z" class="st35"/></g></g><path fill="#25bf4c" d="M1453.9 532.5c-53.1 2.9-223.8 46.6-280.8-2.2-36.7-31.5-59.7-70.9-81.9-92.4-66.9-64.4-290.3-130.3-408.7-15.7-30.2 29.2-50.1 61.8-30.5 98.9 2.5 4.6 5.8 8.9 9.8 12.7 27.7-.8 84.7-9.6 97.2-35.6l54 7.8c-19 25.7-62 45.6-99.4 56 42.8 15.8 90.4 26.6 90.4 55.4 0 39.5-331 46.4-339.2-29.5-4.8-44.3 88.3-106.3 101.9-122.9 43.6-53.2 51.4-94.8 3.6-144.3-47.8-49.4-122.4-65.8-188.1-45.4-145 45-143.2 146.9-92.6 218.5 7 9.9 9.9 23.7 4.6 34.7-8.4 17.3-31.9 18.9-51.1 18.1-42.4-1.8-130.2-6-172.6-7.8l-6.4 119.8c57.8-5.8 272.9-16.3 327.6 30.5 48.4 41.4 162.3 62.8 258.1 62.3 150.5 3.3 274.5-90 267-163.5-14-138.4-255.1-75.9-155.8-146.4 65-46.1 189.4-19.3 245.3 14 11.7 7 23.2 15.1 31 26.3 7.8 11.2 11.4 26.1 6.4 38.8-5.6 14.1-20 22.4-33.9 28.6-13.8 6-28.4 10.7-43.3 14.2-20.4 4.8-22.4 33.1-2.8 40.5.2.1.3.1.5.2 15.3 5.6 32.1 5 48.1 2.8 16.1-2.2 32-6 48.2-6.5 36.6-1.2 73.4 9.5 106.1 26 120.4 60.7 229.3-20.1 287.4-70.9l-.1-23z" clip-path="url(#SVGID_2_)"/><path fill="#876f2d" d="M793 523.3c2.5.3 5 .7 7.6 1 4.2.5 8.5 1.1 12.8 1.7 30.2 4.2 61.5 11.2 77.9 37.2 9.9 15.7 11.2 34.8 3.8 55.3-13 36.3-50.5 69.4-95.6 84.3-52.9 17.5-110.9 26.8-167.6 26.8-47 0-90.8-6.3-129.9-18.8-50.4-16.1-107.4-53.1-116.5-108.7-4.7-28.7 11.4-60.3 46.5-91.4 11.8-10.5 24.6-20 37-29.2 14.5-10.8 29.5-22 42.8-34.6 32-30.5 45.3-69.3 33.8-98.9-11.3-29.2-45.6-45.8-96.5-46.9-2 0-4-.1-6-.1-76.3 0-106.7 29.1-118.6 53.6C308 388 319 426.9 336.1 449c20.5 26.4 31.3 51 32.3 72.9.8 19.1-5.8 37-19.6 53.1-24.6 28.5-73.7 32.2-113.7 32.2-70.1 0-158.9-3.8-159.4-3.9l-8.6-.3 2.3-54.3 7.3.8c.4.1 85.1 7.8 162.2 7.8 59.5 0 77.1-13.9 81.4-25.5 6.3-17.2-7.6-40.3-22.3-64.9-17.4-29.1-35.4-59.2-25.1-86.6 13-34.3 36.7-62.1 68.6-80.4 28.1-16.1 61.6-24.6 96.8-24.6 60.2 0 112.4 25 129.9 62.2 21.8 46.5 17.5 65.9-7.7 104.4-11.7 18-32.8 35.5-55.1 54.1-34.1 28.4-69.5 57.8-73.4 90.5-2.1 17.6 8.9 32.9 32.6 45.4 23.6 12.4 54 18.9 70 21.7 47.9 8.3 89.3 12.3 126.8 12.3 45.1 0 84.8-5.7 121.3-17.3 54.1-17.3 80-38.7 73.7-61.7-8.6-31.5-67-34-68.8-34.3l5.4-29.3z" clip-path="url(#SVGID_2_)"/><path fill="#d4af4e" d="M789.7 549.2c26.5 3 64 11.1 70.6 37.1 9.3 36.6-50.4 58-76.3 66.3-79.8 25.5-167.3 19.4-249.9 5.2-43.4-7.5-111.1-27.6-105.8-71.4 6.7-56.1 99.8-101.4 129.1-146.3 24.7-37.8 28.4-56.1 7.4-100.7-37.6-80-236.9-93.1-288.2 42.5-18.4 48.7 62 111.5 47.4 151.4-10.1 27.4-67.3 28-85 28-78.4 0-169.7-8.9-169.7-8.9l-2 45.6s97 5.3 167.8 5.3c37.1 0 86.6-2.8 110.8-30.8 24.2-28.1 29.9-66-12.8-121.2-39.3-50.8-33.1-157 116.1-154.1 125.3 2.5 125.3 95.3 65.3 152.4-24.7 23.5-54.4 41.2-79.9 63.9-25.5 22.6-50.7 54.2-45.2 87.9 9.1 56.3 69.1 91.4 113.9 105.7 91.6 29.2 203.9 22.2 295.1-8 71.8-23.8 116.6-91.2 89.7-133.9-16-25.4-55.8-34.3-86.4-38.4l-12 22.4z" clip-path="url(#SVGID_2_)"/><g class="st20"><defs><path id="SVGID_17_" d="M1499 526.4c-114.2 0-201.1 9.5-250.8-9.7-120.5-46.4-109.7-187-335.6-187-112.5 0-152 34.6-242.8 34.6-50.5 0-110.5-99.8-217.5-99.8-198.1 0-192.8 154.3-355.8 168.3C82.7 434 72 445.6 72 459.4c0 49.7-3.5 97.2-5 143.6-2.7 82.2-6.3 150 21.7 172 38.4 17.2 180.1-25.9 305.9.4 182.3 38.2 240.5 16.6 427.6 6.4 112.3-6.1 275.8-9.3 330.2-8.7 161.5 1.7 308.4 26.6 335.1 1.9 25.9-23.9 24.7-148.9 11.5-248.6z"/></defs><clipPath id="SVGID_4_"><use overflow="visible" xlink:href="#SVGID_17_"/></clipPath></g><g class="st20"><path d="M141.7 276.6l7.4 21.8M149.3 285.8l2.8 12.4M169 276.6l-7.4 21.8M161.4 285.8l-2.8 12.4" class="st203"/><path d="M185.9 246.1c0 15.1-22.4 38.7-30.5 38.7-8.2 0-30.5-23.6-30.5-38.7s13.7-27.4 30.5-27.4 30.5 12.3 30.5 27.4z" class="st71"/><path d="M161.8 286.1H149c-.6 0-1-.4-1-1s.4-1 1-1h12.8c.6 0 1 .4 1 1 0 .5-.5 1-1 1z" class="st204"/><path d="M182.6 246.1c0 13.4-19.2 38.1-26.4 38.1-7.3 0-27.9-23-27.9-38.1 0-16.6 12.2-27.4 27.2-27.4 14.9 0 27.1 11.1 27.1 27.4z" class="st205"/><path d="M175.5 246.1c0 13.4-14.7 35.1-20.1 35.1-5.4 0-20.1-22.7-20.1-35.1 0-16.6 9-27.4 20.1-27.4 11.1 0 20.1 11.1 20.1 27.4z" class="st71"/><path d="M165.3 244.9c0 12.8-7.3 33.6-9.9 33.6-2.7 0-9.9-21.8-9.9-33.6 0-15.9 4.4-26.2 9.9-26.2s9.9 10.6 9.9 26.2z" class="st205"/><path d="M162.3 284.2h-13.9l-7.1-8.4h28.1z" class="st106"/><path d="M169.3 277.4h-27.8c-.4 0-.8-.4-.8-.8s.4-.8.8-.8h27.8c.4 0 .8.4.8.8s-.4.8-.8.8z" class="st204"/></g><g><defs><path id="SVGID_19_" d="M718.4-4.2h524.5v295H718.4z"/></defs><clipPath id="SVGID_6_"><use overflow="visible" xlink:href="#SVGID_19_"/></clipPath><path fill="#fff" d="M194.3-4.3h1573.8V881H194.3z" clip-path="url(#SVGID_6_)"/><path fill="#bdefef" d="M275.3 429.3c93.7 0 142.2-206.2 287.8-225.1 110.9-14.4 155 48.1 208.4 48.1 75.2 0 171.4-76.5 298.9-9.7 81.4 42.6 158.3 90.3 217 96.3 58.7 6 191-26 259.1.6 188.2 73.7 146 324.3 146 324.3h-1426l8.8-234.5z" clip-path="url(#SVGID_6_)"/><path d="M347.4 256.2c-.1-7.1 4.9-10.3 14.2-9 .4-4.9 2.2-9.1 6.6-11.7 1.4-.8 2.9-1.6 4.4-1.7 2.6-.1 3.5-1.2 4.3-3.6 3.2-10.5 13.7-17.3 24.5-16.2 11.1 1.2 19.9 9.9 21 20.9.2 1.6.6 2.4 2.2 3 5.2 1.8 8.9 5.5 11.3 10.4 8.8-1.1 12.9 1.2 13.3 7.9H347.4zM440.5 153.4l401.7 10.4-530.7 19z" class="st233"/><path fill="#23b347" d="M1693.4 522.2c-114.2 0-201.1 9.5-250.8-9.7-120.5-46.4-109.7-187-335.6-187-112.5 0-152 34.6-242.8 34.6-50.5 0-110.5-99.8-217.5-99.8-198.1 0-192.8 154.3-355.8 168.3-13.8 1.2-24.5 12.8-24.5 26.6 0 49.5-2.6 98.6-5 143.6-4.4 82.4-6.4 149.9 21.7 172 38.4 17.2 180.1-25.9 305.9.4 182.3 38.2 240.5 16.6 427.6 6.4 112.3-6.1 275.8-9.3 330.2-8.7 161.5 1.7 308.4 26.6 335.1 1.9 25.8-23.9 24.6-148.9 11.5-248.6z" clip-path="url(#SVGID_6_)"/><path fill="#25bf4c" d="M1648.2 528.3c-53.1 2.9-223.8 46.6-280.8-2.2-36.7-31.5-59.7-70.9-81.9-92.4-66.9-64.4-290.3-130.3-408.7-15.7-30.2 29.2-50.1 61.8-30.5 98.9 2.5 4.6 5.8 8.9 9.8 12.7 27.7-.8 84.7-9.6 97.2-35.6l54 7.8c-18.8 25.6-61.8 45.5-99.2 55.9 42.8 15.8 90.4 26.6 90.4 55.4 0 39.5-331 46.4-339.2-29.5-4.8-44.3 88.3-106.3 101.9-122.9 43.6-53.2 51.4-94.8 3.6-144.3C717 267 642.4 250.6 576.7 271c-145.2 45.1-143.3 147-92.8 218.6 7 9.9 9.9 23.7 4.6 34.7-8.4 17.3-31.9 18.9-51.1 18.1-42.4-1.8-130.2-6-172.6-7.8l-6.4 119.8c57.8-5.8 272.9-16.3 327.6 30.5 48.4 41.4 162.3 62.8 258.1 62.3 150.5 3.3 274.5-90 267-163.5-14-138.4-255.1-75.9-155.8-146.4 65-46.1 189.4-19.3 245.3 14 11.7 7 23.2 15.1 31 26.3 7.8 11.2 11.4 26.1 6.4 38.8-5.6 14.1-20 22.4-33.9 28.6-13.8 6-28.4 10.7-43.3 14.2-20.4 4.8-22.4 33.1-2.8 40.5.2.1.3.1.5.2 15.3 5.6 32.1 5 48.1 2.8 16.1-2.2 32-6 48.2-6.5 36.6-1.2 73.4 9.5 106.1 26 120.4 60.7 229.3-20.1 287.4-70.9l-.1-23z" clip-path="url(#SVGID_6_)"/><path fill="#876f2d" d="M987.3 519.1c2.5.3 5 .7 7.6 1 4.2.5 8.5 1.1 12.8 1.7 30.2 4.2 61.5 11.2 77.9 37.2 9.9 15.7 11.2 34.8 3.8 55.3-13 36.3-50.5 69.4-95.6 84.3-52.9 17.5-110.9 26.8-167.6 26.8-47 0-90.8-6.3-129.9-18.8-50.4-16.1-107.4-53.1-116.5-108.7-4.7-28.7 11.4-60.3 46.5-91.4 11.8-10.5 24.6-20 37-29.2 14.5-10.8 29.5-22 42.8-34.6 32-30.5 45.3-69.3 33.8-98.9-11.3-29.2-45.6-45.8-96.5-46.9-2 0-4-.1-6-.1-76.3 0-106.7 29.1-118.6 53.6-16.4 33.4-5.4 72.3 11.7 94.3 20.5 26.4 31.3 51 32.3 72.9.8 19.1-5.8 37-19.6 53.1-24.6 28.5-73.7 32.2-113.7 32.2-70.1 0-158.9-3.8-159.4-3.9l-8.6-.3 2.3-54.3 7.3.8c.4.1 85.1 7.8 162.2 7.8 59.5 0 77.1-13.9 81.4-25.5 6.3-17.2-7.6-40.3-22.3-64.9-17.4-29.1-35.4-59.2-25.1-86.6 13-34.3 36.7-62.1 68.6-80.4 28.1-16.1 61.6-24.6 96.8-24.6 60.2 0 112.4 25 129.9 62.2 21.8 46.5 17.5 65.9-7.7 104.4-11.7 18-32.8 35.5-55.1 54.1-34.1 28.4-69.5 57.8-73.4 90.5-2.1 17.6 8.9 32.9 32.6 45.4 23.6 12.4 54 18.9 70 21.7 47.9 8.3 89.3 12.3 126.8 12.3 45.1 0 84.8-5.7 121.3-17.3 54.1-17.3 80-38.7 73.7-61.7-8.6-31.5-67-34-68.8-34.3l5.3-29.2z" clip-path="url(#SVGID_6_)"/><path fill="#d4af4e" d="M984 545c26.5 3 64 11.1 70.6 37.1 9.3 36.6-50.4 58-76.3 66.3-79.8 25.5-167.3 19.4-249.9 5.2-43.4-7.5-111.1-27.6-105.8-71.4 6.7-56.1 99.8-101.4 129.1-146.3 24.7-37.8 28.4-56.1 7.4-100.7-37.6-80-236.9-93.1-288.2 42.5-18.4 48.7 62 111.5 47.4 151.4-10.1 27.4-67.3 28-85 28-78.4 0-169.7-8.9-169.7-8.9l-1.9 45.6s97 5.3 167.8 5.3c37.1 0 86.6-2.8 110.8-30.8 24.2-28.1 29.9-66-12.8-121.2-39.3-50.8-33.1-157 116.1-154.1 125.3 2.5 125.3 95.3 65.3 152.4-24.7 23.5-54.4 41.2-79.9 63.9-25.5 22.6-50.7 54.2-45.2 87.9 9.1 56.3 69.1 91.4 113.9 105.7 91.6 29.2 203.9 22.2 295.1-8 71.8-23.8 116.6-91.2 89.7-133.9-16-25.4-55.8-34.3-86.4-38.4L984 545z" clip-path="url(#SVGID_6_)"/><g class="st243"><defs><path id="SVGID_21_" d="M1693.4 522.2c-114.2 0-201.1 9.5-250.8-9.7-120.5-46.4-109.7-187-335.6-187-112.5 0-152 34.6-242.8 34.6-50.5 0-110.5-99.8-217.5-99.8-198.1 0-192.8 154.3-355.8 168.3-13.8 1.2-24.5 12.8-24.5 26.6 0 49.7-3.5 97.2-5 143.6-2.7 82.2-6.3 150 21.7 172 38.4 17.2 180.1-25.9 305.9.4 182.3 38.2 240.5 16.6 427.6 6.4 112.3-6.1 275.8-9.3 330.2-8.7 161.5 1.7 308.4 26.6 335.1 1.9 25.8-23.9 24.6-148.9 11.5-248.6z"/></defs><clipPath id="SVGID_8_"><use overflow="visible" xlink:href="#SVGID_21_"/></clipPath></g><g class="st243"><path d="M336.1 272.4l7.3 21.8M343.7 281.6l2.7 12.4M363.4 272.4l-7.4 21.8M355.8 281.6L353 294" class="st203"/><path d="M380.3 241.9c0 15.1-22.4 38.7-30.5 38.7-8.2 0-30.5-23.6-30.5-38.7 0-15.1 13.7-27.4 30.5-27.4s30.5 12.3 30.5 27.4z" class="st71"/><path d="M354.4 304.4h-9l-2.5-10h13.6z" class="st106"/><path d="M356.1 281.9h-12.8c-.6 0-1-.4-1-1s.4-1 1-1h12.8c.6 0 1 .4 1 1 0 .5-.4 1-1 1zM356.4 294.4H343c-.6 0-1-.4-1-1s.4-1 1-1h13.4c.6 0 1 .4 1 1 0 .5-.4 1-1 1z" class="st204"/><path d="M376.9 241.9c0 13.4-19.2 38.1-26.4 38.1-7.3 0-27.9-23-27.9-38.1 0-16.6 12.2-27.4 27.2-27.4s27.1 11.1 27.1 27.4z" class="st205"/><path d="M369.8 241.9c0 13.4-14.7 35.1-20.1 35.1-5.4 0-20.1-22.7-20.1-35.1 0-16.6 9-27.4 20.1-27.4 11.1 0 20.1 11.1 20.1 27.4z" class="st71"/><path d="M359.7 240.7c0 12.8-7.3 33.6-9.9 33.6-2.7 0-9.9-21.8-9.9-33.6 0-15.9 4.4-26.2 9.9-26.2 5.4 0 9.9 10.6 9.9 26.2z" class="st205"/><path d="M356.7 280h-13.9l-7.1-8.4h28z" class="st106"/><path d="M363.6 273.2h-27.8c-.4 0-.8-.4-.8-.8s.4-.8.8-.8h27.8c.4 0 .8.4.8.8s-.3.8-.8.8z" class="st204"/></g></g><g><defs><path id="SVGID_23_" d="M1437.1 2.9h524.5v295h-524.5z"/></defs><clipPath id="SVGID_10_"><use overflow="visible" xlink:href="#SVGID_23_"/></clipPath><path fill="#fff" d="M388.6 2.8h1573.8v885.3H388.6z" clip-path="url(#SVGID_10_)"/><path fill="#bdefef" d="M469.5 436.4c93.7 0 142.2-206.2 287.8-225.1 110.9-14.4 155 48.1 208.4 48.1 75.2 0 171.4-76.5 298.9-9.7 81.4 42.6 158.3 90.3 217 96.3s191-26 259.1.6c188.2 73.7 146 324.3 146 324.3h-1426l8.8-234.5z" clip-path="url(#SVGID_10_)"/><path fill="#e2efef" d="M634.7 160.5l401.7 10.4-530.7 19z" clip-path="url(#SVGID_10_)"/><path fill="#23b347" d="M1887.6 529.2c-114.2 0-201.1 9.5-250.8-9.7-120.5-46.4-109.7-187-335.6-187-112.5 0-152 34.6-242.8 34.6-50.5 0-110.5-99.8-217.5-99.8-198.1 0-192.8 154.3-355.8 168.3-13.8 1.2-24.5 12.8-24.5 26.6 0 49.5-2.6 98.6-5 143.6-4.4 82.4-6.4 149.9 21.7 172 38.4 17.2 180.1-25.9 305.9.4 182.3 38.2 240.5 16.6 427.6 6.4 112.3-6.1 275.8-9.3 330.2-8.7 161.5 1.7 308.4 26.6 335.1 1.9 25.8-23.8 24.7-148.8 11.5-248.6z" clip-path="url(#SVGID_10_)"/><path fill="#25bf4c" d="M1842.4 535.4c-53.1 2.9-223.8 46.6-280.8-2.2-36.7-31.5-59.7-70.9-81.9-92.4-66.9-64.4-290.3-130.3-408.7-15.7-30.2 29.2-50.1 61.8-30.5 98.9 2.5 4.6 5.8 8.9 9.8 12.7 27.7-.8 84.7-9.6 97.2-35.6l54 7.8c-18.8 25.6-61.8 45.5-99.2 55.9 42.8 15.8 90.4 26.6 90.4 55.4 0 39.5-331 46.4-339.2-29.5-4.8-44.3 88.3-106.3 101.9-122.9 43.6-53.2 51.4-94.8 3.6-144.3-47.8-49.4-122.4-65.8-188.1-45.4C625.8 323 627.7 425 678.2 496.6c7 9.9 9.9 23.7 4.6 34.7-8.4 17.3-31.9 18.9-51.1 18.1-42.4-1.8-130.2-6-172.6-7.8l-6.4 119.8c57.8-5.8 272.9-16.3 327.6 30.5 48.4 41.4 162.3 62.8 258.1 62.3 150.5 3.3 274.5-90 267-163.5-14-138.4-255.1-75.9-155.8-146.4 65-46.1 189.4-19.3 245.3 14 11.7 7 23.2 15.1 31 26.3 7.8 11.2 11.4 26.1 6.4 38.8-5.6 14.1-20 22.4-33.9 28.6-13.8 6-28.4 10.7-43.3 14.2-20.4 4.8-22.4 33.1-2.8 40.5.2.1.3.1.5.2 15.3 5.6 32.1 5 48.1 2.8 16.1-2.2 32-6 48.2-6.5 36.6-1.2 73.4 9.5 106.1 26 120.4 60.7 229.3-20.1 287.4-70.9l-.2-22.9z" clip-path="url(#SVGID_10_)"/><path fill="#876f2d" d="M1181.5 526.1c2.5.3 5 .7 7.6 1 4.2.5 8.5 1.1 12.8 1.7 30.2 4.2 61.5 11.2 77.9 37.2 9.9 15.7 11.2 34.8 3.8 55.3-13 36.3-50.5 69.4-95.6 84.3-52.9 17.5-110.9 26.8-167.6 26.8-47 0-90.8-6.3-129.9-18.8-50.4-16.1-107.4-53.1-116.5-108.7-4.7-28.7 11.4-60.3 46.5-91.4 11.8-10.5 24.6-20 37-29.2 14.5-10.8 29.5-22 42.8-34.6 32-30.5 45.3-69.3 33.8-98.9-11.3-29.2-45.6-45.8-96.5-46.9-2 0-4-.1-6-.1-76.3 0-106.7 29.1-118.6 53.6-16.4 33.4-5.4 72.3 11.7 94.3 20.5 26.4 31.3 51 32.3 72.9.8 19.1-5.8 37-19.6 53.1-24.6 28.5-73.7 32.2-113.7 32.2-70.1 0-158.9-3.8-159.4-3.9l-8.6-.3 2.3-54.3 7.3.8c.4.1 85.1 7.8 162.2 7.8 59.5 0 77.1-13.9 81.4-25.5 6.3-17.2-7.6-40.3-22.3-64.9-17.4-29.1-35.4-59.2-25.1-86.6 13-34.3 36.7-62.1 68.6-80.4 28.1-16.1 61.6-24.6 96.8-24.6 60.2 0 112.4 25 129.9 62.2 21.8 46.5 17.5 65.9-7.7 104.4-11.7 18-32.8 35.5-55.1 54.1-34.1 28.4-69.5 57.8-73.4 90.5-2.1 17.6 8.9 32.9 32.6 45.4 23.6 12.4 54 18.9 70 21.7 47.9 8.3 89.3 12.3 126.8 12.3 45.1 0 84.8-5.7 121.3-17.3 54.1-17.3 80-38.7 73.7-61.7-8.6-31.5-67-34-68.8-34.3l5.3-29.2z" clip-path="url(#SVGID_10_)"/><path fill="#d4af4e" d="M1178.2 552c26.5 3 64 11.1 70.6 37.1 9.3 36.6-50.4 58-76.3 66.3-79.8 25.5-167.3 19.4-249.9 5.2-43.4-7.5-111.1-27.6-105.8-71.4 6.7-56.1 99.8-101.4 129.1-146.3 24.7-37.8 28.4-56.1 7.4-100.7-37.6-80-236.9-93.1-288.2 42.5-18.4 48.7 62 111.5 47.4 151.4-10.1 27.4-67.3 28-85 28-78.4 0-169.7-8.9-169.7-8.9l-1.9 45.6s97 5.3 167.8 5.3c37.1 0 86.6-2.8 110.8-30.8 24.2-28.1 29.9-66-12.8-121.2-39.3-50.8-33.1-157 116.1-154.1 125.3 2.5 125.3 95.3 65.3 152.4-24.7 23.5-54.4 41.2-79.9 63.9-25.5 22.6-50.7 54.2-45.2 87.9 9.1 56.3 69.1 91.4 113.9 105.7 91.6 29.2 203.9 22.2 295.1-8 71.8-23.8 116.6-91.2 89.7-133.9-16-25.4-55.8-34.3-86.4-38.4l-12.1 22.4z" clip-path="url(#SVGID_10_)"/><g class="st348"><defs><path id="SVGID_25_" d="M1887.6 529.2c-114.2 0-201.1 9.5-250.8-9.7-120.5-46.4-109.7-187-335.6-187-112.5 0-152 34.6-242.8 34.6-50.5 0-110.5-99.8-217.5-99.8-198.1 0-192.8 154.3-355.8 168.3-13.8 1.2-24.5 12.8-24.5 26.6 0 49.7-3.5 97.2-5 143.6-2.7 82.2-6.3 150 21.7 172 38.4 17.2 180.1-25.9 305.9.4 182.3 38.2 240.5 16.6 427.6 6.4 112.3-6.1 275.8-9.3 330.2-8.7 161.5 1.7 308.4 26.6 335.1 1.9 25.8-23.8 24.7-148.8 11.5-248.6z"/></defs><clipPath id="SVGID_12_"><use overflow="visible" xlink:href="#SVGID_25_"/></clipPath></g><g class="st348"><path d="M574.5 249c0 15.1-22.4 38.7-30.5 38.7-8.2 0-30.5-23.6-30.5-38.7s13.7-27.4 30.5-27.4 30.5 12.3 30.5 27.4z" class="st71"/><path d="M571.1 249c0 13.4-19.2 38.1-26.4 38.1-7.3 0-27.9-23-27.9-38.1 0-16.6 12.2-27.4 27.2-27.4s27.1 11.1 27.1 27.4z" class="st205"/><path d="M564 249c0 13.4-14.7 35.1-20.1 35.1-5.4 0-20.1-22.7-20.1-35.1 0-16.6 9-27.4 20.1-27.4 11.1 0 20.1 11.1 20.1 27.4z" class="st71"/></g></g><g><defs><path id="SVGID_27_" d="M-3.8 489.4h524.5v295H-3.8z"/></defs><clipPath id="SVGID_14_"><use overflow="visible" xlink:href="#SVGID_27_"/></clipPath><path fill="#fff" d="M-3.8 194.3H1570v885.3H-3.8z" clip-path="url(#SVGID_14_)"/></g><g><defs><path id="SVGID_31_" d="M718.4 489.4h524.5v295H718.4z"/></defs><clipPath id="SVGID_16_"><use overflow="visible" xlink:href="#SVGID_31_"/></clipPath><path fill="#fff" d="M194.3 194.3h1573.8v885.3H194.3z" clip-path="url(#SVGID_16_)"/></g><g><defs><path id="SVGID_35_" d="M1434.3 489.4h524.5v295h-524.5z"/></defs><clipPath id="SVGID_18_"><use overflow="visible" xlink:href="#SVGID_35_"/></clipPath><path fill="#fff" d="M385.7 194.3h1573.8v885.3H385.7z" clip-path="url(#SVGID_18_)"/></g></svg>