<svg xmlns="http://www.w3.org/2000/svg" xmlns:xlink="http://www.w3.org/1999/xlink" id="B8" x="0" y="0" version="1.1" viewBox="0 0 524.5 295" xml:space="preserve"><defs/><style>.st10{fill:#e2efef}.st10,.st20{clip-path:url(#SVGID_2_)}.st23{fill:#a7a6f6}.st24{fill:#a099e9}.st25{fill:#bebefc}.st26{fill:#75aeb9}.st27{fill:#4e9da3}.st28{fill:#91bec7}.st29{fill:#96cd7c}.st30{fill:#9ad17d}.st31{fill:#84cb66}.st32{fill:#abd796}.st33{fill:#ffdf57}.st34{fill:#e9ca25}.st35{fill:#f9e698}.st36{fill:#edd262}.st69{fill:#333}.st75{fill:#fff}.st152,.st207{clip-path:url(#SVGID_2_);fill:#333}.st207{fill:#736357}.st209{fill:#58838b}.st211{fill:#426268}.st215{fill:#b13b1c}.st216{fill:#679aa3}.st218{clip-path:url(#SVGID_2_);fill:#d19971}.st219{fill:#736342}.st298{clip-path:url(#SVGID_6_)}.st506{clip-path:url(#SVGID_16_)}</style><defs><path id="SVGID_13_" d="M-718.4 4.2h524.5v295h-524.5z"/></defs><clipPath id="SVGID_2_"><use overflow="visible" xlink:href="#SVGID_13_"/></clipPath><path fill="#fff" d="M-718.4 4.1H855.4v885.3H-718.4z" clip-path="url(#SVGID_2_)"/><path fill="#bdefef" d="M-637.5 437.7c93.7 0 142.2-206.2 287.8-225.1 110.9-14.4 155 48.1 208.4 48.1 75.2 0 171.4-76.5 298.9-9.7 81.4 42.6 158.3 90.3 217 96.3s191-26 259.1.6c188.2 73.7 146 324.3 146 324.3h-1426l8.8-234.5z" clip-path="url(#SVGID_2_)"/><path d="M388.1 276.2c0-6.6 2.7-11.4 8.8-14 5-2.2 10.1-1 15.3 3.3 2.9-3.9 6.7-5.8 11.5-4.4 4.7 1.4 7 5 7.2 9.9 5.1 0 8.6 2.3 10.2 7.3 7.1-5 16.3-3.6 20.9 4.8 1.7-.2 3.4-.5 5.1-.5 3.5.2 6.3 1.8 8.3 4.7.6.9 1.2 1.4 2.4 1.4 2.7.1 4.4 1.9 4.7 4.9H368.9c-.2-3 1.8-5.5 5.1-6.3.6-.2 1.5-.6 1.7-1 1.9-5.9 6-9.2 12.4-10.1zM626.4 212.9l-221.6 18.8 329.5-12.3zM-223.1 211.9L195 201.7l209.8 10.2-418.9 9.4z" class="st10"/><path fill="#fff" d="M735.5 162.3L154 179.5l580.3 17.1z" clip-path="url(#SVGID_2_)" opacity=".45"/><path fill="#b3b3b3" d="M-317 413.8h502s-212.6-158-233.5-158c-8.5 0-34 12.5-61.1 27.3L-317 413.8z" clip-path="url(#SVGID_2_)"/><path fill="#e6e6e6" d="M44.2 312.5C-.2 281.7-40 255.8-48.5 255.8s-34 12.5-61.1 27.3l-38.4 24.2 49.8 2.1-7.4-5.8 23.2-7.2 3.7 38.3 14.7-21.2 9.8 17.5 22.6 8.3-6.8-32.3 15.1-2.1 14.9 23.4-3.6-36.4 25.9 47.4L29 331l-18.4-24 34.6 6.5-1-1z" clip-path="url(#SVGID_2_)"/><path fill="#23b347" d="M780.6 530.6c-114.2 0-201.1 9.5-250.8-9.7-120.5-46.4-109.7-187-335.6-187-112.5 0-152 34.6-242.8 34.6-50.5 0-110.5-99.8-217.5-99.8-198.1 0-192.8 154.3-355.8 168.3-13.8 1.2-24.5 12.8-24.5 26.6 0 49.5-2.6 98.6-5 143.6-4.4 82.4-6.4 149.9 21.7 172 38.4 17.2 180.1-25.9 305.9.4 182.3 38.2 240.5 16.6 427.6 6.4 112.3-6.1 275.8-9.3 330.2-8.7 161.5 1.7 308.4 26.6 335.1 1.9 25.8-23.9 24.7-148.9 11.5-248.6z" clip-path="url(#SVGID_2_)"/><g class="st20"><path d="M50.8 274.4c-3.2 2.6-10 4-12.7.9-2.6-3.2-.1-9.7 3.1-12.3 3.2-2.6 7.9-2.2 10.5.9s2.3 7.9-.9 10.5z" class="st23"/><path d="M38.6 275l-2.1.3 1.4 1.6zM50.8 274.4c2.9-2.4 3.5-6.5 1.6-9.6 0 0 3.6 10.8-11.9 12 3.2 1 7.9-.3 10.3-2.4z" class="st24"/><path d="M42.9 264.7c-2 1.4-3.1 3.3-3.6 2.6-.5-.7.7-2.5 2.7-3.9s4-2 4.5-1.3-1.6 1.2-3.6 2.6z" class="st25"/><path d="M68.1 268.8c-1.7 2.1-6.1 3.8-8.2 2.1s-1.2-6.3.5-8.4 4.9-2.4 7-.6c2.2 1.7 2.5 4.8.7 6.9z" class="st26"/><path d="M60.2 270.6l-1.3.5 1.1.9zM68.1 268.8c1.6-1.9 1.5-4.7-.1-6.5 0 0 3.6 6.6-6.4 9.2 2.3.4 5.2-1.1 6.5-2.7z" class="st27"/><path d="M63 262.6c-1.2.6-2 1.6-2.2 1-.2-.5.5-1.4 1.8-2 1.2-.6 2.4-.6 2.7-.1.2.6-1.1.5-2.3 1.1z" class="st28"/><path d="M56.7 292.8c-2.6 2.2-8.2 3.3-10.3.7-2.2-2.6-.1-7.9 2.5-10.1 2.6-2.2 6.4-1.8 8.6.8 2.1 2.6 1.8 6.4-.8 8.6z" class="st29"/><path d="M46.7 293.2l-1.7.3 1.1 1.3z" class="st30"/><path d="M56.7 292.8c2.3-2 2.8-5.3 1.3-7.9 0 0 2.9 8.8-9.7 9.8 2.5.8 6.4-.3 8.4-1.9z" class="st31"/><path d="M50.3 284.5c-1.4.9-2.1 2.1-2.5 1.6-.3-.5.5-1.6 1.9-2.5 1.4-.9 2.7-1.2 3-.7.4.5-1.1.7-2.4 1.6z" class="st32"/><path d="M39.1 291.9c-2.1 1.4-6.3 1.7-7.7-.3s.6-5.8 2.7-7.2 4.9-.8 6.3 1.3c1.3 2 .8 4.8-1.3 6.2z" class="st33"/><path d="M31.7 291.4h-1.2l.7 1.1zM39.1 291.9c1.9-1.3 2.5-3.7 1.6-5.7 0 0 1.4 6.7-8 6.4 1.9.8 4.8.3 6.4-.7z" class="st34"/><path d="M36 285c-1.1.2-1.9.8-2 .4-.1-.5.7-1 1.8-1.2 1.1-.2 2.1 0 2.1.5.1.4-.8.1-1.9.3z" class="st35"/><path d="M99.2 296c-1.7 2-5.9 3.7-7.9 2-2-1.7-1.1-6.1.6-8.2 1.7-2 4.7-2.3 6.8-.6s2.2 4.8.5 6.8z" class="st29"/><path d="M99.2 296c1.5-1.9 1.5-4.5-.1-6.3 0 0 3.5 6.5-6.2 8.9 2.2.3 5-1 6.3-2.6z" class="st31"/><path d="M93.1 290.2c-.9.8-1.3 1.8-1.6 1.5-.3-.3.2-1.2 1-2.1.9-.8 1.8-1.2 2.1-.9.4.4-.6.7-1.5 1.5z" class="st32"/><path d="M126.8 299.1c-1.8 1.1-5.4 1.2-6.4-.6s.8-4.9 2.6-5.9c1.8-1.1 4.1-.5 5.2 1.3 1 1.7.4 4.1-1.4 5.2z" class="st23"/><path d="M126.8 299.1c1.6-1 2.3-3 1.6-4.7 0 0 .9 5.7-7 5 1.5.7 3.9.5 5.4-.3z" class="st24"/><path d="M122.7 293.9c-.8.7-1.2 1.6-1.5 1.3-.3-.3.2-1.1 1-1.9s1.7-1.1 2-.8c.2.4-.7.7-1.5 1.4z" class="st25"/><path d="M114.2 293c-1.3 1.2-4.2 2-5.5.7-1.2-1.3-.3-4.2 1-5.4s3.4-1.2 4.6.1 1.2 3.4-.1 4.6z" class="st29"/><path d="M108.9 293.6l-.9.2.6.7zM114.2 293c1.2-1.1 1.3-2.9.4-4.2 0 0 1.9 4.6-4.8 5.6 1.4.3 3.4-.4 4.4-1.4z" class="st31"/><path d="M110.2 289.1c-.7.6-1 1.4-1.3 1.2s.1-1 .8-1.6c.7-.6 1.5-1 1.7-.7s-.5.5-1.2 1.1z" class="st32"/><path d="M157.8 278c-1.4 1.7-5 3.2-6.7 1.8-1.7-1.4-1-5.2.4-6.9s4-2 5.7-.6c1.8 1.4 2 4 .6 5.7z" class="st29"/><path d="M151.3 279.6l-1.1.3.9.8z" class="st30"/><path d="M157.8 278c1.3-1.6 1.2-3.9-.1-5.3 0 0 3 5.4-5.2 7.6 1.8.2 4.2-.9 5.3-2.3z" class="st31"/><path d="M153.3 273c-1 .6-1.6 1.5-1.8 1s.4-1.3 1.4-1.8c1-.6 2-.7 2.3-.2.2.4-.9.5-1.9 1z" class="st32"/><path d="M65 283.8l-1.2.2.9 1z" class="st31"/><path d="M72.6 283c-1.9 1.8-6.1 2.9-7.8 1-1.8-1.9-.4-6 1.5-7.8 1.9-1.8 4.8-1.7 6.6.2s1.6 4.9-.3 6.6z" class="st29"/><path d="M72.6 283c1.7-1.6 1.9-4.2.6-6 0 0 2.6 6.6-7 7.9 2.1.4 5-.5 6.4-1.9z" class="st31"/><path d="M68 277c-1.2.7-1.9 1.7-2.2 1.2s.5-1.4 1.7-2.1c1.2-.7 2.4-.8 2.6-.4s-.9.7-2.1 1.3z" class="st32"/><path d="M148.5 295.4c-1.4 1.8-4.9 3.3-6.7 1.9-1.8-1.4-1.1-5.2.3-6.9 1.4-1.8 4-2.1 5.7-.7 1.8 1.4 2.1 3.9.7 5.7z" class="st26"/><path d="M143.8 290.7c-1.1.6-1.7 1.6-2 1.1s.4-1.4 1.5-2c1.1-.6 2.2-.7 2.5-.3s-.9.5-2 1.2z" class="st28"/><path d="M143.1 297.8c7.6-1.5 5.3-7.6 5.3-7.6s2.2 2.4.1 5.2-5.4 2.4-5.4 2.4z" class="st27"/><path d="M139.1 286.4c-2.6 2.2-8.3 3.3-10.5.7-2.2-2.6-.1-8 2.5-10.2 2.6-2.2 6.5-1.8 8.7.8 2.2 2.6 1.9 6.5-.7 8.7z" class="st23"/><path d="M128.9 286.9l-1.7.2 1.2 1.4zM139.1 286.4c2.4-2 2.9-5.4 1.3-8 0 0 3 9-9.8 9.9 2.5.9 6.4-.2 8.5-1.9z" class="st24"/><path d="M132.5 278.4c-1.6 1.2-2.5 2.7-3 2.2-.4-.6.6-2 2.2-3.2 1.6-1.2 3.3-1.7 3.8-1.1.4.5-1.4.9-3 2.1z" class="st25"/><path d="M87.9 272.5c-2.7 2.2-8.4 3.4-10.7.7-2.2-2.7-.1-8.1 2.6-10.4 2.7-2.2 6.6-1.9 8.8.8 2.4 2.7 2 6.7-.7 8.9z" class="st26"/><path d="M77.6 273l-1.7.2 1.2 1.4zM87.9 272.5c2.4-2 2.9-5.5 1.3-8.1 0 0 3 9.1-10 10.1 2.7.9 6.7-.2 8.7-2z" class="st27"/><path d="M81.3 264c-1.4.9-2.2 2.1-2.5 1.6s.5-1.7 1.9-2.6c1.4-.9 2.8-1.2 3.1-.7.4.6-1.1.8-2.5 1.7z" class="st28"/><path d="M105.3 284.6c-1.8 1.7-5.9 2.9-7.7 1-1.7-1.8-.4-5.9 1.4-7.6 1.8-1.7 4.7-1.7 6.4.1 1.8 1.9 1.7 4.8-.1 6.5z" class="st33"/><path d="M97.9 285.5l-1.3.2.9 1zM105.3 284.6c1.7-1.6 1.8-4.1.6-5.9 0 0 2.6 6.4-6.8 7.8 2 .5 4.8-.5 6.2-1.9z" class="st34"/><path d="M100.7 278.7c-1.1.6-1.7 1.6-2 1.1-.3-.5.4-1.4 1.5-2 1.1-.6 2.2-.7 2.5-.3s-1 .6-2 1.2z" class="st35"/><path d="M79.7 302.1c-1.6 1.9-5.6 3.4-7.5 1.8-1.9-1.6-1-5.8.6-7.7 1.6-1.9 4.5-2.1 6.4-.5s2.1 4.5.5 6.4z" class="st26"/><path d="M74.8 296.6c-1.2.7-1.9 1.8-2.2 1.3-.3-.5.5-1.5 1.7-2.2 1.2-.7 2.5-.8 2.8-.3.3.5-1.1.5-2.3 1.2z" class="st28"/><path d="M140.3 268.7c-2.4 2-7.7 3.1-9.8.7-2-2.4-.1-7.5 2.4-9.5 2.4-2 6.1-1.7 8.1.7 2.1 2.4 1.7 6.1-.7 8.1z" class="st33"/><path d="M130.8 269.2l-1.5.2 1 1.3zM140.3 268.7c2.2-1.9 2.7-5 1.2-7.4 0 0 2.8 8.4-9.2 9.3 2.5.7 6.1-.3 8-1.9z" class="st34"/><path d="M134.3 261.2c-1.4 1-2.1 2.3-2.4 1.8s.5-1.7 1.8-2.7c1.4-1 2.7-1.4 3.1-.9s-1.2.8-2.5 1.8z" class="st35"/><path d="M121.7 282.3c-1.4 1.3-4.4 2.1-5.7.8-1.3-1.4-.3-4.4 1-5.7s3.5-1.3 4.8.1c1.3 1.4 1.2 3.5-.1 4.8z" class="st26"/><path d="M116.1 282.9l-.9.2.7.8zM121.7 282.3c1.2-1.2 1.4-3.1.4-4.4 0 0 2 4.8-5.1 5.8 1.5.4 3.6-.4 4.7-1.4z" class="st27"/><path d="M118.2 277.9c-.8.5-1.3 1.2-1.5.8-.2-.4.3-1 1.1-1.5s1.6-.6 1.8-.2c.3.4-.6.4-1.4.9z" class="st28"/><path d="M102.9 272.4c-2.2 1.8-6.9 2.8-8.8.6-1.8-2.2-.1-6.7 2.1-8.5 2.2-1.8 5.4-1.5 7.3.6 1.8 2.2 1.5 5.5-.6 7.3z" class="st33"/><path d="M94.4 272.8l-1.4.2.9 1.1z" class="st36"/><path d="M102.9 272.4c2-1.7 2.4-4.5 1.1-6.7 0 0 2.5 7.5-8.2 8.3 2.1.7 5.4-.2 7.1-1.6z" class="st34"/><path d="M97.4 265.4c-1.1.7-1.8 1.8-2.1 1.3s.4-1.4 1.6-2.1 2.3-1 2.6-.6-.9.6-2.1 1.4z" class="st35"/><path d="M88.7 287.1c-2.1 2.5-7.4 4.5-9.9 2.4s-1.3-7.6.8-10.2 5.9-2.8 8.4-.7c2.6 2.2 2.9 6 .7 8.5z" class="st23"/><path d="M79.1 289.1l-1.6.5 1.3 1.2zM88.7 287.1c2-2.3 1.9-5.6 0-7.8 0 0 4.3 8.1-7.8 11.1 2.6.3 6.1-1.4 7.8-3.3z" class="st24"/><path d="M81.9 279.4c-1.3.7-2.1 1.9-2.4 1.4-.3-.5.5-1.6 1.9-2.3 1.3-.7 2.6-.9 2.9-.4.2.5-1.1.6-2.4 1.3z" class="st25"/><path d="M122.6 269.4c-3.5 2.9-11 4.4-13.9 1-2.9-3.5-.1-10.6 3.4-13.5 3.5-2.9 8.6-2.5 11.5 1 3 3.5 2.5 8.6-1 11.5z" class="st26"/><path d="M109.2 270l-2.2.3 1.5 1.9zM122.6 269.4c3.2-2.6 3.8-7.2 1.7-10.6 0 0 3.9 11.9-13.1 13.1 3.6 1.2 8.8-.2 11.4-2.5z" class="st27"/><path d="M114.1 258.3c-1.8 1.2-2.9 2.8-3.3 2.1-.4-.7.7-2.2 2.5-3.3 1.8-1.2 3.6-1.6 4.1-.9s-1.5.9-3.3 2.1z" class="st28"/></g><path fill="#25bf4c" d="M735.5 536.7c-53.1 2.9-223.8 46.6-280.8-2.2-36.7-31.5-59.7-70.9-81.9-92.4-67-64.5-290.4-130.3-408.8-15.7-30.2 29.2-50.1 61.8-30.5 98.9 2.5 4.6 5.8 8.9 9.8 12.7 27.7-.8 84.7-9.6 97.2-35.6l54 7.8c-18.8 25.6-61.8 45.5-99.2 55.9C38 582 85.6 592.8 85.6 621.6c0 39.5-331 46.4-339.2-29.5-4.8-44.3 88.3-106.3 101.9-122.9 43.6-53.2 51.4-94.8 3.6-144.3-47.8-49.4-122.4-65.8-188.1-45.4-145.1 44.9-143.2 146.9-92.7 218.5 7 9.9 9.9 23.7 4.6 34.7-8.4 17.3-31.9 18.9-51.1 18.1-42.4-1.8-130.2-6-172.6-7.8l-6.4 119.8c57.8-5.8 272.9-16.3 327.6 30.5 48.4 41.4 162.3 62.8 258.1 62.3 150.5 3.3 274.5-90 267-163.5-14-138.4-255.1-75.9-155.8-146.4 65-46.1 189.4-19.3 245.3 14 11.7 7 23.2 15.1 31 26.3 7.8 11.2 11.4 26.1 6.4 38.8-5.6 14.1-20 22.4-33.9 28.6-13.8 6-28.4 10.7-43.3 14.2-20.4 4.8-22.4 33.1-2.8 40.5.2.1.3.1.5.2 15.3 5.6 32.1 5 48.1 2.8 16.1-2.2 32-6 48.2-6.5 36.6-1.2 73.4 9.5 106.1 26 120.4 60.7 229.3-20.1 287.4-70.9v-23z" clip-path="url(#SVGID_2_)"/><path fill="#876f2d" d="M74.6 527.5c2.5.3 5 .7 7.6 1 4.2.5 8.5 1.1 12.8 1.7 30.2 4.2 61.5 11.2 77.9 37.2 9.9 15.7 11.2 34.8 3.8 55.3-13 36.3-50.5 69.4-95.6 84.3-52.9 17.5-110.9 26.8-167.6 26.8-47 0-90.8-6.3-129.9-18.8-50.4-16.1-107.4-53.1-116.5-108.7-4.7-28.7 11.4-60.3 46.5-91.4 11.8-10.5 24.6-20 37-29.2 14.5-10.8 29.5-22 42.8-34.6 32-30.5 45.3-69.3 33.8-98.9-11.3-29.2-45.6-45.8-96.5-46.9-2 0-4-.1-6-.1-76.3 0-106.7 29.1-118.6 53.6-16.4 33.4-5.4 72.3 11.7 94.3 20.5 26.4 31.3 51 32.3 72.9.8 19.1-5.8 37-19.6 53.1-24.6 28.5-73.7 32.2-113.7 32.2-70.1 0-158.9-3.8-159.4-3.9l-8.6-.3 2.3-54.3 7.3.8c.4.1 85.1 7.8 162.2 7.8 59.5 0 77.1-13.9 81.4-25.5 6.3-17.2-7.6-40.3-22.3-64.9-17.4-29.1-35.4-59.2-25.1-86.6 13-34.3 36.7-62.1 68.6-80.4 28.1-16.1 61.6-24.6 96.8-24.6 60.2 0 112.4 25 129.9 62.2 21.8 46.5 17.5 65.9-7.7 104.4-11.7 18-32.8 35.5-55.1 54.1-34.1 28.4-69.5 57.8-73.4 90.5-2.1 17.6 8.9 32.9 32.6 45.4 23.6 12.4 54 18.9 70 21.7C-135.8 666-94.4 670-56.9 670c45.1 0 84.8-5.7 121.3-17.3 54.1-17.3 80-38.7 73.7-61.7-8.6-31.5-67-34-68.8-34.3l5.3-29.2z" clip-path="url(#SVGID_2_)"/><path fill="#d4af4e" d="M71.2 553.4c26.5 3 64 11.1 70.6 37.1 9.3 36.6-50.4 58-76.3 66.3-79.8 25.5-167.3 19.4-249.9 5.2-43.4-7.5-111.1-27.6-105.8-71.4 6.7-56.1 99.8-101.4 129.1-146.3 24.7-37.8 28.4-56.1 7.4-100.7-37.6-80-236.9-93.1-288.2 42.5-18.4 48.7 62 111.5 47.4 151.4-10.1 27.4-67.3 28-85 28-78.4 0-169.7-8.9-169.7-8.9l-1.9 45.6s97 5.3 167.8 5.3c37.1 0 86.6-2.8 110.8-30.8 24.2-28.1 29.9-66-12.8-121.2-39.3-50.8-33.1-157 116.1-154.1C-144 303.9-144 396.8-204 453.8c-24.7 23.5-54.4 41.2-79.9 63.9-25.5 22.6-50.7 54.2-45.2 87.9 9.1 56.3 69.1 91.4 113.9 105.7 91.6 29.2 203.9 22.2 295.1-8 71.8-23.8 116.6-91.2 89.7-133.9-16-25.4-55.8-34.3-86.4-38.4l-12 22.4z" clip-path="url(#SVGID_2_)"/><path fill="#f2f2f2" d="M-109.6 283.1l-27.1 17.1 24.2 5.5-.6-4.7 37.3-12.4.3 25.4 15.4-11.3 18.3 26.5-4-30.6 16.5-1.1-2.6-12.1 6.1-1.9s8.7 23.8 8.7 22.1V286l10.3 4.2 12.2 23.7L-.1 294 36 307.6l-1.4-1.8c-40.4-27.8-75.2-50-83.1-50-8.5 0-33.9 12.5-61.1 27.3z" clip-path="url(#SVGID_2_)"/><g class="st20"><defs><path id="SVGID_15_" d="M780.6 530.6c-114.2 0-201.1 9.5-250.8-9.7-120.5-46.4-109.7-187-335.6-187-112.5 0-152 34.6-242.8 34.6-50.5 0-110.5-99.8-217.5-99.8-198.1 0-192.8 154.3-355.8 168.3-13.8 1.2-24.5 12.8-24.5 26.6 0 49.7-3.5 97.2-5 143.6-2.7 82.2-6.3 150 21.7 172 38.4 17.2 180.1-25.9 305.9.4 182.3 38.2 240.5 16.6 427.6 6.4 112.3-6.1 275.8-9.3 330.2-8.7 161.5 1.7 308.4 26.6 335.1 1.9 25.8-23.9 24.7-148.9 11.5-248.6z"/></defs><clipPath id="SVGID_4_"><use overflow="visible" xlink:href="#SVGID_15_"/></clipPath></g><path fill="none" stroke="#534741" stroke-miterlimit="10" stroke-width="1.06" d="M238.6 165.1l79.3 22.1-79.3 26.2" clip-path="url(#SVGID_2_)"/><path fill="#ff882a" d="M279.8 170.8s-68.4-13.9-234.1-1c-95.7 7.4-229.4-1.8-229.4-1.8l31.6 28-29.9 27.8s95.1 11.5 222.3 2.2c127.9-9.3 239.5-1.6 239.5-1.6v-53.6z" clip-path="url(#SVGID_2_)"/><g class="st20"><path d="M.7 182.6c-1.5.1-2.3.1-3.8.1-.1 3.9-.1 5.8-.2 9.6-.8 0-1.1 0-1.9.1.1-3.9.1-5.8.2-9.6-1.5 0-2.2.1-3.7.1v-1.6c3.7-.1 5.6-.2 9.4-.3.1.7.1 1 0 1.6zM6.2 192.3c-1.5.1-2.7-.4-3.7-1.4-.9-1-1.4-2.3-1.3-4v-.4c0-1.1.3-2.1.7-3 .4-.9 1.1-1.6 1.8-2.1.8-.5 1.6-.8 2.5-.8 1.5-.1 2.6.4 3.4 1.3.8.9 1.2 2.3 1.1 4.1v.8c-3 .1-4.6.2-7.6.3 0 1.1.3 2 .9 2.6.6.7 1.4 1 2.3.9.7 0 1.3-.2 1.7-.5.5-.3.9-.7 1.3-1.1.5.3.7.5 1.2.9-1 1.5-2.4 2.3-4.3 2.4zm0-10c-.8 0-1.4.3-2 .9-.5.6-.9 1.4-1 2.4 2.2-.1 3.4-.1 5.6-.2v-.1c0-1-.3-1.7-.7-2.2s-1.1-.9-1.9-.8zM22.4 186c0 1.7-.5 3.1-1.3 4.2s-1.9 1.6-3.2 1.7c-1.4 0-2.4-.3-3.2-1.2 0 2.2-.1 3.2-.1 5.4-.8 0-1.1 0-1.9.1.1-6.2.2-9.3.3-15.5.7 0 1.1 0 1.8-.1 0 .5 0 .7.1 1.2.8-1 1.9-1.5 3.3-1.6 1.3 0 2.4.4 3.2 1.4.8 1 1.1 2.4 1.1 4.2-.1.1-.1.2-.1.2zm-1.9-.1c0-1.3-.2-2.2-.7-3-.5-.7-1.3-1-2.2-1-1.2 0-2 .6-2.6 1.6 0 2.1-.1 3.2-.1 5.3.6 1 1.4 1.5 2.6 1.4.9 0 1.7-.4 2.2-1.2.5-.6.8-1.7.8-3.1zM31.6 191.1c-.1-.2-.2-.6-.2-1.2-.9 1-2 1.5-3.2 1.5-1.1 0-2-.2-2.7-.8-.7-.6-1-1.4-1-2.3 0-1.2.5-2.1 1.4-2.8.9-.7 2.2-1 3.8-1.1.7 0 1.1 0 1.9-.1v-.9c0-.7-.2-1.2-.6-1.6-.4-.4-1-.6-1.8-.5-.7 0-1.3.2-1.7.6-.5.4-.7.8-.7 1.3-.8 0-1.2 0-1.9.1 0-.6.2-1.1.6-1.6.4-.5 1-1 1.6-1.3.7-.3 1.4-.5 2.3-.5 1.3 0 2.3.2 3 .9.7.6 1.1 1.5 1.1 2.6 0 2.1-.1 3.1-.1 5.2 0 1 .1 1.8.3 2.4v.2c-.8-.1-1.3-.1-2.1-.1zm-3.1-1.3c.6 0 1.2-.2 1.7-.5s.9-.8 1.2-1.3v-2.3c-.6 0-.9 0-1.5.1-2.3.1-3.5.8-3.6 2.2 0 .6.2 1.1.6 1.4.5.3 1 .4 1.6.4zM44.6 181c-1.5.1-2.3.1-3.8.1-.1 3.9-.1 5.8-.2 9.6-.8 0-1.1 0-1.9.1.1-3.9.1-5.8.2-9.6-1.5.1-2.2.1-3.7.1v-1.6c3.7-.1 5.6-.2 9.4-.4v1.7zM53.8 179.1c.8 0 1.2 0 1.9-.1-.1 4.5-.1 6.7-.2 11.2-.8 0-1.2 0-1.9.1.1-3.3.1-4.9.2-8.2-2.1 3.3-3.2 5-5.3 8.4-.8 0-1.1 0-1.9.1.1-4.5.1-6.7.2-11.2.8 0 1.1 0 1.9-.1-.1 3.3-.1 4.9-.2 8.2 2.1-3.4 3.1-5.1 5.3-8.4zM58.7 190.1c.1-4.5.1-6.7.2-11.2 1.7-.1 2.6-.1 4.4-.2 1.5-.1 2.6.2 3.4.6.8.5 1.2 1.2 1.1 2.2 0 .5-.2 1-.5 1.4-.3.4-.8.8-1.4 1 .7.1 1.2.4 1.6.9.4.4.6 1 .6 1.6 0 1-.4 1.8-1.2 2.4-.8.6-1.8.9-3.2.9-1.9.3-3 .3-5 .4zm2.1-6.5c1 0 1.5-.1 2.5-.1 1.8-.1 2.7-.6 2.7-1.7 0-1-.8-1.6-2.5-1.5-1 0-1.6.1-2.6.1-.1 1.2-.1 1.9-.1 3.2zm-.1 1.5c0 1.3 0 2-.1 3.4 1.3-.1 1.9-.1 3.2-.1.8 0 1.4-.2 1.8-.5.4-.3.6-.7.6-1.3 0-1.1-.8-1.6-2.4-1.6-1.2 0-1.8 0-3.1.1zM79.8 189.2c-.8 0-1.1 0-1.9.1 0-1.9.1-2.9.1-4.8-2.1.1-3.1.1-5.1.2 0 1.9-.1 2.9-.1 4.8-.8 0-1.2 0-1.9.1.1-4.5.1-6.7.2-11.2.8 0 1.2 0 1.9-.1 0 1.9-.1 2.9-.1 4.9 2.1-.1 3.1-.1 5.1-.2 0-1.9.1-2.9.1-4.9.8 0 1.1 0 1.9-.1 0 4.5-.1 6.8-.2 11.2zM89.8 188.8c-.1-.2-.2-.6-.2-1.2-.9 1-2 1.5-3.2 1.5-1.1 0-2-.2-2.7-.8-.7-.6-1-1.4-1-2.3 0-1.2.5-2.1 1.4-2.8.9-.7 2.2-1.1 3.8-1.1.7 0 1.1 0 1.9-.1v-.9c0-.7-.2-1.2-.6-1.6-.4-.4-1-.6-1.8-.5-.7 0-1.3.2-1.7.6-.5.4-.7.8-.7 1.3-.8 0-1.2 0-1.9.1 0-.6.2-1.1.6-1.6.4-.5 1-1 1.6-1.3.7-.3 1.4-.5 2.3-.5 1.3-.1 2.3.2 3 .8.7.6 1.1 1.5 1.1 2.6 0 2.1-.1 3.1-.1 5.2 0 1 .1 1.8.3 2.4v.2h-2.1zm-3.1-1.3c.6 0 1.2-.2 1.7-.5s.9-.8 1.2-1.3v-2.3c-.6 0-.9 0-1.5.1-2.3.1-3.5.8-3.6 2.2 0 .6.2 1.1.6 1.4.4.3.9.4 1.6.4zM103.2 177.1c-.1 4.5-.1 6.7-.2 11.2-.8 0-1.2 0-1.9.1 0-1.7.1-2.6.1-4.4-1.2 0-1.7.1-2.9.1-1.1 1.8-1.6 2.7-2.7 4.5-.8 0-1.2 0-2.1.1 1.2-1.9 1.7-2.9 2.9-4.8-.7-.2-1.3-.6-1.6-1.2-.4-.5-.6-1.2-.5-1.9 0-1 .4-1.9 1.2-2.5.8-.7 1.8-1 3.1-1.1 1.8 0 2.8 0 4.6-.1zm-7 3.7c0 .5.2 1 .5 1.3.4.3.9.5 1.5.5 1.2 0 1.8-.1 3-.1 0-1.5 0-2.2.1-3.7-1.1 0-1.7.1-2.8.1-.7 0-1.3.2-1.7.6-.4.3-.6.8-.6 1.3zM114.9 183.1c-.6 0-.8 0-1.4.1 0 1.9-.1 2.9-.1 4.8-.8 0-1.2 0-1.9.1.1-4.5.1-6.7.2-11.2.8 0 1.2 0 1.9-.1 0 1.9-.1 2.8-.1 4.7h1.3c1.5-2 2.3-2.9 3.9-4.9.9 0 1.4 0 2.3-.1l-4.5 5.5c1.9 2.3 2.8 3.4 4.7 5.6-1 0-1.5.1-2.4.1-1.6-1.8-2.4-2.7-3.9-4.6zM129.7 187.4c-.1-.2-.2-.6-.2-1.2-.9 1-2 1.5-3.2 1.5-1.1 0-2-.2-2.7-.8-.7-.6-1-1.4-1-2.3 0-1.2.5-2.1 1.4-2.8.9-.7 2.2-1 3.8-1.1.7 0 1.1 0 1.9-.1v-.9c0-.7-.2-1.2-.6-1.6-.4-.4-1-.6-1.8-.5-.7 0-1.3.2-1.7.6-.5.4-.7.8-.7 1.3-.8 0-1.2 0-1.9.1 0-.6.2-1.1.6-1.6.4-.5 1-1 1.6-1.3.7-.3 1.4-.5 2.3-.5 1.3 0 2.3.2 3 .9.7.6 1.1 1.5 1.1 2.6 0 2.1-.1 3.1-.1 5.2 0 1 .1 1.8.3 2.4v.2c-.9-.2-1.3-.2-2.1-.1zm-3.1-1.4c.6 0 1.2-.2 1.7-.5s.9-.7 1.2-1.3v-2.3c-.6 0-.9 0-1.5.1-2.3.1-3.5.8-3.6 2.2 0 .6.2 1.1.6 1.4.4.3.9.4 1.6.4zM143.9 181.5c0 1.7-.5 3.1-1.3 4.2s-1.9 1.6-3.2 1.7c-1.4 0-2.4-.4-3.2-1.2 0 2.2-.1 3.2-.1 5.4-.8 0-1.1 0-1.9.1.1-6.2.2-9.3.3-15.5.7 0 1.1 0 1.8-.1 0 .5 0 .7.1 1.2.8-1 1.9-1.5 3.3-1.6 1.3 0 2.4.4 3.2 1.4.8 1 1.1 2.4 1.1 4.2-.1 0-.1.1-.1.2zm-1.9-.2c0-1.3-.2-2.3-.7-3-.5-.7-1.3-1.1-2.2-1-1.2 0-2 .6-2.6 1.6 0 2.1-.1 3.2-.1 5.3.6 1 1.4 1.5 2.6 1.4.9 0 1.7-.4 2.2-1.2.5-.6.8-1.7.8-3.1zM153.9 177c-1.5 0-2.3.1-3.8.1-.1 3.9-.1 5.8-.2 9.6-.8 0-1.1 0-1.9.1.1-3.9.1-5.8.2-9.6-1.5 0-2.2.1-3.7.1v-1.6c3.7-.1 5.6-.2 9.4-.3.1.7 0 1 0 1.6zM162.4 186.4c-.1-.2-.2-.6-.2-1.2-.9.9-2 1.4-3.2 1.5-1.1 0-2-.3-2.7-.9-.7-.6-1-1.4-1-2.3 0-1.2.5-2.1 1.4-2.8.9-.7 2.2-1 3.8-1.1h1.9v-.9c0-.7-.2-1.2-.6-1.6-.4-.4-1-.6-1.8-.6-.7 0-1.3.2-1.7.6-.5.4-.7.8-.7 1.3-.8 0-1.2 0-1.9.1 0-.6.2-1.1.6-1.6.4-.5 1-1 1.6-1.3.7-.3 1.4-.5 2.3-.5 1.3 0 2.3.3 3 .9.7.6 1.1 1.5 1.1 2.6 0 2.1-.1 3.1-.1 5.2 0 1 .1 1.8.3 2.4v.2h-2.1zm-3.2-1.4c.6 0 1.2-.2 1.7-.5s.9-.7 1.2-1.2V181h-1.5c-2.3.1-3.5.8-3.6 2.1 0 .6.2 1.1.6 1.4.5.4 1 .6 1.6.5z" class="st69"/><path d="M10.1 200.2c1.1.5 2 1.2 2.6 2.1.6.9.9 2 .9 3.3 0 1.3-.4 2.4-1 3.4s-1.5 1.7-2.7 2.3c-1.2.5-2.5.9-4.1.9-1.4 0-2.1.1-3.5.1 0 1.9-.1 2.9-.1 4.8-1.6.1-2.4.1-4.1.1.1-7 .2-10.5.4-17.5 3-.1 4.6-.2 7.6-.3 1.5.1 2.8.4 4 .8zm-1.7 7.9c.6-.5 1-1.3 1-2.3 0-1-.3-1.7-.9-2.2-.6-.5-1.5-.7-2.8-.7-1.3 0-2 .1-3.3.1 0 2.4-.1 3.7-.1 6.1 1.3 0 2-.1 3.3-.1 1.2 0 2.2-.3 2.8-.9zM27.1 212.6c-3.3.1-4.9.2-8.1.3-.7 1.5-1 2.3-1.6 3.8-1.7.1-2.5.1-4.2.2 3.3-7.1 4.9-10.7 8.2-17.8 1.6-.1 2.4-.1 4-.1 3 6.9 4.5 10.3 7.5 17.2-1.7.1-2.6.1-4.3.2-.6-1.6-.9-2.3-1.5-3.8zm-1.2-3c-1.1-2.6-1.6-4-2.6-6.6-1.2 2.7-1.8 4.1-2.9 6.8 2.1-.1 3.2-.2 5.5-.2zM48 201.3c-2.2.1-3.4.1-5.6.2-.1 5.7-.2 8.5-.3 14.2-1.6.1-2.4.1-4 .2.1-5.7.2-8.5.3-14.2-2.2.1-3.4.1-5.6.2 0-1.3 0-2 .1-3.3 6.1-.2 9.1-.4 15.2-.6-.1 1.3-.1 2-.1 3.3zM63.9 204.6c1.1.9 1.7 2.3 1.6 4.2 0 2-.7 3.5-2 4.6-1.3 1.1-3.1 1.7-5.4 1.8-3.2.1-4.8.2-7.9.3.1-7 .2-10.5.4-17.5 1.6-.1 2.4-.1 4-.2 0 2.3-.1 3.5-.1 5.8 1.8-.1 2.7-.1 4.5-.2 2.1-.2 3.8.3 4.9 1.2zm-3.4 6.7c.6-.5.9-1.3.9-2.3 0-1.8-1.1-2.7-3.3-2.6-1.5.1-2.2.1-3.7.1 0 2.3-.1 3.5-.1 5.8 1.5-.1 2.2-.1 3.7-.1 1.1-.1 1.9-.4 2.5-.9zM91.8 196.3c-.1 7-.2 10.5-.4 17.5-1.6.1-2.4.1-4 .2.1-5.7.2-8.5.3-14.2-3.2.1-4.8.2-7.9.3-.1 5.7-.2 8.5-.3 14.2-1.6.1-2.4.1-4 .2.1-7 .2-10.5.4-17.5 6.3-.4 9.5-.5 15.9-.7zM107.8 196.4c1.1.5 2 1.2 2.6 2.1.6.9.9 2 .9 3.3 0 1.3-.4 2.4-1 3.4s-1.5 1.8-2.7 2.3c-1.2.6-2.5.9-4.1.9-1.4.1-2.1.1-3.5.1 0 1.9-.1 2.9-.1 4.8-1.6.1-2.4.1-4.1.2.1-7 .2-10.5.4-17.5 3-.1 4.6-.2 7.6-.3 1.5.1 2.8.3 4 .7zm-1.7 7.9c.6-.5 1-1.3 1-2.3 0-1-.3-1.7-.9-2.2-.6-.5-1.5-.7-2.8-.7-1.3 0-2 .1-3.3.1 0 2.4-.1 3.7-.1 6.1 1.3-.1 2-.1 3.3-.1 1.2 0 2.2-.3 2.8-.9zM117.4 211.9c-1.4-.7-2.6-1.8-3.4-3.1-.8-1.3-1.2-2.9-1.1-4.6s.5-3.3 1.3-4.7c.9-1.4 2-2.5 3.5-3.4 1.5-.8 3.1-1.3 5-1.4 1.8-.1 3.5.3 4.9 1 1.4.7 2.6 1.8 3.4 3.1.8 1.3 1.2 2.9 1.2 4.6 0 1.7-.5 3.3-1.3 4.7-.9 1.4-2 2.5-3.5 3.4-1.5.8-3.1 1.3-4.9 1.3-2 .2-3.7-.1-5.1-.9zm7.8-3.2c.8-.5 1.5-1.2 2-2.1.5-.9.8-1.8.8-2.9 0-1.1-.2-2-.7-2.9s-1.1-1.5-1.9-1.9c-.8-.4-1.8-.7-2.8-.6-1 0-2 .3-2.8.8-.8.5-1.5 1.2-2 2.1-.5.9-.8 1.8-.8 2.9 0 1.1.2 2 .7 2.9.5.8 1.1 1.5 1.9 1.9.8.4 1.8.7 2.8.6 1 0 1.9-.3 2.8-.8zM153.5 208.3c-1.6 1.4-3.9 2.2-6.9 2.4v1.9c-1.5 0-2.2.1-3.7.1v-1.9c-3-.1-5.2-.8-6.8-2-1.6-1.3-2.3-3.1-2.3-5.3 0-2.3.9-4.1 2.5-5.5 1.6-1.4 3.9-2.2 6.9-2.5v-1.8c1.5 0 2.2-.1 3.7-.1v1.8c3 .1 5.2.8 6.8 2.1 1.6 1.3 2.3 3.1 2.3 5.4 0 2.2-.9 4.1-2.5 5.4zm-10.5-.6c.1-3.6.1-5.4.2-9-1.8.2-3.1.7-4 1.5-.9.8-1.3 1.8-1.4 3.2 0 2.6 1.7 4 5.2 4.3zm7.7-1.6c.9-.8 1.3-1.8 1.4-3.2.1-2.7-1.7-4.1-5.2-4.3-.1 3.6-.1 5.4-.2 9 1.8-.3 3.1-.7 4-1.5zM172.5 208c0 1.3 0 2-.1 3.3-5.4.1-8.2.2-13.6.3.1-7 .2-10.5.4-17.5 5.3-.1 8-.2 13.3-.3 0 1.3 0 2-.1 3.3-3.7.1-5.5.1-9.2.2 0 1.5 0 2.3-.1 3.8 3.3-.1 4.9-.1 8.1-.2 0 1.3 0 1.9-.1 3.2-3.3.1-4.9.1-8.1.2 0 1.6 0 2.4-.1 4.1 3.9-.3 5.8-.4 9.6-.4zM179.1 210.2c-1.4-.7-2.5-1.8-3.3-3.2-.8-1.4-1.2-2.9-1.1-4.6s.5-3.3 1.3-4.7 2-2.5 3.5-3.3c1.5-.8 3.1-1.2 4.9-1.3 1.5 0 2.9.2 4.1.7 1.2.5 2.2 1.3 3 2.3-1.1 1-1.6 1.5-2.7 2.4-1.2-1.4-2.6-2-4.4-2-1.1 0-2.1.3-2.9.8-.9.5-1.5 1.2-2 2s-.8 1.8-.8 2.9c0 1.1.2 2 .7 2.9.5.8 1.1 1.5 2 2 .8.5 1.8.7 2.9.7 1.8 0 3.2-.7 4.5-2.1 1 .9 1.5 1.4 2.6 2.4-.9 1-1.9 1.8-3.2 2.4-1.2.6-2.6.8-4.2.9-1.8-.1-3.4-.4-4.9-1.2zM197 209.9c-1.4-.8-2.5-1.8-3.3-3.2s-1.2-2.9-1.1-4.7c0-1.7.5-3.3 1.3-4.7.9-1.4 2-2.5 3.5-3.3 1.5-.8 3.1-1.2 4.9-1.2 1.5 0 2.9.2 4.1.8 1.2.5 2.2 1.3 3 2.3-1.1 1-1.6 1.5-2.7 2.4-1.2-1.4-2.6-2-4.4-2-1.1 0-2.1.3-2.9.7-.9.5-1.5 1.2-2 2-.5.9-.8 1.8-.8 2.9 0 1.1.2 2.1.7 2.9.5.8 1.1 1.5 2 2 .8.5 1.8.7 2.9.7 1.8 0 3.2-.7 4.5-2.1 1 1 1.5 1.4 2.6 2.4-.9 1-1.9 1.8-3.2 2.4-1.2.5-2.6.8-4.2.8-1.9.1-3.5-.3-4.9-1.1zM212.1 193.2h4c-.1 4.6-.1 6.9-.2 11.4 3.4-4.6 5.2-6.9 8.6-11.4h3.8c-.1 7-.2 10.5-.4 17.5h-4c.1-4.6.1-6.8.2-11.4-3.4 4.6-5.2 6.8-8.6 11.4h-3.8c.1-7 .2-10.5.4-17.5zM252.8 194.3c1.4.8 2.5 1.9 3.3 3.3.8 1.4 1.1 3 1.1 4.7s-.5 3.3-1.3 4.6c-.8 1.4-2 2.4-3.4 3.2-1.4.8-3 1.1-4.8 1.1-1.6 0-3-.4-4.3-1-1.3-.6-2.3-1.5-3.2-2.7-.8-1.1-1.3-2.4-1.5-3.9h-2.3c-.1 2.9-.1 4.3-.1 7.1h-4c.1-7 .2-10.5.4-17.5h4c-.1 2.8-.1 4.1-.1 6.9h2.4c.3-1.4.9-2.6 1.7-3.7.9-1.1 1.9-1.9 3.2-2.5 1.3-.6 2.7-.9 4.3-.8 1.7-.1 3.2.4 4.6 1.2zm-2.3 12.7c.8-.5 1.4-1.1 1.9-1.9.5-.8.7-1.8.7-2.9 0-1.1-.2-2.1-.6-2.9-.4-.9-1-1.5-1.8-2s-1.6-.7-2.6-.7-1.9.2-2.6.7c-.8.5-1.4 1.1-1.9 2-.5.8-.7 1.8-.7 2.9 0 1.1.2 2.1.6 2.9.4.9 1 1.5 1.8 2s1.6.7 2.6.7c.9-.1 1.8-.3 2.6-.8z" class="st75"/></g><path d="M410.6 190.3c0 2.9-.3 5.3-.7 5.3s-.7-2.4-.7-5.3.3-4.3.7-4.3.7 1.4.7 4.3zM409.1 192.2c0 2.9-.3 5.3-.7 5.3s-.7-2.4-.7-5.3.3-4.3.7-4.3.7 1.4.7 4.3z" class="st152"/><path fill="#63564b" d="M397.7 190.4l4.7 2 4.9-1.3.3 1.6s-3.2 2.3-4.7 2.3c-1.4 0-5.3-.5-5.3-.5s-1.8-3.4.1-4.1z" clip-path="url(#SVGID_2_)"/><path d="M394.5 197s-3.3-7.9-.4-9.4 9.9 10.3 9.9 10.3l-9.5-.9z" class="st207"/><path fill="#b13b1c" d="M389.6 190.4s2.7-1.5 4.9 1 4 9.2 4 9.2l-11-2.5 2.1-7.7z" clip-path="url(#SVGID_2_)"/><g class="st20"><path d="M340.1 205l-8.2-17.3 15.9-1.6 7.8 9.5z" class="st209"/><path fill="#243538" d="M458.4 205.7c1.7-.2 3.5-.5 5.2-.8 3.6-11.3-2.5-25-2.5-25-1.1.1-2.9.3-5.2.6.5 1.3 5.8 13.5 2.5 25.2z"/><path d="M337.4 198.3l2.7 6.6c22.8-2.3 46 11.3 118.3.9 3.3-11.8-1.9-23.9-2.5-25.2-3.3.4-7.8 1.1-13.1 1.8-8.9 1.3-20 2.9-31.6 4.7 0 0 .2 8.2-10.1 9.2-10.4 1.1-11.4-6-11.4-6-27.6 4.1-52.3 8-52.3 8z" class="st209"/><path d="M409.6 183l11.4-18.6s27.9-8.5 28.8-2.9l-12.4 19.4-27.4 2.8c-.4 0-.6-.4-.4-.7zM351.2 192.4l-16.3 1.6-.5 3.7 16.1-1.7z" class="st211"/><path fill="#fff" d="M439.3 182.9c1.2-.2 2.4-.3 3.5-.5 5.2-.8 9.7-1.4 13.1-1.8 2.3-.3 4.1-.5 5.2-.6 0 0 3.5 7.9 3.7 16.6-.1-.1-4.3-14.4-25.5-13.7z" opacity=".17"/><path d="M425.8 198.1l1.5-.7-3-29.5-1.6.1z" class="st69"/><path d="M340.1 204.8l-.8-2c18.7-1.8 45.5 6.5 125.2-1.5-.2 1.2-.5 2.5-.8 3.7-1.8.3-3.5.5-5.2.8-72.4 10.4-95.6-3.3-118.4-1z" opacity=".32"/><path d="M441.4 195.4l1.6.1-3-29.2-1.5.1z" class="st69"/><path d="M442.8 201.7h1.5v13.9h-1.5z" class="st69" transform="rotate(174.211 443.528 208.657)"/><path d="M441.3 216.2l1.3-.8-7-12.9-1.5.1zM417.7 186.2l1.3-.2-.5-4.9-1.3.1zM434 183.8l1.3-.2-.5-4.9-1.3.1z" class="st69"/><circle cx="444.3" cy="220.9" r="5.9" fill="#1f1f1f"/><circle cx="444.3" cy="220.9" r="4.2" fill="gray"/><path d="M464.1 190.3s4.1-.9 4.5 2.3c.3 3.2-3.8 2.7-3.8 2.7l-.7-5z" class="st215"/><path d="M466.5 192.5s.8-22.7-2.3-22.4c-3.1.4 2.3 22.4 2.3 22.4zM466.5 192.7s5.3 22.1 2.3 22.4c-3.1.2-2.3-22.4-2.3-22.4z" class="st215"/><path d="M417.9 204.3l4.4-5.9s29-5.8 26.7-1.7l-4 4.8-27.1 2.8z" class="st211"/><path d="M422.2 198.3s29-5.8 26.7-1.7l-.3.4c-1-1.9-26.4 1.3-26.4 1.3zM449.8 161.5l-.7 1.1c-.2-3.5-28.1 1.8-28.1 1.8s27.9-8.4 28.8-2.9z" class="st216"/><path d="M411.2 187s2.4 9.1-8.7 10.2c-13.1 1.3-12.8-6.9-12.8-6.9s1.5 8.2 13.6 5.6c8.1-1.8 7.9-8.9 7.9-8.9z" class="st69"/><path fill="#999" d="M441.1 218.3s2.2.2 4 1.7c1.8 1.4 2.5 3.6 2.5 3.6 1.4-1.8 1.2-4.4-.6-5.8s-4.4-1.3-5.9.5z"/></g><path d="M407.1 190.8s1.5-1.9 1.7-.8-.4 3.1-1.7 3.1 0-2.3 0-2.3z" class="st218"/><g class="st20"><path d="M390.9 183.9s-.1 2.1.8 3.4c.6.9-.4 1.7-.4 1.7l.2.2s1.3-.7.8-1.6.2-2.2.2-2.2l-1.6-1.5z" class="st219"/><path fill="#d19971" d="M390.8 183.8s.9 5.7 3.8 4.9.4-6.1.4-6.1l-4.2 1.2z"/><path d="M394.9 183.7s.5 0 .8.9c.2.7.4 2.4.4 2.4l.4-.1s-.2-2.5-1.2-3.9l-.4.7z" class="st219"/><path d="M391.1 184.9s2.5-1.4 4.6-1.2c0 0-.8-2.3-3-1.6-2.7.7-1.6 2.8-1.6 2.8z" class="st219"/><path d="M391.7 186.7s-.7-1.6-.3-2.1h-.4v.4l.5 1.7h.2z" class="st219"/><path fill="#695a3c" d="M391.2 185.7c-.1-.3.8-.9 2.1-1.3 1.2-.4 2.3-.4 2.5-.1.1.4-.1.8-.5 1s-.9.3-1.2.3c-.3-.1-.6.1-.8.3-.2.2-.7.4-1.1.4-.4 0-.9-.3-1-.6z"/><path fill="#73959c" d="M391.5 185.7c-.1-.3.8-.8 1.9-1.1s2.1-.4 2.2-.1c.1.3-.1.7-.4.9s-.8.3-1 .2-.6.1-.7.2c-.2.2-.6.3-1 .4-.6-.1-.9-.3-1-.5z"/></g><path d="M397.2 177.4s-.2-2.6-1.4-2.7c-1.2-.1.2 3 .2 3l1.2-.3z" class="st218"/><path d="M393.9 188.8c2-.9 2.5-3.5 3.1-5.8l-1.1-5.3 1.2-.5s2.1 4.8 2.1 5.9c0 1.9-1.7 7.6-1.7 7.6l-3.6-1.9z" class="st207"/><path d="M396 177.7s-1.5-1.1-.9-1.5.9 1.5.9 1.5z" class="st218"/><g><defs><path id="SVGID_17_" d="M0 0h524.5v295H0z"/></defs><clipPath id="SVGID_6_"><use overflow="visible" xlink:href="#SVGID_17_"/></clipPath><path fill="#fff" d="M-524.1-.1h1573.8v885.3H-524.1z" clip-path="url(#SVGID_6_)"/><path fill="#bdefef" d="M-443.1 433.5c93.7 0 142.2-206.2 287.8-225.1C-44.4 194-.3 256.5 53.1 256.5c75.2 0 171.4-76.5 298.9-9.7 81.4 42.6 158.3 90.3 217 96.3 58.7 6 191-26 259.1.6C1016.3 417.4 974 668 974 668H-452l8.9-234.5z" clip-path="url(#SVGID_6_)"/><path fill="#e2efef" d="M-69.7 257c.6-3.2 3.5-5.8 7.1-6.1 1.2-.1 1.8-.4 2.4-1.5 1.1-2.2 3-3.8 5.4-4.7.9-.3 1.1-.8 1.1-1.7-.1-5.4 3.2-8.8 8.6-9.2.7-.1 1.5-.8 2-1.4 5.5-8 15.6-10.9 24-6.4 2.4 1.3 4.4 3.4 6.3 5.3.7.7 1.3 1.2 2.4 1.2 2.6-.1 5.1.6 7.1 2.2.7.6 1.3.6 2.1.1.6-.4 1.4-.7 2-.6 2 .4 3.8-.5 5.6-1 8.3-2.3 16.8 1 21.5 8.3.6.9 1.1 1.2 2.2 1.1 4.3-.3 7.8 1.3 10.5 4.7.3.4 1.1.6 1.6.5 3.9-.6 6.9.7 9.1 3.9.4.5 1.2.9 1.9 1 2.4.4 4.1 2 4.3 4.4-42.5-.1-84.8-.1-127.2-.1zM-28.8 207.7l418.2-10.2 209.7 10.2-418.8 9.4z" clip-path="url(#SVGID_6_)"/><path fill="#fff" d="M929.9 158.1l-581.5 17.2 580.3 17.1z" clip-path="url(#SVGID_6_)" opacity=".45"/><path fill="#b3b3b3" d="M-122.6 409.6h501.9s-212.6-158-233.5-158c-8.5 0-34 12.5-61.1 27.3l-207.3 130.7z" clip-path="url(#SVGID_6_)"/><path fill="#999" d="M188.5 294.7l15.7 34.3 11.2 36.2s8.4-6.7 8.4-7.7-10.3-13.4-10.3-13.4l-7.3-20.4-17.7-29zM141.5 292l-7 44.2 23.7 4.1-17.9 7.1 6.1 26.3-1.8-23.4 22.6-9.7-2.2-4.4-26.7-3.4z" clip-path="url(#SVGID_6_)"/><path fill="#e6e6e6" d="M238.6 308.3c-44.4-30.8-84.2-56.7-92.7-56.7s-34 12.5-61.1 27.3l-38.4 24.2 49.8 2.1-7.4-5.8 23.2-7.2 3.7 38.3 14.7-21.2 9.8 17.5 22.6 8.3-6.8-32.3 15.1-2.1 14.9 23.4-3.6-36.4 25.9 47.4 15.1-8.3-18.4-24 34.6 6.5-1-1z" clip-path="url(#SVGID_6_)"/><path fill="#999" d="M110.4 293.4L95 313.2l2.6 5-14.5 29.5 6.7 5.8 14.2-35.7-3.9-5.4z" clip-path="url(#SVGID_6_)"/><path fill="#e2efef" d="M-277.9 157.6L123.8 168-407 187z" clip-path="url(#SVGID_6_)"/><path fill="#23b347" d="M975 526.4c-114.2 0-201.1 9.5-250.8-9.7-120.5-46.4-109.7-187-335.6-187-112.5 0-152 34.6-242.8 34.6-50.5 0-110.5-99.8-217.5-99.8-198.1 0-192.8 154.3-355.8 168.3-13.8 1.2-24.5 12.8-24.5 26.6 0 49.5-2.6 98.6-5 143.6-4.4 82.4-6.4 149.9 21.7 172 38.4 17.2 180.1-25.9 305.9.4 182.3 38.2 240.5 16.6 427.6 6.4 112.3-6.1 275.8-9.3 330.2-8.7 161.5 1.7 308.4 26.6 335.1 1.9 25.8-23.9 24.6-148.9 11.5-248.6z" clip-path="url(#SVGID_6_)"/><g class="st298"><path d="M245.2 270.2c-3.2 2.6-10 4-12.7.9s-.1-9.7 3.1-12.3c3.2-2.6 7.9-2.2 10.5.9 2.7 3.2 2.2 7.9-.9 10.5z" class="st23"/><path d="M232.9 270.8l-2 .3 1.4 1.6zM245.2 270.2c2.9-2.4 3.5-6.5 1.6-9.6 0 0 3.6 10.8-11.9 12 3.1 1 7.8-.3 10.3-2.4z" class="st24"/><path d="M237.3 260.5c-2 1.4-3.1 3.3-3.6 2.6s.7-2.5 2.7-3.9 4-2 4.5-1.3-1.7 1.2-3.6 2.6z" class="st25"/><path d="M262.5 264.6c-1.7 2.1-6.1 3.8-8.2 2.1-2.1-1.7-1.2-6.3.5-8.4 1.7-2.1 4.9-2.4 7-.6 2.1 1.7 2.4 4.8.7 6.9z" class="st26"/><path d="M254.5 266.4l-1.3.5 1.1.9zM262.5 264.6c1.6-1.9 1.5-4.7-.1-6.5 0 0 3.6 6.6-6.4 9.2 2.2.4 5.1-1.1 6.5-2.7z" class="st27"/><path d="M257.4 258.4c-1.2.6-2 1.6-2.2 1s.5-1.4 1.8-2c1.2-.6 2.4-.6 2.7-.1s-1.1.5-2.3 1.1z" class="st28"/><path d="M251 288.6c-2.6 2.2-8.2 3.3-10.3.7-2.2-2.6-.1-7.9 2.5-10.1 2.6-2.2 6.4-1.8 8.6.8 2.1 2.6 1.8 6.4-.8 8.6z" class="st29"/><path d="M241 289l-1.6.3 1.1 1.3z" class="st30"/><path d="M251 288.6c2.3-2 2.8-5.3 1.3-7.9 0 0 2.9 8.8-9.7 9.8 2.6.8 6.4-.3 8.4-1.9z" class="st31"/><path d="M244.6 280.3c-1.4.9-2.1 2.1-2.5 1.6s.5-1.6 1.9-2.5c1.4-.9 2.7-1.2 3-.7.4.5-1 .7-2.4 1.6z" class="st32"/><path d="M233.4 287.7c-2.1 1.4-6.3 1.7-7.7-.3-1.4-2.1.6-5.8 2.7-7.2 2.1-1.4 4.9-.8 6.3 1.3 1.4 2 .8 4.8-1.3 6.2z" class="st33"/><path d="M226 287.2h-1.2l.7 1.1zM233.4 287.7c1.9-1.3 2.5-3.7 1.6-5.7 0 0 1.4 6.7-8 6.4 1.9.8 4.8.3 6.4-.7z" class="st34"/><path d="M230.3 280.8c-1.1.2-1.9.8-2 .4-.1-.5.7-1 1.8-1.2 1.1-.2 2.1 0 2.1.5.2.4-.8.1-1.9.3z" class="st35"/><path d="M293.6 291.8c-1.7 2-5.9 3.7-7.9 2s-1.1-6.1.6-8.2 4.7-2.3 6.8-.6 2.2 4.8.5 6.8z" class="st29"/><path d="M285.9 293.5l-1.3.4 1.1.9zM293.6 291.8c1.5-1.9 1.5-4.5-.1-6.3 0 0 3.5 6.5-6.2 8.9 2.1.3 5-1 6.3-2.6z" class="st31"/><path d="M287.5 286c-.9.8-1.3 1.8-1.6 1.5-.3-.3.2-1.2 1-2.1s1.8-1.2 2.1-.9c.4.4-.7.7-1.5 1.5z" class="st32"/><path d="M321.1 294.9c-1.8 1.1-5.4 1.2-6.4-.6-1.1-1.8.8-4.9 2.6-5.9 1.8-1.1 4.1-.5 5.2 1.3 1 1.8.4 4.1-1.4 5.2z" class="st23"/><path d="M314.9 294.1h-1.1l.6.9zM321.1 294.9c1.6-1 2.3-3 1.6-4.7 0 0 .9 5.7-7 5 1.5.7 4 .5 5.4-.3z" class="st24"/><path d="M317 289.7c-.8.7-1.2 1.6-1.5 1.3-.3-.3.2-1.1 1-1.9.8-.7 1.7-1.1 2-.8.3.4-.6.7-1.5 1.4z" class="st25"/><path d="M308.5 288.8c-1.3 1.2-4.2 2-5.5.7-1.2-1.3-.3-4.2 1-5.4s3.4-1.2 4.6.1c1.3 1.3 1.2 3.4-.1 4.6z" class="st29"/><path d="M303.2 289.4l-.9.2.7.7zM308.5 288.8c1.2-1.1 1.3-2.9.4-4.2 0 0 1.9 4.6-4.8 5.6 1.4.3 3.4-.4 4.4-1.4z" class="st31"/><path d="M304.6 284.9c-.7.6-1 1.4-1.3 1.2-.2-.3.1-1 .8-1.6.7-.6 1.5-1 1.7-.7.3.2-.5.5-1.2 1.1z" class="st32"/><path d="M352.2 273.8c-1.4 1.7-5 3.2-6.7 1.8s-1-5.2.4-6.9 4-2 5.7-.6c1.7 1.4 2 4 .6 5.7z" class="st29"/><path d="M345.6 275.4l-1 .3.9.8z" class="st30"/><path d="M352.2 273.8c1.3-1.6 1.2-3.9-.1-5.3 0 0 3 5.4-5.2 7.6 1.8.2 4.2-.9 5.3-2.3z" class="st31"/><path d="M347.6 268.8c-1 .6-1.6 1.5-1.8 1-.3-.4.4-1.3 1.4-1.8 1-.6 2-.7 2.3-.2.2.4-.8.5-1.9 1z" class="st32"/><path d="M259.4 279.6l-1.3.2.9 1z" class="st31"/><path d="M267 278.8c-1.9 1.8-6.1 2.9-7.8 1-1.8-1.9-.4-6 1.5-7.8 1.9-1.8 4.8-1.7 6.6.2s1.5 4.9-.3 6.6z" class="st29"/><path d="M267 278.8c1.7-1.6 1.9-4.2.6-6 0 0 2.6 6.6-7 7.9 2 .4 4.9-.5 6.4-1.9z" class="st31"/><path d="M262.3 272.8c-1.2.7-1.9 1.7-2.2 1.2-.3-.5.5-1.4 1.7-2.1 1.2-.7 2.4-.8 2.6-.4.4.6-.9.7-2.1 1.3z" class="st32"/><path d="M302.9 303.8c-2.1 2.5-7.4 4.5-9.9 2.4s-1.3-7.6.8-10.2 5.9-2.8 8.4-.7c2.5 2.2 2.8 6 .7 8.5z" class="st33"/><path d="M296 296.1c-1.3.7-2.1 1.9-2.4 1.4-.3-.5.5-1.6 1.9-2.3 1.3-.7 2.6-.9 2.9-.4.3.5-1 .6-2.4 1.3z" class="st35"/><path d="M342.8 291.2c-1.4 1.8-4.9 3.3-6.7 1.9-1.8-1.4-1.1-5.2.3-6.9 1.4-1.8 4-2.1 5.7-.7 1.8 1.4 2.1 3.9.7 5.7z" class="st26"/><path d="M336.3 292.8l-1 .4.9.8z" class="st27"/><path d="M338.2 286.5c-1.1.6-1.7 1.6-2 1.1-.3-.5.4-1.4 1.5-2s2.2-.7 2.5-.3c.2.5-.9.6-2 1.2z" class="st28"/><path d="M337.4 293.6c7.6-1.5 5.3-7.6 5.3-7.6s2.2 2.4.1 5.2c-2 2.8-5.4 2.4-5.4 2.4z" class="st27"/><path d="M333.4 282.2c-2.6 2.2-8.3 3.3-10.5.7s-.1-8 2.5-10.2c2.6-2.2 6.5-1.8 8.7.8s1.9 6.5-.7 8.7z" class="st23"/><path d="M323.3 282.7l-1.7.2 1.1 1.4zM333.4 282.2c2.4-2 2.9-5.4 1.3-8 0 0 3 9-9.8 9.9 2.6.9 6.5-.2 8.5-1.9z" class="st24"/><path d="M326.8 274.2c-1.6 1.2-2.5 2.7-3 2.2-.4-.6.6-2 2.2-3.2s3.3-1.7 3.8-1.1c.4.5-1.3.9-3 2.1z" class="st25"/><path d="M282.3 268.3c-2.7 2.2-8.4 3.4-10.7.7s-.1-8.1 2.6-10.4c2.7-2.2 6.6-1.9 8.8.8s2 6.7-.7 8.9z" class="st26"/><path d="M272 268.8l-1.7.2 1.1 1.4zM282.3 268.3c2.4-2 2.9-5.5 1.3-8.1 0 0 3 9.1-10 10.1 2.7.9 6.6-.2 8.7-2z" class="st27"/><path d="M275.7 259.8c-1.4.9-2.2 2.1-2.5 1.6-.3-.5.5-1.7 1.9-2.6s2.8-1.2 3.1-.7c.4.6-1.1.8-2.5 1.7z" class="st28"/><path d="M299.6 280.4c-1.8 1.7-5.9 2.9-7.7 1-1.7-1.8-.4-5.9 1.4-7.6 1.8-1.7 4.7-1.7 6.4.1s1.8 4.8-.1 6.5z" class="st33"/><path d="M292.2 281.3l-1.2.2.9 1zM299.6 280.4c1.7-1.6 1.8-4.1.6-5.9 0 0 2.6 6.4-6.8 7.8 2 .5 4.8-.5 6.2-1.9z" class="st34"/><path d="M295 274.5c-1.1.6-1.7 1.6-2 1.1-.3-.5.4-1.4 1.5-2s2.2-.7 2.5-.3c.2.6-.9.6-2 1.2z" class="st35"/><path d="M274.1 297.9c-1.6 1.9-5.6 3.4-7.5 1.8-1.9-1.6-1-5.8.6-7.7 1.6-1.9 4.5-2.1 6.4-.5 1.9 1.7 2.1 4.5.5 6.4z" class="st26"/><path d="M274.1 297.9c1.5-1.7 1.4-4.2 0-5.9 0 0 3.2 6.1-5.9 8.3 1.9.3 4.6-.9 5.9-2.4z" class="st27"/><path d="M269.2 292.4c-1.2.7-1.9 1.8-2.2 1.3-.3-.5.5-1.5 1.7-2.2 1.2-.7 2.5-.8 2.8-.3.2.5-1.1.5-2.3 1.2z" class="st28"/><path d="M334.6 264.5c-2.4 2-7.7 3.1-9.8.7s-.1-7.5 2.4-9.5c2.4-2 6.1-1.7 8.1.7 2.1 2.4 1.8 6.1-.7 8.1z" class="st33"/><path d="M325.2 265l-1.6.2 1.1 1.3zM334.6 264.5c2.2-1.9 2.7-5 1.2-7.4 0 0 2.8 8.4-9.2 9.3 2.5.7 6.2-.3 8-1.9z" class="st34"/><path d="M328.6 257c-1.4 1-2.1 2.3-2.4 1.8-.4-.5.5-1.7 1.8-2.7s2.7-1.4 3.1-.9c.3.5-1.1.8-2.5 1.8z" class="st35"/><path d="M316 278.1c-1.4 1.3-4.4 2.1-5.7.8-1.3-1.4-.3-4.4 1-5.7 1.4-1.3 3.5-1.3 4.8.1 1.3 1.4 1.3 3.5-.1 4.8z" class="st26"/><path d="M310.4 278.8l-.9.1.7.8zM316 278.1c1.2-1.2 1.4-3.1.4-4.4 0 0 2 4.8-5.1 5.8 1.6.4 3.7-.4 4.7-1.4z" class="st27"/><path d="M312.5 273.7c-.8.5-1.3 1.2-1.5.8s.3-1 1.1-1.5 1.6-.6 1.8-.2-.5.4-1.4.9z" class="st28"/><path d="M297.2 268.2c-2.2 1.8-6.9 2.8-8.8.6s-.1-6.7 2.1-8.5 5.4-1.5 7.3.6 1.6 5.5-.6 7.3z" class="st33"/><path d="M288.7 268.6l-1.4.2 1 1.1z" class="st36"/><path d="M297.2 268.2c2-1.7 2.4-4.5 1.1-6.7 0 0 2.5 7.5-8.2 8.3 2.2.7 5.4-.2 7.1-1.6z" class="st34"/><path d="M291.8 261.2c-1.1.7-1.8 1.8-2.1 1.3s.4-1.4 1.6-2.1c1.1-.7 2.3-1 2.6-.6s-1 .6-2.1 1.4z" class="st35"/><path d="M283.1 282.9c-2.1 2.5-7.4 4.5-9.9 2.4s-1.3-7.6.8-10.2c2.1-2.5 5.9-2.8 8.4-.7 2.5 2.2 2.8 6 .7 8.5z" class="st23"/><path d="M273.4 284.9l-1.5.5 1.3 1.2zM283.1 282.9c2-2.3 1.9-5.6 0-7.8 0 0 4.3 8.1-7.8 11.1 2.5.3 6.1-1.4 7.8-3.3z" class="st24"/><path d="M276.2 275.2c-1.3.7-2.1 1.9-2.4 1.4-.3-.5.5-1.6 1.9-2.3 1.3-.7 2.6-.9 2.9-.4s-1.1.6-2.4 1.3z" class="st25"/><path d="M317 265.2c-3.5 2.9-11 4.4-13.9 1s-.1-10.6 3.4-13.5c3.5-2.9 8.6-2.5 11.5 1 2.9 3.5 2.5 8.6-1 11.5z" class="st26"/><path d="M303.5 265.8l-2.2.3 1.5 1.9zM317 265.2c3.2-2.6 3.8-7.2 1.7-10.6 0 0 3.9 11.9-13.1 13.1 3.6 1.2 8.7-.2 11.4-2.5z" class="st27"/><path d="M308.4 254.1c-1.8 1.2-2.9 2.8-3.3 2.1-.4-.7.7-2.2 2.5-3.3s3.6-1.6 4.1-.9c.4.7-1.5.9-3.3 2.1z" class="st28"/><path d="M260 305.9c-3 2.5-9.4 3.8-11.9.8s-.1-9.1 2.9-11.5a7 7 0 019.9.9c2.5 2.9 2.1 7.3-.9 9.8z" class="st33"/><path d="M252.6 296.8c-1.9 1.4-2.9 3.1-3.4 2.4s.6-2.3 2.5-3.7c1.9-1.4 3.8-1.9 4.3-1.2s-1.5 1.1-3.4 2.5z" class="st35"/></g><path fill="#25bf4c" d="M929.8 532.5c-53.1 2.9-223.8 46.6-280.8-2.2-36.7-31.5-59.7-70.9-81.9-92.4-66.9-64.4-290.3-130.3-408.7-15.7-30.2 29.2-50.1 61.8-30.5 98.9 2.5 4.6 5.8 8.9 9.8 12.7 27.7-.8 84.7-9.6 97.2-35.6l54 7.8c-18.8 25.6-61.8 45.5-99.2 55.9 42.8 15.8 90.4 26.6 90.4 55.4 0 39.5-331 46.4-339.2-29.5C-64 543.6 29.1 481.6 42.7 465c43.6-53.2 51.4-94.8 3.6-144.3-47.8-49.4-122.4-65.7-188.1-45.4-145.1 44.9-143.2 146.9-92.7 218.5 7 9.9 9.9 23.7 4.6 34.7-8.4 17.3-31.9 18.9-51.1 18.1-42.4-1.8-130.2-6-172.6-7.8l-6.4 119.8c57.8-5.8 272.9-16.3 327.6 30.5 48.4 41.4 162.3 62.8 258.1 62.3 150.5 3.3 274.5-90 267-163.5-14-138.4-255.1-75.9-155.8-146.4 65-46.1 189.4-19.3 245.3 14 11.7 7 23.2 15.1 31 26.3 7.8 11.2 11.4 26.1 6.4 38.8-5.6 14.1-20 22.4-33.9 28.6-13.8 6-28.4 10.7-43.3 14.2-20.4 4.8-22.4 33.1-2.8 40.5.2.1.3.1.5.2 15.3 5.6 32.1 5 48.1 2.8 16.1-2.2 32-6 48.2-6.5 36.6-1.2 73.4 9.5 106.1 26 120.4 60.6 229.4-20.2 287.5-71l-.2-22.9z" clip-path="url(#SVGID_6_)"/><path fill="#876f2d" d="M268.9 523.3c2.5.3 5 .7 7.6 1 4.2.5 8.5 1.1 12.8 1.7 30.2 4.2 61.5 11.2 77.9 37.2 9.9 15.7 11.2 34.8 3.8 55.3-13 36.3-50.5 69.4-95.6 84.3-52.9 17.5-110.9 26.8-167.6 26.8-47 0-90.8-6.3-129.9-18.8-50.4-16.1-107.4-53.1-116.5-108.7-4.7-28.7 11.4-60.3 46.5-91.4 11.8-10.5 24.6-20 37-29.2 14.5-10.8 29.5-22 42.8-34.6 32-30.5 45.3-69.3 33.8-98.9-11.3-29.2-45.6-45.8-96.5-46.9-2 0-4-.1-6-.1-76.3 0-106.7 29.1-118.6 53.6-16.4 33.4-5.5 72.3 11.6 94.4 20.5 26.4 31.3 51 32.3 72.9.8 19.1-5.8 37-19.6 53.1-24.6 28.5-73.7 32.2-113.7 32.2-70.1 0-158.9-3.8-159.4-3.9l-8.6-.3 2.3-54.3 7.3.8c.4.1 85.1 7.8 162.2 7.8 59.5 0 77.1-13.9 81.4-25.5 6.3-17.2-7.6-40.3-22.3-64.9-17.4-29.1-35.4-59.2-25.1-86.6 13-34.3 36.7-62.1 68.6-80.4 28.1-16.1 61.6-24.6 96.8-24.6 60.2 0 112.4 25 129.9 62.2 21.8 46.5 17.5 65.9-7.7 104.4-11.7 18-32.8 35.5-55.1 54.1-34 28.7-69.3 58-73.3 90.8-2.1 17.6 8.9 32.9 32.6 45.4 23.6 12.4 54 18.9 70 21.7 47.9 8.3 89.3 12.3 126.8 12.3 45.1 0 84.8-5.7 121.3-17.3 54.1-17.3 80-38.7 73.7-61.7-8.6-31.5-67-34-68.8-34.3l5.3-29.6z" clip-path="url(#SVGID_6_)"/><path fill="#d4af4e" d="M265.6 549.2c26.5 3 64 11.1 70.6 37.1 9.3 36.6-50.4 58-76.3 66.3C180 678.1 92.6 672 10 657.7c-43.4-7.5-111.1-27.6-105.8-71.4C-89 530.2 4 485 33.3 440.1 58 402.2 61.7 384 40.7 339.4c-37.6-80-236.9-93.1-288.2 42.5-18.4 48.7 62 111.5 47.4 151.4-10.1 27.4-67.3 28-85 28-78.4 0-169.7-8.9-169.7-8.9l-1.9 45.6s97 5.3 167.8 5.3c37.1 0 86.6-2.8 110.8-30.8 24.2-28.1 29.9-66-12.8-121.2-39.3-50.8-33.1-157 116.1-154.1 125.3 2.5 125.3 95.3 65.3 152.4-24.7 23.5-54.4 41.2-79.9 63.9s-50.7 54.2-45.2 87.9c9.1 56.3 69.1 91.4 113.9 105.7 91.6 29.2 203.9 22.2 295.1-8 71.8-23.8 116.6-91.2 89.7-133.9-16-25.4-55.8-34.3-86.4-38.4l-12.1 22.4z" clip-path="url(#SVGID_6_)"/><path fill="#f2f2f2" d="M84.7 278.9L57.6 296l24.2 5.5-.6-4.7 37.3-12.4.3 25.4 15.4-11.3 18.3 26.5-4-30.6 16.5-1.1-2.6-12.1 6.1-1.9s8.7 23.8 8.7 22.1v-19.6l10.3 4.2 12.2 23.7-5.5-19.9 36.1 13.4-1.4-1.8c-40.4-27.8-75.2-50-83.1-50-8.5.2-33.9 12.7-61.1 27.5z" clip-path="url(#SVGID_6_)"/><g class="st298"><defs><path id="SVGID_19_" d="M975 526.4c-114.2 0-201.1 9.5-250.8-9.7-120.5-46.4-109.7-187-335.6-187-112.5 0-152 34.6-242.8 34.6-50.5 0-110.5-99.8-217.5-99.8-198.1 0-192.8 154.3-355.8 168.3-13.8 1.2-24.5 12.8-24.5 26.6 0 49.7-3.5 97.2-5 143.6-2.7 82.2-6.3 150 21.7 172 38.4 17.2 180.1-25.9 305.9.4 182.3 38.2 240.5 16.6 427.6 6.4 112.3-6.1 275.8-9.3 330.2-8.7 161.5 1.7 308.4 26.6 335.1 1.9 25.8-23.9 24.6-148.9 11.5-248.6z"/></defs><clipPath id="SVGID_8_"><use overflow="visible" xlink:href="#SVGID_19_"/></clipPath></g><path fill="none" stroke="#534741" stroke-miterlimit="10" stroke-width="1.06" d="M468.3 168.7l73.8 16.2-74.5 30" clip-path="url(#SVGID_6_)"/><path fill="#ff882a" d="M474.2 166.6s-68.4-13.9-234.1-1c-95.7 7.4-229.4-1.8-229.4-1.8l31.6 28-29.9 27.8s95.1 11.5 222.3 2.2c127.9-9.3 239.5-1.6 239.5-1.6v-53.6z" clip-path="url(#SVGID_6_)"/><g class="st298"><path d="M169.3 173.8c.8 0 1.2 0 2-.1-.1 6-.2 9-.3 15.1-.8 0-1.2 0-2 .1.1-4.6.1-7 .2-11.6-3.1 4.7-4.6 7.1-7.7 11.8h-2c.1-6 .2-9 .3-15.1h2c-.1 4.6-.1 7-.2 11.6 3.1-4.7 4.7-7.1 7.7-11.8zM183.5 188.4c-.8 0-1.1 0-1.9.1 0-1.9.1-2.9.1-4.8-2.1.1-3.1.1-5.1.2 0 1.9-.1 2.9-.1 4.8-.8 0-1.2 0-1.9.1.1-4.5.1-6.7.2-11.2.8 0 1.2 0 1.9-.1 0 1.9-.1 2.9-.1 4.9 2.1-.1 3.1-.1 5.1-.2 0-1.9.1-2.9.1-4.9.8 0 1.1 0 1.9-.1-.1 4.5-.1 6.8-.2 11.2zM195.1 178.4c-1.5.1-2.3.1-3.8.1-.1 3.9-.1 5.8-.2 9.6-.8 0-1.1 0-1.9.1.1-3.9.1-5.8.2-9.6-1.5 0-2.2.1-3.7.1v-1.6c3.7-.1 5.6-.2 9.4-.3v1.6zM200.6 188.1c-1.5.1-2.7-.4-3.7-1.4-.9-1-1.4-2.3-1.3-4v-.4c0-1.1.3-2.1.7-3 .4-.9 1.1-1.6 1.8-2.1.8-.5 1.6-.8 2.5-.8 1.5-.1 2.6.4 3.4 1.3.8.9 1.2 2.3 1.1 4.1v.8c-3 .1-4.6.2-7.6.3 0 1.1.3 2 .9 2.6.6.7 1.4 1 2.3.9.7 0 1.3-.2 1.7-.5.5-.3.9-.7 1.3-1.1.5.3.7.5 1.2.9-1 1.6-2.4 2.3-4.3 2.4zm-.1-10c-.8 0-1.4.3-2 .9-.5.6-.9 1.4-1 2.4 2.2-.1 3.4-.1 5.6-.2v-.1c0-1-.3-1.7-.7-2.2-.4-.6-1.1-.9-1.9-.8zM216.7 181.8c0 1.7-.5 3.1-1.3 4.2s-1.9 1.6-3.2 1.7c-1.4 0-2.4-.3-3.2-1.2 0 2.2-.1 3.2-.1 5.4-.8 0-1.1 0-1.9.1.1-6.2.2-9.3.3-15.5.7 0 1.1 0 1.8-.1 0 .5 0 .7.1 1.2.8-1 1.9-1.5 3.3-1.6 1.3 0 2.4.4 3.2 1.4.8 1 1.1 2.4 1.1 4.2 0 .1-.1.2-.1.2zm-1.9-.1c0-1.3-.2-2.2-.7-3-.5-.7-1.3-1-2.2-1-1.2 0-2 .6-2.6 1.6 0 2.1-.1 3.2-.1 5.3.6 1 1.4 1.5 2.6 1.4.9 0 1.7-.4 2.2-1.2.5-.6.8-1.7.8-3.1zM226 186.9c-.1-.2-.2-.6-.2-1.2-.9 1-2 1.5-3.2 1.5-1.1 0-2-.2-2.7-.8-.7-.6-1-1.4-1-2.3 0-1.2.5-2.1 1.4-2.8.9-.7 2.2-1 3.8-1.1.7 0 1.1 0 1.9-.1v-.9c0-.7-.2-1.2-.6-1.6-.4-.4-1-.6-1.8-.5-.7 0-1.3.2-1.7.6-.5.4-.7.8-.7 1.3-.8 0-1.2 0-1.9.1 0-.6.2-1.1.6-1.6.4-.5 1-1 1.6-1.3.7-.3 1.4-.5 2.3-.5 1.3 0 2.3.2 3 .9.7.6 1.1 1.5 1.1 2.6 0 2.1-.1 3.1-.1 5.2 0 1 .1 1.8.3 2.4v.2c-.9-.1-1.3-.1-2.1-.1zm-3.2-1.3c.6 0 1.2-.2 1.7-.5s.9-.8 1.2-1.3v-2.3c-.6 0-.9 0-1.5.1-2.3.1-3.5.8-3.6 2.2 0 .6.2 1.1.6 1.4.5.3 1 .4 1.6.4zM239 176.8c-1.5.1-2.3.1-3.8.1-.1 3.9-.1 5.8-.2 9.6-.8 0-1.1 0-1.9.1.1-3.9.1-5.8.2-9.6-1.5.1-2.2.1-3.7.1v-1.6c3.7-.1 5.6-.2 9.4-.4v1.7zM248.1 174.9c.8 0 1.1 0 1.9-.1-.1 4.5-.1 6.7-.2 11.2-.8 0-1.2 0-1.9.1.1-3.3.1-4.9.2-8.2-2.1 3.3-3.2 5-5.3 8.4-.8 0-1.1 0-1.9.1.1-4.5.1-6.7.2-11.2.8 0 1.1 0 1.9-.1-.1 3.3-.1 4.9-.2 8.2 2.1-3.4 3.2-5.1 5.3-8.4zM253.1 185.9c.1-4.5.1-6.7.2-11.2 1.7-.1 2.6-.1 4.4-.2 1.5-.1 2.6.2 3.4.6.8.5 1.2 1.2 1.1 2.2 0 .5-.2 1-.5 1.4-.3.4-.8.8-1.4 1 .7.1 1.2.4 1.6.9.4.4.6 1 .6 1.6 0 1-.4 1.8-1.2 2.4-.8.6-1.8.9-3.2.9-2 .3-3 .3-5 .4zm2-6.5c1 0 1.5-.1 2.5-.1 1.8-.1 2.7-.6 2.7-1.7 0-1-.8-1.6-2.5-1.5-1 0-1.6.1-2.6.1 0 1.2-.1 1.9-.1 3.2zm0 1.5c0 1.3 0 2-.1 3.4 1.3-.1 1.9-.1 3.2-.1.8 0 1.4-.2 1.8-.5.4-.3.6-.7.6-1.3 0-1.1-.8-1.6-2.4-1.6-1.3 0-1.9 0-3.1.1zM274.2 185c-.8 0-1.1 0-1.9.1 0-1.9.1-2.9.1-4.8-2.1.1-3.1.1-5.1.2 0 1.9-.1 2.9-.1 4.8-.8 0-1.2 0-1.9.1.1-4.5.1-6.7.2-11.2.8 0 1.2 0 1.9-.1 0 1.9-.1 2.9-.1 4.9 2.1-.1 3.1-.1 5.1-.2 0-1.9.1-2.9.1-4.9.8 0 1.1 0 1.9-.1-.1 4.5-.1 6.8-.2 11.2zM284.2 184.6c-.1-.2-.2-.6-.2-1.2-.9 1-2 1.5-3.2 1.5-1.1 0-2-.2-2.7-.8-.7-.6-1-1.4-1-2.3 0-1.2.5-2.1 1.4-2.8.9-.7 2.2-1.1 3.8-1.1.7 0 1.1 0 1.9-.1v-.9c0-.7-.2-1.2-.6-1.6-.4-.4-1-.6-1.8-.5-.7 0-1.3.2-1.7.6-.5.4-.7.8-.7 1.3-.8 0-1.2 0-1.9.1 0-.6.2-1.1.6-1.6.4-.5 1-1 1.6-1.3.7-.3 1.4-.5 2.3-.5 1.3-.1 2.3.2 3 .8.7.6 1.1 1.5 1.1 2.6 0 2.1-.1 3.1-.1 5.2 0 1 .1 1.8.3 2.4v.2h-2.1zm-3.2-1.3c.6 0 1.2-.2 1.7-.5s.9-.8 1.2-1.3v-2.3c-.6 0-.9 0-1.5.1-2.3.1-3.5.8-3.6 2.2 0 .6.2 1.1.6 1.4.5.3 1 .4 1.6.4zM297.6 172.9c-.1 4.5-.1 6.7-.2 11.2-.8 0-1.2 0-1.9.1 0-1.7.1-2.6.1-4.4-1.2 0-1.7.1-2.9.1-1.1 1.8-1.6 2.7-2.7 4.5-.8 0-1.2 0-2.1.1 1.2-1.9 1.7-2.9 2.9-4.8-.7-.2-1.3-.6-1.6-1.2-.4-.5-.6-1.2-.5-1.9 0-1 .4-1.9 1.2-2.5.8-.7 1.8-1 3.1-1.1 1.8 0 2.7 0 4.6-.1zm-7.1 3.7c0 .5.2 1 .5 1.3.4.3.9.5 1.5.5 1.2 0 1.8-.1 3-.1 0-1.5 0-2.2.1-3.7-1.1 0-1.7.1-2.8.1-.7 0-1.3.2-1.7.6-.4.3-.6.8-.6 1.3zM309.3 178.9c-.6 0-.8 0-1.4.1 0 1.9-.1 2.9-.1 4.8-.8 0-1.2 0-1.9.1.1-4.5.1-6.7.2-11.2.8 0 1.2 0 1.9-.1 0 1.9-.1 2.8-.1 4.7h1.3c1.5-2 2.3-2.9 3.9-4.9.9 0 1.4 0 2.3-.1l-4.5 5.5c1.9 2.3 2.8 3.4 4.7 5.6-1 0-1.5.1-2.4.1-1.7-1.8-2.4-2.7-3.9-4.6zM324.1 183.2c-.1-.2-.2-.6-.2-1.2-.9 1-2 1.5-3.2 1.5-1.1 0-2-.2-2.7-.8-.7-.6-1-1.4-1-2.3 0-1.2.5-2.1 1.4-2.8.9-.7 2.2-1 3.8-1.1.7 0 1.1 0 1.9-.1v-.9c0-.7-.2-1.2-.6-1.6-.4-.4-1-.6-1.8-.5-.7 0-1.3.2-1.7.6-.5.4-.7.8-.7 1.3-.8 0-1.2 0-1.9.1 0-.6.2-1.1.6-1.6.4-.5 1-1 1.6-1.3.7-.3 1.4-.5 2.3-.5 1.3 0 2.3.2 3 .9.7.6 1.1 1.5 1.1 2.6 0 2.1-.1 3.1-.1 5.2 0 1 .1 1.8.3 2.4v.2c-.9-.2-1.3-.2-2.1-.1zm-3.2-1.4c.6 0 1.2-.2 1.7-.5s.9-.7 1.2-1.3v-2.3c-.6 0-.9 0-1.5.1-2.3.1-3.5.8-3.6 2.2 0 .6.2 1.1.6 1.4.5.3 1 .4 1.6.4zM338.3 177.3c0 1.7-.5 3.1-1.3 4.2s-1.9 1.6-3.2 1.7c-1.4 0-2.4-.4-3.2-1.2 0 2.2-.1 3.2-.1 5.4-.8 0-1.1 0-1.9.1.1-6.2.2-9.3.3-15.5.7 0 1.1 0 1.8-.1 0 .5 0 .7.1 1.2.8-1 1.9-1.5 3.3-1.6 1.3 0 2.4.4 3.2 1.4.8 1 1.1 2.4 1.1 4.2-.1 0-.1.1-.1.2zm-2-.2c0-1.3-.2-2.3-.7-3-.5-.7-1.3-1.1-2.2-1-1.2 0-2 .6-2.6 1.6 0 2.1-.1 3.2-.1 5.3.6 1 1.4 1.5 2.6 1.4.9 0 1.7-.4 2.2-1.2.5-.6.8-1.7.8-3.1zM348.3 172.8c-1.5 0-2.3.1-3.8.1-.1 3.9-.1 5.8-.2 9.6-.8 0-1.1 0-1.9.1.1-3.9.1-5.8.2-9.6-1.5 0-2.2.1-3.7.1v-1.6c3.7-.1 5.6-.2 9.4-.3v1.6zM356.7 182.2c-.1-.2-.2-.6-.2-1.2-.9.9-2 1.4-3.2 1.5-1.1 0-2-.3-2.7-.9-.7-.6-1-1.4-1-2.3 0-1.2.5-2.1 1.4-2.8.9-.7 2.2-1 3.8-1.1h1.9v-.9c0-.7-.2-1.2-.6-1.6-.4-.4-1-.6-1.8-.5-.7 0-1.3.2-1.7.6-.5.4-.7.8-.7 1.3-.8 0-1.2 0-1.9.1 0-.6.2-1.1.6-1.6.4-.5 1-1 1.6-1.3.7-.3 1.4-.5 2.3-.5 1.3 0 2.3.3 3 .9.7.6 1.1 1.5 1.1 2.6 0 2.1-.1 3.1-.1 5.2 0 1 .1 1.8.3 2.4v.2c-.9-.1-1.3-.1-2.1-.1zm-3.1-1.4c.6 0 1.2-.2 1.7-.5s.9-.7 1.2-1.2v-2.3H355c-2.3.1-3.5.8-3.6 2.2 0 .6.2 1.1.6 1.4.4.3.9.5 1.6.4z" class="st69"/><path d="M73.4 207.6h-2.8c-.1 2.8-.1 4.2-.1 7.1-1.6 0-2.4 0-4-.1.1-7 .2-10.5.4-17.5 1.6 0 2.4 0 4 .1-.1 2.8-.1 4.3-.1 7.1h2.9c1.9-2.8 2.9-4.2 4.8-7 1.7 0 2.6 0 4.3.1-2.4 3.4-3.5 5-5.9 8.4 2.3 3.7 3.4 5.5 5.7 9.1-1.8 0-2.8 0-4.6-.1-2-2.9-2.9-4.4-4.6-7.2z" class="st75"/><path d="M95.9 211.1h-8.1c-.7 1.5-1 2.2-1.6 3.7H82c3.3-7 4.9-10.5 8.2-17.5h4l7.5 17.5h-4.3c-.6-1.4-.9-2.2-1.5-3.7zm-1.2-3.1c-1.1-2.7-1.6-4-2.6-6.7-1.2 2.7-1.8 4-2.9 6.7h5.5zM110.9 207.8h-2.8c-.1 2.8-.1 4.2-.1 7.1h-4c.1-7 .2-10.5.4-17.5h4c-.1 2.8-.1 4.3-.1 7.1h2.9c1.9-2.8 2.9-4.3 4.8-7.1h4.3c-2.4 3.4-3.5 5.1-5.9 8.5 2.3 3.6 3.4 5.4 5.7 9h-4.6c-1.9-2.9-2.8-4.3-4.6-7.1zM144.3 206.9c.6.7.8 1.6.8 2.6 0 1.6-.6 2.8-1.8 3.7-1.2.9-2.9 1.4-5.1 1.4-3.5.1-5.2.1-8.6.1.1-7 .2-10.5.4-17.5 3.3 0 4.9-.1 8.2-.1 2 0 3.6.3 4.7 1.1s1.7 1.9 1.6 3.3c0 .9-.3 1.6-.7 2.3-.4.7-1.1 1.2-1.9 1.6 1 .3 1.8.8 2.4 1.5zm-10.6-2.5c1.5 0 2.3 0 3.8-.1.9 0 1.6-.2 2-.6.5-.4.7-.9.7-1.6 0-.7-.2-1.2-.7-1.6-.5-.4-1.1-.5-2-.5-1.5 0-2.3 0-3.8.1.1 1.7.1 2.6 0 4.3zm7.2 4.9c0-1.5-.9-2.2-2.8-2.1-1.8 0-2.7 0-4.5.1 0 1.8-.1 2.7-.1 4.4 1.8 0 2.7 0 4.5-.1 1.9-.1 2.9-.8 2.9-2.3zM161.8 203.7c1.1.9 1.7 2.3 1.6 4.2 0 2-.7 3.5-2 4.6-1.3 1.1-3.1 1.6-5.4 1.7-3.2.1-4.8.1-7.9.2.1-7 .2-10.5.4-17.5 1.6 0 2.4 0 4-.1 0 2.3-.1 3.5-.1 5.8 1.8 0 2.7-.1 4.5-.1 2.1-.1 3.8.3 4.9 1.2zm-3.4 6.7c.6-.5.9-1.3.9-2.3 0-1.8-1.1-2.7-3.3-2.7-1.5 0-2.2 0-3.7.1 0 2.3-.1 3.5-.1 5.8 1.5 0 2.2 0 3.7-.1 1.1 0 1.9-.3 2.5-.8zm7.5-13.9c1.6 0 2.4-.1 4-.1-.1 7-.2 10.5-.4 17.5-1.6 0-2.4.1-4 .1.2-7 .2-10.5.4-17.5zM174.3 196.2c5.7-.2 8.5-.2 14.2-.4 0 1.3 0 1.9-.1 3.2-4.1.1-6.1.2-10.1.3 0 1.4 0 2.2-.1 3.6 1.9-.1 2.9-.1 4.9-.1 2.1-.1 3.7.3 4.8 1.2 1.1.9 1.6 2.1 1.6 3.8 0 1.8-.7 3.1-1.9 4.1-1.3 1-3 1.5-5.3 1.6-3.3.1-5 .2-8.3.2.1-7 .1-10.5.3-17.5zm7.8 14.3c1 0 1.8-.3 2.4-.7.6-.4.8-1 .9-1.8 0-1.5-1-2.3-3.2-2.2-1.6 0-2.4.1-4.1.1 0 1.9-.1 2.8-.1 4.7 1.7 0 2.5 0 4.1-.1zM204.4 196c1.1.5 2 1.2 2.6 2.1.6.9.9 2 .9 3.3 0 1.3-.4 2.4-1 3.4s-1.5 1.7-2.7 2.3c-1.2.5-2.5.9-4.1.9-1.4 0-2.1.1-3.5.1 0 1.9-.1 2.9-.1 4.8-1.6.1-2.4.1-4.1.1.1-7 .2-10.5.4-17.5 3-.1 4.6-.2 7.6-.3 1.5.1 2.9.4 4 .8zm-1.6 7.9c.6-.5 1-1.3 1-2.3 0-1-.3-1.7-.9-2.2-.6-.5-1.5-.7-2.8-.7-1.3 0-2 .1-3.3.1 0 2.4-.1 3.7-.1 6.1 1.3 0 2-.1 3.3-.1 1.2 0 2.1-.3 2.8-.9zM221.4 208.4c-3.3.1-4.9.2-8.1.3-.7 1.5-1 2.3-1.6 3.8-1.7.1-2.5.1-4.2.2 3.3-7.1 4.9-10.7 8.2-17.8 1.6-.1 2.4-.1 4-.1 3 6.9 4.5 10.3 7.5 17.2-1.7.1-2.6.1-4.3.2-.6-1.6-.9-2.3-1.5-3.8zm-1.2-3c-1.1-2.6-1.6-4-2.6-6.6-1.2 2.7-1.8 4.1-2.9 6.8 2.2-.1 3.3-.2 5.5-.2zM242.3 197.1c-2.2.1-3.4.1-5.6.2-.1 5.7-.2 8.5-.3 14.2-1.6.1-2.4.1-4 .2.1-5.7.2-8.5.3-14.2-2.2.1-3.4.1-5.6.2 0-1.3 0-2 .1-3.3 6.1-.2 9.1-.4 15.2-.6 0 1.3-.1 2-.1 3.3zM258.2 200.4c1.1.9 1.7 2.3 1.6 4.2 0 2-.7 3.5-2 4.6s-3.1 1.7-5.4 1.8c-3.2.1-4.8.2-7.9.3.1-7 .2-10.5.4-17.5 1.6-.1 2.4-.1 4-.2 0 2.3-.1 3.5-.1 5.8 1.8-.1 2.7-.1 4.5-.2 2.2-.2 3.8.3 4.9 1.2zm-3.4 6.7c.6-.5.9-1.3.9-2.3 0-1.8-1.1-2.7-3.3-2.6-1.5.1-2.2.1-3.7.1 0 2.3-.1 3.5-.1 5.8 1.5-.1 2.2-.1 3.7-.1 1.1-.1 1.9-.4 2.5-.9zM286.1 192.1c-.1 7-.2 10.5-.4 17.5-1.6.1-2.4.1-4 .2.1-5.7.2-8.5.3-14.2-3.2.1-4.8.2-7.9.3-.1 5.7-.2 8.5-.3 14.2-1.6.1-2.4.1-4 .2.1-7 .2-10.5.4-17.5 6.3-.4 9.5-.5 15.9-.7zM302.1 192.2c1.1.5 2 1.2 2.6 2.1.6.9.9 2 .9 3.3 0 1.3-.4 2.4-1 3.4s-1.5 1.8-2.7 2.3c-1.2.6-2.5.9-4.1.9-1.4.1-2.1.1-3.5.1 0 1.9-.1 2.9-.1 4.8-1.6.1-2.4.1-4.1.2.1-7 .2-10.5.4-17.5 3-.1 4.6-.2 7.6-.3 1.5.1 2.9.3 4 .7zm-1.6 7.9c.6-.5 1-1.3 1-2.3 0-1-.3-1.7-.9-2.2-.6-.5-1.5-.7-2.8-.7-1.3.1-2 .1-3.3.1 0 2.4-.1 3.7-.1 6.1 1.3-.1 2-.1 3.3-.1 1.2 0 2.1-.3 2.8-.9zM311.7 207.8c-1.4-.7-2.6-1.8-3.4-3.1-.8-1.3-1.2-2.9-1.1-4.6s.5-3.3 1.3-4.7c.9-1.4 2-2.5 3.5-3.4 1.5-.8 3.1-1.3 5-1.4 1.8-.1 3.5.3 4.9 1 1.4.7 2.6 1.8 3.4 3.1.8 1.4 1.2 2.9 1.2 4.6s-.5 3.3-1.3 4.7c-.9 1.4-2 2.5-3.5 3.4-1.5.8-3.1 1.3-4.9 1.3-2 .1-3.6-.2-5.1-.9zm7.8-3.3c.8-.5 1.5-1.2 2-2.1.5-.9.8-1.8.8-2.9 0-1.1-.2-2-.7-2.9-.5-.8-1.1-1.5-1.9-1.9-.8-.4-1.8-.7-2.8-.6-1 0-2 .3-2.8.8-.8.5-1.5 1.2-2 2.1-.5.9-.8 1.8-.8 2.9 0 1.1.2 2 .7 2.9.5.8 1.1 1.5 1.9 1.9.8.4 1.8.7 2.8.6 1.1 0 2-.3 2.8-.8zM347.9 204.1c-1.6 1.4-3.9 2.2-6.9 2.4v1.9c-1.5 0-2.2.1-3.7.1v-1.9c-3-.1-5.2-.8-6.8-2-1.6-1.3-2.3-3.1-2.3-5.3 0-2.3.9-4.1 2.5-5.5 1.6-1.4 3.9-2.2 6.9-2.5v-1.8c1.5 0 2.2-.1 3.7-.1v1.8c3 .1 5.2.8 6.8 2.1s2.3 3.1 2.3 5.4c-.1 2.2-.9 4.1-2.5 5.4zm-10.5-.6c.1-3.6.1-5.4.2-9-1.8.2-3.1.7-4 1.5-.9.8-1.3 1.8-1.4 3.2-.1 2.6 1.6 4 5.2 4.3zm7.7-1.6c.9-.8 1.3-1.8 1.4-3.2.1-2.7-1.7-4.1-5.2-4.3-.1 3.6-.1 5.4-.2 9 1.8-.3 3.1-.7 4-1.5zM366.9 203.8c0 1.3 0 2-.1 3.3-5.4.1-8.2.2-13.6.3.1-7 .2-10.5.4-17.5 5.3-.1 8-.2 13.3-.3 0 1.3 0 2-.1 3.3-3.7.1-5.5.1-9.2.2 0 1.5 0 2.3-.1 3.8 3.3-.1 4.9-.1 8.1-.2 0 1.3 0 1.9-.1 3.2-3.3.1-4.9.1-8.1.2 0 1.6 0 2.4-.1 4.1 3.8-.3 5.7-.4 9.6-.4zM373.5 206c-1.4-.7-2.5-1.8-3.3-3.2-.8-1.4-1.2-2.9-1.1-4.6 0-1.7.5-3.3 1.3-4.7.9-1.4 2-2.5 3.5-3.3 1.5-.8 3.1-1.2 4.9-1.3 1.5 0 2.9.2 4.1.7 1.2.5 2.2 1.3 3 2.3-1.1 1-1.6 1.5-2.7 2.4-1.2-1.4-2.6-2-4.4-2-1.1 0-2.1.3-2.9.8-.9.5-1.5 1.2-2 2s-.8 1.8-.8 2.9c0 1.1.2 2 .7 2.9.5.8 1.1 1.5 2 2 .8.5 1.8.7 2.9.7 1.8 0 3.2-.7 4.5-2.1 1 .9 1.5 1.4 2.6 2.4-.9 1-1.9 1.8-3.2 2.4-1.2.6-2.6.8-4.2.9-1.9-.1-3.5-.4-4.9-1.2zM391.3 205.7c-1.4-.8-2.5-1.8-3.3-3.2s-1.2-2.9-1.1-4.7c0-1.7.5-3.3 1.3-4.7.9-1.4 2-2.5 3.5-3.3 1.5-.8 3.1-1.2 4.9-1.2 1.5 0 2.9.2 4.1.8 1.2.5 2.2 1.3 3 2.3-1.1 1-1.6 1.5-2.7 2.4-1.2-1.4-2.6-2-4.4-2-1.1 0-2.1.3-2.9.7-.9.5-1.5 1.2-2 2-.5.9-.8 1.8-.8 2.9 0 1.1.2 2.1.7 2.9.5.8 1.1 1.5 2 2 .8.5 1.8.7 2.9.7 1.8 0 3.2-.7 4.5-2.1 1 1 1.5 1.4 2.6 2.4-.9 1-1.9 1.8-3.2 2.4-1.2.5-2.6.8-4.2.8-1.8.1-3.5-.3-4.9-1.1zM406.4 189h4c-.1 4.6-.1 6.9-.2 11.4 3.4-4.6 5.2-6.9 8.6-11.4h3.8c-.1 7-.2 10.5-.4 17.5h-4c.1-4.6.1-6.8.2-11.4-3.4 4.6-5.2 6.8-8.6 11.4H406c.2-7 .3-10.5.4-17.5zM447.2 190.1c1.4.8 2.5 1.9 3.3 3.3.8 1.4 1.1 3 1.1 4.7s-.5 3.3-1.3 4.6c-.8 1.4-2 2.4-3.4 3.2-1.4.8-3 1.1-4.8 1.1-1.6 0-3-.4-4.3-1s-2.3-1.5-3.2-2.7c-.8-1.1-1.3-2.4-1.5-3.9h-2.3c-.1 2.9-.1 4.3-.1 7.1h-4c.1-7 .2-10.5.4-17.5h4c-.1 2.8-.1 4.1-.1 6.9h2.4c.3-1.4.9-2.6 1.7-3.7.9-1.1 1.9-1.9 3.2-2.5 1.3-.6 2.7-.9 4.3-.8 1.6-.1 3.2.4 4.6 1.2zm-2.4 12.7c.8-.5 1.4-1.1 1.9-1.9.5-.8.7-1.8.7-2.9 0-1.1-.2-2.1-.6-2.9-.4-.9-1-1.5-1.8-2s-1.6-.7-2.6-.7-1.9.2-2.6.7c-.8.5-1.4 1.1-1.9 2-.5.8-.7 1.8-.7 2.9 0 1.1.2 2.1.6 2.9.4.9 1 1.5 1.8 2s1.6.7 2.6.7c.9-.1 1.8-.3 2.6-.8z" class="st75"/></g></g><g><defs><path id="SVGID_21_" d="M-722.2 493.6h524.5v295h-524.5z"/></defs><clipPath id="SVGID_10_"><use overflow="visible" xlink:href="#SVGID_21_"/></clipPath><path fill="#fff" d="M-722.2 198.5H851.6v885.3H-722.2z" clip-path="url(#SVGID_10_)"/></g><g><defs><path id="SVGID_25_" d="M0 493.6h524.5v295H0z"/></defs><clipPath id="SVGID_12_"><use overflow="visible" xlink:href="#SVGID_25_"/></clipPath><path fill="#fff" d="M-524.1 198.5h1573.8v885.3H-524.1z" clip-path="url(#SVGID_12_)"/></g><g><defs><path id="SVGID_29_" d="M715.8 493.6h524.5v295H715.8z"/></defs><clipPath id="SVGID_14_"><use overflow="visible" xlink:href="#SVGID_29_"/></clipPath><path fill="#fff" d="M-332.7 198.5h1573.8v885.3H-332.7z" clip-path="url(#SVGID_14_)"/></g><g><defs><path id="SVGID_33_" d="M721.8 7.1h524.5v295H721.8z"/></defs><clipPath id="SVGID_16_"><use overflow="visible" xlink:href="#SVGID_33_"/></clipPath><path fill="#fff" d="M-326.7 7h1573.8v885.3H-326.7z" clip-path="url(#SVGID_16_)"/><path fill="#bdefef" d="M-245.8 440.6c93.7 0 142.2-206.2 287.8-225.1 110.9-14.4 155 48.1 208.4 48.1 75.2 0 171.4-76.5 298.9-9.7 81.4 42.6 158.3 90.3 217 96.3 58.7 6 191-26 259.1.6 188.2 73.7 146 324.3 146 324.3h-1426l8.8-234.5z" clip-path="url(#SVGID_16_)"/><path fill="#e2efef" d="M127.6 264.1c.6-3.2 3.5-5.8 7.1-6.1 1.2-.1 1.8-.4 2.4-1.5 1.1-2.2 3-3.8 5.4-4.7.9-.3 1.1-.8 1.1-1.7-.1-5.4 3.2-8.8 8.6-9.2.7-.1 1.5-.8 2-1.4 5.5-8 15.6-10.9 24-6.4 2.4 1.3 4.4 3.4 6.3 5.3.7.7 1.3 1.2 2.4 1.2 2.6-.1 5.1.6 7.1 2.2.7.6 1.3.6 2.1.1.6-.4 1.4-.7 2-.6 2 .4 3.8-.5 5.6-1 8.3-2.3 16.8 1 21.5 8.3.6.9 1.1 1.2 2.2 1.1 4.3-.3 7.8 1.3 10.5 4.7.3.4 1.1.6 1.6.5 3.9-.6 6.9.7 9.1 3.9.4.5 1.2.9 1.9 1 2.4.4 4.1 2 4.3 4.4-42.5-.1-84.8-.1-127.2-.1zM168.5 214.7l418.2-10.1 209.8 10.1-418.9 9.5z" clip-path="url(#SVGID_16_)"/><path fill="#b3b3b3" d="M74.7 416.7h501.9s-212.6-158-233.5-158c-8.5 0-34 12.5-61.1 27.3L74.7 416.7z" clip-path="url(#SVGID_16_)"/><path fill="#e6e6e6" d="M435.9 315.4c-44.4-30.8-84.2-56.7-92.7-56.7s-34 12.5-61.1 27.3l-38.4 24.2 49.8 2.1-7.4-5.8 23.2-7.2 3.7 38.3 14.7-21.2 9.8 17.5 22.6 8.3-6.8-32.3 15.1-2.1 14.9 23.4-3.6-36.4 25.9 47.4 15.1-8.3-18.4-24 34.6 6.5-1-1z" clip-path="url(#SVGID_16_)"/><path fill="#e2efef" d="M-80.6 164.7l401.7 10.4-530.7 19z" clip-path="url(#SVGID_16_)"/><path fill="#23b347" d="M1172.3 533.4c-114.2 0-201.1 9.5-250.8-9.7-120.5-46.4-109.7-187-335.6-187-112.5 0-152 34.6-242.8 34.6-50.5 0-110.5-99.8-217.5-99.8-198.1 0-192.8 154.3-355.8 168.3-13.8 1.2-24.5 12.8-24.5 26.6 0 49.5-2.6 98.6-5 143.6-4.4 82.4-6.4 149.9 21.7 172 38.4 17.2 180.1-25.9 305.9.4 182.3 38.2 240.5 16.6 427.6 6.4 112.3-6.1 275.8-9.3 330.2-8.7 161.5 1.7 308.4 26.6 335.1 1.9 25.8-23.8 24.7-148.8 11.5-248.6z" clip-path="url(#SVGID_16_)"/><g class="st506"><path d="M442.5 277.3c-3.2 2.6-10 4-12.7.9-2.6-3.2-.1-9.7 3.1-12.3 3.2-2.6 7.9-2.2 10.5.9 2.7 3.2 2.3 7.9-.9 10.5z" class="st23"/><path d="M430.2 277.9l-2 .3 1.4 1.6zM442.5 277.3c2.9-2.4 3.5-6.5 1.6-9.6 0 0 3.6 10.8-11.9 12 3.2 1 7.9-.3 10.3-2.4z" class="st24"/><path d="M434.6 267.6c-2 1.4-3.1 3.3-3.6 2.6s.7-2.5 2.7-3.9 4-2 4.5-1.3-1.6 1.2-3.6 2.6z" class="st25"/><path d="M459.8 271.7c-1.7 2.1-6.1 3.8-8.2 2.1-2.1-1.7-1.2-6.3.5-8.4 1.7-2.1 4.9-2.4 7-.6s2.4 4.8.7 6.9z" class="st26"/><path d="M451.8 273.5l-1.2.4 1.1 1zM459.8 271.7c1.6-1.9 1.5-4.7-.1-6.5 0 0 3.6 6.6-6.4 9.2 2.2.3 5.1-1.1 6.5-2.7z" class="st27"/><path d="M454.7 265.5c-1.2.6-2 1.6-2.2 1s.5-1.4 1.8-2c1.2-.6 2.4-.6 2.7-.1s-1.1.5-2.3 1.1z" class="st28"/><path d="M448.4 295.6c-2.6 2.2-8.2 3.3-10.3.7-2.2-2.6-.1-7.9 2.5-10.1 2.6-2.2 6.4-1.8 8.6.8s1.7 6.5-.8 8.6z" class="st29"/><path d="M448.4 295.6c2.3-2 2.8-5.3 1.3-7.9 0 0 2.9 8.8-9.7 9.8 2.5.9 6.4-.2 8.4-1.9z" class="st31"/><path d="M442 287.3c-1.4.9-2.1 2.1-2.5 1.6-.3-.5.5-1.6 1.9-2.5 1.4-.9 2.7-1.2 3-.7.3.6-1.1.8-2.4 1.6z" class="st32"/><path d="M430.8 294.7c-2.1 1.4-6.3 1.7-7.7-.3-1.4-2.1.6-5.8 2.7-7.2 2.1-1.4 4.9-.8 6.3 1.3 1.3 2.1.7 4.9-1.3 6.2z" class="st33"/><path d="M423.4 294.2l-1.3.1.7 1.1zM430.8 294.7c1.9-1.3 2.5-3.7 1.6-5.7 0 0 1.4 6.7-8 6.4 1.8.9 4.8.4 6.4-.7z" class="st34"/><path d="M427.6 287.9c-1.1.2-1.9.8-2 .4-.1-.5.7-1 1.8-1.2 1.1-.2 2.1 0 2.1.5s-.8.1-1.9.3z" class="st35"/><path d="M490.9 298.9c-1.7 2-5.9 3.7-7.9 2-2-1.7-1.1-6.1.6-8.2 1.7-2 4.7-2.3 6.8-.6s2.2 4.7.5 6.8z" class="st29"/><path d="M490.9 298.9c1.5-1.9 1.5-4.5-.1-6.3 0 0 3.5 6.5-6.2 8.9 2.2.3 5-1 6.3-2.6z" class="st31"/><path d="M484.8 293.1c-.9.8-1.3 1.8-1.6 1.5s.2-1.2 1-2.1 1.8-1.2 2.1-.9-.6.7-1.5 1.5z" class="st32"/><path d="M518.4 301.9c-1.8 1.1-5.4 1.2-6.4-.6s.8-4.9 2.6-5.9c1.8-1.1 4.1-.5 5.2 1.3s.4 4.2-1.4 5.2z" class="st23"/><path d="M505.9 295.9c-1.3 1.2-4.2 2-5.5.7s-.3-4.2 1-5.4c1.3-1.2 3.4-1.2 4.6.1s1.2 3.4-.1 4.6z" class="st29"/><path d="M505.9 295.9c1.2-1.1 1.3-2.9.4-4.2 0 0 1.9 4.6-4.8 5.6 1.3.3 3.4-.4 4.4-1.4z" class="st31"/><path d="M501.9 292c-.7.6-1 1.4-1.3 1.2s.1-1 .8-1.6c.7-.6 1.5-1 1.7-.7.3.2-.5.5-1.2 1.1z" class="st32"/><path d="M456.7 286.7l-1.3.2 1 1z" class="st31"/><path d="M464.3 285.9c-1.9 1.8-6.1 2.9-7.8 1s-.4-6 1.5-7.8c1.9-1.8 4.8-1.7 6.6.2s1.6 4.8-.3 6.6z" class="st29"/><path d="M464.3 285.9c1.7-1.6 1.9-4.2.6-6 0 0 2.6 6.6-7 7.9 2.1.4 4.9-.5 6.4-1.9z" class="st31"/><path d="M459.7 279.9c-1.2.7-1.9 1.7-2.2 1.2-.3-.5.5-1.4 1.7-2.1s2.4-.8 2.6-.4c.3.6-1 .7-2.1 1.3z" class="st32"/><path d="M530.7 289.3c-2.6 2.2-8.3 3.3-10.5.7-2.2-2.6-.1-8 2.5-10.2s6.5-1.8 8.7.8c2.3 2.6 1.9 6.5-.7 8.7z" class="st23"/><path d="M520.6 289.7l-1.7.3 1.2 1.4zM530.7 289.3c2.4-2 2.9-5.4 1.3-8 0 0 3 9-9.8 9.9 2.6.9 6.5-.2 8.5-1.9z" class="st24"/><path d="M524.2 281.2c-1.6 1.2-2.5 2.7-3 2.2-.4-.6.6-2 2.2-3.2 1.6-1.2 3.3-1.7 3.8-1.1.4.6-1.4 1-3 2.1z" class="st25"/><path d="M479.6 275.4c-2.7 2.2-8.4 3.4-10.7.7s-.1-8.1 2.6-10.4 6.6-1.9 8.8.8 2 6.7-.7 8.9z" class="st26"/><path d="M469.3 275.9l-1.7.2 1.2 1.4zM479.6 275.4c2.4-2 2.9-5.5 1.3-8.1 0 0 3 9.1-10 10.1 2.7.8 6.7-.3 8.7-2z" class="st27"/><path d="M473 266.9c-1.4.9-2.2 2.1-2.5 1.6-.3-.5.5-1.7 1.9-2.6s2.8-1.2 3.1-.7-1.1.8-2.5 1.7z" class="st28"/><path d="M497 287.5c-1.8 1.7-5.9 2.9-7.7 1-1.7-1.8-.4-5.9 1.4-7.6s4.7-1.7 6.4.1 1.7 4.8-.1 6.5z" class="st33"/><path d="M489.5 288.3l-1.2.3.9.9zM497 287.5c1.7-1.6 1.8-4.1.6-5.9 0 0 2.6 6.4-6.8 7.8 2 .4 4.8-.5 6.2-1.9z" class="st34"/><path d="M492.3 281.6c-1.1.6-1.7 1.6-2 1.1-.3-.5.4-1.4 1.5-2 1.1-.6 2.2-.7 2.5-.3.3.6-.9.6-2 1.2z" class="st35"/><path d="M532 271.6c-2.4 2-7.7 3.1-9.8.7-2-2.4-.1-7.5 2.4-9.5 2.4-2 6.1-1.7 8.1.7s1.7 6.1-.7 8.1z" class="st33"/><path d="M522.5 272l-1.6.3 1.1 1.2zM532 271.6c2.2-1.9 2.7-5 1.2-7.4 0 0 2.8 8.4-9.2 9.3 2.5.7 6.1-.3 8-1.9z" class="st34"/><path d="M526 264.1c-1.4 1-2.1 2.3-2.4 1.8-.4-.5.5-1.7 1.8-2.7 1.4-1 2.7-1.4 3.1-.9.3.5-1.2.8-2.5 1.8z" class="st35"/><path d="M513.3 285.2c-1.4 1.3-4.4 2.1-5.7.8-1.3-1.4-.3-4.4 1-5.7 1.4-1.3 3.5-1.3 4.8.1 1.3 1.3 1.3 3.5-.1 4.8z" class="st26"/><path d="M507.8 285.8l-1 .2.7.7zM513.3 285.2c1.2-1.2 1.4-3.1.4-4.4 0 0 2 4.8-5.1 5.8 1.6.4 3.7-.4 4.7-1.4z" class="st27"/><path d="M509.9 280.8c-.8.5-1.3 1.2-1.5.8-.2-.4.3-1 1.1-1.5s1.6-.6 1.8-.2c.2.4-.6.4-1.4.9z" class="st28"/><path d="M494.5 275.3c-2.2 1.8-6.9 2.8-8.8.6s-.1-6.7 2.1-8.5 5.4-1.5 7.3.6c1.9 2.2 1.6 5.4-.6 7.3z" class="st33"/><path d="M486 275.7l-1.4.2 1 1.1z" class="st36"/><path d="M494.5 275.3c2-1.7 2.4-4.5 1.1-6.7 0 0 2.5 7.5-8.2 8.3 2.2.7 5.4-.2 7.1-1.6z" class="st34"/><path d="M489.1 268.3c-1.1.7-1.8 1.8-2.1 1.3-.3-.4.4-1.4 1.6-2.1 1.1-.7 2.3-1 2.6-.6s-.9.6-2.1 1.4z" class="st35"/><path d="M480.4 290c-2.1 2.5-7.4 4.5-9.9 2.4s-1.3-7.6.8-10.2 5.9-2.8 8.4-.7 2.8 5.9.7 8.5z" class="st23"/><path d="M470.7 292l-1.5.5 1.3 1.1zM480.4 290c2-2.3 1.9-5.6 0-7.8 0 0 4.3 8.1-7.8 11.1 2.6.2 6.1-1.4 7.8-3.3z" class="st24"/><path d="M473.5 282.3c-1.3.7-2.1 1.9-2.4 1.4-.3-.5.5-1.6 1.9-2.3s2.6-.9 2.9-.4c.3.5-1 .6-2.4 1.3z" class="st25"/><path d="M514.3 272.3c-3.5 2.9-11 4.4-13.9 1-2.9-3.5-.1-10.6 3.4-13.5 3.5-2.9 8.6-2.5 11.5 1 2.9 3.4 2.5 8.6-1 11.5z" class="st26"/><path d="M500.9 272.9l-2.3.3 1.6 1.8zM514.3 272.3c3.2-2.6 3.8-7.2 1.7-10.6 0 0 3.9 11.9-13.1 13.1 3.6 1.2 8.7-.2 11.4-2.5z" class="st27"/><path d="M505.7 261.2c-1.8 1.2-2.9 2.8-3.3 2.1-.4-.7.7-2.2 2.5-3.3 1.8-1.2 3.6-1.6 4.1-.9.4.6-1.5.9-3.3 2.1z" class="st28"/></g><g class="st506"><path d="M45.3 238.9c-1.3 1.7-4.6 3.2-6.3 1.9-1.7-1.3-1.1-4.9.2-6.5 1.3-1.7 3.7-2 5.4-.7s2 3.6.7 5.3z" class="st23"/><path d="M39.2 240.6l-1 .4.9.6zM45.3 238.9c1.2-1.5 1-3.7-.3-5 0 0 3 5-4.6 7.4 1.7.1 3.9-1.1 4.9-2.4z" class="st24"/><path d="M41.6 234.2c-1.1.3-1.9 1-2.1.5-.1-.5.7-1.1 1.8-1.4s2.2-.1 2.3.4-.9.2-2 .5z" class="st25"/><path d="M101.3 225l-1.2.4 1 .8z" class="st31"/><path d="M108.5 223.4c-1.6 1.9-5.5 3.4-7.4 1.8-1.9-1.6-1.1-5.7.5-7.6s4.4-2.1 6.3-.6c1.9 1.7 2.2 4.5.6 6.4z" class="st29"/><path d="M108.5 223.4c1.4-1.7 1.4-4.2-.1-5.8 0 0 3.2 6-5.8 8.3 2 .2 4.6-1 5.9-2.5z" class="st31"/><path d="M102.8 218c-.8.7-1.2 1.7-1.5 1.4s.2-1.2 1-1.9 1.7-1.1 2-.8c.2.3-.7.6-1.5 1.3z" class="st32"/><path d="M116 223.4l-1 .3.9.8z" class="st27"/><path d="M122.5 221.9c-1.4 1.7-5 3.1-6.7 1.7-1.7-1.4-.9-5.2.5-6.9 1.4-1.7 4-1.9 5.7-.5 1.7 1.4 2 4 .5 5.7z" class="st26"/><path d="M122.5 221.9c1.3-1.6 1.2-3.8-.1-5.3 0 0 2.9 5.5-5.2 7.5 1.8.3 4.2-.9 5.3-2.2z" class="st27"/><path d="M118.5 216.6c-.9.3-1.6 1-1.7.6-.1-.4.5-1 1.5-1.3.9-.3 1.8-.2 2 .2 0 .3-.9.2-1.8.5z" class="st28"/><path d="M160.8 225.1c-1.3 1.6-4.6 3-6.2 1.7s-1-4.8.3-6.4 3.7-1.9 5.3-.6c1.6 1.3 1.9 3.7.6 5.3z" class="st26"/><path d="M154.8 226.6l-1 .4.8.7z" class="st27"/><path d="M156.5 220.7c-1 .6-1.6 1.5-1.8 1-.2-.4.4-1.3 1.4-1.8 1-.6 2-.7 2.3-.2.2.4-.9.4-1.9 1z" class="st28"/><path d="M155.8 227.3c7.1-1.4 4.9-7 4.9-7s2 2.2.1 4.8-5 2.2-5 2.2z" class="st27"/><path d="M83.6 232.5l-1.5.5 1.3 1z" class="st31"/><path d="M92.7 229.9c-1.9 2.5-6.8 4.8-9.3 2.9-2.5-1.9-1.7-7.2.2-9.8 1.9-2.5 5.5-3 8-1.1 2.5 1.8 3 5.4 1.1 8z" class="st29"/><path d="M92.7 230c1.8-2.3 1.6-5.5-.3-7.5 0 0 4.4 7.6-7.1 10.9 2.5.3 5.8-1.5 7.4-3.4z" class="st31"/><path d="M85.5 223.2c-1 .9-1.5 2.1-1.9 1.6-.4-.5.2-1.5 1.2-2.4s2.2-1.2 2.6-.8c.3.5-.9.7-1.9 1.6z" class="st32"/><path d="M141.9 245.8l-1.2-.1.7 1.2z" class="st31"/><path d="M149.3 246.6c-2.1 1.3-6.4 1.4-7.6-.7-1.3-2.1.9-5.8 3-7 2.1-1.3 4.9-.6 6.2 1.6 1.3 2.1.5 4.9-1.6 6.1z" class="st29"/><path d="M149.3 246.6c1.9-1.2 2.7-3.5 1.9-5.6 0 0 1.1 6.8-8.3 6 1.8.9 4.7.6 6.4-.4z" class="st31"/><path d="M145 240.3c-1.1.7-1.7 1.7-1.9 1.3s.4-1.3 1.5-2 2.1-1 2.4-.6-1 .5-2 1.3z" class="st32"/><path d="M142.5 233.2c-1.7 1-5 1.1-6-.6-1-1.7.7-4.5 2.4-5.5s3.9-.4 4.8 1.2c1 1.7.5 3.9-1.2 4.9z" class="st23"/><path d="M136.7 232.5l-1-.1.5.9zM142.5 233.2c1.5-.9 2.1-2.8 1.5-4.4 0 0 .8 5.3-6.5 4.7 1.4.7 3.7.4 5-.3z" class="st24"/><path d="M138.7 228.4c-.8.7-1.1 1.5-1.4 1.2-.3-.3.1-1.1.9-1.8s1.6-1 1.8-.7c.3.3-.5.6-1.3 1.3z" class="st25"/><path d="M124 211.4l-.8.2.6.6z" class="st31"/><path d="M129 210.7c-1.2 1.2-3.9 1.9-5.1.7-1.2-1.2-.3-3.9.9-5.1s3.1-1.1 4.3.1c1.1 1.2 1.1 3.1-.1 4.3z" class="st29"/><path d="M129 210.7c1.1-1.1 1.2-2.7.4-3.9 0 0 1.7 4.3-4.5 5.2 1.3.3 3.1-.4 4.1-1.3z" class="st31"/><path d="M125.3 207.1c-.7.6-1 1.3-1.2 1.1-.2-.2.1-.9.8-1.5.7-.6 1.4-.9 1.6-.6.2.1-.5.4-1.2 1z" class="st32"/><path d="M163.9 209.5c-1.3 1.6-4.6 3-6.2 1.6s-1-4.8.4-6.4 3.7-1.9 5.3-.5c1.6 1.3 1.8 3.7.5 5.3z" class="st29"/><path d="M157.8 211l-.9.3.8.7zM163.9 209.5c1.2-1.5 1.1-3.6-.1-4.9 0 0 2.8 5.1-4.8 7.1 1.7.2 3.9-.9 4.9-2.2z" class="st31"/><path d="M159.7 204.9c-.9.5-1.5 1.4-1.7 1-.2-.4.3-1.2 1.3-1.7s1.9-.6 2.1-.2c.2.3-.8.4-1.7.9z" class="st32"/><g><path d="M119.2 237.3l-1.4.5 1.2 1z" class="st34"/><path d="M128.2 235.4c-2 2.3-6.9 4.2-9.2 2.2-2.3-2-1.2-7.1.8-9.4 2-2.3 5.5-2.6 7.8-.6s2.6 5.5.6 7.8z" class="st33"/><path d="M128.2 235.4c1.8-2.1 1.8-5.2 0-7.3 0 0 4 7.5-7.3 10.3 2.4.4 5.7-1.2 7.3-3z" class="st34"/><path d="M121.8 228.3c-1.2.7-1.9 1.7-2.2 1.3-.3-.5.5-1.4 1.7-2.1 1.2-.7 2.4-.9 2.7-.4.3.4-1 .5-2.2 1.2z" class="st35"/></g><g><path d="M133.2 221.1l-1.5.2 1 1.3z" class="st24"/><path d="M142.6 220.7c-2.4 2-7.7 3.1-9.7.7s-.1-7.4 2.4-9.5c2.4-2 6-1.7 8.1.7 2 2.4 1.7 6.1-.8 8.1z" class="st23"/><path d="M142.6 220.7c2.2-1.9 2.7-5 1.2-7.4 0 0 2.8 8.3-9.1 9.2 2.5.8 6.1-.2 7.9-1.8z" class="st24"/><path d="M136.6 213.2c-1.5 1.1-2.4 2.6-2.8 2-.4-.6.5-1.9 2-3s3.1-1.6 3.5-1c.4.6-1.2.9-2.7 2z" class="st25"/></g><g><path d="M116.3 211.4c-1.7 1.6-5.5 2.7-7.1 1-1.6-1.7-.4-5.5 1.3-7.1 1.7-1.6 4.4-1.6 6 .1s1.5 4.4-.2 6z" class="st33"/><path d="M109.4 212.1l-1.2.3.9.9zM116.3 211.4c1.5-1.5 1.7-3.8.5-5.5 0 0 2.4 6-6.3 7.2 1.9.4 4.5-.5 5.8-1.7z" class="st34"/><path d="M112 205.9c-1 .6-1.6 1.5-1.8 1s.4-1.3 1.4-1.8c1-.6 2-.7 2.3-.2.2.4-.9.4-1.9 1z" class="st35"/></g><g><path d="M126.1 252l-1.2.2.9.9z" class="st27"/><path d="M133 251.1c-1.7 1.6-5.5 2.7-7.1 1.1s-.5-5.4 1.2-7.1c1.7-1.6 4.3-1.6 6 0 1.5 1.7 1.5 4.3-.1 6z" class="st26"/><path d="M133 251.1c1.5-1.5 1.7-3.8.4-5.5 0 0 2.5 5.9-6.2 7.3 1.9.4 4.5-.5 5.8-1.8z" class="st27"/><path d="M128.6 245.6c-1.1.6-1.7 1.6-2 1.2-.3-.5.4-1.4 1.5-2 1.1-.6 2.2-.8 2.4-.3.3.4-.8.4-1.9 1.1z" class="st28"/></g><g><path d="M72.4 237.6l-1.1.3.9.8z" class="st27"/><path d="M79.1 236.2c-1.5 1.8-5.2 3.2-6.9 1.7-1.8-1.5-.9-5.4.6-7.1 1.5-1.8 4.2-2 5.9-.5 1.7 1.4 1.9 4.1.4 5.9z" class="st26"/><path d="M79.1 236.2c1.4-1.6 1.3-3.9 0-5.5 0 0 3 5.7-5.5 7.7 1.9.3 4.3-.9 5.5-2.2z" class="st27"/><path d="M74.6 231.1c-1.1.7-1.8 1.7-2.1 1.2-.3-.5.4-1.4 1.6-2.1 1.1-.7 2.3-.8 2.6-.3.2.5-1 .5-2.1 1.2z" class="st28"/></g><g><path d="M105.9 249.6l-1.2.1.8 1z" class="st31"/><path d="M112.9 249.3c-1.8 1.5-5.7 2.3-7.3.5s0-5.5 1.8-7.1c1.8-1.5 4.5-1.3 6 .5 1.6 1.8 1.3 4.5-.5 6.1z" class="st29"/><path d="M112.9 249.3c1.6-1.4 2-3.7.9-5.5 0 0 2.1 6.2-6.8 6.9 1.8.5 4.5-.3 5.9-1.4z" class="st31"/><path d="M108.8 243.6c-1.1.6-1.8 1.6-2 1.2-.3-.5.4-1.4 1.5-2 1.1-.6 2.3-.8 2.5-.3.3.4-.9.5-2 1.1z" class="st32"/></g><g><path d="M141.9 202.6l-1.5.2 1 1.2z" class="st34"/><path d="M150.7 202.2c-2.3 1.9-7.2 2.9-9.1.6-1.9-2.3-.1-6.9 2.2-8.8s5.6-1.6 7.5.7c1.9 2.2 1.6 5.6-.6 7.5z" class="st33"/><path d="M150.7 202.2c2.1-1.7 2.5-4.7 1.1-6.9 0 0 2.6 7.8-8.5 8.6 2.2.7 5.6-.2 7.4-1.7z" class="st34"/><path d="M145.1 195.2c-1.3.9-1.9 2.1-2.3 1.6s.4-1.6 1.7-2.5 2.5-1.3 2.9-.8-1.1.8-2.3 1.7z" class="st35"/></g><g><path d="M117.2 200.1l-.8.2.6.7z" class="st24"/><path d="M122.5 199.5c-1.3 1.2-4.1 2-5.3.7-1.2-1.3-.3-4.1 1-5.3s3.3-1.2 4.5.1c1.1 1.3 1.1 3.3-.2 4.5z" class="st23"/><path d="M122.5 199.5c1.2-1.1 1.3-2.9.4-4.1 0 0 1.8 4.5-4.7 5.4 1.4.3 3.3-.4 4.3-1.3z" class="st24"/><path d="M119.3 195.3c-.8.4-1.2 1.1-1.4.8s.3-.9 1-1.4c.8-.4 1.5-.5 1.7-.2.2.4-.6.4-1.3.8z" class="st25"/></g><g><path d="M150.1 258.3l-1.1.1.8.9z" class="st27"/><path d="M156.3 258c-1.6 1.3-5.1 2.1-6.4.5s0-4.9 1.6-6.2c1.6-1.3 4-1.1 5.3.5 1.3 1.5 1.1 3.9-.5 5.2z" class="st26"/><path d="M156.3 258c1.5-1.2 1.8-3.3.8-4.9 0 0 1.8 5.5-6 6.1 1.6.5 4-.1 5.2-1.2z" class="st27"/><path d="M152.5 252.8c-.9.5-1.5 1.3-1.7 1-.2-.4.4-1.1 1.3-1.6s1.9-.7 2.1-.3c.2.3-.8.4-1.7.9z" class="st28"/></g><g><path d="M99.4 236.6l-1.1.1.8 1z" class="st34"/><path d="M106.5 236.2c-1.8 1.5-5.8 2.3-7.3.5-1.5-1.8 0-5.6 1.8-7.1s4.5-1.3 6 .5c1.5 1.9 1.3 4.6-.5 6.1z" class="st33"/><path d="M106.5 236.2c1.7-1.4 2-3.8.9-5.5 0 0 2.1 6.2-6.8 6.9 1.8.6 4.5-.2 5.9-1.4z" class="st34"/><path d="M102 230.4c-1 .7-1.6 1.7-1.8 1.3-.3-.4.3-1.2 1.3-2s2-1 2.3-.7c.3.4-.8.7-1.8 1.4z" class="st35"/></g><g><path d="M101.9 197.9l-1.3.2.9 1z" class="st36"/><path d="M109.7 197.5c-2 1.7-6.4 2.6-8.1.6-1.7-2-.1-6.2 2-7.9 2-1.7 5.1-1.4 6.8.6 1.6 2 1.4 5-.7 6.7z" class="st33"/><path d="M109.7 197.5c1.8-1.6 2.2-4.2 1-6.2 0 0 2.3 7-7.7 7.7 2.2.7 5.2-.1 6.7-1.5z" class="st34"/><path d="M104.7 191c-1.1.7-1.7 1.6-1.9 1.2-.3-.4.4-1.3 1.5-2s2.1-.9 2.4-.5c.2.5-.9.6-2 1.3z" class="st35"/></g><g><path d="M67 252.9l-.9.1.6.8z" class="st24"/><path d="M72.5 252.7c-1.4 1.2-4.5 1.8-5.7.4-1.2-1.4 0-4.3 1.4-5.5 1.4-1.2 3.5-1 4.7.4s1 3.5-.4 4.7z" class="st23"/><path d="M72.5 252.7c1.3-1.1 1.6-2.9.7-4.3 0 0 1.6 4.9-5.4 5.4 1.5.4 3.6-.2 4.7-1.1z" class="st24"/><path d="M69 248.1c-.7.5-1.2 1.1-1.3.9s.3-.9 1-1.4 1.5-.6 1.7-.4c.1.3-.7.4-1.4.9z" class="st25"/></g><g><path d="M157.8 239.7l-1.2.2.8.9z" class="st34"/><path d="M164.8 239.4c-1.8 1.5-5.7 2.3-7.2.5-1.5-1.8 0-5.5 1.8-7s4.5-1.3 6 .5c1.4 1.8 1.2 4.5-.6 6z" class="st33"/><path d="M164.8 239.4c1.6-1.4 2-3.7.9-5.5 0 0 2 6.2-6.8 6.8 1.8.6 4.5-.1 5.9-1.3z" class="st34"/><path d="M160.4 233.6c-1 .7-1.5 1.7-1.8 1.3s.3-1.2 1.3-2c1-.7 2-1 2.3-.7s-.8.7-1.8 1.4z" class="st35"/></g><g><path d="M101.7 211.8c-2 2.3-6.9 4.2-9.2 2.2-2.3-2-1.2-7.1.8-9.4 2-2.3 5.5-2.6 7.8-.6 2.4 2 2.6 5.5.6 7.8z" class="st23"/><path d="M92.8 213.7l-1.5.5 1.2 1.1zM101.7 211.8c1.8-2.1 1.8-5.2 0-7.3 0 0 4 7.5-7.3 10.3 2.5.4 5.8-1.2 7.3-3z" class="st24"/><path d="M95.4 204.7c-1.2.7-1.9 1.7-2.2 1.3-.3-.5.5-1.4 1.7-2.1 1.2-.7 2.4-.9 2.7-.4.3.5-1 .5-2.2 1.2z" class="st25"/></g><g><path d="M121.3 188.2l-2.1.3 1.4 1.7z" class="st27"/><path d="M133.8 187.6c-3.2 2.7-10.2 4.1-12.9.9-2.7-3.2-.1-9.8 3.1-12.5 3.2-2.7 8-2.3 10.7.9s2.3 8-.9 10.7z" class="st26"/><path d="M133.8 187.6c2.9-2.5 3.5-6.7 1.6-9.8 0 0 3.6 11-12.1 12.2 3.2 1.1 8-.3 10.5-2.4z" class="st27"/><path d="M125.8 177.3c-1.7 1.1-2.7 2.6-3.1 2-.4-.6.6-2 2.3-3.1 1.7-1.1 3.4-1.4 3.8-.8.5.6-1.3.8-3 1.9z" class="st28"/></g><g><path d="M83.6 216.7c-2.7 2.3-8.7 3.5-11 .8-2.3-2.7-.1-8.4 2.7-10.7s6.8-1.9 9.2.8c2.2 2.7 1.9 6.8-.9 9.1z" class="st33"/><path d="M72.9 217.2l-1.7.2 1.2 1.5zM83.6 216.7c2.5-2.1 3-5.7 1.4-8.4 0 0 3.1 9.4-10.4 10.4 2.8.9 6.9-.2 9-2z" class="st34"/><path d="M76.7 208.2c-1.7 1.3-2.7 2.9-3.1 2.3-.5-.6.6-2.1 2.3-3.4 1.7-1.3 3.5-1.8 4-1.1.4.6-1.5 1-3.2 2.2z" class="st35"/></g><g><path d="M43 259.8l-1.9.3 1.3 1.5z" class="st34"/><path d="M54.4 259.3c-2.9 2.5-9.3 3.8-11.8.8-2.5-2.9-.1-9 2.9-11.4 2.9-2.5 7.3-2.1 9.8.9 2.4 2.9 2 7.2-.9 9.7z" class="st33"/><path d="M54.4 259.3c2.7-2.2 3.2-6.1 1.4-8.9 0 0 3.3 10.1-11.1 11.1 3.1.9 7.4-.3 9.7-2.2z" class="st34"/><path d="M46.8 249.8c-1.5 1.1-2.4 2.6-2.8 2-.4-.6.5-1.9 2-3s3.1-1.6 3.5-1c.4.6-1.2.9-2.7 2z" class="st35"/></g><g><path d="M41.1 214.3h-1.2l.7 1.1z" class="st34"/><path d="M47.9 214.8c-1.9 1.3-5.8 1.6-7.1-.3-1.3-1.9.6-5.4 2.5-6.7 1.9-1.3 4.5-.8 5.8 1.2 1.3 1.9.8 4.5-1.2 5.8z" class="st33"/><path d="M47.9 214.8c1.8-1.2 2.4-3.4 1.5-5.3 0 0 1.3 6.3-7.4 5.9 1.7.8 4.4.4 5.9-.6z" class="st34"/><path d="M45 208.4c-1 .2-1.8.8-1.8.3-.1-.4.7-1 1.7-1.1 1-.2 1.9 0 2 .5.1.4-.8.1-1.9.3z" class="st35"/></g><g><path d="M54 239.4l-1.5.2 1.1 1.3z" class="st30"/><path d="M63.4 239c-2.4 2-7.6 3.1-9.6.7-2-2.4-.1-7.3 2.3-9.3 2.4-2 6-1.7 8 .7 2 2.3 1.7 5.9-.7 7.9z" class="st29"/><path d="M63.4 239c2.2-1.8 2.6-5 1.2-7.3 0 0 2.7 8.2-9 9.1 2.3.7 5.9-.3 7.8-1.8z" class="st31"/><path d="M57.4 231.3c-1.3.8-2 1.9-2.3 1.5-.3-.5.5-1.5 1.7-2.3 1.3-.8 2.5-1.1 2.8-.6s-.9.6-2.2 1.4z" class="st32"/></g><g><path d="M31.9 200.6l-1.9.3 1.3 1.5z" class="st24"/><path d="M43.3 200.1c-2.9 2.5-9.3 3.8-11.8.8-2.5-2.9-.1-9 2.9-11.4s7.3-2.1 9.8.9 2.1 7.3-.9 9.7z" class="st23"/><path d="M43.3 200.1c2.7-2.2 3.2-6.1 1.4-9 0 0 3.3 10.1-11.1 11.1 3.1 1 7.4-.2 9.7-2.1z" class="st24"/><path d="M36 191.1c-1.8 1.3-2.9 3.1-3.3 2.4-.5-.7.6-2.3 2.5-3.6s3.7-1.9 4.2-1.2c.4.6-1.6 1-3.4 2.4z" class="st25"/></g><g><path d="M57.4 219.7l-1.2.3 1.1.9z" class="st27"/><path d="M64.8 218c-1.6 2-5.6 3.6-7.6 1.9-2-1.6-1.1-5.9.5-7.8s4.5-2.2 6.5-.6 2.2 4.5.6 6.5z" class="st26"/><path d="M64.8 218c1.5-1.8 1.4-4.3-.1-6 0 0 3.4 6.2-5.9 8.6 2.1.2 4.8-1.1 6-2.6z" class="st27"/><path d="M60.1 212.2c-1.1.5-1.8 1.4-2.1 1s.5-1.3 1.6-1.8 2.2-.6 2.5-.1-.9.4-2 .9z" class="st28"/></g><g><path d="M65.1 200.4l-1.1.3.8.9z" class="st31"/><path d="M72.2 199.7c-1.7 1.6-5.7 2.7-7.3.9-1.6-1.7-.4-5.6 1.4-7.2s4.5-1.5 6.1.2 1.5 4.5-.2 6.1z" class="st29"/><path d="M72.2 199.7c1.6-1.5 1.8-3.9.6-5.6 0 0 2.4 6.1-6.5 7.3 1.9.5 4.6-.4 5.9-1.7z" class="st31"/><path d="M67.9 194.2c-1.1.6-1.8 1.6-2 1.1-.2-.4.4-1.3 1.5-1.9 1.1-.6 2.2-.8 2.5-.3.2.4-.9.5-2 1.1z" class="st32"/></g><g><path d="M80.3 196.7l-1.6.2 1.1 1.3z" class="st27"/><path d="M89.9 196.3c-2.5 2.1-7.8 3.2-9.9.7-2.1-2.5-.1-7.6 2.4-9.6s6.2-1.8 8.2.7c2.1 2.4 1.7 6.1-.7 8.2z" class="st26"/><path d="M89.9 196.3c2.2-1.9 2.7-5.1 1.2-7.5 0 0 2.8 8.5-9.3 9.4 2.5.7 6.2-.3 8.1-1.9z" class="st27"/><path d="M83.7 188.3c-1.3.8-2 2-2.3 1.5-.3-.5.5-1.6 1.8-2.4 1.3-.8 2.6-1.1 2.9-.6.3.5-1.1.7-2.4 1.5z" class="st28"/></g><g><path d="M84.6 247.5l-1 .3.9.8z" class="st34"/><path d="M91.3 246.1c-1.5 1.7-5.1 3.1-6.8 1.6-1.7-1.5-.9-5.3.6-7 1.5-1.7 4.1-1.9 5.8-.5 1.6 1.5 1.8 4.1.4 5.9z" class="st33"/><path d="M91.3 246.1c1.3-1.6 1.3-3.9 0-5.4 0 0 2.9 5.6-5.4 7.6 1.8.3 4.2-.9 5.4-2.2z" class="st34"/><path d="M86.5 240.8c-.9.5-1.4 1.3-1.6.9-.2-.4.4-1.1 1.3-1.6s1.8-.6 2-.3-.7.5-1.7 1z" class="st35"/></g></g><path fill="#25bf4c" d="M1127.1 539.6c-53.1 2.9-223.8 46.6-280.8-2.2-36.7-31.5-59.7-70.9-81.9-92.4-66.9-64.4-290.3-130.3-408.7-15.7-30.2 29.2-50.1 61.8-30.5 98.9 2.5 4.6 5.8 8.9 9.8 12.7 27.7-.8 84.7-9.6 97.2-35.6l54 7.8c-18.8 25.6-61.8 45.5-99.2 55.9 42.8 15.8 90.4 26.6 90.4 55.4 0 39.5-331 46.4-339.2-29.5-4.8-44.3 88.3-106.3 101.9-122.9 43.6-53.2 51.4-94.8 3.6-144.3-47.8-49.4-122.4-65.8-188.1-45.4-145.2 45-143.3 147-92.8 218.6 7 9.9 9.9 23.7 4.6 34.7-8.4 17.3-31.9 18.9-51.1 18.1-42.4-1.8-130.2-6-172.6-7.8l-6.4 119.8c57.8-5.8 272.9-16.3 327.6 30.5 48.4 41.4 162.3 62.8 258.1 62.3 150.5 3.3 274.5-90 267-163.5-14-138.4-255-75.9-155.7-146.4 65-46.1 189.4-19.3 245.3 14 11.7 7 23.2 15.1 31 26.3 7.8 11.2 11.4 26.1 6.4 38.8-5.6 14.1-20 22.4-33.9 28.6-13.8 6-28.4 10.7-43.3 14.2-20.4 4.8-22.4 33.1-2.8 40.5.2.1.3.1.5.2 15.3 5.6 32.1 5 48.1 2.8 16.1-2.2 32-6 48.2-6.5 36.6-1.2 73.4 9.5 106.1 26 120.4 60.7 229.3-20.1 287.4-70.9l-.2-23z" clip-path="url(#SVGID_16_)"/><path fill="#876f2d" d="M466.2 530.3c2.5.3 5 .7 7.6 1 4.2.5 8.5 1.1 12.8 1.7 30.2 4.2 61.5 11.2 77.9 37.2 9.9 15.7 11.2 34.8 3.8 55.3-13 36.3-50.5 69.4-95.6 84.3-52.9 17.5-110.9 26.8-167.6 26.8-47 0-90.8-6.3-129.9-18.8-50.4-16.1-107.4-53.1-116.5-108.7-4.7-28.7 11.4-60.3 46.5-91.4 11.8-10.5 24.6-20 37-29.2 14.5-10.8 29.5-22 42.8-34.6 32-30.5 45.3-69.3 33.8-98.9-11.3-29.2-45.6-45.8-96.5-46.9-2 0-4-.1-6-.1C40 308 9.6 337.1-2.3 361.6c-16.4 33.4-5.4 72.3 11.7 94.3 20.5 26.4 31.3 51 32.3 72.9.8 19.1-5.8 37-19.6 53.1-24.6 28.5-73.7 32.2-113.7 32.2-70.1 0-158.9-3.8-159.4-3.9l-8.6-.3 2.3-54.3 7.3.8c.4.1 85.1 7.8 162.2 7.8 59.5 0 77.1-13.9 81.4-25.5 6.3-17.2-7.6-40.3-22.3-64.9-17.4-29.1-35.4-59.2-25.1-86.6 13-34.3 36.7-62.1 68.6-80.4 28.1-16.1 61.6-24.6 96.8-24.6 60.2 0 112.4 25 129.9 62.2 21.8 46.5 17.5 65.9-7.7 104.4-11.7 18-32.8 35.5-55.1 54.1-34.1 28.4-69.5 57.8-73.4 90.5-2.1 17.6 8.9 32.9 32.6 45.4 23.6 12.4 54 18.9 70 21.7 47.9 8.3 89.3 12.3 126.8 12.3 45.1 0 84.8-5.7 121.3-17.3 54.1-17.3 80-38.7 73.7-61.7-8.6-31.5-67-34-68.8-34.3l5.3-29.2z" clip-path="url(#SVGID_16_)"/><path fill="#d4af4e" d="M462.9 556.2c26.5 3 64 11.1 70.6 37.1 9.3 36.6-50.4 58-76.3 66.3-79.8 25.5-167.3 19.4-249.9 5.2-43.4-7.5-111.1-27.6-105.8-71.4 6.7-56.1 99.8-101.4 129.1-146.3 24.7-37.8 28.4-56.1 7.4-100.7-37.6-80-236.9-93.1-288.2 42.5-18.4 48.7 62 111.5 47.4 151.4-10.1 27.4-67.3 28-85 28-78.4 0-169.7-8.9-169.7-8.9l-1.9 45.6s97 5.3 167.8 5.3c37.1 0 86.6-2.8 110.8-30.8 24.2-28.1 29.9-66-12.8-121.2-39.3-50.8-33.1-157 116.1-154.1 125.3 2.5 125.3 95.3 65.3 152.4-24.7 23.5-54.4 41.2-79.9 63.9s-50.7 54.2-45.2 87.9c9.1 56.3 69.1 91.4 113.9 105.7 91.6 29.2 203.9 22.2 295.1-8 71.8-23.8 116.6-91.2 89.7-133.9-16-25.4-55.8-34.3-86.4-38.4l-12.1 22.4z" clip-path="url(#SVGID_16_)"/><path fill="#f2f2f2" d="M282 286l-27.1 17.1 24.2 5.5-.6-4.7 37.3-12.4.3 25.4 15.4-11.3 18.3 26.5-4-30.6 16.5-1.1-2.6-12.1 6.1-1.9s8.7 23.8 8.7 22.1v-19.6l10.3 4.2 12.2 23.7-5.5-19.9 36.1 13.4-1.4-1.8c-40.4-27.8-75.2-50-83.1-50-8.4.2-33.9 12.7-61.1 27.5z" clip-path="url(#SVGID_16_)"/><g class="st506"><defs><path id="SVGID_35_" d="M1172.3 533.4c-114.2 0-201.1 9.5-250.8-9.7-120.5-46.4-109.7-187-335.6-187-112.5 0-152 34.6-242.8 34.6-50.5 0-110.5-99.8-217.5-99.8-198.1 0-192.8 154.3-355.8 168.3-13.8 1.2-24.5 12.8-24.5 26.6 0 49.7-3.5 97.2-5 143.6-2.7 82.2-6.3 150 21.7 172 38.4 17.2 180.1-25.9 305.9.4 182.3 38.2 240.5 16.6 427.6 6.4 112.3-6.1 275.8-9.3 330.2-8.7 161.5 1.7 308.4 26.6 335.1 1.9 25.8-23.8 24.7-148.8 11.5-248.6z"/></defs><clipPath id="SVGID_18_"><use overflow="visible" xlink:href="#SVGID_35_"/></clipPath></g><path fill="#ff882a" d="M671.5 173.6s-68.4-13.9-234.1-1c-95.7 7.4-229.4-1.8-229.4-1.8l31.6 28-29.9 27.8s95.1 11.5 222.3 2.2c127.9-9.3 239.5-1.6 239.5-1.6v-53.6z" clip-path="url(#SVGID_16_)"/><g class="st506"><path d="M366.6 180.9c.8 0 1.2 0 2-.1-.1 6-.2 9-.3 15.1-.8 0-1.2 0-2 .1.1-4.6.1-7 .2-11.6-3.1 4.7-4.6 7.1-7.7 11.8h-2c.1-6 .2-9 .3-15.1h2c-.1 4.6-.1 7-.2 11.6 3.1-4.7 4.7-7.1 7.7-11.8zM380.8 195.5c-.8 0-1.1 0-1.9.1 0-1.9.1-2.9.1-4.8-2.1.1-3.1.1-5.1.2 0 1.9-.1 2.9-.1 4.8-.8 0-1.2 0-1.9.1.1-4.5.1-6.7.2-11.2.8 0 1.2 0 1.9-.1 0 1.9-.1 2.9-.1 4.9 2.1-.1 3.1-.1 5.1-.2 0-1.9.1-2.9.1-4.9.8 0 1.1 0 1.9-.1-.1 4.5-.1 6.7-.2 11.2zM392.4 185.5c-1.5.1-2.3.1-3.8.1-.1 3.9-.1 5.8-.2 9.6-.8 0-1.1 0-1.9.1.1-3.9.1-5.8.2-9.6-1.5 0-2.2.1-3.7.1v-1.6c3.7-.1 5.6-.2 9.4-.3v1.6zM397.9 195.2c-1.5.1-2.7-.4-3.7-1.4-.9-1-1.4-2.3-1.3-4v-.4c0-1.1.3-2.1.7-3 .4-.9 1.1-1.6 1.8-2.1.8-.5 1.6-.8 2.5-.8 1.5 0 2.6.4 3.4 1.3.8.9 1.2 2.3 1.1 4.1v.8c-3 .1-4.6.2-7.6.3 0 1.1.3 2 .9 2.6.6.7 1.4 1 2.3.9.7 0 1.3-.2 1.7-.5.5-.3.9-.7 1.3-1.1.5.3.7.5 1.2.9-1 1.5-2.4 2.3-4.3 2.4zm0-10.1c-.8 0-1.4.3-2 .9-.5.6-.9 1.4-1 2.4 2.2-.1 3.4-.1 5.6-.2v-.1c0-1-.3-1.7-.7-2.2s-1.1-.8-1.9-.8zM414.1 188.9c0 1.7-.5 3.1-1.3 4.2s-1.9 1.6-3.2 1.7c-1.4 0-2.4-.3-3.2-1.2 0 2.2-.1 3.2-.1 5.4-.8 0-1.1 0-1.9.1.1-6.2.2-9.3.3-15.5.7 0 1.1 0 1.8-.1 0 .5 0 .7.1 1.2.8-1 1.9-1.5 3.3-1.6 1.3 0 2.4.4 3.2 1.4.8 1 1.1 2.4 1.1 4.2-.1.1-.1.1-.1.2zm-1.9-.1c0-1.3-.2-2.2-.7-3-.5-.7-1.3-1-2.2-1-1.2 0-2 .6-2.6 1.6 0 2.1-.1 3.2-.1 5.3.6 1 1.4 1.5 2.6 1.4.9 0 1.7-.4 2.2-1.2.4-.6.7-1.7.8-3.1zM423.3 194c-.1-.2-.2-.6-.2-1.2-.9 1-2 1.5-3.2 1.5-1.1 0-2-.2-2.7-.8-.7-.6-1-1.4-1-2.3 0-1.2.5-2.1 1.4-2.8.9-.7 2.2-1 3.8-1.1.7 0 1.1 0 1.9-.1v-.9c0-.7-.2-1.2-.6-1.6-.4-.4-1-.6-1.8-.5-.7 0-1.3.2-1.7.6-.5.4-.7.8-.7 1.3-.8 0-1.2 0-1.9.1 0-.6.2-1.1.6-1.6.4-.5 1-1 1.6-1.3.7-.3 1.4-.5 2.3-.5 1.3 0 2.3.2 3 .9.7.6 1.1 1.5 1.1 2.6 0 2.1-.1 3.1-.1 5.2 0 1 .1 1.8.3 2.4v.2c-.9-.1-1.3-.1-2.1-.1zm-3.1-1.3c.6 0 1.2-.2 1.7-.5s.9-.8 1.2-1.3v-2.3c-.6 0-.9 0-1.5.1-2.3.1-3.5.8-3.6 2.2 0 .6.2 1.1.6 1.4.4.3.9.4 1.6.4zM436.3 183.9c-1.5.1-2.3.1-3.8.1-.1 3.9-.1 5.8-.2 9.6-.8 0-1.1 0-1.9.1.1-3.9.1-5.8.2-9.6-1.5.1-2.2.1-3.7.1v-1.6c3.7-.1 5.6-.2 9.4-.4v1.7zM445.4 182c.8 0 1.1 0 1.9-.1-.1 4.5-.1 6.7-.2 11.2-.8 0-1.2 0-1.9.1.1-3.3.1-4.9.2-8.2-2.1 3.3-3.2 5-5.3 8.4-.8 0-1.1 0-1.9.1.1-4.5.1-6.7.2-11.2.8 0 1.1 0 1.9-.1-.1 3.3-.1 4.9-.2 8.2 2.1-3.4 3.2-5.1 5.3-8.4zM450.4 193c.1-4.5.1-6.7.2-11.2 1.7-.1 2.6-.1 4.4-.2 1.5-.1 2.6.2 3.4.6.8.5 1.2 1.2 1.1 2.2 0 .5-.2 1-.5 1.4-.3.4-.8.8-1.4 1 .7.1 1.2.4 1.6.9.4.4.6 1 .6 1.6 0 1-.4 1.8-1.2 2.4-.8.6-1.8.9-3.2.9-2 .2-3 .3-5 .4zm2-6.6c1 0 1.5-.1 2.5-.1 1.8-.1 2.7-.6 2.7-1.7 0-1-.8-1.6-2.5-1.5-1 0-1.6.1-2.6.1 0 1.3 0 2-.1 3.2zm0 1.6c0 1.3 0 2-.1 3.4 1.3-.1 1.9-.1 3.2-.1.8 0 1.4-.2 1.8-.5.4-.3.6-.7.6-1.3 0-1.1-.8-1.6-2.4-1.6-1.2 0-1.9 0-3.1.1zM471.5 192.1c-.8 0-1.1 0-1.9.1 0-1.9.1-2.9.1-4.8-2.1.1-3.1.1-5.1.2 0 1.9-.1 2.9-.1 4.8-.8 0-1.2 0-1.9.1.1-4.5.1-6.7.2-11.2.8 0 1.2 0 1.9-.1 0 1.9-.1 2.9-.1 4.9 2.1-.1 3.1-.1 5.1-.2 0-1.9.1-2.9.1-4.9.8 0 1.1 0 1.9-.1-.1 4.5-.1 6.7-.2 11.2zM481.5 191.7c-.1-.2-.2-.6-.2-1.2-.9 1-2 1.5-3.2 1.5-1.1 0-2-.2-2.7-.8-.7-.6-1-1.4-1-2.3 0-1.2.5-2.1 1.4-2.8.9-.7 2.2-1.1 3.8-1.1.7 0 1.1 0 1.9-.1v-.9c0-.7-.2-1.2-.6-1.6-.4-.4-1-.6-1.8-.5-.7 0-1.3.2-1.7.6-.5.4-.7.8-.7 1.3-.8 0-1.2 0-1.9.1 0-.6.2-1.1.6-1.6.4-.5 1-1 1.6-1.3s1.4-.5 2.3-.5c1.3-.1 2.3.2 3 .8.7.6 1.1 1.5 1.1 2.6 0 2.1-.1 3.1-.1 5.2 0 1 .1 1.8.3 2.4v.2h-2.1zm-3.2-1.3c.6 0 1.2-.2 1.7-.5s.9-.8 1.2-1.3v-2.3c-.6 0-.9 0-1.5.1-2.3.1-3.5.8-3.6 2.2 0 .6.2 1.1.6 1.4.5.3 1 .4 1.6.4zM494.9 180c-.1 4.5-.1 6.7-.2 11.2-.8 0-1.2 0-1.9.1 0-1.7.1-2.6.1-4.4-1.2 0-1.7.1-2.9.1-1.1 1.8-1.6 2.7-2.7 4.5-.8 0-1.2 0-2.1.1 1.2-1.9 1.7-2.9 2.9-4.8-.7-.2-1.3-.6-1.6-1.2-.4-.5-.6-1.2-.5-1.9 0-1 .4-1.9 1.2-2.5.8-.7 1.8-1 3.1-1.1 1.8 0 2.7 0 4.6-.1zm-7.1 3.7c0 .5.2 1 .5 1.3.4.3.9.5 1.5.5 1.2 0 1.8-.1 3-.1 0-1.5 0-2.2.1-3.7-1.1 0-1.7.1-2.8.1-.7 0-1.3.2-1.7.6-.3.3-.6.8-.6 1.3zM506.6 186c-.6 0-.8 0-1.4.1 0 1.9-.1 2.9-.1 4.8-.8 0-1.2 0-1.9.1.1-4.5.1-6.7.2-11.2.8 0 1.2 0 1.9-.1 0 1.9-.1 2.8-.1 4.7h1.3c1.5-2 2.3-2.9 3.9-4.9.9 0 1.4 0 2.3-.1l-4.5 5.5c1.9 2.3 2.8 3.4 4.7 5.6-1 0-1.5.1-2.4.1-1.6-1.8-2.4-2.7-3.9-4.6zM521.4 190.3c-.1-.2-.2-.6-.2-1.2-.9 1-2 1.5-3.2 1.5-1.1 0-2-.2-2.7-.8-.7-.6-1-1.4-1-2.3 0-1.2.5-2.1 1.4-2.8.9-.7 2.2-1 3.8-1.1.7 0 1.1 0 1.9-.1v-.9c0-.7-.2-1.2-.6-1.6-.4-.4-1-.6-1.8-.5-.7 0-1.3.2-1.7.6-.5.4-.7.8-.7 1.3-.8 0-1.2 0-1.9.1 0-.6.2-1.1.6-1.6.4-.5 1-1 1.6-1.3.7-.3 1.4-.5 2.3-.5 1.3 0 2.3.2 3 .9.7.6 1.1 1.5 1.1 2.6 0 2.1-.1 3.1-.1 5.2 0 1 .1 1.8.3 2.4v.2c-.9-.2-1.3-.2-2.1-.1zm-3.2-1.4c.6 0 1.2-.2 1.7-.5s.9-.7 1.2-1.3v-2.3c-.6 0-.9 0-1.5.1-2.3.1-3.5.8-3.6 2.2 0 .6.2 1.1.6 1.4.5.3 1 .4 1.6.4z" class="st69"/><path d="M270.7 214.7h-2.8c-.1 2.8-.1 4.2-.1 7.1-1.6 0-2.4 0-4-.1.1-7 .2-10.5.4-17.5 1.6 0 2.4 0 4 .1-.1 2.8-.1 4.3-.1 7.1h2.9c1.9-2.8 2.9-4.2 4.8-7 1.7 0 2.6 0 4.3.1-2.4 3.4-3.5 5-5.9 8.4 2.3 3.7 3.4 5.5 5.7 9.1-1.8 0-2.8 0-4.6-.1-1.9-2.9-2.8-4.4-4.6-7.2z" class="st75"/><path d="M293.2 218.2h-8.1c-.7 1.5-1 2.2-1.6 3.7h-4.2c3.3-7 4.9-10.5 8.2-17.5h4l7.5 17.5h-4.3c-.6-1.5-.9-2.2-1.5-3.7zm-1.2-3.1c-1.1-2.7-1.6-4-2.6-6.7-1.2 2.7-1.8 4-2.9 6.7h5.5zM308.2 214.9h-2.8c-.1 2.8-.1 4.2-.1 7.1h-4c.1-7 .2-10.5.4-17.5h4c-.1 2.8-.1 4.3-.1 7.1h2.9c1.9-2.8 2.9-4.3 4.8-7.1h4.3c-2.4 3.4-3.5 5.1-5.9 8.5 2.3 3.6 3.4 5.4 5.7 9h-4.6c-1.9-2.9-2.8-4.3-4.6-7.1zM341.6 214c.6.7.8 1.6.8 2.6 0 1.6-.6 2.8-1.8 3.7-1.2.9-2.9 1.4-5.1 1.4-3.5.1-5.2.1-8.6.1.1-7 .2-10.5.4-17.5 3.3 0 4.9-.1 8.2-.1 2 0 3.6.3 4.7 1.1s1.7 1.9 1.6 3.3c0 .9-.3 1.6-.7 2.3-.4.7-1.1 1.2-1.9 1.6 1 .2 1.8.7 2.4 1.5zm-10.5-2.5c1.5 0 2.3 0 3.8-.1.9 0 1.6-.2 2-.6.5-.4.7-.9.7-1.6 0-.7-.2-1.2-.7-1.6-.5-.4-1.1-.5-2-.5-1.5 0-2.3 0-3.8.1v4.3zm7.2 4.8c0-1.5-.9-2.2-2.8-2.1-1.8 0-2.7 0-4.5.1 0 1.8-.1 2.7-.1 4.4 1.8 0 2.7 0 4.5-.1 1.9 0 2.8-.8 2.9-2.3zM359.1 210.8c1.1.9 1.7 2.3 1.6 4.2 0 2-.7 3.5-2 4.6-1.3 1.1-3.1 1.6-5.4 1.7-3.2.1-4.8.1-7.9.2.1-7 .2-10.5.4-17.5 1.6 0 2.4 0 4-.1 0 2.3-.1 3.5-.1 5.8 1.8 0 2.7-.1 4.5-.1 2.2-.1 3.8.3 4.9 1.2zm-3.4 6.7c.6-.5.9-1.3.9-2.3 0-1.8-1.1-2.7-3.3-2.7-1.5 0-2.2 0-3.7.1 0 2.3-.1 3.5-.1 5.8 1.5 0 2.2 0 3.7-.1 1.1 0 1.9-.3 2.5-.8zm7.5-14c1.6 0 2.4-.1 4-.1-.1 7-.2 10.5-.4 17.5-1.6 0-2.4.1-4 .1.2-6.9.3-10.5.4-17.5zM371.6 203.3c5.7-.2 8.5-.2 14.2-.4 0 1.3 0 1.9-.1 3.2-4.1.1-6.1.2-10.1.3 0 1.4 0 2.2-.1 3.6 1.9-.1 2.9-.1 4.9-.1 2.1-.1 3.7.3 4.8 1.2 1.1.9 1.6 2.1 1.6 3.8 0 1.8-.7 3.1-1.9 4.1-1.3 1-3 1.5-5.3 1.6-3.3.1-5 .2-8.3.2.1-7 .2-10.5.3-17.5zm7.8 14.3c1 0 1.8-.3 2.4-.7.6-.4.8-1 .9-1.8 0-1.5-1-2.3-3.2-2.2-1.6 0-2.4.1-4.1.1 0 1.9-.1 2.8-.1 4.7 1.7 0 2.5-.1 4.1-.1zM401.7 203.1c1.1.5 2 1.2 2.6 2.1.6.9.9 2 .9 3.3 0 1.3-.4 2.4-1 3.4s-1.5 1.7-2.7 2.3c-1.2.6-2.5.9-4.1.9-1.4 0-2.1.1-3.5.1 0 1.9-.1 2.9-.1 4.8-1.6.1-2.4.1-4.1.1.1-7 .2-10.5.4-17.5 3-.1 4.6-.2 7.6-.3 1.6.1 2.9.3 4 .8zm-1.6 7.9c.6-.5 1-1.3 1-2.3 0-1-.3-1.7-.9-2.2-.6-.5-1.5-.7-2.8-.7-1.3 0-2 .1-3.3.1 0 2.4-.1 3.7-.1 6.1 1.3 0 2-.1 3.3-.1 1.2-.1 2.1-.4 2.8-.9zM418.7 215.5c-3.3.1-4.9.2-8.1.3-.7 1.5-1 2.3-1.6 3.8-1.7.1-2.5.1-4.2.2 3.3-7.1 4.9-10.7 8.2-17.8 1.6-.1 2.4-.1 4-.1 3 6.9 4.5 10.3 7.5 17.2-1.7.1-2.6.1-4.3.2-.6-1.6-.9-2.3-1.5-3.8zm-1.2-3.1c-1.1-2.6-1.6-4-2.6-6.6-1.2 2.7-1.8 4.1-2.9 6.8 2.2 0 3.3-.1 5.5-.2zM439.6 204.2c-2.2.1-3.4.1-5.6.2-.1 5.7-.2 8.5-.3 14.2-1.6.1-2.4.1-4 .2.1-5.7.2-8.5.3-14.2-2.2.1-3.4.1-5.6.2 0-1.3 0-2 .1-3.3 6.1-.2 9.1-.4 15.2-.6 0 1.3 0 2-.1 3.3zM455.5 207.4c1.1.9 1.7 2.3 1.6 4.2 0 2-.7 3.5-2 4.6-1.3 1.1-3.1 1.7-5.4 1.8-3.2.1-4.8.2-7.9.3.1-7 .2-10.5.4-17.5 1.6-.1 2.4-.1 4-.2 0 2.3-.1 3.5-.1 5.8 1.8-.1 2.7-.1 4.5-.2 2.2-.1 3.8.3 4.9 1.2zm-3.3 6.7c.6-.5.9-1.3.9-2.3 0-1.8-1.1-2.7-3.3-2.6-1.5.1-2.2.1-3.7.1 0 2.3-.1 3.5-.1 5.8 1.5-.1 2.2-.1 3.7-.1 1 0 1.9-.3 2.5-.9zM483.4 199.2c-.1 7-.2 10.5-.4 17.5-1.6.1-2.4.1-4 .2.1-5.7.2-8.5.3-14.2-3.2.1-4.8.2-7.9.3-.1 5.7-.2 8.5-.3 14.2-1.6.1-2.4.1-4 .2.1-7 .2-10.5.4-17.5 6.3-.4 9.5-.5 15.9-.7zM499.4 199.3c1.1.5 2 1.2 2.6 2.1.6.9.9 2 .9 3.3 0 1.3-.4 2.4-1 3.4s-1.5 1.8-2.7 2.3c-1.2.6-2.5.9-4.1.9-1.4.1-2.1.1-3.5.1 0 1.9-.1 2.9-.1 4.8-1.6.1-2.4.1-4.1.2.1-7 .2-10.5.4-17.5 3-.1 4.6-.2 7.6-.3 1.6 0 2.9.2 4 .7zm-1.6 7.9c.6-.5 1-1.3 1-2.3 0-1-.3-1.7-.9-2.2-.6-.5-1.5-.7-2.8-.7-1.3 0-2 .1-3.3.1 0 2.4-.1 3.7-.1 6.1 1.3-.1 2-.1 3.3-.1 1.2-.1 2.1-.4 2.8-.9zM509.1 214.8c-1.4-.7-2.6-1.8-3.4-3.1-.8-1.3-1.2-2.9-1.1-4.6s.5-3.3 1.3-4.7c.9-1.4 2-2.5 3.5-3.4 1.5-.8 3.1-1.3 5-1.4 1.8-.1 3.5.3 4.9 1 1.4.7 2.6 1.8 3.4 3.1.8 1.3 1.2 2.9 1.2 4.6 0 1.7-.5 3.3-1.3 4.7-.9 1.4-2 2.5-3.5 3.4-1.5.8-3.1 1.3-4.9 1.3-2.1.2-3.7-.1-5.1-.9zm7.8-3.2c.8-.5 1.5-1.2 2-2.1.5-.9.8-1.8.8-2.9 0-1.1-.2-2-.7-2.9-.5-.8-1.1-1.5-1.9-1.9-.8-.4-1.8-.7-2.8-.6-1 0-2 .3-2.8.8-.8.5-1.5 1.2-2 2.1-.5.9-.8 1.8-.8 2.9 0 1.1.2 2 .7 2.9.5.8 1.1 1.5 1.9 1.9.8.4 1.8.7 2.8.6 1-.1 1.9-.3 2.8-.8z" class="st75"/></g></g></svg>