<?xml version="1.0" encoding="utf-8"?>
<!-- Generator: Adobe Illustrator 22.1.0, SVG Export Plug-In . SVG Version: 6.00 Build 0)  -->
<svg version="1.1" id="Sign" xmlns="http://www.w3.org/2000/svg" xmlns:xlink="http://www.w3.org/1999/xlink" x="0px" y="0px"
	 viewBox="0 0 453.2 254.9" style="enable-background:new 0 0 453.2 254.9;" xml:space="preserve">
<style type="text/css">
	.st0{clip-path:url(#SVGID_2_);fill:#FFFFFF;}
	.st1{clip-path:url(#SVGID_4_);fill:#C5E5E5;}
	.st2{opacity:0.21;clip-path:url(#SVGID_6_);fill:#FFFFFF;enable-background:new    ;}
	.st3{clip-path:url(#SVGID_8_);fill:#B3B3B3;}
	.st4{clip-path:url(#SVGID_10_);fill:#A6A6A6;}
	.st5{clip-path:url(#SVGID_12_);fill:#999999;}
	.st6{clip-path:url(#SVGID_14_);fill:#A6A6A6;}
	.st7{clip-path:url(#SVGID_16_);fill:#999999;}
	.st8{clip-path:url(#SVGID_18_);fill:#A6A6A6;}
	.st9{clip-path:url(#SVGID_20_);fill:#E6E6E6;}
	.st10{clip-path:url(#SVGID_22_);fill:#90C975;}
	.st11{clip-path:url(#SVGID_24_);fill:#D4AE46;}
	.st12{clip-path:url(#SVGID_26_);fill:#EBCC7A;}
	.st13{clip-path:url(#SVGID_28_);fill:#D4AE46;}
	.st14{clip-path:url(#SVGID_30_);fill:#EBCC7A;}
	.st15{clip-path:url(#SVGID_32_);fill:#65A14B;}
	.st16{clip-path:url(#SVGID_34_);fill:#7A91E6;}
	.st17{opacity:0.49;clip-path:url(#SVGID_36_);fill:#65A14B;enable-background:new    ;}
	.st18{clip-path:url(#SVGID_38_);fill:#A1ABD6;}
	.st19{clip-path:url(#SVGID_40_);fill:#A1ABD6;}
	.st20{clip-path:url(#SVGID_42_);fill:#A1ABD6;}
	.st21{clip-path:url(#SVGID_44_);fill:#A1ABD6;}
	.st22{clip-path:url(#SVGID_46_);}
	.st23{fill:#E6C263;}
	.st24{fill:#9F8644;}
	.st25{fill:#FFDF8D;}
	.st26{clip-path:url(#SVGID_48_);fill:#7A91E6;}
	.st27{opacity:0.49;clip-path:url(#SVGID_50_);fill:#65A14B;enable-background:new    ;}
	.st28{clip-path:url(#SVGID_52_);}
	.st29{fill:#73B856;}
	.st30{fill:#83D162;}
	.st31{clip-path:url(#SVGID_54_);}
	.st32{clip-path:url(#SVGID_56_);}
	.st33{fill:#A66C78;}
	.st34{fill:#864A54;}
	.st35{clip-path:url(#SVGID_58_);}
	.st36{opacity:0.39;fill:#1A1A1A;enable-background:new    ;}
	.st37{fill:#A16975;}
	.st38{fill:#C4808E;}
	.st39{fill:#B0727F;}
	.st40{clip-path:url(#SVGID_60_);fill:#F7F7F7;}
	.st41{clip-path:url(#SVGID_62_);fill:#65A14B;}
	.st42{clip-path:url(#SVGID_64_);}
	.st43{fill:#96CD7C;}
	.st44{fill:#9AD17D;}
	.st45{fill:#84CB66;}
	.st46{fill:#A7A6F6;}
	.st47{fill:#A099E9;}
	.st48{fill:#BEBEFC;}
	.st49{fill:#FFDF57;}
	.st50{fill:#E9CA25;}
	.st51{fill:#ABD796;}
	.st52{fill:#75AEB9;}
	.st53{fill:#4E9DA3;}
	.st54{fill:#91BEC7;}
	.st55{fill:#F9E698;}
	.st56{clip-path:url(#SVGID_66_);}
	.st57{fill:none;stroke:#000000;stroke-width:1.0582;stroke-miterlimit:10;}
</style>
<g>
	<g>
		<defs>
			<rect id="SVGID_1_" y="0" width="453.2" height="254.9"/>
		</defs>
		<clipPath id="SVGID_2_">
			<use xlink:href="#SVGID_1_"  style="overflow:visible;"/>
		</clipPath>
		<rect x="-454.1" y="-254.9" class="st0" width="1363" height="766.7"/>
	</g>
	<g>
		<defs>
			<rect id="SVGID_3_" y="0" width="453.2" height="254.9"/>
		</defs>
		<clipPath id="SVGID_4_">
			<use xlink:href="#SVGID_3_"  style="overflow:visible;"/>
		</clipPath>
		<path class="st1" d="M492.2-133.2c-102.1-60.6-176.7,92.3-338.6,7.4C113.1-146.9,58-184.6,0.4-184.6c-68.3,0-92.6,61.4-180.6,99.6
			c-47.1,20.5-123.1-6.2-173.4,33.6c-49.2,39-74.8,127.7-74.8,188.2c0,86.3,28.5,93.8,60.3,149.7c31.6,55.4,85.3,27.2,167.9,26.5
			c75.7-0.6,177.3,28.3,277.4,28.3c100.3,0,179.6-12.4,273.8-49.8c55.4-22,148.2,10.1,206.2,21.5c124.7,24.5,304.3,54.7,326.7-110.9
			c0-79.6-7.9-216.3-124.8-247.3C706.1-59.3,670.8-27.2,492.2-133.2z"/>
	</g>
	<g>
		<defs>
			<rect id="SVGID_5_" y="0" width="453.2" height="254.9"/>
		</defs>
		<clipPath id="SVGID_6_">
			<use xlink:href="#SVGID_5_"  style="overflow:visible;"/>
		</clipPath>
		<path class="st2" d="M870.6,93.7L568.8,78l292.6-17.8c-0.4-1.1-0.8-2.3-1.2-3.4l-1276-15.2c-0.7,2.2-1.4,4.4-2.1,6.6l137.2,15.2
			L-425,74.7c-0.1,0.4-0.2,0.9-0.3,1.3l110.3,8.4l-113,5.1c-0.3,1.5-0.5,3-0.8,4.4l78.1,16.4l-81.8,26.7
			c6.8,9.4,52.9,136.6,60.3,149.7c31.6,55.4,85.3,27.2,167.9,26.5c75.7-0.6,177.3,28.3,277.4,28.3c100.3,0,179.6-12.4,273.8-49.8
			c50.8-20.2,133.3,5.2,191.3,18.4l313.3-33.2c4.3-5.6,8.1-11.8,11.6-18.5l-147.9-29.5L879.7,188c-0.2-13.1-0.7-27.4-1.9-42.2
			l-12.1-9.3l10.4-7.7C874.9,117,873.1,105.3,870.6,93.7z"/>
	</g>
	<g>
		<defs>
			<rect id="SVGID_7_" y="0" width="453.2" height="254.9"/>
		</defs>
		<clipPath id="SVGID_8_">
			<use xlink:href="#SVGID_7_"  style="overflow:visible;"/>
		</clipPath>
		<path class="st3" d="M-49.2,99.1h390.1c0,0-165.2-138.7-181.5-138.7c-6.6,0-26.4,11-47.5,24L-49.2,99.1z"/>
	</g>
	<g>
		<defs>
			<rect id="SVGID_9_" y="0" width="453.2" height="254.9"/>
		</defs>
		<clipPath id="SVGID_10_">
			<use xlink:href="#SVGID_9_"  style="overflow:visible;"/>
		</clipPath>
		<polygon class="st4" points="215.3,71.2 194.3,22.5 191.8,5.1 204.7,25 229.8,29.8 221.1,15.2 236.4,16.8 282.2,50.9 240.2,69.1 
					"/>
	</g>
	<g>
		<defs>
			<rect id="SVGID_11_" y="0" width="453.2" height="254.9"/>
		</defs>
		<clipPath id="SVGID_12_">
			<use xlink:href="#SVGID_11_"  style="overflow:visible;"/>
		</clipPath>
		<polygon class="st5" points="157.1,-32.5 118.2,10.8 122.8,18.8 95,54.5 101.2,58.8 131.8,19.2 126,10.9 		"/>
	</g>
	<g>
		<defs>
			<rect id="SVGID_13_" y="0" width="453.2" height="254.9"/>
		</defs>
		<clipPath id="SVGID_14_">
			<use xlink:href="#SVGID_13_"  style="overflow:visible;"/>
		</clipPath>
		<polygon class="st6" points="61.5,23.1 82.1,9.5 84.6,18.1 96.3,10.8 105.6,16.6 99.3,23.1 98.5,31.1 116.8,20.9 97.4,50.2 		"/>
	</g>
	<g>
		<defs>
			<rect id="SVGID_15_" y="0" width="453.2" height="254.9"/>
		</defs>
		<clipPath id="SVGID_16_">
			<use xlink:href="#SVGID_15_"  style="overflow:visible;"/>
		</clipPath>
		<polygon class="st7" points="205.4,81.3 174.9,-18.8 216.8,85.8 		"/>
	</g>
	<g>
		<defs>
			<rect id="SVGID_17_" y="0" width="453.2" height="254.9"/>
		</defs>
		<clipPath id="SVGID_18_">
			<use xlink:href="#SVGID_17_"  style="overflow:visible;"/>
		</clipPath>
		<polygon class="st8" points="111.6,57.2 133.2,24.5 135.3,35.6 145.8,19.2 151.5,28.4 178.2,39.5 172.5,13.9 184.5,25.1 200,76.2 
			147.6,80.2 		"/>
	</g>
	<g>
		<defs>
			<rect id="SVGID_19_" y="0" width="453.2" height="254.9"/>
		</defs>
		<clipPath id="SVGID_20_">
			<use xlink:href="#SVGID_19_"  style="overflow:visible;"/>
		</clipPath>
		<path class="st9" d="M231.5,10.2c-34.5-27-65.5-49.7-72.1-49.7s-26.4,11-47.5,24L82.1,5.7l38.7,1.8l-5.8-5l18-6.3l2.9,33.7
			l11.4-18.6l7.6,15.3l17.5,7.3l-5.3-28.3l11.7-1.8l11.6,20.5l-2.8-32l19,30.9l12.9,3.4l-14.3-21l26.9,5.7L231.5,10.2z"/>
	</g>
	<g>
		<defs>
			<rect id="SVGID_21_" y="0" width="453.2" height="254.9"/>
		</defs>
		<clipPath id="SVGID_22_">
			<use xlink:href="#SVGID_21_"  style="overflow:visible;"/>
		</clipPath>
		<path class="st10" d="M446.4,329.6c-86.9,0-155.7,93.2-324.2,93.2c-172.6,0-227.3-121.5-337.1-91.9
			c-160.3,43.2-213.6-121.3-213.6-172.2c0,0,73.1-11.5,115.2-39.4c81.9-54.1,117-141,256.7-141c88.3,0,158,64.1,199.3,69.5
			c79.9,10.4,94.1-12.8,217.1-27.2c148.7-17.4,172.9,152.7,291.8,184c0,0,93.7,0.4,194.4,0.4c18.8,0,37.9-2.9,37.9-2.9
			c-5.3,80.3-88.3,171.1-157.6,181.4C609.8,401.1,521.3,329,446.4,329.6z"/>
	</g>
	<g>
		<defs>
			<rect id="SVGID_23_" y="0" width="453.2" height="254.9"/>
		</defs>
		<clipPath id="SVGID_24_">
			<use xlink:href="#SVGID_23_"  style="overflow:visible;"/>
		</clipPath>
		<path class="st11" d="M637.3,318.1c-26.1,0-50-4.8-70.9-14.2c-35.9-16.1-67.3-38.9-93.4-67.8c-29.6,26.2-77.7,26.9-83.2,26.9h-0.5
			h-2.8l-1.5-27.4l3-0.1c61.8-2.6,67.9-24.2,69.1-47.9c0.7-14.8-5-42.7-30-68.9c-25.3-26.5-69-55.8-156-55.8
			c-44.5,0-93.9,25.1-105.5,57.3c-6.8,18.7,0.9,44.7,16.2,58.8L151,194c-27-23.4-37.3-126.2,108.1-144.4c87.5-11,163.9,19,206,76.2
			c7.8,10.6,14.4,24.2,21.5,38.7c13.6,28,29.1,59.8,57,76.5c18,10.7,36.5,16.2,54.9,16.2l0,0c41.7,0,71.9-25.3,75.2-40.1
			c1-4.7,1.1-10.7-2.5-12.3c19.9,3.8,125.9,2,201-1.1c-13.9,23.2-48.6,52.8-90.5,74.9C733.2,304,681.9,318.1,637.3,318.1z"/>
	</g>
	<g>
		<defs>
			<rect id="SVGID_25_" y="0" width="453.2" height="254.9"/>
		</defs>
		<clipPath id="SVGID_26_">
			<use xlink:href="#SVGID_25_"  style="overflow:visible;"/>
		</clipPath>
		<path class="st12" d="M178.6,180.5c-46-50.8,0-119.9,101-119.9c141,0,182.2,91.4,180.5,127.1c-1.2,25.8-9.1,48.2-71.9,50.8
			c0.6,10.8,0.6,10.8,1.2,21.6c0,0,53.7,0.8,83.8-28.2c26.6,30,58.2,53.1,94.5,69.3C676.6,350.1,836,259.9,868.9,205
			c-85-0.7-197.6-0.2-197.6-0.2c22.9,13.8-44.5,89.1-129,38.8c-43.2-25.7-56.6-85-79.4-116C410.1,55.9,329,45.2,263.8,50.9
			c-114.7,10-152,96-110.8,141.4L178.6,180.5z"/>
	</g>
	<g>
		<defs>
			<rect id="SVGID_27_" y="0" width="453.2" height="254.9"/>
		</defs>
		<clipPath id="SVGID_28_">
			<use xlink:href="#SVGID_27_"  style="overflow:visible;"/>
		</clipPath>
		<path class="st13" d="M112.6,385.2c-61.7,0-115.9-10.6-156.5-30.5c-37.5-18.4-60.8-43.7-65.6-71.1c-4.6-26.2,11.2-55,45.6-83.4
			c11.6-9.6,24.2-18.3,36.4-26.7c14.3-9.9,29.1-20.2,42.2-31.7c30.6-27.1,44.3-64,34-91.8C38,20.7,3.8,4.1-47.7,3.2
			c-1.9,0-3.8-0.1-5.7-0.1c-60.5,0-102.7,19-118.9,53.6c-12.7,27-7.5,62.7,12.6,86.8s30.8,46.6,31.7,66.6
			c0.8,17.4-5.6,33.7-19.2,48.4c-24,25.9-72.1,29.2-111.3,29.2c-35.2,0-67.9-0.9-117.7-1.7c0,0-17.4-19-30.5-47.9
			c46,4.3,105,9,152,9c59.2,0,76.7-16.9,81-27.8c7.2-18.3-2.9-37.6-14.7-59.9c-10.5-20.1-21.4-40.8-21.4-64.2
			c0-80.1,79.7-108.6,148-108.6c28.5,0,57.2,4.8,80.8,13.6c25.3,9.3,43.5,22.5,52.7,38c21,35.2,17.3,70.3-10.4,98.9
			c-10.8,11.1-26.2,23.2-42.6,35.9c-37.2,29-79.3,61.8-83.8,96.4c-2.1,16.3,8.8,30.5,32.5,42.1c23.3,11.4,53.4,17.4,69.3,20
			c16.6,2.7,38.2,4.1,62.5,4.1c48.1,0,99.6-5.5,137.9-14.6c44.3-10.6,68.6-25.3,68.6-41.5c0-9.7-11.4-21.7-31.2-33.2
			c-17-9.8-38.1-17.6-51.2-19l-5.6-0.6l19.3-22.8l1.8,0.5c63.2,16,92.8,48.6,98.9,71.6c3,11.3-0.4,23.8-9.9,36.1
			C299.7,348.5,216.9,385.2,112.6,385.2z"/>
	</g>
	<g>
		<defs>
			<rect id="SVGID_29_" y="0" width="453.2" height="254.9"/>
		</defs>
		<clipPath id="SVGID_30_">
			<use xlink:href="#SVGID_29_"  style="overflow:visible;"/>
		</clipPath>
		<path class="st14" d="M-149.4,256.5c23.8-25.7,29.5-60.5-12.6-111.1C-200.8,98.9-194.6-2.5-47.6,0.2
			C75.8,2.5,75.8,91.6,16.7,143.9c-24.4,21.6-53.6,37.8-78.7,58.5s-49.9,49.7-44.6,80.6c9,51.6,88.5,99.2,219.2,99.2
			c131.3,0,234.1-59.7,222-105.3c-6-22.7-36-54.1-96.7-69.5l-14.4,17c26.2,2.8,85.1,30.5,85.1,55.1c0,50.2-191.1,68.1-272.5,55.1
			c-42.8-6.9-109.4-25.3-104.2-65.4c6.6-51.4,92.2-97.9,127.2-134.1c23-23.8,33-56.7,10-95.3c-42.1-70.6-276-78.7-276,55.5
			c0,48.5,50.3,88.6,35.9,125.2c-9.9,25.1-66.3,30.7-83.8,30.7c-47.8,0-114-5.1-150.5-9.9c7,14.3,15.7,28.6,26.5,41.7
			c38.4,0.9,85.4,1.8,120.2,1.8C-222,284.7-173.2,282.2-149.4,256.5z"/>
	</g>
	<g>
		<defs>
			<rect id="SVGID_31_" y="0" width="453.2" height="254.9"/>
		</defs>
		<clipPath id="SVGID_32_">
			<use xlink:href="#SVGID_31_"  style="overflow:visible;"/>
		</clipPath>
		<path class="st15" d="M173.8,144.6c-1.2-11.3,3.4-22.6,9.9-30.1s14.9-11.9,23.1-15.4c64.9-28.2,139.1-18,198,27.3
			c6.4,4.9,12.6,10.3,17.3,17.7c4.7,7.5,7.5,17.3,6.1,26.8c-2.5,16.6-16.3,25.3-28.6,31c-27.3,12.8-58.4,23.5-84.3,6.6
			c-9.1-5.9-16.8-14.9-26-20.7c-22-13.8-47.2-7.2-70.6-9.6C203.6,176.5,176.5,169.8,173.8,144.6z"/>
	</g>
	<g>
		<defs>
			<rect id="SVGID_33_" y="0" width="453.2" height="254.9"/>
		</defs>
		<clipPath id="SVGID_34_">
			<use xlink:href="#SVGID_33_"  style="overflow:visible;"/>
		</clipPath>
		<path class="st16" d="M176.8,147.3c-1.2-10.7,3.3-21.4,9.7-28.6c6.4-7.1,14.5-11.3,22.6-14.7c63.4-26.7,135.8-17,193.4,26
			c6.2,4.6,12.3,9.8,16.9,16.8c4.6,7.1,7.4,16.5,6,25.4c-2.5,15.8-16,24-27.9,29.4c-26.6,12.2-57,22.3-82.3,6.2
			c-8.9-5.6-16.4-14.2-25.4-19.6c-21.5-13.1-46.1-6.8-68.9-9.1C205.9,177.6,179.4,171.3,176.8,147.3z"/>
	</g>
	<g>
		<defs>
			<rect id="SVGID_35_" y="0" width="453.2" height="254.9"/>
		</defs>
		<clipPath id="SVGID_36_">
			<use xlink:href="#SVGID_35_"  style="overflow:visible;"/>
		</clipPath>
		<path class="st17" d="M186.5,124.8c6.4-7.1,14.5-11.3,22.6-14.7C272.5,83.3,344.9,93,402.5,136c6.2,4.6,12.3,9.8,16.9,16.8
			c3.2,5,5.6,11.3,6.2,17.7c0.8-8.4-1.9-17.1-6.2-23.7c-4.6-7.1-10.7-12.2-16.9-16.8c-57.6-43-130-52.7-193.4-25.9
			c-8.1,3.4-16.2,7.5-22.6,14.7c-6.3,7-10.7,17.6-9.7,28.2C177.6,138.5,181.4,130.5,186.5,124.8z"/>
	</g>
	<g>
		<defs>
			<rect id="SVGID_37_" y="0" width="453.2" height="254.9"/>
		</defs>
		<clipPath id="SVGID_38_">
			<use xlink:href="#SVGID_37_"  style="overflow:visible;"/>
		</clipPath>
		<path class="st18" d="M392.4,134.6c0,0,43.7,29.6,1.8,55C394.2,189.6,429.4,167.5,392.4,134.6z"/>
	</g>
	<g>
		<defs>
			<rect id="SVGID_39_" y="0" width="453.2" height="254.9"/>
		</defs>
		<clipPath id="SVGID_40_">
			<use xlink:href="#SVGID_39_"  style="overflow:visible;"/>
		</clipPath>
		<path class="st19" d="M221.8,109.2c0,0-36.2,7.2-33.4,41C188.4,150.2,186.9,122.5,221.8,109.2z"/>
	</g>
	<g>
		<defs>
			<rect id="SVGID_41_" y="0" width="453.2" height="254.9"/>
		</defs>
		<clipPath id="SVGID_42_">
			<use xlink:href="#SVGID_41_"  style="overflow:visible;"/>
		</clipPath>
		<path class="st20" d="M301.2,118.8c-1,0,66.8,0,73.9,35C375.1,153.8,378.1,116.3,301.2,118.8z"/>
	</g>
	<g>
		<defs>
			<rect id="SVGID_43_" y="0" width="453.2" height="254.9"/>
		</defs>
		<clipPath id="SVGID_44_">
			<use xlink:href="#SVGID_43_"  style="overflow:visible;"/>
		</clipPath>
		<path class="st21" d="M251.3,159.4c0,0-44.6,1.5-37.6-16.2c6.9-17.7,59.5-18.8,59.5-18.8s-47.8,5.1-53.8,19.8
			C213.4,158.9,251.3,159.4,251.3,159.4z"/>
	</g>
	<g>
		<defs>
			<rect id="SVGID_45_" y="0" width="453.2" height="254.9"/>
		</defs>
		<clipPath id="SVGID_46_">
			<use xlink:href="#SVGID_45_"  style="overflow:visible;"/>
		</clipPath>
		<g class="st22">
			<polygon class="st23" points="392.7,51 357.1,51 360.9,41.4 392.7,41.4 			"/>
			<polygon class="st23" points="423.1,51 458.6,51 453.3,36.6 423.1,36.6 			"/>
			<polygon class="st23" points="426.6,51 387.9,51 392,26.1 422.5,26.1 			"/>
			<polygon class="st24" points="428.9,51 426.6,51 424.2,36.6 426.1,36.6 			"/>
			<polygon class="st24" points="389.5,41.4 387.9,51 385.8,51 387.7,41.4 			"/>
			<polygon class="st25" points="392,26.1 418.6,29.8 426.6,51 422.5,26.1 			"/>
			<polygon class="st25" points="426.1,36.6 453.3,36.6 458.6,51 450.7,39 			"/>
			<polygon class="st25" points="387.7,41.4 360.9,41.4 357.2,51 362.8,43.8 			"/>
			<path class="st24" d="M412,46.4h-8.1v-3.1h2.2v-6.2h-1.4l0.7-3.1h4.6v9.3h2L412,46.4L412,46.4z"/>
			<path class="st24" d="M443.9,46.4l-0.5,2.2h-5.8l3.2-5.5c0.1-0.2,0.2-0.3,0.2-0.5c0-0.1,0.1-0.2,0.1-0.3c0-0.3-0.2-0.5-0.5-0.5
				c-0.2,0-0.3,0-0.4,0.1s-0.1,0.2-0.1,0.4c0,0.1,0,0.2,0,0.3s0,0.2,0.1,0.3l-2.5,0.5c0-0.1-0.1-0.3-0.1-0.6c0-0.2,0-0.5,0-0.6
				c0-0.3,0.1-0.7,0.2-1s0.3-0.6,0.6-0.9c0.3-0.2,0.6-0.4,1-0.6c0.4-0.1,0.8-0.2,1.3-0.2c1,0,1.8,0.2,2.4,0.7c0.5,0.5,0.8,1.1,0.8,2
				c0,0.2-0.1,0.4-0.2,0.8c-0.1,0.3-0.2,0.6-0.4,0.8l-1.5,2.5L443.9,46.4L443.9,46.4z"/>
			<path class="st24" d="M372.7,48.8l0.6-1.4c0.1,0.1,0.3,0.2,0.4,0.2s0.3,0.1,0.4,0.1c0.4,0,0.6-0.2,0.6-0.7c0-0.2-0.1-0.4-0.2-0.5
				s-0.3-0.2-0.6-0.2c-0.1,0-0.1,0-0.2,0s-0.2,0-0.3,0L374,45h-1.1l0.3-1.3h3l-0.8,1.8c0.2,0,0.3,0.1,0.4,0.2
				c0.1,0.1,0.2,0.2,0.3,0.3c0.1,0.1,0.1,0.3,0.2,0.4c0,0.2,0.1,0.3,0.1,0.4c0,0.3,0,0.6-0.1,0.9c-0.1,0.3-0.2,0.5-0.4,0.7
				c-0.2,0.2-0.4,0.3-0.6,0.4c-0.3,0.1-0.5,0.2-0.9,0.2c-0.3,0-0.7,0-1-0.1C373.1,48.9,372.9,48.9,372.7,48.8z"/>
			<polygon class="st25" points="422.5,26.1 392,26.1 387.9,51 396.2,29.8 			"/>
		</g>
	</g>
	<g>
		<defs>
			<rect id="SVGID_47_" y="0" width="453.2" height="254.9"/>
		</defs>
		<clipPath id="SVGID_48_">
			<use xlink:href="#SVGID_47_"  style="overflow:visible;"/>
		</clipPath>
		<path class="st26" d="M211.7,176c-22.6,24.8-78,61.8-138.4,60.8c-33.6-0.6-12.9-53.3,26.3-107c28.1-38.5,76.2-69,94.1-79.8
			l-7.6,0.4c-34.4,18.1-87.3,58.9-130.8,105.8C-1.4,217.1,11.2,258,34.6,266.8c69,26.1,190.4-53.3,206.9-89.5L211.7,176z"/>
	</g>
	<g>
		<defs>
			<rect id="SVGID_49_" y="0" width="453.2" height="254.9"/>
		</defs>
		<clipPath id="SVGID_50_">
			<use xlink:href="#SVGID_49_"  style="overflow:visible;"/>
		</clipPath>
		<path class="st27" d="M209.6,178.2L209.6,178.2c-23.8,24.7-77.7,59.6-136.3,58.6c-22.5-0.4-21.5-26-3.1-60.1
			c-12.8,22.4-25.9,50.3-6.6,62.1C82.7,250.5,165,231.2,209.6,178.2z"/>
	</g>
	<g>
		<defs>
			<rect id="SVGID_51_" y="0" width="453.2" height="254.9"/>
		</defs>
		<clipPath id="SVGID_52_">
			<use xlink:href="#SVGID_51_"  style="overflow:visible;"/>
		</clipPath>
		<g class="st28">
			<path class="st29" d="M431.8,242.7c1.8,0.1,3.5,0,5.1,0.3c4.2,0.8,7,3.6,8.3,7.8c0.4,1.3,0.9,1.7,2.1,1.9c5.4,0.9,9.2,5.4,9.1,11
				c-37.9,0-75.7,0-113.6,0c-0.3-3.8,2.7-5.9,7.2-5.2c2.6-6.1,5.6-7.6,11.6-5.7c1.1-3.8,3.1-7,6.6-8.9s7.1-1.9,10.8-0.7
				c0.1-1.6,0.1-3.1,0.4-4.6c1.5-8.2,6.1-13.6,13.9-15.6c7.7-1.9,14.2,0.6,19.2,7.1c0.7,0.9,1.2,1.4,2.4,1.2
				c7.8-1.2,14.3,3.1,16.5,10.9C431.7,242.3,431.8,242.6,431.8,242.7z"/>
			<g>
				<ellipse class="st30" cx="396.9" cy="240.7" rx="9.9" ry="10.3"/>
				<ellipse class="st30" cx="414.1" cy="247.2" rx="11.1" ry="11.5"/>
				<ellipse class="st30" cx="399.7" cy="251.3" rx="8" ry="8.3"/>
			</g>
		</g>
	</g>
	<g>
		<defs>
			<rect id="SVGID_53_" y="0" width="453.2" height="254.9"/>
		</defs>
		<clipPath id="SVGID_54_">
			<use xlink:href="#SVGID_53_"  style="overflow:visible;"/>
		</clipPath>
		<g class="st31">
			<path class="st29" d="M-139.5,85.6c0.7-4.7,4-8.4,8-8.8c1.3-0.1,2-0.6,2.7-2.2c1.3-3.2,3.4-5.5,6-6.8c1-0.5,1.3-1.1,1.2-2.5
				c-0.1-7.8,3.6-12.8,9.6-13.4c0.8-0.1,1.7-1.1,2.2-2.1c6.1-11.6,17.5-15.7,26.9-9.2c2.7,1.8,4.9,4.9,7.1,7.7
				c0.8,1,1.4,1.8,2.7,1.7c2.9-0.2,5.7,0.8,8,3.2c0.8,0.8,1.4,0.8,2.3,0.1c0.7-0.5,1.6-1,2.3-0.9c2.3,0.5,4.2-0.7,6.3-1.4
				c9.3-3.3,18.8,1.4,24.1,12c0.6,1.3,1.2,1.7,2.4,1.6c4.8-0.4,8.7,1.8,11.7,6.8c0.3,0.6,1.3,0.9,1.8,0.8c4.3-0.8,7.7,1,10.3,5.6
				c0.4,0.7,1.3,1.3,2.1,1.4c2.7,0.6,4.6,2.9,4.8,6.4C-44.4,85.6-92,85.6-139.5,85.6z"/>
		</g>
	</g>
	<g>
		<defs>
			<rect id="SVGID_55_" y="0" width="453.2" height="254.9"/>
		</defs>
		<clipPath id="SVGID_56_">
			<use xlink:href="#SVGID_55_"  style="overflow:visible;"/>
		</clipPath>
		<g class="st32">
			<g>
				<path class="st33" d="M494.3,220.9l-45.1-0.6c-0.5,0-0.9-0.2-1.1-0.6l-7.6-7.8c-0.7-0.9-0.4-2.5,0.6-3.4l8.2-8.1
					c0.4-0.4,0.9-0.6,1.4-0.6l43.3,0.6c0.5,0,0.9,0.2,1.3,0.7l6.5,7.7c0.8,0.9,0.8,2.4,0.2,3.3l-6.2,8.2
					C495.3,220.7,494.8,220.9,494.3,220.9z"/>
				<polygon class="st34" points="456.5,214.1 456.1,205 449.5,210.1 				"/>
			</g>
		</g>
	</g>
	<g>
		<defs>
			<rect id="SVGID_57_" y="0" width="453.2" height="254.9"/>
		</defs>
		<clipPath id="SVGID_58_">
			<use xlink:href="#SVGID_57_"  style="overflow:visible;"/>
		</clipPath>
		<g class="st35">
			<polyline class="st36" points="152.2,196.1 220.5,227.9 241.5,203.2 189.1,183 			"/>
			<path class="st37" d="M148.9,194l3.3,2.1c0,0,40.3-18.4,68.3,31.8l6.1,2l-1.8-32.1c0,0-29.4-9.4-30.1-9.4
				c-0.7-0.1-27.9-0.6-27.9-0.6L148.9,194"/>
			<path class="st38" d="M247.3,205.3c0,0-33.9-38.4-65.4-26.3l-33,15c0,0,50.8-20.9,77.7,35.9L247.3,205.3z"/>
			<polygon class="st37" points="238.1,196.4 219.2,217.1 218.4,215.9 236.9,195.4 			"/>
			<polygon class="st37" points="206.8,203.6 225,186.8 224.1,186.3 206,202.9 			"/>
			<polygon class="st37" points="212.7,180.5 194.7,196 193.5,195.4 211.7,180.1 			"/>
			<polygon class="st37" points="202.6,177.5 184,192.2 182.8,192.1 201.6,177.3 			"/>
			<polygon class="st37" points="193.9,176.7 174.5,190.7 173.7,190.7 193.2,176.7 			"/>
			<polygon class="st37" points="184,178.3 160.2,191.2 161.1,191 			"/>
			<path class="st39" d="M238.1,196.4c0,0,6.1,6.4,7.6,8.4L227.1,227l-7.9-9.9L238.1,196.4z"/>
			<polygon class="st39" points="225,186.8 235.7,195.3 218.8,213.5 206.8,203.6 			"/>
			<polygon class="st39" points="212.7,180.5 221.5,186.5 206.3,200.8 194.7,196 			"/>
			<polygon class="st39" points="211.7,180.1 193.5,195.4 186.2,192.1 202.5,178.2 			"/>
			<polygon class="st39" points="201.6,177.3 182.8,192.1 176.6,189.9 193.8,177.3 			"/>
			<path class="st39" d="M193.2,176.7l-19.5,13.9c0,0-6.1-0.6-9.6-0.9l19.9-11.5C184,178.3,190.3,176.7,193.2,176.7z"/>
		</g>
	</g>
	<g>
		<defs>
			<rect id="SVGID_59_" y="0" width="453.2" height="254.9"/>
		</defs>
		<clipPath id="SVGID_60_">
			<use xlink:href="#SVGID_59_"  style="overflow:visible;"/>
		</clipPath>
		<path class="st40" d="M111.9-15.6L89.1,0.7l19.8,1.8l-1.4-2.9l28.7-9.8l1.9,25.6l12-9l7,16.3l7.2-21l16-3.2l3.9,5.6l0.4-16
			L196-6.2l3.6,5.9l28.3,7.5c-33-25.7-62-46.8-68.4-46.8C152.8-39.6,133-28.6,111.9-15.6z"/>
	</g>
	<g>
		<defs>
			<rect id="SVGID_61_" y="0" width="453.2" height="254.9"/>
		</defs>
		<clipPath id="SVGID_62_">
			<use xlink:href="#SVGID_61_"  style="overflow:visible;"/>
		</clipPath>
		<path class="st41" d="M34.6,266.8c-23.4-8.8-36-49.7,20.7-110.7c43.6-46.9,96.4-87.7,130.8-105.8c0,0-68.8,38.4-122.2,91.5
			c-57,56.8-76,127.5-5.3,129.9l0,0C50.1,271.2,42.1,269.7,34.6,266.8z"/>
	</g>
	<g>
		<defs>
			<rect id="SVGID_63_" y="0" width="453.2" height="254.9"/>
		</defs>
		<clipPath id="SVGID_64_">
			<use xlink:href="#SVGID_63_"  style="overflow:visible;"/>
		</clipPath>
		<g class="st42">
			<path class="st43" d="M207,4.5c-1.9,1.5-6.1,2.3-7.7,0.5s-0.1-5.5,1.9-7c1.9-1.5,4.8-1.3,6.4,0.5C209.2,0.3,208.9,3,207,4.5z"/>
			<polygon class="st44" points="199.5,4.8 198.3,4.9 199.1,5.9 			"/>
			<path class="st45" d="M207,4.5c1.8-1.4,2.1-3.7,0.9-5.4l0,0c0,0,2.2,6.1-7.3,6.8C202.6,6.4,205.5,5.6,207,4.5z"/>
			<path class="st46" d="M195.8,14.4c-1,1.3-3.7,2.4-5,1.4s-0.9-3.6,0.1-4.9s3-1.5,4.3-0.5C196.6,11.4,196.9,13.2,195.8,14.4z"/>
			<polygon class="st47" points="190.9,15.7 190.1,15.9 190.8,16.4 			"/>
			<path class="st47" d="M195.8,14.4c0.9-1.1,0.8-2.7-0.2-3.7l0,0c0,0,2.4,3.8-3.7,5.5C193.2,16.3,195,15.4,195.8,14.4z"/>
			<path class="st48" d="M192.8,10.9c-0.9,0.2-1.6,0.8-1.7,0.4s0.6-0.8,1.5-1.1c0.9-0.2,1.8-0.1,1.9,0.3S193.7,10.7,192.8,10.9z"/>
			<path class="st49" d="M193.9,3.8c-1.6,1-4.7,1.2-5.7-0.2s0.5-4,2-5s3.6-0.6,4.7,0.9C195.8,0.9,195.4,2.9,193.9,3.8z"/>
			<polygon class="st50" points="188.3,3.5 187.4,3.5 187.9,4.3 			"/>
			<path class="st50" d="M193.9,3.8c1.4-0.9,1.9-2.5,1.2-3.9l0,0c0,0,1.1,4.7-6,4.4C190.5,4.9,192.6,4.6,193.9,3.8z"/>
			<g>
				<path class="st43" d="M238.8,6.7c-1.3,1.4-4.4,2.6-5.9,1.4s-0.9-4.2,0.4-5.6s3.5-1.6,5.1-0.4C239.9,3.2,240.1,5.3,238.8,6.7z"/>
				<polygon class="st45" points="233.1,7.9 232.1,8.2 232.9,8.8 				"/>
				<path class="st45" d="M238.8,6.7c1.2-1.3,1.1-3.1-0.1-4.3l0,0c0,0,2.6,4.5-4.6,6.2C235.7,8.7,237.9,7.8,238.8,6.7z"/>
			</g>
			<path class="st51" d="M234.3,2.7c-0.7,0.6-1,1.2-1.2,1s0.1-0.9,0.8-1.4s1.4-0.8,1.6-0.6C235.7,1.9,234.9,2.1,234.3,2.7z"/>
			<path class="st52" d="M232.9,16.4c-1.2,1.3-4,2.3-5.4,1.2s-0.8-3.8,0.4-5.1s3.2-1.4,4.6-0.4S234.1,15.1,232.9,16.4z"/>
			<polygon class="st53" points="227.7,17.4 226.8,17.7 227.6,18.2 			"/>
			<path class="st53" d="M232.9,16.4c1.1-1.2,1-2.8-0.1-3.9l0,0c0,0,2.4,4.1-4.2,5.6C230.1,18.2,232,17.3,232.9,16.4z"/>
			<path class="st54" d="M229.7,12.4c-0.8,0.2-1.3,0.7-1.4,0.4s0.4-0.7,1.2-1s1.5-0.2,1.6,0.1C231.2,12.3,230.4,12.2,229.7,12.4z"/>
			<polygon class="st44" points="249,15.2 248,15.2 248.6,16 			"/>
			<g>
				<path class="st43" d="M254.9,15.9c-1.7,0.9-5.1,1.1-6.1-0.5s0.7-4.3,2.4-5.2s3.9-0.4,5,1.2C257.2,12.9,256.7,14.9,254.9,15.9z"
					/>
				<path class="st45" d="M254.9,15.9c1.6-0.9,2.2-2.6,1.5-4.2l0,0c0,0,0.9,5.1-6.7,4.4C251.3,16.8,253.6,16.6,254.9,15.9z"/>
				<path class="st51" d="M251.4,11.1c-0.9,0.5-1.3,1.3-1.5,1s0.3-0.9,1.2-1.5c0.9-0.5,1.7-0.8,1.9-0.5
					C253.2,10.4,252.3,10.6,251.4,11.1z"/>
			</g>
			<path class="st46" d="M259.4,8.8c-1.4,0.7-4,0.8-4.8-0.4c-0.8-1.3,0.6-3.4,1.9-4.1c1.4-0.7,3.1-0.3,3.9,0.9S260.8,8.1,259.4,8.8z
				"/>
			<polygon class="st47" points="254.8,8.3 254,8.3 254.4,8.9 			"/>
			<path class="st47" d="M259.4,8.8c1.2-0.7,1.7-2.1,1.2-3.3l0,0c0,0,0.7,4-5.2,3.5C256.5,9.6,258.4,9.4,259.4,8.8z"/>
			<path class="st48" d="M256.4,5.3c-0.6,0.5-0.9,1.1-1.1,0.9s0.1-0.8,0.7-1.3s1.3-0.8,1.5-0.5C257.7,4.6,257,4.8,256.4,5.3z"/>
			<g>
				<path class="st43" d="M250,4.7c-1,0.9-3.2,1.4-4.1,0.5c-0.9-0.9-0.2-2.9,0.7-3.8s2.5-0.8,3.4,0.1C251,2.4,251,3.8,250,4.7z"/>
				<polygon class="st45" points="246,5.1 245.4,5.2 245.9,5.7 				"/>
				<path class="st45" d="M250,4.7c0.9-0.8,1-2,0.3-2.9l0,0c0,0,1.4,3.2-3.6,3.8C247.8,5.8,249.3,5.3,250,4.7z"/>
			</g>
			<path class="st51" d="M247.1,2c-0.5,0.4-0.8,1-1,0.8s0.1-0.7,0.6-1.1s1.1-0.7,1.3-0.5S247.6,1.5,247.1,2z"/>
			<path class="st49" d="M245.8,15c-1.6,1.7-5.5,3.1-7.4,1.6s-1-5.3,0.6-7s4.4-1.9,6.3-0.5S247.4,13.3,245.8,15z"/>
			<polygon class="st50" points="238.6,16.4 237.4,16.8 238.4,17.5 			"/>
			<path class="st50" d="M245.8,15c1.5-1.6,1.4-3.9,0-5.4l0,0c0,0,3.2,5.6-5.9,7.6C241.9,17.5,244.6,16.3,245.8,15z"/>
			<path class="st55" d="M240.7,9.7c-1,0.5-1.6,1.3-1.8,0.9c-0.2-0.4,0.4-1.1,1.4-1.6s2-0.6,2.2-0.3C242.7,9.1,241.7,9.2,240.7,9.7z
				"/>
			<g>
				<path class="st52" d="M275.7,6.3c-1,1.2-3.7,2.3-5,1.3s-0.8-3.6,0.2-4.8s3-1.4,4.3-0.5S276.7,5.1,275.7,6.3z"/>
				<polygon class="st53" points="270.8,7.4 270,7.7 270.7,8.2 				"/>
				<path class="st54" d="M272.2,3c-0.8,0.4-1.3,1.1-1.5,0.8s0.3-0.9,1.1-1.4s1.6-0.5,1.8-0.2C273.9,2.6,273,2.6,272.2,3z"/>
			</g>
			<path class="st53" d="M271.6,7.9c5.7-1.1,4-5.2,4-5.2s1.6,1.6,0.1,3.6S271.6,7.9,271.6,7.9z"/>
			<path class="st46" d="M268.6,0.1c-2,1.5-6.2,2.3-7.8,0.5s-0.1-5.5,1.9-7s4.9-1.3,6.5,0.5S270.6-1.4,268.6,0.1z"/>
			<polygon class="st47" points="261,0.4 259.8,0.5 260.6,1.5 			"/>
			<path class="st47" d="M268.6,0.1c1.8-1.4,2.1-3.7,1-5.5l0,0c0,0,2.2,6.2-7.4,6.9C264.2,2,267.1,1.2,268.6,0.1z"/>
			<path class="st49" d="M243.4-1.2c-1.4,1.2-4.4,2-5.7,0.7s-0.3-4.1,1-5.3c1.4-1.2,3.5-1.2,4.8,0.1S244.7-2.4,243.4-1.2z"/>
			<polygon class="st50" points="237.8,-0.6 236.9,-0.4 237.6,0.2 			"/>
			<path class="st50" d="M243.4-1.2c1.2-1.1,1.4-2.8,0.4-4.1l0,0c0,0,2,4.5-5.1,5.4C240.2,0.4,242.3-0.2,243.4-1.2z"/>
			<path class="st52" d="M269.1,29.1c-1.3,1.2-4.4,2-5.7,0.8s-0.4-4.1,0.9-5.3s3.5-1.2,4.8,0C270.4,25.8,270.4,27.8,269.1,29.1z"/>
			<polygon class="st53" points="263.5,29.7 262.6,29.9 263.3,30.6 			"/>
			<path class="st53" d="M269.1,29.1c1.2-1.1,1.3-2.9,0.3-4.1l0,0c0,0,2,4.4-5,5.4C266,30.7,268,30,269.1,29.1z"/>
			<path class="st54" d="M265.6,25c-0.9,0.5-1.3,1.2-1.6,0.9c-0.2-0.3,0.3-1,1.2-1.5s1.8-0.6,2-0.2C267.4,24.5,266.5,24.5,265.6,25z
				"/>
			<path class="st52" d="M224.2,10.9c-1.2,1.3-4.2,2.4-5.6,1.2s-0.7-4,0.5-5.3s3.3-1.5,4.8-0.3S225.5,9.6,224.2,10.9z"/>
			<polygon class="st53" points="218.8,12 217.9,12.2 218.7,12.8 			"/>
			<path class="st53" d="M224.2,10.9c1.1-1.2,1.1-2.9,0-4.1l0,0c0,0,2.4,4.2-4.4,5.8C221.3,12.8,223.3,11.9,224.2,10.9z"/>
			<path class="st54" d="M220.6,7.1c-0.9,0.5-1.4,1.2-1.7,0.9c-0.2-0.4,0.3-1.1,1.3-1.6c0.9-0.5,1.9-0.6,2.1-0.2
				S221.5,6.6,220.6,7.1z"/>
			<path class="st43" d="M246.4,25.6c-1.5,1.1-4.6,1.7-5.8,0.4c-1.2-1.3,0-4.1,1.4-5.3c1.5-1.1,3.6-1,4.9,0.4
				C248,22.5,247.9,24.5,246.4,25.6z"/>
			<polygon class="st44" points="240.7,25.8 239.8,26 240.4,26.7 			"/>
			<path class="st45" d="M246.4,25.6c1.3-1,1.6-2.8,0.7-4.1l0,0c0,0,1.7,4.6-5.5,5.1C243.1,27,245.3,26.5,246.4,25.6z"/>
			<path class="st51" d="M243.1,21.4c-0.9,0.5-1.4,1.2-1.6,0.9c-0.2-0.4,0.3-1,1.2-1.5s1.8-0.6,2-0.2S244,20.9,243.1,21.4z"/>
			<polygon class="st50" points="193.2,27.7 191.7,27.9 192.7,29.1 			"/>
			<g>
				<path class="st49" d="M202.4,27.4c-2.4,1.8-7.5,2.8-9.5,0.6s-0.1-6.7,2.3-8.5c2.4-1.8,5.9-1.5,7.9,0.6
					C205,22.3,204.7,25.5,202.4,27.4z"/>
				<path class="st50" d="M202.4,27.4c2.1-1.7,2.6-4.5,1.2-6.7l0,0c0,0,2.7,7.5-8.9,8.3C197,29.7,200.5,28.8,202.4,27.4z"/>
				<path class="st55" d="M196.2,20.3c-1.2,0.8-1.9,1.9-2.2,1.5s0.4-1.4,1.6-2.2c1.2-0.8,2.5-1.2,2.8-0.7
					C198.8,19.2,197.5,19.5,196.2,20.3z"/>
			</g>
			<path class="st52" d="M277.3,20.2c-1.3,1-4.1,1.5-5.2,0.3s0-3.6,1.3-4.6s3.2-0.8,4.3,0.3C278.7,17.4,278.6,19.2,277.3,20.2z"/>
			<polygon class="st53" points="272.3,20.4 271.4,20.5 272,21.1 			"/>
			<path class="st53" d="M277.3,20.2c1.2-0.9,1.4-2.5,0.6-3.6l0,0c0,0,1.5,4.1-4.9,4.5C274.4,21.5,276.3,21,277.3,20.2z"/>
			<path class="st54" d="M274.2,16.3c-0.8,0.4-1.2,1-1.4,0.7s0.3-0.8,1.1-1.2c0.8-0.4,1.5-0.5,1.7-0.2S275,16,274.2,16.3z"/>
			<path class="st49" d="M259.2,21.7c-1.2,1.3-4.1,2.3-5.5,1.2s-0.7-3.9,0.4-5.2c1.2-1.3,3.3-1.4,4.7-0.3S260.3,20.4,259.2,21.7z"/>
			<polygon class="st50" points="253.8,22.8 252.9,23 253.7,23.6 			"/>
			<path class="st50" d="M259.2,21.7c1.1-1.2,1-2.9,0-4l0,0c0,0,2.4,4.1-4.3,5.7C256.3,23.6,258.2,22.7,259.2,21.7z"/>
			<path class="st55" d="M255.4,17.8c-0.7,0.4-1.2,1-1.3,0.7s0.3-0.8,1-1.2c0.7-0.4,1.5-0.5,1.6-0.2S256.1,17.4,255.4,17.8z"/>
			<path class="st49" d="M234.1,25.3c-1.5,1.1-4.6,1.7-5.9,0.4c-1.2-1.4,0-4.1,1.4-5.3s3.6-1,4.9,0.4
				C235.7,22.2,235.6,24.2,234.1,25.3z"/>
			<polygon class="st50" points="228.4,25.5 227.5,25.7 228.1,26.4 			"/>
			<path class="st50" d="M234.1,25.3c1.3-1,1.6-2.8,0.7-4.1l0,0c0,0,1.7,4.6-5.5,5.1C230.8,26.7,233,26.2,234.1,25.3z"/>
			<path class="st55" d="M230.5,21c-0.8,0.5-1.3,1.3-1.5,1s0.3-0.9,1.1-1.5c0.8-0.5,1.6-0.8,1.8-0.5C232.2,20.3,231.3,20.4,230.5,21
				z"/>
			<path class="st46" d="M221.5,20.3c-1.1,0.9-3.6,1.4-4.6,0.3s0-3.2,1.1-4.1c1.1-0.9,2.8-0.7,3.8,0.3
				C222.8,17.8,222.7,19.5,221.5,20.3z"/>
			<polygon class="st47" points="217.1,20.5 216.4,20.6 216.9,21.2 			"/>
			<path class="st47" d="M221.5,20.3c1-0.8,1.3-2.2,0.6-3.2l0,0c0,0,1.3,3.6-4.3,4C218.9,21.5,220.6,21,221.5,20.3z"/>
			<path class="st48" d="M218.7,17c-0.6,0.4-0.9,0.8-1.1,0.6c-0.1-0.2,0.2-0.7,0.8-1s1.2-0.5,1.3-0.3
				C219.9,16.5,219.3,16.6,218.7,17z"/>
			<path class="st49" d="M268.4,16.9c-1.5,1.1-4.6,1.7-5.8,0.4c-1.2-1.3,0-4.1,1.4-5.2c1.5-1.1,3.6-1,4.8,0.4
				C270.1,13.7,269.9,15.7,268.4,16.9z"/>
			<polygon class="st50" points="262.8,17.1 261.9,17.2 262.5,17.9 			"/>
			<path class="st50" d="M268.4,16.9c1.3-1,1.6-2.8,0.7-4.1l0,0c0,0,1.6,4.6-5.5,5.1C265.2,18.3,267.3,17.7,268.4,16.9z"/>
			<path class="st55" d="M264.9,12.5c-0.8,0.5-1.2,1.2-1.5,1s0.3-0.9,1.1-1.5c0.8-0.5,1.6-0.8,1.8-0.5S265.7,12,264.9,12.5z"/>
			<path class="st46" d="M231,0.5c-1.6,1.7-5.5,3.1-7.4,1.6s-1-5.3,0.6-7s4.4-1.9,6.3-0.5S232.6-1.2,231,0.5z"/>
			<polygon class="st47" points="223.8,2 222.6,2.3 223.6,3.1 			"/>
			<path class="st47" d="M231,0.5c1.5-1.6,1.4-3.9,0-5.4l0,0c0,0,3.2,5.6-5.9,7.6C227.1,3,229.7,1.9,231,0.5z"/>
			<path class="st49" d="M213.7,16.4c-2.2,1.7-7,2.6-8.9,0.6s-0.1-6.3,2.2-8c2.2-1.7,5.5-1.5,7.4,0.6
				C216.3,11.7,216,14.7,213.7,16.4z"/>
			<polygon class="st50" points="205.1,16.8 203.7,17 204.7,18.1 			"/>
			<path class="st50" d="M213.7,16.4c2-1.6,2.4-4.2,1.1-6.2l0,0c0,0,2.5,7-8.4,7.8C208.7,18.6,212,17.8,213.7,16.4z"/>
			<path class="st55" d="M208.2,10.1c-1.4,0.9-2.2,2.2-2.5,1.7c-0.4-0.5,0.5-1.6,1.9-2.5s2.8-1.3,3.2-0.9
				C211.1,8.9,209.6,9.2,208.2,10.1z"/>
			<g>
				<path class="st43" d="M217.2,30.8c-1.5,1.9-5.5,3.6-7.5,2.1c-2-1.4-1.4-5.4,0.1-7.3s4.4-2.3,6.5-0.8S218.7,28.9,217.2,30.8z"/>
				<polygon class="st44" points="209.8,33.1 208.6,33.5 209.7,34.3 				"/>
				<path class="st45" d="M217.1,30.9c1.4-1.7,1.3-4.1-0.3-5.6l0,0c0,0,3.5,5.7-5.7,8.1C213.2,33.6,215.9,32.4,217.1,30.9z"/>
			</g>
			<path class="st51" d="M211.5,26c-0.8,0.7-1.2,1.5-1.5,1.2s0.1-1.1,1-1.8c0.8-0.7,1.8-0.9,2.1-0.6C213.3,25.2,212.3,25.4,211.5,26
				z"/>
		</g>
	</g>
	<g>
		<defs>
			<rect id="SVGID_65_" y="0" width="453.2" height="254.9"/>
		</defs>
		<clipPath id="SVGID_66_">
			<use xlink:href="#SVGID_65_"  style="overflow:visible;"/>
		</clipPath>
		<g class="st56">
			<path class="st57" d="M-0.3,254.9"/>
			<path class="st57" d="M-0.3,0"/>
		</g>
	</g>
</g>
</svg>
