<?xml version="1.0" encoding="utf-8"?>
<!-- Generator: Adobe Illustrator 22.1.0, SVG Export Plug-In . SVG Version: 6.00 Build 0)  -->
<svg version="1.1" id="Sign" xmlns="http://www.w3.org/2000/svg" xmlns:xlink="http://www.w3.org/1999/xlink" x="0px" y="0px"
	 viewBox="0 0 453.2 254.9" style="enable-background:new 0 0 453.2 254.9;" xml:space="preserve">
<style type="text/css">
	.st0{clip-path:url(#SVGID_2_);fill:#FFFFFF;}
	.st1{clip-path:url(#SVGID_4_);fill:#C5E5E5;}
	.st2{display:none;opacity:0.21;clip-path:url(#SVGID_6_);fill:#FFFFFF;enable-background:new    ;}
	.st3{clip-path:url(#SVGID_8_);fill:#DCEFEF;}
	.st4{display:none;}
	.st5{display:inline;}
	.st6{display:inline;clip-path:url(#SVGID_10_);fill:#DCEFEF;}
	.st7{clip-path:url(#SVGID_12_);fill:#B3B3B3;}
	.st8{clip-path:url(#SVGID_14_);fill:#90C975;}
	.st9{clip-path:url(#SVGID_16_);fill:#D4AE46;}
	.st10{clip-path:url(#SVGID_18_);fill:#EBCC7A;}
	.st11{clip-path:url(#SVGID_20_);}
	.st12{fill:#6CA0AB;}
	.st13{fill:#75AEB9;}
	.st14{fill:#58838B;}
	.st15{fill:#426268;}
	.st16{clip-path:url(#SVGID_22_);fill:#383530;}
	.st17{clip-path:url(#SVGID_24_);fill:#C9C8C8;}
	.st18{clip-path:url(#SVGID_26_);}
	.st19{fill:#595651;}
	.st20{clip-path:url(#SVGID_28_);fill:none;stroke:#595651;stroke-width:0.4297;stroke-miterlimit:10;}
	.st21{clip-path:url(#SVGID_30_);fill:none;stroke:#595651;stroke-width:0.4297;stroke-miterlimit:10;}
	
		.st22{clip-path:url(#SVGID_32_);fill:none;stroke:#312A20;stroke-width:0.4297;stroke-linecap:round;stroke-linejoin:round;stroke-miterlimit:10;}
	.st23{clip-path:url(#SVGID_34_);fill:#A14730;}
	.st24{opacity:0.36;clip-path:url(#SVGID_36_);fill:#201600;enable-background:new    ;}
	.st25{clip-path:url(#SVGID_38_);fill:#C46D3F;}
	.st26{opacity:0.19;clip-path:url(#SVGID_40_);fill:#201600;enable-background:new    ;}
	.st27{clip-path:url(#SVGID_42_);fill:#E2946B;}
	.st28{clip-path:url(#SVGID_44_);fill:#E1A98B;}
	.st29{clip-path:url(#SVGID_46_);fill:#7E4628;}
	.st30{clip-path:url(#SVGID_48_);fill:#7E4628;}
	.st31{clip-path:url(#SVGID_50_);fill:#E1A98B;}
	.st32{clip-path:url(#SVGID_52_);fill:#E2946B;}
	.st33{clip-path:url(#SVGID_54_);fill:#5F351E;}
	.st34{clip-path:url(#SVGID_56_);fill:#7E4628;}
	.st35{clip-path:url(#SVGID_58_);}
	.st36{opacity:0.39;fill:#1A1A1A;enable-background:new    ;}
	.st37{fill:#6597A1;}
	.st38{fill:#81C0CC;}
	.st39{fill:#6A929E;}
	.st40{fill:#94C7B2;}
	.st41{fill:#333333;}
	.st42{fill:#4D4D4D;}
	.st43{fill:#FF882A;}
	.st44{fill:#FFA158;}
	.st45{fill:#595959;}
	.st46{opacity:0.2;clip-path:url(#SVGID_60_);fill:#1A1A1A;enable-background:new    ;}
	.st47{clip-path:url(#SVGID_62_);fill:#F7BA99;}
	.st48{clip-path:url(#SVGID_64_);fill:#F7BA99;}
	.st49{clip-path:url(#SVGID_66_);}
	.st50{fill:#302F30;}
	.st51{clip-path:url(#SVGID_68_);}
	.st52{clip-path:url(#SVGID_70_);fill:#875D46;}
	.st53{clip-path:url(#SVGID_72_);fill:#78A34F;}
	.st54{clip-path:url(#SVGID_74_);fill:#875D46;}
	.st55{clip-path:url(#SVGID_76_);fill:#875D46;}
	.st56{clip-path:url(#SVGID_78_);fill:#4C3528;}
	.st57{clip-path:url(#SVGID_80_);fill:#4C3528;}
	.st58{clip-path:url(#SVGID_82_);fill:#6B2379;}
	.st59{clip-path:url(#SVGID_84_);fill:#78A34F;}
	.st60{clip-path:url(#SVGID_86_);fill:#0577AE;}
	.st61{clip-path:url(#SVGID_88_);fill:#2BA4E0;}
	.st62{clip-path:url(#SVGID_90_);fill:#85B558;}
	.st63{clip-path:url(#SVGID_92_);fill:#6B2379;}
	.st64{clip-path:url(#SVGID_94_);fill:#78A34F;}
	.st65{clip-path:url(#SVGID_96_);fill:#F7BA99;}
	.st66{clip-path:url(#SVGID_98_);fill:#3A5C1A;}
	.st67{clip-path:url(#SVGID_100_);fill:#9C52A4;}
	.st68{clip-path:url(#SVGID_102_);fill:#F7BA99;}
	.st69{clip-path:url(#SVGID_104_);fill:#6F3979;}
	.st70{clip-path:url(#SVGID_106_);fill:#595959;}
	.st71{clip-path:url(#SVGID_108_);fill:#F7BA99;}
	.st72{clip-path:url(#SVGID_110_);fill:#6F3979;}
	.st73{clip-path:url(#SVGID_112_);fill:#F7BA99;}
	.st74{clip-path:url(#SVGID_114_);fill:#595959;}
	.st75{clip-path:url(#SVGID_116_);fill:#F7BA99;}
	.st76{clip-path:url(#SVGID_118_);fill:#FFFFFF;}
	.st77{clip-path:url(#SVGID_120_);fill:#313547;}
	.st78{clip-path:url(#SVGID_122_);fill:#313547;}
	.st79{clip-path:url(#SVGID_124_);fill:#F7BA99;}
	.st80{clip-path:url(#SVGID_126_);fill:#F7BA99;}
	.st81{clip-path:url(#SVGID_128_);fill:#FBF7EA;}
	.st82{clip-path:url(#SVGID_130_);fill:#6E6E6E;}
	.st83{clip-path:url(#SVGID_132_);fill:#DBDBDB;}
	.st84{clip-path:url(#SVGID_134_);fill:#919191;}
	.st85{clip-path:url(#SVGID_136_);fill:#F7BA99;}
	.st86{clip-path:url(#SVGID_138_);fill:#CF9C80;}
	.st87{clip-path:url(#SVGID_140_);fill:#CF9C80;}
	.st88{clip-path:url(#SVGID_142_);fill:#F7BA99;}
	.st89{clip-path:url(#SVGID_144_);fill:#FFFFFF;}
	.st90{clip-path:url(#SVGID_146_);fill:#FFFFFF;}
	.st91{clip-path:url(#SVGID_148_);fill:#BFBFBF;}
	.st92{clip-path:url(#SVGID_150_);fill:#BFBFBF;}
	.st93{clip-path:url(#SVGID_152_);fill:#41465F;}
	.st94{clip-path:url(#SVGID_154_);fill:#78A34F;}
	.st95{clip-path:url(#SVGID_156_);fill:#FF882A;}
	.st96{clip-path:url(#SVGID_158_);fill:#FFFFFF;}
	.st97{clip-path:url(#SVGID_160_);fill:#FFFFFF;}
	.st98{clip-path:url(#SVGID_162_);fill:#FFFFFF;}
	.st99{clip-path:url(#SVGID_164_);fill:#FFFFFF;}
	.st100{clip-path:url(#SVGID_166_);fill:#FFFFFF;}
	.st101{clip-path:url(#SVGID_168_);fill:#FFFFFF;}
	.st102{clip-path:url(#SVGID_170_);fill:#FFFFFF;}
	.st103{clip-path:url(#SVGID_172_);fill:#FFFFFF;}
	.st104{clip-path:url(#SVGID_174_);fill:#FFFFFF;}
	.st105{clip-path:url(#SVGID_176_);fill:#FFFFFF;}
	.st106{clip-path:url(#SVGID_178_);fill:#FFFFFF;}
	.st107{clip-path:url(#SVGID_180_);fill:#FFFFFF;}
	.st108{clip-path:url(#SVGID_182_);}
	.st109{fill:#73B856;}
	.st110{fill:#83D162;}
	.st111{clip-path:url(#SVGID_184_);}
	.st112{clip-path:url(#SVGID_186_);fill:#73B856;}
</style>
<g>
	<g>
		<defs>
			<rect id="SVGID_1_" y="0" width="453.2" height="254.9"/>
		</defs>
		<clipPath id="SVGID_2_">
			<use xlink:href="#SVGID_1_"  style="overflow:visible;"/>
		</clipPath>
		<rect x="-0.6" y="-254.9" class="st0" width="1363" height="766.7"/>
	</g>
	<g>
		<defs>
			<rect id="SVGID_3_" y="0" width="453.2" height="254.9"/>
		</defs>
		<clipPath id="SVGID_4_">
			<use xlink:href="#SVGID_3_"  style="overflow:visible;"/>
		</clipPath>
		<path class="st1" d="M945.7-133.2C843.5-193.8,769-40.8,607-125.7c-40.5-21.2-95.5-58.8-153.2-58.8c-68.3,0-92.6,61.4-180.6,99.6
			c-47.1,20.5-123.1-6.2-173.4,33.6C50.7-12.3,25,76.3,25,136.9c0,86.3,28.5,93.8,60.3,149.7c31.6,55.4,85.3,27.2,167.9,26.5
			c75.7-0.6,177.3,28.3,277.4,28.3c100.3,0,179.6-12.4,273.8-49.8c55.4-22,148.2,10.1,206.2,21.5c124.7,24.5,304.3,54.7,326.7-110.9
			c0-79.6-7.9-216.3-124.8-247.3C1159.6-59.3,1124.3-27.2,945.7-133.2z"/>
	</g>
	<g>
		<defs>
			<rect id="SVGID_5_" y="0" width="453.2" height="254.9"/>
		</defs>
		<clipPath id="SVGID_6_">
			<use xlink:href="#SVGID_5_"  style="overflow:visible;"/>
		</clipPath>
		<path class="st2" d="M1324.1,93.7L1022.3,78l292.6-17.8c-0.4-1.1-0.8-2.3-1.2-3.4L37.6,41.5c-0.7,2.2-1.4,4.4-2.1,6.6l137.2,15.2
			L28.4,74.6c-0.1,0.4-0.2,0.9-0.3,1.3l110.3,8.4l-113,5.1c-0.3,1.5-0.5,3-0.8,4.4l78.1,16.4L21,136.9
			c6.8,9.4,52.9,136.6,60.3,149.7c31.6,55.4,85.3,27.2,167.9,26.5c75.7-0.6,177.3,28.3,277.4,28.3c100.3,0,179.6-12.4,273.8-49.8
			c50.8-20.2,133.3,5.2,191.3,18.4l313.3-33.2c4.3-5.6,8.1-11.8,11.6-18.5l-147.9-29.5l164.5-40.9c-0.2-13.1-0.7-27.4-1.9-42.2
			l-12.1-9.3l10.4-7.7C1328.4,117,1326.6,105.3,1324.1,93.7z"/>
	</g>
	<g>
		<defs>
			<rect id="SVGID_7_" y="0" width="453.2" height="254.9"/>
		</defs>
		<clipPath id="SVGID_8_">
			<use xlink:href="#SVGID_7_"  style="overflow:visible;"/>
		</clipPath>
		<polygon class="st3" points="66,-11.7 266.1,-2.6 59,0.5 		"/>
	</g>
	<g class="st4">
		<defs>
			<rect id="SVGID_9_" y="0" width="453.2" height="254.9"/>
		</defs>
		<clipPath id="SVGID_10_" class="st5">
			<use xlink:href="#SVGID_9_"  style="overflow:visible;"/>
		</clipPath>
		<polygon class="st6" points="262.4,14.4 72.4,12.3 263.9,21.6 		"/>
	</g>
	<g>
		<defs>
			<rect id="SVGID_11_" y="0" width="453.2" height="254.9"/>
		</defs>
		<clipPath id="SVGID_12_">
			<use xlink:href="#SVGID_11_"  style="overflow:visible;"/>
		</clipPath>
		<path class="st7" d="M404.3,99.1h390.1c0,0-165.2-138.7-181.5-138.7c-6.6,0-26.4,11-47.5,24L404.3,99.1z"/>
	</g>
	<g>
		<defs>
			<rect id="SVGID_13_" y="0" width="453.2" height="254.9"/>
		</defs>
		<clipPath id="SVGID_14_">
			<use xlink:href="#SVGID_13_"  style="overflow:visible;"/>
		</clipPath>
		<path class="st8" d="M899.9,329.6c-86.9,0-155.7,93.2-324.2,93.2c-172.6,0-227.3-121.5-337.1-91.9C78.4,374.1,25,209.7,25,158.8
			c0,0,73.1-11.5,115.2-39.4c81.9-54.2,117-141.1,256.7-141.1c88.3,0,158,64.1,199.3,69.5c79.9,10.4,94.1-12.8,217.1-27.2
			c148.7-17.4,172.9,152.7,291.8,184c0,0,93.7,0.4,194.4,0.4c18.8,0,37.9-2.9,37.9-2.9c-5.3,80.3-88.3,171.1-157.6,181.4
			C1063.3,401.1,974.8,329,899.9,329.6z"/>
	</g>
	<g>
		<defs>
			<rect id="SVGID_15_" y="0" width="453.2" height="254.9"/>
		</defs>
		<clipPath id="SVGID_16_">
			<use xlink:href="#SVGID_15_"  style="overflow:visible;"/>
		</clipPath>
		<path class="st9" d="M566.1,385.2c-61.7,0-115.9-10.6-156.5-30.5c-37.5-18.4-60.8-43.7-65.6-71.1c-4.6-26.2,11.2-55,45.6-83.4
			c11.6-9.6,24.2-18.3,36.4-26.7c14.3-9.9,29.1-20.2,42.2-31.7c30.6-27.1,44.3-64,34-91.8c-10.7-29.1-45-45.6-96.4-46.6
			c-1.9,0-3.8-0.1-5.7-0.1c-60.5,0-102.7,19-118.9,53.6c-12.7,27-7.5,62.7,12.6,86.8s30.8,46.6,31.7,66.6
			c0.8,17.4-5.6,33.7-19.2,48.4c-24,25.9-72.1,29.2-111.3,29.2c-35.2,0-67.9-0.9-117.7-1.7c0,0-17.4-19-30.5-47.9
			c46,4.3,105,9,152,9c59.2,0,76.7-16.9,81-27.8c7.2-18.3-2.9-37.6-14.7-59.9c-10.5-20.1-21.4-40.8-21.4-64.2
			c0-80.1,79.7-108.6,148-108.6c28.5,0,57.2,4.8,80.8,13.6c25.3,9.3,43.5,22.5,52.7,38c21,35.2,17.3,70.3-10.4,98.9
			c-10.8,11.1-26.2,23.2-42.6,35.9c-37.2,29-79.3,61.8-83.8,96.4c-2.1,16.3,8.8,30.5,32.5,42.1c23.3,11.4,53.4,17.4,69.3,20
			c16.6,2.7,38.2,4.1,62.5,4.1c48.1,0,99.6-5.5,137.9-14.6c44.3-10.6,68.6-25.3,68.6-41.5c0-9.7-11.4-21.7-31.2-33.2
			c-17-9.8-38.1-17.6-51.2-19l-5.6-0.6l19.3-22.8l1.8,0.5c63.2,16,92.8,48.6,98.9,71.6c3,11.3-0.4,23.8-9.9,36.1
			C753.2,348.5,670.4,385.2,566.1,385.2z"/>
	</g>
	<g>
		<defs>
			<rect id="SVGID_17_" y="0" width="453.2" height="254.9"/>
		</defs>
		<clipPath id="SVGID_18_">
			<use xlink:href="#SVGID_17_"  style="overflow:visible;"/>
		</clipPath>
		<path class="st10" d="M304.1,256.5c23.8-25.7,29.5-60.5-12.6-111.1C252.8,98.9,258.9-2.5,405.9,0.2
			c123.5,2.3,123.5,91.4,64.4,143.7c-24.4,21.6-53.6,37.8-78.7,58.5S341.7,252.1,347,283c9,51.6,88.5,99.2,219.2,99.2
			c131.3,0,234.1-59.7,222-105.3c-6-22.7-36-54.1-96.7-69.5l-14.4,17c26.2,2.8,85.1,30.5,85.1,55.1c0,50.2-191.1,68.1-272.5,55.1
			c-42.8-6.9-109.4-25.3-104.2-65.4c6.6-51.4,92.2-97.9,127.2-134.1c23-23.8,33-56.7,10-95.3c-42.1-70.6-276-78.7-276,55.5
			c0,48.5,50.3,88.6,35.9,125.2c-9.9,25.1-66.3,30.7-83.8,30.7c-47.8,0-114-5.1-150.5-9.9c7,14.3,15.7,28.6,26.5,41.7
			c38.4,0.9,85.4,1.8,120.2,1.8C231.5,284.7,280.3,282.2,304.1,256.5z"/>
	</g>
	<g>
		<defs>
			<rect id="SVGID_19_" y="0" width="453.2" height="254.9"/>
		</defs>
		<clipPath id="SVGID_20_">
			<use xlink:href="#SVGID_19_"  style="overflow:visible;"/>
		</clipPath>
		<g class="st11">
			<polygon class="st12" points="134.8,1.8 124.6,1.4 122.4,1.9 128.4,4.4 			"/>
			<path class="st13" d="M145.5-1c-6.6-1-13.7-4.3-16.5-5.7c-0.8-0.4-1.7-0.5-2.6-0.3l-3.8,0.8c0,0,8.9,7.9,7.2,9L145.5-1z"/>
			<path class="st14" d="M125.2,4.1c26.1-7.1,56.9-13,65.2-14c9-1.1,10.1,1.5,10.1,1.5s2.2,3.7-43.6,11.6c0,0-7,1.3-13.8,1.7
				s-17.6,0.5-17.6,0.5L125.2,4.1z"/>
			<path class="st13" d="M143.8,4.8c6.9-0.4,13.1-1.7,13.1-1.7c33.5-5.8,41.4-9.3,43.1-10.7l0,0c0,0-2.1,0.6-3.7-0.8
				c0,0-6.2,2.2-28.3,6.9c-18.7,4-29.2,5.9-42.6,6.3l0.1,0.4C125.5,5.3,136.9,5.2,143.8,4.8z"/>
			<polygon class="st14" points="123.4,-5.5 125.5,-5.9 132.3,0.8 129.7,1.4 			"/>
			<path class="st13" d="M138.8,3.9L130,7.4l-3.7,0.8l3.4-3.5c0.4-0.4,0.9-0.6,1.5-0.7l7.5-0.7C139,3.3,139.1,3.7,138.8,3.9z"/>
			<path class="st13" d="M181.4-2.7l-19.7,18.2l-2.6,0.6l7.8-14.3l-1.8-1c-0.4-0.2-0.3-0.7,0.1-0.9c0.9-0.4,2.8-1.1,7.2-2.1
				c5-1.1,7.4-1.3,8.6-1.4C181.5-3.5,181.8-3,181.4-2.7z"/>
			<polygon class="st14" points="166.8,1.8 169.3,1.3 161.3,14.2 159.9,14.4 			"/>
			<g>
				<path class="st15" d="M152.2,1.6L152.2,1.6c-0.3,0.1-0.5-0.1-0.6-0.3L151.5,1c-0.1-0.3,0.1-0.5,0.4-0.6l0,0
					c0.3-0.1,0.5,0.1,0.6,0.3l0.1,0.3C152.6,1.3,152.4,1.6,152.2,1.6z"/>
				<path class="st15" d="M154.1,1.2L154.1,1.2c-0.3,0.1-0.5-0.1-0.6-0.3l-0.1-0.3c-0.1-0.3,0.1-0.5,0.4-0.6l0,0
					c0.3-0.1,0.5,0.1,0.6,0.3l0.1,0.3C154.6,0.9,154.4,1.2,154.1,1.2z"/>
				<path class="st15" d="M156.1,0.8L156.1,0.8c-0.3,0.1-0.5-0.1-0.6-0.3l-0.1-0.3c-0.1-0.3,0.1-0.5,0.4-0.6l0,0
					c0.3-0.1,0.5,0.1,0.6,0.3l0.1,0.3C156.5,0.5,156.4,0.7,156.1,0.8z"/>
				<path class="st15" d="M158.1,0.4L158.1,0.4c-0.3,0.1-0.5-0.1-0.6-0.3l-0.1-0.3c-0.1-0.3,0.1-0.5,0.4-0.6l0,0
					c0.3-0.1,0.5,0.1,0.6,0.3l0.1,0.3C158.5,0.1,158.3,0.3,158.1,0.4z"/>
			</g>
		</g>
	</g>
	<g>
		<defs>
			<rect id="SVGID_21_" y="0" width="453.2" height="254.9"/>
		</defs>
		<clipPath id="SVGID_22_">
			<use xlink:href="#SVGID_21_"  style="overflow:visible;"/>
		</clipPath>
		<path class="st16" d="M304.6,235.2L304.6,235.2L304.6,235.2L304.6,235.2z"/>
	</g>
	<g>
		<defs>
			<rect id="SVGID_23_" y="0" width="453.2" height="254.9"/>
		</defs>
		<clipPath id="SVGID_24_">
			<use xlink:href="#SVGID_23_"  style="overflow:visible;"/>
		</clipPath>
		<path class="st17" d="M274.1,249.8c-0.9,1.1,1.7,2.1,4,2.6l0,0l-0.2,0.3c0,0-0.7,0.7-0.2,2.8c-3.1-0.7-4.2-1.4-4.5-2.4l-0.1-1.9
			C273.1,251.2,272.9,250.6,274.1,249.8z"/>
	</g>
	<g>
		<defs>
			<rect id="SVGID_25_" y="0" width="453.2" height="254.9"/>
		</defs>
		<clipPath id="SVGID_26_">
			<use xlink:href="#SVGID_25_"  style="overflow:visible;"/>
		</clipPath>
		<g class="st18">
			<path class="st19" d="M285.7,256.4L285.7,256.4l-1.8-1.7c-0.7-0.6-1.6-1.1-2.7-1.3c-4.6-0.8-7.1-1.7-7.4-2.8c0-0.1,0-0.2,0-0.4
				c0,0,0,0,0-0.1c0.1-0.1,0.1-0.2,0.2-0.3l0.2-0.1v0.1l0,0c-0.1,0.1-0.3,0.3-0.2,0.7c0.2,0.6,1.4,1.6,7.3,2.6
				c1.2,0.2,2.1,0.6,2.8,1.3l1.9,1.9L285.7,256.4z"/>
		</g>
	</g>
	<g>
		<defs>
			<rect id="SVGID_27_" y="0" width="453.2" height="254.9"/>
		</defs>
		<clipPath id="SVGID_28_">
			<use xlink:href="#SVGID_27_"  style="overflow:visible;"/>
		</clipPath>
		<path class="st20" d="M283.9,248.1c0,0.2,0.2,0.4,0.4,0.4c0.2,0,0.4-0.2,0.3-0.4c0-0.2-0.2-0.4-0.4-0.4
			C284,247.7,283.9,247.8,283.9,248.1z"/>
	</g>
	<g>
		<defs>
			<rect id="SVGID_29_" y="0" width="453.2" height="254.9"/>
		</defs>
		<clipPath id="SVGID_30_">
			<use xlink:href="#SVGID_29_"  style="overflow:visible;"/>
		</clipPath>
		<path class="st21" d="M281.4,248.7c0,0.2,0.2,0.4,0.4,0.4c0.2,0,0.4-0.2,0.3-0.4c0-0.2-0.2-0.4-0.4-0.4
			C281.6,248.3,281.4,248.5,281.4,248.7z"/>
	</g>
	<g>
		<defs>
			<rect id="SVGID_31_" y="0" width="453.2" height="254.9"/>
		</defs>
		<clipPath id="SVGID_32_">
			<use xlink:href="#SVGID_31_"  style="overflow:visible;"/>
		</clipPath>
		<path class="st22" d="M282.9,247.2c0,0-0.8,0.2-1.1,1.5c0,0-0.3-0.8-0.7-1"/>
	</g>
	<g>
		<defs>
			<rect id="SVGID_33_" y="0" width="453.2" height="254.9"/>
		</defs>
		<clipPath id="SVGID_34_">
			<use xlink:href="#SVGID_33_"  style="overflow:visible;"/>
		</clipPath>
		<path class="st23" d="M285.8,253h0.2c0,0-2.2-1.9-4.1-2.5c-2.7-0.9-3.6-2.3-3.6-2.3h-0.1c0,0.1,0.9,1.6,3.7,2.5
			C283.8,251.3,285.8,253,285.8,253z"/>
	</g>
	<g>
		<defs>
			<rect id="SVGID_35_" y="0" width="453.2" height="254.9"/>
		</defs>
		<clipPath id="SVGID_36_">
			<use xlink:href="#SVGID_35_"  style="overflow:visible;"/>
		</clipPath>
		<path class="st24" d="M228.9,289c-31.1-17.5-70-41-70-41s138.6,29.7,160.5,39.3L228.9,289z"/>
	</g>
	<g>
		<defs>
			<rect id="SVGID_37_" y="0" width="453.2" height="254.9"/>
		</defs>
		<clipPath id="SVGID_38_">
			<use xlink:href="#SVGID_37_"  style="overflow:visible;"/>
		</clipPath>
		<path class="st25" d="M199.4,270l-40.5-22c8.3-16.5,23.4-16.4,23.4-16.4l87.1,10.8l-23.6,29.3L231,287.1L199.4,270z"/>
	</g>
	<g>
		<defs>
			<rect id="SVGID_39_" y="0" width="453.2" height="254.9"/>
		</defs>
		<clipPath id="SVGID_40_">
			<use xlink:href="#SVGID_39_"  style="overflow:visible;"/>
		</clipPath>
		<path class="st26" d="M199.4,270l-40.5-22c2.6-5.2,5.8-8.7,9-11.1c29.6,15.2,75.8,18.4,76.4,18.3c0,0,1.5,5.1,3.8,12.7L231,287.1
			L199.4,270z"/>
	</g>
	<g>
		<defs>
			<rect id="SVGID_41_" y="0" width="453.2" height="254.9"/>
		</defs>
		<clipPath id="SVGID_42_">
			<use xlink:href="#SVGID_41_"  style="overflow:visible;"/>
		</clipPath>
		<path class="st27" d="M236.4,271.4c3.8-11.3,11-24.4,24.8-27.9c20.9-5.2,39.2,14.7,50,30.6l8.3,13.2l-88.4-0.2L236.4,271.4z"/>
	</g>
	<g>
		<defs>
			<rect id="SVGID_43_" y="0" width="453.2" height="254.9"/>
		</defs>
		<clipPath id="SVGID_44_">
			<use xlink:href="#SVGID_43_"  style="overflow:visible;"/>
		</clipPath>
		<path class="st28" d="M270,248.2c-14.9-1.8-24.5,11.6-35,39h-2.5c4.1-12.8,11-41.6,31.8-43.4c32.8-2.8,52.9,43.6,52.9,43.6
			l-4.7-0.1C312.6,287.2,295.5,251.3,270,248.2z"/>
	</g>
	<g>
		<defs>
			<rect id="SVGID_45_" y="0" width="453.2" height="254.9"/>
		</defs>
		<clipPath id="SVGID_46_">
			<use xlink:href="#SVGID_45_"  style="overflow:visible;"/>
		</clipPath>
		<polygon class="st29" points="160,246.1 173.3,256 158.9,248 		"/>
	</g>
	<g>
		<defs>
			<rect id="SVGID_47_" y="0" width="453.2" height="254.9"/>
		</defs>
		<clipPath id="SVGID_48_">
			<use xlink:href="#SVGID_47_"  style="overflow:visible;"/>
		</clipPath>
		<path class="st30" d="M222.5,241.5c-0.5-0.5,11.4-5.3,13.9-10.3l3.9,6.7c0,0-5,1.7-4.7,5.6C235.7,243.6,228.4,247.4,222.5,241.5z"
			/>
	</g>
	<g>
		<defs>
			<rect id="SVGID_49_" y="0" width="453.2" height="254.9"/>
		</defs>
		<clipPath id="SVGID_50_">
			<use xlink:href="#SVGID_49_"  style="overflow:visible;"/>
		</clipPath>
		<path class="st31" d="M236.4,231.2c-1.2,1.1,1.5,9.8,4.7,6C243,235,238.7,229.8,236.4,231.2z"/>
	</g>
	<g>
		<defs>
			<rect id="SVGID_51_" y="0" width="453.2" height="254.9"/>
		</defs>
		<clipPath id="SVGID_52_">
			<use xlink:href="#SVGID_51_"  style="overflow:visible;"/>
		</clipPath>
		<path class="st32" d="M237.4,232.6c-0.7,0.6,0.9,5.7,2.7,3.5C241.2,234.8,238.7,231.8,237.4,232.6z"/>
	</g>
	<g>
		<defs>
			<rect id="SVGID_53_" y="0" width="453.2" height="254.9"/>
		</defs>
		<clipPath id="SVGID_54_">
			<use xlink:href="#SVGID_53_"  style="overflow:visible;"/>
		</clipPath>
		<polygon class="st33" points="236.8,235.5 238.1,235.3 237.2,236.3 236.7,236.1 		"/>
	</g>
	<g>
		<defs>
			<rect id="SVGID_55_" y="0" width="453.2" height="254.9"/>
		</defs>
		<clipPath id="SVGID_56_">
			<use xlink:href="#SVGID_55_"  style="overflow:visible;"/>
		</clipPath>
		<path class="st34" d="M262.7,244.8c-14.2,2-21.5,16.5-30.1,42.3h-1.5c4.6-13.9,11.1-42.7,34.5-44.5c31-2.4,54,44.7,54,44.7h-2.7
			C316.7,287.3,294.2,240.3,262.7,244.8z"/>
	</g>
	<g>
		<defs>
			<rect id="SVGID_57_" y="0" width="453.2" height="254.9"/>
		</defs>
		<clipPath id="SVGID_58_">
			<use xlink:href="#SVGID_57_"  style="overflow:visible;"/>
		</clipPath>
		<g class="st35">
			<ellipse class="st36" cx="435.6" cy="192.7" rx="7.8" ry="1.1"/>
			<g>
				<ellipse class="st36" cx="404.3" cy="191.7" rx="6" ry="0.4"/>
				<g>
					<g>
						<polygon class="st37" points="404.3,164.6 403.3,167.2 405.6,167.2 						"/>
						<path class="st38" d="M415.1,150.5c0.4,6.5-4.6,14.7-11.1,15c-6.6,0.3-12.4-7.4-12.7-13.9c-0.4-6.5,4.7-12,11.3-12.3
							C409.1,139,414.8,144,415.1,150.5z"/>
						<path class="st39" d="M406.5,164.9c5.4-1.8,9-8.7,8.7-14.4c-0.1-2.4-1-4.8-2-6C413.1,144.5,418.8,156.5,406.5,164.9z"/>
						<path class="st40" d="M400.6,142.1c0.1,0.5-2.2,0.9-4.1,2.8s-1.7,4.4-2.5,4.1c-1.6-0.6-0.8-3.6,1-5.5S400.3,140.6,400.6,142.1
							z"/>
					</g>
					<g>
						<path class="st41" d="M430.5,191.1c-2.5-0.2-4.8-1-6.7-2.4c-0.9-0.6-1.6-1.3-2.2-2.1c-0.7-0.1-1.5-0.3-2.2-0.7
							c-0.8-0.5-1.2-1.3-1.1-2c0.1-0.6,0.4-1,0.7-1.4c0.1-0.2,0.3-0.4,0.4-0.6c1-1.7,0-3.8-1.4-5s-3.5-2.2-5.7-2.8
							c-9.1-2.1-8.2-6.1-8.2-7l0.5-0.2c0.2,4.3,3.1,5.3,7.9,6.7c2.3,0.7,4.5,1.6,5.9,2.9c0.8,0.7,1.5,1.6,1.8,2.6
							c0.3,1.1,0.2,2.1-0.3,3c-0.1,0.2-0.3,0.4-0.4,0.6c-0.3,0.4-0.6,0.8-0.6,1.2c-0.1,0.6,0.3,1.2,0.9,1.5c0.5,0.3,1,0.4,1.5,0.5
							c-0.2-0.4-0.4-0.8-0.5-1.2c-0.6-1.7-0.3-3.5,0.8-4.7c0.8-0.9,2.2-1.5,3.8-1.7c2-0.2,4,0.3,5.2,1.5c1.4,1.3,1.6,3.5,0.5,4.9
							c-0.9,1-2.4,1.4-3.4,1.6c-1.7,0.3-3.4,0.4-5.2,0.2c0.5,0.6,1.1,1.1,1.8,1.6c3.6,2.6,9,3,13.1,1.1l0.2,0.4
							c-1.8,0.8-3.7,1.3-5.8,1.3C431.3,191.2,430.9,191.2,430.5,191.1z M425.4,179c-1.4,0.2-2.7,0.7-3.4,1.5c-1,1.1-1.3,2.7-0.7,4.2
							c0.2,0.5,0.4,1,0.7,1.4c1.8,0.2,3.7,0.2,5.5-0.2c1.5-0.3,2.5-0.7,3.1-1.4c1-1.1,0.8-3-0.4-4.2c-0.9-0.9-2.3-1.4-3.9-1.4
							C426,179,425.7,179,425.4,179z"/>
					</g>
					<g>
						<path class="st41" d="M440.1,191.7v1l0,0c-0.1,0.1-0.2,0.2-0.4,0.2c-0.7,0.2-2.3,0.4-4.2,0.4c-2.5,0-4.5-0.3-4.5-0.6v-1
							L440.1,191.7L440.1,191.7z"/>
						<ellipse class="st42" cx="435.6" cy="191.7" rx="4.5" ry="0.6"/>
						<path class="st43" d="M433.3,171.5v20.2c0,0,0.8,0.2,2.3,0.2s2.3-0.1,2.3-0.1v-20.2L433.3,171.5L433.3,171.5z"/>
						<path class="st44" d="M435.1,191.9c-0.2,0-0.4,0-0.5,0v-19.3h0.5V191.9z"/>
						<path class="st44" d="M433.3,191.7v-19.4l0.8,0.1v19.5C433.8,191.8,433.5,191.7,433.3,191.7z"/>
						<path class="st41" d="M438.7,171.8v0.8c0,0,0,0,0,0.1c0,0.3-1.4,0.5-3.2,0.5s-3.2-0.2-3.2-0.5v-0.8h6.4V171.8z"/>
						<ellipse class="st42" cx="435.6" cy="171.8" rx="3.2" ry="0.5"/>
						<rect x="435.1" y="156.7" class="st45" width="0.9" height="15.1"/>
					</g>
					<path class="st41" d="M431.8,157.2h7.5c0.3,0,0.5-0.2,0.5-0.5l0,0c0-0.3-0.2-0.5-0.5-0.5h-7.5c-0.3,0-0.5,0.2-0.5,0.5l0,0
						C431.3,157,431.5,157.2,431.8,157.2z"/>
				</g>
			</g>
		</g>
	</g>
	<g>
		<defs>
			<rect id="SVGID_59_" y="0" width="453.2" height="254.9"/>
		</defs>
		<clipPath id="SVGID_60_">
			<use xlink:href="#SVGID_59_"  style="overflow:visible;"/>
		</clipPath>
		<ellipse class="st46" cx="271.5" cy="142.4" rx="18.6" ry="2.1"/>
	</g>
	<g>
		<defs>
			<rect id="SVGID_61_" y="0" width="453.2" height="254.9"/>
		</defs>
		<clipPath id="SVGID_62_">
			<use xlink:href="#SVGID_61_"  style="overflow:visible;"/>
		</clipPath>
		<path class="st47" d="M265.3,141.7l-8.1,0.5c-0.8-1.7,3.6-2.6,5.2-2.7v-2h2.9c0,0-0.3,1-0.2,2
			C265.3,140.5,265.3,141.6,265.3,141.7z"/>
	</g>
	<g>
		<defs>
			<rect id="SVGID_63_" y="0" width="453.2" height="254.9"/>
		</defs>
		<clipPath id="SVGID_64_">
			<use xlink:href="#SVGID_63_"  style="overflow:visible;"/>
		</clipPath>
		<path class="st48" d="M274.2,142.1l-7.9,0.8c-0.8-1.7,3.5-2.6,5.1-2.7l-0.1-2l2.7-0.2c0,0,0.1,1,0.1,2
			C274.1,140.9,274.2,142,274.2,142.1z"/>
	</g>
	<g>
		<defs>
			<rect id="SVGID_65_" y="0" width="453.2" height="254.9"/>
		</defs>
		<clipPath id="SVGID_66_">
			<use xlink:href="#SVGID_65_"  style="overflow:visible;"/>
		</clipPath>
		<g class="st49">
			<path class="st50" d="M271.1,140c-0.1,1.1,2.4,0.8,3.1,0.7c0.1,0,0.2,0.1,0.2,0.2c0.1,0.4,0.2,1.3,0.2,1.3
				c-0.5,0.4-8.1,1.1-8.6,0.7C265.1,141.2,269.5,140.2,271.1,140z"/>
		</g>
	</g>
	<g>
		<defs>
			<rect id="SVGID_67_" y="0" width="453.2" height="254.9"/>
		</defs>
		<clipPath id="SVGID_68_">
			<use xlink:href="#SVGID_67_"  style="overflow:visible;"/>
		</clipPath>
		<g class="st51">
			<path class="st50" d="M262.2,139.5c-0.1,1,2.3,0.8,3.1,0.8c0.1,0,0.2,0.1,0.2,0.2c0,0.4,0.1,1.2,0.1,1.3
				c-0.5,0.4-8.1,0.8-8.6,0.5C256.1,140.4,260.5,139.6,262.2,139.5z"/>
		</g>
	</g>
	<g>
		<defs>
			<rect id="SVGID_69_" y="0" width="453.2" height="254.9"/>
		</defs>
		<clipPath id="SVGID_70_">
			<use xlink:href="#SVGID_69_"  style="overflow:visible;"/>
		</clipPath>
		<path class="st52" d="M261.2,81.4c-0.1,3-5,9.8-9.5,13.5c0,0-2.2,1.4-3,1.5c-0.4,0-0.7,0.3-0.6,0.6c0.1,0.3,0.6,0.5,1.3,0.3
			c1.1-0.4,0.3,0.7-0.5,1.4c-0.8,0.7-1,1.8-0.2,2.3s3.9-1.6,4.9-4.5c0,0,8.3-5.8,9.1-10.4S261.2,81.4,261.2,81.4z"/>
	</g>
	<g>
		<defs>
			<rect id="SVGID_71_" y="0" width="453.2" height="254.9"/>
		</defs>
		<clipPath id="SVGID_72_">
			<use xlink:href="#SVGID_71_"  style="overflow:visible;"/>
		</clipPath>
		<path class="st53" d="M260,90.8c-2.4-1-2.6-1.9-2.6-1.9c0.4-2.8,3.9-10.1,6.8-11.3c0,0-0.4,3-0.1,5.9
			C264.6,88.1,260,90.8,260,90.8z"/>
	</g>
	<g>
		<defs>
			<rect id="SVGID_73_" y="0" width="453.2" height="254.9"/>
		</defs>
		<clipPath id="SVGID_74_">
			<use xlink:href="#SVGID_73_"  style="overflow:visible;"/>
		</clipPath>
		<path class="st54" d="M265.5,75.3c0.5,0,0.6,0.8,0.6,1.6c0.1,0.8,0.7,1.4,1.5,1.5l0,0c1,0.1,1.8-0.6,1.9-1.5
			c0.1-0.8,0.3-2,0.7-3.3c0.1-0.3,0.2-0.5,0.3-0.8c0.1-0.2,0.1-0.3,0.2-0.5c0-0.1,0.1-0.2,0.1-0.3c0,0,0-0.2,0.1-0.6
			c0.1-1,0.3-3.1,0.2-3.9c-0.6-3.7-7.4-3.7-8.2-0.5C263.1,67,261.5,75.4,265.5,75.3z"/>
	</g>
	<g>
		<defs>
			<rect id="SVGID_75_" y="0" width="453.2" height="254.9"/>
		</defs>
		<clipPath id="SVGID_76_">
			<use xlink:href="#SVGID_75_"  style="overflow:visible;"/>
		</clipPath>
		<path class="st55" d="M272.2,71.4c-0.4,0.7-1.2,1-1.8,0.6c-0.5-0.3-0.6-1.1-0.2-1.8c0.4-0.7,1.2-1,1.8-0.6
			C272.6,69.9,272.7,70.7,272.2,71.4z"/>
	</g>
	<g>
		<defs>
			<rect id="SVGID_77_" y="0" width="453.2" height="254.9"/>
		</defs>
		<clipPath id="SVGID_78_">
			<use xlink:href="#SVGID_77_"  style="overflow:visible;"/>
		</clipPath>
		<path class="st56" d="M271.4,71.6c0,0,0.3-0.1,0.6-0.7c0.3-0.8-0.3-1.1-0.3-1.1S272.3,70.6,271.4,71.6z"/>
	</g>
	<g>
		<defs>
			<rect id="SVGID_79_" y="0" width="453.2" height="254.9"/>
		</defs>
		<clipPath id="SVGID_80_">
			<use xlink:href="#SVGID_79_"  style="overflow:visible;"/>
		</clipPath>
		<path class="st57" d="M268,75.2c0.9,0-1.2,0.2-1.8,1.9c-0.1-1.3-0.3-1.7-0.6-1.7C265.6,75.3,267.2,75.2,268,75.2z"/>
	</g>
	<g>
		<defs>
			<rect id="SVGID_81_" y="0" width="453.2" height="254.9"/>
		</defs>
		<clipPath id="SVGID_82_">
			<use xlink:href="#SVGID_81_"  style="overflow:visible;"/>
		</clipPath>
		<path class="st58" d="M271.1,72.1c0,0-0.2,2.5-0.9,2.5c-0.3,0-0.4-0.2-0.4-0.4c-0.1-0.3,0-0.6,0.2-0.9l0.8-1.2H271.1z"/>
	</g>
	<g>
		<defs>
			<rect id="SVGID_83_" y="0" width="453.2" height="254.9"/>
		</defs>
		<clipPath id="SVGID_84_">
			<use xlink:href="#SVGID_83_"  style="overflow:visible;"/>
		</clipPath>
		<path class="st59" d="M273.7,77.9c0,0,3.7,2.2,6.3,6c0,0,3.4,0.1,6.1,1.7c0,0,0.3,1.3-0.9,2.3c0,0-5.1,0-7.6-0.6l-5.4-4.1
			L273.7,77.9z"/>
	</g>
	<g>
		<defs>
			<rect id="SVGID_85_" y="0" width="453.2" height="254.9"/>
		</defs>
		<clipPath id="SVGID_86_">
			<use xlink:href="#SVGID_85_"  style="overflow:visible;"/>
		</clipPath>
		<path class="st60" d="M262.8,101.7l-0.7,37c0,0.2,0.1,0.3,0.3,0.3c0.5,0.1,1.5,0.2,3-0.1c0.1,0,0.3-0.2,0.3-0.3l4.1-40.4
			L262.8,101.7z"/>
	</g>
	<g>
		<defs>
			<rect id="SVGID_87_" y="0" width="453.2" height="254.9"/>
		</defs>
		<clipPath id="SVGID_88_">
			<use xlink:href="#SVGID_87_"  style="overflow:visible;"/>
		</clipPath>
		<path class="st61" d="M265.4,97.9l5.9,41.6c0,0.2,0.2,0.3,0.3,0.4c1.2,0.4,2.1,0,2.6-0.2c0.1-0.1,0.2-0.2,0.2-0.4l-0.3-41.4H265.4
			z"/>
	</g>
	<g>
		<defs>
			<rect id="SVGID_89_" y="0" width="453.2" height="254.9"/>
		</defs>
		<clipPath id="SVGID_90_">
			<use xlink:href="#SVGID_89_"  style="overflow:visible;"/>
		</clipPath>
		<path class="st62" d="M266.1,76.8c-3.3,0.6-5.6,3.9-5.5,8.6c0,4,0.4,11,1.9,16c0,0.2,0.1,0.3,0.3,0.4c0.9,0.6,4.9,2.4,11.3,0
			c0.3-0.1,0.5-0.4,0.5-0.7c-0.1-11.3,1.7-20.8-0.1-22.6c-1.5-1.4-2.8-1.6-4.8-1.9c0,0.4-0.4,1.3-1.7,1.3
			C266.1,78,266.1,76.8,266.1,76.8z"/>
	</g>
	<g>
		<defs>
			<rect id="SVGID_91_" y="0" width="453.2" height="254.9"/>
		</defs>
		<clipPath id="SVGID_92_">
			<use xlink:href="#SVGID_91_"  style="overflow:visible;"/>
		</clipPath>
		<path class="st63" d="M271.7,69.5c0,0,1-3.6,0.4-4.4s-7.3-5.6-9.5-2.7c-1.6,2.1,0.9,3.5,0.9,3.5s0.6,0.5,2.8,0.1
			c2.2-0.4,3.2-0.4,3.1,0.4s1.1,0.9,1.1,0.9l-0.1,2.7C270.4,70,270.9,69.3,271.7,69.5z"/>
	</g>
	<g>
		<defs>
			<rect id="SVGID_93_" y="0" width="453.2" height="254.9"/>
		</defs>
		<clipPath id="SVGID_94_">
			<use xlink:href="#SVGID_93_"  style="overflow:visible;"/>
		</clipPath>
		<path class="st64" d="M262.8,101.8c-0.1-0.1-0.2-0.2-0.3-0.4c-1.1-3.9-1.6-9.1-1.8-13c0.3,2,3.4,15.5,13.8,13
			c-0.1,0.2-0.2,0.3-0.4,0.4C267.7,104.3,263.7,102.4,262.8,101.8z"/>
	</g>
	<g>
		<defs>
			<rect id="SVGID_95_" y="0" width="453.2" height="254.9"/>
		</defs>
		<clipPath id="SVGID_96_">
			<use xlink:href="#SVGID_95_"  style="overflow:visible;"/>
		</clipPath>
		<path class="st65" d="M287.4,88.1c-0.6,1.8-2.4,1.6-2.9,1c-0.6-0.8-0.1-1.6,0.9-2.6c0,0-0.9-1.1-0.6-1.3
			C285.7,84.7,287.9,86.5,287.4,88.1z"/>
	</g>
	<g>
		<defs>
			<rect id="SVGID_97_" y="0" width="453.2" height="254.9"/>
		</defs>
		<clipPath id="SVGID_98_">
			<use xlink:href="#SVGID_97_"  style="overflow:visible;"/>
		</clipPath>
		<path class="st66" d="M273.9,100.9c0,0-5.3,2.4-10.9,0.1C262.9,101,267.7,102.7,273.9,100.9z"/>
	</g>
	<g>
		<defs>
			<rect id="SVGID_99_" y="0" width="453.2" height="254.9"/>
		</defs>
		<clipPath id="SVGID_100_">
			<use xlink:href="#SVGID_99_"  style="overflow:visible;"/>
		</clipPath>
		<path class="st67" d="M273.9,102.9l1.2,35.2l2.8,0.1c0.8-7.9,2.4-24.7,3-35.2L273.9,102.9z"/>
	</g>
	<g>
		<defs>
			<rect id="SVGID_101_" y="0" width="453.2" height="254.9"/>
		</defs>
		<clipPath id="SVGID_102_">
			<use xlink:href="#SVGID_101_"  style="overflow:visible;"/>
		</clipPath>
		<path class="st68" d="M271.4,143.2l6.2-0.7c0,0,0.2-1.6,0.4-4.3l-2.8-0.1l0.1,1.9c0,0.4-0.3,0.8-0.7,0.8
			C271.5,141.2,270.6,142.3,271.4,143.2z"/>
	</g>
	<g>
		<defs>
			<rect id="SVGID_103_" y="0" width="453.2" height="254.9"/>
		</defs>
		<clipPath id="SVGID_104_">
			<use xlink:href="#SVGID_103_"  style="overflow:visible;"/>
		</clipPath>
		<path class="st69" d="M279.3,107l1.3,0.4c-0.7,9.9-2,22.9-2.6,30L279.3,107z"/>
	</g>
	<g>
		<defs>
			<rect id="SVGID_105_" y="0" width="453.2" height="254.9"/>
		</defs>
		<clipPath id="SVGID_106_">
			<use xlink:href="#SVGID_105_"  style="overflow:visible;"/>
		</clipPath>
		<path class="st70" d="M274.1,140.9c1.8,0.6,3.5,0.2,3.6-0.3c0-0.1,0.3,0.1,0.3,0.2c0,0.9-0.2,1.7-0.2,1.7
			c-0.4,0.5-5.9,1.2-7.4,0.7C269.6,142.3,271.5,141.1,274.1,140.9z"/>
	</g>
	<g>
		<defs>
			<rect id="SVGID_107_" y="0" width="453.2" height="254.9"/>
		</defs>
		<clipPath id="SVGID_108_">
			<use xlink:href="#SVGID_107_"  style="overflow:visible;"/>
		</clipPath>
		<path class="st71" d="M273.5,141c0,0,1.2,0.4,0.6,0.7c-0.7,0.3-1.8-0.4-1.8-0.4S272.5,141.1,273.5,141z"/>
	</g>
	<g>
		<defs>
			<rect id="SVGID_109_" y="0" width="453.2" height="254.9"/>
		</defs>
		<clipPath id="SVGID_110_">
			<use xlink:href="#SVGID_109_"  style="overflow:visible;"/>
		</clipPath>
		<path class="st72" d="M282.8,138.9h2.6c0.2-8.8,0.7-28.1,0.6-35.9l-6.8,0.7C278.8,111,282.4,131.4,282.8,138.9z"/>
	</g>
	<g>
		<defs>
			<rect id="SVGID_111_" y="0" width="453.2" height="254.9"/>
		</defs>
		<clipPath id="SVGID_112_">
			<use xlink:href="#SVGID_111_"  style="overflow:visible;"/>
		</clipPath>
		<path class="st73" d="M278.1,144.2l7.2-0.7c0,0,0-1.8,0.1-4.6h-2.6c0.1,0.9,0.1,1.6,0,2.1c0,0.4-0.4,0.7-0.8,0.8
			C279,142.1,277.3,143.2,278.1,144.2z"/>
	</g>
	<g>
		<defs>
			<rect id="SVGID_113_" y="0" width="453.2" height="254.9"/>
		</defs>
		<clipPath id="SVGID_114_">
			<use xlink:href="#SVGID_113_"  style="overflow:visible;"/>
		</clipPath>
		<path class="st74" d="M282,141.8c1.7,0.5,2.8,0.3,3.3,0.1c0.1-0.1,0.3,0.1,0.3,0.2c0,0.9,0,1.4,0,1.4c-0.4,0.5-5.9,1.2-7.4,0.7
			C277.3,143.2,279,142.1,282,141.8z"/>
	</g>
	<g>
		<defs>
			<rect id="SVGID_115_" y="0" width="453.2" height="254.9"/>
		</defs>
		<clipPath id="SVGID_116_">
			<use xlink:href="#SVGID_115_"  style="overflow:visible;"/>
		</clipPath>
		<path class="st75" d="M281.2,141.9c0,0,1.2,0.4,0.6,0.7c-0.7,0.3-1.8-0.4-1.8-0.4S280.2,142,281.2,141.9z"/>
	</g>
	<g>
		<defs>
			<rect id="SVGID_117_" y="0" width="453.2" height="254.9"/>
		</defs>
		<clipPath id="SVGID_118_">
			<use xlink:href="#SVGID_117_"  style="overflow:visible;"/>
		</clipPath>
		<path class="st76" d="M286.7,108c0,0-0.8-20.4-1.9-22.9c-0.1-0.3-0.9-0.6-1.9-0.9c-2.6-0.7-5.4-0.4-7.6,1c-0.6,0.4-1,0.7-1,1
			c-0.2,2.6-0.9,21.7-0.9,21.7S276.8,111.2,286.7,108z"/>
	</g>
	<g>
		<defs>
			<rect id="SVGID_119_" y="0" width="453.2" height="254.9"/>
		</defs>
		<clipPath id="SVGID_120_">
			<use xlink:href="#SVGID_119_"  style="overflow:visible;"/>
		</clipPath>
		<path class="st77" d="M277.9,70.1c0,0-5-0.1-3.8,4.2c1.2,4.3,6.3,0.9,6.3,0.5S277.9,70.1,277.9,70.1z"/>
	</g>
	<g>
		<defs>
			<rect id="SVGID_121_" y="0" width="453.2" height="254.9"/>
		</defs>
		<clipPath id="SVGID_122_">
			<use xlink:href="#SVGID_121_"  style="overflow:visible;"/>
		</clipPath>
		<path class="st78" d="M277.6,73.4c0,0,0.6,4.5-3.7,8.3c0,0,2.8,1.4,6.5,1.1c3.8-0.3,2-9.1,1.9-9.1
			C282.3,73.7,277.6,73.4,277.6,73.4z"/>
	</g>
	<g>
		<defs>
			<rect id="SVGID_123_" y="0" width="453.2" height="254.9"/>
		</defs>
		<clipPath id="SVGID_124_">
			<use xlink:href="#SVGID_123_"  style="overflow:visible;"/>
		</clipPath>
		<path class="st79" d="M273.8,78c0,3.1,1.6,3.3,2,3.4c1.7,0.4,1.9,0.8,2,3.1c0,0,1.6,1.5,3.4,0c0,0,0-2,0.6-4.3
			c0.1-0.3,0.2-0.6,0.3-0.8c0.1-0.2,0.1-0.3,0.2-0.5c0-0.1,0.1-0.2,0.1-0.3c0,0,0-0.2,0-0.6c0.1-1.1,0.5-3.6,0.4-4.4
			c-0.2-2.2-2.3-3.5-4-3.5c-3.1,0-3.6,1.4-4.3,3.8C274.4,73.9,273.8,76,273.8,78z"/>
	</g>
	<g>
		<defs>
			<rect id="SVGID_125_" y="0" width="453.2" height="254.9"/>
		</defs>
		<clipPath id="SVGID_126_">
			<use xlink:href="#SVGID_125_"  style="overflow:visible;"/>
		</clipPath>
		<path class="st80" d="M283.2,77.9c-0.4,0.7-1.2,1-1.8,0.7c-0.6-0.3-0.7-1.1-0.3-1.8c0.4-0.7,1.2-1,1.7-0.7
			C283.4,76.4,283.6,77.2,283.2,77.9z"/>
	</g>
	<g>
		<defs>
			
				<rect id="SVGID_127_" x="0.6" y="0.7" transform="matrix(0.9999 -1.192874e-02 1.192874e-02 0.9999 -1.5119 2.7191)" width="453.2" height="254.9"/>
		</defs>
		<clipPath id="SVGID_128_">
			<use xlink:href="#SVGID_127_"  style="overflow:visible;"/>
		</clipPath>
		
			<ellipse transform="matrix(0.9999 -1.192874e-02 1.192874e-02 0.9999 -0.9127 3.3682)" class="st81" cx="281.9" cy="78.2" rx="0.4" ry="0.3"/>
	</g>
	<g>
		<defs>
			<rect id="SVGID_129_" y="0" width="453.2" height="254.9"/>
		</defs>
		<clipPath id="SVGID_130_">
			<use xlink:href="#SVGID_129_"  style="overflow:visible;"/>
		</clipPath>
		<path class="st82" d="M276.1,106c0,0,1.8,0.2,1.8,0.4c0,0.2-1.8,0.3-1.8,0.3V106z"/>
	</g>
	<g>
		<defs>
			<rect id="SVGID_131_" y="0" width="453.2" height="254.9"/>
		</defs>
		<clipPath id="SVGID_132_">
			<use xlink:href="#SVGID_131_"  style="overflow:visible;"/>
		</clipPath>
		<path class="st83" d="M286.7,108c0,0,0-0.6-0.1-1.7l0,0c-13.6,2.7-12.3-11.2-12.3-11.2l-0.6,1.8c-0.2,5.5-0.4,10.9-0.4,10.9
			S276.8,111.2,286.7,108z"/>
	</g>
	<g>
		<defs>
			<rect id="SVGID_133_" y="0" width="453.2" height="254.9"/>
		</defs>
		<clipPath id="SVGID_134_">
			<use xlink:href="#SVGID_133_"  style="overflow:visible;"/>
		</clipPath>
		<path class="st84" d="M278.2,106.2c0,0-1.8,0-1.8,0.2s1.8,0.6,1.8,0.6V106.2z"/>
	</g>
	<g>
		<defs>
			<rect id="SVGID_135_" y="0" width="453.2" height="254.9"/>
		</defs>
		<clipPath id="SVGID_136_">
			<use xlink:href="#SVGID_135_"  style="overflow:visible;"/>
		</clipPath>
		<path class="st85" d="M274.5,85.8l-0.2,9.6l1.5,10.2l0,0c0,0,0.1,0.7,1.2,0.5c1.6-0.2,3.2,1.4,0.7,1.7c-0.5,0.1-0.9,0-1.3-0.1
			c-1.2-0.3-2.1-1.2-2.4-2.4c-0.7-2.8-2.3-9.2-2.3-10C271.7,93.4,273.6,87.1,274.5,85.8z"/>
	</g>
	<g>
		<defs>
			<rect id="SVGID_137_" y="0" width="453.2" height="254.9"/>
		</defs>
		<clipPath id="SVGID_138_">
			<use xlink:href="#SVGID_137_"  style="overflow:visible;"/>
		</clipPath>
		<path class="st86" d="M277.8,83.6c-0.1-1.5-0.5-1.9-1.9-2.2c1.1,0.3,1.7,0.2,2.4,0.2C278.8,81.6,277.9,83.3,277.8,83.6z"/>
	</g>
	<g>
		<defs>
			<rect id="SVGID_139_" y="0" width="453.2" height="254.9"/>
		</defs>
		<clipPath id="SVGID_140_">
			<use xlink:href="#SVGID_139_"  style="overflow:visible;"/>
		</clipPath>
		<path class="st87" d="M282.4,78.2c0,0,0.4-0.1,0.6-0.8c0.3-0.9-0.4-1.2-0.4-1.2S283.4,77.1,282.4,78.2z"/>
	</g>
	<g>
		<defs>
			<rect id="SVGID_141_" y="0" width="453.2" height="254.9"/>
		</defs>
		<clipPath id="SVGID_142_">
			<use xlink:href="#SVGID_141_"  style="overflow:visible;"/>
		</clipPath>
		<path class="st88" d="M276.7,106.3c0.6,0,1.2-0.6,1.2-0.6s6.4-8.8,6.5-9.5c0-0.5-0.3-5.5-0.6-7.6c-0.1-0.5,0-1,0.3-1.5l0.2-1.1
			c0.1-0.4,0.6-0.4,0.7-0.1c1,2.8,2.4,9.4,2.1,11c-0.3,1.9-7.8,9.9-7.8,9.9s-1.3,1.2-3.1,1.1C273.5,107.8,275.1,106.3,276.7,106.3z"
			/>
	</g>
	<g>
		<defs>
			<rect id="SVGID_143_" y="0" width="453.2" height="254.9"/>
		</defs>
		<clipPath id="SVGID_144_">
			<use xlink:href="#SVGID_143_"  style="overflow:visible;"/>
		</clipPath>
		<path class="st89" d="M283.2,92.2l-0.2-1c-0.1-4,0.5-5.3,1.6-6.3c0,0,1.5,1.6,2.4,4.7C287.1,89.7,287.1,91,283.2,92.2z"/>
	</g>
	<g>
		<defs>
			<rect id="SVGID_145_" y="0" width="453.2" height="254.9"/>
		</defs>
		<clipPath id="SVGID_146_">
			<use xlink:href="#SVGID_145_"  style="overflow:visible;"/>
		</clipPath>
		<path class="st90" d="M274.6,91.9l0.2-6.4c0,0-1.6,0.9-2.7,5.1C272.2,90.6,272.7,91.7,274.6,91.9z"/>
	</g>
	<g>
		<defs>
			<rect id="SVGID_147_" y="0" width="453.2" height="254.9"/>
		</defs>
		<clipPath id="SVGID_148_">
			<use xlink:href="#SVGID_147_"  style="overflow:visible;"/>
		</clipPath>
		<path class="st91" d="M284.5,85.1c0,0-1.8,1-1.4,6.3C283.1,91.4,283.1,86.8,284.5,85.1z"/>
	</g>
	<g>
		<defs>
			<rect id="SVGID_149_" y="0" width="453.2" height="254.9"/>
		</defs>
		<clipPath id="SVGID_150_">
			<use xlink:href="#SVGID_149_"  style="overflow:visible;"/>
		</clipPath>
		<path class="st92" d="M274.5,91.4c0,0-0.6-4.4,1.2-6.4C275.7,85,274.4,86.9,274.5,91.4z"/>
	</g>
	<g>
		<defs>
			<rect id="SVGID_151_" y="0" width="453.2" height="254.9"/>
		</defs>
		<clipPath id="SVGID_152_">
			<use xlink:href="#SVGID_151_"  style="overflow:visible;"/>
		</clipPath>
		<path class="st93" d="M281.9,78.7c-0.6,1.2-2.6,3.1-5.2,3.1c2.1,1.7,6.4,1.2,6.4,1.2c2.8-8.4,0.2-11,0.2-11c-4.1-4-9-1.2-9,0.4
			c0,0,0.3,2.4,6.4,4.5c0.4,0.1,0.9-1.1,1.9-0.9C283.6,76.2,283.7,78.2,281.9,78.7z"/>
	</g>
	<g>
		<defs>
			<rect id="SVGID_153_" y="0" width="453.2" height="254.9"/>
		</defs>
		<clipPath id="SVGID_154_">
			<use xlink:href="#SVGID_153_"  style="overflow:visible;"/>
		</clipPath>
		<path class="st94" d="M260.4,90.8c0.1-0.1,0-0.3-0.1-0.3c-1.2-0.3-2.2-1.3-2.7-1.9c-0.2-0.2-0.5-0.2-0.7,0.1
			c-0.1,0.1-0.1,0.2-0.2,0.4c-0.2,0.3-0.4,0.5-0.5,0.6c-0.2,0.1-0.2,0.4-0.1,0.6c0.3,0.5,1,1.3,2.6,2c0.1,0.1,0.3,0,0.3-0.1
			c0.2-0.2,0.5-0.5,0.7-0.6C260.1,91.4,260.3,91,260.4,90.8z"/>
	</g>
	<g>
		<defs>
			<rect id="SVGID_155_" y="0" width="453.2" height="254.9"/>
		</defs>
		<clipPath id="SVGID_156_">
			<use xlink:href="#SVGID_155_"  style="overflow:visible;"/>
		</clipPath>
		<ellipse class="st95" cx="266" cy="88.3" rx="4.4" ry="4.5"/>
	</g>
	<g>
		<defs>
			<rect id="SVGID_157_" y="0" width="453.2" height="254.9"/>
		</defs>
		<clipPath id="SVGID_158_">
			<use xlink:href="#SVGID_157_"  style="overflow:visible;"/>
		</clipPath>
		<path class="st96" d="M262.7,87.1c-0.1,0-0.2-0.1-0.2-0.2c-0.1-0.1-0.1-0.2-0.1-0.3c0-0.1,0-0.2,0.1-0.3c0.1-0.1,0.1-0.2,0.2-0.2
			s0.2-0.1,0.3-0.1c0.1,0,0.2,0,0.3,0.1c0.1,0,0.2,0.1,0.2,0.2c0.1,0.1,0.1,0.2,0.1,0.3c0,0.1,0,0.2-0.1,0.3
			c-0.1,0.1-0.1,0.2-0.2,0.2s-0.2,0.1-0.3,0.1C262.9,87.1,262.8,87.1,262.7,87.1z M263.2,86.8c0.1-0.1,0.1-0.1,0.1-0.2
			s0-0.2-0.1-0.2c-0.1-0.1-0.1-0.1-0.2-0.1s-0.1,0-0.2,0.1s-0.1,0.1-0.1,0.2s0,0.2,0.1,0.2c0.1,0.1,0.1,0.1,0.2,0.1
			S263.2,86.8,263.2,86.8z"/>
	</g>
	<g>
		<defs>
			<rect id="SVGID_159_" y="0" width="453.2" height="254.9"/>
		</defs>
		<clipPath id="SVGID_160_">
			<use xlink:href="#SVGID_159_"  style="overflow:visible;"/>
		</clipPath>
		<path class="st97" d="M264.8,86.1c0.1,0.1,0.1,0.2,0.1,0.4v0.6h-0.3v-0.6c0-0.1,0-0.2-0.1-0.2c0,0-0.1-0.1-0.2-0.1s-0.1,0-0.2,0.1
			c0,0-0.1,0.1-0.1,0.2V87h-0.3v-1h0.3v0.1c0,0,0.1-0.1,0.2-0.1s0.1,0,0.2,0C264.6,86,264.7,86.1,264.8,86.1z"/>
	</g>
	<g>
		<defs>
			<rect id="SVGID_161_" y="0" width="453.2" height="254.9"/>
		</defs>
		<clipPath id="SVGID_162_">
			<use xlink:href="#SVGID_161_"  style="overflow:visible;"/>
		</clipPath>
		<path class="st98" d="M266.3,86.7h-0.8c0,0.1,0,0.1,0.1,0.2c0.1,0,0.1,0.1,0.2,0.1s0.1,0,0.1,0s0.1,0,0.1-0.1l0.2,0.2
			c-0.1,0.1-0.2,0.2-0.4,0.2c-0.1,0-0.2,0-0.3-0.1c-0.1,0-0.2-0.1-0.2-0.2c-0.1-0.1-0.1-0.2-0.1-0.3c0-0.1,0-0.2,0.1-0.3
			c0-0.1,0.1-0.2,0.2-0.2s0.2-0.1,0.3-0.1c0.1,0,0.2,0,0.3,0.1s0.2,0.1,0.2,0.2C266.3,86.4,266.3,86.5,266.3,86.7
			C266.3,86.6,266.3,86.6,266.3,86.7z M265.6,86.3c0,0-0.1,0.1-0.1,0.2h0.5c0-0.1,0-0.1-0.1-0.2C265.9,86.3,265.8,86.2,265.6,86.3
			C265.7,86.3,265.6,86.3,265.6,86.3z"/>
	</g>
	<g>
		<defs>
			<rect id="SVGID_163_" y="0" width="453.2" height="254.9"/>
		</defs>
		<clipPath id="SVGID_164_">
			<use xlink:href="#SVGID_163_"  style="overflow:visible;"/>
		</clipPath>
		<path class="st99" d="M263.2,88.9c0,0-0.1,0-0.1,0.1H263c-0.1,0-0.2,0-0.3-0.1c-0.1-0.1-0.1-0.2-0.1-0.3v-0.4h-0.2V88h0.2v-0.3
			h0.3V88h0.3v0.2h-0.3v0.4v0.1h0.1h0.1L263.2,88.9z"/>
	</g>
	<g>
		<defs>
			<rect id="SVGID_165_" y="0" width="453.2" height="254.9"/>
		</defs>
		<clipPath id="SVGID_166_">
			<use xlink:href="#SVGID_165_"  style="overflow:visible;"/>
		</clipPath>
		<path class="st100" d="M265.1,87.8l-0.4,1.1h-0.3l-0.2-0.7l-0.2,0.7h-0.3l-0.4-1.1h0.3l0.3,0.7l0.3-0.7h0.3l0.3,0.7L265.1,87.8
			L265.1,87.8z"/>
	</g>
	<g>
		<defs>
			<rect id="SVGID_167_" y="0" width="453.2" height="254.9"/>
		</defs>
		<clipPath id="SVGID_168_">
			<use xlink:href="#SVGID_167_"  style="overflow:visible;"/>
		</clipPath>
		<path class="st101" d="M265.5,88.9c-0.1,0-0.2-0.1-0.2-0.2c-0.1-0.1-0.1-0.2-0.1-0.3c0-0.1,0-0.2,0.1-0.3c0.1-0.1,0.1-0.2,0.2-0.2
			s0.2-0.1,0.3-0.1s0.2,0,0.3,0.1c0.1,0,0.2,0.1,0.2,0.2c0.1,0.1,0.1,0.2,0.1,0.3c0,0.1,0,0.2-0.1,0.3c-0.1,0.1-0.1,0.2-0.2,0.2
			s-0.2,0.1-0.3,0.1S265.6,88.9,265.5,88.9z M266,88.6c0.1-0.1,0.1-0.1,0.1-0.2s0-0.2-0.1-0.2c-0.1-0.1-0.1-0.1-0.2-0.1
			s-0.1,0-0.2,0.1s-0.1,0.1-0.1,0.2s0,0.2,0.1,0.2c0.1,0.1,0.1,0.1,0.2,0.1C265.8,88.7,265.9,88.7,266,88.6z"/>
	</g>
	<g>
		<defs>
			<rect id="SVGID_169_" y="0" width="453.2" height="254.9"/>
		</defs>
		<clipPath id="SVGID_170_">
			<use xlink:href="#SVGID_169_"  style="overflow:visible;"/>
		</clipPath>
		<path class="st102" d="M262.7,90.5c-0.1,0-0.2-0.1-0.2-0.2c-0.1-0.1-0.1-0.2-0.1-0.3c0-0.1,0-0.2,0.1-0.3c0.1-0.1,0.1-0.2,0.2-0.2
			s0.2-0.1,0.3-0.1c0.1,0,0.2,0,0.3,0.1c0.1,0,0.1,0.1,0.2,0.2l-0.2,0.1c-0.1-0.1-0.1-0.2-0.2-0.2s-0.1,0-0.2,0.1s-0.1,0.1-0.1,0.2
			s0,0.2,0.1,0.2c0.1,0.1,0.1,0.1,0.2,0.1s0.2,0,0.2-0.2l0.2,0.1c0,0.1-0.1,0.2-0.2,0.2s-0.2,0.1-0.3,0.1
			C262.9,90.6,262.8,90.6,262.7,90.5z"/>
	</g>
	<g>
		<defs>
			<rect id="SVGID_171_" y="0" width="453.2" height="254.9"/>
		</defs>
		<clipPath id="SVGID_172_">
			<use xlink:href="#SVGID_171_"  style="overflow:visible;"/>
		</clipPath>
		<path class="st103" d="M264.7,89.6c0.1,0.1,0.1,0.2,0.1,0.4v0.6h-0.3v-0.1c-0.1,0.1-0.2,0.2-0.3,0.2c-0.1,0-0.2,0-0.2,0
			c-0.1,0-0.1-0.1-0.1-0.1s0-0.1,0-0.2s0-0.2,0.1-0.2c0.1-0.1,0.2-0.1,0.3-0.1h0.2c0-0.1,0-0.1-0.1-0.2c0,0-0.1-0.1-0.2-0.1
			s-0.1,0-0.2,0s-0.1,0-0.1,0.1l-0.1-0.2c0.1,0,0.1-0.1,0.2-0.1s0.2,0,0.3,0C264.5,89.5,264.6,89.5,264.7,89.6z M264.4,90.4l0.1-0.1
			v-0.1h-0.2c-0.1,0-0.2,0-0.2,0.1v0.1h0.1C264.3,90.4,264.4,90.4,264.4,90.4z"/>
	</g>
	<g>
		<defs>
			<rect id="SVGID_173_" y="0" width="453.2" height="254.9"/>
		</defs>
		<clipPath id="SVGID_174_">
			<use xlink:href="#SVGID_173_"  style="overflow:visible;"/>
		</clipPath>
		<path class="st104" d="M265.7,89.5c0.1,0,0.1,0,0.2,0v0.3h-0.1c-0.1,0-0.2,0-0.2,0.1c-0.1,0.1-0.1,0.1-0.1,0.2v0.5h-0.3v-1.1h0.3
			v0.1C265.6,89.6,265.6,89.6,265.7,89.5z"/>
	</g>
	<g>
		<defs>
			<rect id="SVGID_175_" y="0" width="453.2" height="254.9"/>
		</defs>
		<clipPath id="SVGID_176_">
			<use xlink:href="#SVGID_175_"  style="overflow:visible;"/>
		</clipPath>
		<path class="st105" d="M267.3,90.1h-0.8c0,0.1,0,0.1,0.1,0.2c0.1,0,0.1,0.1,0.2,0.1s0.1,0,0.1,0s0.1,0,0.1-0.1l0.2,0.2
			c-0.1,0.1-0.2,0.2-0.4,0.2c-0.1,0-0.2,0-0.3-0.1c-0.1,0-0.2-0.1-0.2-0.2c-0.1-0.1-0.1-0.2-0.1-0.3c0-0.1,0-0.2,0.1-0.3
			c0-0.1,0.1-0.2,0.2-0.2s0.2-0.1,0.3-0.1c0.1,0,0.2,0,0.3,0.1c0.1,0,0.2,0.1,0.2,0.2C267.3,89.8,267.3,89.9,267.3,90.1L267.3,90.1z
			 M266.6,89.8c0,0-0.1,0.1-0.1,0.2h0.5c0-0.1,0-0.1-0.1-0.2C266.9,89.8,266.8,89.7,266.6,89.8C266.7,89.7,266.6,89.8,266.6,89.8z"
			/>
	</g>
	<g>
		<defs>
			<rect id="SVGID_177_" y="0" width="453.2" height="254.9"/>
		</defs>
		<clipPath id="SVGID_178_">
			<use xlink:href="#SVGID_177_"  style="overflow:visible;"/>
		</clipPath>
		<path class="st106" d="M268.7,90.1h-0.8c0,0.1,0,0.1,0.1,0.2c0.1,0,0.1,0.1,0.2,0.1s0.1,0,0.1,0s0.1,0,0.1-0.1l0.2,0.2
			c-0.1,0.1-0.2,0.2-0.4,0.2c-0.1,0-0.2,0-0.3-0.1c-0.1,0-0.2-0.1-0.2-0.2c-0.1-0.1-0.1-0.2-0.1-0.3c0-0.1,0-0.2,0.1-0.3
			c0-0.1,0.1-0.2,0.2-0.2s0.2-0.1,0.3-0.1c0.1,0,0.2,0,0.3,0.1c0.1,0,0.2,0.1,0.2,0.2C268.7,89.8,268.7,89.9,268.7,90.1L268.7,90.1z
			 M268,89.8c0,0-0.1,0.1-0.1,0.2h0.5c0-0.1,0-0.1-0.1-0.2C268.3,89.8,268.2,89.7,268,89.8C268.1,89.7,268.1,89.8,268,89.8z"/>
	</g>
	<g>
		<defs>
			<rect id="SVGID_179_" y="0" width="453.2" height="254.9"/>
		</defs>
		<clipPath id="SVGID_180_">
			<use xlink:href="#SVGID_179_"  style="overflow:visible;"/>
		</clipPath>
		<path class="st107" d="M269.6,89.5c0.1,0,0.1,0,0.2,0v0.3h-0.1c-0.1,0-0.2,0-0.2,0.1c-0.1,0.1-0.1,0.1-0.1,0.2v0.5h-0.3v-1.1h0.3
			v0.1C269.5,89.6,269.5,89.6,269.6,89.5z"/>
	</g>
	<g>
		<defs>
			<rect id="SVGID_181_" y="0" width="453.2" height="254.9"/>
		</defs>
		<clipPath id="SVGID_182_">
			<use xlink:href="#SVGID_181_"  style="overflow:visible;"/>
		</clipPath>
		<g class="st108">
			<path class="st109" d="M314,85.6c0.7-4.7,4-8.4,8-8.8c1.3-0.1,2-0.6,2.7-2.2c1.3-3.2,3.4-5.5,6-6.8c1-0.5,1.3-1.1,1.2-2.5
				c-0.1-7.8,3.6-12.8,9.6-13.4c0.8-0.1,1.7-1.1,2.2-2.1c6.1-11.6,17.5-15.7,26.9-9.2c2.7,1.8,4.9,4.9,7.1,7.7
				c0.8,1,1.4,1.8,2.7,1.7c2.9-0.2,5.7,0.8,8,3.2c0.8,0.8,1.4,0.8,2.3,0.1c0.7-0.5,1.6-1,2.3-0.9c2.3,0.5,4.2-0.7,6.3-1.4
				c9.3-3.3,18.8,1.4,24.1,12c0.6,1.3,1.2,1.7,2.4,1.6c4.8-0.4,8.7,1.8,11.7,6.8c0.3,0.6,1.3,0.9,1.8,0.8c4.3-0.8,7.7,1,10.3,5.6
				c0.4,0.7,1.3,1.3,2.1,1.4c2.7,0.6,4.6,2.9,4.8,6.4C409.1,85.6,361.5,85.6,314,85.6z"/>
			<circle class="st110" cx="391.1" cy="67.2" r="8.3"/>
			<circle class="st110" cx="418.6" cy="73.7" r="8.3"/>
			<circle class="st110" cx="378.2" cy="63.4" r="10.2"/>
			<circle class="st110" cx="361.2" cy="56.6" r="14.8"/>
		</g>
	</g>
	<g>
		<defs>
			<rect id="SVGID_183_" y="0" width="453.2" height="254.9"/>
		</defs>
		<clipPath id="SVGID_184_">
			<use xlink:href="#SVGID_183_"  style="overflow:visible;"/>
		</clipPath>
		<g class="st111">
			<path class="st109" d="M131.7,210.8c-0.1-6.8,5-9.8,14.6-8.6c0.4-4.7,2.2-8.7,6.8-11.1c1.4-0.7,3-1.6,4.5-1.6
				c2.7,0,3.6-1.1,4.4-3.4c3.3-10,14.1-16.5,25.3-15.4c11.4,1.1,20.5,9.4,21.7,19.9c0.2,1.6,0.6,2.3,2.3,2.8
				c5.3,1.8,9.2,5.2,11.6,9.9c9.1-1.1,13.2,1.2,13.7,7.6C201.5,210.8,166.6,210.8,131.7,210.8z"/>
			<circle class="st110" cx="182.5" cy="187.8" r="12"/>
			<circle class="st110" cx="193.5" cy="196" r="7.3"/>
			<circle class="st110" cx="167.6" cy="198.8" r="8.7"/>
		</g>
	</g>
	<g>
		<defs>
			<rect id="SVGID_185_" y="0" width="453.2" height="254.9"/>
		</defs>
		<clipPath id="SVGID_186_">
			<use xlink:href="#SVGID_185_"  style="overflow:visible;"/>
		</clipPath>
		<path class="st112" d="M90.4,242c0,0,4.5-2.8,7-10.3c0,0,1.2,4.1,0,7.4c0,0,6.8-5.8,6.8-17c0,0,4,8.7,1.8,14.8
			c0,0,8.3-3.8,8.5-8.3c0,0,1.7,8.9-3,11.8c0,0,8,1.3,12.5-1c0,0,2.8,3.1,7.8,5.4C131.7,244.8,94.8,242.3,90.4,242z"/>
	</g>
</g>
</svg>
