<svg xmlns="http://www.w3.org/2000/svg" xmlns:xlink="http://www.w3.org/1999/xlink" id="B8" x="0" y="0" version="1.1" viewBox="0 0 524.5 295" xml:space="preserve"><defs/><style>.st20{clip-path:url(#SVGID_2_)}.st21{fill:#25bf4c}.st41,.st42{clip-path:url(#SVGID_2_);fill:#876f2d}.st42{fill:#d4af4e}.st49{fill:#20a642}.st63{clip-path:url(#SVGID_2_);fill:#e1a98b}.st74{fill:#a42a0b}.st75{fill:#fff}.st76{fill:#f15128}.st198{clip-path:url(#SVGID_4_)}.st199{fill:#1fa341}.st200{fill:#1b8f39}.st201{fill:#23b347}.st243,.st248,.st249{clip-path:url(#SVGID_6_)}.st248,.st249{fill:#876f2d}.st249{fill:#d4af4e}.st321{clip-path:url(#SVGID_8_)}.st348,.st353,.st354{clip-path:url(#SVGID_10_)}.st353,.st354{fill:#876f2d}.st354{fill:#d4af4e}.st426{clip-path:url(#SVGID_12_)}.st531{clip-path:url(#SVGID_16_)}.st739{clip-path:url(#SVGID_24_)}</style><defs><path id="SVGID_1_" d="M715.8-7.3h524.5v295H715.8z"/></defs><clipPath id="SVGID_2_"><use overflow="visible" xlink:href="#SVGID_1_"/></clipPath><path fill="#fff" d="M-332.8-597.5H1241v885.3H-332.8z" clip-path="url(#SVGID_2_)"/><path fill="#bdefef" d="M-251.8-164c93.7 0 142.2-206.2 287.8-225.1C146.9-403.5 191-341 244.4-341c75.2 0 171.4-76.5 298.9-9.7 81.4 42.6 158.3 90.3 217 96.3s191-26 259.1.6c188.2 73.7 146 324.3 146 324.3h-1426l8.8-234.5z" clip-path="url(#SVGID_2_)"/><path fill="#23b347" d="M1166.3-71.1c-114.2 0-201.1 9.5-250.8-9.7-120.5-46.4-109.7-187-335.6-187-112.5 0-152 34.6-242.8 34.6-50.5 0-110.5-99.8-217.5-99.8-198.1 0-192.8 154.3-355.8 168.3-13.8 1.2-24.5 12.8-24.5 26.6 0 49.5-2.6 98.6-5 143.6-4.4 82.4-6.4 149.9 21.7 172 38.4 17.2 180.1-25.9 305.9.4 182.3 38.2 240.5 16.6 427.6 6.4 112.3-6.1 275.8-9.3 330.2-8.7 161.5 1.7 308.4 26.6 335.1 1.9 25.8-23.9 24.6-148.9 11.5-248.6z" clip-path="url(#SVGID_2_)"/><path fill="#25bf4c" d="M1121.1-64.9C1068-62 897.3-18.3 840.3-67.1c-36.7-31.5-59.7-70.9-81.9-92.4-66.9-64.4-290.3-130.3-408.7-15.7-30.2 29.2-50.1 61.8-30.5 98.9 2.5 4.6 5.8 8.9 9.8 12.7 27.7-.8 84.7-9.6 97.2-35.6l54 7.8c-18.8 25.6-61.8 45.5-99.2 55.9 42.8 15.8 90.4 26.6 90.4 55.4 0 39.5-331 46.4-339.2-29.5-4.8-44.3 88.3-106.3 101.9-122.9 43.6-53.2 51.4-94.8 3.6-144.3-47.8-49.4-122.4-65.8-188.1-45.4-145.2 45-143.3 146.9-92.8 218.6 7 9.9 9.9 23.7 4.6 34.7-8.4 17.2-31.9 18.8-51.1 18-42.4-1.8-130.2-6-172.6-7.8l-6.4 119.8c57.8-5.8 272.9-16.3 327.6 30.5C107.3 133 221.2 154.4 317 154c150.5 3.3 274.5-90 267-163.5-14-138.4-255-75.9-155.7-146.4 65-46.1 189.4-19.3 245.3 14 11.7 7 23.2 15.1 31 26.3 7.8 11.2 11.4 26.1 6.4 38.8-5.6 14.1-20 22.4-33.9 28.6-13.8 6-28.4 10.7-43.3 14.2-20.4 4.8-22.4 33.1-2.8 40.5.2.1.3.1.5.2 15.3 5.6 32.1 5 48.1 2.8 16.1-2.2 32-6 48.2-6.5 36.6-1.2 73.4 9.5 106.1 26 120.4 60.6 229.3-20.3 287.4-71l-.2-22.9z" clip-path="url(#SVGID_2_)"/><path d="M371.5-71.1c-15.8-8.2-26.4-17.9-31.6-29-6.9-14.6-4.7-31.3 6.4-49.8 24.8-41 76.7-71.3 132.3-77 18.8-1.9 37.1-2.9 54.4-2.9 91.8 0 164.5 26.9 222.3 82.3 10.8 10.3 20.2 23.4 30.2 37.2 19 26.3 40.6 56.2 77.2 73.9 6.9 3.3 13.4 5.2 19.4 5 44.9-1.6 35.3-44.8 33.4-49.3l205.7-4.5v20.6L1038-12.4l-.5.3-.1.1c-1.3.7-3.2 1.7-5.5 3-18.9 10.3-69 37.7-115 37.7-7.7 0-15.1-.8-21.9-2.3C849 16 803.2-2.4 769.2-24L628.9 0l-3.1-40 4.6.4c6 .6 11.6.9 17.2.9 16.9 0 33.2-2.6 51.3-8.3 22.1-6.9 44.9-17.1 46.4-40 .6-8.6-5.6-25.9-24.8-46.5-19.7-21.1-77.7-70.1-190.7-70.1-16.9 0-34.6 1.1-52.5 3.3-30.8 3.8-57.2 13.3-76.5 27.4-17.3 12.7-26.9 27.9-27 42.8-.1 16.9 11.8 31.3 33.3 41.5l-21.7 11.7-13.9 5.8z" class="st41"/><path d="M460.2-74.2c2.5.3 5 .7 7.6 1 4.2.5 8.5 1.1 12.8 1.7 30.2 4.2 61.5 11.2 77.9 37.2 9.9 15.7 11.2 34.8 3.8 55.3-13 36.3-50.5 69.4-95.6 84.3-52.9 17.5-110.9 26.8-167.6 26.8-47 0-90.8-6.3-129.9-18.8C118.8 97.2 61.8 60.3 52.7 4.6 48-24.1 64.1-55.7 99.2-86.8c11.8-10.5 24.6-20 37-29.2 14.5-10.8 29.5-22 42.8-34.6 32-30.5 45.3-69.3 33.8-98.9-11.3-29.2-45.6-45.8-96.5-46.9-2 0-4-.1-6-.1-76.3 0-106.7 29.1-118.6 53.6-16.4 33.4-5.4 72.3 11.7 94.3 20.5 26.4 31.3 51 32.3 72.9.8 19.1-5.8 37-19.6 53.1C-8.6 6.1-57.7 9.7-97.7 9.7c-70.1 0-158.9-3.8-159.4-3.9l-8.6-.3 2.3-54.3 7.3.8c.4.1 85.1 7.8 162.2 7.8 59.5 0 77.1-13.9 81.4-25.5 6.3-17.2-7.6-40.3-22.3-64.9-17.4-29.1-35.4-59.2-25.1-86.6 13-34.3 36.7-62.1 68.6-80.4 28.1-16.1 61.6-24.6 96.8-24.6 60.2 0 112.4 25 129.9 62.2 21.8 46.5 17.5 65.9-7.7 104.4-11.7 18-32.8 35.5-55.1 54.1-34.1 28.4-69.5 57.8-73.4 90.5-2.1 17.6 8.9 32.9 32.6 45.4 23.6 12.4 54 18.9 70 21.7 47.9 8.3 89.3 12.3 126.8 12.3 45.1 0 84.8-5.7 121.3-17.3 54.1-17.3 80-38.7 73.7-61.7-8.6-31.5-67-34-68.8-34.3l5.4-29.3z" class="st41"/><path d="M456.9-48.3c26.5 3 64 11.1 70.6 37.1 9.3 36.6-50.4 58-76.3 66.3-79.8 25.5-167.3 19.4-249.9 5.2-43.4-7.5-111-27.7-105.8-71.4 6.7-56.1 99.8-101.4 129.1-146.3 24.7-37.8 28.4-56.1 7.4-100.7-37.6-80-236.9-93.1-288.2 42.5-18.4 48.7 62 111.5 47.4 151.4-10.1 27.4-67.3 28-85 28-78.4 0-169.7-8.9-169.7-8.9L-265.4.5s97 5.3 167.8 5.3C-60.5 5.8-11 3 13.2-25 37.3-53 43-90.9.3-146.1c-39.3-50.8-33.1-157 116.1-154.1 125.3 2.5 125.3 95.3 65.3 152.4-24.7 23.5-54.4 41.2-79.9 63.9S51-29.7 56.5 4c9.1 56.3 69.1 91.4 113.9 105.7 91.6 29.2 203.9 22.2 295.1-8 71.8-23.8 116.6-91.2 89.7-133.9-16-25.4-55.8-34.3-86.4-38.4l-11.9 22.3z" class="st42"/><path d="M402.7-86.5c-66.9-34.6-26.2-105.2 74-117.6 190.2-23.6 274.6 83 272.3 117.4-1.7 24.9-25.4 36-49.1 43.5-23.8 7.4-45.2 10-70 7.6l2.4 31.2c45.9-7.9 91.8-15.7 137.6-23.6 29.9 19.2 74.3 39 125.9 50.7 55.1 12.5 126.3-31.1 139.9-38l.3-.2 85.2-53.5v-12.4l-205.7.8c10 20.7-9.9 69.3-54.5 47.7-56.6-27.4-77.3-81.9-108.4-111.7-72.1-69.1-164.5-89.6-273.6-78.3-50 5.2-103.4 32.1-129.4 75.1-15 24.9-17.4 53.5 26.6 75l26.5-13.7z" class="st42"/><path fill="#201600" d="M-62 1.8c-27.2-16.5-61.2-38.7-61.2-38.7S-2.1-8.9 17.1.2L-62 1.8z" clip-path="url(#SVGID_2_)" opacity=".36"/><path fill="#e2946b" d="M-55.5-14.8c3.3-10.6 9.6-23.1 21.6-26.4 18.2-5 34.3 13.9 43.7 29L17 .2-60.2 0l4.7-14.8z" clip-path="url(#SVGID_2_)"/><path d="M-26.1-36.8c-13-1.7-21.4 10.9-30.5 36.8h-2.2c3.6-12.1 9.6-39.3 27.8-41C-2.4-43.7 15.2.2 15.2.2L11.1.1s-15-33.9-37.2-36.9z" class="st63"/><path d="M-2.7-.1c-.1 0-8.4-23.1-23.9-23.1C-40.7-23.2-44.7.3-44.8.3l-6.9-.1c3.2-11.9 10.8-29.3 24-29.2 20 .1 31.9 29 31.9 29l-6.9-.1z" class="st63"/><path fill="#7e4628" d="M-32.5-39.9C-44.9-38-51.2-24.4-58.8 0h-1.3c4-13.1 9.7-40.4 30.1-42.1C-4.4-44.2 17.1.2 17.1.2h-2.4S-4.9-44.2-32.5-39.9z" clip-path="url(#SVGID_2_)"/><g class="st20"><ellipse cx="389.6" cy="20.3" class="st74" rx="31.5" ry="23.8" transform="rotate(-77.807 389.575 20.261)"/><path d="M383.6 48.7c-1.2 0-2.3-.1-3.5-.4-11.7-2.6-18.4-17.5-15-33.4 3-13.9 13.3-24.5 24-24.5 1.2 0 2.3.1 3.5.4 11.7 2.6 18.4 17.5 15 33.4-3.1 14-13.4 24.5-24 24.5z" class="st75"/><path d="M389.2-11.6v4.2c1 0 2 .1 3 .3 10.6 2.3 16.6 16.2 13.4 30.9-2.8 13-12.3 22.8-21.9 22.8-1 0-2-.1-3-.3-10.7-2.4-16.7-16.2-13.5-30.9 2.8-13 12.3-22.8 21.9-22.8l.1-4.2m0 0c-11.5 0-22.7 10.8-26 26.1-3.7 17 3.7 33.1 16.5 35.9 1.3.3 2.6.4 3.9.4 11.5 0 22.7-10.8 26-26.1 3.7-17-3.7-33.1-16.5-35.9-1.3-.3-2.6-.4-3.9-.4z" class="st76"/><path d="M384.7 36c-.6 0-1.3-.1-1.9-.2-6.5-1.4-10.2-9.8-8.2-18.8 1.7-7.9 7.5-13.8 13.4-13.8.6 0 1.3.1 1.9.2 6.5 1.4 10.2 9.8 8.2 18.8-1.7 7.8-7.5 13.8-13.4 13.8z" class="st75"/><path d="M388 5.3c.5 0 1 .1 1.4.2 5.3 1.2 8.3 8.6 6.6 16.3-1.5 6.9-6.4 12.2-11.3 12.2-.5 0-1-.1-1.4-.2-5.3-1.2-8.3-8.6-6.6-16.3 1.5-7 6.4-12.2 11.3-12.2m0-4.2c-6.8 0-13.5 6.4-15.4 15.5-2.2 10.1 2.2 19.6 9.8 21.3.8.2 1.5.3 2.3.3 6.8 0 13.5-6.4 15.4-15.5 2.2-10.1-2.2-19.6-9.8-21.3-.7-.2-1.5-.3-2.3-.3z" class="st76"/><g><ellipse cx="386.4" cy="19.6" class="st76" rx="6.4" ry="4.9" transform="rotate(-77.807 386.384 19.572)"/></g></g><g class="st20"><ellipse cx="332.6" cy="20.3" class="st74" rx="31.5" ry="23.8" transform="rotate(-77.807 332.623 20.262)"/><path d="M326.6 48.7c-1.2 0-2.3-.1-3.5-.4-11.7-2.6-18.4-17.5-15-33.4 3-13.9 13.3-24.5 24-24.5 1.2 0 2.3.1 3.5.4 11.7 2.6 18.4 17.5 15 33.4-3 14-13.3 24.5-24 24.5z" class="st75"/><path d="M332.2-11.6v4.2c1 0 2 .1 3 .3 10.6 2.3 16.6 16.2 13.4 30.9-2.8 13-12.3 22.8-21.9 22.8-1 0-2-.1-3-.3-10.6-2.3-16.6-16.2-13.4-30.9 2.8-13 12.3-22.8 21.9-22.8v-4.2m0 0c-11.5 0-22.7 10.8-26 26.1-3.7 17 3.7 33.1 16.5 35.9 1.3.3 2.6.4 3.9.4 11.5 0 22.7-10.8 26-26.1 3.7-17-3.7-33.1-16.5-35.9-1.3-.3-2.6-.4-3.9-.4z" class="st76"/><path d="M327.8 36c-.6 0-1.3-.1-1.9-.2-6.5-1.4-10.2-9.8-8.2-18.8 1.7-7.9 7.5-13.8 13.4-13.8.6 0 1.3.1 1.9.2 6.5 1.4 10.2 9.8 8.2 18.8-1.8 7.8-7.5 13.8-13.4 13.8z" class="st75"/><path d="M331.1 5.3c.5 0 1 .1 1.4.2 5.3 1.2 8.3 8.6 6.6 16.3-1.5 6.9-6.4 12.2-11.3 12.2-.5 0-1-.1-1.4-.2-5.3-1.2-8.3-8.6-6.6-16.3 1.4-7 6.3-12.2 11.3-12.2m0-4.2c-6.8 0-13.5 6.4-15.4 15.5-2.2 10.1 2.2 19.6 9.8 21.3.8.2 1.5.3 2.3.3 6.8 0 13.5-6.4 15.4-15.5 2.2-10.1-2.2-19.6-9.8-21.3-.8-.2-1.6-.3-2.3-.3z" class="st76"/><g><ellipse cx="329.4" cy="19.6" class="st76" rx="6.4" ry="4.9" transform="rotate(-77.807 329.432 19.572)"/></g></g><g class="st20"><ellipse cx="276.3" cy="20.3" class="st74" rx="31.5" ry="23.8" transform="rotate(-77.807 276.299 20.262)"/><path d="M270.3 48.7c-1.2 0-2.3-.1-3.5-.4-11.7-2.6-18.4-17.5-15-33.4 3-13.9 13.3-24.5 24-24.5 1.2 0 2.3.1 3.5.4 11.7 2.6 18.4 17.5 15 33.4-3 14-13.4 24.5-24 24.5z" class="st75"/><path d="M275.9-11.6v4.2c1 0 2 .1 3 .3 10.6 2.3 16.6 16.2 13.4 30.9-2.8 13-12.3 22.8-21.9 22.8-1 0-2-.1-3-.3-10.6-2.3-16.6-16.2-13.4-30.9 2.8-13 12.3-22.8 21.9-22.8v-4.2m0 0c-11.5 0-22.7 10.8-26 26.1-3.7 17 3.7 33.1 16.5 35.9 1.3.3 2.6.4 3.9.4 11.5 0 22.7-10.8 26-26.1 3.7-17-3.7-33.1-16.5-35.9-1.3-.3-2.6-.4-3.9-.4z" class="st76"/><path d="M271.4 36c-.6 0-1.3-.1-1.9-.2-6.5-1.4-10.2-9.8-8.2-18.8 1.7-7.9 7.5-13.8 13.4-13.8.6 0 1.3.1 1.9.2 6.5 1.4 10.2 9.8 8.2 18.8-1.7 7.8-7.4 13.8-13.4 13.8z" class="st75"/><path d="M274.7 5.3c.5 0 1 .1 1.4.2 5.3 1.2 8.3 8.6 6.6 16.3-1.5 6.9-6.4 12.2-11.3 12.2-.5 0-1-.1-1.4-.2-5.3-1.2-8.3-8.6-6.6-16.3 1.5-7 6.4-12.2 11.3-12.2m0-4.2c-6.8 0-13.5 6.4-15.4 15.5-2.2 10.1 2.2 19.6 9.8 21.3.8.2 1.5.3 2.3.3 6.8 0 13.5-6.4 15.4-15.5 2.2-10.1-2.2-19.6-9.8-21.3-.7-.2-1.5-.3-2.3-.3z" class="st76"/><g><ellipse cx="273.1" cy="19.6" class="st76" rx="6.4" ry="4.9" transform="rotate(-77.807 273.108 19.573)"/></g></g><g class="st20"><ellipse cx="222.8" cy="20.3" class="st74" rx="31.5" ry="23.8" transform="rotate(-77.807 222.848 20.263)"/><path d="M216.9 48.7c-1.2 0-2.3-.1-3.5-.4-11.7-2.6-18.4-17.5-15-33.4 3-13.9 13.3-24.5 24-24.5 1.2 0 2.3.1 3.5.4 11.7 2.6 18.4 17.5 15 33.4-3.1 14-13.4 24.5-24 24.5z" class="st75"/><path d="M222.4-11.6v4.2c1 0 2 .1 3 .3C236-4.8 242 9.1 238.8 23.8c-2.8 13-12.3 22.8-21.9 22.8-1 0-2-.1-3-.3-10.6-2.3-16.6-16.2-13.4-30.9 2.8-13 12.3-22.8 21.9-22.8v-4.2m0 0c-11.5 0-22.7 10.8-26 26.1-3.7 17 3.7 33.1 16.5 35.9 1.3.3 2.6.4 3.9.4 11.5 0 22.7-10.8 26-26.1 3.7-17-3.7-33.1-16.5-35.9-1.3-.3-2.6-.4-3.9-.4z" class="st76"/><path d="M218 36c-.6 0-1.3-.1-1.9-.2-6.5-1.4-10.2-9.8-8.2-18.8 1.7-7.9 7.5-13.8 13.4-13.8.6 0 1.3.1 1.9.2 6.5 1.4 10.2 9.8 8.2 18.8C229.7 30 223.9 36 218 36z" class="st75"/><path d="M221.3 5.3c.5 0 1 .1 1.4.2 5.3 1.2 8.3 8.6 6.6 16.3-1.5 6.9-6.4 12.2-11.3 12.2-.5 0-1-.1-1.4-.2-5.3-1.2-8.3-8.6-6.6-16.3 1.5-7 6.3-12.2 11.3-12.2m0-4.2c-6.8 0-13.5 6.4-15.4 15.5-2.2 10.1 2.2 19.6 9.8 21.3.8.2 1.5.3 2.3.3 6.8 0 13.5-6.4 15.4-15.5 2.2-10.1-2.2-19.6-9.8-21.3-.8-.2-1.5-.3-2.3-.3z" class="st76"/><g><ellipse cx="219.6" cy="19.6" class="st76" rx="6.4" ry="4.9" transform="rotate(-77.807 219.657 19.573)"/></g></g><g class="st20"><defs><path id="SVGID_3_" d="M1166.3-71.1c-114.2 0-201.1 9.5-250.8-9.7-120.5-46.4-109.7-187-335.6-187-112.5 0-152 34.6-242.8 34.6-50.5 0-110.5-99.8-217.5-99.8-198.1 0-192.8 154.3-355.8 168.3-13.8 1.2-24.5 12.8-24.5 26.6 0 49.7-3.5 97.2-5 143.6-2.7 82.2-6.3 150 21.7 172 38.4 17.2 180.1-25.9 305.9.4 182.3 38.2 240.5 16.6 427.6 6.4 112.3-6.1 275.8-9.3 330.2-8.7 161.5 1.7 308.4 26.6 335.1 1.9 25.8-23.9 24.6-148.9 11.5-248.6z"/></defs><clipPath id="SVGID_4_"><use overflow="visible" xlink:href="#SVGID_3_"/></clipPath><g class="st198"><path d="M155.2 194.8h-301.9c1-21.9 11.9-29.4 40.4-27.6 4.5-21.7 15.1-38.1 40.1-40.2 2.3-.2 4.6-5.9 6-9.4 12.5-33 38.8-50.3 73.2-47.9 31 2.2 55.1 25.5 62.7 59.5 1 4.5 5.2 8.8 9 11.9 5 4.2 12.4 6 16.3 10.9 9.2 11.8 18.2 20.1 35.4 19.2 10.8-.6 17.6 10.1 18.8 23.6z" class="st199"/><circle cx="12.3" cy="110.1" r="31" class="st21"/><circle cx="31.6" cy="124.1" r="22.9" class="st21"/><g><circle cx="-18.4" cy="135.3" r="19.1" class="st21"/></g></g><g class="st198"><path d="M509.7 158.9c4.9.2 9.5-.1 14 .8 11.6 2.2 19.2 9.4 22.5 20.6 1 3.4 2.6 4.4 5.8 4.9 14.8 2.3 25.1 14.3 24.9 28.9H267.7c-.8-9.9 7.4-15.6 19.7-13.8 7-16.1 15.1-20.1 31.6-15 3-10.1 8.5-18.4 18.1-23.5 9.4-5 19.3-5 29.5-1.7.3-4.3.2-8.2 1-12 4.1-21.5 16.6-35.8 37.9-41 21-5.1 38.7 1.6 52.2 18.6 1.9 2.4 3.4 3.6 6.7 3.1 21.3-3.3 38.9 8.1 45 28.7 0 .6.3 1.2.3 1.4z" class="st200"/><circle cx="414.8" cy="153.6" r="27.1" class="st21"/><circle cx="461.5" cy="171" r="30.3" class="st21"/><circle cx="422.2" cy="181.5" r="21.8" class="st21"/></g></g><g><defs><path id="SVGID_5_" d="M0 0h524.5v295H0z"/></defs><clipPath id="SVGID_6_"><use overflow="visible" xlink:href="#SVGID_5_"/></clipPath><path fill="#fff" d="M-524.1-590.2h1573.8v885.3H-524.1z" clip-path="url(#SVGID_6_)"/><path fill="#bdefef" d="M-443.1-156.7c93.7 0 142.2-206.2 287.8-225.1 110.9-14.4 155 48.1 208.4 48.1 75.2 0 171.4-76.5 298.9-9.7 81.4 42.6 158.3 90.3 217 96.3 58.7 6 191-26 259.1.6 188.2 73.7 146 324.3 146 324.3H-452l8.9-234.5z" clip-path="url(#SVGID_6_)"/><path fill="#23b347" d="M975-63.8c-114.2 0-201.1 9.5-250.8-9.7-120.5-46.4-109.7-187-335.6-187-112.5 0-152 34.6-242.8 34.6-50.5 0-110.5-99.8-217.5-99.8-198.1 0-192.8 154.3-355.8 168.3-13.8 1.2-24.5 12.8-24.5 26.6 0 49.5-2.6 98.6-5 143.6-4.4 82.4-6.4 149.9 21.7 172 38.4 17.2 180.1-25.9 305.9.4 182.3 38.2 240.5 16.6 427.6 6.4 112.3-6.1 275.8-9.3 330.2-8.7 161.5 1.7 308.4 26.6 335.1 1.9 25.8-23.9 24.6-148.9 11.5-248.6z" clip-path="url(#SVGID_6_)"/><path fill="#25bf4c" d="M929.8-57.6c-53 2.9-223.7 46.6-280.8-2.3-36.7-31.5-59.7-70.9-81.9-92.4-66.9-64.4-290.3-130.3-408.7-15.7-30.2 29.2-50.1 61.8-30.5 98.9 2.5 4.6 5.8 8.9 9.8 12.7 27.7-.8 84.7-9.6 97.2-35.6l54 7.8c-18.8 25.6-61.8 45.5-99.2 55.9 42.6 16 90.3 26.8 90.3 55.5C280 66.7-51 73.6-59.2-2.3-64-46.5 29.1-108.5 42.7-125.1c43.6-53.2 51.4-94.8 3.6-144.3-47.8-49.4-122.4-65.8-188.1-45.4C-286.9-269.9-285-168-234.5-96.3c7 9.9 9.9 23.7 4.6 34.7-8.4 17.3-31.9 18.9-51.1 18.1-42.4-1.8-130.2-6-172.6-7.8L-460 68.4c57.8-5.8 272.9-16.3 327.6 30.5 48.4 41.4 162.3 62.8 258.1 62.3 150.5 3.3 274.5-90 267-163.5-14-138.4-255.1-75.9-155.8-146.4 65-46.1 189.4-19.3 245.3 14 11.7 7 23.2 15.1 31 26.3 7.8 11.2 11.4 26.1 6.4 38.8-5.6 14.1-20 22.4-33.9 28.6-13.8 6-28.4 10.7-43.3 14.2C422-22 420 6.3 439.6 13.7c.2.1.3.1.5.2 15.3 5.6 32.1 5 48.1 2.8 16.1-2.2 32-6 48.2-6.5 36.6-1.2 73.4 9.5 106.1 26C762.9 96.9 871.9 16 930-34.7l-.2-22.9z" clip-path="url(#SVGID_6_)"/><path d="M180.2-63.8c-15.8-8.2-26.4-17.9-31.6-29-6.9-14.6-4.7-31.3 6.4-49.8 24.8-41 76.7-71.3 132.3-77 18.8-1.9 37.1-2.9 54.4-2.9 91.8 0 164.5 26.9 222.3 82.3 10.8 10.3 20.2 23.4 30.2 37.2 19 26.3 40.6 56.2 77.2 73.9 6.9 3.3 13.4 5.2 19.4 5 44.9-1.6 35.3-44.8 33.4-49.3L929.8-78v20.6L846.7-5.1l-.5.3-.1.1c-1.3.7-3.2 1.7-5.5 3-18.9 10.3-69 37.7-115 37.7-7.7 0-15.1-.8-21.9-2.3-46-10.4-91.8-28.8-125.8-50.4l-140.3 24-3.1-40 4.6.4c6 .6 11.6.9 17.2.9 16.9 0 33.2-2.6 51.3-8.3 22.1-6.9 44.9-17.1 46.4-40 .6-8.6-5.6-25.9-24.8-46.5-19.7-21.1-77.7-70.1-190.7-70.1-16.9 0-34.6 1.1-52.5 3.3-30.8 3.8-57.2 13.3-76.5 27.4-17.3 12.7-26.9 27.9-27 42.8-.1 16.9 11.8 31.3 33.3 41.5l-21.7 11.7-13.9 5.8z" class="st248"/><path d="M268.9-66.9c2.5.3 5 .7 7.6 1 4.2.5 8.5 1.1 12.8 1.7C319.5-60 350.8-53 367.2-27c9.9 15.7 11.2 34.8 3.8 55.3-13 36.3-50.5 69.4-95.6 84.3-52.9 17.5-110.9 26.8-167.6 26.8-47 0-90.8-6.3-129.9-18.8-50.4-16.1-107.4-53.1-116.5-108.7-4.7-28.7 11.4-60.3 46.5-91.4 11.8-10.5 24.6-20 37-29.2 14.5-10.8 29.5-22 42.8-34.6 32-30.5 45.3-69.3 33.8-98.9C10.1-271.4-24.2-288-75.1-289c-2 0-4-.1-6-.1-76.3 0-106.7 29.1-118.6 53.6-16.4 33.4-5.4 72.3 11.7 94.3 20.5 26.4 31.3 51 32.3 72.9.8 19.1-5.8 37-19.6 53.1C-199.9 13.4-249 17-289 17c-70.1 0-158.9-3.8-159.4-3.9l-8.6-.3 2.3-54.3 7.3.8c.4.1 85.1 7.8 162.2 7.8 59.5 0 77.1-13.9 81.4-25.5 6.3-17.2-7.6-40.3-22.3-64.9-17.4-29.1-35.4-59.2-25.1-86.6 13-34.3 36.7-62.1 68.6-80.4 28.1-16.1 61.6-24.6 96.8-24.6 60.2 0 112.4 25 129.9 62.2C66-205.9 61.7-186.5 36.5-148c-11.7 18-32.8 35.5-55.1 54.1C-52.7-65.5-88-36.1-92-3.4c-2.1 17.6 8.9 32.9 32.6 45.4 23.6 12.4 54 18.9 70 21.7C58.5 72 100 76 137.4 76c45.1 0 84.8-5.7 121.3-17.3 54.1-17.3 80-38.7 73.7-61.7-8.6-31.5-67-34-68.8-34.3l5.3-29.6z" class="st248"/><path d="M265.6-41c26.5 3 64 11.1 70.6 37.1 9.3 36.6-50.4 58-76.3 66.3C180 87.9 92.6 81.8 10 67.6-33.4 60.1-101.1 39.9-95.8-3.8-89-59.9 4-105.2 33.3-150.1c24.7-37.8 28.4-56.1 7.4-100.7-37.6-80-236.9-93.1-288.2 42.5-18.4 48.7 62 111.5 47.4 151.4-10.1 27.4-67.3 28-85 28-78.4 0-169.7-8.9-169.7-8.9l-1.9 45.6s97 5.3 167.8 5.3c37.1 0 86.6-2.8 110.8-30.8 24.2-28.1 29.9-66-12.8-121.2-39.3-50.8-33.1-157 116.1-154.1 125.3 2.5 125.3 95.3 65.3 152.4-24.9 23.6-54.6 41.3-80.1 64s-50.7 54.2-45.2 87.9c9.1 56.3 69.1 91.4 113.9 105.7 91.6 29.2 203.9 22.2 295.1-8C346 85.2 390.8 17.8 363.9-24.9c-16-25.4-55.8-34.3-86.4-38.4L265.6-41z" class="st249"/><path d="M211.4-79.2c-66.9-34.6-26.2-105.2 74-117.6 190.2-23.6 274.6 83 272.3 117.4-1.7 24.9-25.4 36-49.1 43.5-23.8 7.4-45.2 10-70 7.6L441 2.9c45.9-7.9 91.8-15.7 137.6-23.6 29.9 19.2 74.3 39 125.9 50.7C759.6 42.5 830.8-1.1 844.4-8l.3-.2 85.2-53.5v-12.4l-205.7.8c10 20.7-9.9 69.3-54.5 47.7-56.6-27.4-77.3-81.9-108.4-111.7-72.1-69.1-164.5-89.6-273.6-78.3-50 5.2-103.4 32.1-129.4 75.1-15 24.9-17.4 53.5 26.6 75l26.5-13.7z" class="st249"/><path fill="#1b8f39" d="M502.6-19.4c2.5.1 4.9 0 7.1.4 5.9 1.1 9.8 4.8 11.5 10.5.5 1.8 1.3 2.2 3 2.5 7.6 1.2 12.9 7.3 12.7 14.8H378.7c-.4-5.1 3.8-8 10.1-7.1 3.6-8.3 7.7-10.3 16.2-7.7 1.5-5.2 4.3-9.4 9.2-12 4.8-2.6 9.9-2.6 15.1-.9.2-2.2.1-4.2.5-6.1 2.1-11 8.5-18.3 19.4-21 10.8-2.6 19.8.8 26.7 9.5 1 1.2 1.7 1.8 3.4 1.6 10.9-1.7 19.9 4.1 23 14.7.2.4.3.7.3.8z" clip-path="url(#SVGID_6_)"/><g class="st243"><circle cx="477.9" cy="-13.2" r="15.5" class="st21"/><circle cx="457.8" cy="-7.8" r="11.1" class="st21"/></g><g class="st243"><ellipse cx="198.2" cy="27.6" class="st74" rx="31.5" ry="23.8" transform="rotate(-77.807 198.247 27.563)"/><path d="M192.3 56c-1.2 0-2.3-.1-3.5-.4-11.7-2.6-18.4-17.5-15-33.4 3-13.9 13.3-24.5 24-24.5 1.2 0 2.3.1 3.5.4 11.7 2.6 18.4 17.5 15 33.4-3.1 14-13.4 24.5-24 24.5z" class="st75"/><path d="M197.8-4.3v4.2c1 0 2 .1 3 .3 10.6 2.3 16.6 16.2 13.4 30.9-2.8 13-12.3 22.8-21.9 22.8-1 0-2-.1-3-.3-10.6-2.3-16.6-16.2-13.4-30.9 2.8-13 12.3-22.8 21.9-22.8v-4.2m0 0c-11.5 0-22.7 10.8-26 26.1-3.7 17 3.7 33.1 16.5 35.9 1.3.3 2.6.4 3.9.4 11.5 0 22.7-10.8 26-26.1 3.7-17-3.7-33.1-16.5-35.9-1.3-.3-2.6-.4-3.9-.4z" class="st76"/><path d="M193.4 43.3c-.6 0-1.3-.1-1.9-.2-6.5-1.4-10.2-9.8-8.2-18.8 1.7-7.9 7.5-13.8 13.4-13.8.6 0 1.3.1 1.9.2 6.5 1.4 10.2 9.8 8.2 18.8-1.7 7.8-7.5 13.8-13.4 13.8z" class="st75"/><path d="M196.7 8.4v4.2c.5 0 1 .1 1.4.2 5.3 1.2 8.3 8.6 6.6 16.3-1.5 6.9-6.4 12.2-11.3 12.2-.5 0-1-.1-1.4-.2-5.3-1.2-8.3-8.6-6.6-16.3 1.5-6.9 6.4-12.2 11.3-12.2V8.4m0 0c-6.8 0-13.5 6.4-15.4 15.5-2.2 10.1 2.2 19.6 9.8 21.3.8.2 1.5.3 2.3.3 6.8 0 13.5-6.4 15.4-15.5 2.2-10.1-2.2-19.6-9.8-21.3-.8-.2-1.5-.3-2.3-.3z" class="st76"/><g><ellipse cx="195" cy="26.9" class="st76" rx="6.4" ry="4.9" transform="rotate(-77.807 195.056 26.874)"/></g></g><g class="st243"><ellipse cx="141.3" cy="27.6" class="st74" rx="31.5" ry="23.8" transform="rotate(-77.807 141.295 27.564)"/><path d="M135.3 56c-1.2 0-2.3-.1-3.5-.4-11.7-2.6-18.4-17.5-15-33.4 3-13.9 13.3-24.5 24-24.5 1.2 0 2.3.1 3.5.4 11.7 2.6 18.4 17.5 15 33.4-3 14-13.4 24.5-24 24.5z" class="st75"/><path d="M140.9-4.3v4.2c1 0 2 .1 3 .3 10.6 2.3 16.6 16.2 13.4 30.9-2.8 13-12.3 22.8-21.9 22.8-1 0-2-.1-3-.3-10.6-2.3-16.6-16.2-13.4-30.9 2.8-13 12.3-22.8 21.9-22.8v-4.2m0 0c-11.5 0-22.7 10.8-26 26.1-3.7 17 3.7 33.1 16.5 35.9 1.3.3 2.6.4 3.9.4 11.5 0 22.7-10.8 26-26.1 3.7-17-3.7-33.1-16.5-35.9-1.3-.3-2.6-.4-3.9-.4z" class="st76"/><path d="M136.4 43.3c-.6 0-1.3-.1-1.9-.2-6.5-1.4-10.2-9.8-8.2-18.8 1.7-7.9 7.5-13.8 13.4-13.8.6 0 1.3.1 1.9.2 6.5 1.4 10.2 9.8 8.2 18.8-1.7 7.8-7.4 13.8-13.4 13.8z" class="st75"/><path d="M139.8 8.4v4.2c.5 0 1 .1 1.4.2 5.3 1.2 8.3 8.6 6.6 16.3-1.5 6.9-6.4 12.2-11.3 12.2-.5 0-1-.1-1.4-.2-5.3-1.2-8.3-8.6-6.6-16.3 1.5-6.9 6.4-12.2 11.3-12.2V8.4m0 0c-6.8 0-13.5 6.4-15.4 15.5-2.2 10.1 2.2 19.6 9.8 21.3.8.2 1.5.3 2.3.3 6.8 0 13.5-6.4 15.4-15.5 2.2-10.1-2.2-19.6-9.8-21.3-.8-.2-1.6-.3-2.3-.3z" class="st76"/><g><ellipse cx="138.1" cy="26.9" class="st76" rx="6.4" ry="4.9" transform="rotate(-77.807 138.104 26.874)"/></g></g><g class="st243"><ellipse cx="85" cy="27.6" class="st74" rx="31.5" ry="23.8" transform="rotate(-77.807 84.97 27.564)"/><path d="M79 56c-1.2 0-2.3-.1-3.5-.4-11.7-2.6-18.4-17.5-15-33.4 3-13.9 13.3-24.5 24-24.5 1.2 0 2.3.1 3.5.4 11.7 2.6 18.4 17.5 15 33.4C99.9 45.5 89.6 56 79 56z" class="st75"/><path d="M84.6-4.3v4.2c1 0 2 .1 3 .3 10.6 2.3 16.6 16.2 13.4 30.9-2.8 13-12.3 22.8-21.9 22.8-1 0-2-.1-3-.3-10.6-2.3-16.6-16.2-13.4-30.9C65.5 9.7 75-.1 84.6-.1v-4.2m0 0c-11.5 0-22.7 10.8-26 26.1-3.7 17 3.7 33.1 16.5 35.9 1.3.3 2.6.4 3.9.4 11.5 0 22.7-10.8 26-26.1 3.7-17-3.7-33.1-16.5-35.9-1.3-.3-2.6-.4-3.9-.4z" class="st76"/><path d="M80.1 43.3c-.6 0-1.3-.1-1.9-.2-6.5-1.4-10.2-9.8-8.2-18.8 1.7-7.9 7.5-13.8 13.4-13.8.6 0 1.3.1 1.9.2 6.5 1.4 10.2 9.8 8.2 18.8-1.7 7.8-7.5 13.8-13.4 13.8z" class="st75"/><path d="M83.4 8.4v4.2c.5 0 1 .1 1.4.2 5.3 1.2 8.3 8.6 6.6 16.3C89.9 36 85 41.3 80.1 41.3c-.5 0-1-.1-1.4-.2-5.3-1.2-8.3-8.6-6.6-16.3 1.5-6.9 6.4-12.2 11.3-12.2V8.4m0 0C76.6 8.4 70 14.8 68 23.9c-2.2 10.1 2.2 19.6 9.8 21.3.8.2 1.5.3 2.3.3 6.8 0 13.5-6.4 15.4-15.5 2.2-10.1-2.2-19.6-9.8-21.3-.7-.2-1.5-.3-2.3-.3z" class="st76"/><g><ellipse cx="81.8" cy="26.9" class="st76" rx="6.4" ry="4.9" transform="rotate(-77.807 81.78 26.875)"/></g></g><g class="st243"><ellipse cx="31.5" cy="27.6" class="st74" rx="31.5" ry="23.8" transform="rotate(-77.807 31.52 27.564)"/><path d="M25.5 56c-1.2 0-2.3-.1-3.5-.4C10.4 53 3.7 38.1 7.1 22.2c3-13.9 13.3-24.5 24-24.5 1.2 0 2.3.1 3.5.4C46.3.7 53 15.6 49.6 31.5 46.5 45.5 36.2 56 25.5 56z" class="st75"/><path d="M31.1-4.3v4.2c1 0 2 .1 3 .3 10.6 2.3 16.6 16.2 13.4 30.9-2.8 13-12.3 22.8-21.9 22.8-1 0-2-.1-3-.3C12 51.2 6 37.4 9.2 22.7 12 9.7 21.4-.1 31.1-.1v-4.2m0 0c-11.5 0-22.7 10.8-26 26.1-3.7 17 3.7 33.1 16.5 35.9 1.3.3 2.6.4 3.9.4 11.5 0 22.7-10.8 26-26.1C55.3 15 47.9-1.1 35-3.9c-1.3-.3-2.6-.4-3.9-.4z" class="st76"/><path d="M26.7 43.3c-.6 0-1.3-.1-1.9-.2-6.5-1.4-10.2-9.8-8.2-18.8 1.7-7.9 7.5-13.8 13.4-13.8.6 0 1.3.1 1.9.2 6.5 1.4 10.2 9.8 8.2 18.8-1.7 7.8-7.5 13.8-13.4 13.8z" class="st75"/><path d="M30 8.4v4.2c.5 0 1 .1 1.4.2 5.3 1.2 8.3 8.6 6.6 16.3-1.5 6.9-6.4 12.2-11.3 12.2-.5 0-1-.1-1.4-.2-5.3-1.2-8.3-8.6-6.6-16.3 1.4-7 6.3-12.2 11.3-12.2V8.4m0 0c-6.8 0-13.5 6.4-15.4 15.5-2.2 10.1 2.2 19.6 9.8 21.3.8.2 1.5.3 2.3.3 6.8 0 13.5-6.4 15.4-15.5 2.2-10.1-2.2-19.6-9.8-21.3-.8-.2-1.5-.3-2.3-.3z" class="st76"/><g><ellipse cx="28.3" cy="26.9" class="st76" rx="6.4" ry="4.9" transform="rotate(-77.807 28.329 26.875)"/></g></g><g class="st243"><defs><path id="SVGID_7_" d="M975-63.8c-114.2 0-201.1 9.5-250.8-9.7-120.5-46.4-109.7-187-335.6-187-112.5 0-152 34.6-242.8 34.6-50.5 0-110.5-99.8-217.5-99.8-198.1 0-192.8 154.3-355.8 168.3-13.8 1.2-24.5 12.8-24.5 26.6 0 49.7-3.5 97.2-5 143.6-2.7 82.2-6.3 150 21.7 172 38.4 17.2 180.1-25.9 305.9.4 182.3 38.2 240.5 16.6 427.6 6.4 112.3-6.1 275.8-9.3 330.2-8.7 161.5 1.7 308.4 26.6 335.1 1.9 25.8-23.9 24.6-148.9 11.5-248.6z"/></defs><clipPath id="SVGID_8_"><use overflow="visible" xlink:href="#SVGID_7_"/></clipPath><g class="st321"><path d="M318.4 166.2c4.9.2 9.5-.1 14 .8 11.6 2.2 19.2 9.4 22.5 20.6 1 3.4 2.6 4.4 5.8 4.9 14.8 2.3 25.1 14.3 24.9 28.9H76.4c-.8-9.9 7.4-15.6 19.7-13.8 7-16.1 15.1-20.1 31.6-15 3-10.1 8.5-18.4 18.1-23.5 9.4-5 19.3-5 29.5-1.7.3-4.3.2-8.2 1-12 4.1-21.5 16.6-35.8 37.9-41 21-5.1 38.7 1.6 52.2 18.6 1.9 2.4 3.4 3.6 6.7 3.1 21.3-3.3 38.9 8.1 45 28.7 0 .6.2 1.2.3 1.4z" class="st200"/><circle cx="223.4" cy="160.9" r="27.1" class="st21"/><circle cx="270.1" cy="178.3" r="30.3" class="st21"/><circle cx="230.9" cy="188.8" r="21.8" class="st21"/></g><g class="st321"><path d="M646.4 159.8c5.6.3 10.7-.1 15.5 1 8.8 2 14.6 7.9 17.7 16.3.7 1.9 1.6 2.5 3.6 2.7 9.2 1.1 16.1 9 15.3 17.3H511.6c-.5-9.4 5.7-15.8 17.7-18.4 0-7.4 2.4-13.8 8.7-18.3 6.2-4.5 13.1-5.1 20.6-2.3 0-3.3-.3-6.4.1-9.4 1.9-16.1 14.5-28.3 30.5-29.6 15.5-1.3 29.7 8.4 34.6 23.5.3 1.1 1.5 2.6 2.4 2.7 10 .7 16.6 6 20.2 14.5z" class="st200"/></g></g></g><g><defs><path id="SVGID_9_" d="M-722.7 0h524.5v295h-524.5z"/></defs><clipPath id="SVGID_10_"><use overflow="visible" xlink:href="#SVGID_9_"/></clipPath><path fill="#fff" d="M-722.7-590.2H851.1v885.3H-722.7z" clip-path="url(#SVGID_10_)"/><path fill="#bdefef" d="M-641.8-156.7c93.7 0 142.2-206.2 287.8-225.1 110.9-14.4 155 48.1 208.4 48.1 75.2 0 171.4-76.5 298.9-9.7 81.4 42.6 158.3 90.3 217 96.3 58.7 6 191-26 259.1.6 188.2 73.7 146 324.3 146 324.3h-1426l8.8-234.5z" clip-path="url(#SVGID_10_)"/><path fill="#23b347" d="M776.4-63.8c-114.2 0-201.1 9.5-250.8-9.7-120.5-46.4-109.7-187-335.6-187-112.5 0-152 34.6-242.8 34.6-50.5 0-110.5-99.8-217.5-99.8-198.1 0-192.8 154.3-355.8 168.3-13.8 1.2-24.5 12.8-24.5 26.6 0 49.5-2.6 98.6-5 143.6-4.4 82.4-6.4 149.9 21.7 172 38.4 17.2 180.1-25.9 305.9.4 182.3 38.2 240.5 16.6 427.6 6.4 112.3-6.1 275.8-9.3 330.2-8.7 161.5 1.7 308.4 26.6 335.1 1.9 25.8-23.9 24.6-148.9 11.5-248.6z" clip-path="url(#SVGID_10_)"/><path fill="#25bf4c" d="M731.2-57.6c-53.1 2.9-223.8 46.6-280.8-2.2-36.7-31.5-59.7-70.9-81.9-92.4-67-64.5-290.4-130.3-408.8-15.8-30.2 29.2-50.1 61.8-30.5 98.9 2.5 4.6 5.8 8.9 9.8 12.7 27.7-.8 84.7-9.6 97.2-35.6l54 7.8C71.3-58.4 28.3-38.5-9.1-28.1 33.7-12.3 81.4-1.5 81.4 27.2c0 39.5-331 46.4-339.2-29.5-4.8-44.3 88.3-106.3 101.9-122.9 43.6-53.2 51.4-94.8 3.6-144.3-47.8-49.4-122.4-65.8-188.1-45.4-145.1 45-143.2 146.9-92.7 218.6 7 9.9 9.9 23.7 4.6 34.7-8.4 17.3-31.9 18.9-51.1 18.1-42.4-1.8-130.2-6-172.6-7.8l-6.4 119.8C-600.8 62.7-385.7 52.2-331 99c48.4 41.4 162.3 62.8 258.1 62.3 150.5 3.3 274.5-90 267-163.5C180.1-140.6-61-78.1 38.3-148.6c65-46.1 189.4-19.3 245.3 14 11.7 7 23.2 15.1 31 26.3 7.8 11.2 11.4 26.1 6.4 38.8-5.6 14.1-20 22.4-33.9 28.6-13.8 6-28.4 10.7-43.3 14.2-20.4 4.8-22.4 33.1-2.8 40.5.2.1.3.1.5.2 15.3 5.6 32.1 5 48.1 2.8 16.1-2.2 32-6 48.2-6.5 36.6-1.2 73.4 9.5 106.1 26 120.4 60.6 229.4-20.3 287.5-71l-.2-22.9z" clip-path="url(#SVGID_10_)"/><path d="M-18.4-63.8C-34.2-72-44.8-81.7-50-92.8c-6.9-14.6-4.7-31.3 6.4-49.8 24.8-41 76.7-71.3 132.3-77 18.8-1.9 37.1-2.9 54.4-2.9 91.8 0 164.5 26.9 222.3 82.3 10.8 10.3 20.2 23.4 30.2 37.2 19 26.3 40.6 56.2 77.2 73.9 6.9 3.3 13.4 5.2 19.4 5 44.9-1.6 35.3-44.8 33.4-49.3L731.2-78v20.6L648.1-5.1l-.5.3-.1.1c-1.3.7-3.2 1.7-5.5 3C623.1 8.6 573 36 527 36c-7.7 0-15.1-.8-21.9-2.3-46-10.4-91.8-28.8-125.8-50.4L239 7.3l-3.1-40 4.6.4c6 .6 11.6.9 17.2.9 16.9 0 33.2-2.6 51.3-8.3 22.1-6.9 44.9-17.1 46.4-40 .6-8.6-5.6-25.9-24.8-46.5-19.7-21.1-77.7-70.1-190.7-70.1-16.9 0-34.6 1.1-52.5 3.3-30.8 3.8-57.2 13.3-76.5 27.4-17.3 12.7-26.9 27.9-27 42.8-.2 16.8 11.7 31.2 33.2 41.5L-4.6-69.6l-13.8 5.8z" class="st353"/><path d="M70.3-66.9c2.5.3 5 .7 7.6 1 4.2.5 8.5 1.1 12.8 1.7C120.9-60 152.2-53 168.5-27c9.9 15.7 11.2 34.8 3.8 55.3-13 36.3-50.5 69.4-95.6 84.3-52.9 17.5-110.9 26.8-167.6 26.8-47 0-90.8-6.3-129.9-18.8-50.4-16.1-107.4-53.1-116.5-108.7-4.7-28.7 11.4-60.3 46.5-91.4 11.8-10.5 24.6-20 37-29.2 14.5-10.8 29.5-22 42.8-34.6 32-30.5 45.3-69.3 33.8-98.9-11.3-29.2-45.6-45.8-96.5-46.9-2 0-4-.1-6-.1-76.3 0-106.7 29.1-118.6 53.6-16.4 33.4-5.4 72.3 11.7 94.3 20.5 26.4 31.3 51 32.3 72.9.8 19.1-5.8 37-19.6 53.1C-398.5 13.4-447.6 17-487.6 17c-70.1 0-158.9-3.8-159.4-3.9l-8.6-.3 2.3-54.3 7.3.8c.4.1 85.1 7.8 162.2 7.8 59.5 0 77.1-13.9 81.4-25.5 6.3-17.2-7.6-40.3-22.3-64.9-17.4-29.1-35.4-59.2-25.1-86.6 13-34.3 36.7-62.1 68.6-80.4 28.1-16.1 61.6-24.6 96.8-24.6 60.2 0 112.4 25 129.9 62.2 21.8 46.5 17.5 65.9-7.7 104.4-11.7 18-32.8 35.5-55.1 54.1-34.1 28.4-69.5 57.8-73.4 90.5-2.1 17.6 8.9 32.9 32.6 45.4 23.6 12.4 54 18.9 70 21.7C-140.1 72-98.6 76-61.2 76c45.1 0 84.8-5.7 121.3-17.3 54.1-17.3 80-38.7 73.7-61.7-8.6-31.5-67-34-68.8-34.3l5.3-29.6z" class="st353"/><path d="M67-41c26.5 3 64 11.1 70.6 37.1 9.3 36.6-50.4 58-76.3 66.3-79.9 25.5-167.3 19.4-249.9 5.2C-232 60.1-299.7 40-294.4-3.8c6.7-56.1 99.8-101.4 129.1-146.3 24.7-37.8 28.4-56.1 7.4-100.7-37.6-80-236.9-93.1-288.2 42.5-18.4 48.7 62 111.5 47.4 151.4-10.1 27.4-67.3 28-85 28-78.4 0-169.7-8.9-169.7-8.9l-1.9 45.6s97 5.3 167.8 5.3c37.1 0 86.6-2.8 110.8-30.8 24.2-28.1 29.9-66-12.8-121.2-39.3-50.8-33.1-157 116.1-154.1 125.3 2.5 125.3 95.3 65.3 152.4-24.7 23.5-54.4 41.2-79.9 63.9s-50.7 54.2-45.2 87.9c9.1 56.3 69.1 91.4 113.9 105.7 91.6 29.2 203.9 22.2 295.1-8C147.6 85.1 192.4 17.7 165.5-25c-16-25.4-55.8-34.3-86.4-38.4L67-41z" class="st354"/><path d="M12.7-79.2c-66.9-34.6-26.2-105.2 74-117.6 190.2-23.6 274.6 83 272.3 117.4-1.7 24.9-25.4 36-49.1 43.5-23.8 7.4-45.2 10-70 7.6l2.4 31.2c45.9-8 91.8-15.9 137.7-23.7 29.9 19.2 74.3 39 125.9 50.7C561 42.4 632.2-1.2 645.8-8.1l.3-.2 85.2-53.5v-12.4l-205.7.8c10 20.7-9.9 69.3-54.5 47.7-56.6-27.4-77.3-81.9-108.4-111.7C290.6-206.5 198.2-227 89-215.8c-50 5.2-103.4 32.1-129.4 75.1-15 24.9-17.4 53.5 26.6 75l26.5-13.5z" class="st354"/><path fill="#1b8f39" d="M304-19.4c2.5.1 4.9 0 7.1.4 5.9 1.1 9.8 4.8 11.5 10.5.5 1.8 1.3 2.2 3 2.5 7.6 1.2 12.9 7.3 12.7 14.8H180.1c-.4-5.1 3.8-8 10.1-7.1 3.6-8.3 7.7-10.3 16.2-7.7 1.5-5.2 4.3-9.4 9.2-12 4.8-2.6 9.9-2.6 15.1-.9.2-2.2.1-4.2.5-6.1 2.1-11 8.5-18.3 19.4-21 10.8-2.6 19.8.8 26.7 9.5 1 1.2 1.7 1.8 3.4 1.6 10.9-1.7 19.9 4.1 23 14.7.1.4.3.7.3.8z" clip-path="url(#SVGID_10_)"/><g class="st348"><circle cx="279.3" cy="-13.2" r="15.5" class="st21"/><circle cx="259.2" cy="-7.8" r="11.1" class="st21"/></g><g class="st348"><ellipse cx="-.4" cy="27.6" class="st74" rx="31.5" ry="23.8" transform="rotate(-77.807 -.382 27.565)"/><path d="M-6.4 56c-1.2 0-2.3-.1-3.5-.4-11.7-2.6-18.4-17.5-15-33.4 3-13.9 13.3-24.5 24-24.5 1.2 0 2.3.1 3.5.4C14.3.7 21 15.6 17.6 31.5c-3 14-13.3 24.5-24 24.5z" class="st75"/><path d="M-.8-4.3v4.2c1 0 2 .1 3 .3 10.6 2.3 16.6 16.2 13.4 30.9-2.8 13-12.3 22.8-21.9 22.8-1 0-2-.1-3-.3-10.6-2.3-16.6-16.2-13.4-30.9C-19.9 9.7-10.4-.1-.8-.1v-4.2m0 0c-11.5 0-22.7 10.8-26 26.1-3.7 17 3.7 33.1 16.5 35.9 1.3.3 2.6.4 3.9.4 11.5 0 22.7-10.8 26-26.1C23.4 15 16-1.1 3.1-3.9 1.8-4.2.5-4.3-.8-4.3z" class="st76"/><path d="M-5.2 43.3c-.6 0-1.3-.1-1.9-.2-6.5-1.4-10.2-9.8-8.2-18.8 1.7-7.9 7.5-13.8 13.4-13.8.6 0 1.3.1 1.9.2 6.5 1.4 10.2 9.8 8.2 18.8C6.5 37.3.7 43.3-5.2 43.3z" class="st75"/><path d="M-1.9 8.4v4.2c.5 0 1 .1 1.4.2 5.3 1.2 8.3 8.6 6.6 16.3C4.6 35.9-.3 41.2-5.2 41.2c-.5 0-1-.1-1.4-.2-5.3-1.2-8.3-8.6-6.6-16.3 1.5-6.9 6.4-12.2 11.3-12.2V8.4m0 0c-6.8 0-13.5 6.4-15.4 15.5-2.2 10.1 2.2 19.6 9.8 21.3.8.2 1.5.3 2.3.3 6.8 0 13.5-6.4 15.4-15.5C12.4 19.8 8 10.3.4 8.6c-.8-.1-1.5-.2-2.3-.2z" class="st76"/><g><ellipse cx="-3.6" cy="26.9" class="st76" rx="6.4" ry="4.9" transform="rotate(-77.807 -3.573 26.875)"/></g></g><g class="st348"><defs><path id="SVGID_11_" d="M776.4-63.8c-114.2 0-201.1 9.5-250.8-9.7-120.5-46.4-109.7-187-335.6-187-112.5 0-152 34.6-242.8 34.6-50.5 0-110.5-99.8-217.5-99.8-198.1 0-192.8 154.3-355.8 168.3-13.8 1.2-24.5 12.8-24.5 26.6 0 49.7-3.5 97.2-5 143.6-2.7 82.2-6.3 150 21.7 172 38.4 17.2 180.1-25.9 305.9.4 182.3 38.2 240.5 16.6 427.6 6.4 112.3-6.1 275.8-9.3 330.2-8.7 161.5 1.7 308.4 26.6 335.1 1.9 25.8-23.9 24.6-148.9 11.5-248.6z"/></defs><clipPath id="SVGID_12_"><use overflow="visible" xlink:href="#SVGID_11_"/></clipPath><g class="st426"><path d="M691.6 200.2H389.7c1-21.9 11.9-29.4 40.4-27.6 4.5-21.7 15.1-38.1 40.1-40.2 2.3-.2 4.6-5.9 6-9.4 12.5-33 38.8-50.3 73.2-47.9 31 2.2 55.1 25.5 62.7 59.5 1 4.5 5.2 8.8 9 11.9 5 4.2 12.4 6 16.3 10.9 9.2 11.8 18.2 20.1 35.4 19.2 10.8-.6 17.6 10.1 18.8 23.6z" class="st49"/><circle cx="548.8" cy="115.5" r="31" class="st21"/><circle cx="518.1" cy="140.7" r="19.1" class="st21"/><circle cx="503.8" cy="144" r="14.1" class="st21"/></g><g class="st426"><path d="M119.8 166.2c4.9.2 9.5-.1 14 .8 11.6 2.2 19.2 9.4 22.5 20.6 1 3.4 2.6 4.4 5.8 4.9 14.8 2.3 25.1 14.3 24.9 28.9h-309.2c-.8-9.9 7.4-15.6 19.7-13.8 7-16.1 15.1-20.1 31.6-15 3-10.1 8.5-18.4 18.1-23.5 9.4-5 19.3-5 29.5-1.7.3-4.3.2-8.2 1-12 4.1-21.5 16.6-35.8 37.9-41 21-5.1 38.7 1.6 52.2 18.6 1.9 2.4 3.4 3.6 6.7 3.1 21.3-3.3 38.9 8.1 45 28.7 0 .6.2 1.2.3 1.4z" class="st200"/><circle cx="24.8" cy="160.9" r="27.1" class="st21"/><circle cx="71.5" cy="178.3" r="30.3" class="st21"/><circle cx="32.3" cy="188.8" r="21.8" class="st21"/></g><g class="st426"><path d="M447.8 159.8c5.6.3 10.7-.1 15.5 1 8.8 2 14.6 7.9 17.7 16.3.7 1.9 1.6 2.5 3.6 2.7 9.2 1.1 16.1 9 15.3 17.3H313c-.5-9.4 5.7-15.8 17.7-18.4 0-7.4 2.4-13.8 8.7-18.3 6.2-4.5 13.1-5.1 20.6-2.3 0-3.3-.3-6.4.1-9.4 1.9-16.1 14.5-28.3 30.5-29.6 15.5-1.3 29.7 8.4 34.6 23.5.3 1.1 1.5 2.6 2.4 2.7 10 .7 16.6 6 20.2 14.5z" class="st200"/><circle cx="395.4" cy="169.9" r="22.3" class="st201"/><circle cx="409.2" cy="179.9" r="16.5" class="st201"/></g></g></g><g><defs><path id="SVGID_27_" d="M-722.2-493.7h524.5v295h-524.5z"/></defs><clipPath id="SVGID_14_"><use overflow="visible" xlink:href="#SVGID_27_"/></clipPath><path fill="#fff" d="M-722.2-788.8H851.6V96.5H-722.2z" clip-path="url(#SVGID_14_)"/><path fill="#23b347" d="M776.8-262.3c-114.2 0-201.1 9.5-250.8-9.7-120.5-46.4-109.7-187-335.6-187-112.5 0-152 34.6-242.8 34.6-50.5 0-110.5-99.8-217.5-99.8-198.1 0-192.8 154.3-355.8 168.3-13.8 1.2-24.5 12.8-24.5 26.6 0 49.5-2.6 98.6-5 143.6-4.4 82.4-6.4 149.9 21.7 172 38.4 17.2 180.1-25.9 305.9.4C-145.3 24.9-87.1 3.4 100-6.8c112.3-6.1 275.8-9.3 330.2-8.7 161.5 1.7 308.4 26.6 335.1 1.9 25.8-24 24.7-149 11.5-248.7z" clip-path="url(#SVGID_14_)"/><g clip-path="url(#SVGID_14_)"><defs><path id="SVGID_29_" d="M776.8-262.3c-114.2 0-201.1 9.5-250.8-9.7-120.5-46.4-109.7-187-335.6-187-112.5 0-152 34.6-242.8 34.6-50.5 0-110.5-99.8-217.5-99.8-198.1 0-192.8 154.3-355.8 168.3-13.8 1.2-24.5 12.8-24.5 26.6 0 49.7-3.5 97.2-5 143.6-2.7 82.2-6.3 150 21.7 172 38.4 17.2 180.1-25.9 305.9.4C-145.3 24.9-87.1 3.4 100-6.8c112.3-6.1 275.8-9.3 330.2-8.7 161.5 1.7 308.4 26.6 335.1 1.9 25.8-24 24.7-149 11.5-248.7z"/></defs><clipPath id="SVGID_16_"><use overflow="visible" xlink:href="#SVGID_29_"/></clipPath><g class="st531"><path d="M692.1 1.6H390.2c1-21.9 11.9-29.4 40.4-27.6 4.5-21.7 15.1-38.1 40.1-40.2 2.3-.2 4.6-5.9 6-9.4 12.5-33 38.8-50.3 73.2-47.9 31 2.2 55.1 25.5 62.7 59.5 1 4.5 5.2 8.8 9 11.9 5 4.2 12.4 6 16.3 10.9 9.2 11.8 18.2 20.1 35.4 19.2 10.8-.5 17.6 10.1 18.8 23.6z" class="st49"/></g><g class="st531"><path d="M120.3-32.4c4.9.2 9.5-.1 14 .8 11.6 2.2 19.2 9.4 22.5 20.6 1 3.4 2.6 4.4 5.8 4.9 14.8 2.3 25.1 14.3 24.9 28.9h-309.2c-.8-9.9 7.4-15.6 19.7-13.8 7-16.1 15.1-20.1 31.6-15 3-10.1 8.5-18.4 18.1-23.5 9.4-5 19.3-5 29.5-1.7.3-4.3.2-8.2 1-12 4.1-21.5 16.6-35.8 37.9-41 21-5.1 38.7 1.6 52.2 18.6 1.9 2.4 3.4 3.6 6.7 3.1 21.3-3.3 38.9 8.1 45 28.7 0 .6.2 1.2.3 1.4z" class="st200"/><circle cx="72" cy="-20.3" r="30.3" class="st21"/><circle cx="32.8" cy="-9.7" r="21.8" class="st21"/></g></g></g><g><defs><path id="SVGID_31_" d="M0-493.7h524.5v295H0z"/></defs><clipPath id="SVGID_18_"><use overflow="visible" xlink:href="#SVGID_31_"/></clipPath><path fill="#fff" d="M-524.1-788.8h1573.8V96.5H-524.1z" clip-path="url(#SVGID_18_)"/><path fill="#23b347" d="M975-262.3c-114.2 0-201.1 9.5-250.8-9.7-120.5-46.4-109.7-187-335.6-187-112.5 0-152 34.6-242.8 34.6-50.5 0-110.5-99.8-217.5-99.8-198.1 0-192.8 154.3-355.8 168.3-13.8 1.2-24.5 12.8-24.5 26.6 0 49.5-2.6 98.6-5 143.6-4.4 82.4-6.4 149.9 21.7 172 38.4 17.2 180.1-25.9 305.9.4C52.8 24.9 111.1 3.4 298.1-6.8c112.3-6.1 275.8-9.3 330.2-8.7 161.5 1.7 308.4 26.6 335.1 1.9 25.9-24 24.7-149 11.6-248.7z" clip-path="url(#SVGID_18_)"/><g clip-path="url(#SVGID_18_)"><defs><path id="SVGID_33_" d="M975-262.3c-114.2 0-201.1 9.5-250.8-9.7-120.5-46.4-109.7-187-335.6-187-112.5 0-152 34.6-242.8 34.6-50.5 0-110.5-99.8-217.5-99.8-198.1 0-192.8 154.3-355.8 168.3-13.8 1.2-24.5 12.8-24.5 26.6 0 49.7-3.5 97.2-5 143.6-2.7 82.2-6.3 150 21.7 172 38.4 17.2 180.1-25.9 305.9.4C52.8 24.9 111.1 3.4 298.1-6.8c112.3-6.1 275.8-9.3 330.2-8.7 161.5 1.7 308.4 26.6 335.1 1.9 25.9-24 24.7-149 11.6-248.7z"/></defs><clipPath id="SVGID_20_"><use overflow="visible" xlink:href="#SVGID_33_"/></clipPath><g clip-path="url(#SVGID_20_)"><path d="M318.4-32.4c4.9.2 9.5-.1 14 .8 11.6 2.2 19.2 9.4 22.5 20.6 1 3.4 2.6 4.4 5.8 4.9 14.8 2.3 25.1 14.3 24.9 28.9H76.4C75.5 12.9 83.7 7.2 96 9c7-16.1 15.1-20.1 31.6-15 3-10.1 8.5-18.4 18.1-23.5 9.4-5 19.3-5 29.5-1.7.3-4.3.2-8.2 1-12 4.1-21.5 16.6-35.8 37.9-41 21-5.1 38.7 1.6 52.2 18.6 1.9 2.4 3.4 3.6 6.7 3.1 21.3-3.3 38.9 8.1 45 28.7.1.6.3 1.2.4 1.4z" class="st200"/><circle cx="270.1" cy="-20.3" r="30.3" class="st21"/><circle cx="230.9" cy="-9.7" r="21.8" class="st21"/></g></g></g><g><defs><path id="SVGID_35_" d="M715.8-493.7h524.5v295H715.8z"/></defs><clipPath id="SVGID_22_"><use overflow="visible" xlink:href="#SVGID_35_"/></clipPath><path fill="#fff" d="M-332.7-788.8h1573.8V96.5H-332.7z" clip-path="url(#SVGID_22_)"/><path fill="#23b347" d="M1166.3-262.3c-114.2 0-201.1 9.5-250.8-9.7C795-318.4 805.7-459 579.9-459c-112.5 0-152 34.6-242.8 34.6-50.5 0-110.5-99.8-217.5-99.8-198.1 0-192.8 154.3-355.8 168.3-13.8 1.2-24.5 12.8-24.5 26.6 0 49.5-2.6 98.6-5 143.6-4.4 82.4-6.4 149.9 21.7 172 38.4 17.2 180.1-25.9 305.9.4C244.1 24.9 302.4 3.4 489.5-6.8c112.3-6.1 275.8-9.3 330.2-8.7 161.5 1.7 308.4 26.6 335.1 1.9 25.8-24 24.7-149 11.5-248.7z" clip-path="url(#SVGID_22_)"/><g clip-path="url(#SVGID_22_)"><defs><path id="SVGID_37_" d="M1166.3-262.3c-114.2 0-201.1 9.5-250.8-9.7C795-318.4 805.7-459 579.9-459c-112.5 0-152 34.6-242.8 34.6-50.5 0-110.5-99.8-217.5-99.8-198.1 0-192.8 154.3-355.8 168.3-13.8 1.2-24.5 12.8-24.5 26.6 0 49.7-3.5 97.2-5 143.6-2.7 82.2-6.3 150 21.7 172 38.4 17.2 180.1-25.9 305.9.4C244.1 24.9 302.4 3.4 489.5-6.8c112.3-6.1 275.8-9.3 330.2-8.7 161.5 1.7 308.4 26.6 335.1 1.9 25.8-24 24.7-149 11.5-248.7z"/></defs><clipPath id="SVGID_24_"><use overflow="visible" xlink:href="#SVGID_37_"/></clipPath><g class="st739"><path d="M155.2 3.5h-301.9c1-21.9 11.9-29.4 40.4-27.6 4.5-21.7 15.1-38.1 40.1-40.2 2.3-.2 4.6-5.9 6-9.4 12.5-33 38.8-50.3 73.2-47.9 31 2.2 55.1 25.5 62.7 59.5 1 4.5 5.2 8.8 9 11.9 5 4.2 12.4 6 16.3 10.9 9.2 11.8 18.2 20.1 35.4 19.2 10.8-.5 17.6 10.1 18.8 23.6z" class="st199"/></g><g class="st739"><path d="M509.7-32.4c4.9.2 9.5-.1 14 .8 11.6 2.2 19.2 9.4 22.5 20.6 1 3.4 2.6 4.4 5.8 4.9 14.8 2.3 25.1 14.3 24.9 28.9H267.7c-.8-9.9 7.3-15.6 19.6-13.8 7-16.1 15.1-20.1 31.6-15 3-10.1 8.5-18.4 18.1-23.5 9.4-5 19.3-5 29.5-1.7.3-4.3.2-8.2 1-12 4.1-21.5 16.6-35.8 37.9-41 21-5.1 38.7 1.6 52.2 18.6 1.9 2.4 3.4 3.6 6.7 3.1 21.3-3.3 38.9 8.1 45 28.7.1.6.4 1.2.4 1.4z" class="st200"/><circle cx="461.5" cy="-20.3" r="30.3" class="st21"/><circle cx="422.2" cy="-9.7" r="21.8" class="st21"/></g></g></g></svg>