<svg xmlns="http://www.w3.org/2000/svg" xmlns:xlink="http://www.w3.org/1999/xlink" id="B8" x="0" y="0" version="1.1" viewBox="0 0 524.5 295" xml:space="preserve"><defs/><style>.st21{fill:#25bf4c}.st199{fill:#1fa341}.st200{fill:#1b8f39}.st265,.st266{clip-path:url(#SVGID_6_);fill:#7e4628}.st266{fill:#e1a98b}.st321{clip-path:url(#SVGID_8_)}.st370,.st371{clip-path:url(#SVGID_10_);fill:#7e4628}.st371{fill:#e1a98b}.st426{clip-path:url(#SVGID_12_)}</style><defs><path id="SVGID_1_" d="M1438.5-7.3H1963v295h-524.5z"/></defs><clipPath id="SVGID_2_"><use overflow="visible" xlink:href="#SVGID_1_"/></clipPath><path fill="#fff" d="M389.9-597.5h1573.8v885.3H389.9z" clip-path="url(#SVGID_2_)"/><path fill="#bdefef" d="M470.9-164c93.7 0 142.2-206.2 287.8-225.1 110.9-14.4 155 48.1 208.4 48.1 75.2 0 171.4-76.5 298.9-9.7 81.4 42.6 158.3 90.3 217 96.3 58.7 6 191-26 259.1.6 188.2 73.7 146 324.3 146 324.3H462l8.9-234.5z" clip-path="url(#SVGID_2_)"/><path fill="#23b347" d="M1889-71.1c-114.2 0-201.1 9.5-250.8-9.7-120.5-46.4-109.7-187-335.6-187-112.5 0-152 34.6-242.8 34.6-50.5 0-110.5-99.8-217.5-99.8-198.1 0-192.8 154.3-355.8 168.3-13.8 1.2-24.5 12.8-24.5 26.6 0 49.5-2.6 98.6-5 143.6-4.4 82.4-6.4 149.9 21.7 172 38.4 17.2 180.1-25.9 305.9.4 182.3 38.2 240.5 16.6 427.6 6.4 112.3-6.1 275.8-9.3 330.2-8.7 161.5 1.7 308.4 26.6 335.1 1.9 25.8-23.9 24.6-148.9 11.5-248.6z" clip-path="url(#SVGID_2_)"/><path fill="#25bf4c" d="M1843.8-64.9C1790.7-62 1620-18.3 1563-67.1c-36.7-31.5-59.7-70.9-81.9-92.4-66.9-64.4-290.3-130.3-408.7-15.7-30.2 29.2-50.1 61.8-30.5 98.9 2.5 4.6 5.8 8.9 9.8 12.7 27.7-.8 84.7-9.6 97.2-35.6l54 7.8c-18.8 25.6-61.8 45.5-99.2 55.9 42.8 15.8 90.4 26.6 90.4 55.4 0 39.5-331 46.4-339.2-29.5-4.8-44.3 88.3-106.3 101.9-122.9 43.6-53.2 51.4-94.8 3.6-144.3-47.8-49.4-122.4-65.8-188.1-45.4-145.2 45-143.3 146.9-92.8 218.6 7 9.9 9.9 23.7 4.6 34.7-8.4 17.3-31.9 18.9-51.1 18.1-42.4-1.8-130.2-6-172.6-7.8L454 61.2c57.8-5.8 272.9-16.3 327.6 30.5C830 133 943.9 154.4 1039.7 154c150.5 3.3 274.5-90 267-163.5-14-138.4-255.1-75.9-155.8-146.4 65-46.1 189.4-19.3 245.3 14 11.7 7 23.2 15.1 31 26.3 7.8 11.2 11.4 26.1 6.4 38.8-5.6 14.1-20 22.4-33.9 28.6-13.8 6-28.4 10.7-43.3 14.2-20.4 4.8-22.4 33.1-2.8 40.5.2.1.3.1.5.2 15.3 5.6 32.1 5 48.1 2.8 16.1-2.2 32-6 48.2-6.5 36.6-1.2 73.4 9.5 106.1 26 120.4 60.6 229.4-20.3 287.5-71l-.2-22.9z" clip-path="url(#SVGID_2_)"/><path fill="#876f2d" d="M1182.9-74.2c2.5.3 5 .7 7.6 1 4.2.5 8.5 1.1 12.8 1.7 30.2 4.2 61.5 11.2 77.9 37.2 9.9 15.7 11.2 34.8 3.8 55.3-13 36.3-50.5 69.4-95.6 84.3-52.9 17.5-110.9 26.8-167.6 26.8-47 0-90.8-6.3-129.9-18.8-50.4-16.1-107.5-53-116.5-108.7-4.7-28.7 11.4-60.3 46.5-91.4 11.8-10.5 24.6-20 37-29.2 14.5-10.8 29.5-22 42.8-34.6 32-30.5 45.3-69.3 33.8-98.9-11.3-29.2-45.6-45.8-96.5-46.9-2 0-4-.1-6-.1-76.3 0-106.7 29.1-118.6 53.6-16.4 33.4-5.4 72.3 11.7 94.3 20.5 26.4 31.3 51 32.3 72.9.8 19.1-5.8 37-19.6 53.1C714.1 6.1 665 9.7 625 9.7c-70.1 0-158.9-3.8-159.4-3.9l-8.6-.2 2.3-54.3 7.3.8c.4.1 85.1 7.8 162.2 7.8 59.5 0 77.1-13.9 81.4-25.5 6.3-17.2-7.6-40.3-22.3-64.9-17.4-29.1-35.4-59.2-25.1-86.6 13-34.3 36.7-62.1 68.6-80.4 28.1-16.1 61.6-24.6 96.8-24.6 60.2 0 112.4 25 129.9 62.2 21.8 46.5 17.5 65.9-7.7 104.4-11.7 18-32.8 35.5-55.1 54.1-34 28.6-69.3 58-73.3 90.7-2.1 17.6 8.9 32.9 32.6 45.4 23.6 12.4 54 18.9 70 21.7 47.9 8.3 89.3 12.3 126.8 12.3 45.1 0 84.8-5.7 121.3-17.3 54.1-17.3 80-38.7 73.7-61.7-8.6-31.5-67-34-68.8-34.3l5.3-29.6z" clip-path="url(#SVGID_2_)"/><path fill="#d4af4e" d="M1179.6-48.3c26.5 3 64 11.1 70.6 37.1 9.3 36.6-50.4 58-76.3 66.3-79.8 25.5-167.3 19.4-249.9 5.2-43.4-7.5-111-27.7-105.8-71.4C825-67.2 918-112.5 947.3-157.4c24.7-37.8 28.4-56.1 7.4-100.7-37.6-80-236.9-93.1-288.2 42.5-18.4 48.7 62 111.5 47.4 151.4-10.1 27.4-67.3 28-85 28-78.4 0-169.7-8.9-169.7-8.9L457.3.5s97 5.3 167.8 5.3c37.1 0 86.6-2.8 110.8-30.8 24.2-28.1 29.9-66-12.8-121.2-39.3-50.8-33.1-157 116.1-154.1 125.3 2.5 125.3 95.3 65.3 152.4-24.7 23.5-54.4 41.2-79.9 63.9-25.7 22.7-50.9 54.3-45.4 88 9.1 56.3 69.1 91.4 113.9 105.7 91.6 29.2 203.9 22.2 295.1-8 71.8-23.8 116.6-91.2 89.7-133.9-16-25.4-55.8-34.3-86.4-38.4l-11.9 22.3z" clip-path="url(#SVGID_2_)"/><g clip-path="url(#SVGID_2_)"><defs><path id="SVGID_3_" d="M1889-71.1c-114.2 0-201.1 9.5-250.8-9.7-120.5-46.4-109.7-187-335.6-187-112.5 0-152 34.6-242.8 34.6-50.5 0-110.5-99.8-217.5-99.8-198.1 0-192.8 154.3-355.8 168.3-13.8 1.2-24.5 12.8-24.5 26.6 0 49.7-3.5 97.2-5 143.6-2.7 82.2-6.3 150 21.7 172 38.4 17.2 180.1-25.9 305.9.4 182.3 38.2 240.5 16.6 427.6 6.4 112.3-6.1 275.8-9.3 330.2-8.7 161.5 1.7 308.4 26.6 335.1 1.9 25.8-23.9 24.6-148.9 11.5-248.6z"/></defs><clipPath id="SVGID_4_"><use overflow="visible" xlink:href="#SVGID_3_"/></clipPath><g clip-path="url(#SVGID_4_)"><path d="M626.3 132.6c4.4.2 8.5-.1 12.4.7 10.3 2 17.1 8.4 20 18.4.9 3.1 2.3 3.9 5.2 4.4 13.2 2 22.4 12.8 22.2 25.8H410.3c-.7-8.8 6.6-13.9 17.6-12.3 6.3-14.4 13.5-17.9 28.2-13.4 2.7-9 7.6-16.4 16.1-21 8.4-4.4 17.2-4.5 26.3-1.5.3-3.9.2-7.3.9-10.7 3.7-19.2 14.8-31.9 33.8-36.5 18.8-4.5 34.5 1.5 46.6 16.6 1.7 2.1 3 3.2 5.9 2.7 19-2.9 34.7 7.2 40.1 25.6.2.5.4 1.1.5 1.2z" class="st200"/><circle cx="541.5" cy="127.9" r="24.2" class="st21"/></g></g><g><defs><path id="SVGID_5_" d="M722.7 0h524.5v295H722.7z"/></defs><clipPath id="SVGID_6_"><use overflow="visible" xlink:href="#SVGID_5_"/></clipPath><path fill="#fff" d="M198.6-590.2h1573.8v885.3H198.6z" clip-path="url(#SVGID_6_)"/><path fill="#bdefef" d="M279.5-156.7c93.7 0 142.2-206.2 287.8-225.1 110.9-14.4 155 48.1 208.4 48.1 75.2 0 171.4-76.5 298.9-9.7 81.4 42.6 158.3 90.3 217 96.3 58.7 6 191-26 259.1.6 188.2 73.7 146 324.3 146 324.3h-1426l8.8-234.5z" clip-path="url(#SVGID_6_)"/><path fill="#23b347" d="M1697.7-63.8c-114.2 0-201.1 9.5-250.8-9.7-120.5-46.4-109.7-187-335.6-187-112.5 0-152 34.6-242.8 34.6-50.5 0-110.5-99.8-217.5-99.8-198.1 0-192.8 154.3-355.8 168.3-13.8 1.2-24.5 12.8-24.5 26.6 0 49.5-2.6 98.6-5 143.6-4.4 82.4-6.4 149.9 21.7 172 38.4 17.2 180.1-25.9 305.9.4 182.3 38.2 240.5 16.6 427.6 6.4 112.3-6.1 275.8-9.3 330.2-8.7 161.5 1.7 308.4 26.6 335.1 1.9 25.8-23.9 24.6-148.9 11.5-248.6z" clip-path="url(#SVGID_6_)"/><path fill="#25bf4c" d="M1652.5-57.6c-53.1 2.9-223.8 46.6-280.8-2.2-36.7-31.5-59.7-70.9-81.9-92.4-67-64.5-290.4-130.3-408.8-15.8-30.2 29.2-50.1 61.8-30.5 98.9 2.5 4.6 5.8 8.9 9.8 12.7C888-57.2 945-66 957.5-92l54 7.8c-18.8 25.6-61.8 45.5-99.2 55.9 42.8 15.8 90.4 26.6 90.4 55.4 0 39.5-331 46.4-339.2-29.5-4.8-44.3 88.3-106.3 101.9-122.9 43.6-53.2 51.4-94.8 3.6-144.3-47.8-49.4-122.4-65.8-188.1-45.4-145.1 45.1-143.2 147-92.7 218.7 7 9.9 9.9 23.7 4.6 34.7-8.4 17.3-31.9 18.9-51.1 18.1-42.4-1.8-130.2-6-172.6-7.8l-6.4 119.8c57.8-5.8 272.9-16.3 327.6 30.5 48.4 41.4 162.3 62.8 258.1 62.3 150.5 3.3 274.5-90 267-163.5-14-138.4-255.1-75.9-155.8-146.4 65-46.1 189.4-19.3 245.3 14 11.7 7 23.2 15.1 31 26.3 7.8 11.2 11.4 26.1 6.4 38.8-5.6 14.1-20 22.4-33.9 28.6-13.8 6-28.4 10.7-43.3 14.2-20.4 4.8-22.4 33.1-2.8 40.5.2.1.3.1.5.2 15.3 5.6 32.1 5 48.1 2.8 16.1-2.2 32-6 48.2-6.5 36.6-1.2 73.4 9.5 106.1 26 120.4 60.7 229.3-20.1 287.4-70.9l-.1-23z" clip-path="url(#SVGID_6_)"/><path fill="#876f2d" d="M991.6-66.9c2.5.3 5 .7 7.6 1 4.2.5 8.5 1.1 12.8 1.7 30.2 4.2 61.5 11.2 77.9 37.2 9.9 15.7 11.2 34.8 3.8 55.3-13 36.3-50.5 69.4-95.6 84.3-52.9 17.5-110.9 26.8-167.6 26.8-47 0-90.8-6.3-129.9-18.8-50.4-16.1-107.4-53.1-116.5-108.7-4.7-28.7 11.4-60.3 46.5-91.4 11.8-10.5 24.6-20 37-29.2 14.5-10.8 29.5-22 42.8-34.6 32-30.5 45.3-69.3 33.8-98.9-11.3-29.2-45.6-45.8-96.5-46.9-2 0-4-.1-6-.1-76.3 0-106.7 29.1-118.6 53.6-16.4 33.4-5.4 72.3 11.7 94.3 20.5 26.4 31.3 51 32.3 72.9.8 19.1-5.8 37-19.6 53.1C522.8 13.4 473.7 17 433.7 17c-70.1 0-158.9-3.8-159.4-3.9l-8.6-.3 2.3-54.3 7.3.8c.4.1 85.1 7.8 162.2 7.8 59.5 0 77.1-13.9 81.4-25.5 6.3-17.2-7.6-40.3-22.3-64.9-17.4-29.1-35.4-59.2-25.1-86.6 13-34.3 36.7-62.1 68.6-80.4 28.1-16.1 61.6-24.6 96.8-24.6 60.2 0 112.4 25 129.9 62.2 21.8 46.5 17.5 65.9-7.7 104.4-11.7 18-32.8 35.5-55.1 54.1-34 28.7-69.3 58.1-73.3 90.8-2.1 17.6 8.9 32.9 32.6 45.4 23.6 12.4 54 18.9 70 21.7C781.2 72 822.7 76 860.1 76c45.1 0 84.8-5.7 121.3-17.3 54.1-17.3 80-38.7 73.7-61.7-8.6-31.5-67-34-68.8-34.3l5.3-29.6z" clip-path="url(#SVGID_6_)"/><path fill="#d4af4e" d="M988.3-41c26.5 3 64 11.1 70.6 37.1 9.3 36.6-50.4 58-76.3 66.3-79.8 25.5-167.3 19.4-249.9 5.2C689.3 60.1 621.6 40 626.9-3.8c6.7-56.1 99.8-101.4 129.1-146.3 24.7-37.8 28.4-56.1 7.4-100.7-37.6-80-236.9-93.1-288.2 42.5-18.4 48.7 62 111.5 47.4 151.4-10.1 27.4-67.3 28-85 28-78.4 0-169.7-8.9-169.7-8.9L266 7.8s97 5.3 167.8 5.3c37.1 0 86.6-2.8 110.8-30.8 24.2-28.1 29.9-66-12.8-121.2-39.3-50.8-33.1-157 116.1-154.1C773-290.4 773-197.6 713-140.5c-24.7 23.5-54.4 41.2-79.9 63.9s-50.7 54.2-45.2 87.9C597 67.6 657 102.7 701.8 117c91.6 29.2 203.9 22.2 295.1-8 71.8-23.8 116.6-91.2 89.7-133.9-16-25.4-55.8-34.3-86.4-38.4L988.3-41z" clip-path="url(#SVGID_6_)"/><path fill="#201600" d="M469.4 9.1c-27.2-16.5-61.2-38.7-61.2-38.7s121.1 28 140.3 37.1l-79.1 1.6z" clip-path="url(#SVGID_6_)" opacity=".36"/><path fill="#a45b35" d="M443.6-8.8l-35.4-20.8c7.3-15.6 20.4-15.5 20.4-15.5l76.1 10.2-20.6 27.7-12.9 14.5-27.6-16.1z" clip-path="url(#SVGID_6_)"/><path fill="#201600" d="M443.6-8.8l-35.4-20.8c2.3-4.9 5.1-8.2 7.9-10.5 25.9 14.3 66.3 17.4 66.8 17.3 0 0 1.3 4.8 3.3 12l-15 18.2-27.6-16.2z" clip-path="url(#SVGID_6_)" opacity=".19"/><path fill="#e2946b" d="M475.9-7.5c3.3-10.6 9.6-23.1 21.6-26.4 18.2-5 34.3 13.9 43.7 29l7.2 12.4-77.3-.2 4.8-14.8z" clip-path="url(#SVGID_6_)"/><path d="M505.2-29.5c-13-1.7-21.4 10.9-30.5 36.8h-2.2c3.6-12.1 9.6-39.3 27.8-41 28.6-2.7 46.2 41.2 46.2 41.2l-4.1-.1c.1 0-14.9-33.9-37.2-36.9z" class="st266"/><path d="M528.7 7.2c-.1 0-8.4-23.1-23.9-23.1-14.1 0-18.1 23.5-18.2 23.5l-6.9-.1c3.2-11.9 10.8-29.3 24-29.2 20 .1 31.9 29.1 31.9 29.1l-6.9-.2z" class="st266"/><path d="M498.9-32.6c-12.4 1.9-18.7 15.6-26.3 40h-1.3c4-13.1 9.7-40.4 30.1-42.1 25.7-2.1 47.1 42.3 47.1 42.3h-2.4c0-.1-19.7-44.5-47.2-40.2zM471.2 7.3L443.9-8.8l-19.7-11.5c6.1.5 38.1 21.9 47 27.6z" class="st265"/><g clip-path="url(#SVGID_6_)"><defs><path id="SVGID_7_" d="M1697.7-63.8c-114.2 0-201.1 9.5-250.8-9.7-120.5-46.4-109.7-187-335.6-187-112.5 0-152 34.6-242.8 34.6-50.5 0-110.5-99.8-217.5-99.8-198.1 0-192.8 154.3-355.8 168.3-13.8 1.2-24.5 12.8-24.5 26.6 0 49.7-3.5 97.2-5 143.6-2.7 82.2-6.3 150 21.7 172 38.4 17.2 180.1-25.9 305.9.4 182.3 38.2 240.5 16.6 427.6 6.4 112.3-6.1 275.8-9.3 330.2-8.7 161.5 1.7 308.4 26.6 335.1 1.9 25.8-23.9 24.6-148.9 11.5-248.6z"/></defs><clipPath id="SVGID_8_"><use overflow="visible" xlink:href="#SVGID_7_"/></clipPath><g class="st321"><path d="M686.6 202.1H384.7c1-21.9 11.9-29.4 40.4-27.6 4.5-21.7 15.1-38.1 40.1-40.2 2.3-.2 4.6-5.9 6-9.4 12.5-33 38.8-50.3 73.2-47.9 31 2.2 55.1 25.5 62.7 59.5 1 4.5 5.2 8.8 9 11.9 5 4.2 12.4 6 16.3 10.9 9.2 11.8 18.2 20.1 35.4 19.2 10.7-.6 17.5 10.1 18.8 23.6z" class="st199"/><circle cx="543.7" cy="117.4" r="31" class="st21"/><circle cx="513" cy="142.6" r="19.1" class="st21"/><circle cx="498.7" cy="145.9" r="14.1" class="st21"/></g><g class="st321"><path d="M434.9 139.9c4.4.2 8.5-.1 12.4.7 10.3 2 17.1 8.4 20 18.4.9 3.1 2.3 3.9 5.2 4.4 13.2 2 22.4 12.8 22.2 25.8H218.9c-.7-8.8 6.6-13.9 17.6-12.3 6.3-14.4 13.5-17.9 28.2-13.4 2.7-9 7.6-16.4 16.1-21 8.4-4.4 17.2-4.5 26.3-1.5.3-3.9.2-7.3.9-10.7 3.7-19.2 14.8-31.9 33.8-36.5 18.8-4.5 34.5 1.5 46.6 16.6 1.7 2.1 3 3.2 5.9 2.7 19-2.9 34.7 7.2 40.1 25.6.3.5.5 1.1.5 1.2z" class="st200"/><circle cx="350.2" cy="135.2" r="24.2" class="st21"/><circle cx="391.9" cy="150.7" r="27" class="st21"/><circle cx="356.9" cy="160.1" r="19.4" class="st21"/></g></g></g><g><defs><path id="SVGID_9_" d="M0 0h524.5v295H0z"/></defs><clipPath id="SVGID_10_"><use overflow="visible" xlink:href="#SVGID_9_"/></clipPath><path fill="#fff" d="M0-590.2h1573.8v885.3H0z" clip-path="url(#SVGID_10_)"/><path fill="#bdefef" d="M80.9-156.7c93.7 0 142.2-206.2 287.8-225.1 110.9-14.4 155 48.1 208.4 48.1 75.2 0 171.4-76.5 298.9-9.7 81.4 42.6 158.3 90.3 217 96.3 58.7 6 191-26 259.1.6 188.2 73.7 146 324.3 146 324.3H72.1l8.8-234.5z" clip-path="url(#SVGID_10_)"/><path fill="#23b347" d="M1499-63.8c-114.2 0-201.1 9.5-250.8-9.7-120.5-46.4-109.7-187-335.6-187-112.5 0-152 34.6-242.8 34.6-50.5 0-110.5-99.8-217.5-99.8-198.1 0-192.8 154.3-355.8 168.3-13.8 1.2-24.5 12.8-24.5 26.6 0 49.5-2.6 98.6-5 143.6-4.4 82.4-6.4 149.9 21.7 172 38.4 17.2 180.1-25.9 305.9.4 182.3 38.2 240.5 16.6 427.6 6.4 112.3-6.1 275.8-9.3 330.2-8.7 161.5 1.7 308.4 26.6 335.1 1.9 25.9-23.9 24.7-148.9 11.5-248.6z" clip-path="url(#SVGID_10_)"/><path fill="#25bf4c" d="M1453.9-57.6c-53.1 2.9-223.8 46.6-280.8-2.2-36.7-31.5-59.7-70.9-81.9-92.4-66.9-64.4-290.3-130.3-408.7-15.7-30.2 29.2-50.1 61.8-30.5 98.9 2.5 4.6 5.8 8.9 9.8 12.7 27.7-.8 84.7-9.6 97.2-35.6l54 7.8c-19 25.7-62 45.6-99.4 56C756.4-12.3 804-1.5 804 27.2c0 39.5-331 46.4-339.2-29.5-4.8-44.3 88.3-106.3 101.9-122.9 43.6-53.2 51.4-94.8 3.6-144.3-47.8-49.4-122.4-65.8-188.1-45.4-145 45-143.2 146.9-92.6 218.6 7 9.9 9.9 23.7 4.6 34.7-8.4 17.3-31.9 18.9-51.1 18.1-42.4-1.8-130.2-6-172.6-7.8L64.1 68.4C122 62.6 337 52.2 391.7 98.9c48.4 41.4 162.3 62.8 258.1 62.3 150.5 3.3 274.5-90 267-163.5-14-138.4-255.1-75.9-155.8-146.4 65-46.1 189.4-19.3 245.3 14 11.7 7 23.2 15.1 31 26.3 7.8 11.2 11.4 26.1 6.4 38.8-5.6 14.1-20 22.4-33.9 28.6-13.8 6-28.4 10.7-43.3 14.2-20.4 4.8-22.4 33.1-2.8 40.5.2.1.3.1.5.2 15.3 5.6 32.1 5 48.1 2.8 16.1-2.2 32-6 48.2-6.5 36.6-1.2 73.4 9.5 106.1 26C1287 96.9 1395.9 16 1454.1-34.7l-.2-22.9z" clip-path="url(#SVGID_10_)"/><path fill="#876f2d" d="M793-66.9c2.5.3 5 .7 7.6 1 4.2.5 8.5 1.1 12.8 1.7C843.5-60 874.9-53 891.2-27c9.9 15.7 11.2 34.8 3.8 55.3-13 36.3-50.5 69.4-95.6 84.3-52.9 17.5-110.9 26.8-167.6 26.8-47 0-90.8-6.3-129.9-18.8-50.4-16.1-107.4-53.1-116.5-108.7-4.7-28.7 11.4-60.3 46.5-91.4 11.8-10.5 24.6-20 37-29.2 14.5-10.8 29.5-22 42.8-34.6 32-30.5 45.3-69.3 33.8-98.9-11.3-29.2-45.6-45.8-96.5-46.8-2 0-4-.1-6-.1-76.3 0-106.7 29.1-118.6 53.6-16.4 33.4-5.4 72.3 11.7 94.3 20.5 26.4 31.3 51 32.3 72.9.8 19.1-5.8 37-19.6 53.1C324.2 13.4 275.1 17 235.1 17 165 17 76.2 13.2 75.7 13.1l-8.6-.3 2.3-54.3 7.3.8c.4.1 85.1 7.8 162.2 7.8 59.5 0 77.1-13.9 81.4-25.5 6.3-17.2-7.6-40.3-22.3-64.9-17.4-29.1-35.4-59.2-25.1-86.6 13-34.3 36.7-62.1 68.6-80.4 28.1-16.1 61.6-24.6 96.8-24.6 60.2 0 112.4 25 129.9 62.2 21.8 46.5 17.5 65.9-7.7 104.4-11.7 18-32.8 35.5-55.1 54.1-34 28.7-69.4 58.1-73.3 90.8C430 14.2 441 29.5 464.7 42c23.6 12.4 54 18.9 70 21.7C582.6 72 624.1 76 661.5 76c45.1 0 84.8-5.7 121.3-17.3 54.1-17.3 80-38.7 73.7-61.7-8.6-31.5-67-34-68.8-34.3l5.3-29.6z" clip-path="url(#SVGID_10_)"/><path fill="#d4af4e" d="M789.7-41c26.5 3 64 11.1 70.6 37.1 9.3 36.6-50.4 58-76.3 66.3-79.8 25.5-167.3 19.4-249.9 5.2C490.6 60.1 423 39.9 428.3-3.8c6.7-56.1 99.8-101.4 129.1-146.3 24.7-37.8 28.4-56.1 7.4-100.7-37.6-80-236.9-93.1-288.2 42.5-18.4 48.7 62 111.5 47.4 151.4-10.1 27.4-67.3 28-85 28-78.4 0-169.7-8.9-169.7-8.9l-2 45.7s97 5.3 167.8 5.3c37.1 0 86.6-2.8 110.8-30.8 24.2-28.1 29.9-66-12.8-121.2-39.3-50.8-33.1-157 116.1-154.1 125.3 2.5 125.3 95.3 65.3 152.4-24.8 23.5-54.5 41.2-80 63.9C409-54 383.8-22.4 389.3 11.3c9.1 56.3 69.1 91.4 113.9 105.7 91.6 29.2 203.9 22.2 295.1-8C870 85.2 914.8 17.7 888-24.9c-16-25.4-55.8-34.3-86.4-38.4L789.7-41z" clip-path="url(#SVGID_10_)"/><path fill="#201600" d="M270.8 9.1c-27.2-16.5-61.2-38.7-61.2-38.7s121.1 28 140.3 37.1l-79.1 1.6z" clip-path="url(#SVGID_10_)" opacity=".36"/><path fill="#a45b35" d="M245-8.8l-35.4-20.8c7.3-15.6 20.4-15.5 20.4-15.5l76.1 10.2-20.6 27.7-12.9 14.5L245-8.8z" clip-path="url(#SVGID_10_)"/><path fill="#201600" d="M245-8.8l-35.4-20.8c2.3-4.9 5.1-8.2 7.9-10.5 25.9 14.3 66.3 17.4 66.8 17.3 0 0 1.3 4.8 3.3 12l-15 18.2L245-8.8z" clip-path="url(#SVGID_10_)" opacity=".19"/><path fill="#e2946b" d="M277.3-7.5c3.3-10.6 9.6-23.1 21.6-26.4 18.2-5 34.3 13.9 43.7 29l7.2 12.4-77.3-.2 4.8-14.8z" clip-path="url(#SVGID_10_)"/><path d="M306.6-29.5c-13-1.7-21.4 10.9-30.5 36.8h-2.2c3.6-12.1 9.6-39.3 27.8-41C330.3-36.4 348 7.5 348 7.5l-4.1-.1s-15-33.9-37.3-36.9z" class="st371"/><path d="M330.1 7.2c-.1 0-8.4-23.1-23.9-23.1C292-16 288 7.5 287.9 7.5l-6.9-.1c3.2-11.9 10.8-29.3 24-29.2 20 .2 32 29.1 32 29.1l-6.9-.1z" class="st371"/><path d="M300.3-32.6c-12.4 1.9-18.7 15.6-26.3 40h-1.3c4-13.1 9.7-40.4 30.1-42.1 25.7-2.1 47.1 42.3 47.1 42.3h-2.4c0-.1-19.7-44.5-47.2-40.2zM272.6 7.3L245.3-8.8l-19.7-11.5c6.1.5 38.1 21.9 47 27.6z" class="st370"/><g clip-path="url(#SVGID_10_)"><defs><path id="SVGID_11_" d="M1499-63.8c-114.2 0-201.1 9.5-250.8-9.7-120.5-46.4-109.7-187-335.6-187-112.5 0-152 34.6-242.8 34.6-50.5 0-110.5-99.8-217.5-99.8-198.1 0-192.8 154.3-355.8 168.3-13.8 1.2-24.5 12.8-24.5 26.6 0 49.7-3.5 97.2-5 143.6-2.7 82.2-6.3 150 21.7 172 38.4 17.2 180.1-25.9 305.9.4 182.3 38.2 240.5 16.6 427.6 6.4 112.3-6.1 275.8-9.3 330.2-8.7 161.5 1.7 308.4 26.6 335.1 1.9 25.9-23.9 24.7-148.9 11.5-248.6z"/></defs><clipPath id="SVGID_12_"><use overflow="visible" xlink:href="#SVGID_11_"/></clipPath><g class="st426"><path d="M487.9 202.1H186c1-21.9 11.9-29.4 40.4-27.6 4.5-21.7 15.1-38.1 40.1-40.2 2.3-.2 4.6-5.9 6-9.4 12.5-33 38.8-50.3 73.2-47.9 31 2.2 55.1 25.5 62.7 59.5 1 4.5 5.2 8.8 9 11.9 5 4.2 12.4 6 16.3 10.9 9.2 11.8 18.2 20.1 35.4 19.2 10.8-.6 17.6 10.1 18.8 23.6z" class="st199"/><circle cx="345.1" cy="117.4" r="31" class="st21"/><circle cx="364.3" cy="131.4" r="22.9" class="st21"/><g><circle cx="314.4" cy="142.6" r="19.1" class="st21"/><circle cx="300.1" cy="145.9" r="14.1" class="st21"/></g></g><g class="st426"><path d="M236.3 139.9c4.4.2 8.5-.1 12.4.7 10.3 2 17.1 8.4 20 18.4.9 3.1 2.3 3.9 5.2 4.4 13.2 2 22.4 12.8 22.2 25.8H20.3c-.7-8.8 6.6-13.9 17.6-12.3 6.3-14.4 13.5-17.9 28.2-13.4 2.7-9 7.6-16.4 16.1-21 8.4-4.4 17.2-4.5 26.3-1.5.3-3.9.2-7.3.9-10.7 3.7-19.2 14.8-31.9 33.8-36.5 18.8-4.5 34.5 1.5 46.6 16.6 1.7 2.1 3 3.2 5.9 2.7 19-2.9 34.7 7.2 40.1 25.6.2.5.5 1.1.5 1.2z" class="st200"/><circle cx="151.6" cy="135.2" r="24.2" class="st21"/><circle cx="193.3" cy="150.7" r="27" class="st21"/><circle cx="158.3" cy="160.1" r="19.4" class="st21"/></g></g></g><g><defs><path id="SVGID_27_" d="M.5-493.7H525v295H.5z"/></defs><clipPath id="SVGID_14_"><use overflow="visible" xlink:href="#SVGID_27_"/></clipPath><path fill="#fff" d="M.5-788.8h1573.8V96.5H.5z" clip-path="url(#SVGID_14_)"/><path fill="#23b347" d="M1499.5-262.3c-114.2 0-201.1 9.5-250.8-9.7-120.5-46.4-109.7-187-335.6-187-112.5 0-152 34.6-242.8 34.6-50.5 0-110.5-99.8-217.5-99.8C254.7-524.2 260-369.9 97-355.9c-13.8 1.2-24.5 12.8-24.5 26.6 0 49.5-2.6 98.6-5 143.6-4.4 82.4-6.4 149.9 21.7 172 38.4 17.2 180.1-25.9 305.9.4C577.4 24.9 635.6 3.4 822.7-6.8c112.3-6.1 275.8-9.3 330.2-8.7 161.5 1.7 308.4 26.6 335.1 1.9 25.8-24 24.7-149 11.5-248.7z" clip-path="url(#SVGID_14_)"/><g clip-path="url(#SVGID_14_)"><defs><path id="SVGID_29_" d="M1499.5-262.3c-114.2 0-201.1 9.5-250.8-9.7-120.5-46.4-109.7-187-335.6-187-112.5 0-152 34.6-242.8 34.6-50.5 0-110.5-99.8-217.5-99.8C254.7-524.2 260-369.9 97-355.9c-13.8 1.2-24.5 12.8-24.5 26.6 0 49.7-3.5 97.2-5 143.6-2.7 82.2-6.3 150 21.7 172 38.4 17.2 180.1-25.9 305.9.4C577.4 24.9 635.6 3.4 822.7-6.8c112.3-6.1 275.8-9.3 330.2-8.7 161.5 1.7 308.4 26.6 335.1 1.9 25.8-24 24.7-149 11.5-248.7z"/></defs><clipPath id="SVGID_16_"><use overflow="visible" xlink:href="#SVGID_29_"/></clipPath><g clip-path="url(#SVGID_16_)"><path d="M488.4 3.5H186.5c1-21.9 11.9-29.4 40.4-27.6 4.5-21.7 15.1-38.1 40.1-40.2 2.3-.2 4.6-5.9 6-9.4 12.5-33 38.8-50.3 73.2-47.9 31 2.2 55.1 25.5 62.7 59.5 1 4.5 5.2 8.8 9 11.9 5 4.2 12.4 6 16.3 10.9 9.2 11.8 18.2 20.1 35.4 19.2 10.8-.5 17.6 10.1 18.8 23.6z" class="st199"/></g></g></g><g><defs><path id="SVGID_31_" d="M722.7-493.7h524.5v295H722.7z"/></defs><clipPath id="SVGID_18_"><use overflow="visible" xlink:href="#SVGID_31_"/></clipPath><path fill="#fff" d="M198.6-788.8h1573.8V96.5H198.6z" clip-path="url(#SVGID_18_)"/><path fill="#23b347" d="M1697.7-262.3c-114.2 0-201.1 9.5-250.8-9.7-120.5-46.4-109.7-187-335.6-187-112.5 0-152 34.6-242.8 34.6-50.5 0-110.5-99.8-217.5-99.8-198.1 0-192.8 154.3-355.8 168.3-13.8 1.2-24.5 12.8-24.5 26.6 0 49.5-2.6 98.6-5 143.6-4.4 82.4-6.4 149.9 21.7 172 38.4 17.2 180.1-25.9 305.9.4 182.3 38.2 240.5 16.6 427.6 6.4 112.3-6.1 275.8-9.3 330.2-8.7 161.5 1.7 308.4 26.6 335.1 1.9 25.8-23.9 24.6-148.9 11.5-248.6z" clip-path="url(#SVGID_18_)"/><g clip-path="url(#SVGID_18_)"><defs><path id="SVGID_33_" d="M1697.7-262.3c-114.2 0-201.1 9.5-250.8-9.7-120.5-46.4-109.7-187-335.6-187-112.5 0-152 34.6-242.8 34.6-50.5 0-110.5-99.8-217.5-99.8-198.1 0-192.8 154.3-355.8 168.3-13.8 1.2-24.5 12.8-24.5 26.6 0 49.7-3.5 97.2-5 143.6-2.7 82.2-6.3 150 21.7 172 38.4 17.2 180.1-25.9 305.9.4 182.3 38.2 240.5 16.6 427.6 6.4 112.3-6.1 275.8-9.3 330.2-8.7 161.5 1.7 308.4 26.6 335.1 1.9 25.8-23.9 24.6-148.9 11.5-248.6z"/></defs><clipPath id="SVGID_20_"><use overflow="visible" xlink:href="#SVGID_33_"/></clipPath><g clip-path="url(#SVGID_20_)"><path d="M686.6 3.5H384.7c1-21.9 11.9-29.4 40.4-27.6 4.5-21.7 15.1-38.1 40.1-40.2 2.3-.2 4.6-5.9 6-9.4 12.5-33 38.8-50.3 73.2-47.9 31 2.2 55.1 25.5 62.7 59.5 1 4.5 5.2 8.8 9 11.9 5 4.2 12.4 6 16.3 10.9 9.2 11.8 18.2 20.1 35.4 19.2 10.7-.5 17.5 10.1 18.8 23.6z" class="st199"/></g></g></g><g><defs><path id="SVGID_35_" d="M1438.5-493.7H1963v295h-524.5z"/></defs><clipPath id="SVGID_22_"><use overflow="visible" xlink:href="#SVGID_35_"/></clipPath><path fill="#fff" d="M389.9-788.8h1573.8V96.5H389.9z" clip-path="url(#SVGID_22_)"/><path fill="#23b347" d="M1889-262.3c-114.2 0-201.1 9.5-250.8-9.7-120.5-46.4-109.7-187-335.6-187-112.5 0-152 34.6-242.8 34.6-50.5 0-110.5-99.8-217.5-99.8-198.1 0-192.8 154.3-355.8 168.3-13.8 1.2-24.5 12.8-24.5 26.6 0 49.5-2.6 98.6-5 143.6-4.4 82.4-6.4 149.9 21.7 172 38.3 17.3 180.1-25.9 305.9.5C966.9 25 1025.1 3.4 1212.2-6.8c112.3-6.1 275.8-9.3 330.2-8.7 161.5 1.7 308.4 26.6 335.1 1.9 25.8-24 24.6-149 11.5-248.7z" clip-path="url(#SVGID_22_)"/><g clip-path="url(#SVGID_22_)"><defs><path id="SVGID_37_" d="M1889-262.3c-114.2 0-201.1 9.5-250.8-9.7-120.5-46.4-109.7-187-335.6-187-112.5 0-152 34.6-242.8 34.6-50.5 0-110.5-99.8-217.5-99.8-198.1 0-192.8 154.3-355.8 168.3-13.8 1.2-24.5 12.8-24.5 26.6 0 49.7-3.5 97.2-5 143.6-2.7 82.2-6.3 150 21.7 172 38.3 17.3 180.1-25.9 305.9.5C966.9 25 1025.1 3.4 1212.2-6.8c112.3-6.1 275.8-9.3 330.2-8.7 161.5 1.7 308.4 26.6 335.1 1.9 25.8-24 24.6-149 11.5-248.7z"/></defs><clipPath id="SVGID_24_"><use overflow="visible" xlink:href="#SVGID_37_"/></clipPath></g></g></svg>