<svg xmlns="http://www.w3.org/2000/svg" xmlns:xlink="http://www.w3.org/1999/xlink" id="B8" x="0" y="0" version="1.1" viewBox="0 0 524.5 295" xml:space="preserve"><defs/><style>.st21{fill:#25bf4c}.st41{clip-path:url(#SVGID_2_);fill:#876f2d}.st49{fill:#20a642}.st198{clip-path:url(#SVGID_4_)}.st200{fill:#1b8f39}.st201{fill:#23b347}.st248,.st353{clip-path:url(#SVGID_6_);fill:#876f2d}.st353{clip-path:url(#SVGID_10_)}.st739{clip-path:url(#SVGID_24_)}</style><defs><path id="SVGID_1_" d="M0 0h524.5v295H0z"/></defs><clipPath id="SVGID_2_"><use overflow="visible" xlink:href="#SVGID_1_"/></clipPath><path fill="#fff" d="M-1048.6-590.2H525.2v885.3h-1573.8z" clip-path="url(#SVGID_2_)"/><path fill="#bdefef" d="M-967.7-156.7c93.7 0 142.2-206.2 287.8-225.1 110.9-14.4 155 48.1 208.4 48.1 75.2 0 171.4-76.5 298.9-9.7 81.4 42.6 158.3 90.3 217 96.3 58.7 6 191-26 259.1.6 188.2 73.7 146 324.3 146 324.3h-1426l8.8-234.5z" clip-path="url(#SVGID_2_)"/><path fill="#23b347" d="M450.5-63.8c-114.2 0-201.1 9.5-250.8-9.7-120.5-46.4-109.7-187-335.6-187-112.5 0-152 34.6-242.8 34.6-50.5 0-110.5-99.8-217.5-99.8-198.1 0-192.8 154.3-355.8 168.3-13.8 1.2-24.5 12.8-24.5 26.6 0 49.5-2.6 98.6-5 143.6-4.4 82.4-6.4 149.9 21.7 172 38.4 17.2 180.1-25.9 305.9.4 182.3 38.2 240.5 16.6 427.6 6.4 112.3-6.1 275.8-9.3 330.2-8.7 161.5 1.7 308.4 26.6 335.1 1.9 25.8-23.9 24.6-148.9 11.5-248.6z" clip-path="url(#SVGID_2_)"/><path fill="#25bf4c" d="M405.3-57.6c-53.1 2.9-223.8 46.6-280.8-2.2-36.7-31.5-59.7-70.9-81.9-92.4-66.9-64.4-290.3-130.3-408.7-15.7-30.2 29.2-50.1 61.8-30.5 98.9 2.5 4.6 5.8 8.9 9.8 12.7 27.7-.8 84.7-9.6 97.2-35.6l54 7.8c-18.8 25.6-61.8 45.5-99.2 55.9 42.8 15.8 90.4 26.6 90.4 55.4 0 39.5-331 46.4-339.2-29.5-4.8-44.3 88.3-106.3 101.9-122.9 43.6-53.2 51.4-94.8 3.6-144.3-47.8-49.4-122.4-65.8-188.1-45.4-145.2 45-143.3 146.9-92.8 218.6 7 9.9 9.9 23.7 4.6 34.7-8.4 17.3-31.9 18.9-51.1 18.1-42.4-1.8-130.2-6-172.6-7.8l-6.4 119.8c57.8-5.8 272.9-16.3 327.6 30.5 48.4 41.4 162.3 62.8 258.1 62.3 150.5 3.3 274.5-90 267-163.5-14-138.4-255.1-75.9-155.8-146.4 65-46.1 189.4-19.3 245.3 14 11.7 7 23.2 15.1 31 26.3C-3.5-97.1.1-82.2-4.9-69.5c-5.6 14.1-20 22.4-33.9 28.6-13.8 6-28.4 10.7-43.3 14.2-20.4 4.8-22.4 33.1-2.8 40.5.2.1.3.1.5.2 15.3 5.6 32.1 5 48.1 2.8 16.1-2.2 32-6 48.2-6.5 36.6-1.2 73.4 9.5 106.1 26 120.4 60.6 229.4-20.3 287.5-71l-.2-22.9z" clip-path="url(#SVGID_2_)"/><path d="M-344.3-63.8c-15.8-8.2-26.4-17.9-31.6-29-6.9-14.6-4.7-31.3 6.4-49.8 24.8-41 76.7-71.3 132.3-77 18.8-1.9 37.1-2.9 54.4-2.9 91.8 0 164.5 26.9 222.3 82.3 10.8 10.3 20.2 23.4 30.2 37.2 19 26.3 40.6 56.2 77.2 73.9 6.9 3.3 13.4 5.2 19.4 5 44.9-1.6 35.3-44.8 33.4-49.3L405.3-78v20.6L322.2-5.1l-.5.3-.1.1c-1.3.7-3.2 1.7-5.5 3-18.9 10.3-69 37.7-115 37.7-7.7 0-15.1-.8-21.9-2.3-46-10.4-91.8-28.8-125.8-50.4l-140.3 24-3.1-40 4.6.4c6 .6 11.6.9 17.2.9 16.9 0 33.2-2.6 51.3-8.3 22.1-6.9 44.9-17.1 46.4-40 .6-8.6-5.6-25.9-24.8-46.5C-15-147.3-73-196.3-186-196.3c-16.9 0-34.6 1.1-52.5 3.3-30.8 3.8-57.2 13.3-76.5 27.4-17.3 12.7-26.9 27.9-27 42.8-.1 16.9 11.8 31.3 33.3 41.5l-21.7 11.7-13.9 5.8z" class="st41"/><path fill="#d4af4e" d="M-313.2-79.2c-66.9-34.6-26.2-105.2 74-117.6C-49-220.4 35.4-113.8 33.1-79.4 31.5-54.6 7.8-43.5-16-36c-23.8 7.4-45.2 10-70 7.6l2.4 31.2C-37.7-5.1 8.2-13 54.1-20.8 84-1.6 128.4 18.2 180 29.9 235 42.3 306.3-1.3 319.8-8.2l.3-.2 85.2-53.5v-12.4l-205.7.8c10 20.7-9.9 69.3-54.5 47.7-56.5-27.3-77.2-81.8-108.3-111.6-72.1-69.1-164.5-89.6-273.6-78.3-50 5.2-103.4 32.1-129.4 75.1-15 24.9-17.4 53.5 26.6 75l26.4-13.6z" clip-path="url(#SVGID_2_)"/><path fill="#1b8f39" d="M-21.9-19.4c2.5.1 4.9 0 7.1.4C-8.9-17.9-5-14.2-3.3-8.5-2.7-6.7-2-6.2-.3-6 7.3-4.8 12.6 1.4 12.4 8.9h-158.2c-.4-5.1 3.8-8 10.1-7.1 3.6-8.3 7.7-10.3 16.2-7.7 1.5-5.2 4.3-9.4 9.2-12 4.8-2.6 9.9-2.6 15.1-.9.2-2.2.1-4.2.5-6.1 2.1-11 8.5-18.3 19.4-21 10.8-2.6 19.8.8 26.7 9.5 1 1.2 1.7 1.8 3.4 1.6 10.9-1.7 19.9 4.1 23 14.7.1.3.3.6.3.7z" clip-path="url(#SVGID_2_)"/><path d="M213.1 31.5c72.8-7.9 141.4-64.2 192.2-91v1.9c-49.6 31.1-114.8 86.2-192.2 89.1z" class="st41"/><path fill="#1c913a" d="M405.3-57.4c-29.8 17.6-72.4 54.2-138.3 79 16.8-2.2 66-23.6 138.3-77v-2z" clip-path="url(#SVGID_2_)"/><g clip-path="url(#SVGID_2_)"><defs><path id="SVGID_3_" d="M450.5-63.8c-114.2 0-201.1 9.5-250.8-9.7-120.5-46.4-109.7-187-335.6-187-112.5 0-152 34.6-242.8 34.6-50.5 0-110.5-99.8-217.5-99.8-198.1 0-192.8 154.3-355.8 168.3-13.8 1.2-24.5 12.8-24.5 26.6 0 49.7-3.5 97.2-5 143.6-2.7 82.2-6.3 150 21.7 172 38.4 17.2 180.1-25.9 305.9.4 182.3 38.2 240.5 16.6 427.6 6.4 112.3-6.1 275.8-9.3 330.2-8.7 161.5 1.7 308.4 26.6 335.1 1.9 25.8-23.9 24.6-148.9 11.5-248.6z"/></defs><clipPath id="SVGID_4_"><use overflow="visible" xlink:href="#SVGID_3_"/></clipPath><g class="st198"><path d="M365.7 200.2H63.8c1-21.9 11.9-29.4 40.4-27.6 4.5-21.7 15.1-38.1 40.1-40.2 2.3-.2 4.6-5.9 6-9.4 12.5-33 38.8-50.3 73.2-47.9 31 2.2 55.1 25.5 62.7 59.5 1 4.5 5.2 8.8 9 11.9 5 4.2 12.4 6 16.3 10.9 9.2 11.8 18.2 20.1 35.4 19.2 10.8-.6 17.6 10.1 18.8 23.6z" class="st49"/><circle cx="222.9" cy="115.5" r="31" class="st21"/><circle cx="242.1" cy="129.4" r="22.9" class="st21"/><g><circle cx="192.2" cy="140.7" r="19.1" class="st21"/><circle cx="177.9" cy="144" r="14.1" class="st21"/></g></g><g class="st198"><path d="M121.9 159.8c5.6.3 10.7-.1 15.5 1 8.8 2 14.6 7.9 17.7 16.3.7 1.9 1.6 2.5 3.6 2.7 9.2 1.1 16.1 9 15.3 17.3H-12.9c-.5-9.4 5.7-15.8 17.7-18.4 0-7.4 2.4-13.8 8.7-18.3 6.2-4.5 13.1-5.1 20.6-2.3 0-3.3-.3-6.4.1-9.4 1.9-16.1 14.5-28.3 30.5-29.6 15.5-1.3 29.7 8.4 34.6 23.5.3 1.1 1.5 2.6 2.4 2.7 10 .7 16.6 6 20.2 14.5z" class="st200"/><circle cx="69.5" cy="169.9" r="22.3" class="st201"/><circle cx="83.3" cy="179.9" r="16.5" class="st201"/></g></g><g><defs><path id="SVGID_5_" d="M-715.8 7.3h524.5v295h-524.5z"/></defs><clipPath id="SVGID_6_"><use overflow="visible" xlink:href="#SVGID_5_"/></clipPath><path fill="#fff" d="M-1239.9-582.9H333.9v885.3h-1573.8z" clip-path="url(#SVGID_6_)"/><path fill="#bdefef" d="M-1159-149.4c93.7 0 142.2-206.2 287.8-225.1 110.9-14.4 155 48.1 208.4 48.1 75.2 0 171.4-76.5 298.9-9.7 81.4 42.6 158.3 90.3 217 96.3 58.7 6 191-26 259.1.6 188.2 73.7 146 324.3 146 324.3h-1426l8.8-234.5z" clip-path="url(#SVGID_6_)"/><path fill="#23b347" d="M259.1-56.5C145-56.5 58.1-47 8.3-66.1c-120.5-46.4-109.7-187-335.6-187-112.5 0-152 34.6-242.8 34.6-50.5 0-110.5-99.8-217.5-99.8-198.1 0-192.8 154.3-355.8 168.3-13.8 1.2-24.5 12.8-24.5 26.6 0 49.5-2.6 98.6-5 143.6-4.4 82.4-6.4 149.9 21.7 172 38.4 17.2 180.1-25.9 305.9.4 182.3 38.2 240.5 16.6 427.6 6.4 112.3-6.1 275.8-9.3 330.2-8.7 161.5 1.7 308.4 26.6 335.1 1.9 25.9-24 24.7-149 11.5-248.7z" clip-path="url(#SVGID_6_)"/><path fill="#25bf4c" d="M214-50.3C160.9-47.4-9.8-3.7-66.8-52.6c-36.7-31.5-59.7-70.9-81.9-92.4-66.9-64.4-290.3-130.3-408.7-15.7-30.2 29.2-50.1 61.8-30.5 98.9 2.5 4.6 5.8 8.9 9.8 12.7 27.7-.8 84.7-9.6 97.2-35.6l54 7.8c-18.8 25.6-61.8 45.5-99.2 55.9 42.8 15.8 90.4 26.6 90.4 55.4 0 39.5-331 46.4-339.2-29.5-4.8-44.3 88.3-106.3 101.9-122.9 43.6-53.2 51.4-94.8 3.6-144.3-47.8-49.4-122.4-65.8-188.1-45.4-145.1 44.9-143.2 146.9-92.7 218.5 7 9.9 9.9 23.7 4.6 34.7-8.4 17.3-31.9 18.9-51.1 18.1-42.4-1.8-130.2-6-172.6-7.8l-6.4 119.8c57.8-5.8 272.9-16.3 327.6 30.5 48.4 41.4 162.3 62.8 258.1 62.3 150.5 3.3 274.5-90 267-163.5-14-138.4-255.1-75.9-155.8-146.4 65-46.1 189.4-19.3 245.3 14 11.7 7 23.2 15.1 31 26.3 7.8 11.2 11.4 26.1 6.4 38.8-5.6 14.1-20 22.4-33.9 28.6-13.8 6-28.4 10.7-43.3 14.2-20.4 4.8-22.4 33.1-2.8 40.5.2.1.3.1.5.2 15.3 5.6 32.1 5 48.1 2.8s32-6 48.2-6.5c36.6-1.2 73.4 9.5 106.1 26C47.1 104.2 156 23.3 214.2-27.4l-.2-22.9z" clip-path="url(#SVGID_6_)"/><path d="M-535.6-56.5c-15.8-8.2-26.4-17.9-31.6-29-6.9-14.6-4.7-31.3 6.4-49.8 24.8-41 76.7-71.3 132.3-77 18.8-1.9 37.1-2.9 54.4-2.9 91.8 0 164.5 26.9 222.3 82.3 10.8 10.3 20.2 23.4 30.2 37.2 19 26.3 40.6 56.2 77.2 73.9 6.9 3.3 13.4 5.2 19.4 5 44.9-1.6 35.3-44.8 33.4-49.3L214-70.7v20.6L130.9 2.2l-.5.3-.1.1c-1.3.7-3.2 1.7-5.5 3-18.9 10.3-69 37.7-115 37.7-7.7 0-15.1-.8-21.9-2.3-46-10.4-91.8-28.8-125.8-50.4l-140.3 24-3.1-40 4.6.4c6 .6 11.6.9 17.2.9 16.9 0 33.2-2.6 51.3-8.3 22.1-6.9 44.9-17.1 46.4-40 .6-8.6-5.6-25.9-24.8-46.5-19.7-21.1-77.7-70.1-190.7-70.1-16.9 0-34.6 1.1-52.5 3.3-30.8 3.8-57.2 13.3-76.5 27.4-17.3 12.7-26.9 27.9-27 42.8-.1 16.9 11.8 31.3 33.3 41.5l-21.7 11.7-13.9 5.8z" class="st248"/><path fill="#d4af4e" d="M-504.5-71.9c-66.9-34.6-26.2-105.2 74-117.6 190.2-23.6 274.6 83 272.3 117.4-1.7 24.9-25.4 36-49.1 43.5-23.8 7.4-45.2 10-70 7.6l2.4 31.2c45.9-7.9 91.8-15.7 137.6-23.6 29.9 19.2 74.3 39 125.9 50.7C43.7 49.6 115 6 128.5-.9l.3-.2L214-54.5v-12.4l-205.7.8c10 20.7-9.9 69.3-54.5 47.7-56.6-27.4-77.3-81.9-108.4-111.7-72.1-69.1-164.5-89.6-273.6-78.3-50 5.2-103.4 32.1-129.4 75.1-15 24.9-17.4 53.5 26.6 75l26.5-13.6z" clip-path="url(#SVGID_6_)"/><path d="M21.8 38.8c72.8-7.9 141.4-64.2 192.2-91v1.9C164.4-19.2 99.2 35.9 21.8 38.8z" class="st248"/><path fill="#1c913a" d="M214-50.1c-29.8 17.6-72.4 54.2-138.3 79 16.8-2.2 66-23.6 138.3-77v-2z" clip-path="url(#SVGID_6_)"/><g clip-path="url(#SVGID_6_)"><defs><path id="SVGID_7_" d="M259.1-56.5C145-56.5 58.1-47 8.3-66.1c-120.5-46.4-109.7-187-335.6-187-112.5 0-152 34.6-242.8 34.6-50.5 0-110.5-99.8-217.5-99.8-198.1 0-192.8 154.3-355.8 168.3-13.8 1.2-24.5 12.8-24.5 26.6 0 49.7-3.5 97.2-5 143.6-2.7 82.2-6.3 150 21.7 172 38.4 17.2 180.1-25.9 305.9.4 182.3 38.2 240.5 16.6 427.6 6.4 112.3-6.1 275.8-9.3 330.2-8.7 161.5 1.7 308.4 26.6 335.1 1.9 25.9-24 24.7-149 11.5-248.7z"/></defs><clipPath id="SVGID_8_"><use overflow="visible" xlink:href="#SVGID_7_"/></clipPath><g clip-path="url(#SVGID_8_)"><path d="M174.4 207.5h-301.9c1-21.9 11.9-29.4 40.4-27.6 4.5-21.7 15.1-38.1 40.1-40.2 2.3-.2 4.6-5.9 6-9.4 12.5-33 38.8-50.3 73.2-47.9 31 2.2 55.1 25.5 62.7 59.5 1 4.5 5.2 8.8 9 11.9 5 4.2 12.4 6 16.3 10.9 9.2 11.8 18.2 20.1 35.4 19.2 10.8-.6 17.6 10.1 18.8 23.6z" class="st49"/><circle cx="31.6" cy="122.8" r="31" class="st21"/><circle cx="50.8" cy="136.7" r="22.9" class="st21"/><g><circle cx=".8" cy="148" r="19.1" class="st21"/><circle cx="-13.5" cy="151.3" r="14.1" class="st21"/></g></g></g></g><g><defs><path id="SVGID_9_" d="M-1438.5 7.3H-914v295h-524.5z"/></defs><clipPath id="SVGID_10_"><use overflow="visible" xlink:href="#SVGID_9_"/></clipPath><path fill="#fff" d="M-1438.5-582.9H135.3v885.3h-1573.8z" clip-path="url(#SVGID_10_)"/><path fill="#bdefef" d="M-1357.6-149.4c93.7 0 142.2-206.2 287.8-225.1 110.9-14.4 155 48.1 208.4 48.1 75.2 0 171.4-76.5 298.9-9.7 81.4 42.6 158.3 90.3 217 96.3 58.7 6 191-26 259.1.6 188.2 73.7 146 324.3 146 324.3h-1426l8.8-234.5z" clip-path="url(#SVGID_10_)"/><path fill="#23b347" d="M60.5-56.5c-114.2 0-201.1 9.5-250.8-9.7-120.5-46.4-109.7-187-335.6-187-112.5 0-152 34.6-242.8 34.6-50.5 0-110.5-99.8-217.5-99.8-198.1 0-192.8 154.3-355.8 168.3-13.8 1.2-24.5 12.8-24.5 26.6 0 49.5-2.6 98.6-5 143.6-4.4 82.4-6.4 149.9 21.7 172 38.4 17.2 180.1-25.9 305.9.4 182.3 38.2 240.5 16.6 427.6 6.4 112.3-6.1 275.8-9.3 330.2-8.7 161.5 1.7 308.4 26.6 335.1 1.9C74.8 168.2 73.7 43.2 60.5-56.5z" clip-path="url(#SVGID_10_)"/><path fill="#25bf4c" d="M15.4-50.3c-53.1 2.9-223.8 46.6-280.8-2.2-36.7-31.5-59.7-70.9-81.9-92.4-66.9-64.4-290.3-130.3-408.7-15.7-30.2 29.2-50.1 61.8-30.5 98.9 2.5 4.6 5.8 8.9 9.8 12.7 27.7-.8 84.7-9.6 97.2-35.6l54 7.8c-18.8 25.6-61.8 45.5-99.2 55.9 42.8 15.8 90.4 26.6 90.4 55.4 0 39.5-331 46.4-339.2-29.5-4.8-44.3 88.3-106.3 101.9-122.9 43.6-53.2 51.4-94.8 3.6-144.3-47.8-49.4-122.4-65.8-188.1-45.4-145.1 44.9-143.2 146.9-92.7 218.5 7 9.9 9.9 23.7 4.6 34.7-8.4 17.3-31.9 18.9-51.1 18.1-42.4-1.8-130.2-6-172.6-7.8l-6.4 119.8c57.8-5.8 272.9-16.3 327.6 30.5 48.4 41.4 162.3 62.8 258.1 62.3 150.5 3.3 274.5-90 267-163.5-14-138.4-255.1-75.9-155.8-146.4 65-46.1 189.4-19.3 245.3 14 11.7 7 23.2 15.1 31 26.3 7.8 11.2 11.4 26.1 6.4 38.8-5.6 14.1-20 22.4-33.9 28.6-13.8 6-28.4 10.7-43.3 14.2-20.4 4.8-22.4 33.1-2.8 40.5.2.1.3.1.5.2 15.3 5.6 32.1 5 48.1 2.8s32-6 48.2-6.5c36.6-1.2 73.4 9.5 106.1 26 120.4 60.7 229.3-20.1 287.4-70.9l-.2-22.9z" clip-path="url(#SVGID_10_)"/><path d="M-734.2-56.5c-15.8-8.2-26.4-17.9-31.6-29-6.9-14.6-4.7-31.3 6.4-49.8 24.8-41 76.7-71.3 132.3-77 18.8-1.9 37.1-2.9 54.4-2.9 91.8 0 164.5 26.9 222.3 82.3 10.8 10.3 20.2 23.4 30.2 37.2 19 26.3 40.6 56.2 77.2 73.9 6.9 3.3 13.4 5.2 19.4 5 44.9-1.6 35.3-44.8 33.4-49.3l205.7-4.5V-50L-67.8 2.2l-.5.3-.1.1c-1.3.7-3.2 1.7-5.5 3-18.9 10.3-69 37.7-115 37.7-7.7 0-15.1-.8-21.9-2.3-46-10.4-91.8-28.8-125.8-50.4l-140.3 24-3.1-40 4.6.4c6 .6 11.6.9 17.2.9 16.9 0 33.2-2.6 51.3-8.3 22.1-6.9 44.9-17.1 46.4-40 .6-8.6-5.6-25.9-24.8-46.5C-405-140-463-189-576-189c-16.9 0-34.6 1.1-52.5 3.3-30.8 3.8-57.2 13.3-76.5 27.4-17.3 12.7-26.9 27.9-27 42.8-.1 16.9 11.8 31.3 33.3 41.5l-21.7 11.7-13.8 5.8z" class="st353"/><path fill="#d4af4e" d="M-703.1-71.9c-66.9-34.6-26.2-105.2 74-117.6 190.2-23.6 274.6 83 272.3 117.4-1.7 24.9-25.4 36-49.1 43.5-23.8 7.4-45.2 10-70 7.6l2.4 31.2c45.9-7.9 91.8-15.7 137.6-23.6 29.9 19.2 74.3 39 125.9 50.7C-154.9 49.6-83.6 6-70.1-.9l.3-.2 85.2-53.5V-67l-205.7.8c10 20.7-9.9 69.3-54.5 47.7-56.6-27.4-77.3-81.9-108.4-111.7-72.1-69.1-164.5-89.6-273.6-78.3-50 5.2-103.4 32.1-129.4 75.1-15 24.9-17.4 53.5 26.6 75l26.5-13.5z" clip-path="url(#SVGID_10_)"/><path d="M-176.8 38.8c72.8-7.9 141.4-64.2 192.2-91v1.9C-34.2-19.2-99.4 35.9-176.8 38.8z" class="st353"/><path fill="#1c913a" d="M15.4-50.1C-14.4-32.5-57 4.1-122.9 28.9c16.8-2.2 66-23.6 138.3-77v-2z" clip-path="url(#SVGID_10_)"/><g clip-path="url(#SVGID_10_)"><defs><path id="SVGID_11_" d="M60.5-56.5c-114.2 0-201.1 9.5-250.8-9.7-120.5-46.4-109.7-187-335.6-187-112.5 0-152 34.6-242.8 34.6-50.5 0-110.5-99.8-217.5-99.8-198.1 0-192.8 154.3-355.8 168.3-13.8 1.2-24.5 12.8-24.5 26.6 0 49.7-3.5 97.2-5 143.6-2.7 82.2-6.3 150 21.7 172 38.4 17.2 180.1-25.9 305.9.4 182.3 38.2 240.5 16.6 427.6 6.4 112.3-6.1 275.8-9.3 330.2-8.7 161.5 1.7 308.4 26.6 335.1 1.9C74.8 168.2 73.7 43.2 60.5-56.5z"/></defs><clipPath id="SVGID_12_"><use overflow="visible" xlink:href="#SVGID_11_"/></clipPath></g></g><g><defs><path id="SVGID_27_" d="M-1438-486.4h524.5v295H-1438z"/></defs><clipPath id="SVGID_14_"><use overflow="visible" xlink:href="#SVGID_27_"/></clipPath><path fill="#fff" d="M-1438-781.5H135.8v885.3H-1438z" clip-path="url(#SVGID_14_)"/><path fill="#23b347" d="M61-255c-114.2 0-201.1 9.5-250.8-9.7-120.5-46.4-109.7-187-335.6-187-112.5 0-152 34.6-242.8 34.6-50.5 0-110.5-99.8-217.5-99.8-198.1 0-192.8 154.3-355.8 168.3-13.8 1.2-24.5 12.8-24.5 26.6 0 49.5-2.6 98.6-5 143.6-4.4 82.4-6.4 149.9 21.7 172 38.4 17.2 180.1-25.9 305.9.4C-861.1 32.2-802.9 10.6-615.8.4-503.6-5.7-340-8.8-285.6-8.2c161.5 1.6 308.4 26.6 335 1.9 25.9-24 24.8-149 11.6-248.7z" clip-path="url(#SVGID_14_)"/><g clip-path="url(#SVGID_14_)"><defs><path id="SVGID_29_" d="M61-255c-114.2 0-201.1 9.5-250.8-9.7-120.5-46.4-109.7-187-335.6-187-112.5 0-152 34.6-242.8 34.6-50.5 0-110.5-99.8-217.5-99.8-198.1 0-192.8 154.3-355.8 168.3-13.8 1.2-24.5 12.8-24.5 26.6 0 49.7-3.5 97.2-5 143.6-2.7 82.2-6.3 150 21.7 172 38.4 17.2 180.1-25.9 305.9.4C-861.1 32.2-802.9 10.6-615.8.4-503.6-5.7-340-8.8-285.6-8.2c161.5 1.6 308.4 26.6 335 1.9 25.9-24 24.8-149 11.6-248.7z"/></defs><clipPath id="SVGID_16_"><use overflow="visible" xlink:href="#SVGID_29_"/></clipPath></g></g><g><defs><path id="SVGID_31_" d="M-715.8-486.4h524.5v295h-524.5z"/></defs><clipPath id="SVGID_18_"><use overflow="visible" xlink:href="#SVGID_31_"/></clipPath><path fill="#fff" d="M-1239.9-781.5H333.9v885.3h-1573.8z" clip-path="url(#SVGID_18_)"/><path fill="#23b347" d="M259.1-255c-114.2 0-201.1 9.5-250.8-9.7-120.5-46.4-109.7-187-335.6-187-112.5 0-152 34.6-242.8 34.6-50.5 0-110.5-99.8-217.5-99.8-198.1 0-192.8 154.3-355.8 168.3-13.8 1.2-24.5 12.8-24.5 26.6 0 49.5-2.6 98.6-5 143.6-4.4 82.4-6.4 149.9 21.7 172 38.4 17.2 180.1-25.9 305.9.4C-663 32.2-604.8 10.7-417.7.5c112.3-6.1 275.8-9.3 330.2-8.7C74.1-6.6 220.9 18.4 247.6-6.3c25.9-24 24.7-149 11.5-248.7z" clip-path="url(#SVGID_18_)"/><g clip-path="url(#SVGID_18_)"><defs><path id="SVGID_33_" d="M259.1-255c-114.2 0-201.1 9.5-250.8-9.7-120.5-46.4-109.7-187-335.6-187-112.5 0-152 34.6-242.8 34.6-50.5 0-110.5-99.8-217.5-99.8-198.1 0-192.8 154.3-355.8 168.3-13.8 1.2-24.5 12.8-24.5 26.6 0 49.7-3.5 97.2-5 143.6-2.7 82.2-6.3 150 21.7 172 38.4 17.2 180.1-25.9 305.9.4C-663 32.2-604.8 10.7-417.7.5c112.3-6.1 275.8-9.3 330.2-8.7C74.1-6.6 220.9 18.4 247.6-6.3c25.9-24 24.7-149 11.5-248.7z"/></defs><clipPath id="SVGID_20_"><use overflow="visible" xlink:href="#SVGID_33_"/></clipPath><g clip-path="url(#SVGID_20_)"><path d="M174.4 8.9h-301.9c1-21.9 11.9-29.4 40.4-27.6C-82.6-40.4-72-56.8-47-58.9c2.3-.2 4.6-5.9 6-9.4 12.5-33 38.8-50.3 73.2-47.9 31 2.2 55.1 25.5 62.7 59.5 1 4.5 5.2 8.8 9 11.9 5 4.2 12.4 6 16.3 10.9 9.2 11.8 18.2 20.1 35.4 19.2 10.8-.5 17.6 10.1 18.8 23.6z" class="st49"/></g></g></g><g><defs><path id="SVGID_35_" d="M0-486.4h524.5v295H0z"/></defs><clipPath id="SVGID_22_"><use overflow="visible" xlink:href="#SVGID_35_"/></clipPath><path fill="#fff" d="M-1048.6-781.5H525.2v885.3h-1573.8z" clip-path="url(#SVGID_22_)"/><path fill="#23b347" d="M450.5-255c-114.2 0-201.1 9.5-250.8-9.7-120.5-46.4-109.7-187-335.6-187-112.5 0-152 34.6-242.8 34.6-50.5 0-110.5-99.8-217.5-99.8-198.1 0-192.8 154.3-355.8 168.3-13.8 1.2-24.5 12.8-24.5 26.6 0 49.5-2.6 98.6-5 143.6-4.4 82.4-6.4 149.9 21.7 172 38.4 17.2 180.1-25.9 305.9.4C-471.6 32.2-413.4 10.6-226.3.4-114-5.7 49.5-8.9 103.9-8.3 265.4-6.6 412.3 18.3 439-6.4c25.8-23.9 24.6-148.9 11.5-248.6z" clip-path="url(#SVGID_22_)"/><g clip-path="url(#SVGID_22_)"><defs><path id="SVGID_37_" d="M450.5-255c-114.2 0-201.1 9.5-250.8-9.7-120.5-46.4-109.7-187-335.6-187-112.5 0-152 34.6-242.8 34.6-50.5 0-110.5-99.8-217.5-99.8-198.1 0-192.8 154.3-355.8 168.3-13.8 1.2-24.5 12.8-24.5 26.6 0 49.7-3.5 97.2-5 143.6-2.7 82.2-6.3 150 21.7 172 38.4 17.2 180.1-25.9 305.9.4C-471.6 32.2-413.4 10.6-226.3.4-114-5.7 49.5-8.9 103.9-8.3 265.4-6.6 412.3 18.3 439-6.4c25.8-23.9 24.6-148.9 11.5-248.6z"/></defs><clipPath id="SVGID_24_"><use overflow="visible" xlink:href="#SVGID_37_"/></clipPath><g class="st739"><path d="M365.7 8.9H63.8c1-21.9 11.9-29.4 40.4-27.6 4.5-21.7 15.1-38.1 40.1-40.2 2.3-.2 4.6-5.9 6-9.4 12.5-33 38.8-50.3 73.2-47.9 31 2.2 55.1 25.5 62.7 59.5 1 4.5 5.2 8.8 9 11.9 5 4.2 12.4 6 16.3 10.9 9.2 11.8 18.2 20.1 35.4 19.2 10.8-.5 17.6 10.1 18.8 23.6z" class="st49"/></g><g class="st739"><path d="M121.9-31.5c5.6.3 10.7-.1 15.5 1 8.8 2 14.6 7.9 17.7 16.3.7 1.9 1.6 2.5 3.6 2.7 9.2 1.1 16.1 9 15.3 17.3H-12.9c-.6-9.3 5.6-15.7 17.7-18.3 0-7.4 2.4-13.8 8.7-18.3 6.2-4.5 13.1-5.1 20.6-2.3 0-3.3-.3-6.4.1-9.4C36-58.7 48.6-70.8 64.6-72.2c15.5-1.3 29.7 8.4 34.6 23.5.3 1.1 1.5 2.6 2.4 2.7 10.1.8 16.7 6.1 20.3 14.5z" class="st200"/><circle cx="69.5" cy="-21.4" r="22.3" class="st201"/><circle cx="83.3" cy="-11.3" r="16.5" class="st201"/></g></g></g></svg>