<svg xmlns="http://www.w3.org/2000/svg" version="1.0" viewBox="0 0 104 78"><defs/><path fill="#FF882A" d="M90 36.5L58.7 7.7c-2.2-2-5.9-.6-5.9 2.2v9.8c0 1.7-1.5 3.1-3.5 3.1H12.7c-1.9 0-3.5 1.4-3.5 3.1v25.4c0 1.7 1.5 3.1 3.5 3.1h36.6c1.9 0 3.5 1.4 3.5 3.1v9.8c0 2.8 3.8 4.2 5.9 2.2L90 40.8c1.3-1.2 1.3-3.1 0-4.3z"/><path fill="#FFF" d="M68.7 10.1c5.6 4 11.1 8.2 16.6 12.4 2.7 2.1 5.4 4.2 8.1 6.4 2.7 2.1 5.4 4.3 8.1 6.4 1.1.9 1.3 2.4.4 3.5l-.1.1-.1.1c-2.4 2.8-4.8 5.4-7.3 8.1-2.5 2.6-5 5.3-7.5 7.9-5.1 5.2-10.4 10.2-16.1 14.8-2.9 2.3-5.8 4.6-9.3 6.5-.9.5-1.8.9-2.8 1.3-1 .4-2.1.8-3.5.9-.8.1-1.4 0-2.1-.1-.7-.1-1.4-.3-2.1-.6-1.4-.6-2.5-1.7-3.2-2.8-1.5-2.2-1.9-4.4-2.1-6.4-.2-2-.2-4-.1-5.9.3-3.8.9-7.5 1.8-11.1l2.5 2.9c-5.4.1-10.8.3-16.3.7-5.6.3-11.1.8-16.7.8-2.8-.1-5.6-.3-8.4-1-.3-.1-.7-.2-1-.3l-.5-.2c-.1 0-.2-.1-.4-.2-.1-.1-.2-.1-.3-.2-.8-.6-1.1-1.3-1.5-2-.7-1.3-1.1-2.7-1.5-4C1.8 42.7 1.1 37.2 1 31.6c0-2.8.1-5.7.8-8.6.3-1.4.8-2.9 1.5-4.3.3-.7.7-1.5 1.3-2.1.5-.7 1.2-1.3 1.9-1.8 1.4-1 2.9-1.7 4.4-2.2 1.5-.5 3-.8 4.5-.9 2.9-.3 5.8-.3 8.6-.2 11.2.8 21.9 2.9 32.6 3.6l-1.8 3.4c-1.2-1.9-2.3-3.8-3.2-5.8-.9-2-1.8-4.1-2.1-6.6 0-.6 0-1.3.2-2.1.2-.7.7-1.6 1.4-2 .7-.5 1.4-.6 2.1-.6.7 0 1.2.1 1.8.2 2.3.5 4.2 1.5 6.1 2.5.1.1.2.3.1.4-.1.1-.2.2-.4.1-1-.3-2-.6-3.1-.8-1-.2-2-.4-3-.4-.9 0-1.9.1-2.2.5-.2.2-.2.3-.2.6s0 .7.1 1.1c.4 1.7 1.4 3.5 2.4 5.2 1.1 1.7 2.2 3.4 3.5 5 .7.9.6 2.3-.3 3-.4.3-.8.5-1.3.5h-.2c-2.8 0-5.6-.1-8.3-.2-2.8-.2-5.5-.4-8.3-.7-5.5-.6-10.9-1.2-16.2-1.5-2.7-.2-5.3-.3-7.8-.2-2.5.2-4.9.6-6.7 1.7-1.7 1-2.9 3.1-3.7 5.5-.8 2.4-1.3 5-1.5 7.7-.3 9.7-.8 25.5 13 22.2 2.7-.1 5.4-.4 8.1-.8 2.7-.4 5.4-.8 8.1-1.3 5.4-.9 10.9-1.7 16.4-2.1 1.3-.1 2.4.8 2.5 2.1V52.6c-.5 3.4-.9 6.9-1 10.3 0 1.7.1 3.4.3 4.9.2 1.5.7 3 1.3 3.7.3.4.6.6.8.7.1.1.3.1.5.1h.6c.4 0 1-.3 1.7-.5.7-.3 1.4-.7 2.1-1.1 2.8-1.7 5.6-3.8 8.3-6 5.4-4.4 10.7-9.3 15.9-14.2 5.2-4.9 10.3-9.9 15.4-15l.2 3.7c-2.5-2.3-5.1-4.7-7.6-7-2.5-2.4-5-4.7-7.5-7.1-5-4.8-9.9-9.6-14.7-14.5-.1-.1-.1-.3 0-.4 0-.2.2-.2.3-.1z"/></svg>