<?xml version="1.0" encoding="utf-8"?>
<!-- Generator: Adobe Illustrator 22.1.0, SVG Export Plug-In . SVG Version: 6.00 Build 0)  -->
<svg version="1.0" id="Слой_1" xmlns="http://www.w3.org/2000/svg" xmlns:xlink="http://www.w3.org/1999/xlink" x="0px" y="0px"
	 viewBox="0 0 104 78" enable-background="new 0 0 104 78" xml:space="preserve">
<g>
	<path fill="#FF882A" d="M90,36.5L58.7,7.7c-2.2-2-5.9-0.6-5.9,2.2v9.8c0,1.7-1.5,3.1-3.5,3.1H12.7c-1.9,0-3.5,1.4-3.5,3.1v25.4
		c0,1.7,1.5,3.1,3.5,3.1h36.6c1.9,0,3.5,1.4,3.5,3.1v9.8c0,2.8,3.8,4.2,5.9,2.2L90,40.8C91.3,39.6,91.3,37.7,90,36.5z"/>
	<g>
		<path fill="#FFFFFF" d="M68.7,10.1c5.6,4,11.1,8.2,16.6,12.4c2.7,2.1,5.4,4.2,8.1,6.4c2.7,2.1,5.4,4.3,8.1,6.4
			c1.1,0.9,1.3,2.4,0.4,3.5l-0.1,0.1l-0.1,0.1c-2.4,2.8-4.8,5.4-7.3,8.1c-2.5,2.6-5,5.3-7.5,7.9c-5.1,5.2-10.4,10.2-16.1,14.8
			c-2.9,2.3-5.8,4.6-9.3,6.5c-0.9,0.5-1.8,0.9-2.8,1.3c-1,0.4-2.1,0.8-3.5,0.9c-0.8,0.1-1.4,0-2.1-0.1c-0.7-0.1-1.4-0.3-2.1-0.6
			c-1.4-0.6-2.5-1.7-3.2-2.8c-1.5-2.2-1.9-4.4-2.1-6.4c-0.2-2-0.2-4-0.1-5.9c0.3-3.8,0.9-7.5,1.8-11.1l2.5,2.9
			c-5.4,0.1-10.8,0.3-16.3,0.7C28,55.5,22.5,56,16.9,56c-2.8-0.1-5.6-0.3-8.4-1c-0.3-0.1-0.7-0.2-1-0.3l-0.5-0.2
			c-0.1,0-0.2-0.1-0.4-0.2c-0.1-0.1-0.2-0.1-0.3-0.2c-0.8-0.6-1.1-1.3-1.5-2c-0.7-1.3-1.1-2.7-1.5-4C1.8,42.7,1.1,37.2,1,31.6
			c0-2.8,0.1-5.7,0.8-8.6c0.3-1.4,0.8-2.9,1.5-4.3C3.6,18,4,17.2,4.6,16.6c0.5-0.7,1.2-1.3,1.9-1.8c1.4-1,2.9-1.7,4.4-2.2
			c1.5-0.5,3-0.8,4.5-0.9c2.9-0.3,5.8-0.3,8.6-0.2c11.2,0.8,21.9,2.9,32.6,3.6l-1.8,3.4c-1.2-1.9-2.3-3.8-3.2-5.8
			c-0.9-2-1.8-4.1-2.1-6.6c0-0.6,0-1.3,0.2-2.1c0.2-0.7,0.7-1.6,1.4-2c0.7-0.5,1.4-0.6,2.1-0.6c0.7,0,1.2,0.1,1.8,0.2
			c2.3,0.5,4.2,1.5,6.1,2.5c0.1,0.1,0.2,0.3,0.1,0.4c-0.1,0.1-0.2,0.2-0.4,0.1c-1-0.3-2-0.6-3.1-0.8c-1-0.2-2-0.4-3-0.4
			c-0.9,0-1.9,0.1-2.2,0.5c-0.2,0.2-0.2,0.3-0.2,0.6c0,0.3,0,0.7,0.1,1.1c0.4,1.7,1.4,3.5,2.4,5.2c1.1,1.7,2.2,3.4,3.5,5
			c0.7,0.9,0.6,2.3-0.3,3c-0.4,0.3-0.8,0.5-1.3,0.5l-0.2,0c-2.8,0-5.6-0.1-8.3-0.2c-2.8-0.2-5.5-0.4-8.3-0.7
			c-5.5-0.6-10.9-1.2-16.2-1.5c-2.7-0.2-5.3-0.3-7.8-0.2c-2.5,0.2-4.9,0.6-6.7,1.7c-1.7,1-2.9,3.1-3.7,5.5c-0.8,2.4-1.3,5-1.5,7.7
			c-0.3,9.7-0.8,25.5,13,22.2c2.7-0.1,5.4-0.4,8.1-0.8c2.7-0.4,5.4-0.8,8.1-1.3c5.4-0.9,10.9-1.7,16.4-2.1c1.3-0.1,2.4,0.8,2.5,2.1
			c0,0.2,0,0.4,0,0.6l0,0.3c-0.5,3.4-0.9,6.9-1,10.3c0,1.7,0.1,3.4,0.3,4.9c0.2,1.5,0.7,3,1.3,3.7c0.3,0.4,0.6,0.6,0.8,0.7
			c0.1,0.1,0.3,0.1,0.5,0.1c0.2,0,0.5,0,0.6,0c0.4,0,1-0.3,1.7-0.5c0.7-0.3,1.4-0.7,2.1-1.1c2.8-1.7,5.6-3.8,8.3-6
			c5.4-4.4,10.7-9.3,15.9-14.2c5.2-4.9,10.3-9.9,15.4-15l0.2,3.7c-2.5-2.3-5.1-4.7-7.6-7c-2.5-2.4-5-4.7-7.5-7.1
			c-5-4.8-9.9-9.6-14.7-14.5c-0.1-0.1-0.1-0.3,0-0.4C68.4,10,68.6,10,68.7,10.1z"/>
	</g>
</g>
<g>
</g>
<g>
</g>
<g>
</g>
<g>
</g>
<g>
</g>
<g>
</g>
<g>
</g>
<g>
</g>
<g>
</g>
<g>
</g>
<g>
</g>
<g>
</g>
<g>
</g>
<g>
</g>
<g>
</g>
</svg>
