<svg xmlns="http://www.w3.org/2000/svg" id="Слой_1" x="0" y="0" version="1.1" viewBox="0 0 184.3 800" xml:space="preserve"><defs/><style>.st0{fill:#875d46}.st1{fill:#654635}.st4{fill:#363847}.st5{fill:#4e9da3}.st6{fill:#43888c}.st9{fill:#d7684b}.st10{fill:#a14730}.st13{fill:#e2e2e2}.st15{fill:#c9c8c8}.st16{fill:#595651}.st17{fill:#262833}.st18{fill:none;stroke:#434659;stroke-width:4.3058;stroke-linecap:round;stroke-linejoin:round;stroke-miterlimit:10;stroke-dasharray:10.7645}.st19{fill:#3b767a}.st20{fill:#2c595c}.st21{fill:#dbbc32}.st23{fill:#a48d26}.st31,.st32{fill:none;stroke:#595651;stroke-width:3.2838;stroke-miterlimit:10}.st32{stroke:#312a20;stroke-linecap:round;stroke-linejoin:round}</style><g id="Слой_7"><path d="M51.8 749.1l1-20 21.7-2.2 2 28.3-14.5 7.9-10.2-14z" class="st0"/><path d="M150.2 397.5c-3.6 7.1 2.9 12.8 7.1 5.5 4.2-7.3 3.4-26.7 3.4-26.7l-7.2 2.3s.3 11.9-3.3 18.9" class="st1"/><path fill="#d1b951" d="M43.6 774.6c4.7 2.4 24.4 2.9 26.6 5.3 1.4 1.6-.1 3.9-.4 6-1 9.7 54.8 10 81.2 6.7 13.9-1.8 16.2-3.9 15.4-6.9-.6-2.4-4.8-3.1-7.3-4.2s-5.4-1.5-8.2-1.9c-7.3-1-31.6-16.9-33.2-17-15.2-1.2-24-1-39.2-1-38.8-.2-41.8 9.5-34.9 13z"/><path fill="#383530" d="M93.3 719.2z"/><path d="M122.3 521.9l-56.8.1" class="st4"/><path d="M136.8 328.4s13.5 6 19.2 21.1c4 10.3 1.2 23.1 8.8 20.6 7.6-2.6 13.8-20 .9-40.6-12.8-20.4-22.9-15.8-22.9-15.8l-6 14.7z" class="st0"/><path d="M122.9 239.1c-21.7-27-64-86.8-79.9-82.9-11.5 2.8 5.3 49.8 5.3 49.8 6.2 7 29.7 47.9 53.4 68.2 11.5 9.8 24.1 21.6 35.6 11.5 10.2-8.9-2.6-31.9-14.4-46.6z" class="st5"/><path d="M65.6 282.1l69.3 47.2c2.2 1.4 5 1.5 7.2.1 4.2-2.6 7.6-6.4 9.7-10.9.9-2.5.3-5.2-1.6-7.1l-71.1-68.2s-32.3-8.9-13.5 38.9z" class="st5"/><path d="M71.3 291.8c-4.8-9.2-28.9-65.5-33.4-76.8 4.7 16.9 13.2 51.4 26.1 73.2 4.3 7.2 8.7 15.1 14.3 19.7L122 366c1.6 2.1 4.3 3 6.8 2.4l2.1-.6c-14.1-20.2-53.8-65-59.6-76z" class="st6"/><path fill="#7b6a1c" d="M126 150s-.1 4.3-.5 7.8-8.1-6.4-8.1-6.4l8.6-1.4z"/><path fill="#232121" d="M36 361.2s68.4 20.7 107.8-3.1c31.3-19-107.8-7.8-107.8-7.8v10.9z" opacity=".3"/><path d="M69.7 120.1c4.3 5.4 2.3 15.8-2.9 21.4 9.7 3.8 23.5 5.4 33.1 1.3-3.7-4.5-2.4-12.9-1.9-15.4 21.1-.6 31.8 2 31.3-16.3-.3-8.9-.9-17.1-2.1-26-1.1-8.2-2.2-19-6.3-26.3-6.5-11.9-29.2-12.1-39.8-7.6C69 56.8 60.5 68.1 58.5 81.3c-1.7 13 3.1 25.5 11.2 38.8z" class="st0"/><path d="M50.5 748.5s6 11.7 23.9 3.2l1 7.2-11.6 4.1c-.8.3-10.2-.3-10.2-.3l-4.1-6.9 1-7.3z" class="st1"/><path d="M44.5 763.7s-.1 1.8 2.4 6.1c0 0 68.6 6.1 68.7-3.3l-.8-3.7s-.5-4.8-16.1-7.6c-1.8-.3-3.7-.8-5.6-1.4-4.4-1.4-12-4.2-14.9-6.2-.4-.3-1-.2-1.3.1-1.2 1.8-5.1 6.4-14.1 6.3-6.1-.1-9.3-2.9-10.9-5.6-.9-1.6-3.7-1.7-4.6-.1-2.2 4.1-4.5 10.1-2.8 15.4z" class="st9"/><path d="M102.4 756c-.7-.2-6-1.2-7.8-1.7-4.5-1.4-12.4-4-15.5-6-.1-.1-.2-.1-.4-.1l-1.3 2.5s19.3 5.9 22.1 6.1c2.8.2 2.7-.5 2.9-.8z" class="st10"/><path fill="none" stroke="#595651" stroke-miterlimit="10" stroke-width="3.159" d="M83.2 752.6c.1.5-.3.8-.8.8s-.9-.4-1-.9c0-.5.3-.8.8-.8s1 .4 1 .9h0zm6.3 2.3c.1.5-.3.8-.8.8s-.9-.4-1-.8c-.1-.5.3-.8.8-.8s1 .4 1 .8zm6.1 1.7c.1.5-.3.8-.7.8s-.9-.4-1-.8c-.1-.5.3-.8.7-.8.5 0 1 .4 1 .8z"/><path fill="none" stroke="#312a20" stroke-linecap="round" stroke-linejoin="round" stroke-miterlimit="10" stroke-width="3.159" d="M82.3 752.5s.3-2.9 1.6-2.6m6.3 2.8c-1.7.1-1.6 2.2-1.6 2.2s-.9-2.8-4.3-4.3m7.2 2.6s2 .5 3.3 3.4c0 0 .3-1.7 1.1-2"/><path d="M87.2 765.6h-.5s4.5-4 8.7-5.2c5.8-1.6 6.9-4.4 6.9-4.5h.2c0 .1-1.1 3.1-7 4.7-4.1 1.3-8.2 5-8.3 5z" class="st10"/><path d="M79 748.1c-.4 1.5-3.2 9.3-16.2 9.2-11.7-.1-15.5-5.6-16.3-7.2l.9-1.7c.9-1.6 3.7-1.5 4.6.1 1.6 2.7 4.7 5.5 10.9 5.6 9 .1 12.9-4.4 14.1-6.3.3-.4.8-.4 1.3-.1.1.1.3.3.7.4z" class="st13"/><path d="M54.5 765.8h-.4c0-7.4-8.3-14-8.4-14.1l.1-.4c.1.1 8.7 6.9 8.7 14.5z" class="st10"/><path fill="none" stroke="#312a20" stroke-linecap="round" stroke-linejoin="round" stroke-miterlimit="10" stroke-width="2.6" d="M79 748.2s-7.3 7.1-2.9 8c4.3 1 2.9-8 2.9-8z"/><path d="M114.8 762.8l.8 3.7c-.2 9.7-65.1 8.6-71.4 4.4-1.8-4.1.3-7.2.3-7.2s12.6 5.8 54.5 1.8c0 0 16.6-1.7 13-5.9 2.7 1.8 2.8 3.2 2.8 3.2z" class="st13"/><path d="M112.1 759.6c2.4 2.3-2.4 4.1-7 4.9l.7.7s1.8 1.5 1.8 6c6.1-1.5 8-2.8 8-4.9l-.9-3.7c.1 0 .1-1.3-2.6-3z" class="st15"/><path d="M88.8 773.2l3.8-4.2c1.3-1.5 3.3-2.4 6-2.7 12.4-1.8 14.4-3.9 14.4-5 0-.7-.6-1.2-.8-1.4l-.1-.1.1-.1.4.3c.2.1.4.3.5.5l.1.2c.1.2.1.4.1.7-.1 2.1-4.9 3.8-14.6 5.2-2.2.2-4.2 1.2-5.8 2.7l-3.4 3.7-.1.2h-.6z" class="st16"/><path d="M85.6 763.8l1.5-20 23.4-1.7 1.5 28.2-15.7 7.7-10.7-14.2z" class="st0"/><path d="M88.7 397.3l-9.9 343.4c0 1.2-.8 2.2-1.8 2.6-6.4 2.5-18 3.4-25.1-.3-.9-.4-1.4-1.3-1.6-2.3l-22.1-340 60.5-3.4z" class="st4"/><path d="M76 398l-47.8-.7 22.1 343.5c.1 1 .7 1.8 1.6 2.3 3.9 1.7 8.2 2.6 12.5 2.5L76 398z" class="st17"/><path d="M76 443.3L64.3 744" class="st18"/><path d="M66.5 405.1L84 752.8c0 1.5.8 2.9 2.1 3.5 5.4 2.7 18.8 4.2 24.7 1.7 1.2-.5 2.1-1.6 2.3-2.9l27.6-377.8-74.2 27.8z" class="st4"/><path d="M66.5 402.6l17 340.3.4 9.8c0 1.5.8 2.9 2.1 3.5.8.4 7.3 2.9 12.7 2.9l7.8-361.8-40 5.3z" class="st17"/><path d="M106.4 397.3L98.6 759" class="st18"/><path d="M141.9 374v12.8s-66.8 42.8-113.8 23.1l-1.8-11.8L141.9 374z" class="st19"/><path d="M133.3 383.3v8.5l8.6-5v-9.9l-8.6 6.4z" class="st20"/><path d="M85.1 96.4s-6.3-2.2-5.8-9.7c.5-8.4 7-7.9 7-7.9s-5.8-.2-6.3 8c-.3 3.8 1.6 7.6 5.1 9.6zm42 25.9c-7.7 7.2-31.6.1-31.6.1l2 5c8.8.8 26.1 1.2 29.6-5.1z" class="st1"/><path d="M131.4 155.1s-27.3-13.3-31.7-14.9c-27.5 8.1-30.3-2.4-31.5-1.9 0 0-24.8 10.3-36.8 34.5C13.1 209.7 19.2 399 27 403c40.1 20.3 115.9-20.1 116-25.6.2-28.1 2.6-138.2-3.7-201.4-1.7-17.1-7.6-20.2-7.9-20.9z" class="st5"/><path d="M63.9 179.8s27.7 8.9 45.3 57.3c13.7 37.6 26 85.6 22.4 97.4-6.9 22.4-88.8 30.6-104.2 20-7.8-5.4-22.4-105-6.9-147.9 15.1-41.2 43.4-26.8 43.4-26.8z" class="st6"/><path d="M125.7 333.3s21.4-25 26.2-54.4c.4-2.6.4-5.2 0-7.7l-2.4-11.6c-1.7 12.1-1 33.2-32.9 58.7-.8.6 9.1 15 9.1 15z" class="st21"/><path d="M39.1 182.9s-15-13.9 9.6-16.7c24.7-2.7 8.2 18 8.2 18s9.8-18.9-9.2-14.9c-19 4.1-8.6 13.6-8.6 13.6z" class="st19"/><path d="M39.1 182.9s-15.7-17.2 9-19.9c24.7-2.7 8.2 18 8.2 18s9.8-18.9-9.2-14.9-8 16.8-8 16.8z" class="st21"/><path d="M54 355.3s4.7 14 4.4 17.5c-.3 3.5-11.4 11.8-19.5 9.7-8.1-2.1-10.8-32-10.8-32l25.9 4.8z" class="st5"/><path fill="#836b0b" d="M54 374.2s2.9-.9-15.8-40.9l-6.9.4 5.3 42.5s7.4 1.3 8 1.2c.7-.1 9.4-3.2 9.4-3.2z"/><path d="M16.3 339.6s5.4 20.2 13.4 36.5c2.7 5.5 9.2 7.9 14.8 5.4 3.8-1.6 7.1-4.1 9.6-7.3 0 0-8.9-.7-21.2-39.5l-16.6 4.9z" class="st21"/><path d="M24.2 204s-12.2-2.7-3-12.8c9.2-10.1 8.8-11 15.4-8L24.2 204z" class="st23"/><path fill="#ffdf57" d="M11.4 340.5c-27.1-151.5 29.9-166.4 39-164.4 11.9-1.6 54.1 21.2 78.8 151 1.1 6-1.9 12-7.4 14.6-9.1 4.3-25.8 10.6-53.1 15.6-48.2 8.7-55.9-8.7-57.3-16.8z"/><path fill="#ffe579" d="M16.9 236.8s24 .1 49.5-8.7c0 0 5 10.5 5.1 16 0 0-40.2 13.1-52 7.1l-2.6-14.4zm2.1 62.1s45.3-15.5 67.7-9.5c0 0 2.6 26.8 10.1 40.4 0 0-20.1 13.6-42.9 14.9s-27.3-4.3-27.3-4.3-9.4-18.5-7.6-41.5z"/><path d="M19.6 288.2c.9-.7 29.7 3.8 63.3-8.9 0 0 5.2-.5 7.4 11.2 0 0-35.9 16.2-75.5 9.3 0 .1-1.5-6.6 4.8-11.6z" class="st21"/><path d="M149.4 259.6s-1.4 29.9-23.6 50.6v2.8s24.3-21.3 23.6-53.4zm2.7 17.3s-3.6 27.3-25.5 52l3-.2c-.1.1 20.7-27 22.5-51.8z" class="st23"/><path d="M28.7 339.6s-8.5-8.5-9.8-32.3c0 0-2.2 18.3 6.9 35.6 0 0 34 16 71.1-13 0 0-42.5 22.8-68.2 9.7zM16.8 235.9s-1.5 12.9 3.1 17c0 0 18.4 3.5 51.9-7.3 0 0 .5-9.7-5.4-17.4 0 0 3.3 12.8 1.5 14.7 0 0-23.4 10.5-46.7 7.5 0-.1-3.3-4.2-4.4-14.5z" class="st21"/><path d="M97.8 350.6c7.6-2.5 20-6.9 24.2-8.8 5.5-2.6 8.5-8.6 7.4-14.6-24.7-129.9-66.9-152.6-78.8-151-5-1.1-24.6 3-36.6 32.2 0 0 7.1-15.6 24.2-18.7 23.3-4.2 35.4 14 47.8 46.1 12.2 31.6 24.5 78.2 26.8 92.1 1.9 12.4-8.4 20.6-15 22.7z" class="st21"/><path d="M66.8 140.9s4 9.4 33.9 2.3c.1 0-29.8 9.9-33.9-2.3z" class="st19"/><path fill="#41465f" d="M68.4 122.4c-2.4-7.6-12.2-30-17.6-48.9-3.4-11.9 1.8-24.5 12.5-30.6 19.5-11.1 44.6-25.3 57.8-22.9 19.7 3.5 12.2 29.8-3.5 41.7-11.4 8.7-18 1.1-21.3 7.4-2.4 4.6 7.6 6.1 3.3 12.7-4.6 7.1-5-6.1-12.9-6.1s-12.4 12.4-6.5 19.1c3.6 4.1 6 6.3 9.7 10 2.8 2.9 3 7.4.5 10.5-3 3.6-8.5 7.7-18.2 9.4-1.7.2-3.3-.7-3.8-2.3z"/><path fill="#676b7f" d="M121.1 20c-4.5-.5-9 0-13.3 1.4.1 0 33-3 13.2 37.3h.1c13.2-12.8 18.2-35.5 0-38.7z"/><path d="M42.5 359.7s6.4 13.2 11.5 14.5l-1 1.2s-7.7-3.3-12-15.9c.1.1 1.5.2 1.5.2zm-13.8 14.4c-3-5.7-8-19.9-8-19.9l1.8 1c.1 0 8 26.4 16.2 27.2 0 0-3.7 0-6.6-3-2.7-2.9-3.4-5.3-3.4-5.3z" class="st23"/><circle cx="45.6" cy="269.4" r="10.8" fill="#ff882a" transform="scale(.99997) rotate(-88.958 45.6 269.44)"/><path fill="#fff" d="M37.1 267.8c-.2-.1-.4-.2-.6-.4-.1-.2-.3-.4-.3-.7 0-.3 0-.5.1-.7.1-.2.2-.4.4-.5.2-.1.5-.3.7-.3h.8c.5.1.8.6.9 1 0 .3 0 .5-.1.7-.1.2-.2.4-.4.5-.2.1-.4.3-.7.3-.3.1-.6.1-.8.1zm1.1-.9c.1-.1.1-.3.1-.5s-.1-.4-.3-.5c-.1-.1-.3-.1-.5-.1s-.3.1-.4.3c-.1.1-.1.3-.1.5s.1.4.3.5c.1.1.3.1.5.1.1 0 .3-.2.4-.3zm3.6-2.2c.2.1.4.4.4.8l.3 1.5-.8.1-.2-1.4c0-.2-.1-.4-.2-.4s-.3-.1-.4-.1c-.2 0-.3.1-.4.3-.1.1-.1.3-.1.5l.2 1.3-.8.1-.4-2.6.7-.1v.3l.3-.3.5-.2c.4 0 .7 0 .9.2zm3.9.6l-2 .3c.1.1.2.3.3.3.1.1.3.1.5.1l.4-.1.3-.3.5.4c-.2.3-.5.5-1 .6h-.8c-.3-.1-.4-.2-.6-.4-.1-.2-.3-.4-.3-.7 0-.3 0-.5.1-.7.1-.2.2-.4.4-.5.2-.1.4-.3.7-.3h.7c.2 0 .4.2.6.4.1.2.3.4.3.7-.1.1-.1.1-.1.2zm-1.9-.5c-.1.1-.1.3-.1.4l1.3-.2c0-.1-.1-.3-.3-.4-.1-.1-.3-.1-.4-.1-.3.1-.4.2-.5.3zm-4.8 7.1l-.3.2-.3.1c-.3 0-.5 0-.8-.1-.2-.1-.3-.4-.4-.7l-.2-1-.4.1-.1-.6.4-.1-.1-.7.8-.1.1.6.7-.1.1.6-.7.1.2 1c0 .1.1.2.1.3.1 0 .1.1.3 0l.3-.1.3.5zm4.2-3.3l-.5 2.7-.7.1-.8-1.5-.3 1.7-.7.1-1.4-2.4.7-.1.9 1.7.4-1.8.7-.1.9 1.7.3-1.8.5-.3zm1.3 2.4c-.2-.1-.4-.2-.6-.4-.1-.2-.3-.4-.3-.7 0-.3 0-.5.1-.7.1-.2.2-.4.4-.5s.5-.3.7-.3h.8c.5.1.8.6.9 1 0 .3 0 .5-.1.7-.1.2-.2.4-.4.5-.2.1-.4.3-.7.3-.3.2-.6.1-.8.1zm1.1-.9c.1-.1.1-.3.1-.5s-.1-.4-.3-.5c-.1-.1-.3-.1-.5-.1s-.3.1-.4.3c-.1.1-.1.3-.1.5s.1.4.3.5c.1.1.3.1.5.1s.3-.1.4-.3zm-7.1 6c-.2-.1-.4-.2-.6-.4-.1-.2-.3-.4-.3-.7-.1-.5.1-1 .5-1.3.4-.3 1-.4 1.5-.3.2.1.4.2.5.4l-.5.4c-.2-.2-.4-.3-.7-.3-.2 0-.4.1-.5.3-.1.1-.1.3-.1.5s.1.4.3.5c.1.1.3.1.5.1.3 0 .4-.2.5-.5l.7.2c-.1.2-.2.4-.4.5-.2.1-.4.3-.7.3-.3.3-.5.3-.7.3zm4.3-3.1c.3.1.4.4.5.8l.3 1.5-.7.1v-.3c-.1.3-.4.4-.7.5h-.5c-.1 0-.3-.1-.4-.2-.1-.1-.1-.2-.2-.4 0-.2 0-.4.2-.6s.4-.3.8-.4l.6-.1c0-.2-.1-.3-.2-.4-.1-.1-.3-.1-.5-.1l-.4.1-.3.2-.4-.5.5-.3.6-.2c.3.1.6.2.8.3zm-.3 1.9l.2-.3v-.3l-.5.1c-.3 0-.4.2-.4.4 0 .1.1.2.1.2s.2.1.3 0l.3-.1zm2.8-2.5l.5-.2.1.7h-.2c-.2 0-.4.1-.5.3-.1.1-.1.3-.1.6l.2 1.2-.8.1-.4-2.6.7-.1.1.3c.2 0 .3-.2.4-.3zm4.2.8l-2 .3c.1.1.2.3.3.3.1.1.3.1.5.1l.4-.1.3-.3.5.4c-.2.3-.5.5-1 .6h-.8c-.3-.1-.4-.2-.6-.4-.1-.2-.3-.4-.3-.7 0-.3 0-.5.1-.7.1-.2.2-.4.4-.5.2-.1.4-.3.7-.3h.7c.2 0 .4.2.6.4.1.2.3.4.3.7-.1 0-.1.1-.1.2zm-1.9-.5c-.1.1-.1.3-.1.4l1.3-.2c0-.1-.1-.3-.3-.4-.1-.1-.3-.1-.4-.1-.3.1-.4.2-.5.3zm5.4 0l-2 .3c.1.1.2.3.3.3.1.1.3.1.5.1l.4-.1.3-.3.5.4c-.2.3-.5.5-1 .6h-.8c-.3-.1-.4-.2-.6-.4-.1-.2-.3-.4-.3-.7 0-.3 0-.5.1-.7.1-.2.2-.4.4-.5s.4-.3.7-.3h.7c.2.1.4.2.6.4.1.2.3.4.3.7l-.1.2zm-1.9-.6c-.1.1-.1.3-.1.4l1.3-.2c0-.1-.1-.3-.3-.4-.1-.1-.3-.1-.4-.1-.3.1-.4.2-.5.3zm3.7-1.2l.5-.2.1.7h-.2c-.2 0-.4.1-.5.3-.1.1-.1.3-.1.6l.2 1.2-.8.1-.4-2.6.7-.1.1.3c.1-.1.2-.2.4-.3z"/><path fill="#489196" d="M95.8 217.6s-9.5-48.7 29.4-65.6l-14.5-8L83 198.1l12.8 19.5z"/><path d="M89.5 222.2l-9.3-18.9s-3.7-39.4 30.1-59.6c0 0 4.2-.2 15.2 5.6.7.4.9 1.2.6 1.9-.2.3-.5.6-.9.7-9.6 2.4-29.9 11.3-35.7 70.3z" class="st21"/><path d="M81.6 197.6l-1.5-1.7s0-34.7 30.2-52.2l2 .1c-.1 0-29.4 17.7-30.7 53.8zm9.3 13.8s5.8-53.3 34.3-59.5c1.3-.3 1.6-2.1.3-2.7 0 0-28 3-36 60.5l1.4 1.7z" class="st23"/><path d="M151 376.5s7.8 12.5 4.3 28.2c-2.4 10.8-11.8 20-4 22 7.8 2.1 22.6-9 23.2-33.3.6-24.1-10.3-25.9-10.3-25.9l-13.2 9z" class="st0"/><path d="M149.9 268.5c-3.1-34.5-5.3-107.7-20.7-113.2-11.1-4-23.1 44.5-23.1 44.5 1.3 9.3-1.7 56.3 6.8 86.4 4.1 14.5 8.1 31.3 23.3 29.3 13.3-1.9 15.4-28.2 13.7-47z" class="st5"/><path d="M117.3 298.5l31.6 77.7c1 2.4 3.3 4 5.9 4.1 3.5.1 9.8-.7 14.1-3.7 2.1-1.6 3.1-4.2 2.5-6.8L150 273.6s-21.9-25.3-32.7 24.9z" class="st5"/><path d="M119 291.5c-2.3-10.2-11.1-70.7-12.6-82.8.2 17.5-.5 53.1 6.4 77.5 2.3 8.1 4.5 16.9 8.7 22.7l27.5 67.4c1 2.4 3.3 4 5.9 4.1h2.1c-8.4-23.3-35.2-76.7-38-88.9z" class="st6"/><path d="M106.5 205.4S114 151 131.4 155c0 .1-21.5-13.3-24.9 50.4z" class="st19"/><path d="M151.5 377.4s12.3 2.5 18.2-5.8c-.1 0-7 5.5-18.2 5.8z" class="st20"/><g><path d="M78.3 778.2s.7 3.7 2.9 8.1c0 0 76.2 9.4 79.5-2.1l.1-4.8s.9-6.4-20.3-10.2c-2.4-.4-4.8-1-7.1-1.8-5.3-1.8-14.4-5.2-17.7-7.7-.5-.4-1.2-.3-1.6.2-4 5.2-10.3 8.2-16.9 7.8-6.5-.1-9.6-3.3-11.1-6.4-.9-1.9-3.7-1.9-4.7 0-2.3 4.7-4.7 11.3-3.1 16.9z" class="st9"/><path d="M160.7 779.5l-.1 4.8c-2.7 10.8-79.2 5.9-81.1 3.4-2.4-5.1-1.2-9.4-1.2-9.4 2.5 2.4 4.6 4.2 42.6 4.4 5.6 0 11.8-.7 19.1-.7 0 0 21.7-1.1 17.9-6.7 3.1 2.3 2.8 4.2 2.8 4.2z" class="st13"/><path d="M143.1 769.8l-2.7-.5c-2.4-.4-4.8-1-7.1-1.8-5.3-1.8-14.4-5.2-17.7-7.7-.1-.1-.3-.1-.4-.2l-.5 4.1s20.7 6.8 24.3 7.2c3.6.3 4.1-1.1 4.1-1.1z" class="st10"/><path d="M157.9 775.2c2.3 3.3-4.6 5.1-10.5 5.9l.7.8s1.9 2 .6 7.3c6.7-.9 11.3-2.5 12-5.1l.1-4.8c-.1.2.2-1.7-2.9-4.1z" class="st15"/><path d="M124 790.4l5.4-4.5c2.4-1.8 5.2-2.8 8.1-2.9 17.3-1.7 20.7-4.3 21.1-5.7.3-.9-.4-1.6-.8-1.8l-.1-.1.1-.1.4.4c.3.2.5.4.7.7l.1.2c.1.3.1.6 0 .9-.9 2.7-8.1 4.7-21.5 5.9-2.9.1-5.6 1.1-7.8 2.8l-4.8 4-.2.2h-.7z" class="st16"/><ellipse cx="119.9" cy="765.8" class="st31" rx="1.1" ry="1" transform="matrix(.9972 -.07498 .07498 .9972 -57.084 11.144)"/><ellipse cx="127.3" cy="768.9" class="st31" rx="1.1" ry="1" transform="matrix(.9972 -.07498 .07498 .9972 -57.288 11.71)"/><ellipse cx="134.9" cy="771.1" class="st31" rx="1.1" ry="1" transform="matrix(.9972 -.07498 .07498 .9972 -57.432 12.284)"/><path d="M119.9 765.9s.9-3.7 2.4-3.4m7.5 3.5c-2.2.2-2.5 2.9-2.5 2.9s-.5-3.6-4.5-5.4m8.5 3.2s2.5.7 3.5 4.3c0 0 .7-2.2 2-2.6" class="st32"/><path d="M116.5 760.3c-.7 1.9-5.2 11.4-19.6 11.2-12-.2-15.6-6.4-16.4-8.2.3-.7.6-1.3.9-2 .9-1.9 3.8-1.8 4.7 0 1.4 3.1 4.6 6.3 11.1 6.4 6.6.4 12.9-2.6 16.9-7.8.4-.5 1.1-.6 1.6-.2l.8.6z" class="st13"/><path d="M122.3 782.5h-.6c.1 0 6-5.4 11.5-6.9 7.8-2.2 9.6-5.8 9.6-5.8l.4.1c-.1.1-1.8 3.7-9.9 6-5.4 1.5-10.9 6.5-11 6.6zm-33.3-1h-.4c-.2-7.9-8.9-16-9-16.1l.2-.4c0 .1 8.9 8.5 9.2 16.5z" class="st10"/><path d="M117.7 761.4s-15.2 4.2-10.7 8.3c4.5 4.2 10.7-8.3 10.7-8.3z" class="st32"/></g></g></svg>