<?xml version="1.0" encoding="utf-8"?>
<!-- Generator: Adobe Illustrator 22.1.0, SVG Export Plug-In . SVG Version: 6.00 Build 0)  -->
<svg version="1.1" id="Слой_1" xmlns="http://www.w3.org/2000/svg" xmlns:xlink="http://www.w3.org/1999/xlink" x="0px" y="0px"
	 viewBox="0 0 184.3 800" style="enable-background:new 0 0 184.3 800;" xml:space="preserve">
<style type="text/css">
	.st0{fill:#875D46;}
	.st1{fill:#654635;}
	.st2{fill:#D1B951;}
	.st3{fill:#383530;}
	.st4{fill:#363847;}
	.st5{fill:#4E9DA3;}
	.st6{fill:#43888C;}
	.st7{fill:#7B6A1C;}
	.st8{opacity:0.3;fill:#232121;enable-background:new    ;}
	.st9{fill:#D7684B;}
	.st10{fill:#A14730;}
	.st11{fill:none;stroke:#595651;stroke-width:3.1586;stroke-miterlimit:10;}
	.st12{fill:none;stroke:#312A20;stroke-width:3.1586;stroke-linecap:round;stroke-linejoin:round;stroke-miterlimit:10;}
	.st13{fill:#E2E2E2;}
	.st14{fill:none;stroke:#312A20;stroke-width:2.6;stroke-linecap:round;stroke-linejoin:round;stroke-miterlimit:10;}
	.st15{fill:#C9C8C8;}
	.st16{fill:#595651;}
	.st17{fill:#262833;}
	
		.st18{fill:none;stroke:#434659;stroke-width:4.3058;stroke-linecap:round;stroke-linejoin:round;stroke-miterlimit:10;stroke-dasharray:10.7645;}
	.st19{fill:#3B767A;}
	.st20{fill:#2C595C;}
	.st21{fill:#DBBC32;}
	.st22{fill:#836B0B;}
	.st23{fill:#A48D26;}
	.st24{fill:#FFDF57;}
	.st25{fill:#FFE579;}
	.st26{fill:#41465F;}
	.st27{fill:#676B7F;}
	.st28{fill:#FF882A;}
	.st29{fill:#FFFFFF;}
	.st30{fill:#489196;}
	.st31{fill:none;stroke:#595651;stroke-width:3.2838;stroke-miterlimit:10;}
	.st32{fill:none;stroke:#312A20;stroke-width:3.2838;stroke-linecap:round;stroke-linejoin:round;stroke-miterlimit:10;}
</style>
<g id="Слой_7">
	<path class="st0" d="M51.8,749.1l1-20l21.7-2.2l2,28.3L62,763.1L51.8,749.1z"/>
	<path class="st1" d="M150.2,397.5c-3.6,7.1,2.9,12.8,7.1,5.5c4.2-7.3,3.4-26.7,3.4-26.7l-7.2,2.3
		C153.5,378.6,153.8,390.5,150.2,397.5"/>
	<path class="st2" d="M43.6,774.6c4.7,2.4,24.4,2.9,26.6,5.3c1.4,1.6-0.1,3.9-0.4,6c-1,9.7,54.8,10,81.2,6.7
		c13.9-1.8,16.2-3.9,15.4-6.9c-0.6-2.4-4.8-3.1-7.3-4.2s-5.4-1.5-8.2-1.9c-7.3-1-31.6-16.9-33.2-17c-15.2-1.2-24-1-39.2-1
		C39.7,761.4,36.7,771.1,43.6,774.6L43.6,774.6z"/>
	<path class="st3" d="M93.3,719.2L93.3,719.2C93.3,719.2,93.3,719.2,93.3,719.2L93.3,719.2z"/>
	<path class="st4" d="M122.3,521.9l-56.8,0.1"/>
	<path class="st0" d="M136.8,328.4c0,0,13.5,6,19.2,21.1c4,10.3,1.2,23.1,8.8,20.6c7.6-2.6,13.8-20,0.9-40.6
		c-12.8-20.4-22.9-15.8-22.9-15.8L136.8,328.4z"/>
	<path class="st5" d="M122.9,239.1c-21.7-27-64-86.8-79.9-82.9C31.5,159,48.3,206,48.3,206c6.2,7,29.7,47.9,53.4,68.2
		c11.5,9.8,24.1,21.6,35.6,11.5C147.5,276.8,134.7,253.8,122.9,239.1z"/>
	<path class="st5" d="M65.6,282.1l69.3,47.2c2.2,1.4,5,1.5,7.2,0.1c4.2-2.6,7.6-6.4,9.7-10.9c0.9-2.5,0.3-5.2-1.6-7.1l-71.1-68.2
		C79.1,243.2,46.8,234.3,65.6,282.1L65.6,282.1z"/>
	<path class="st6" d="M71.3,291.8c-4.8-9.2-28.9-65.5-33.4-76.8c4.7,16.9,13.2,51.4,26.1,73.2c4.3,7.2,8.7,15.1,14.3,19.7L122,366
		c1.6,2.1,4.3,3,6.8,2.4l2.1-0.6C116.8,347.6,77.1,302.8,71.3,291.8z"/>
	<path class="st7" d="M126,150c0,0-0.1,4.3-0.5,7.8c-0.4,3.5-8.1-6.4-8.1-6.4L126,150z"/>
	<path class="st8" d="M36,361.2c0,0,68.4,20.7,107.8-3.1c31.3-19-107.8-7.8-107.8-7.8L36,361.2L36,361.2z"/>
	<path class="st0" d="M69.7,120.1c4.3,5.4,2.3,15.8-2.9,21.4c9.7,3.8,23.5,5.4,33.1,1.3c-3.7-4.5-2.4-12.9-1.9-15.4
		c21.1-0.6,31.8,2,31.3-16.3c-0.3-8.9-0.9-17.1-2.1-26c-1.1-8.2-2.2-19-6.3-26.3c-6.5-11.9-29.2-12.1-39.8-7.6
		c-12.1,5.6-20.6,16.9-22.6,30.1C56.8,94.3,61.6,106.8,69.7,120.1L69.7,120.1z"/>
	<path class="st1" d="M50.5,748.5c0,0,6,11.7,23.9,3.2l1,7.2l-11.6,4.1c-0.8,0.3-10.2-0.3-10.2-0.3l-4.1-6.9L50.5,748.5L50.5,748.5z
		"/>
	<path class="st9" d="M44.5,763.7c0,0-0.1,1.8,2.4,6.1c0,0,68.6,6.1,68.7-3.3l-0.8-3.7c0,0-0.5-4.8-16.1-7.6
		c-1.8-0.3-3.7-0.8-5.6-1.4c-4.4-1.4-12-4.2-14.9-6.2c-0.4-0.3-1-0.2-1.3,0.1c-1.2,1.8-5.1,6.4-14.1,6.3c-6.1-0.1-9.3-2.9-10.9-5.6
		c-0.9-1.6-3.7-1.7-4.6-0.1C45.1,752.4,42.8,758.4,44.5,763.7z"/>
	<path class="st10" d="M102.4,756c-0.7-0.2-6-1.2-7.8-1.7c-4.5-1.4-12.4-4-15.5-6c-0.1-0.1-0.2-0.1-0.4-0.1l-1.3,2.5
		c0,0,19.3,5.9,22.1,6.1C102.3,757,102.2,756.3,102.4,756z"/>
	<path class="st11" d="M83.2,752.6c0.1,0.5-0.3,0.8-0.8,0.8s-0.9-0.4-1-0.9c0-0.5,0.3-0.8,0.8-0.8C82.7,751.7,83.2,752.1,83.2,752.6
		L83.2,752.6z M89.5,754.9c0.1,0.5-0.3,0.8-0.8,0.8s-0.9-0.4-1-0.8c-0.1-0.5,0.3-0.8,0.8-0.8C89,754.1,89.5,754.5,89.5,754.9z
		 M95.6,756.6c0.1,0.5-0.3,0.8-0.7,0.8s-0.9-0.4-1-0.8c-0.1-0.5,0.3-0.8,0.7-0.8C95.1,755.8,95.6,756.2,95.6,756.6z"/>
	<path class="st12" d="M82.3,752.5c0,0,0.3-2.9,1.6-2.6 M90.2,752.7c-1.7,0.1-1.6,2.2-1.6,2.2s-0.9-2.8-4.3-4.3 M91.5,753.2
		c0,0,2,0.5,3.3,3.4c0,0,0.3-1.7,1.1-2"/>
	<path class="st10" d="M87.2,765.6h-0.5c0,0,4.5-4,8.7-5.2c5.8-1.6,6.9-4.4,6.9-4.5l0.2,0c0,0.1-1.1,3.1-7,4.7
		C91.4,761.9,87.3,765.6,87.2,765.6L87.2,765.6z"/>
	<path class="st13" d="M79,748.1c-0.4,1.5-3.2,9.3-16.2,9.2c-11.7-0.1-15.5-5.6-16.3-7.2l0.9-1.7c0.9-1.6,3.7-1.5,4.6,0.1
		c1.6,2.7,4.7,5.5,10.9,5.6c9,0.1,12.9-4.4,14.1-6.3c0.3-0.4,0.8-0.4,1.3-0.1C78.4,747.8,78.6,748,79,748.1L79,748.1z"/>
	<path class="st10" d="M54.5,765.8h-0.4c0-7.4-8.3-14-8.4-14.1l0.1-0.4C45.9,751.4,54.5,758.2,54.5,765.8z"/>
	<path class="st14" d="M79,748.2c0,0-7.3,7.1-2.9,8C80.4,757.2,79,748.2,79,748.2z"/>
	<path class="st13" d="M114.8,762.8l0.8,3.7c-0.2,9.7-65.1,8.6-71.4,4.4c-1.8-4.1,0.3-7.2,0.3-7.2s12.6,5.8,54.5,1.8
		c0,0,16.6-1.7,13-5.9C114.7,761.4,114.8,762.8,114.8,762.8L114.8,762.8z"/>
	<path class="st15" d="M112.1,759.6c2.4,2.3-2.4,4.1-7,4.9l0.7,0.7c0,0,1.8,1.5,1.8,6c6.1-1.5,8-2.8,8-4.9l-0.9-3.7
		C114.8,762.6,114.8,761.3,112.1,759.6L112.1,759.6z"/>
	<path class="st16" d="M88.8,773.2l3.8-4.2c1.3-1.5,3.3-2.4,6-2.7c12.4-1.8,14.4-3.9,14.4-5c0-0.7-0.6-1.2-0.8-1.4l-0.1-0.1l0.1-0.1
		l0.4,0.3c0.2,0.1,0.4,0.3,0.5,0.5l0.1,0.2c0.1,0.2,0.1,0.4,0.1,0.7c-0.1,2.1-4.9,3.8-14.6,5.2c-2.2,0.2-4.2,1.2-5.8,2.7l-3.4,3.7
		l-0.1,0.2L88.8,773.2L88.8,773.2z"/>
	<path class="st0" d="M85.6,763.8l1.5-20l23.4-1.7l1.5,28.2L96.3,778L85.6,763.8z"/>
	<path class="st4" d="M88.7,397.3l-9.9,343.4c0,1.2-0.8,2.2-1.8,2.6c-6.4,2.5-18,3.4-25.1-0.3c-0.9-0.4-1.4-1.3-1.6-2.3l-22.1-340
		L88.7,397.3z"/>
	<path class="st17" d="M76,398l-47.8-0.7l22.1,343.5c0.1,1,0.7,1.8,1.6,2.3c3.9,1.7,8.2,2.6,12.5,2.5L76,398z"/>
	<path class="st18" d="M76,443.3L64.3,744"/>
	<path class="st4" d="M66.5,405.1L84,752.8c0,1.5,0.8,2.9,2.1,3.5c5.4,2.7,18.8,4.2,24.7,1.7c1.2-0.5,2.1-1.6,2.3-2.9l27.6-377.8
		L66.5,405.1L66.5,405.1z"/>
	<path class="st17" d="M66.5,402.6l17,340.3l0.4,9.8c0,1.5,0.8,2.9,2.1,3.5c0.8,0.4,7.3,2.9,12.7,2.9l7.8-361.8L66.5,402.6z"/>
	<path class="st18" d="M106.4,397.3L98.6,759"/>
	<path class="st19" d="M141.9,374v12.8c0,0-66.8,42.8-113.8,23.1l-1.8-11.8L141.9,374L141.9,374z"/>
	<path class="st20" d="M133.3,383.3v8.5l8.6-5v-9.9L133.3,383.3z"/>
	<path class="st1" d="M85.1,96.4c0,0-6.3-2.2-5.8-9.7c0.5-8.4,7-7.9,7-7.9s-5.8-0.2-6.3,8C79.7,90.6,81.6,94.4,85.1,96.4z
		 M127.1,122.3c-7.7,7.2-31.6,0.1-31.6,0.1l2,5C106.3,128.2,123.6,128.6,127.1,122.3L127.1,122.3z"/>
	<path class="st5" d="M131.4,155.1c0,0-27.3-13.3-31.7-14.9c-27.5,8.1-30.3-2.4-31.5-1.9v0c0,0-24.8,10.3-36.8,34.5
		C13.1,209.7,19.2,399,27,403c40.1,20.3,115.9-20.1,116-25.6c0.2-28.1,2.6-138.2-3.7-201.4C137.6,158.9,131.7,155.8,131.4,155.1
		L131.4,155.1z"/>
	<path class="st6" d="M63.9,179.8c0,0,27.7,8.9,45.3,57.3c13.7,37.6,26,85.6,22.4,97.4c-6.9,22.4-88.8,30.6-104.2,20
		c-7.8-5.4-22.4-105-6.9-147.9C35.6,165.4,63.9,179.8,63.9,179.8L63.9,179.8z"/>
	<path class="st21" d="M125.7,333.3c0,0,21.4-25,26.2-54.4c0.4-2.6,0.4-5.2,0-7.7l-2.4-11.6c-1.7,12.1-1,33.2-32.9,58.7
		C115.8,318.9,125.7,333.3,125.7,333.3z"/>
	<path class="st19" d="M39.1,182.9c0,0-15-13.9,9.6-16.7c24.7-2.7,8.2,18,8.2,18s9.8-18.9-9.2-14.9
		C28.7,173.4,39.1,182.9,39.1,182.9L39.1,182.9z"/>
	<path class="st21" d="M39.1,182.9c0,0-15.7-17.2,9-19.9c24.7-2.7,8.2,18,8.2,18s9.8-18.9-9.2-14.9S39.1,182.9,39.1,182.9
		L39.1,182.9z"/>
	<path class="st5" d="M54,355.3c0,0,4.7,14,4.4,17.5c-0.3,3.5-11.4,11.8-19.5,9.7c-8.1-2.1-10.8-32-10.8-32L54,355.3z"/>
	<path class="st22" d="M54,374.2c0,0,2.9-0.9-15.8-40.9l-6.9,0.4l5.3,42.5c0,0,7.4,1.3,8,1.2C45.3,377.3,54,374.2,54,374.2L54,374.2
		z"/>
	<path class="st21" d="M16.3,339.6c0,0,5.4,20.2,13.4,36.5c2.7,5.5,9.2,7.9,14.8,5.4c3.8-1.6,7.1-4.1,9.6-7.3c0,0-8.9-0.7-21.2-39.5
		C32.9,334.7,16.3,339.6,16.3,339.6z"/>
	<path class="st23" d="M24.2,204c0,0-12.2-2.7-3-12.8c9.2-10.1,8.8-11,15.4-8L24.2,204z"/>
	<path class="st24" d="M11.4,340.5c-27.1-151.5,29.9-166.4,39-164.4c11.9-1.6,54.1,21.2,78.8,151c1.1,6-1.9,12-7.4,14.6
		c-9.1,4.3-25.8,10.6-53.1,15.6C20.5,366,12.8,348.6,11.4,340.5L11.4,340.5z"/>
	<path class="st25" d="M16.9,236.8c0,0,24,0.1,49.5-8.7c0,0,5,10.5,5.1,16c0,0-40.2,13.1-52,7.1L16.9,236.8L16.9,236.8z M19,298.9
		c0,0,45.3-15.5,67.7-9.5c0,0,2.6,26.8,10.1,40.4c0,0-20.1,13.6-42.9,14.9s-27.3-4.3-27.3-4.3S17.2,321.9,19,298.9z"/>
	<path class="st21" d="M19.6,288.2c0.9-0.7,29.7,3.8,63.3-8.9c0,0,5.2-0.5,7.4,11.2c0,0-35.9,16.2-75.5,9.3
		C14.8,299.9,13.3,293.2,19.6,288.2z"/>
	<path class="st23" d="M149.4,259.6c0,0-1.4,29.9-23.6,50.6v2.8C125.8,313,150.1,291.7,149.4,259.6z M152.1,276.9
		c0,0-3.6,27.3-25.5,52l3-0.2C129.5,328.8,150.3,301.7,152.1,276.9z"/>
	<path class="st21" d="M28.7,339.6c0,0-8.5-8.5-9.8-32.3c0,0-2.2,18.3,6.9,35.6c0,0,34,16,71.1-13C96.9,329.9,54.4,352.7,28.7,339.6
		z M16.8,235.9c0,0-1.5,12.9,3.1,17c0,0,18.4,3.5,51.9-7.3c0,0,0.5-9.7-5.4-17.4c0,0,3.3,12.8,1.5,14.7c0,0-23.4,10.5-46.7,7.5
		C21.2,250.3,17.9,246.2,16.8,235.9L16.8,235.9z"/>
	<path class="st21" d="M97.8,350.6c7.6-2.5,20-6.9,24.2-8.8c5.5-2.6,8.5-8.6,7.4-14.6c-24.7-129.9-66.9-152.6-78.8-151
		c-5-1.1-24.6,3-36.6,32.2c0,0,7.1-15.6,24.2-18.7c23.3-4.2,35.4,14,47.8,46.1c12.2,31.6,24.5,78.2,26.8,92.1
		C114.7,340.3,104.4,348.5,97.8,350.6L97.8,350.6z"/>
	<path class="st19" d="M66.8,140.9c0,0,4,9.4,33.9,2.3C100.8,143.2,70.9,153.1,66.8,140.9z"/>
	<path class="st26" d="M68.4,122.4c-2.4-7.6-12.2-30-17.6-48.9C47.4,61.6,52.6,49,63.3,42.9c19.5-11.1,44.6-25.3,57.8-22.9
		c19.7,3.5,12.2,29.8-3.5,41.7c-11.4,8.7-18,1.1-21.3,7.4c-2.4,4.6,7.6,6.1,3.3,12.7c-4.6,7.1-5-6.1-12.9-6.1s-12.4,12.4-6.5,19.1
		c3.6,4.1,6,6.3,9.7,10c2.8,2.9,3,7.4,0.5,10.5c-3,3.6-8.5,7.7-18.2,9.4C70.5,124.9,68.9,124,68.4,122.4L68.4,122.4z"/>
	<path class="st27" d="M121.1,20c-4.5-0.5-9,0-13.3,1.4c0.1,0,33-3,13.2,37.3h0.1C134.3,45.9,139.3,23.2,121.1,20L121.1,20z"/>
	<path class="st23" d="M42.5,359.7c0,0,6.4,13.2,11.5,14.5l-1,1.2c0,0-7.7-3.3-12-15.9C41.1,359.6,42.5,359.7,42.5,359.7z
		 M28.7,374.1c-3-5.7-8-19.9-8-19.9l1.8,1c0.1,0,8,26.4,16.2,27.2c0,0-3.7,0-6.6-3C29.4,376.5,28.7,374.1,28.7,374.1L28.7,374.1z"/>
	<g>
		
			<ellipse transform="matrix(1.817847e-02 -0.9998 0.9998 1.817847e-02 -224.6165 310.123)" class="st28" cx="45.6" cy="269.4" rx="10.8" ry="10.8"/>
		<path class="st29" d="M37.1,267.8c-0.2-0.1-0.4-0.2-0.6-0.4c-0.1-0.2-0.3-0.4-0.3-0.7c0-0.3,0-0.5,0.1-0.7
			c0.1-0.2,0.2-0.4,0.4-0.5c0.2-0.1,0.5-0.3,0.7-0.3c0.3,0,0.5,0,0.8,0c0.5,0.1,0.8,0.6,0.9,1c0,0.3,0,0.5-0.1,0.7
			c-0.1,0.2-0.2,0.4-0.4,0.5c-0.2,0.1-0.4,0.3-0.7,0.3C37.6,267.8,37.3,267.8,37.1,267.8z M38.2,266.9c0.1-0.1,0.1-0.3,0.1-0.5
			s-0.1-0.4-0.3-0.5c-0.1-0.1-0.3-0.1-0.5-0.1c-0.2,0-0.3,0.1-0.4,0.3c-0.1,0.1-0.1,0.3-0.1,0.5s0.1,0.4,0.3,0.5
			c0.1,0.1,0.3,0.1,0.5,0.1C37.9,267.2,38.1,267,38.2,266.9z M41.8,264.7c0.2,0.1,0.4,0.4,0.4,0.8l0.3,1.5l-0.8,0.1l-0.2-1.4
			c0-0.2-0.1-0.4-0.2-0.4s-0.3-0.1-0.4-0.1c-0.2,0-0.3,0.1-0.4,0.3c-0.1,0.1-0.1,0.3-0.1,0.5l0.2,1.3l-0.8,0.1l-0.4-2.6l0.7-0.1
			l0,0.3l0.3-0.3l0.5-0.2C41.3,264.5,41.6,264.5,41.8,264.7z M45.7,265.3l-2,0.3c0.1,0.1,0.2,0.3,0.3,0.3c0.1,0.1,0.3,0.1,0.5,0.1
			l0.4-0.1l0.3-0.3l0.5,0.4c-0.2,0.3-0.5,0.5-1,0.6c-0.3,0-0.6,0-0.8,0c-0.3-0.1-0.4-0.2-0.6-0.4c-0.1-0.2-0.3-0.4-0.3-0.7
			c0-0.3,0-0.5,0.1-0.7c0.1-0.2,0.2-0.4,0.4-0.5c0.2-0.1,0.4-0.3,0.7-0.3c0.3,0,0.5,0,0.7,0s0.4,0.2,0.6,0.4
			c0.1,0.2,0.3,0.4,0.3,0.7C45.7,265.2,45.7,265.2,45.7,265.3L45.7,265.3z M43.8,264.8c-0.1,0.1-0.1,0.3-0.1,0.4l1.3-0.2
			c0-0.1-0.1-0.3-0.3-0.4c-0.1-0.1-0.3-0.1-0.4-0.1C44,264.6,43.9,264.7,43.8,264.8z M39,271.9l-0.3,0.2l-0.3,0.1
			c-0.3,0-0.5,0-0.8-0.1c-0.2-0.1-0.3-0.4-0.4-0.7l-0.2-1l-0.4,0.1l-0.1-0.6l0.4-0.1l-0.1-0.7l0.8-0.1l0.1,0.6l0.7-0.1l0.1,0.6
			l-0.7,0.1l0.2,1c0,0.1,0.1,0.2,0.1,0.3c0.1,0,0.1,0.1,0.3,0l0.3-0.1L39,271.9L39,271.9z M43.2,268.6l-0.5,2.7l-0.7,0.1l-0.8-1.5
			l-0.3,1.7l-0.7,0.1l-1.4-2.4l0.7-0.1l0.9,1.7l0.4-1.8l0.7-0.1l0.9,1.7l0.3-1.8L43.2,268.6z M44.5,271c-0.2-0.1-0.4-0.2-0.6-0.4
			c-0.1-0.2-0.3-0.4-0.3-0.7c0-0.3,0-0.5,0.1-0.7c0.1-0.2,0.2-0.4,0.4-0.5s0.5-0.3,0.7-0.3c0.3,0,0.5,0,0.8,0c0.5,0.1,0.8,0.6,0.9,1
			c0,0.3,0,0.5-0.1,0.7c-0.1,0.2-0.2,0.4-0.4,0.5c-0.2,0.1-0.4,0.3-0.7,0.3C45,271.1,44.7,271,44.5,271z M45.6,270.1
			c0.1-0.1,0.1-0.3,0.1-0.5s-0.1-0.4-0.3-0.5c-0.1-0.1-0.3-0.1-0.5-0.1c-0.2,0-0.3,0.1-0.4,0.3c-0.1,0.1-0.1,0.3-0.1,0.5
			c0,0.2,0.1,0.4,0.3,0.5c0.1,0.1,0.3,0.1,0.5,0.1C45.4,270.4,45.5,270.3,45.6,270.1z M38.5,276.1c-0.2-0.1-0.4-0.2-0.6-0.4
			c-0.1-0.2-0.3-0.4-0.3-0.7c-0.1-0.5,0.1-1,0.5-1.3c0.4-0.3,1-0.4,1.5-0.3c0.2,0.1,0.4,0.2,0.5,0.4l-0.5,0.4
			c-0.2-0.2-0.4-0.3-0.7-0.3c-0.2,0-0.4,0.1-0.5,0.3c-0.1,0.1-0.1,0.3-0.1,0.5s0.1,0.4,0.3,0.5c0.1,0.1,0.3,0.1,0.5,0.1
			c0.3,0,0.4-0.2,0.5-0.5l0.7,0.2c-0.1,0.2-0.2,0.4-0.4,0.5c-0.2,0.1-0.4,0.3-0.7,0.3C38.9,276.1,38.7,276.1,38.5,276.1L38.5,276.1z
			 M42.8,273c0.3,0.1,0.4,0.4,0.5,0.8l0.3,1.5l-0.7,0.1l0-0.3c-0.1,0.3-0.4,0.4-0.7,0.5h-0.5c-0.1,0-0.3-0.1-0.4-0.2
			c-0.1-0.1-0.1-0.2-0.2-0.4c0-0.2,0-0.4,0.2-0.6s0.4-0.3,0.8-0.4l0.6-0.1c0-0.2-0.1-0.3-0.2-0.4c-0.1-0.1-0.3-0.1-0.5-0.1l-0.4,0.1
			l-0.3,0.2l-0.4-0.5l0.5-0.3l0.6-0.2C42.3,272.8,42.6,272.9,42.8,273z M42.5,274.9l0.2-0.3l0-0.3l-0.5,0.1c-0.3,0-0.4,0.2-0.4,0.4
			c0,0.1,0.1,0.2,0.1,0.2s0.2,0.1,0.3,0L42.5,274.9L42.5,274.9z M45.3,272.4l0.5-0.2l0.1,0.7l-0.2,0c-0.2,0-0.4,0.1-0.5,0.3
			c-0.1,0.1-0.1,0.3-0.1,0.6l0.2,1.2l-0.8,0.1l-0.4-2.6l0.7-0.1l0.1,0.3C45.1,272.7,45.2,272.5,45.3,272.4z M49.5,273.2l-2,0.3
			c0.1,0.1,0.2,0.3,0.3,0.3c0.1,0.1,0.3,0.1,0.5,0.1l0.4-0.1l0.3-0.3l0.5,0.4c-0.2,0.3-0.5,0.5-1,0.6c-0.3,0-0.6,0-0.8,0
			c-0.3-0.1-0.4-0.2-0.6-0.4c-0.1-0.2-0.3-0.4-0.3-0.7c0-0.3,0-0.5,0.1-0.7c0.1-0.2,0.2-0.4,0.4-0.5c0.2-0.1,0.4-0.3,0.7-0.3
			c0.3,0,0.5,0,0.7,0s0.4,0.2,0.6,0.4c0.1,0.2,0.3,0.4,0.3,0.7C49.5,273,49.5,273.1,49.5,273.2L49.5,273.2z M47.6,272.7
			c-0.1,0.1-0.1,0.3-0.1,0.4l1.3-0.2c0-0.1-0.1-0.3-0.3-0.4c-0.1-0.1-0.3-0.1-0.4-0.1C47.8,272.5,47.7,272.6,47.6,272.7z M53,272.7
			l-2,0.3c0.1,0.1,0.2,0.3,0.3,0.3c0.1,0.1,0.3,0.1,0.5,0.1l0.4-0.1l0.3-0.3l0.5,0.4c-0.2,0.3-0.5,0.5-1,0.6c-0.3,0-0.6,0-0.8,0
			c-0.3-0.1-0.4-0.2-0.6-0.4c-0.1-0.2-0.3-0.4-0.3-0.7c0-0.3,0-0.5,0.1-0.7c0.1-0.2,0.2-0.4,0.4-0.5s0.4-0.3,0.7-0.3
			c0.3,0,0.5,0,0.7,0c0.2,0.1,0.4,0.2,0.6,0.4c0.1,0.2,0.3,0.4,0.3,0.7L53,272.7L53,272.7z M51.1,272.1c-0.1,0.1-0.1,0.3-0.1,0.4
			l1.3-0.2c0-0.1-0.1-0.3-0.3-0.4c-0.1-0.1-0.3-0.1-0.4-0.1C51.3,271.9,51.2,272,51.1,272.1z M54.8,270.9l0.5-0.2l0.1,0.7l-0.2,0
			c-0.2,0-0.4,0.1-0.5,0.3c-0.1,0.1-0.1,0.3-0.1,0.6l0.2,1.2l-0.8,0.1l-0.4-2.6l0.7-0.1l0.1,0.3C54.5,271.1,54.6,271,54.8,270.9z"/>
	</g>
	<path class="st30" d="M95.8,217.6c0,0-9.5-48.7,29.4-65.6l-14.5-8l-27.7,54.1L95.8,217.6L95.8,217.6z"/>
	<path class="st21" d="M89.5,222.2l-9.3-18.9c0,0-3.7-39.4,30.1-59.6c0,0,4.2-0.2,15.2,5.6c0.7,0.4,0.9,1.2,0.6,1.9
		c-0.2,0.3-0.5,0.6-0.9,0.7C115.6,154.3,95.3,163.2,89.5,222.2L89.5,222.2z"/>
	<path class="st23" d="M81.6,197.6l-1.5-1.7c0,0,0-34.7,30.2-52.2l2,0.1C112.2,143.8,82.9,161.5,81.6,197.6L81.6,197.6z M90.9,211.4
		c0,0,5.8-53.3,34.3-59.5c1.3-0.3,1.6-2.1,0.3-2.7h0c0,0-28,3-36,60.5L90.9,211.4L90.9,211.4z"/>
	<path class="st0" d="M151,376.5c0,0,7.8,12.5,4.3,28.2c-2.4,10.8-11.8,20-4,22c7.8,2.1,22.6-9,23.2-33.3
		c0.6-24.1-10.3-25.9-10.3-25.9L151,376.5L151,376.5z"/>
	<path class="st5" d="M149.9,268.5c-3.1-34.5-5.3-107.7-20.7-113.2c-11.1-4-23.1,44.5-23.1,44.5c1.3,9.3-1.7,56.3,6.8,86.4
		c4.1,14.5,8.1,31.3,23.3,29.3C149.5,313.6,151.6,287.3,149.9,268.5L149.9,268.5z"/>
	<path class="st5" d="M117.3,298.5l31.6,77.7c1,2.4,3.3,4,5.9,4.1c3.5,0.1,9.8-0.7,14.1-3.7c2.1-1.6,3.1-4.2,2.5-6.8L150,273.6
		C150,273.6,128.1,248.3,117.3,298.5L117.3,298.5z"/>
	<path class="st6" d="M119,291.5c-2.3-10.2-11.1-70.7-12.6-82.8c0.2,17.5-0.5,53.1,6.4,77.5c2.3,8.1,4.5,16.9,8.7,22.7l27.5,67.4
		c1,2.4,3.3,4,5.9,4.1l2.1,0C148.6,357.1,121.8,303.7,119,291.5L119,291.5z"/>
	<path class="st19" d="M106.5,205.4c0,0,7.5-54.4,24.9-50.4C131.4,155.1,109.9,141.7,106.5,205.4L106.5,205.4z"/>
	<path class="st20" d="M151.5,377.4c0,0,12.3,2.5,18.2-5.8C169.6,371.6,162.7,377.1,151.5,377.4z"/>
	<g>
		<path class="st9" d="M78.3,778.2c0,0,0.7,3.7,2.9,8.1c0,0,76.2,9.4,79.5-2.1l0.1-4.8c0,0,0.9-6.4-20.3-10.2
			c-2.4-0.4-4.8-1-7.1-1.8c-5.3-1.8-14.4-5.2-17.7-7.7c-0.5-0.4-1.2-0.3-1.6,0.2c-4,5.2-10.3,8.2-16.9,7.8
			c-6.5-0.1-9.6-3.3-11.1-6.4c-0.9-1.9-3.7-1.9-4.7,0C79.1,766,76.7,772.6,78.3,778.2L78.3,778.2z"/>
		<path class="st13" d="M160.7,779.5l-0.1,4.8c-2.7,10.8-79.2,5.9-81.1,3.4c-2.4-5.1-1.2-9.4-1.2-9.4c2.5,2.4,4.6,4.2,42.6,4.4
			c5.6,0,11.8-0.7,19.1-0.7c0,0,21.7-1.1,17.9-6.7C161,777.6,160.7,779.5,160.7,779.5L160.7,779.5z"/>
		<path class="st10" d="M143.1,769.8l-2.7-0.5c-2.4-0.4-4.8-1-7.1-1.8c-5.3-1.8-14.4-5.2-17.7-7.7c-0.1-0.1-0.3-0.1-0.4-0.2
			l-0.5,4.1c0,0,20.7,6.8,24.3,7.2C142.6,771.2,143.1,769.8,143.1,769.8z"/>
		<path class="st15" d="M157.9,775.2c2.3,3.3-4.6,5.1-10.5,5.9l0.7,0.8c0,0,1.9,2,0.6,7.3c6.7-0.9,11.3-2.5,12-5.1l0.1-4.8
			C160.7,779.5,161,777.6,157.9,775.2z"/>
		<path class="st16" d="M124,790.4l5.4-4.5c2.4-1.8,5.2-2.8,8.1-2.9c17.3-1.7,20.7-4.3,21.1-5.7c0.3-0.9-0.4-1.6-0.8-1.8l-0.1-0.1
			l0.1-0.1l0.4,0.4c0.3,0.2,0.5,0.4,0.7,0.7l0.1,0.2c0.1,0.3,0.1,0.6,0,0.9c-0.9,2.7-8.1,4.7-21.5,5.9c-2.9,0.1-5.6,1.1-7.8,2.8
			l-4.8,4l-0.2,0.2L124,790.4L124,790.4z"/>
		
			<ellipse transform="matrix(0.9972 -7.497762e-02 7.497762e-02 0.9972 -57.084 11.1438)" class="st31" cx="119.9" cy="765.8" rx="1.1" ry="1"/>
		
			<ellipse transform="matrix(0.9972 -7.497762e-02 7.497762e-02 0.9972 -57.2882 11.7109)" class="st31" cx="127.3" cy="768.9" rx="1.1" ry="1"/>
		
			<ellipse transform="matrix(0.9972 -7.497762e-02 7.497762e-02 0.9972 -57.4323 12.2839)" class="st31" cx="134.9" cy="771.1" rx="1.1" ry="1"/>
		<path class="st32" d="M119.9,765.9c0,0,0.9-3.7,2.4-3.4 M129.8,766c-2.2,0.2-2.5,2.9-2.5,2.9s-0.5-3.6-4.5-5.4 M131.3,766.7
			c0,0,2.5,0.7,3.5,4.3c0,0,0.7-2.2,2-2.6"/>
		<path class="st13" d="M116.5,760.3c-0.7,1.9-5.2,11.4-19.6,11.2c-12-0.2-15.6-6.4-16.4-8.2c0.3-0.7,0.6-1.3,0.9-2
			c0.9-1.9,3.8-1.8,4.7,0c1.4,3.1,4.6,6.3,11.1,6.4c6.6,0.4,12.9-2.6,16.9-7.8c0.4-0.5,1.1-0.6,1.6-0.2L116.5,760.3L116.5,760.3z"/>
		<path class="st10" d="M122.3,782.5h-0.6c0.1,0,6-5.4,11.5-6.9c7.8-2.2,9.6-5.8,9.6-5.8l0.4,0.1c-0.1,0.1-1.8,3.7-9.9,6
			C127.9,777.4,122.4,782.4,122.3,782.5z M89,781.5h-0.4c-0.2-7.9-8.9-16-9-16.1l0.2-0.4C79.8,765.1,88.7,773.5,89,781.5L89,781.5z"
			/>
		<path class="st32" d="M117.7,761.4c0,0-15.2,4.2-10.7,8.3C111.5,773.9,117.7,761.4,117.7,761.4z"/>
	</g>
</g>
</svg>
