<svg xmlns="http://www.w3.org/2000/svg" viewBox="0 0 1280 1024"><defs/><style>.st1{fill:#fff}</style><g id="Слой_1"><circle cx="634.71" cy="479.67" r="225.58" fill="#ff882a"/><path d="M508.45 389.03c0 8.37-2.78 15.42-8.34 21.15-5.56 5.73-12.54 8.59-20.94 8.59-8.41 0-15.39-2.86-20.94-8.59-5.56-5.72-8.34-12.77-8.34-21.15s2.78-15.44 8.34-21.2c5.56-5.76 12.54-8.64 20.94-8.64 8.4 0 15.39 2.88 20.94 8.64 5.56 5.76 8.34 12.83 8.34 21.2zm-43.02 0c0 4.72 1.29 8.57 3.86 11.54 2.57 2.97 5.87 4.46 9.88 4.46 4.01 0 7.31-1.48 9.88-4.46 2.57-2.97 3.86-6.82 3.86-11.54s-1.29-8.59-3.86-11.59c-2.57-3.01-5.87-4.51-9.88-4.51-4.01 0-7.31 1.5-9.88 4.51-2.58 3-3.86 6.87-3.86 11.59zm73.89-3.33v32.2h-15.44v-57.75h15.44v6.44c4.67-4.94 9.91-7.41 15.75-7.41 5.83 0 10.72 2.15 14.67 6.44 3.94 4.29 5.92 10.02 5.92 17.17v35.1h-15.44v-32.63c0-8.87-3.12-13.31-9.37-13.31-3.09 0-5.78 1.16-8.08 3.49-2.3 2.34-3.45 5.76-3.45 10.26zm102.3 23.83c-6.24 6.16-13.57 9.23-21.97 9.23-8.41 0-15.35-2.7-20.84-8.1-5.49-5.4-8.23-12.65-8.23-21.74 0-9.09 2.79-16.32 8.39-21.68 5.59-5.37 12.2-8.05 19.81-8.05 7.62 0 14.08 2.4 19.4 7.19 5.32 4.8 7.98 11.38 7.98 19.75v8.59h-40.34c.48 3.15 2.06 5.73 4.73 7.73 2.68 2 5.69 3.01 9.06 3.01 5.42 0 9.88-1.9 13.38-5.69l8.63 9.76zm-14.82-34.24c-2.13-1.86-4.72-2.79-7.77-2.79s-5.85.97-8.39 2.9c-2.54 1.93-4.01 4.54-4.43 7.84h24.29c-.34-3.44-1.57-6.09-3.7-7.95zM475.19 465.54v25.87c0 2.22.55 3.95 1.65 5.21 1.1 1.25 2.4 1.88 3.91 1.88 2.88 0 5.32-1.36 7.31-4.08l5.76 11.27c-4.8 4.58-9.86 6.87-15.18 6.87s-9.81-1.82-13.48-5.47c-3.67-3.65-5.51-8.62-5.51-14.92v-26.62h-6.48v-11.59h6.48v-17.28h15.54v17.28h13.38v11.59h-13.38zm54.54 46.15h-15.95l-18.83-57.75h15.95l10.81 34.89 10.81-34.89h14.92l10.81 34.89 10.81-34.89h16.06l-18.83 57.75h-16.06l-10.19-31.45-10.31 31.45zm118.25-28.87c0 8.37-2.78 15.42-8.34 21.15-5.56 5.73-12.54 8.59-20.94 8.59-8.41 0-15.39-2.86-20.94-8.59-5.56-5.72-8.34-12.77-8.34-21.15s2.78-15.44 8.34-21.2c5.56-5.76 12.54-8.64 20.94-8.64 8.4 0 15.39 2.88 20.94 8.64 5.57 5.76 8.34 12.83 8.34 21.2zm-43.02 0c0 4.72 1.29 8.57 3.86 11.54 2.57 2.97 5.87 4.46 9.88 4.46 4.01 0 7.31-1.48 9.88-4.46 2.57-2.97 3.86-6.82 3.86-11.54s-1.29-8.59-3.86-11.59c-2.57-3.01-5.87-4.51-9.88-4.51-4.01 0-7.31 1.5-9.88 4.51-2.57 3-3.86 6.87-3.86 11.59zM482.13 581.11c5.12 0 9.73-2.68 13.83-8.05l9.12 10.73c-7.1 7.73-14.79 11.59-23.05 11.59-8.27 0-15.25-2.74-20.95-8.21-5.7-5.47-8.55-12.63-8.55-21.47 0-8.84 2.88-16.03 8.66-21.58 5.77-5.54 12.62-8.32 20.54-8.32 3.96 0 7.97.86 12.04 2.58 4.06 1.72 7.63 4.26 10.71 7.62l-7.99 10.95c-1.78-2.22-3.94-3.94-6.51-5.15-2.56-1.22-5.11-1.82-7.63-1.82-4.03 0-7.5 1.38-10.4 4.13-2.9 2.76-4.35 6.58-4.35 11.49 0 4.9 1.45 8.71 4.35 11.43 2.89 2.72 6.29 4.08 10.18 4.08zm90.06 13.42h-14.45v-6.98c-3.96 5.22-8.86 7.84-14.7 7.84s-10.74-1.77-14.7-5.31c-3.96-3.54-5.94-8.26-5.94-14.17 0-5.9 2.05-10.32 6.15-13.26 4.1-2.93 9.7-4.4 16.8-4.4h11.47v-.32c0-6.15-3.11-9.23-9.32-9.23-2.66 0-5.48.55-8.45 1.66-2.97 1.11-5.48 2.49-7.53 4.13l-6.86-10.41c7.24-5.51 15.5-8.26 24.79-8.26 6.69 0 12.16 1.75 16.39 5.26s6.35 9.05 6.35 16.64v36.81zm-15.47-22.01v-2.79h-9.63c-6.15 0-9.22 2-9.22 6.01 0 2.08.73 3.67 2.2 4.78 1.47 1.11 3.57 1.66 6.3 1.66s5.14-.88 7.22-2.63 3.13-4.09 3.13-7.03zm68.54-21.57c-4.58 0-7.99 1.7-10.25 5.1-2.25 3.4-3.38 7.89-3.38 13.47v25.01h-15.37v-57.75h15.37v7.62c1.98-2.36 4.46-4.36 7.43-6.01 2.97-1.65 5.99-2.5 9.07-2.58l.1 15.13h-2.97zm70.9 35.2c-6.22 6.16-13.51 9.23-21.87 9.23-8.37 0-15.28-2.7-20.75-8.1-5.46-5.4-8.2-12.65-8.2-21.74 0-9.09 2.78-16.32 8.35-21.68 5.57-5.37 12.14-8.05 19.72-8.05 7.58 0 14.02 2.4 19.31 7.19 5.29 4.79 7.94 11.38 7.94 19.75v8.59H660.5c.48 3.15 2.05 5.73 4.71 7.73s5.67 3 9.02 3c5.39 0 9.83-1.89 13.32-5.69l8.61 9.77zm-14.76-34.24c-2.12-1.86-4.7-2.79-7.74-2.79s-5.82.97-8.35 2.9c-2.53 1.93-4 4.55-4.41 7.84h24.18c-.33-3.44-1.56-6.09-3.68-7.95zm88.11 34.24c-6.22 6.16-13.51 9.23-21.87 9.23-8.37 0-15.28-2.7-20.75-8.1-5.46-5.4-8.2-12.65-8.2-21.74 0-9.09 2.78-16.32 8.35-21.68 5.57-5.37 12.14-8.05 19.72-8.05 7.58 0 14.02 2.4 19.31 7.19 5.29 4.79 7.94 11.38 7.94 19.75v8.59h-40.16c.48 3.15 2.05 5.73 4.71 7.73s5.67 3 9.02 3c5.39 0 9.83-1.89 13.32-5.69l8.61 9.77zm-14.75-34.24c-2.12-1.86-4.7-2.79-7.74-2.79s-5.82.97-8.35 2.9c-2.53 1.93-4 4.55-4.41 7.84h24.18c-.34-3.44-1.56-6.09-3.68-7.95zm69.36-.96c-4.58 0-7.99 1.7-10.25 5.1-2.25 3.4-3.38 7.89-3.38 13.47v25.01h-15.37v-57.75h15.37v7.62c1.98-2.36 4.46-4.36 7.43-6.01 2.97-1.65 5.99-2.5 9.07-2.58l.1 15.13h-2.97z" class="st1"/></g></svg>