<svg xmlns="http://www.w3.org/2000/svg" id="Слой_1" x="0" y="0" version="1.1" viewBox="0 0 1280 800" xml:space="preserve"><style>.st0{display:none}.st3{fill:#6aa84e}.st3,.st4{display:inline}.st5{fill:#75b05a}.st6,.st7{display:inline;fill:#70ab54}.st7{fill:#75b05a}.st10{fill:#938548}.st12{display:inline;fill:#5e9646}.st13{fill:#383530}.st14{fill:#c9c8c8}.st15{fill:#595651}.st16{fill:none;stroke:#595651;stroke-width:2.0773;stroke-miterlimit:10}.st18{fill:#a14730}.st19{fill:#706f6d}.st22{opacity:.19;fill:#201600;enable-background:new}.st23{fill:#e2946b}.st24{fill:#7e4628}.st25{fill:#e1a98b}.st26{fill:#5f351e}.st27{fill:#875d46}.st28{fill:#654635}.st31{fill:#4e9da3}.st32{fill:#43888c}.st35{fill:#d7684b}.st36,.st37{fill:none;stroke:#595651;stroke-width:2.2481;stroke-miterlimit:10}.st37{stroke:#312a20;stroke-linecap:round;stroke-linejoin:round}.st38{fill:#e2e2e2}.st40{fill:#363847}.st41{fill:#262833}.st42{fill:none;stroke:#434659;stroke-width:3.0646;stroke-linecap:round;stroke-linejoin:round;stroke-miterlimit:10;stroke-dasharray:7.6614}.st43{fill:#3b767a}.st44{fill:#2c595c}.st45{fill:#dbbc32}.st47{fill:#a48d26}.st49{fill:#ffe579}.st53{fill:#fff}.st55,.st56{fill:none;stroke:#595651;stroke-width:2.3372;stroke-miterlimit:10}.st56{stroke:#312a20;stroke-linecap:round;stroke-linejoin:round}</style><path id="Sky" fill="#c5e5e5" d="M1 1h1279v799.4H1z"/><path id="Hill" fill="#87c469" d="M1282.9 753.1c-.5-13.6.6-26.8 1.6-40.3.9-11.8 1.4-23.7.9-35.6a68.3 68.3 0 0 0-5.9-29.3l3.4-.2a117.8 117.8 0 0 1-.4-38.6l-1.9-.2c0-36.6 2.1-73.1 4-109.6a2171 2171 0 0 0 2.7-132.5c-.9-9.3-2.2-18.6-3.8-27.9-2.6-14.4-5.2-29.4-1.9-43.9.1-.3 1.7-.5 4.1-.6-2.1-61.1-5.1-122.2-5.1-183.4 0-.1 1.9-.3 5.4-.4-1.2-16.9-1.4-33.9-2.3-50.8-1-19.7-2-39.4-2.1-59.2l-27-1.6-28.9.4c-43.5.5-87.1.5-130.6.6 0 2.6-181.7 2-196 2-8.8 0-77.9.1-131.6-.4-38.2.3-76.4.3-114.5.4-46 0-92-.1-138.1-.6h-.5.5c5.3 0-58-1.2-57.9-1.4v-.1h-31c-45.9 0-91.9-.1-137.8-.6h-.8.8l-6.8-.1-6.9.1c-46.1.6-92.3.6-138.5.7C91 0 46-.1 1-.6v800.9h1282c1.7-15.7.5-31.4-.1-47.2z"/><g id="Bush4" class="st0"><path d="M447 40.3c-1 8.2-.1 16.6-.1 25.6-20.5-7.4-39.1-5.8-56.1 6.3-17.1 12.2-23.5 29.8-23.5 49.8-32.8 7-49.7 24.6-48.3 50.1h508.5c2.3-22.6-16.5-44.1-41.6-47.1-5.4-.7-7.8-2.3-9.7-7.4A66 66 0 0 0 728 73.2c-13-3-26.9-1.8-42.2-2.6A61.6 61.6 0 0 0 630.7 31c-2.4-.2-5.6-4.3-6.6-7.3a96.1 96.1 0 0 0-10.8-22.6H461a91.6 91.6 0 0 0-14 39.2z" class="st3"/><g class="st4"><circle cx="561.5" cy="34" r="29.2" class="st5"/><circle cx="535.4" cy="44.4" r="18.8" class="st5"/><circle cx="537.2" cy="22.9" r="13.9" class="st5"/></g><g class="st4"><circle cx="408.6" cy="85.2" r="13.9" class="st5"/><circle cx="422.6" cy="85.2" r="9.9" class="st5"/></g></g><g id="Grass" class="st0"><path d="M906.7 1C625.9 114 394.1 196.3 1 134.9l3.7 665.4H1280V1H906.7z" class="st6"/></g><g id="Shadow_grass2" class="st0"><path d="M279.1 763.3s173.6-15.6 376.3-12.1c272.5 4.6 528.2 55.3 624.6-109.5v156.9H267.6l11.5-35.3zM904.4 1S494.8 206.3 40.6 143.5c0 0 405.7 173 863.8-142.5z" class="st3"/></g><g id="Light_grass3" class="st0"><path d="M946.4 1S760.2 78.9 1280 70.7V1H946.4z" class="st7"/></g><path id="Light_grass" fill="#77b35b" d="M1 190.8s175 57.8 360.2 61.5S478.5 480.2 2.8 462.9L1 190.8z"/><g id="Bush3" class="st0"><path d="M1 157.3h172.7a47 47 0 0 0-14.9-35c-15.9-15.7-35.1-19-56.5-12.7C98 79.3 82 60.9 51.7 55.9c-2.3-.4-5.1-4.4-5.6-7.1A72.3 72.3 0 0 0 15.3 1H1v156.3z" class="st3"/><path d="M51.8 65.7c-2.3 0-4.5.2-6.7.7a30.3 30.3 0 0 0-13-14.6A40.8 40.8 0 0 0 1 4.8v98.7a30 30 0 0 0 16.2 4.7h.9a34.5 34.5 0 1 0 33.7-42.5z" class="st7"/></g><g id="Shadow_grass" class="st0"><path d="M1280 330.8c-27.2 114.1-239.6 157.4-438.1 149.5C144.1 452.4 2.8 543.7 2.8 543.7l2.7 254.9H1280V330.8z" class="st7"/></g><g id="Road"><path fill="#e0c757" d="M1279.5 648h.5V444.9c-81.8 48.5-216.5 73.9-352.1 77.2-185.2 4.6-611.2-14.7-923.7 44.5v221.8s173.3-107.8 918.9-73.1c134.8 6.3 256.2-8.4 356.9-49V649l-.5-1z"/><path d="M3.7 789c5.8-3.7 11.9-6.7 18-9.5 3.1-1.5 6.2-2.7 9.3-4.1l9.4-3.8a435 435 0 0 1 19.1-6.9c6.4-2.2 12.9-4.2 19.3-6.3a926.2 926.2 0 0 1 78.8-19.8l19.9-4 5-1 5-.9 10-1.7 10-1.7 10-1.6 20-3.2 20.1-2.8c6.7-.9 13.4-1.9 20.1-2.6 13.4-1.6 26.8-3.2 40.3-4.5 107.6-11.2 215.8-12.6 323.6-11.8 27 .1 53.9.7 80.9 1.1l20.2.5 20.3.6c13.5.4 27 .7 40.4 1.3 26.9 1.1 53.9 2.1 80.8 3.5l40.4 2a1349.6 1349.6 0 0 0 80.5 1.6 1082 1082 0 0 0 120.5-8c26.7-3.3 53.2-7.7 79.4-13.6a458.9 458.9 0 0 0 76.9-23.7l.7 1.6a473.3 473.3 0 0 1-76.7 25.7c-26.2 6.5-52.8 11.5-79.5 15.4a1033.3 1033.3 0 0 1-121.1 10.6 1094 1094 0 0 1-81.1 0l-40.4-1.3-20.2-.7-10.1-.3-10.1-.2-40.4-.9c-13.4-.4-26.9-.5-40.4-.7l-20.2-.3-20.2-.2c-26.9-.1-53.8-.3-80.7.1-26.9.1-53.8.9-80.7 1.4l-40.3 1.4-10.1.4-10.1.5-20.1 1a4784 4784 0 0 0-160.8 10.3 1955 1955 0 0 0-159.8 18.7l-19.8 3.4-19.8 3.7c-6.6 1.2-13.1 2.7-19.7 4l-19.6 4.4c-13 3.1-26 6.5-38.8 10.4l-9.6 3c-3.2 1.1-6.4 2.1-9.5 3.3-6.3 2.3-12.6 4.7-18.5 7.7l-.6-1.5zM1283.1 445.4a283.8 283.8 0 0 1-35.7 19 467.1 467.1 0 0 1-37.6 15c-25.5 8.9-51.6 16.1-77.9 22.1a977.2 977.2 0 0 1-119.8 19.8 1098 1098 0 0 1-101 6.2l-20.2.4c-27 .4-53.9.5-80.9.6-53.9.1-107.8.1-161.6.5-26.9.2-53.9.5-80.8 1s-53.8 1.2-80.7 1.9l-40.4 1.2-40.3 1.5-20.2.8-20.2.9c-13.4.5-26.9 1.3-40.3 1.9l-20.1 1-20.1 1.1-20.1 1.3-10.1.6-10.1.7-20.1 1.4-20.1 1.6c-13.4 1-26.8 2.3-40.2 3.4l-20.1 2-20.1 2-20.1 2.2-10 1.1-10 1.3-20 2.5-20 2.8-10 1.4-10 1.5-20 3-.2-1.1 19.8-4.1 9.9-2 9.9-1.9 19.9-3.7 20-3.3 10-1.6 10-1.5 20-3 20.1-2.7a2812.4 2812.4 0 0 1 181.3-17l40.4-2.3 20.2-1 20.2-.8c26.9-1.1 53.9-1.6 80.9-2.2l40.4-.5 40.4-.3c27-.1 53.9-.2 80.9 0 53.9.1 107.8.7 161.6 1.1 26.9.2 53.9.4 80.8.3a1353 1353 0 0 0 120.8-5.3 1092.4 1092.4 0 0 0 119.6-18.1 719.7 719.7 0 0 0 77.8-20.9c12.7-4.3 25.4-9 37.7-14.3a294.7 294.7 0 0 0 35.8-18.4l.6.9z" class="st10"/><path fill="#edd25c" d="M781.9 689.6c69.3 0 138.7 7.1 207.7 1s159.7-16.7 216.3-56.6c18.6-13.1 36.2-29.3 44.4-50.5 8.2-21.2 4.3-48.4-13.8-62-22.5-16.9-54.3-7.3-81.1 1.3-175.7 56.8-386.5 34.9-571 25.2s-434.1 7-544.7 41c5.7 44.7 5.3 116.7 1.3 161.6-.7 7.5 245.5-61 740.9-61z"/></g><g id="Bush1" class="st0"><path d="M1280 606.7a90.5 90.5 0 0 0-148.9 59.1c-1 8.2-.1 16.6-.1 25.6-20.5-7.4-39.1-5.8-56.1 6.3-17.1 12.2-23.5 29.8-23.5 49.8-32.8 7-49.7 24.6-48.3 50.1h277V606.7h-.1z" class="st12"/><path d="M1280 800.3V688.2a70.4 70.4 0 0 0-131.6 26.1c-.7 6.3-.1 12.8-.1 19.9-15.9-5.7-30.3-4.5-43.5 4.9s-18.2 23.1-18.3 38.6c-17.8 3.8-29.5 11.6-34.6 22.6H1280z" class="st6"/></g><g id="Log"><path d="M923.8 465.9V465.9z" class="st13"/><path d="M782.3 539.5c-4 5.7 7.9 10.6 18.4 13l-1.1 1.5s-3.1 3.5-.7 14.3c-14.4-3.7-19.4-6.8-20.8-12.1l-.3-9.5c0 .1-.9-3.2 4.5-7.2z" class="st14"/><path d="M836 572.6l-.3-.4-7.9-8.3a22 22 0 0 0-12.6-6.3c-21.3-3.9-33-8.6-34.6-13.9-.2-.7-.2-1.2-.1-1.8l.2-.4c.2-.5.6-.9 1-1.3l.7-.6.2.3-.2.2c-.5.5-1.6 1.7-1.1 3.5.8 2.8 6.4 8.2 34 13.3 5.5 1 9.8 3.2 13 6.5l8.9 9.3-1.2-.1z" class="st15"/><path d="M827.8 530.8c.1 1.1.9 2 1.9 2.1.9.1 1.6-.8 1.6-1.9-.1-1.1-.9-2-1.9-2.1-1 0-1.7.9-1.6 1.9zM816.4 534.1c.1 1.1.9 2 1.9 2.1s1.7-.8 1.6-1.9c-.1-1.1-.9-2-1.9-2.1-1 0-1.7.8-1.6 1.9z" class="st16"/><path fill="none" stroke="#312a20" stroke-linecap="round" stroke-linejoin="round" stroke-miterlimit="10" stroke-width="2.1" d="M823.2 526.5s-3.8 1-5.1 7.8c0 0-1.3-4.2-3.2-5.1"/><path d="M836.8 555.9h.9a71 71 0 0 0-19.1-12.6c-12.7-4.5-16.7-11.8-16.8-11.8l-.4.1c.1.3 4.1 7.9 17.1 12.5a67.5 67.5 0 0 1 18.3 11.8z" class="st18"/><path d="M847.4 565.6c-2.9 6.7 8.8 9.9 18.6 11.4l-.8 1.7s-2.5 4.1 1 14.7c-11.2-1.6-19.2-4.6-21-9.8l-1.4-9.5s-1-3.8 3.6-8.5z" class="st14"/><path d="M904.9 594.5l-.4-.4-8.8-7.8c-3.4-3-7.8-4.8-13.3-5.3-21.9-2.1-34.2-5.8-36.3-11-.3-.6-.3-1.3-.3-1.8l.1-.5c.2-.5.5-1 .9-1.4l.6-.7.2.3-.2.2c-.5.5-1.5 1.9-.8 3.7 1.1 2.8 7.3 7.8 35.6 10.5 5.7.5 10.2 2.3 13.7 5.5l9.8 8.7h-.8z" class="st15"/><path fill="#201600" d="M577.2 736.8c-144.5-88.1-329.8-206.2-329.8-206.2S891 680 992.9 728.4l-415.7 8.4z" opacity=".4"/><path fill="#a45b35" d="M435.5 641.5l-188-110.9c38.7-82.9 108.5-82.4 108.5-82.4l404.4 54.3L651 650.1l-68.7 77.3-146.8-85.9z"/><path d="M435.5 641.5l-188-110.9a152.9 152.9 0 0 1 42-55.9c137.7 76.4 352.2 92.7 354.8 91.9l17.7 64-79.8 96.7-146.7-85.8z" class="st22"/><path d="M722.1 507.9c211.2-31.6 270.8 220.5 270.8 220.5l-410.7-1.1c0 .1 43.4-205 139.9-219.4z" class="st23"/><path d="M607.1 648.3l-172.7-67.9s192.2 40.4 197.9 44.5l-9.9 24-15.3-.6z" class="st24"/><path d="M763.2 531.4c-69.7.4-114.7 40.9-162.3 196.2l-11.5-.2c18.9-64.6 51.2-208 147.7-218.6 189-20.7 245.8 219.4 245.8 219.4l-21.7-.3c-.1 0-58.2-197.3-198-196.5z" class="st25"/><path d="M252.3 520.8l61.7 49.9-66.5-40.1zM542.5 497.9c-2.3-2.5 53-26.9 64.7-51.7l18.2 33.7s-23.3 8.3-21.6 28.4c0-.1-33.6 19-61.3-10.4z" class="st24"/><path d="M607.2 446.2c-5.7 5.4 6.9 49.5 21.9 30.1 8.7-11.2-11.3-37.4-21.9-30.1z" class="st25"/><path d="M611.9 453.1c-3.3 3.2 4 28.6 12.7 17.4 5-6.4-6.5-21.6-12.7-17.4z" class="st23"/><path d="M609.3 467.9l5.8-1-4.1 4.7-2.2-.7z" class="st26"/><path d="M899.7 726.8c-.4 0-44.7-123.1-127.2-123.2-75.1-.1-96 123.9-96.4 123.9h-28.4c3.7-63.2 33.2-155 119.1-155 114.2 0 169.5 154.9 169.6 154.9l-36.7-.6z" class="st25"/><path d="M729.3 514.7c-66.5 6.5-104.7 85.6-139.9 212.8l-7.1-.1c16.7-69.5 51-220.4 160.1-224.1C937.2 496.6 993 728.5 993 728.5l-12.8-.2c0-.1-56.9-232.7-250.9-213.6z" class="st24"/><path d="M610.2 648.5l2.1-16.9 7.4-9.5 24.4 27.7zM582.2 727.4L437 641.6l-104.8-61.4c32.5 3 202.8 116.6 250 147.2zM331.6 484.1s74.8 37.4 224.3 56.2c-.1-.1-84.2-37.5-224.3-56.2zM871.6 549.7l-9.4 28.1 18.7-18.7zM696 615.1s56.1-74.9 140.2-9.4c0 .1-74.8-46.7-140.2 9.4zM650.3 727.4s18-73.6 54-86.6c0 0-30.5 22.9-30.1 86.7l-23.9-.1zM836.2 656.7s45.3 24.5 58.5 70.2c-.1 0 2-56.3-58.5-70.2z" class="st24"/><path d="M609.3 467.9s-23.4 14.6-30.1 25.5c0 0 23.1-20.6 31.8-21.8l-1.7-3.7z" class="st26"/><path d="M269.6 520.8s63.7 53.8 206.3 112.9c0 0-155.8-78.2-206.3-112.9zM270.6 493.4s45.5 37.1 163.8 65.5c0 0-135.1-42.4-158.6-71.5l-5.2 6z" class="st24"/><path d="M367.2 457.7s66.4 16.5 155 29.7c.1.1-41.5-17.8-155-29.7z" class="st22"/><path d="M732.7 504.4l-96.9-11 86.3 14.5z" class="st24"/><path d="M732.7 504.4l8.1 24.6-18.7-21.1z" class="st24"/></g><g id="Legs" class="st0"><g class="st4"><path d="M151.7 565.6l2.1-39.4 42.8-4.3 3.7 55.8-28.5 15.4z" class="st27"/><path d="M345.2-126.2c-7.1 13.9 5.7 25.3 14 10.8 8.4-14.5 6.7-52.6 6.7-52.6l-14.2 4.6s.6 23.3-6.5 37.2" class="st28"/><path fill="#d1b951" d="M135.5 615.8c9.3 4.7 48.1 5.6 52.3 10.4 2.7 3-.3 7.8-.7 11.7-2 19 107.8 19.6 159.7 13.1 27.3-3.5 31.8-7.7 30.4-13.6-1.1-4.6-9.4-6.2-14.4-8.3s-10.6-2.9-16.2-3.7c-14.5-2.1-62.3-33.2-65.4-33.4-29.8-2.3-47.2-2-77.2-2-76.2-.1-82.1 19-68.5 25.8z"/><path d="M233.3 506.8v0z" class="st13"/><path fill="none" d="M290.3 118.5l-111.9.1"/><path d="M318.9-262.2s26.5 11.9 37.8 41.5c7.8 20.4 2.4 45.6 17.4 40.5s27.2-39.4 1.7-79.9c-25.3-40.2-45.1-31.1-45.1-31.1l-11.8 29z" class="st27"/><path d="M291.5-437.9C248.8-491 165.6-608.7 134.3-601c-22.5 5.6 10.5 98 10.5 98 12.1 13.8 58.4 94.1 105.1 134.2 22.5 19.3 47.4 42.5 70.1 22.6 19.9-17.5-5.2-62.8-28.5-91.7z" class="st31"/><path d="M178.8-353.3l136.4 92.8a13 13 0 0 0 14.2.2 49.9 49.9 0 0 0 19-21.4c1.8-4.8.5-10.3-3.2-13.9L205.3-429.8s-63.5-17.5-26.5 76.5z" class="st31"/><path d="M189.9-334.3a3904 3904 0 0 1-65.8-151.1c9.2 33.2 25.9 101.2 51.3 144.1 8.4 14.2 17.1 29.7 28 38.7l86.3 114.2c3.2 4.1 8.4 6 13.4 4.8l4.1-1.2c-27.8-39.7-105.9-127.8-117.3-149.5z" class="st32"/><path fill="#7b6a1c" d="M297.5-613.3s-.1 8.5-.9 15.4-15.9-12.6-15.9-12.6l16.8-2.8z"/><path fill="#232121" d="M120.6-197.6s134.6 40.7 212-6.2c61.7-37.4-212-15.5-212-15.5v21.7z" opacity=".3"/><path d="M186.8-672c8.4 10.5 4.6 31.1-5.6 42 19.1 7.4 46.3 10.6 65.2 2.5-7.2-8.8-4.7-25.4-3.8-30.3 41.6-1.1 62.6 3.9 61.6-32.2-.5-17.5-1.8-33.7-4.1-51.1-2.1-16.1-4.4-37.4-12.3-51.8-12.8-23.4-57.4-23.9-78.2-14.9a77.7 77.7 0 0 0-44.4 59.2c-3.8 25.8 5.7 50.5 21.6 76.6z" class="st27"/><path d="M149 564.4s11.8 23 47 6.2l2 14.1-22.8 8.1c-1.5.5-20.1-.5-20.1-.5l-7.9-13.6 1.8-14.3z" class="st28"/><path d="M137.3 594.5s-.2 3.5 4.7 12c0 0 134.9 12 135.2-6.6l-1.6-7.3s-1.1-9.6-31.8-15a154.8 154.8 0 0 1-40.4-15c-.9-.6-2-.4-2.5.3-2.4 3.7-10.1 12.6-27.8 12.3-12.1-.2-18.3-5.7-21.3-10.9-1.8-3.2-7.3-3.3-9.1-.2-4.3 8-8.9 19.9-5.4 30.4z" class="st35"/><path d="M251.1 579.1c-1.3-.4-11.7-2.3-15.4-3.5-8.9-2.7-24.4-7.9-30.4-11.8l-.7-.3-2.6 5s37.9 11.6 43.5 12.1c5.4.5 5.3-.8 5.6-1.5z" class="st18"/><path d="M213.4 572.4c.1.9-.6 1.6-1.6 1.6s-1.9-.8-2-1.7.6-1.6 1.6-1.6c1 .1 1.9.8 2 1.7zM225.8 577.1c.1.9-.5 1.6-1.5 1.6s-1.8-.8-2-1.7c-.1-.9.6-1.6 1.5-1.6 1 .1 1.9.8 2 1.7zM237.9 580.5c.1.9-.5 1.6-1.4 1.6s-1.8-.7-1.9-1.6c-.1-.9.5-1.6 1.4-1.6s1.7.7 1.9 1.6z" class="st36"/><path d="M211.6 572.4s.7-5.8 3.1-5.2M227.2 572.7c-3.4.3-3.1 4.4-3.1 4.4s-1.7-5.5-8.4-8.5M229.7 573.8s4 1.1 6.5 6.7c0 0 .5-3.4 2.2-4" class="st37"/><path d="M221.2 598.1h-.9c.1-.1 8.9-7.8 17.2-10.1 11.3-3.1 13.6-8.8 13.7-8.8l.4.1c-.1.2-2.2 6.1-13.8 9.4a50.9 50.9 0 0 0-16.6 9.4z" class="st18"/><path d="M205 563.7c-.8 2.9-6.3 18.2-31.9 18.1-23-.1-30.5-11-32.1-14.2l1.7-3.3c1.7-3.1 7.2-3 9.1.2 3 5.3 9.2 10.8 21.3 10.9 17.8.3 25.4-8.7 27.8-12.3.5-.7 1.6-.9 2.5-.3l1.6.9z" class="st38"/><path d="M156.9 598.5h-.8c0-14.6-16.3-27.5-16.5-27.7l.3-.7c.1.1 17 13.4 17 28.4z" class="st18"/><path fill="none" stroke="#312a20" stroke-linecap="round" stroke-linejoin="round" stroke-miterlimit="10" stroke-width="1.9" d="M205.1 563.8s-14.5 13.9-5.7 15.8c8.5 2 5.7-15.8 5.7-15.8z"/><path d="M275.6 592.6l1.6 7.3c-.3 19-128.2 16.9-140.6 8.6-3.6-8 .7-14.1.7-14.1s24.8 11.5 107.4 3.6c0 0 32.7-3.4 25.6-11.7 5 3.5 5.3 6.3 5.3 6.3z" class="st38"/><path d="M270.2 586.4c4.6 4.6-4.7 8.1-13.8 9.7l1.3 1.3s3.6 2.9 3.6 11.7c12.1-3 15.8-5.5 15.8-9.6l-1.7-7.4c.1 0 .2-2.4-5.2-5.7z" class="st14"/><path d="M224.4 613l7.5-8.3c2.6-2.9 6.5-4.7 11.7-5.4 24.5-3.6 28.2-7.7 28.4-9.9.1-1.3-1.1-2.3-1.6-2.7l-.2-.1.1-.2.7.5a5.2 5.2 0 0 1 1.3 1.3c.2.4.3.9.2 1.4-.3 4.1-9.6 7.5-28.8 10.3-5.1.8-8.9 2.5-11.4 5.3l-6.6 7.4-.3.4h-1z" class="st15"/><path d="M218.1 594.5l3.1-39.3 46-3.3 3 55.6-31.1 15z" class="st27"/><path d="M224.2-126.7L204.7 549a5.7 5.7 0 0 1-3.7 5.2c-12.6 4.9-35.4 6.7-49.4-.5a5.7 5.7 0 0 1-3-4.5l-43.5-669.1 119.1-6.8z" class="st40"/><path d="M199.2-125.3l-94.1-1.4 43.4 675.9a5.7 5.7 0 0 0 3 4.5c1.9 1 11 4.8 24.6 4.8l23.1-683.8z" class="st41"/><path d="M199.2-36.1l-22.9 591.7" class="st42"/><path d="M180.4-111.2L214.9 573a7.6 7.6 0 0 0 4.1 7c10.7 5.3 37 8.3 48.7 3.4 2.4-1 4.1-3.2 4.5-5.7l54.4-743.4-146.2 54.5z" class="st40"/><path d="M180.4-116.1l33.5 669.5.8 19.2a7.6 7.6 0 0 0 4.1 7c1.6.8 14.3 5.6 24.9 5.6L259-126.7l-78.6 10.6z" class="st41"/><path d="M259.1-126.7l-15.3 711.9" class="st42"/><path d="M328.9-172.5v25.2S197.4-63.2 105-101.9l-3.6-23.2 227.5-47.4z" class="st43"/><path d="M311.9-154.3v16.7l17-9.7v-19.6z" class="st44"/><path d="M217.1-718.8s-12.3-4.4-11.4-19.2c1-16.6 13.8-15.5 13.8-15.5s-11.4-.4-12.3 15.6a20 20 0 0 0 9.9 19.1zM299.9-667.7c-15.1 14.2-62.3.1-62.3.1l3.9 9.9c17.3 1.6 51.4 2.4 58.4-10z" class="st28"/><path d="M308.2-603.2s-53.8-26.2-62.3-29.3c-54.2 15.9-59.7-4.6-62-3.7 0 0-48.9 20.4-72.5 67.9-36 72.6-23.9 445.1-8.5 452.9C181.8-75.6 331-155 331.1-165.8c.3-55.2 5-272-7.3-396.4-3.3-33.6-14.9-39.5-15.6-41z" class="st31"/><path d="M175.5-554.7S230-537.3 264.7-442c27 74 51.2 168.4 44 191.7-13.6 44.2-174.8 60.1-205 39.4-15.4-10.6-44.1-206.5-13.5-291 29.4-81 85.3-52.8 85.3-52.8z" class="st32"/><path d="M297-252.6s42.2-49.2 51.4-107a49 49 0 0 0-.1-15.3l-4.6-22.8c-3.4 23.8-2 65.3-64.7 115.6-1.5 1.3 18 29.5 18 29.5z" class="st45"/><path d="M126.6-548.5s-29.6-27.4 18.9-32.8c48.5-5.4 16.2 35.5 16.2 35.5s19.2-37.2-18.2-29.3-16.9 26.6-16.9 26.6z" class="st43"/><path d="M126.6-548.5s-30.8-33.8 17.7-39.2 16.2 35.5 16.2 35.5 19.2-37.2-18.2-29.3-15.7 33-15.7 33z" class="st45"/><path d="M156-209.2s9.3 27.5 8.7 34.4c-.5 6.9-22.4 23.2-38.3 19.1s-21.2-62.9-21.2-62.9l50.8 9.4z" class="st31"/><path fill="#836b0b" d="M156-172.1s5.7-1.7-31-80.5l-13.6.8 10.4 83.7s14.5 2.5 15.8 2.2c1.2-.2 18.4-6.2 18.4-6.2z"/><path d="M81.7-240.1s10.5 39.8 26.4 71.8c5.3 10.7 18.1 15.5 29.1 10.7a46 46 0 0 0 18.8-14.5s-17.5-1.4-41.6-77.7l-32.7 9.7z" class="st45"/><path d="M97.2-506.9s-24-5.3-5.9-25.2 17.4-21.7 30.2-15.7l-24.3 40.9z" class="st47"/><path fill="#ffdf57" d="M72.2-238.3C18.8-536.4 131-565.8 149-561.9c23.5-3.1 106.4 41.7 155.1 297.2a26.4 26.4 0 0 1-14.5 28.7c-17.9 8.5-50.7 20.8-104.6 30.6-94.9 17.3-110-17.1-112.8-32.9z"/><path d="M82.9-442.5s47.2.2 97.3-17.1c0 0 9.9 20.7 10.1 31.5 0 0-79.2 25.8-102.3 13.9l-5.1-28.3zM87.2-320.1s89.1-30.4 133.3-18.6c0 0 5.1 52.8 19.9 79.5 0 0-39.7 26.8-84.5 29.3s-53.8-8.5-53.8-8.5-18.5-36.5-14.9-81.7z" class="st49"/><path d="M88.3-341.3c1.8-1.4 58.5 7.5 124.5-17.5 0 0 10.3-1 14.5 22.2 0 0-70.7 31.8-148.6 18.4.1 0-2.8-13.2 9.6-23.1z" class="st45"/><path d="M343.7-397.6s-2.8 58.9-46.4 99.7v5.4s47.8-41.9 46.4-105.1zM349-363.5s-7 53.8-50.2 102.4l5.8-.4c-.1 0 40.9-53.2 44.4-102z" class="st47"/><path d="M106-240.1s-16.8-16.8-19.3-63.6c0 0-4.4 36.1 13.6 70 0 0 67 31.4 140-25.5 0-.1-83.7 44.9-134.3 19.1zM82.7-444.3s-3 25.4 6.1 33.4c0 0 36.3 6.9 102.1-14.4 0 0 1.1-19.1-10.6-34.3 0 0 6.4 25.3 3 28.9 0 0-46 20.6-91.8 14.7-.1.1-6.6-7.9-8.8-28.3z" class="st45"/><path d="M242.1-218.6a579.1 579.1 0 0 0 47.5-17.4 26.3 26.3 0 0 0 14.5-28.7C255.4-520.2 172.5-565 149-561.9c-9.9-2.2-48.5 5.8-72.1 63.4 0 0 13.9-30.6 47.7-36.7 45.8-8.4 69.8 27.5 94.1 90.6 24 62.3 48.2 153.9 52.7 181.3 4 24.6-16.3 40.6-29.3 44.7z" class="st45"/><path d="M181.2-631.1s7.9 18.6 66.8 4.6c0 0-58.8 19.5-66.8-4.6z" class="st43"/><path fill="#41465f" d="M184.2-667.5c-4.8-15-24.1-59.1-34.6-96.2a52.6 52.6 0 0 1 24.7-60.2C212.7-845.8 262-873.6 288-869c38.7 6.9 23.9 58.7-6.9 82.1-22.5 17.1-35.5 2.1-41.9 14.6-4.7 9 14.9 12 6.5 24.9-9.1 14-9.8-12.1-25.4-12.1s-24.4 24.5-12.9 37.6c7 8 11.8 12.4 19.1 19.7 5.6 5.6 6 14.6.9 20.6a58.4 58.4 0 0 1-35.8 18.5 6.5 6.5 0 0 1-7.4-4.4z"/><path fill="#676b7f" d="M288-869.1a59.9 59.9 0 0 0-26.2 2.8c.1 0 64.8-5.8 26 73.4h.1c26-25.2 35.9-69.8.1-76.2z"/><path d="M133.4-200.7s12.5 26.1 22.7 28.6l-1.9 2.4s-15.2-6.5-23.6-31.2l2.8.2zM106.2-172.3c-5.9-11.3-15.6-39.2-15.6-39.2l3.5 2c.2.1 15.7 51.9 32 53.6 0 0-7.3 0-13-5.9-5.7-5.7-6.9-10.5-6.9-10.5z" class="st47"/><g><circle cx="139.4" cy="-378.2" r="21.2" fill="#ff882a"/><path d="M122.6-381.5c-.5-.2-.8-.4-1.2-.8-.3-.4-.5-.8-.6-1.3s0-1 .1-1.4l.8-1.1c.4-.3.9-.5 1.4-.6s1-.1 1.5.1.8.4 1.2.8c.3.4.5.8.6 1.3s0 1-.1 1.4l-.8 1.1a3 3 0 0 1-1.4.6c-.5.1-1 0-1.5-.1zm2.2-1.7c.2-.3.3-.7.2-1.1-.1-.4-.2-.8-.5-1s-.6-.3-1-.2c-.4.1-.7.2-.9.5-.2.3-.3.7-.2 1.1l.5 1c.3.2.6.3 1 .2.4 0 .7-.2.9-.5zM132-387.5c.5.3.7.8.9 1.6l.5 2.9-1.5.2-.4-2.7c-.1-.4-.2-.7-.4-.9-.2-.2-.5-.2-.8-.2-.4.1-.7.2-.8.5-.2.3-.2.6-.2 1.1l.4 2.5-1.5.2-.8-5.1 1.4-.2.1.6.6-.6.9-.3c.6-.1 1.1 0 1.6.4zM139.6-386.3l-3.9.6c.1.3.3.5.6.7.3.1.6.2 1 .1l.7-.2.5-.5.9.7c-.4.6-1 1-2 1.2-.6.1-1.1.1-1.6-.1s-.9-.4-1.2-.8-.5-.8-.6-1.3 0-1 .1-1.4c.2-.4.4-.8.8-1.1.4-.3.8-.5 1.3-.6s1 0 1.4.1.8.4 1.1.8.5.8.6 1.3l.3.5zm-3.8-1c-.2.2-.3.5-.3.8l2.5-.4-.5-.7c-.3-.2-.6-.2-.9-.2l-.8.5zM126.3-373.4l-.5.3-.7.2c-.6.1-1.1 0-1.5-.2-.4-.3-.6-.7-.7-1.3l-.3-2.1-.8.1-.2-1.1.8-.1-.2-1.2 1.5-.2.2 1.2 1.3-.2.2 1.1-1.3.2.3 2.1.2.5.5.1.6-.3.6.9zM134.7-379.8l-1 5.4-1.4.2-1.7-3-.7 3.4-1.4.2-2.7-4.8 1.4-.2 1.8 3.3.7-3.7 1.3-.2 1.8 3.3.7-3.7 1.2-.2zM137.2-375.2c-.5-.2-.8-.4-1.2-.8-.3-.4-.5-.8-.6-1.3s0-1 .1-1.4l.8-1.1c.4-.3.9-.5 1.4-.6s1-.1 1.5.1.8.4 1.2.8c.3.4.5.8.6 1.3s0 1-.1 1.4l-.8 1.1a3 3 0 0 1-1.4.6c-.5.1-1 0-1.5-.1zm2.2-1.7c.2-.3.3-.7.2-1.1s-.2-.8-.5-1-.6-.3-1-.2c-.4.1-.7.2-.9.5s-.3.7-.2 1.1l.5 1c.3.2.6.3 1 .2.4 0 .7-.2.9-.5zM125.3-365.2c-.5-.2-.9-.4-1.2-.8-.3-.4-.5-.8-.6-1.3s0-1 .1-1.4a3.1 3.1 0 0 1 2.3-1.7c.5-.1 1-.1 1.5.1.4.2.8.4 1 .8l-1 .8c-.3-.4-.8-.6-1.3-.5-.4.1-.7.2-.9.5-.2.3-.3.7-.2 1.1.1.4.3.8.6 1 .3.2.6.3 1 .2.5-.1.8-.4 1-.9l1.3.4c-.1.4-.4.8-.7 1.1a3 3 0 0 1-1.4.6c-.5.2-1 .1-1.5 0zM134-371.1c.5.3.8.8.9 1.6l.5 2.9-1.4.2-.1-.6c-.2.5-.7.8-1.4 1a2 2 0 0 1-1.1 0l-.8-.4-.4-.8c-.1-.5 0-.9.4-1.2.3-.3.8-.6 1.6-.7l1.2-.2c-.1-.3-.2-.6-.4-.7s-.5-.2-.9-.1c-.3 0-.5.1-.8.3l-.6.5-.7-.9.9-.6 1.2-.4a2 2 0 0 1 1.9.1zm-.7 3.7c.2-.1.3-.3.3-.6l-.1-.5-1 .2c-.6.1-.9.3-.8.7 0 .2.1.3.3.4l.6.1c.3 0 .5-.1.7-.3zM138.9-372.3a3 3 0 0 1 1-.4l.2 1.4h-.3c-.4.1-.7.2-.9.5s-.3.7-.2 1.1l.4 2.4-1.5.2-.8-5.1 1.4-.2.1.7.6-.6zM147-370.7l-3.9.6c.1.3.3.5.6.7.3.1.6.2 1 .1l.7-.2.5-.5.9.7c-.4.6-1 1-2 1.2-.6.1-1.1.1-1.6-.1s-.9-.4-1.2-.8-.5-.8-.6-1.3 0-1 .1-1.4c.2-.4.4-.8.8-1.1.4-.3.8-.5 1.3-.6s1 0 1.4.1.8.4 1.1.8.5.8.6 1.3c.3.1.3.2.3.5zm-3.7-1.1c-.2.2-.3.5-.3.8l2.5-.4-.5-.7c-.3-.2-.6-.2-.9-.2l-.8.5zM153.9-371.9l-3.9.6c.1.3.3.5.6.7.3.1.6.2 1 .1l.7-.2.5-.5.9.7c-.4.6-1 1-2 1.2-.6.1-1.1.1-1.6-.1s-.9-.4-1.2-.8-.5-.8-.6-1.3 0-1 .1-1.4c.2-.4.4-.8.8-1.1.4-.3.8-.5 1.3-.6s1 0 1.4.1.8.4 1.1.8.5.8.6 1.3c.3.2.3.3.3.5zm-3.7-1c-.2.2-.3.5-.3.8l2.5-.4-.5-.7c-.3-.2-.6-.2-.9-.2-.4.1-.6.2-.8.5zM157.4-375.4a3 3 0 0 1 1-.4l.2 1.4h-.3c-.4.1-.7.2-.9.5s-.3.7-.2 1.1l.4 2.4-1.5.2-.8-5.1 1.4-.2.1.7.6-.6z" class="st53"/></g><path fill="#489196" d="M238.2-480.3s-18.7-95.8 57.9-129.2l-28.6-15.6-54.6 106.5 25.3 38.3z"/><path d="M225.8-471.1l-18.3-37.2s-7.2-77.6 59.1-117.4c0 0 8.2-.3 30 11.1 2.2 1.2 1.9 4.5-.6 5.1-18.9 4.7-58.8 22.2-70.2 138.4z" class="st45"/><path d="M210.2-519.6l-2.9-3.4s0-68.3 59.4-102.7l3.8.2s-57.6 34.8-60.3 105.9zM228.5-492.4s11.3-104.9 67.5-117.1c2.6-.6 3.1-4.2.7-5.4h-.1s-55 6-70.8 119l2.7 3.5z" class="st47"/><path d="M346.7-167.6s15.5 24.5 8.5 55.5c-4.8 21.3-23.2 39.3-7.9 43.4s44.4-17.8 45.6-65.6c1.2-47.4-20.4-50.9-20.4-50.9l-25.8 17.6z" class="st27"/><path d="M344.6-380.1c-6.2-67.8-10.4-211.9-40.7-222.8-21.9-7.8-45.5 87.4-45.5 87.4 2.5 18.2-3.4 110.7 13.3 169.9 8.1 28.6 16 61.6 45.9 57.6 26.2-3.4 30.3-55.1 27-92.1z" class="st31"/><path d="M280.5-321l62.2 152.8c2 4.7 6.6 7.9 11.7 8 6.9.2 19.2-1.2 27.7-7.3a13 13 0 0 0 5-13.4l-42.2-189.2c-.1 0-43.2-49.7-64.4 49.1z" class="st31"/><path d="M283.8-334.7c-4.6-20-21.9-139.1-24.7-162.9.3 34.4-1 104.4 12.6 152.5 4.5 15.9 8.9 33.1 17.1 44.6l54 132.6c2 4.7 6.6 7.9 11.7 8l4.2-.1c-16.5-45.6-69.4-150.8-74.9-174.7z" class="st32"/><path d="M259.2-504.1s14.8-107 48.9-99.1c.1 0-42.1-26.3-48.9 99.1z" class="st43"/><path d="M347.8-165.8s24.2 4.9 35.7-11.4a64 64 0 0 1-35.7 11.4z" class="st44"/><g><path d="M203.7 623s1.4 7.2 5.6 15.8c0 0 149.9 18.5 156.4-4.1l.3-9.4s1.8-12.6-40-20c-4.8-.8-9.4-2.1-14-3.6-10.5-3.6-28.4-10.2-34.8-15.2-.9-.7-2.4-.5-3.1.4a39.1 39.1 0 0 1-33.2 15.4c-12.8-.2-18.9-6.5-21.8-12.6-1.7-3.7-7.4-3.7-9.2-.1-4.6 9.2-9.3 22.2-6.2 33.4z" class="st35"/><path d="M366 625.4l-.3 9.4c-5.3 21.3-155.8 11.6-159.6 6.8-4.8-10.1-2.4-18.6-2.4-18.6 5 4.7 9.1 8.3 83.8 8.7 10.9.1 23.3-1.4 37.5-1.4 0 0 42.8-2.2 35.3-13.2 6.2 4.5 5.7 8.3 5.7 8.3z" class="st38"/><path d="M331.2 606.3l-5.2-1c-4.8-.8-9.4-2.1-14-3.6-10.5-3.6-28.4-10.2-34.8-15.2l-.8-.4-1 8s40.8 13.4 47.8 14.1c7 .8 8-1.9 8-1.9z" class="st18"/><path d="M360.3 617c4.5 6.6-9.1 10-20.7 11.7l1.3 1.6s3.7 4 1.2 14.4c13.2-1.8 22.2-5 23.7-10.1l.3-9.4c-.1.2.4-3.6-5.8-8.2z" class="st14"/><path d="M293.7 646.9l10.6-8.9c3.8-3.2 9-5.1 15.9-5.8 34-3.3 40.6-8.4 41.6-11.2.6-1.7-.8-3.1-1.5-3.6l-.2-.2.3-.3.9.7 1.3 1.4.2.5c.1.5.1 1.1-.1 1.8-1.8 5.2-16 9.2-42.3 11.7-6.7.6-11.8 2.5-15.5 5.6l-9.4 7.9-.5.5-1.3-.1z" class="st15"/><ellipse cx="285.6" cy="598.6" class="st55" rx="2.2" ry="2.1" transform="matrix(.9972 -.07444 .07444 .9972 -43.8 23)"/><ellipse cx="300.2" cy="604.5" class="st55" rx="2.2" ry="2.1" transform="matrix(.9972 -.07444 .07444 .9972 -44.2 24)"/><ellipse cx="315.1" cy="608.9" class="st55" rx="2.2" ry="2.1" transform="scale(.99997) rotate(-4.3 315 608.9)"/><path d="M285.6 598.6s1.9-7.3 4.8-6.7M305.1 598.9c-4.4.4-4.9 5.6-4.9 5.6s-1-7-8.9-10.7M308.1 600.3s4.9 1.4 7 8.5c0 0 1.4-4.3 3.8-5.1" class="st56"/><path d="M279 587.8c-1.4 3.7-10.2 22.5-38.7 22-23.7-.4-30.7-12.6-32.3-16.2l1.8-3.9c1.9-3.7 7.5-3.6 9.2.1 2.9 6.1 8.9 12.4 21.8 12.6a39.4 39.4 0 0 0 33.3-15.4c.7-1 2.1-1.2 3.1-.4l1.8 1.2z" class="st38"/><path d="M290.3 631.3h-1.2c.1-.1 11.9-10.6 22.7-13.7 15.4-4.4 18.9-11.3 18.9-11.4l.8.3c-.1.3-3.6 7.3-19.4 11.8a66.6 66.6 0 0 0-21.8 13zM224.7 629.5h-.8c-.4-15.5-17.5-31.5-17.7-31.6l.3-.8c.3.1 17.8 16.5 18.2 32.4z" class="st18"/><path d="M281.3 589.9s-29.8 8.3-21 16.4c8.8 8 21-16.4 21-16.4z" class="st56"/></g></g></g><g id="Bush2" class="st0"><path d="M414.1 794.8c-40.8-40.4-90.4-49-145.3-32.8-11.2-78.1-52.2-125.5-130.4-138.2-5.8-.9-13-11.3-14.4-18.3-14.6-72.6-59.7-124-123-143.6v338.4h418.4c-1.7-1.8-3.4-3.7-5.3-5.5z" class="st12"/><path d="M95.6 646.1a81 81 0 0 0-9.9 3A69.7 69.7 0 0 0 71 637.9 131.8 131.8 0 0 0 1 488.8v271.5a71 71 0 0 0 22 8.1 99.5 99.5 0 0 0 14.9 31.9h162.5A99.5 99.5 0 0 0 95.6 646.1z" class="st6"/></g><g id="Button" class="st0"><path fill="#ff882a" d="M1252.1 732.3l-31.2-28.8c-2.2-2-5.9-.6-5.9 2.2v9.8c0 1.7-1.5 3.1-3.5 3.1h-36.6c-1.9 0-3.5 1.4-3.5 3.1v25.4c0 1.7 1.5 3.1 3.5 3.1h36.6c1.9 0 3.5 1.4 3.5 3.1v9.8c0 2.8 3.8 4.2 5.9 2.2l31.2-28.8c1.3-1.1 1.3-3 0-4.2z"/><g class="st4"><path d="M1230.8 705.8c5.6 4 11.1 8.2 16.6 12.4l8.1 6.4 8.1 6.4c1.1.9 1.3 2.4.4 3.5l-.1.1-.1.1-7.3 8.1-7.5 7.9a188.2 188.2 0 0 1-16.1 14.8 64 64 0 0 1-12.1 7.8c-1 .4-2.1.8-3.5.9-.8.1-1.4 0-2.1-.1l-2.1-.6a7.3 7.3 0 0 1-3.2-2.8c-1.5-2.2-1.9-4.4-2.1-6.4s-.2-4-.1-5.9c.3-3.8.9-7.5 1.8-11.1l2.5 2.9c-5.4.1-10.8.3-16.3.7-5.5.3-10.9.9-16.5.8-2.8-.1-5.6-.3-8.4-1l-1-.3-.5-.2-.4-.2-.3-.2c-.8-.6-1.1-1.3-1.5-2-.7-1.3-1.1-2.7-1.5-4a65.8 65.8 0 0 1-2.3-16.6c0-2.8.1-5.7.8-8.6.3-1.4.8-2.9 1.5-4.3l1.3-2.1c.5-.7 1.2-1.3 1.9-1.8a18 18 0 0 1 8.9-3.1c2.9-.3 5.8-.3 8.6-.2 11.2.8 21.9 2.9 32.6 3.6l-1.8 3.4a47 47 0 0 1-3.2-5.8c-.9-2-1.8-4.1-2.1-6.6 0-.6 0-1.3.2-2.1.2-.7.7-1.6 1.4-2 .7-.5 1.4-.6 2.1-.6l1.8.2c2.3.5 4.2 1.5 6.1 2.5.1.1.2.3.1.4-.1.1-.2.2-.4.1l-3.1-.8c-1-.2-2-.4-3-.4-.9 0-1.9.1-2.2.5-.2.2-.2.3-.2.6l.1 1.1c.4 1.7 1.4 3.5 2.4 5.2 1.1 1.7 2.2 3.4 3.5 5 .7.9.6 2.3-.3 3-.4.3-.8.5-1.3.5h-.2a224.4 224.4 0 0 1-16.6-.9c-5.5-.6-10.9-1.2-16.2-1.5-2.7-.2-5.3-.3-7.8-.2-2.5.2-4.9.6-6.7 1.7-1.7 1-2.9 3.1-3.7 5.5-.8 2.4-1.3 5-1.5 7.7-.3 9.7-.8 25.5 13 22.2a74 74 0 0 0 8.1-.8l8.1-1.3c5.4-.9 10.9-1.7 16.4-2.1 1.3-.1 2.4.8 2.5 2.1V748.2c-.5 3.4-.9 6.9-1 10.3 0 1.7.1 3.4.3 4.9a8 8 0 0 0 1.3 3.7c.3.4.6.6.8.7l.5.1h.6c.4 0 1-.3 1.7-.5l2.1-1.1c2.8-1.7 5.6-3.8 8.3-6 5.4-4.4 10.7-9.3 15.9-14.2 5.2-4.9 10.3-9.9 15.4-15l.2 3.7-7.6-7-7.5-7.1c-5-4.8-9.9-9.6-14.7-14.5-.1-.1-.1-.3.1-.4-.3 0-.1 0 0 0z" class="st53"/></g></g></svg>