<svg xmlns="http://www.w3.org/2000/svg" id="B8" viewBox="0 0 241 135.43"><defs/><defs><clipPath id="clip-path"><path d="M-65 380.49h272.33v153.19H-65z" class="cls-1"/></clipPath><clipPath id="clip-path-2"><path d="M.24.01H241v135.43H.24z" class="cls-1"/></clipPath><style>.cls-1,.cls-25{fill:none}.cls-3{fill:#fff}.cls-4{fill:#bdefef}.cls-5{fill:#e2efef}.cls-6{fill:#ffdf57}.cls-7{fill:#e9ca25}.cls-8{fill:#f9e698}.cls-9{fill:#a099e9}.cls-12{fill:#4e9da3}.cls-15{fill:#84cb66}.cls-18{fill:#ff882a}.cls-19{fill:#f2f2f2}.cls-25{stroke:#736357;stroke-miterlimit:10;stroke-width:.32px}.cls-26{fill:#b3b3b3}.cls-27{fill:#8c6239}</style></defs><g clip-path="url(#clip-path)"><path d="M-160.48-84.01H1413.3v885.25H-160.48z" class="cls-3"/><path d="M-79.56 349.54c93.75 0 142.21-206.23 287.84-225.14 110.93-14.39 155 48.15 208.41 48.15 75.24 0 171.37-76.46 298.89-9.68 81.4 42.63 158.31 90.33 217 96.34s191-26 259.05.61c188.24 73.66 146 324.27 146 324.27h-1426z" class="cls-4"/><path d="M-7.43 176.42c-.1-7.1 4.89-10.27 14.16-9 .39-4.9 2.19-9.1 6.63-11.68a10 10 0 014.41-1.66c2.64-.05 3.53-1.18 4.26-3.62a23.24 23.24 0 0124.51-16.2 23.5 23.5 0 0121 20.91c.16 1.65.59 2.41 2.2 3A19.55 19.55 0 0181 168.48c8.84-1.11 12.85 1.24 13.25 7.94zM85.69 73.68l401.69 10.4-530.75 19.01L85.69 73.68z" class="cls-5"/><path d="M249.89 125.67c-2.75 2.3-8.72 3.52-11 .77s-.07-8.42 2.68-10.73a6.5 6.5 0 018.35 10z" class="cls-6"/><path d="M239.2 126.16l-1.76.25 1.21 1.44.55-1.69zM249.89 125.67a6.49 6.49 0 001.35-8.39s3.12 9.43-10.37 10.44c2.8.87 6.88-.26 9.02-2.05z" class="cls-7"/><path d="M243 117.2c-1.73 1.25-2.68 2.9-3.14 2.27s.59-2.15 2.32-3.4 3.5-1.77 4-1.14-1.47 1.01-3.18 2.27z" class="cls-8"/><path d="M207.32 123.28l-1.15.03.67 1.02.48-1.05z" class="cls-7"/><path d="M214.21 123.74c-1.93 1.28-5.85 1.63-7.13-.3s.56-5.4 2.49-6.68a4.19 4.19 0 014.64 7z" class="cls-6"/><path d="M214.21 123.74a4.18 4.18 0 001.47-5.27s1.32 6.27-7.4 5.93a7 7 0 005.93-.66z" class="cls-7"/><path d="M211.3 117.36c-1 .19-1.76.79-1.84.35s.67-1 1.69-1.15 1.91 0 2 .46-.83.15-1.85.34z" class="cls-8"/><path d="M198.18 109.61l-1.88.27 1.29 1.54.59-1.81z" class="cls-9"/><path fill="#a7a6f6" d="M209.59 109.09c-2.93 2.46-9.31 3.76-11.77.83s-.08-9 2.86-11.45a6.93 6.93 0 018.91 10.62z"/><path d="M209.59 109.09a6.92 6.92 0 001.44-9s3.33 10.06-11.06 11.14c3.03.98 7.34-.23 9.62-2.14z" class="cls-9"/><path fill="#bebefc" d="M202.21 100.06c-1.84 1.34-2.86 3.09-3.34 2.42s.62-2.29 2.47-3.63 3.73-1.88 4.21-1.22-1.49 1.09-3.34 2.43z"/><path d="M223.69 128.63l-1.19.4 1.02.85.17-1.25z" class="cls-12"/><path fill="#75aeb9" d="M231.08 126.94c-1.63 1.95-5.63 3.55-7.59 1.93s-1.12-5.86.51-7.81a4.6 4.6 0 117.08 5.88z"/><path d="M231.08 126.94a4.61 4.61 0 00-.12-6s3.37 6.18-5.91 8.59a7.74 7.74 0 006.03-2.59z" class="cls-12"/><path fill="#91bec7" d="M226.33 121.16c-1.14.52-1.83 1.44-2.06 1s.51-1.32 1.64-1.85 2.24-.55 2.47-.05-.92.37-2.05.9z"/><path d="M231.4 109.42l-1.16.23.85.91.31-1.14z" class="cls-15"/><path fill="#96cd7c" d="M238.46 108.7c-1.73 1.63-5.65 2.66-7.28.92s-.36-5.57 1.38-7.21a4.31 4.31 0 015.9 6.29z"/><path d="M238.46 108.7a4.3 4.3 0 00.59-5.61s2.42 6.14-6.49 7.31a7.24 7.24 0 005.9-1.7z" class="cls-15"/><path fill="#abd796" d="M234.16 103.16c-1.11.63-1.75 1.57-2 1.14s.44-1.31 1.55-1.93 2.2-.78 2.45-.35-.9.51-2 1.14z"/><path d="M25.44 162.16c0 15.12-22.37 38.75-30.52 38.75s-30.52-23.63-30.52-38.75 13.67-27.37 30.52-27.37 30.52 12.26 30.52 27.37z" class="cls-18"/><path d="M22.1 162.16c0 13.43-19.17 38.08-26.43 38.08s-27.92-23-27.92-38.08c0-16.6 12.16-27.37 27.17-27.37s27.18 11.07 27.18 27.37z" class="cls-19"/><path d="M15 162.16c0 13.43-14.72 35.11-20.08 35.11s-20.07-22.75-20.07-35.11c0-16.6 9-27.37 20.07-27.37S15 145.86 15 162.16z" class="cls-18"/><path d="M4.83 161c0 12.83-7.26 33.57-9.91 33.57S-15 172.79-15 161c0-15.88 4.44-26.18 9.91-26.18S4.83 145.38 4.83 161z" class="cls-19"/></g><g clip-path="url(#clip-path-2)"><path d="M-41.56-197.01h1573.78v885.25H-41.56z" class="cls-3"/><path d="M39.36 236.54c93.75 0 142.21-206.23 287.84-225.14C438.13-3 482.22 59.55 535.61 59.55c75.25 0 171.37-76.46 298.89-9.68 81.41 42.63 158.31 90.33 217 96.34s191-26 259.06.61c188.23 73.66 146 324.27 146 324.27H30.55z" class="cls-4"/><path d="M111.49 63.42c-.09-7.1 4.9-10.27 14.17-9 .38-4.9 2.18-9.1 6.62-11.68a10 10 0 014.41-1.66c2.64 0 3.53-1.18 4.26-3.62a23.24 23.24 0 0124.51-16.2 23.48 23.48 0 0121 20.91c.16 1.65.6 2.41 2.2 3a19.52 19.52 0 0111.26 10.35c8.85-1.11 12.86 1.24 13.25 7.94z" class="cls-5"/><path fill="#23b347" d="M1457.48 329.42c-114.18 0-201.07 9.53-250.85-9.65-120.5-46.45-109.7-187-335.55-187-112.51 0-152 34.57-242.8 34.57-50.5 0-110.49-99.81-217.49-99.81C212.71 67.53 218 221.83 55 235.85a26.74 26.74 0 00-24.47 26.64c0 49.47-2.63 98.57-5 143.59-4.41 82.42-6.4 149.9 21.67 172 38.36 17.23 180.07-25.94 305.87.41 182.26 38.17 240.53 16.65 427.59 6.41 112.27-6.14 275.81-9.28 330.23-8.72 161.53 1.68 308.37 26.62 335.05 1.9 25.85-23.94 24.7-148.93 11.54-248.66z"/><path fill="#25bf4c" d="M1412.33 335.59c-53.07 2.89-223.76 46.64-280.84-2.25-36.73-31.46-59.65-70.93-81.94-92.39-66.94-64.44-290.31-130.25-408.69-15.7-30.21 29.22-50.15 61.79-30.5 98.94a51 51 0 009.75 12.71c27.72-.85 84.7-9.56 97.16-35.55l54 7.78c-18.81 25.64-61.75 45.55-99.17 55.94 42.79 15.79 90.43 26.63 90.43 55.35 0 39.54-331 46.42-339.21-29.45-4.77-44.27 88.32-106.29 101.92-122.89 43.56-53.17 51.36-94.81 3.61-144.25S406.37 58 340.71 78.38C195.61 123.32 197.48 225.25 248 296.86c7 9.94 9.86 23.72 4.55 34.67-8.37 17.26-31.89 18.89-51.05 18.07-42.37-1.79-130.24-6-172.6-7.78l-6.34 119.79c57.83-5.78 272.86-16.25 327.55 30.53 48.35 41.36 162.32 62.75 258 62.34 150.53 3.25 274.48-90 267.05-163.51-14-138.42-255.07-75.88-155.76-146.37 65-46.13 189.36-19.31 245.27 14 11.75 7 23.24 15.1 31 26.32s11.43 26.12 6.41 38.84c-5.57 14.12-20 22.45-33.9 28.56a252.68 252.68 0 01-43.35 14.17c-20.36 4.79-22.37 33.12-2.79 40.48l.45.17c15.25 5.57 32.06 5 48.14 2.76s32-6 48.24-6.52c36.63-1.22 73.37 9.5 106.1 26 120.38 60.69 229.32-20.13 287.43-70.89z"/><path fill="#876f2d" d="M751.42 326.32l7.61 1c4.2.54 8.48 1.08 12.78 1.69 30.17 4.24 61.49 11.23 77.85 37.21 9.86 15.65 11.18 34.77 3.82 55.28-13 36.29-50.54 69.39-95.58 84.32a539.33 539.33 0 01-167.58 26.81c-47 0-90.75-6.33-129.93-18.81-50.39-16.06-107.45-53-116.49-108.73-4.66-28.72 11.41-60.33 46.47-91.41 11.8-10.46 24.62-20 37-29.21 14.52-10.8 29.54-22 42.78-34.56 32-30.46 45.3-69.27 33.81-98.87-11.34-29.21-45.62-45.85-96.55-46.86q-3-.06-5.95-.06c-76.35 0-106.66 29.14-118.64 53.59-16.35 33.34-5.41 72.29 11.67 94.29 20.47 26.42 31.34 51 32.31 73 .85 19.13-5.75 37-19.62 53.1-24.57 28.51-73.66 32.16-113.69 32.16-70.11 0-158.92-3.83-159.4-3.87l-8.58-.29 2.3-54.27 7.28.84c.43.08 85.11 7.84 162.23 7.84 59.54 0 77.12-13.87 81.39-25.5 6.3-17.16-7.57-40.34-22.26-64.87C239 241 221 210.91 231.36 183.54A154.55 154.55 0 01300 103.16c28.08-16.07 61.56-24.57 96.8-24.57 60.21 0 112.42 25 129.91 62.22 21.85 46.46 17.51 65.89-7.65 104.42-11.73 18-32.8 35.5-55.11 54.06-34.15 28.42-69.46 57.8-73.39 90.55-2.12 17.61 8.85 32.89 32.6 45.42 23.56 12.43 54 18.93 70 21.7C541 465.23 582.5 469.24 620 469.24c45.14 0 84.81-5.66 121.28-17.32 54.09-17.29 80-38.72 73.69-61.69-8.6-31.54-67-34-68.82-34.27z"/><path fill="#d4af4e" d="M748.09 352.22c26.55 3 64 11.13 70.57 37.06 9.33 36.58-50.38 58-76.26 66.31-79.84 25.52-167.28 19.43-249.88 5.17-43.45-7.5-111.06-27.61-105.8-71.38 6.74-56.11 99.78-101.35 129.1-146.25 24.71-37.84 28.36-56.08 7.39-100.68-37.62-80-236.94-93.13-288.25 42.46-18.42 48.68 62 111.52 47.37 151.41-10.07 27.43-67.29 28-85 28-78.45 0-169.71-8.89-169.71-8.89l-1.89 45.62s97 5.31 167.77 5.31c37.06 0 86.57-2.76 110.77-30.83s29.94-66-12.82-121.17c-39.32-50.77-33.12-157 116.06-154.07 125.32 2.48 125.32 95.32 65.32 152.37-24.73 23.52-54.36 41.23-79.89 63.86s-50.69 54.23-45.22 87.91c9.14 56.34 69.05 91.4 113.85 105.68 91.57 29.18 203.9 22.24 295.13-8 71.75-23.78 116.59-91.21 89.71-133.89-16-25.37-55.8-34.28-86.4-38.43z"/><path d="M100.16 79.62l7.38 21.79M107.75 88.87l2.78 12.39M127.44 79.62l-7.38 21.79M119.85 88.87l-2.78 12.39" class="cls-25"/><path d="M144.37 49.16c0 15.12-22.38 38.75-30.53 38.75S83.32 64.28 83.32 49.16 97 21.79 113.84 21.79s30.53 12.26 30.53 27.37z" class="cls-18"/><path d="M118.46 111.67h-9L107 101.61h13.62l-2.16 10.06z" class="cls-26"/><rect width="14.79" height="2" x="106.41" y="87.13" class="cls-27" rx="1" ry="1"/><rect width="15.42" height="2" x="106.1" y="99.61" class="cls-27" rx="1" ry="1"/><path d="M141 49.16c0 13.43-19.17 38.08-26.42 38.08s-27.93-23-27.93-38.08c0-16.6 12.17-27.37 27.17-27.37S141 32.86 141 49.16z" class="cls-19"/><path d="M133.92 49.16c0 13.43-14.72 35.11-20.08 35.11S93.77 61.52 93.77 49.16c0-16.6 9-27.37 20.07-27.37s20.08 11.07 20.08 27.37z" class="cls-18"/><path d="M123.75 48c0 12.83-7.26 33.57-9.91 33.57s-9.9-21.75-9.9-33.57c0-15.88 4.43-26.18 9.9-26.18s9.91 10.56 9.91 26.18z" class="cls-19"/><path d="M120.79 87.25h-13.93l-7.07-8.41h28.04l-7.04 8.41z" class="cls-26"/><rect width="29.4" height="1.57" x="99.11" y="78.84" class="cls-27" rx=".78" ry=".78"/></g></svg>