<svg xmlns="http://www.w3.org/2000/svg" id="B8" viewBox="0 0 235.17 132.29"><defs/><defs><clipPath id="clip-path"><path d="M0-200.44h272.33v153.19H0z" class="cls-1"/></clipPath><clipPath id="clip-path-2"><path d="M1403.56-138.51c-114.18 0-201.07 9.53-250.84-9.65-120.5-46.45-109.71-187-335.56-187-112.51 0-151.95 34.57-242.8 34.57-50.5 0-110.49-99.81-217.49-99.81-198.08 0-192.78 154.3-355.77 168.33a26.74 26.74 0 00-24.47 26.63c0 49.69-3.53 97.17-5 143.59-2.67 82.23-6.33 150 21.67 172 38.36 17.23 180.07-25.93 305.87.41 182.23 38.21 240.49 16.69 427.55 6.44 112.27-6.15 275.81-9.29 330.23-8.73 161.53 1.68 308.37 26.62 335 1.9 25.92-23.96 24.77-148.95 11.61-248.68z" class="cls-1"/></clipPath><clipPath id="clip-path-3"><path d="M0 0h235.17v132.29H0z" class="cls-1"/></clipPath><clipPath id="clip-path-4"><path d="M1381.93 213c-114.19 0-201.08 9.54-250.85-9.65-120.5-46.44-109.7-187-335.56-187C683 16.39 643.57 51 552.72 51c-50.49 0-110.49-99.81-217.49-99.81-198.08 0-192.78 154.29-355.77 168.32A26.75 26.75 0 00-45 146.1c0 49.69-3.52 97.17-5 143.6-2.67 82.22-6.33 150 21.67 172 38.33 17.3 180.02-25.9 305.82.44 182.27 38.17 240.54 16.65 427.59 6.42 112.28-6.14 275.81-9.29 330.23-8.72 161.54 1.67 308.38 26.62 335.06 1.89 25.87-23.97 24.72-148.97 11.56-248.73z" class="cls-1"/></clipPath><clipPath id="clip-path-5"><path d="M65.24-580.92H306v135.43H65.24z" class="cls-1"/></clipPath><clipPath id="clip-path-6"><path d="M1522.49-251.51c-114.19 0-201.08 9.53-250.85-9.65-120.5-46.45-109.7-187-335.56-187-112.51 0-152 34.57-242.8 34.57-50.49 0-110.49-99.81-217.49-99.81C277.71-513.4 283-359.1 120-345.07a26.75 26.75 0 00-24.47 26.63c0 49.69-3.53 97.17-5 143.59-2.67 82.23-6.33 150 21.68 172 38.36 17.23 180.06-25.93 305.86.41C600.32 35.77 658.59 14.25 845.64 4c112.28-6.15 275.81-9.29 330.23-8.73C1337.4-3 1484.24 21.91 1510.92-2.81c25.88-23.98 24.72-148.97 11.57-248.7z" class="cls-1"/></clipPath><style>.cls-1{fill:none}.cls-3{fill:#fff}.cls-4{fill:#bdefef}.cls-5{fill:#23b347}.cls-6{fill:#25bf4c}.cls-7{fill:#876f2d}.cls-8{fill:#d4af4e}.cls-10{fill:#1fa341}.cls-11{fill:#1b8f39}.cls-13{fill:#f7ba99}.cls-14{fill:#302f30}.cls-15{fill:#875d46}.cls-16{fill:#66a32e}.cls-17{fill:#4c3528}.cls-18{fill:#6b2379}.cls-19{fill:#4d7a23}.cls-24{fill:#595959}.cls-25{fill:#313547}.cls-28{fill:#bfbfbf}.cls-30{fill:#cf9c80}</style></defs><g clip-path="url(#clip-path)"><path d="M-95.48-664.94H1478.3v885.25H-95.48z" class="cls-3"/><path d="M-14.56-231.39c93.75 0 142.21-206.23 287.84-225.13 110.93-14.4 155 48.14 208.41 48.14 75.25 0 171.37-76.46 298.89-9.68 81.41 42.63 158.32 90.33 217 96.34s191-26 259.06.61c188.27 73.66 145.98 324.28 145.98 324.28h-1426z" class="cls-4"/><path d="M1403.56-138.51c-114.18 0-201.07 9.53-250.84-9.65-120.5-46.45-109.71-187-335.56-187-112.51 0-151.95 34.57-242.8 34.57-50.5 0-110.49-99.81-217.49-99.81-198.08 0-192.78 154.3-355.77 168.33a26.74 26.74 0 00-24.47 26.63c0 49.48-2.63 98.57-5 143.59-4.4 82.42-6.39 149.91 21.67 172 38.36 17.23 180.07-25.93 305.87.41 182.23 38.21 240.49 16.69 427.55 6.44 112.27-6.15 275.81-9.29 330.23-8.73 161.53 1.68 308.37 26.62 335 1.9 25.92-23.96 24.77-148.95 11.61-248.68z" class="cls-5"/><path d="M1358.41-132.34c-53.07 2.89-223.76 46.64-280.84-2.24-36.73-31.47-59.65-70.93-81.94-92.39-66.94-64.45-290.31-130.26-408.69-15.71-30.21 29.22-50.15 61.79-30.5 98.94A50.64 50.64 0 00566.2-131c27.71-.85 84.69-9.55 97.15-35.55l54 7.78c-18.82 25.65-61.76 45.55-99.18 55.94 42.8 15.79 90.43 26.63 90.43 55.35C708.56-8 377.53-1.09 369.35-77c-4.77-44.27 88.32-106.28 101.92-122.88 43.56-53.18 51.37-94.82 3.62-144.26s-122.43-65.75-188.09-45.41c-145.11 44.94-143.24 146.87-92.69 218.49 7 9.94 9.86 23.71 4.55 34.66-8.37 17.26-31.89 18.89-51 18.08-42.36-1.8-130.24-6-172.6-7.79l-6.42 119.8c57.84-5.78 272.86-16.26 327.55 30.52C344.54 65.57 458.51 87 554.25 86.55c150.52 3.26 274.47-90 267-163.51-14-138.41-255.07-75.87-155.76-146.37 65-46.13 189.36-19.31 245.27 14 11.75 7 23.24 15.1 31.05 26.32s11.43 26.13 6.41 38.85c-5.56 14.11-20 22.44-33.9 28.55A250.67 250.67 0 01871-101.45c-20.36 4.79-22.37 33.12-2.79 40.48l.45.17c15.25 5.57 32.06 5 48.14 2.76s32-6 48.24-6.52c36.63-1.22 73.37 9.51 106.1 26 120.38 60.7 229.32-20.13 287.43-70.88z" class="cls-6"/><path d="M697.51-141.61c2.51.34 5 .66 7.6 1 4.21.54 8.48 1.09 12.78 1.69 30.17 4.24 61.49 11.23 77.85 37.21 9.86 15.65 11.18 34.77 3.82 55.28C786.54-10.14 749 23 704 37.88A539.34 539.34 0 01536.4 64.7c-47 0-90.75-6.33-129.93-18.82C356.08 29.82 299-7.17 290-62.85c-4.66-28.72 11.41-60.33 46.47-91.41 11.81-10.46 24.62-20 37-29.21 14.52-10.8 29.54-22 42.78-34.56 32-30.45 45.3-69.26 33.81-98.87-11.33-29.21-45.62-45.85-96.54-46.85-2 0-4-.06-6-.06-76.35 0-106.66 29.13-118.64 53.58-16.36 33.35-5.42 72.28 11.66 94.34 20.47 26.42 31.34 51 32.32 72.94.85 19.13-5.76 37-19.63 53.1-24.54 28.51-73.63 32.16-113.65 32.16-70.12 0-158.93-3.82-159.41-3.86l-8.58-.3 2.3-54.26 7.28.83c.43.08 85.11 7.85 162.23 7.85 59.54 0 77.12-13.87 81.39-25.51 6.3-17.16-7.57-40.34-22.26-64.87-17.43-29.11-35.45-59.21-25.09-86.58a154.67 154.67 0 0168.63-80.38c28.09-16.07 61.56-24.56 96.8-24.56 60.21 0 112.42 25 129.91 62.21 21.85 46.47 17.51 65.9-7.65 104.43-11.73 18-32.8 35.49-55.11 54.06-34.15 28.41-69.46 57.79-73.39 90.54-2.12 17.61 8.85 32.89 32.6 45.42 23.56 12.44 54 18.94 70 21.71C487.11-2.7 528.58 1.32 566 1.32c45.14 0 84.81-5.67 121.28-17.33 54.09-17.28 80-38.72 73.69-61.69-8.6-31.53-67-34-68.82-34.26z" class="cls-7"/><path d="M694.17-115.71c26.55 3 64 11.13 70.57 37.06 9.33 36.58-50.38 58.05-76.26 66.32C608.64 13.18 521.2 7.1 438.6-7.17c-43.44-7.5-111.06-27.61-105.8-71.38 6.75-56.1 99.78-101.35 129.1-146.25 24.71-37.84 28.36-56.08 7.39-100.68-37.62-80-236.94-93.13-288.24 42.46-18.43 48.68 62 111.52 47.36 151.41-10.06 27.43-67.29 28-85 28-78.45 0-169.7-8.88-169.7-8.88l-1.9 45.61s97 5.31 167.78 5.31c37 0 86.56-2.76 110.76-30.83s29.94-66-12.81-121.16c-39.33-50.77-33.13-157 116-154.08 125.32 2.48 125.32 95.32 65.32 152.38-24.69 23.54-54.32 41.26-79.86 63.89s-50.69 54.22-45.22 87.9c9.14 56.34 69 91.4 113.85 105.68 91.57 29.18 203.9 22.24 295.13-8C774.52 10.44 819.36-57 792.48-99.67c-16-25.37-55.8-34.28-86.4-38.43z" class="cls-8"/><g clip-path="url(#clip-path-2)"><path d="M392.46 127.37H90.54c1-21.91 11.93-29.42 40.35-27.58C135.44 78.11 146 61.73 171 59.61c2.27-.19 4.65-5.9 6-9.42 12.54-33 38.84-50.34 73.18-47.94 31 2.17 55.14 25.45 62.67 59.47 1 4.47 5.23 8.79 9 12 5 4.18 12.44 6 16.26 10.86 9.24 11.79 18.19 20.13 35.39 19.24 10.94-.62 17.73 10.03 18.96 23.55z" class="cls-10"/><circle cx="249.6" cy="42.68" r="30.98" class="cls-6"/><circle cx="218.89" cy="67.89" r="19.11" class="cls-6"/><circle cx="204.58" cy="71.15" r="14.11" class="cls-6"/><path d="M140.84 65.2c4.37.2 8.51-.08 12.45.68 10.32 2 17.1 8.37 20 18.38.9 3.07 2.28 3.92 5.18 4.36 13.17 2 22.43 12.77 22.2 25.82H-75.12c-.68-8.83 6.6-13.92 17.56-12.31 6.25-14.4 13.5-17.93 28.21-13.4 2.66-9 7.55-16.44 16.12-21s17.17-4.48 26.3-1.54c.29-3.85.22-7.35.86-10.7C17.59 36.35 28.78 23.58 47.76 19c18.76-4.54 34.51 1.47 46.57 16.59 1.67 2.1 3 3.17 5.94 2.72 19-2.92 34.69 7.2 40.13 25.63.16.54.38 1.06.44 1.26z" class="cls-11"/><circle cx="56.13" cy="60.51" r="24.15" class="cls-6"/><circle cx="97.79" cy="75.97" r="27.02" class="cls-6"/><circle cx="62.77" cy="85.4" r="19.43" class="cls-6"/></g></g><g clip-path="url(#clip-path-3)"><path d="M-117.11-313.39h1573.78v885.25H-117.11z" class="cls-3"/><path d="M-36.19 120.16C57.56 120.16 106-86.08 251.65-105c110.92-14.4 155 48.15 208.4 48.15 75.25 0 171.38-76.47 298.9-9.69 81.4 42.64 158.31 90.33 217 96.34s191-26 259.06.61c188.24 73.66 146 324.28 146 324.28H-45z" class="cls-4"/><path d="M1381.93 213c-114.19 0-201.08 9.54-250.85-9.65-120.5-46.44-109.7-187-335.56-187C683 16.39 643.57 51 552.72 51c-50.49 0-110.49-99.81-217.49-99.81-198.08 0-192.78 154.29-355.77 168.32A26.75 26.75 0 00-45 146.1c0 49.48-2.63 98.57-5 143.6-4.41 82.41-6.4 149.9 21.67 172 38.33 17.3 180.02-25.9 305.82.44 182.27 38.17 240.54 16.65 427.59 6.42 112.28-6.14 275.81-9.29 330.23-8.72 161.54 1.67 308.38 26.62 335.06 1.89 25.87-23.97 24.72-148.97 11.56-248.73z" class="cls-5"/><path d="M1336.78 219.2c-53.07 2.89-223.76 46.65-280.84-2.24-36.73-31.46-59.66-70.96-81.94-92.39-66.94-64.45-290.31-130.26-408.7-15.71-30.2 29.23-50.14 61.79-30.5 98.94a51.1 51.1 0 009.76 12.72c27.71-.85 84.7-9.56 97.15-35.56l54 7.79c-18.81 25.64-61.76 45.54-99.17 55.94 42.79 15.79 90.42 26.62 90.42 55.35 0 39.54-331 46.41-339.21-29.45C342.94 230.32 436 168.3 449.63 151.7 493.19 98.53 501 56.89 453.25 7.44S330.82-58.34 265.16-38C120.05 6.93 121.92 108.87 172.48 180.48c7 9.94 9.86 23.72 4.55 34.66-8.37 17.26-31.9 18.86-51.03 18.08-42.36-1.8-130.23-6-172.59-7.78L-53 345.23c57.84-5.78 272.86-16.23 327.55 30.52 48.36 41.36 162.33 62.76 258.06 62.35 150.53 3.25 274.48-90 267-163.51-14-138.42-255.06-75.88-155.76-146.38 65-46.12 189.36-19.3 245.28 14 11.75 7 23.23 15.09 31.05 26.31s11.43 26.13 6.41 38.85c-5.57 14.11-20 22.45-33.91 28.55a250.57 250.57 0 01-43.34 14.17c-20.36 4.8-22.38 33.13-2.8 40.48l.46.17c15.25 5.58 32.05 5 48.14 2.76s32-6 48.23-6.52c36.63-1.21 73.38 9.51 106.1 26 120.38 60.7 229.32-20.13 287.43-70.88z" class="cls-6"/><path d="M675.87 209.94l7.6 1c4.21.54 8.49 1.09 12.78 1.69 30.18 4.24 61.5 11.24 77.86 37.21 9.85 15.66 11.18 34.77 3.82 55.29-13 36.29-50.54 69.39-95.58 84.31a539 539 0 01-167.58 26.82c-47 0-90.76-6.33-129.93-18.81-50.39-16.06-107.45-53.06-116.49-108.74-4.66-28.72 11.4-60.33 46.46-91.4 11.81-10.47 24.63-20 37-29.21 14.52-10.8 29.53-22 42.78-34.56 32-30.46 45.3-69.27 33.81-98.88-11.34-29.2-45.63-45.84-96.55-46.85-2 0-4-.06-6-.06-76.34 0-106.65 29.14-118.64 53.58-16.35 33.36-5.42 72.29 11.67 94.34 20.46 26.42 31.33 51 32.31 72.94.85 19.14-5.75 37-19.63 53.1-24.51 28.49-73.56 32.15-113.62 32.15C47.83 293.86-41 290-41.47 290l-8.53-.3 2.29-54.27 7.28.84c.44.07 85.12 7.84 162.23 7.84 59.54 0 77.13-13.87 81.4-25.5 6.3-17.17-7.58-40.34-22.27-64.88-17.42-29.11-35.44-59.2-25.08-86.57a154.63 154.63 0 0168.62-80.39C252.52-29.3 286-37.79 321.24-37.79c60.21 0 112.41 25 129.91 62.21 21.84 46.47 17.5 65.9-7.65 104.43-11.73 18-32.8 35.49-55.11 54.06-34.15 28.41-69.46 57.8-73.4 90.54-2.11 17.61 8.86 32.9 32.61 45.43 23.56 12.43 54 18.93 70 21.7 47.86 8.26 89.33 12.28 126.78 12.28 45.14 0 84.81-5.67 121.27-17.32 54.1-17.29 80-38.73 73.7-61.7-8.61-31.53-67-34-68.82-34.26z" class="cls-7"/><path d="M672.54 235.84c26.54 3 64 11.12 70.56 37 9.33 36.59-50.38 58.05-76.25 66.32C587 364.73 499.57 358.64 417 344.38c-43.44-7.5-111.06-27.62-105.79-71.39 6.74-56.1 99.78-101.35 129.1-146.25C465 88.9 468.63 70.66 447.66 26.06 410-53.95 210.72-67.07 159.41 68.52c-18.42 48.69 62 111.53 47.37 151.41-10.07 27.43-67.3 28-85 28-78.44 0-169.7-8.88-169.7-8.88l-1.89 45.62s97 5.3 167.77 5.3c37.06 0 86.57-2.75 110.76-30.82s29.94-66-12.81-121.17C176.56 87.24 182.77-19 332-16.06c125.31 2.47 125.31 95.32 65.32 152.37-24.73 23.51-54.37 41.23-79.9 63.86s-50.68 54.22-45.22 87.9c9.15 56.34 69.06 91.41 113.86 105.68 91.56 29.18 203.9 22.25 295.12-8 71.76-23.77 116.6-91.2 89.72-133.89-16-25.36-55.8-34.28-86.4-38.43z" class="cls-8"/><path d="M173.91 119.79l-9.45.57c-1-2 4.26-3 6.09-3.11l.06-2.37h3.43a8 8 0 00-.27 2.31c.07 1.27.14 2.56.14 2.6zM184.22 120.28l-9.19.89c-1-2 4.11-3.07 5.94-3.18l-.16-2.37 3.15-.22s.06 1.13.12 2.3.14 2.54.14 2.58z" class="cls-13"/><path d="M180.68 117.88c-.11 1.24 2.75 1 3.6.87a.22.22 0 01.26.2c.07.47.23 1.54.23 1.57-.54.48-9.44 1.22-10 .87-1.09-2.12 4-3.34 5.91-3.51zM170.2 117.25c-.15 1.16 2.72 1 3.57.91a.22.22 0 01.25.19c.06.45.18 1.45.18 1.47-.56.43-9.49.89-10 .55-1.05-2 4.09-3 6-3.12z" class="cls-14"/><path d="M169.11 49.36C169 52.89 163.3 60.77 158 65.14a15.13 15.13 0 01-3.47 1.71c-.45.05-.85.36-.69.68s.69.59 1.5.3c1.28-.46.38.82-.6 1.6s-1.21 2.11-.27 2.66 4.58-1.92 5.75-5.2c0 0 9.73-6.82 10.67-12.16s-1.78-5.37-1.78-5.37z" class="cls-15"/><path d="M167.66 60.32c-2.84-1.23-3-2.27-3-2.27.42-3.32 4.53-11.77 7.93-13.17a36.16 36.16 0 00-.11 6.94c.52 5.39-4.82 8.5-4.82 8.5z" class="cls-16"/><path d="M174.13 42.24c.57 0 .67.89.75 1.83a2 2 0 001.77 1.77 2 2 0 002.35-1.71 22.06 22.06 0 01.86-3.85c.1-.32.22-.64.34-1s.15-.37.23-.55a2.41 2.41 0 01.15-.33s0-.28.07-.73a27 27 0 00.18-4.56c-.69-4.3-8.69-4.37-9.55-.57-.03.04-1.87 9.8 2.85 9.7z" class="cls-15"/><path d="M182 37.63a1.68 1.68 0 01-2.09.76 1.43 1.43 0 01-.21-2.07 1.67 1.67 0 012.08-.76 1.44 1.44 0 01.22 2.07z" class="cls-15"/><path d="M181 37.89s.38-.11.65-.76a1 1 0 00-.32-1.29s.76.86-.33 2.05zM177.06 42.07c1.09 0-1.39.28-2.15 2.21-.1-1.53-.35-2-.74-2 0-.04 1.91-.18 2.89-.21z" class="cls-17"/><path d="M180.66 38.54s-.27 2.89-1 2.93c-.32 0-.45-.23-.49-.5a1.47 1.47 0 01.25-1.07l.91-1.38z" class="cls-18"/><path d="M183.68 45.3a27.47 27.47 0 017.35 7 16.37 16.37 0 017.13 2 2.62 2.62 0 01-1 2.63 57.49 57.49 0 01-8.92-.73l-6.31-4.74z" class="cls-19"/><path fill="#0577ae" d="M171 73.12l-.84 43.25a.39.39 0 00.31.4 8.53 8.53 0 003.48-.07.39.39 0 00.32-.36l4.83-47.2z"/><path fill="#079fe8" d="M173.94 68.62l6.85 48.63a.51.51 0 00.37.44 3.81 3.81 0 003-.22.54.54 0 00.28-.47l-.33-48.41z"/><path d="M174.85 44c-3.89.73-6.52 4.51-6.46 10.08.06 4.69.53 12.8 2.22 18.68a.83.83 0 00.34.46c1 .67 5.72 2.81 13.22 0a.83.83 0 00.53-.78c-.08-13.2 2-24.28-.07-26.44-1.78-1.63-3.27-1.86-5.62-2.17a1.8 1.8 0 01-2 1.48c-2.22.07-2.16-1.31-2.16-1.31z" class="cls-16"/><path d="M181.37 35.41s1.18-4.19.45-5.1-8.53-6.58-11.13-3.16c-1.91 2.51 1 4.06 1 4.06s.74.54 3.32.1 3.72-.44 3.65.47 1.25 1.06 1.25 1.06l-.14 3.21a1.69 1.69 0 011.6-.64z" class="cls-18"/><path d="M171 73.26a.83.83 0 01-.34-.46 71.71 71.71 0 01-2.12-15.22c.38 2.36 4 18.08 16.14 15.23a.81.81 0 01-.46.45c-7.55 2.81-12.22.67-13.22 0z" class="cls-19"/><path d="M199.69 57.18a2.08 2.08 0 01-3.41 1.14c-.76-1-.16-1.84 1-3 0 0-1-1.32-.68-1.51 1.07-.6 3.65 1.55 3.09 3.37z" class="cls-13"/><path fill="#3a5c1a" d="M183.91 72.17a17.43 17.43 0 01-12.8.15 22.94 22.94 0 0012.8-.15z"/><path fill="#9937a4" d="M184 74.54l1.36 41.1 3.31.14c.89-9.18 2.76-28.86 3.52-41.11z"/><path d="M181 121.59l7.19-.79s.19-1.91.49-5l-3.31-.14.07 2.23a.94.94 0 01-.86.95c-3.42.36-4.48 1.74-3.58 2.75z" class="cls-13"/><path d="M190.27 79.28l1.54.51c-.85 11.62-2.28 26.81-3.08 35.06z" class="cls-18"/><path d="M184.15 118.87c2.1.72 4.06.25 4.23-.31.05-.17.35.06.35.24a15 15 0 01-.21 2c-.46.57-6.93 1.35-8.7.87-.92-1.17 1.24-2.48 4.33-2.8z" class="cls-24"/><path d="M183.41 119s1.44.43.66.76-2.07-.45-2.07-.45a4.46 4.46 0 011.41-.31z" class="cls-13"/><path d="M194.3 116.57h3c.26-10.34.77-32.84.66-42l-8 .8c-.29 8.57 3.84 32.39 4.34 41.2z" class="cls-18"/><path d="M188.82 122.74l8.4-.85.13-5.35h-3a17 17 0 010 2.46 1.06 1.06 0 01-1 .92c-3.43.4-5.46 1.66-4.53 2.82z" class="cls-13"/><path d="M195.59 78.32l1.38 38.22h.38l.67-38.82-2.43.6z" class="cls-18"/><path d="M193.35 120a6 6 0 003.86.09.24.24 0 01.34.23v1.59c-.46.57-6.93 1.35-8.69.87-.97-1.2 1.06-2.45 4.49-2.78z" class="cls-24"/><path d="M192.41 120.08s1.43.44.66.77-2.07-.45-2.07-.45a4.43 4.43 0 011.41-.32z" class="cls-13"/><path d="M198.82 80.5s-1-23.83-2.28-26.77c-.16-.36-1.08-.71-2.18-1a11.59 11.59 0 00-8.93 1.15c-.68.41-1.17.82-1.19 1.14-.21 3.08-1.09 25.35-1.09 25.35s4.1 3.78 15.67.13z" class="cls-3"/><path d="M188.62 36.21s-5.81-.14-4.43 4.93 7.38 1 7.37.6-2.94-5.53-2.94-5.53z" class="cls-25"/><path d="M188.29 40.05a11.68 11.68 0 01-4.29 9.73 16 16 0 007.64 1.29c4.43-.32 2.31-10.65 2.2-10.69s-5.55-.33-5.55-.33z" class="cls-25"/><path d="M183.84 45.37c0 3.59 1.85 3.88 2.33 4 2 .48 2.23 1 2.29 3.67a2.9 2.9 0 003.95 0 20.55 20.55 0 01.71-5q.13-.48.3-1c.06-.18.12-.37.19-.56s.09-.22.13-.34 0-.29 0-.75c.07-1.24.58-4.18.47-5.12a4.67 4.67 0 00-4.68-4c-3.68 0-4.18 1.67-5.06 4.43a20.26 20.26 0 00-.63 4.67z" class="cls-13"/><path d="M194.8 45.26a1.73 1.73 0 01-2.1.84 1.47 1.47 0 01-.32-2.09 1.64 1.64 0 012-.86 1.5 1.5 0 01.42 2.11z" class="cls-13"/><ellipse cx="193.29" cy="45.67" fill="#fbf7ea" rx=".41" ry=".39" transform="rotate(-.68 194.37 45.811)"/><path fill="#6e6e6e" d="M186.54 78.12s2.09.25 2.08.52-2.07.37-2.07.37z"/><path d="M198.82 80.5s0-.72-.09-1.94c-15.92 3.17-14.33-13-14.33-13l-.73 2.15c-.27 6.38-.52 12.7-.52 12.7s4.1 3.74 15.67.09z" class="cls-28"/><path fill="#919191" d="M188.9 78.32s-2.1 0-2.13.27 2.15.67 2.15.67z"/><path d="M184.63 54.55l-.23 11.27 1.76 11.93s.14.77 1.4.62c1.83-.22 3.69 1.63.77 2a4 4 0 01-1.52-.11 3.8 3.8 0 01-2.77-2.77c-.81-3.28-2.65-10.8-2.66-11.71-.02-2.39 2.18-9.78 3.25-11.23z" class="cls-13"/><path d="M188.41 52c-.13-1.77-.58-2.18-2.24-2.59a8.87 8.87 0 002.77.27c.69-.05-.33 1.94-.53 2.32zM193.87 45.66a1.38 1.38 0 00.67-.89 1.09 1.09 0 00-.44-1.41 1.67 1.67 0 01-.23 2.3z" class="cls-30"/><path d="M187.13 78.49a2.27 2.27 0 001.39-.66s7.5-10.33 7.55-11.08a83 83 0 00-.76-8.87 2.52 2.52 0 01.3-1.7l.24-1.31a.45.45 0 01.86-.07c1.14 3.22 2.78 11 2.5 12.83-.33 2.19-9.11 11.6-9.11 11.6a5.17 5.17 0 01-3.69 1.25c-2.92-.27-1.12-2.01.72-1.99z" class="cls-13"/><path d="M194.83 61.93l-.21-1.12c-.08-4.66.59-6.23 1.83-7.32a15.12 15.12 0 012.84 5.51s.01 1.59-4.46 2.93zM184.73 61.58l.29-7.43s-1.9 1-3.14 6a3.48 3.48 0 002.85 1.43z" class="cls-3"/><path d="M196.29 53.64s-2.12 1.12-1.63 7.37c0-.01-.05-5.32 1.63-7.37zM184.63 61s-.63-5.17 1.37-7.43c0 0-1.47 2.26-1.37 7.43z" class="cls-28"/><path fill="#41465f" d="M193.25 46.21a7.55 7.55 0 01-6.05 3.65c2.49 1.94 7.43 1.36 7.43 1.36 3.25-9.79.23-12.88.23-12.88-4.84-4.72-10.49-1.34-10.47.52 0 0 .32 2.77 7.49 5.24.44.15 1.1-1.32 2.27-1s1.27 2.54-.9 3.11z"/><path d="M168.14 60.36A.28.28 0 00168 60a7.12 7.12 0 01-3.15-2.19.5.5 0 00-.8.06l-.25.44a1.91 1.91 0 01-.58.72.5.5 0 00-.15.66 6.47 6.47 0 003 2.3.35.35 0 00.4-.09 3.54 3.54 0 01.78-.65 1.71 1.71 0 00.89-.89z" class="cls-19"/><ellipse cx="174.69" cy="57.46" fill="#ff882a" rx="5.11" ry="5.23"/><path d="M170.84 56a.62.62 0 01-.25-.23.66.66 0 01-.08-.34.63.63 0 01.08-.34.64.64 0 01.25-.24.81.81 0 01.7 0 .56.56 0 01.24.24.64.64 0 01.09.34.67.67 0 01-.09.34.54.54 0 01-.24.23.81.81 0 01-.7 0zm.58-.32a.35.35 0 00.09-.25.36.36 0 00-.09-.26.31.31 0 00-.46 0 .36.36 0 00-.09.26.35.35 0 00.09.25.31.31 0 00.46 0zM173.3 54.89a.61.61 0 01.14.42V56h-.36v-.67a.32.32 0 00-.07-.23.25.25 0 00-.18-.07.27.27 0 00-.22.09.32.32 0 00-.08.25V56h-.36v-1.23h.34v.15a.46.46 0 01.18-.13.59.59 0 01.23 0 .54.54 0 01.38.1zM175 55.51h-.94a.35.35 0 00.12.19.45.45 0 00.24.07.47.47 0 00.17 0 .33.33 0 00.14-.1l.19.22a.65.65 0 01-.51.2.75.75 0 01-.37-.08.62.62 0 01-.25-.23.67.67 0 01-.09-.34.64.64 0 01.09-.34.59.59 0 01.23-.24.81.81 0 01.34-.08.67.67 0 01.33.08.59.59 0 01.24.23.78.78 0 01.08.35.58.58 0 01-.01.07zm-.84-.41a.28.28 0 00-.1.2h.61a.32.32 0 00-.1-.2.29.29 0 00-.2-.07.3.3 0 00-.17.07zM171.4 58.1a.26.26 0 01-.13.06.44.44 0 01-.16 0 .52.52 0 01-.35-.11.45.45 0 01-.12-.34v-.51h-.19v-.28h.19v-.31h.36v.31h.31v.28H171v.52a.25.25 0 000 .13.21.21 0 00.12 0 .24.24 0 00.14 0zM173.63 56.89l-.45 1.27h-.34l-.28-.79-.29.79h-.35l-.45-1.27h.34l.29.86.31-.86h.3l.3.86.3-.86zM174.06 58.1a.59.59 0 01-.24-.23.67.67 0 01-.09-.34.64.64 0 01.09-.34.62.62 0 01.24-.24.81.81 0 01.7 0 .65.65 0 01.34.58.67.67 0 01-.09.34.62.62 0 01-.25.23.81.81 0 01-.7 0zm.58-.32a.35.35 0 00.09-.25.36.36 0 00-.09-.26.31.31 0 00-.23-.1.33.33 0 00-.23.1.36.36 0 00-.09.26.35.35 0 00.09.25.29.29 0 00.23.1.28.28 0 00.23-.1zM170.84 60.05a.61.61 0 01-.25-.23.76.76 0 010-.68.61.61 0 01.25-.23.74.74 0 01.36-.09.62.62 0 01.34.09.47.47 0 01.22.24l-.28.15a.32.32 0 00-.28-.17.34.34 0 00-.24.09.37.37 0 00-.09.26.36.36 0 00.09.26.34.34 0 00.24.09.3.3 0 00.28-.17l.28.15a.51.51 0 01-.22.24.62.62 0 01-.34.09.74.74 0 01-.36-.09zM173.12 59a.51.51 0 01.16.42v.73h-.34V60a.41.41 0 01-.38.18.62.62 0 01-.25 0 .44.44 0 01-.16-.14.36.36 0 01.08-.48.62.62 0 01.4-.1h.29a.26.26 0 00-.08-.19.31.31 0 00-.21-.06.69.69 0 00-.2 0 .51.51 0 00-.16.09l-.13-.26a.83.83 0 01.25-.12 1.35 1.35 0 01.29 0 .6.6 0 01.44.08zm-.31.87a.22.22 0 00.11-.12v-.13h-.25c-.15 0-.22 0-.22.14a.13.13 0 00.05.12.33.33 0 00.15 0 .28.28 0 00.16-.04zM174.33 58.87a.71.71 0 01.26 0v.35h-.08a.33.33 0 00-.25.09.37.37 0 00-.09.27v.6h-.36v-1.34h.35V59a.39.39 0 01.17-.13zM176.21 59.59h-.94a.32.32 0 00.12.18.36.36 0 00.24.07.47.47 0 00.17 0 .42.42 0 00.14-.09l.19.21a.64.64 0 01-.51.21.72.72 0 01-.37-.09.51.51 0 01-.25-.23.64.64 0 01-.09-.34.77.77 0 01.08-.34.59.59 0 01.24-.23.67.67 0 01.34-.09.73.73 0 01.33.08.59.59 0 01.23.24.65.65 0 01.09.35.82.82 0 01-.01.07zm-.84-.41a.26.26 0 00-.1.19h.61a.29.29 0 00-.1-.19.32.32 0 00-.21-.08.28.28 0 00-.2.08zM177.88 59.59h-.94a.32.32 0 00.12.18.36.36 0 00.24.07.47.47 0 00.17 0 .42.42 0 00.14-.09l.19.21a.64.64 0 01-.51.21.72.72 0 01-.37-.09.51.51 0 01-.25-.23.64.64 0 01-.09-.34.77.77 0 01.08-.34.59.59 0 01.24-.23.67.67 0 01.34-.09.73.73 0 01.33.08.69.69 0 01.24.24.75.75 0 01.08.35.82.82 0 01-.01.07zm-.84-.41a.26.26 0 00-.1.19h.61a.29.29 0 00-.1-.19.32.32 0 00-.21-.08.28.28 0 00-.24.08zM178.86 58.87a.66.66 0 01.25 0v.35H179a.32.32 0 00-.24.09.37.37 0 00-.09.27v.6h-.36v-1.34h.35V59a.39.39 0 01.2-.13z" class="cls-3"/><ellipse cx="181.14" cy="120.69" fill="#1a1a1a" opacity=".39" rx="21.73" ry="2.47"/><g clip-path="url(#clip-path-4)"><path d="M391.34 87.52H230.55c.55-11.66 6.36-15.66 21.49-14.68 2.42-11.55 8-20.27 21.37-21.4 1.21-.1 2.47-3.14 3.18-5 6.69-17.58 20.69-26.81 39-25.53 16.52 1.16 29.36 13.56 33.38 31.67.52 2.38 2.78 4.68 4.78 6.36 2.66 2.23 6.63 3.2 8.66 5.79 4.91 6.27 9.67 10.7 18.83 10.27 5.83-.34 9.45 5.33 10.1 12.52z" class="cls-10"/></g></g><g clip-path="url(#clip-path-5)"><path d="M23.44-777.94h1573.78v885.25H23.44z" class="cls-3"/><path d="M1522.49-251.51c-114.19 0-201.08 9.53-250.85-9.65-120.5-46.45-109.7-187-335.56-187-112.51 0-152 34.57-242.8 34.57-50.49 0-110.49-99.81-217.49-99.81C277.71-513.4 283-359.1 120-345.07a26.75 26.75 0 00-24.47 26.63c0 49.48-2.63 98.57-5 143.59-4.4 82.42-6.39 149.91 21.68 172 38.36 17.23 180.06-25.93 305.86.41C600.32 35.77 658.59 14.25 845.64 4c112.28-6.15 275.81-9.29 330.23-8.73C1337.4-3 1484.24 21.91 1510.92-2.81c25.88-23.98 24.72-148.97 11.57-248.7z" class="cls-5"/><g clip-path="url(#clip-path-6)"><path d="M511.38 14.37H209.46c1-21.91 11.94-29.42 40.35-27.58 4.55-21.68 15.1-38.06 40.12-40.18 2.28-.19 4.65-5.9 6-9.42 12.55-33 38.85-50.34 73.18-47.94 31 2.17 55.14 25.45 62.67 59.47 1 4.47 5.23 8.79 9 12 5 4.18 12.45 6 16.26 10.86 9.25 11.79 18.19 20.13 35.39 19.24 10.93-.62 17.73 10.03 18.95 23.55z" class="cls-10"/><path d="M259.76-47.8c4.38.2 8.51-.08 12.45.68 10.32 2 17.1 8.37 20 18.38.91 3.07 2.28 3.92 5.18 4.36 13.17 2 22.43 12.77 22.2 25.82H43.8c-.68-8.83 6.6-13.92 17.56-12.31 6.25-14.4 13.5-17.93 28.21-13.4 2.66-9 7.56-16.44 16.12-21s17.18-4.48 26.3-1.54c.29-3.85.22-7.35.87-10.7 3.66-19.14 14.84-31.91 33.82-36.49 18.76-4.54 34.51 1.47 46.57 16.59 1.68 2.1 3 3.17 5.94 2.72 19-2.92 34.7 7.2 40.13 25.63.17.54.38 1.06.44 1.26z" class="cls-11"/></g></g></svg>