<svg xmlns="http://www.w3.org/2000/svg" id="B8" viewBox="0 0 272.33 153.19"><defs/><defs><clipPath id="clip-path"><path d="M0 0h272.33v153.19H0z" class="cls-1"/></clipPath><clipPath id="clip-path-2"><path d="M0 200.44h235.17v132.29H0z" class="cls-1"/></clipPath><clipPath id="clip-path-3"><path d="M65.24-380.49H306v135.43H65.24z" class="cls-1"/></clipPath><clipPath id="clip-path-4"><path d="M1522.49-51.07c-114.19 0-201.08 9.53-250.85-9.65-120.5-46.45-109.7-187-335.56-187-112.51 0-152 34.57-242.8 34.57-50.49 0-110.49-99.81-217.49-99.81C277.71-313 283-158.66 120-144.64A26.75 26.75 0 0095.55-118c0 49.69-3.53 97.17-5 143.59-2.67 82.22-6.33 150 21.68 172 38.36 17.23 180.06-25.94 305.86.41 182.27 38.16 240.54 16.65 427.59 6.41 112.28-6.14 275.81-9.28 330.23-8.72 161.53 1.68 308.37 26.62 335.05 1.9 25.84-23.94 24.68-148.93 11.53-248.66z" class="cls-1"/></clipPath><style>.cls-1,.cls-14{fill:none}.cls-3{fill:#fff}.cls-4{fill:#bdefef}.cls-5{fill:#23b347}.cls-6{fill:#25bf4c}.cls-7{fill:#876f2d}.cls-8{fill:#d4af4e}.cls-9{fill:#1b8f39}.cls-10{fill:#20a642}.cls-12{fill:#c9c8c8}.cls-13{fill:#595651}.cls-14{stroke:#595651;stroke-miterlimit:10;stroke-width:.39px}.cls-17,.cls-19{fill:#201600}.cls-17{opacity:.36}.cls-18{fill:#a45b35}.cls-19{opacity:.19}.cls-20{fill:#e2946b}.cls-21{fill:#7e4628}.cls-22{fill:#e1a98b}.cls-25{fill:#e2efef}.cls-26{fill:#a7a6f6}.cls-27{fill:#a099e9}.cls-28{fill:#bebefc}.cls-29{fill:#e9ca25}.cls-30{fill:#ffdf57}.cls-31{fill:#f9e698}.cls-36{fill:#4e9da3}.cls-39{fill:#ff882a}.cls-40{fill:#f2f2f2}</style></defs><g clip-path="url(#clip-path)"><path d="M-95.48-464.5H1478.3v885.25H-95.48z" class="cls-3"/><path d="M-14.56-30.95c93.75 0 142.21-206.23 287.84-225.14 110.93-14.39 155 48.15 208.41 48.15 75.25 0 171.37-76.47 298.89-9.68C862-175 938.9-127.29 997.61-121.28s191-26 259.06.61C1444.91-47 1402.62 203.6 1402.62 203.6h-1426z" class="cls-4"/><path d="M1403.56 61.93c-114.18 0-201.07 9.53-250.84-9.65-120.5-46.45-109.71-187-335.56-187-112.51 0-151.95 34.57-242.8 34.57-50.5 0-110.49-99.81-217.49-99.81C158.79-200 164.09-45.66 1.1-31.64A26.74 26.74 0 00-23.37-5c0 49.47-2.63 98.57-5 143.59-4.4 82.42-6.39 149.9 21.67 172 38.36 17.23 180.07-25.94 305.87.41 182.27 38.16 240.53 16.65 427.59 6.41 112.27-6.14 275.81-9.28 330.23-8.72 161.53 1.68 308.37 26.62 335 1.9 25.88-23.94 24.73-148.93 11.57-248.66z" class="cls-5"/><path d="M1358.41 68.1c-53.07 2.89-223.76 46.64-280.84-2.25-36.73-31.46-59.65-70.93-81.94-92.39C928.69-91 705.32-156.79 586.94-42.24 556.73-13 536.79 19.55 556.44 56.7a51 51 0 009.76 12.71c27.71-.85 84.69-9.56 97.15-35.55l54 7.78c-18.82 25.64-61.76 45.54-99.18 55.94 42.8 15.79 90.43 26.63 90.43 55.35 0 39.54-331 46.42-339.21-29.45C364.58 79.21 457.67 17.19 471.27.59c43.56-53.17 51.37-94.81 3.62-144.26s-122.43-65.78-188.09-45.44C141.69-144.17 143.56-42.24 194.11 29.37c7 9.94 9.86 23.72 4.55 34.67-8.37 17.26-31.89 18.89-51 18.07-42.36-1.79-130.24-6-172.6-7.78l-6.37 119.79c57.84-5.78 272.86-16.25 327.55 30.53C344.54 266 458.51 287.4 554.25 287c150.52 3.25 274.47-90 267-163.51C807.29-14.94 566.22 47.6 665.53-22.89 730.5-69 854.89-42.2 910.8-8.9c11.75 7 23.24 15.1 31.05 26.31s11.43 26.13 6.41 38.85c-5.56 14.12-20 22.45-33.9 28.56A252.4 252.4 0 01871 99c-20.36 4.79-22.37 33.12-2.79 40.48l.45.17c15.25 5.57 32.06 5 48.14 2.75s32-6 48.24-6.51c36.63-1.22 73.37 9.5 106.1 26 120.38 60.69 229.32-20.13 287.43-70.89z" class="cls-6"/><path d="M697.51 58.83l7.6 1c4.21.54 8.48 1.08 12.78 1.69 30.17 4.24 61.49 11.23 77.85 37.21 9.86 15.65 11.18 34.77 3.82 55.28-13 36.29-50.53 69.39-95.58 84.32a539.33 539.33 0 01-167.58 26.8c-47 0-90.75-6.33-129.93-18.81C356.08 230.26 299 193.27 290 137.59c-4.66-28.72 11.41-60.33 46.47-91.41 11.81-10.46 24.62-20 37-29.21C388 6.17 403-5 416.24-17.59c32-30.46 45.3-69.27 33.81-98.88-11.33-29.2-45.62-45.84-96.54-46.85-2 0-4-.06-6-.06-76.35 0-106.66 29.14-118.64 53.59-16.36 33.35-5.42 72.28 11.66 94.33 20.47 26.42 31.34 51 32.32 73 .85 19.13-5.76 37-19.63 53.1-24.57 28.5-73.66 32.16-113.68 32.16-70.12 0-158.93-3.83-159.41-3.87l-8.58-.29 2.3-54.27 7.28.84c.47.03 85.15 7.79 162.27 7.79 59.54 0 77.12-13.87 81.39-25.5 6.3-17.16-7.57-40.34-22.26-64.87-17.43-29.11-35.45-59.21-25.09-86.58a154.69 154.69 0 0168.63-80.39c28.09-16.06 61.56-24.56 96.8-24.56 60.21 0 112.42 25 129.91 62.22 21.85 46.46 17.51 65.89-7.65 104.42C453.4-4.3 432.33 13.24 410 31.8c-34.15 28.42-69.46 57.8-73.39 90.55-2.12 17.61 8.85 32.89 32.6 45.42 23.56 12.43 54 18.93 70 21.7 47.86 8.27 89.33 12.28 126.78 12.28 45.14 0 84.81-5.66 121.28-17.32 54.09-17.29 80-38.72 73.69-61.69-8.6-31.54-67-34-68.82-34.27z" class="cls-7"/><path d="M694.17 84.73c26.55 3 64 11.13 70.57 37.06 9.33 36.58-50.38 58-76.26 66.31-79.84 25.52-167.28 19.43-249.88 5.17-43.44-7.5-111.06-27.61-105.8-71.38 6.75-56.11 99.78-101.35 129.1-146.25 24.71-37.85 28.36-56.08 7.39-100.68-37.62-80-236.94-93.13-288.24 42.46-18.43 48.68 62 111.52 47.36 151.41-10.06 27.43-67.29 28-85 28C65 96.86-26.3 88-26.3 88l-1.9 45.62s97 5.31 167.78 5.31c37 0 86.56-2.76 110.76-30.83s29.94-66-12.81-121.17c-39.33-50.77-33.13-157 116-154.07C478.9-164.69 478.9-71.85 418.9-14.8 394.17 8.71 364.54 26.43 339 49.06s-50.68 54.23-45.21 87.94c9.14 56.34 69 91.4 113.85 105.68 91.57 29.18 203.9 22.24 295.13-8 71.75-23.78 116.59-91.21 89.71-133.89-16-25.37-55.8-34.28-86.4-38.43z" class="cls-8"/><path d="M146.86 28.13c4.78.24 9.16-.13 13.24.81 7.47 1.73 12.49 6.74 15.12 13.94a3.08 3.08 0 003 2.34c7.86 1 13.76 7.69 13 14.79H31.74c-.45-8 4.84-13.52 15.15-15.71 0-6.28 2-11.81 7.39-15.63s11.16-4.31 17.59-2a69 69 0 010-8A28.45 28.45 0 0198-6.64a28.71 28.71 0 0129.5 20.05c.29.92 1.29 2.22 2.05 2.28 8.6.69 14.24 5.23 17.31 12.44z" class="cls-9"/><circle cx="102.11" cy="21.93" r="19.01" class="cls-10"/><circle cx="113.93" cy="30.49" r="14.05" class="cls-10"/><path fill="#383530" d="M241.36 83.93z"/><path d="M214.74 97.75c-.76 1.08 1.48 2 3.46 2.44l-.2.28s-.59.67-.14 2.69c-2.7-.69-3.65-1.28-3.9-2.27l-.06-1.78s-.17-.61.84-1.36z" class="cls-12"/><path d="M224.84 104l-.06-.07-1.49-1.57a4.18 4.18 0 00-2.37-1.18c-4-.74-6.2-1.62-6.5-2.61a.77.77 0 010-.33v-.08a.79.79 0 01.19-.25l.13-.12v.06a.63.63 0 00-.2.65c.16.52 1.2 1.54 6.39 2.5a4.3 4.3 0 012.44 1.22L225 104z" class="cls-13"/><path d="M223.31 96.12a.42.42 0 00.35.39.29.29 0 00.29-.35.4.4 0 00-.35-.39.3.3 0 00-.29.35zM221.16 96.74a.41.41 0 00.35.39.3.3 0 00.29-.36.41.41 0 00-.35-.39.3.3 0 00-.29.36z" class="cls-14"/><path fill="none" stroke="#312a20" stroke-linecap="round" stroke-linejoin="round" stroke-width=".39" d="M222.44 95.3s-.71.19-1 1.45c0 0-.25-.79-.61-1"/><path fill="#a14730" d="M225 100.82h.16a13.15 13.15 0 00-3.59-2.36 5.76 5.76 0 01-3.15-2.22h-.08a5.51 5.51 0 003.21 2.34 12.64 12.64 0 013.45 2.24z"/><path d="M227 102.65c-.54 1.25 1.66 1.86 3.5 2.14l-.16.32s-.47.77.19 2.76c-2.1-.29-3.61-.86-4-1.84l-.26-1.79a1.85 1.85 0 01.73-1.59z" class="cls-12"/><path d="M237.81 108.07l-.07-.07-1.65-1.46a4.22 4.22 0 00-2.5-1c-4.12-.39-6.43-1.09-6.83-2.08a.68.68 0 01-.06-.33.51.51 0 010-.09.92.92 0 01.16-.27l.12-.13.05.06a.66.66 0 00-.15.69c.22.52 1.38 1.47 6.71 2a4.37 4.37 0 012.58 1l1.85 1.63z" class="cls-13"/><path d="M175.3 134.8c-27.19-16.55-61.17-38.72-61.17-38.72s121.07 28.05 140.24 37.14z" class="cls-17"/><path d="M149.5 116.9l-35.37-20.82c7.27-15.58 20.41-15.47 20.41-15.47l76.08 10.2-20.62 27.7L177.11 133z" class="cls-18"/><path d="M149.5 116.9l-35.37-20.82A28.9 28.9 0 01122 85.57c25.9 14.34 66.25 17.41 66.76 17.27 0 0 1.33 4.77 3.33 12l-15 18.17z" class="cls-19"/><path d="M181.79 118.18c3.33-10.64 9.63-23.1 21.64-26.37 18.23-5 34.27 13.86 43.72 29l7.22 12.44-77.26-.2z" class="cls-20"/><path d="M180.7 118.14l-31.4-12.71s36.15 7.59 37.22 8.37l-1.86 4.5z" class="cls-21"/><path d="M211.15 96.23c-13-1.75-21.41 10.92-30.54 36.84h-2.16C182 120.92 188 93.69 206.23 92c28.62-2.66 46.25 41.19 46.25 41.19l-4.09-.06s-14.99-33.92-37.24-36.9z" class="cls-22"/><path d="M115.04 94.24l11.6 9.36-12.51-7.52.91-1.84zM169.64 89.93c-.44-.47 10-5.05 12.17-9.71l3.43 6.32s-4.37 1.56-4.07 5.33c0 0-6.34 3.59-11.53-1.94z" class="cls-21"/><path d="M181.81 80.22c-1.07 1 1.3 9.29 4.12 5.65 1.63-2.1-2.13-7.02-4.12-5.65z" class="cls-22"/><path d="M182.69 81.52c-.62.6.76 5.37 2.39 3.28.92-1.22-1.23-4.07-2.39-3.28z" class="cls-20"/><path fill="#5f351e" d="M182.2 84.3l1.1-.19-.79.89-.4-.13.09-.57z"/><path d="M234.58 132.92c-.08 0-8.4-23.11-23.92-23.14-14.13 0-18.12 23.45-18.19 23.45l-6.93-.09c3.21-11.88 10.82-29.29 24-29.2 20 .13 31.89 29.08 31.92 29.08z" class="cls-22"/><path d="M204.78 93.09C192.35 95 186 108.65 178.45 133h-1.34c4-13.13 9.66-40.39 30.12-42.08 25.67-2.13 47.14 42.28 47.14 42.28h-2.4s-19.64-44.4-47.19-40.11z" class="cls-21"/><path d="M182.37 118.2l.39-3.17 1.39-1.77 4.59 5.2-6.37-.26zM177.11 133l-27.33-16.11-19.71-11.53c6.1.64 38.16 21.92 47.04 27.64z" class="cls-21"/></g><g clip-path="url(#clip-path-2)"><path d="M-117.11-112.96h1573.78v885.25H-117.11z" class="cls-3"/><path d="M-36.19 320.59c93.75 0 142.21-206.23 287.84-225.13 110.92-14.4 155 48.14 208.4 48.14 75.25 0 171.38-76.46 298.9-9.68 81.4 42.63 158.31 90.33 217 96.34s191-26 259.06.61c188.24 73.66 146 324.28 146 324.28H-45z" class="cls-4"/><path d="M35.94 147.48c-.1-7.1 4.89-10.27 14.16-9 .39-4.9 2.19-9.1 6.63-11.67a9.89 9.89 0 014.41-1.67c2.64 0 3.53-1.18 4.26-3.62a23.23 23.23 0 0124.51-16.2 23.49 23.49 0 0121 20.91c.17 1.65.6 2.42 2.21 3a19.58 19.58 0 0111.26 10.35c8.84-1.11 12.85 1.25 13.25 7.95zM129.06 44.73l401.69 10.4L0 74.14l129.06-29.41z" class="cls-25"/><path d="M1381.93 413.47c-114.19 0-201.08 9.53-250.85-9.65-120.5-46.45-109.7-187-335.56-187-112.51 0-151.95 34.57-242.8 34.57-50.49 0-110.49-99.81-217.49-99.81-198.08 0-192.78 154.3-355.77 168.32A26.76 26.76 0 00-45 346.54c0 49.48-2.63 98.57-5 143.59-4.41 82.42-6.4 149.91 21.67 172 38.36 17.23 180.06-25.93 305.86.41C459.76 700.75 518 679.23 705.08 669c112.28-6.15 275.81-9.29 330.23-8.73 161.54 1.68 308.38 26.62 335.06 1.9 25.87-23.98 24.72-148.97 11.56-248.7z" class="cls-5"/><path d="M255 119c-1.28 1.69-4.58 3.16-6.26 1.87s-1.14-4.85.15-6.54A3.85 3.85 0 11255 119z" class="cls-26"/><path d="M248.87 120.62l-.99.37.89.67.1-1.04zM255 119a3.84 3.84 0 00-.3-5s3 5-4.64 7.37A6.45 6.45 0 00255 119z" class="cls-27"/><path d="M251.22 114.18c-1.14.3-1.94 1-2.07.54s.7-1.14 1.84-1.44 2.17-.13 2.3.37-.92.24-2.07.53z" class="cls-28"/><path d="M252.63 139.85l-1.87.27 1.29 1.54.58-1.81z" class="cls-29"/><path d="M264 139.33c-2.93 2.46-9.3 3.75-11.76.82s-.07-9 2.86-11.43a6.92 6.92 0 018.9 10.61z" class="cls-30"/><path d="M264 139.33a6.92 6.92 0 001.44-8.94s3.33 10.05-11.05 11.13c3.01.93 7.36-.28 9.61-2.19z" class="cls-29"/><path d="M256.41 129.87c-1.53 1.11-2.37 2.55-2.77 2s.52-1.89 2-3 3.09-1.56 3.49-1-1.2.89-2.72 2z" class="cls-31"/><path d="M250.69 94.33l-1.15.04.67 1.01.48-1.05z" class="cls-29"/><path d="M257.57 94.8c-1.92 1.28-5.84 1.62-7.12-.31s.56-5.4 2.49-6.68a4.19 4.19 0 014.63 7z" class="cls-30"/><path d="M257.57 94.8a4.19 4.19 0 001.48-5.28s1.32 6.27-7.4 5.94a7 7 0 005.92-.66z" class="cls-29"/><path d="M254.67 88.41c-1 .19-1.76.79-1.84.35s.67-1 1.69-1.15 1.91 0 2 .46-.83.15-1.85.34z" class="cls-31"/><path fill="#9ad17d" d="M263.67 119.43l-1.53.22 1.05 1.25.48-1.47z"/><path fill="#96cd7c" d="M273 119c-2.4 2-7.6 3.07-9.61.68s-.07-7.34 2.33-9.35A5.66 5.66 0 11273 119z"/><path fill="#84cb66" d="M273 119a5.67 5.67 0 001.18-7.31s2.72 8.22-9 9.1A9.47 9.47 0 00273 119z"/><path fill="#abd796" d="M267 111.3c-1.26.8-2 1.93-2.28 1.46s.48-1.51 1.74-2.31 2.52-1.08 2.82-.61-.98.65-2.28 1.46z"/><path d="M241.55 80.67l-1.88.26 1.29 1.54.59-1.8z" class="cls-27"/><path d="M253 80.14c-2.93 2.47-9.31 3.76-11.77.83s-.08-9 2.86-11.45A6.93 6.93 0 01253 80.14z" class="cls-26"/><path d="M253 80.14a6.92 6.92 0 001.44-9s3.33 10.07-11.06 11.14c2.94.99 7.3-.22 9.62-2.14z" class="cls-27"/><path d="M245.58 71.11c-1.84 1.34-2.86 3.09-3.34 2.42s.62-2.29 2.47-3.63 3.73-1.88 4.21-1.22-1.49 1.09-3.34 2.43z" class="cls-28"/><path d="M267.06 99.68l-1.2.4 1.03.85.17-1.25z" class="cls-36"/><path fill="#75aeb9" d="M274.45 98c-1.63 2-5.64 3.56-7.59 1.93s-1.12-5.86.51-7.81a4.6 4.6 0 017.08 5.88z"/><path d="M274.45 98a4.61 4.61 0 00-.12-6s3.36 6.18-5.91 8.59a7.75 7.75 0 006.03-2.59z" class="cls-36"/><path fill="#91bec7" d="M269.69 92.21c-1.13.53-1.82 1.45-2.05 1s.5-1.32 1.64-1.84 2.24-.56 2.47-.06-.92.37-2.06.9z"/><path d="M68.81 133.22c0 15.11-22.37 38.74-30.52 38.74S7.77 148.33 7.77 133.22s13.66-27.38 30.52-27.38 30.52 12.26 30.52 27.38z" class="cls-39"/><path d="M65.47 133.22c0 13.42-19.18 38.07-26.43 38.07s-27.92-23-27.92-38.07c0-16.61 12.16-27.38 27.17-27.38s27.18 11.07 27.18 27.38z" class="cls-40"/><path d="M58.36 133.22c0 13.42-14.71 35.1-20.07 35.1s-20.07-22.74-20.07-35.1c0-16.61 9-27.38 20.07-27.38s20.07 11.07 20.07 27.38z" class="cls-39"/><path d="M48.2 132c0 12.84-7.26 33.57-9.91 33.57s-9.91-21.73-9.91-33.57c0-15.88 4.44-26.18 9.91-26.18S48.2 116.43 48.2 132z" class="cls-40"/></g><g clip-path="url(#clip-path-3)"><path d="M23.44-577.5h1573.78v885.25H23.44z" class="cls-3"/><path d="M104.37-143.95c93.74 0 142.21-206.23 287.83-225.14 110.93-14.39 155 48.15 208.41 48.15 75.25 0 171.38-76.47 298.9-9.68 81.4 42.63 158.31 90.33 217 96.34s191-26 259.06.61c188.24 73.66 146 324.27 146 324.27H95.55z" class="cls-4"/><path d="M1522.49-51.07c-114.19 0-201.08 9.53-250.85-9.65-120.5-46.45-109.7-187-335.56-187-112.51 0-152 34.57-242.8 34.57-50.49 0-110.49-99.81-217.49-99.81C277.71-313 283-158.66 120-144.64A26.75 26.75 0 0095.55-118c0 49.47-2.63 98.57-5 143.59-4.4 82.42-6.39 149.9 21.68 172 38.36 17.23 180.06-25.94 305.86.41 182.27 38.16 240.54 16.65 427.59 6.41 112.28-6.14 275.81-9.28 330.23-8.72 161.53 1.68 308.37 26.62 335.05 1.9 25.84-23.94 24.68-148.93 11.53-248.66z" class="cls-5"/><path d="M1477.34-44.9c-53.07 2.9-223.77 46.64-280.84-2.25-36.74-31.46-59.66-70.93-82-92.39-66.94-64.45-290.3-130.25-408.69-15.7-30.2 29.22-50.15 61.79-30.5 98.94a51 51 0 009.76 12.71c27.71-.85 84.7-9.56 97.15-35.55l54 7.78c-18.81 25.64-61.76 45.54-99.17 55.94 42.8 15.79 90.43 26.63 90.43 55.35 0 39.54-331 46.42-339.21-29.45-4.77-44.27 88.32-106.29 101.92-122.89 43.56-53.17 51.37-94.81 3.62-144.26s-122.43-65.78-188.09-45.44C260.61-257.17 262.48-155.24 313-83.63c7 9.94 9.86 23.72 4.55 34.67-8.37 17.26-31.9 18.89-51.06 18.07-42.36-1.79-130.23-6-172.6-7.78L87.56 81.12c57.84-5.78 272.86-16.25 327.55 30.53C463.46 153 577.44 174.4 673.17 174c150.52 3.25 274.47-90 267-163.51-14-138.42-255.06-75.88-155.76-146.37 65-46.13 189.36-19.31 245.28 14 11.74 7 23.23 15.1 31 26.31s11.42 26.13 6.41 38.85c-5.57 14.12-20 22.45-33.91 28.56A252.4 252.4 0 01989.93-14c-20.35 4.79-22.37 33.12-2.79 40.48l.46.17c15.25 5.57 32 5 48.13 2.75s32-6 48.24-6.51c36.63-1.22 73.38 9.5 106.1 26 120.38 60.69 229.32-20.13 287.43-70.89z" class="cls-6"/><path d="M816.43-54.17l7.6 1c4.21.54 8.48 1.08 12.78 1.69 30.17 4.24 61.5 11.23 77.85 37.21 9.86 15.65 11.18 34.77 3.82 55.28-13 36.29-50.53 69.39-95.58 84.32a539.29 539.29 0 01-167.58 26.81c-47 0-90.75-6.33-129.93-18.81C475 117.26 417.94 80.27 408.91 24.59c-4.67-28.72 11.4-60.33 46.46-91.41 11.81-10.46 24.62-20 37-29.21 14.52-10.8 29.53-22 42.78-34.56 32-30.46 45.3-69.27 33.8-98.88-11.33-29.2-45.62-45.84-96.54-46.85-2 0-4-.06-6-.06-76.34 0-106.66 29.14-118.64 53.59-16.36 33.35-5.42 72.28 11.67 94.33 20.46 26.42 31.33 51 32.31 73 .85 19.13-5.76 37-19.63 53.1-24.57 28.5-73.66 32.16-113.68 32.16-70.12 0-158.93-3.83-159.41-3.87l-8.58-.29 2.3-54.27 7.28.84c.44.08 85.11 7.84 162.23 7.84 59.54 0 77.13-13.87 81.4-25.5 6.3-17.16-7.58-40.34-22.27-64.87-17.39-29.16-35.39-59.26-25.03-86.63A154.69 154.69 0 01365-277.34c28.09-16.06 61.56-24.56 96.81-24.56 60.2 0 112.41 25 129.91 62.22 21.84 46.46 17.5 65.89-7.66 104.42-11.72 18-32.8 35.5-55.1 54.06-34.15 28.42-69.46 57.8-73.4 90.55-2.13 17.65 8.84 32.89 32.6 45.42 23.56 12.43 54 18.93 70 21.7C606 84.74 647.51 88.75 685 88.75c45.15 0 84.82-5.66 121.28-17.32 54.1-17.29 80-38.72 73.7-61.69-8.61-31.54-67-34-68.83-34.27z" class="cls-7"/><path d="M813.1-28.27c26.54 3 63.95 11.13 70.56 37.06 9.33 36.58-50.38 58-76.25 66.31-79.85 25.52-167.29 19.43-249.89 5.17-43.44-7.5-111.06-27.61-105.8-71.38 6.75-56.11 99.79-101.35 129.11-146.25 24.71-37.85 28.36-56.08 7.39-100.68-37.62-80-236.94-93.13-288.25 42.46C281.55-146.9 362-84.06 347.33-44.17c-10.06 27.43-67.29 28-85 28C183.88-16.14 92.62-25 92.62-25l-1.89 45.59s97 5.31 167.77 5.31c37.05 0 86.57-2.76 110.76-30.83s29.94-66-12.81-121.17c-39.33-50.77-33.13-157 116.05-154.07 125.32 2.48 125.32 95.32 65.32 152.37-24.72 23.51-54.36 41.23-79.89 63.86S407.24-9.71 412.71 24c9.15 56.34 69.05 91.4 113.85 105.68 91.57 29.18 203.91 22.24 295.13-8 71.75-23.8 116.59-91.23 89.71-133.91-16-25.37-55.8-34.28-86.39-38.43z" class="cls-8"/><path d="M294.22 21.8C267 5.25 233.05-16.92 233.05-16.92S354.13 11.13 373.3 20.22z" class="cls-17"/><path d="M268.43 3.9l-35.38-20.82c7.27-15.58 20.41-15.47 20.41-15.47l76.09 10.2L309 5.51 296 20z" class="cls-18"/><path d="M268.43 3.9l-35.38-20.82a29 29 0 017.89-10.51C266.84-13.09 307.2-10 307.7-10.16c0 0 1.33 4.77 3.34 12L296 20z" class="cls-19"/><path d="M299.62 5.14l-31.4-12.71S304.38 0 305.45.8l-1.87 4.5zM296 20L268.7 3.91 249-7.62c6.1.62 38.15 21.9 47 27.62z" class="cls-21"/><g clip-path="url(#clip-path-4)"><path fill="#1fa341" d="M511.38 214.8H209.46c1-21.9 11.94-29.41 40.35-27.57 4.55-21.68 15.1-38.06 40.12-40.18 2.28-.19 4.65-5.9 6-9.43 12.55-33 38.85-50.34 73.18-47.94 31 2.18 55.14 25.46 62.67 59.47 1 4.48 5.23 8.79 9 11.95 5 4.18 12.45 6 16.26 10.87 9.25 11.79 18.19 20.12 35.39 19.24 10.93-.57 17.73 10.08 18.95 23.59z"/><path d="M259.76 152.64c4.38.2 8.51-.09 12.45.67 10.32 2 17.1 8.38 20 18.38.91 3.08 2.28 3.92 5.18 4.37 13.17 2 22.43 12.77 22.2 25.82H43.8c-.68-8.83 6.6-13.93 17.56-12.31 6.25-14.41 13.5-17.93 28.21-13.41 2.66-9 7.56-16.43 16.12-20.95s17.18-4.48 26.3-1.54c.29-3.86.22-7.35.87-10.71 3.66-19.17 14.84-31.94 33.82-36.54 18.76-4.55 34.51 1.47 46.57 16.59 1.68 2.1 3 3.17 5.94 2.72 19-2.92 34.7 7.2 40.13 25.63.17.56.38 1.11.44 1.28z" class="cls-9"/><circle cx="175.05" cy="147.95" r="24.15" class="cls-6"/><circle cx="216.71" cy="163.4" r="27.02" class="cls-6"/></g></g></svg>