<?xml version="1.0" encoding="utf-8"?>
<!-- Generator: Adobe Illustrator 22.1.0, SVG Export Plug-In . SVG Version: 6.00 Build 0)  -->
<svg version="1.1" id="Sign" xmlns="http://www.w3.org/2000/svg" xmlns:xlink="http://www.w3.org/1999/xlink" x="0px" y="0px"
	 viewBox="0 0 143.4 80.7" style="enable-background:new 0 0 143.4 80.7;" xml:space="preserve">
<style type="text/css">
	.st0{clip-path:url(#SVGID_2_);fill:#FFFFFF;}
	.st1{clip-path:url(#SVGID_4_);fill:#C5E5E5;}
	.st2{display:none;}
	.st3{display:inline;}
	.st4{display:inline;clip-path:url(#SVGID_6_);fill:#DCEFEF;}
	.st5{display:inline;clip-path:url(#SVGID_8_);fill:#DCEFEF;}
	.st6{display:inline;clip-path:url(#SVGID_10_);fill:#DCEFEF;}
	.st7{display:inline;opacity:0.45;clip-path:url(#SVGID_12_);fill:#FFFFFF;enable-background:new    ;}
	.st8{clip-path:url(#SVGID_14_);fill:#90C975;}
	.st9{clip-path:url(#SVGID_16_);fill:#D4AE46;}
	.st10{clip-path:url(#SVGID_18_);fill:#EBCC7A;}
	.st11{clip-path:url(#SVGID_20_);}
	.st12{fill:#6CA0AB;}
	.st13{fill:#75AEB9;}
	.st14{fill:#58838B;}
	.st15{fill:#426268;}
</style>
<g>
	<g>
		<defs>
			<rect id="SVGID_1_" y="0" width="143.4" height="80.7"/>
		</defs>
		<clipPath id="SVGID_2_">
			<use xlink:href="#SVGID_1_"  style="overflow:visible;"/>
		</clipPath>
		<rect x="-90.9" y="-212.8" class="st0" width="1363" height="766.7"/>
	</g>
	<g>
		<defs>
			<rect id="SVGID_3_" y="0" width="143.4" height="80.7"/>
		</defs>
		<clipPath id="SVGID_4_">
			<use xlink:href="#SVGID_3_"  style="overflow:visible;"/>
		</clipPath>
		<path class="st1" d="M855.3-91.1c-102.1-60.6-176.7,92.3-338.6,7.4c-40.5-21.2-95.5-58.8-153.2-58.8c-68.3,0-92.6,61.4-180.6,99.6
			C135.8-22.5,59.7-49.1,9.5-9.3c-49.2,39-74.8,127.7-74.8,188.2c0,86.3,28.5,93.8,60.3,149.7c31.6,55.4,85.3,27.2,167.9,26.5
			c75.7-0.6,177.3,28.3,277.4,28.3c100.3,0,179.6-12.4,273.8-49.8c55.4-22,148.2,10.1,206.2,21.5c124.7,24.5,304.3,54.7,326.7-110.9
			c0-79.6-7.9-216.3-124.8-247.3C1069.2-17.2,1034,14.9,855.3-91.1z"/>
	</g>
	<g class="st2">
		<defs>
			<rect id="SVGID_5_" y="0" width="143.4" height="80.7"/>
		</defs>
		<clipPath id="SVGID_6_" class="st3">
			<use xlink:href="#SVGID_5_"  style="overflow:visible;"/>
		</clipPath>
		<path class="st4" d="M132,4.1c0-2,1.8-2.9,5.1-2.6c0.1-1.4,0.8-2.6,2.4-3.3c0.5-0.2,1.1-0.5,1.6-0.5c1,0,1.3-0.3,1.5-1
			c1.1-3,4.9-5,8.9-4.6c4,0.3,7.2,2.8,7.6,6c0.1,0.5,0.2,0.7,0.8,0.9c1.9,0.5,3.2,1.6,4.1,3c3.2-0.3,4.7,0.4,4.8,2.3
			C156.5,4.1,144.3,4.1,132,4.1z"/>
	</g>
	<g class="st2">
		<defs>
			<rect id="SVGID_7_" y="0" width="143.4" height="80.7"/>
		</defs>
		<clipPath id="SVGID_8_" class="st3">
			<use xlink:href="#SVGID_7_"  style="overflow:visible;"/>
		</clipPath>
		<polygon class="st5" points="-24.3,30.3 175.8,39.4 -31.3,42.5 		"/>
	</g>
	<g class="st2">
		<defs>
			<rect id="SVGID_9_" y="0" width="143.4" height="80.7"/>
		</defs>
		<clipPath id="SVGID_10_" class="st3">
			<use xlink:href="#SVGID_9_"  style="overflow:visible;"/>
		</clipPath>
		<polygon class="st6" points="172,56.5 -18,54.4 173.5,63.6 		"/>
	</g>
	<g class="st2">
		<defs>
			<rect id="SVGID_11_" y="0" width="143.4" height="80.7"/>
		</defs>
		<clipPath id="SVGID_12_" class="st3">
			<use xlink:href="#SVGID_11_"  style="overflow:visible;"/>
		</clipPath>
		<path class="st7" d="M28.2,2.1c0.2-1,1.1-1.7,2.3-1.8c0.4,0,0.6-0.1,0.8-0.4c0.4-0.7,1-1.1,1.7-1.4c0.3-0.1,0.4-0.2,0.4-0.5
			c0-1.6,1-2.6,2.8-2.8c0.2,0,0.5-0.2,0.6-0.4c1.8-2.4,5-3.2,7.7-1.9c0.8,0.4,1.4,1,2,1.6c0.2,0.2,0.4,0.4,0.8,0.4
			c0.8,0,1.6,0.2,2.3,0.7c0.2,0.2,0.4,0.2,0.7,0c0.2-0.1,0.5-0.2,0.7-0.2c0.7,0.1,1.2-0.1,1.8-0.3c2.7-0.7,5.4,0.3,6.9,2.5
			c0.2,0.3,0.4,0.4,0.7,0.3c1.4-0.1,2.5,0.4,3.4,1.4c0.1,0.1,0.4,0.2,0.5,0.2c1.2-0.2,2.2,0.2,3,1.2C67.4,0.9,67.7,1,67.9,1
			c0.8,0.1,1.3,0.6,1.4,1.3C55.5,2.1,41.8,2.1,28.2,2.1z"/>
	</g>
	<g>
		<defs>
			<rect id="SVGID_13_" y="0" width="143.4" height="80.7"/>
		</defs>
		<clipPath id="SVGID_14_">
			<use xlink:href="#SVGID_13_"  style="overflow:visible;"/>
		</clipPath>
		<path class="st8" d="M809.6,371.7c-86.9,0-155.7,93.2-324.2,93.2c-172.6,0-227.3-121.5-337.1-91.9
			C-12,416.2-65.3,251.7-65.3,200.8c0,0,73.1-11.5,115.2-39.4c81.9-54.2,116.9-141.1,256.7-141.1c88.3,0,158,64.1,199.3,69.5
			C585.8,100.2,600,77,723,62.6c148.7-17.4,172.9,152.7,291.8,184c0,0,93.7,0.4,194.4,0.4c18.8,0,37.9-2.9,37.9-2.9
			c-5.3,80.3-88.3,171.1-157.6,181.4C973,443.1,884.4,371,809.6,371.7z"/>
	</g>
	<g>
		<defs>
			<rect id="SVGID_15_" y="0" width="143.4" height="80.7"/>
		</defs>
		<clipPath id="SVGID_16_">
			<use xlink:href="#SVGID_15_"  style="overflow:visible;"/>
		</clipPath>
		<path class="st9" d="M475.8,427.2c-61.7,0-115.9-10.6-156.5-30.5c-37.5-18.4-60.8-43.7-65.6-71.1c-4.6-26.2,11.2-55,45.6-83.4
			c11.6-9.6,24.2-18.3,36.4-26.7c14.3-9.9,29.1-20.2,42.2-31.7c30.6-27.1,44.3-64,34-91.8c-10.7-29.1-45-45.6-96.4-46.6
			c-1.9,0-3.8-0.1-5.7-0.1c-60.5,0-102.7,19-118.9,53.6c-12.7,27-7.5,62.7,12.6,86.8s30.8,46.6,31.7,66.6
			c0.8,17.4-5.6,33.7-19.2,48.4c-24,25.9-72.1,29.2-111.3,29.2c-35.2,0-67.9-0.9-117.7-1.7c0,0-17.4-19-30.5-47.9
			c46,4.3,105,9,152,9c59.2,0,76.7-16.9,81-27.8c7.2-18.3-2.9-37.6-14.7-59.9c-10.5-20.1-21.4-40.8-21.4-64.2
			c0-80.1,79.7-108.6,148-108.6c28.5,0,57.2,4.8,80.8,13.6c25.3,9.3,43.5,22.5,52.7,38c21,35.2,17.3,70.3-10.4,98.9
			c-10.8,11.1-26.2,23.2-42.6,35.9c-37.2,29-79.3,61.8-83.8,96.4c-2.1,16.3,8.8,30.5,32.5,42.1c23.3,11.4,53.4,17.4,69.3,20
			c16.6,2.7,38.2,4.1,62.5,4.1c48.1,0,99.6-5.5,137.9-14.6c44.3-10.6,68.6-25.3,68.6-41.5c0-9.7-11.4-21.7-31.2-33.2
			c-17-9.8-38.1-17.6-51.2-19l-5.6-0.6L600,246l1.8,0.5c63.2,16,92.8,48.6,98.9,71.6c3,11.3-0.4,23.8-9.9,36.1
			C662.9,390.5,580.1,427.2,475.8,427.2z"/>
	</g>
	<g>
		<defs>
			<rect id="SVGID_17_" y="0" width="143.4" height="80.7"/>
		</defs>
		<clipPath id="SVGID_18_">
			<use xlink:href="#SVGID_17_"  style="overflow:visible;"/>
		</clipPath>
		<path class="st10" d="M213.8,298.5c23.8-25.7,29.5-60.5-12.6-111.1c-38.8-46.5-32.6-147.9,114.4-145.2
			C439,44.5,439,133.6,379.9,185.9c-24.4,21.6-53.6,37.8-78.7,58.5c-25.1,20.7-49.9,49.7-44.6,80.6c9,51.6,88.5,99.2,219.2,99.2
			c131.3,0,234.1-59.7,222-105.3c-6-22.7-36-54.1-96.7-69.5l-14.4,17c26.2,2.8,85.1,30.5,85.1,55.1c0,50.2-191.1,68.1-272.5,55.1
			c-42.8-6.9-109.4-25.3-104.2-65.4c6.6-51.4,92.2-97.9,127.2-134.1c23-23.8,33-56.7,10-95.3c-42.1-70.6-276-78.7-276,55.5
			c0,48.5,50.3,88.6,35.9,125.2c-9.9,25.1-66.3,30.7-83.8,30.7c-47.8,0-114-5.1-150.5-9.9c7,14.3,15.7,28.6,26.5,41.7
			c38.4,0.9,85.4,1.8,120.2,1.8C141.2,326.8,190,324.2,213.8,298.5z"/>
	</g>
	<g>
		<defs>
			<rect id="SVGID_19_" y="0" width="143.4" height="80.7"/>
		</defs>
		<clipPath id="SVGID_20_">
			<use xlink:href="#SVGID_19_"  style="overflow:visible;"/>
		</clipPath>
		<g class="st11">
			<polygon class="st12" points="44.5,43.9 34.2,43.5 32.1,43.9 38.1,46.5 			"/>
			<polygon class="st13" points="80.1,36.9 55.4,33.8 53.2,34.3 70.4,39.8 			"/>
			<path class="st13" d="M55.2,41c-6.6-1-13.7-4.3-16.5-5.7C38,34.9,37,34.8,36.1,35l-3.8,0.8c0,0,8.9,7.9,7.2,9L55.2,41z"/>
			<path class="st14" d="M34.9,46.1c26.1-7.1,56.9-13,65.2-14c9-1.1,10.1,1.5,10.1,1.5s2.2,3.7-43.6,11.6c0,0-7,1.3-13.8,1.7
				s-17.6,0.5-17.6,0.5L34.9,46.1z"/>
			<polygon class="st14" points="68.4,38 54,34.3 53.6,34.4 66.3,38.5 			"/>
			<path class="st13" d="M53.5,46.8c6.9-0.4,13.1-1.7,13.1-1.7c33.5-5.8,41.4-9.3,43.1-10.7l0,0c0,0-2.1,0.6-3.7-0.8
				c0,0-6.2,2.2-28.3,6.9c-18.7,4-29.2,5.9-42.6,6.3l0.1,0.4C35.2,47.3,46.6,47.2,53.5,46.8z"/>
			<polygon class="st14" points="33.1,36.5 35.2,36.1 41.9,42.9 39.4,43.4 			"/>
			<path class="st13" d="M48.4,45.9l-8.8,3.6l-3.7,0.8l3.4-3.5c0.4-0.4,0.9-0.6,1.5-0.7l7.5-0.7C48.7,45.3,48.8,45.7,48.4,45.9z"/>
			<path class="st13" d="M91.1,39.4L71.4,57.5l-2.6,0.6l7.8-14.3l-1.8-1c-0.4-0.2-0.3-0.7,0.1-0.9c0.9-0.4,2.8-1.1,7.2-2.1
				c5-1.1,7.4-1.3,8.6-1.4C91.2,38.5,91.4,39,91.1,39.4z"/>
			<polygon class="st14" points="76.5,43.8 78.9,43.3 70.9,56.2 69.6,56.5 			"/>
			<g>
				<path class="st15" d="M73.6,41.1L73.6,41.1c-0.3,0.1-0.5-0.1-0.6-0.3v-0.3c-0.1-0.3,0.1-0.5,0.4-0.6l0,0
					c0.3-0.1,0.5,0.1,0.6,0.3l0.1,0.3C74.1,40.8,73.9,41.1,73.6,41.1z"/>
				<path class="st15" d="M75.6,40.7L75.6,40.7c-0.3,0.1-0.5-0.1-0.6-0.3v-0.3c-0.1-0.3,0.1-0.5,0.4-0.6l0,0
					c0.3-0.1,0.5,0.1,0.6,0.3l0.1,0.3C76.1,40.4,75.9,40.6,75.6,40.7z"/>
				<path class="st15" d="M77.6,40.3L77.6,40.3c-0.3,0.1-0.5-0.1-0.6-0.3l-0.1-0.3c-0.1-0.3,0.1-0.5,0.4-0.6l0,0
					c0.3-0.1,0.5,0.1,0.6,0.3l0.1,0.3C78,40,77.9,40.2,77.6,40.3z"/>
				<path class="st15" d="M79.6,39.9L79.6,39.9c-0.3,0.1-0.5-0.1-0.6-0.3l-0.1-0.3c-0.1-0.3,0.1-0.5,0.4-0.6l0,0
					c0.3-0.1,0.5,0.1,0.6,0.3l0.1,0.3C80,39.6,79.8,39.8,79.6,39.9z"/>
				<path class="st15" d="M81.5,39.4L81.5,39.4c-0.3,0.1-0.5-0.1-0.6-0.3l-0.1-0.3c-0.1-0.3,0.1-0.5,0.4-0.6l0,0
					c0.3-0.1,0.5,0.1,0.6,0.3l0.1,0.3C82,39.1,81.8,39.4,81.5,39.4z"/>
				<path class="st15" d="M83.5,39L83.5,39c-0.3,0.1-0.5-0.1-0.6-0.3l-0.1-0.3c-0.1-0.3,0.1-0.5,0.4-0.6l0,0
					c0.3-0.1,0.5,0.1,0.6,0.3l0.1,0.3C83.9,38.7,83.8,39,83.5,39z"/>
				<path class="st15" d="M85.5,38.6L85.5,38.6c-0.3,0.1-0.5-0.1-0.6-0.3L84.8,38c-0.1-0.3,0.1-0.5,0.4-0.6l0,0
					c0.3-0.1,0.5,0.1,0.6,0.3l0.1,0.3C85.9,38.3,85.7,38.5,85.5,38.6z"/>
				<path class="st15" d="M87.4,38.2L87.4,38.2c-0.3,0.1-0.5-0.1-0.6-0.3l-0.1-0.3c-0.1-0.3,0.1-0.5,0.4-0.6l0,0
					c0.3-0.1,0.5,0.1,0.6,0.3l0.1,0.3C87.9,37.9,87.7,38.1,87.4,38.2z"/>
				<path class="st15" d="M89.4,37.7L89.4,37.7c-0.3,0.1-0.5-0.1-0.6-0.3l-0.1-0.3c-0.1-0.3,0.1-0.5,0.4-0.6l0,0
					c0.3-0.1,0.5,0.1,0.6,0.3l0.1,0.3C89.9,37.4,89.7,37.7,89.4,37.7z"/>
				<path class="st15" d="M91.4,37.3L91.4,37.3c-0.3,0.1-0.5-0.1-0.6-0.3l-0.1-0.3c-0.1-0.3,0.1-0.5,0.4-0.6l0,0
					c0.3-0.1,0.5,0.1,0.6,0.3l0.1,0.3C91.8,37,91.7,37.3,91.4,37.3z"/>
				<path class="st15" d="M93.4,36.9L93.4,36.9c-0.3,0.1-0.5-0.1-0.6-0.3l-0.1-0.3c-0.1-0.3,0.1-0.5,0.4-0.6l0,0
					c0.3-0.1,0.5,0.1,0.6,0.3l0.1,0.3C93.8,36.6,93.6,36.8,93.4,36.9z"/>
				<path class="st15" d="M95.3,36.5L95.3,36.5c-0.3,0.1-0.5-0.1-0.6-0.3l-0.1-0.3c-0.1-0.3,0.1-0.5,0.4-0.6l0,0
					c0.3-0.1,0.5,0.1,0.6,0.3l0.1,0.3C95.8,36.2,95.6,36.4,95.3,36.5z"/>
				<path class="st15" d="M61.8,43.7L61.8,43.7c-0.3,0.1-0.5-0.1-0.6-0.3l-0.1-0.3c-0.1-0.3,0.1-0.5,0.4-0.6l0,0
					c0.3-0.1,0.5,0.1,0.6,0.3l0.1,0.3C62.3,43.4,62.1,43.6,61.8,43.7z"/>
				<path class="st15" d="M63.8,43.2L63.8,43.2c-0.3,0.1-0.5-0.1-0.6-0.3l-0.1-0.3c-0.1-0.3,0.1-0.5,0.4-0.6l0,0
					c0.3-0.1,0.5,0.1,0.6,0.3l0.1,0.3C64.2,42.9,64.1,43.2,63.8,43.2z"/>
				<path class="st15" d="M65.8,42.8L65.8,42.8c-0.3,0.1-0.5-0.1-0.6-0.3l-0.1-0.3c-0.1-0.3,0.1-0.5,0.4-0.6l0,0
					c0.3-0.1,0.5,0.1,0.6,0.3l0.1,0.3C66.2,42.5,66,42.8,65.8,42.8z"/>
				<path class="st15" d="M67.7,42.4L67.7,42.4c-0.3,0.1-0.5-0.1-0.6-0.3L67,41.8c-0.1-0.3,0.1-0.5,0.4-0.6l0,0
					c0.3-0.1,0.5,0.1,0.6,0.3l0.1,0.3C68.2,42.1,68,42.3,67.7,42.4z"/>
				<path class="st15" d="M69.7,42L69.7,42c-0.3,0.1-0.5-0.1-0.6-0.3L69,41.4c-0.1-0.3,0.1-0.5,0.4-0.6l0,0c0.3-0.1,0.5,0.1,0.6,0.3
					l0.1,0.3C70.1,41.7,70,41.9,69.7,42z"/>
				<path class="st15" d="M71.7,41.6L71.7,41.6c-0.3,0.1-0.5-0.1-0.6-0.3L71,41c-0.1-0.3,0.1-0.5,0.4-0.6l0,0
					c0.3-0.1,0.5,0.1,0.6,0.3l0.1,0.3C72.1,41.2,71.9,41.5,71.7,41.6z"/>
			</g>
			<path class="st15" d="M109,32.6c0,0,0.6,0.6-1.4,1.1c-0.5,0.1-1.1,0.1-1.5-0.1l0,0c0,0,2.5-0.5,1.8-1.4
				C108.1,32.3,108.5,32.4,109,32.6z"/>
		</g>
	</g>
</g>
</svg>
