<?xml version="1.0" encoding="utf-8"?>
<!-- Generator: Adobe Illustrator 22.1.0, SVG Export Plug-In . SVG Version: 6.00 Build 0)  -->
<svg version="1.1" id="Слой_1" xmlns="http://www.w3.org/2000/svg" xmlns:xlink="http://www.w3.org/1999/xlink" x="0px" y="0px"
	 viewBox="0 0 1280 800" style="enable-background:new 0 0 1280 800;" xml:space="preserve">
<style type="text/css">
	.st0{display:none;}
	.st1{display:inline;fill:#C5E5E5;}
	.st2{display:inline;opacity:0.45;fill:#FFFFFF;enable-background:new    ;}
	.st3{display:inline;fill:#6CA0AB;}
	.st4{display:inline;fill:#75AEB9;}
	.st5{display:inline;fill:#7BB7C2;}
	.st6{display:inline;fill:#58838B;}
	.st7{display:inline;fill:#426268;}
	.st8{display:inline;opacity:0.6;fill:#75AEB9;enable-background:new    ;}
	.st9{display:inline;fill:#9BB5B9;}
	.st10{display:inline;opacity:0.1;fill:#FFFFFF;enable-background:new    ;}
	.st11{fill:#875D46;}
	.st12{fill:#654635;}
	.st13{fill:#D1B951;}
	.st14{fill:#383530;}
	.st15{fill:#363847;}
	.st16{fill:#4E9DA3;}
	.st17{fill:#43888C;}
	.st18{fill:#7B6A1C;}
	.st19{opacity:0.3;fill:#232121;enable-background:new    ;}
	.st20{fill:#D7684B;}
	.st21{fill:#A14730;}
	.st22{fill:none;stroke:#595651;stroke-width:3.1586;stroke-miterlimit:10;}
	.st23{fill:none;stroke:#312A20;stroke-width:3.1586;stroke-linecap:round;stroke-linejoin:round;stroke-miterlimit:10;}
	.st24{fill:#E2E2E2;}
	.st25{fill:none;stroke:#312A20;stroke-width:2.6;stroke-linecap:round;stroke-linejoin:round;stroke-miterlimit:10;}
	.st26{fill:#C9C8C8;}
	.st27{fill:#595651;}
	.st28{fill:#262833;}
	
		.st29{fill:none;stroke:#434659;stroke-width:4.3058;stroke-linecap:round;stroke-linejoin:round;stroke-miterlimit:10;stroke-dasharray:10.7645;}
	.st30{fill:#3B767A;}
	.st31{fill:#2C595C;}
	.st32{fill:#DBBC32;}
	.st33{fill:#836B0B;}
	.st34{fill:#A48D26;}
	.st35{fill:#FFDF57;}
	.st36{fill:#FFE579;}
	.st37{fill:#41465F;}
	.st38{fill:#676B7F;}
	.st39{fill:#FF882A;}
	.st40{fill:#FFFFFF;}
	.st41{fill:#489196;}
	.st42{fill:none;stroke:#595651;stroke-width:3.2838;stroke-miterlimit:10;}
	.st43{fill:none;stroke:#312A20;stroke-width:3.2838;stroke-linecap:round;stroke-linejoin:round;stroke-miterlimit:10;}
</style>
<g id="Sky" class="st0">
	<path class="st1" d="M0,0h1280v800H0V0z M628.6,168.8C631,182,572.1,250.6,533,298"/>
</g>
<g id="Cloud1" class="st0">
	<path class="st2" d="M0,141.8L1280,96V75.2L0,42V141.8z"/>
</g>
<g id="Cloud2" class="st0">
	<path class="st2" d="M0,709.1v-37.4l593.2,17.5L0,709.1z"/>
</g>
<g id="Cloud3" class="st0">
	<path class="st2" d="M1280,553.4V490l-997,29.6L1280,553.4z"/>
</g>
<g id="Cloud4" class="st0">
	<path class="st2" d="M1280,347.4v-39.3l-570.7,18.4L1280,347.4z"/>
</g>
<g id="Plane" class="st0">
	<path class="st1" d="M749.8,183.2c3,16.4-70.1,101.4-118.6,160.3"/>
	<path class="st3" d="M445.8,189.7l-72-13.5l-15.5,2.3l41.6,29.5L445.8,189.7z"/>
	<path class="st4" d="M699.5,158.2l-173.6-52.4l-15.3,2.3l119.5,67.7L699.5,158.2z"/>
	<path class="st5" d="M373.8,176.2l65.8,15.9l6.2-2.4L373.8,176.2"/>
	<path class="st4" d="M522.5,172.8c-46.1-15.5-95.4-53.4-114.2-68.9c-5.2-4.2-11.9-6.1-18.5-5.1l-27.1,4.1c0,0,60.4,82.6,47.7,91
		L522.5,172.8L522.5,172.8z"/>
	<path class="st5" d="M525.8,105.3l156,57.4l18.5-4L525.8,105.3"/>
	<path class="st6" d="M377.6,201.5c186.5-42,405.5-67.8,464.1-69.9c63.6-2.3,71.1,23.6,71.1,23.6s14.6,36.7-311.3,67.2
		c0,0-49.4,5.2-98,2.9S379.3,213,379.3,213L377.6,201.5L377.6,201.5z"/>
	<path class="st6" d="M616.6,157.5l-100.2-48.6l-3.4,0.6l88.8,50.2L616.6,157.5z"/>
	<path class="st7" d="M601.4,222.4c141.3-13.3,218.6-27.7,260.8-39.7C616.6,237.4,379.3,213,379.3,213s75.6,10,124.1,12.3
		C552,227.6,601.4,222.4,601.4,222.4L601.4,222.4z"/>
	<path class="st8" d="M508.4,225.5c48.6,2.3,93-3.1,93-3.1C839.8,200,896,174.4,909,162.3c0,0-14.7,3.7-26.2-10.6
		c0,0-44.5,14.7-201.9,38.4c-133.1,20-207.6,28.2-302.2,18.7l0.6,4.2C379.3,213,459.9,223.2,508.4,225.5L508.4,225.5z"/>
	<path class="st6" d="M367.8,110l14.9-2.2l45.5,70.1l-18.1,2.8L367.8,110z"/>
	<path class="st7" d="M571.9,204.3l-7.2,1.1c-0.5,0.1-1-0.3-1-0.8l-1.6-10.6c-0.1-0.5,0.3-1,0.8-1l7.2-1.1c0.5-0.1,1,0.3,1,0.8
		l1.6,10.6C572.8,203.8,572.4,204.2,571.9,204.3z M586,202.2l-7.2,1.1c-0.5,0.1-1-0.3-1-0.8l-1.6-10.6c-0.1-0.5,0.3-1,0.8-1l7.2-1.1
		c0.5-0.1,1,0.3,1,0.8l1.6,10.6C586.8,201.6,586.5,202.1,586,202.2z M599.9,200.1l-7.2,1.1c-0.5,0.1-1-0.3-1-0.8l-1.6-10.6
		c-0.1-0.5,0.3-1,0.8-1l7.2-1.1c0.5-0.1,1,0.3,1,0.8l1.6,10.6C600.8,199.5,600.4,200,599.9,200.1z M614,198l-7.2,1.1
		c-0.5,0.1-1-0.3-1-0.8l-1.6-10.6c-0.1-0.5,0.3-1,0.8-1l7.2-1.1c0.5-0.1,1,0.3,1,0.8l1.6,10.6C614.8,197.4,614.5,197.9,614,198z
		 M628.1,195.8l-7.2,1.1c-0.5,0.1-1-0.3-1-0.8l-1.6-10.6c-0.1-0.5,0.3-1,0.8-1l7.2-1.1c0.5-0.1,1,0.3,1,0.8l1.6,10.6
		C628.9,195.3,628.6,195.8,628.1,195.8z M642.1,193.7l-7.2,1.1c-0.5,0.1-1-0.3-1-0.8l-1.6-10.6c-0.1-0.5,0.3-1,0.8-1l7.2-1.1
		c0.5-0.1,1,0.3,1,0.8l1.6,10.6C643,193.2,642.6,193.7,642.1,193.7z M656,191.6l-7.2,1.1c-0.5,0.1-1-0.3-1-0.8l-1.6-10.6
		c-0.1-0.5,0.3-1,0.8-1l7.2-1.1c0.5-0.1,1,0.3,1,0.8l1.6,10.6C656.8,191.1,656.5,191.6,656,191.6z M670,189.5l-7.2,1.1
		c-0.5,0.1-1-0.3-1-0.8l-1.6-10.6c-0.1-0.5,0.3-1,0.8-1l7.2-1.1c0.5-0.1,1,0.3,1,0.8l1.6,10.6C670.9,189,670.5,189.5,670,189.5z
		 M684.1,187.4l-7.2,1.1c-0.5,0.1-1-0.3-1-0.8l-1.6-10.6c-0.1-0.5,0.3-1,0.8-1l7.2-1.1c0.5-0.1,1,0.3,1,0.8l1.6,10.6
		C684.9,186.9,684.6,187.3,684.1,187.4z M698.1,185.3l-7.2,1.1c-0.5,0.1-1-0.3-1-0.8l-1.6-10.6c-0.1-0.5,0.3-1,0.8-1l7.2-1.1
		c0.5-0.1,1,0.3,1,0.8l1.6,10.6C699,184.8,698.6,185.2,698.1,185.3z M712.1,183.2l-7.2,1.1c-0.5,0.1-1-0.3-1-0.8l-1.6-10.6
		c-0.1-0.5,0.3-1,0.8-1l7.2-1.1c0.5-0.1,1,0.3,1,0.8l1.6,10.6C713,182.6,712.6,183.1,712.1,183.2z M726.2,181.1l-7.2,1.1
		c-0.5,0.1-1-0.3-1-0.8l-1.6-10.6c-0.1-0.5,0.3-1,0.8-1l7.2-1.1c0.5-0.1,1,0.3,1,0.8l1.6,10.6C727,180.5,726.7,181,726.2,181.1z
		 M740.2,179l-7.2,1c-0.5,0.1-1-0.3-1-0.8l-1.6-10.6c-0.1-0.5,0.3-1,0.8-1l7.2-1.1c0.5-0.1,1,0.3,1,0.8l1.6,10.6
		C741.1,178.4,740.7,178.9,740.2,179z M754.3,176.8l-7.2,1.1c-0.5,0.1-1-0.3-1-0.8l-1.6-10.6c-0.1-0.5,0.3-1,0.8-1l7.2-1.1
		c0.5-0.1,1,0.3,1,0.8l1.6,10.6C755.1,176.3,754.8,176.8,754.3,176.8z M768.3,174.7l-7.2,1.1c-0.5,0.1-1-0.3-1-0.8l-1.6-10.6
		c-0.1-0.5,0.3-1,0.8-1l7.2-1.1c0.5-0.1,1,0.3,1,0.8l1.6,10.6C769.2,174.2,768.8,174.6,768.3,174.7z M782.4,172.6l-7.2,1.1
		c-0.5,0.1-1-0.3-1-0.8l-1.6-10.6c-0.1-0.5,0.3-1,0.8-1l7.2-1.1c0.5-0.1,1,0.3,1,0.8l1.6,10.6C783.2,172.1,782.9,172.5,782.4,172.6z
		 M796.5,170.5l-7.2,1.1c-0.5,0.1-1-0.3-1-0.8l-1.6-10.6c-0.1-0.5,0.3-1,0.8-1l7.2-1.1c0.5-0.1,1,0.3,1,0.8l1.6,10.6
		C797.3,169.9,797,170.4,796.5,170.5z M810.5,168.4l-7.2,1.1c-0.5,0.1-1-0.3-1-0.8l-1.6-10.6c-0.1-0.5,0.3-1,0.8-1l7.2-1.1
		c0.5-0.1,1,0.3,1,0.8l1.6,10.6C811.3,167.8,811,168.3,810.5,168.4z"/>
	<path class="st4" d="M473.2,212.3L410,237.4l-26.5,4l24.9-29.5c2.6-3.1,6.4-4.8,10.5-4.8l53.3,0.3
		C475.1,207.4,475.8,211.3,473.2,212.3L473.2,212.3z M775.8,191.3L631,343.2l-18.9,2.8l59.5-126.5l-12.4-11c-2-1.9-2.2-5-0.3-7.1
		c0.4-0.4,0.8-0.8,1.3-1c6.3-3.3,20.3-7.9,51.6-12.7c35.3-5.3,52.5-5.6,60.9-4.6C776.8,183.5,778.6,188.4,775.8,191.3L775.8,191.3z"
		/>
	<path class="st6" d="M671.6,219.5l17.5-2.6l-60.8,113.4l-9.5,1.4L671.6,219.5z"/>
	<path class="st9" d="M655.2,191.1l-5.6,0.8c-0.4,0.1-0.7-0.2-0.8-0.6l-1.5-9.8c-0.1-0.4,0.2-0.7,0.6-0.8l5.6-0.8
		c0.4-0.1,0.7,0.2,0.8,0.6l1.5,9.8C655.9,190.7,655.6,191.1,655.2,191.1z M669.2,189l-5.6,0.8c-0.4,0.1-0.7-0.2-0.8-0.6l-1.5-9.8
		c-0.1-0.4,0.2-0.7,0.6-0.8l5.6-0.8c0.4-0.1,0.7,0.2,0.8,0.6l1.5,9.8C669.9,188.6,669.6,188.9,669.2,189z M683.3,186.9l-5.6,0.8
		c-0.4,0.1-0.7-0.2-0.8-0.6l-1.5-9.8c-0.1-0.4,0.2-0.7,0.6-0.8l5.6-0.8c0.4-0.1,0.7,0.2,0.8,0.6l1.5,9.8
		C683.9,186.5,683.7,186.8,683.3,186.9z M697.3,184.8l-5.6,0.8c-0.4,0.1-0.7-0.2-0.8-0.6l-1.5-9.8c-0.1-0.4,0.2-0.7,0.6-0.8l5.6-0.8
		c0.4-0.1,0.7,0.2,0.8,0.6l1.5,9.8C698,184.4,697.7,184.7,697.3,184.8z M711.3,182.7l-5.6,0.8c-0.4,0.1-0.7-0.2-0.8-0.6l-1.5-9.8
		c-0.1-0.4,0.2-0.7,0.6-0.8l5.6-0.8c0.4-0.1,0.7,0.2,0.8,0.6l1.5,9.8C712,182.2,711.7,182.6,711.3,182.7z M725.4,180.5l-5.6,0.8
		c-0.4,0.1-0.7-0.2-0.8-0.6l-1.5-9.8c-0.1-0.4,0.2-0.7,0.6-0.8l5.6-0.8c0.4-0.1,0.7,0.2,0.8,0.6l1.5,9.8
		C726,180.1,725.8,180.5,725.4,180.5z M739.4,178.4l-5.6,0.8c-0.4,0.1-0.7-0.2-0.8-0.6l-1.5-9.8c-0.1-0.4,0.2-0.7,0.6-0.8l5.6-0.8
		c0.4-0.1,0.7,0.2,0.8,0.6l1.5,9.8C740,178,739.8,178.4,739.4,178.4z M753.4,176.3l-5.6,0.8c-0.4,0.1-0.7-0.2-0.8-0.6l-1.5-9.8
		c-0.1-0.4,0.2-0.7,0.6-0.8l5.6-0.8c0.4-0.1,0.7,0.2,0.8,0.6l1.5,9.8C754.1,175.9,753.8,176.3,753.4,176.3z M767.5,174.2l-5.6,0.8
		c-0.4,0.1-0.7-0.2-0.8-0.6l-1.5-9.8c-0.1-0.4,0.2-0.7,0.6-0.8l5.6-0.8c0.4-0.1,0.7,0.2,0.8,0.6l1.5,9.8
		C768.1,173.8,767.8,174.2,767.5,174.2z M781.5,172.1l-5.6,0.8c-0.4,0.1-0.7-0.2-0.8-0.6l-1.5-9.8c-0.1-0.4,0.2-0.7,0.6-0.8l5.6-0.8
		c0.4-0.1,0.7,0.2,0.8,0.6l1.5,9.8C782.1,171.7,781.9,172,781.5,172.1z M795.5,170l-5.6,0.8c-0.4,0.1-0.7-0.2-0.8-0.6l-1.5-9.8
		c-0.1-0.4,0.2-0.7,0.6-0.8l5.6-0.8c0.4-0.1,0.7,0.2,0.8,0.6l1.5,9.8C796.2,169.6,795.9,169.9,795.5,170z M809.5,167.9l-5.6,0.8
		c-0.4,0.1-0.7-0.2-0.8-0.6l-1.5-9.8c-0.1-0.4,0.2-0.7,0.6-0.8l5.6-0.8c0.4-0.1,0.7,0.2,0.8,0.6l1.5,9.8
		C810.2,167.5,809.9,167.8,809.5,167.9z M571,203.8l-5.6,0.8c-0.4,0.1-0.7-0.2-0.8-0.6l-1.5-9.8c-0.1-0.4,0.2-0.7,0.6-0.8l5.6-0.8
		c0.4-0.1,0.7,0.2,0.8,0.6l1.5,9.8C571.7,203.4,571.4,203.7,571,203.8z M585.1,201.7l-5.6,0.8c-0.4,0.1-0.7-0.2-0.8-0.6l-1.5-9.8
		c-0.1-0.4,0.2-0.7,0.6-0.8l5.6-0.8c0.4-0.1,0.7,0.2,0.8,0.6l1.5,9.8C585.7,201.3,585.5,201.6,585.1,201.7z M599.1,199.6l-5.6,0.8
		c-0.4,0.1-0.7-0.2-0.8-0.6l-1.5-9.8c-0.1-0.4,0.2-0.7,0.6-0.8l5.6-0.8c0.4-0.1,0.7,0.2,0.8,0.6l1.5,9.8
		C599.8,199.1,599.5,199.5,599.1,199.6z M613.1,197.4l-5.6,0.8c-0.4,0.1-0.7-0.2-0.8-0.6l-1.5-9.8c-0.1-0.4,0.2-0.7,0.6-0.8l5.6-0.8
		c0.4-0.1,0.7,0.2,0.8,0.6l1.5,9.8C613.8,197,613.5,197.4,613.1,197.4z M627.2,195.3l-5.6,0.8c-0.4,0.1-0.7-0.2-0.8-0.6l-1.5-9.8
		c-0.1-0.4,0.2-0.7,0.6-0.8l5.6-0.8c0.4-0.1,0.7,0.2,0.8,0.6l1.5,9.8C627.8,194.9,627.5,195.3,627.2,195.3z M641.2,193.2l-5.6,0.8
		c-0.4,0.1-0.7-0.2-0.8-0.6l-1.5-9.8c-0.1-0.4,0.2-0.7,0.6-0.8l5.6-0.8c0.4-0.1,0.7,0.2,0.8,0.6l1.5,9.8
		C641.8,192.8,641.6,193.2,641.2,193.2z M904.1,144.6c0,0,4.1,6.6-10.4,9c-3.7,0.8-7.6,0.1-10.8-2c0,0,17.9-2.2,13.3-11.8
		C898.4,140.9,901.2,142.7,904.1,144.6z"/>
	<path class="st5" d="M775.8,191.3c2.7-3,1-7.8-3.1-8.2c-6.5-0.6-13.1-0.6-19.6-0.1c14.1,7.7-72.7,101-118.5,156.3L775.8,191.3
		L775.8,191.3z"/>
	<path class="st10" d="M841.7,131.6c-43.7,1.6-176.9,16.3-319.1,41.2c2.5-0.3,267.7-29,327-29c59.5,0,35,31.6,35,31.6
		c31.5-12,28.2-20.2,28.2-20.2S905.2,129.3,841.7,131.6z"/>
	<path class="st5" d="M472.3,207.4h-2l-60.2,30l63.2-25.1C475.8,211.3,475.1,207.4,472.3,207.4z"/>
</g>
<g id="Слой_7">
	<path class="st11" d="M72.4,2426l2.9-55.4l60.1-6l5.4,78.3l-40.2,21.8L72.4,2426z"/>
	<path class="st12" d="M344.3,1454c-9.9,19.5,8,35.5,19.7,15.2s9.4-73.9,9.4-73.9l-19.9,6.4C353.4,1401.8,354.2,1434.5,344.3,1454"
		/>
	<path class="st13" d="M49.7,2496.5c13.1,6.6,67.5,7.9,73.5,14.6c3.8,4.3-0.4,10.9-1,16.5c-2.7,26.7,151.5,27.6,224.4,18.4
		c38.3-4.9,44.7-10.8,42.7-19.1c-1.6-6.5-13.2-8.7-20.2-11.7s-14.9-4.1-22.7-5.3c-20.3-2.9-87.5-46.6-91.9-46.9
		c-41.9-3.2-66.4-2.9-108.5-2.9C38.8,2460.1,30.6,2486.9,49.7,2496.5L49.7,2496.5z"/>
	<path class="st14" d="M187,2343.4v0.2C187.1,2343.5,187.1,2343.5,187,2343.4L187,2343.4z"/>
	<path class="st15" d="M267.1,1797.8L110,1798"/>
	<path class="st11" d="M307.4,1263c0,0,37.2,16.7,53.2,58.4c11,28.6,3.3,64,24.4,56.9s38.2-55.3,2.4-112.3
		c-35.5-56.4-63.4-43.7-63.4-43.7L307.4,1263z"/>
	<path class="st16" d="M268.9,1016C208.9,941.4,92,776.1,48,786.9c-31.7,7.8,14.7,137.7,14.7,137.7
		c17.1,19.4,82.1,132.3,147.7,188.6c31.7,27.2,66.6,59.7,98.5,31.7C336.9,1120.4,301.6,1056.6,268.9,1016z"/>
	<path class="st16" d="M110.5,1134.9l191.6,130.5c6,4,13.8,4.2,19.9,0.3c11.7-7.2,21-17.7,26.7-30.1c2.6-6.8,0.7-14.5-4.5-19.5
		l-196.5-188.5C147.8,1027.5,58.6,1002.8,110.5,1134.9L110.5,1134.9z"/>
	<path class="st17" d="M126.1,1161.7c-13.4-25.5-79.9-181-92.4-212.3c12.9,46.6,36.4,142.1,72.1,202.5c11.8,20,24.1,41.8,39.4,54.4
		l121.2,160.5c4.4,5.7,11.8,8.4,18.8,6.7l5.7-1.6C251.9,1315.9,142.1,1192.1,126.1,1161.7z"/>
	<path class="st18" d="M277.3,769.6c0,0-0.2,11.9-1.3,21.7s-22.3-17.7-22.3-17.7L277.3,769.6z"/>
	<path class="st19" d="M28.7,1353.7c0,0,189.1,57.2,297.9-8.7c86.6-52.5-297.9-21.7-297.9-21.7L28.7,1353.7L28.7,1353.7z"/>
	<path class="st11" d="M121.7,687.1c11.8,14.8,6.4,43.7-7.9,59.1c26.9,10.5,65.1,14.9,91.6,3.6c-10.1-12.4-6.6-35.7-5.3-42.6
		c58.4-1.6,88,5.5,86.6-45.2c-0.7-24.6-2.6-47.4-5.8-71.8c-3-22.6-6.2-52.5-17.3-72.7c-18-32.8-80.7-33.5-109.9-20.9
		c-33.5,15.4-57,46.7-62.4,83.2C86,615.7,99.3,650.4,121.7,687.1L121.7,687.1z"/>
	<path class="st12" d="M68.6,2424.3c0,0,16.5,32.4,66,8.8l2.8,19.8l-32.1,11.4c-2.1,0.7-28.3-0.7-28.3-0.7l-11.2-19.1L68.6,2424.3
		L68.6,2424.3z"/>
	<path class="st20" d="M52.2,2466.5c0,0-0.2,5,6.6,16.9c0,0,189.6,16.9,189.9-9.2l-2.2-10.3c0,0-1.5-13.4-44.6-21
		c-5.1-0.9-10.3-2.2-15.5-3.9c-12.1-4-33.2-11.5-41.3-17.1c-1.2-0.8-2.8-0.6-3.5,0.4c-3.4,5.1-14.1,17.7-39.1,17.3
		c-17-0.3-25.7-8-30-15.4c-2.6-4.5-10.3-4.7-12.7-0.3C53.7,2435.1,47.3,2451.8,52.2,2466.5z"/>
	<path class="st21" d="M212.1,2445c-1.8-0.6-16.5-3.2-21.7-4.8c-12.4-3.8-34.3-11.1-42.8-16.6c-0.3-0.2-0.6-0.3-1-0.4l-3.7,7
		c0,0,53.3,16.3,61.1,17C211.8,2447.8,211.6,2446,212.1,2445z"/>
	<path class="st22" d="M159.1,2435.6c0.2,1.3-0.8,2.3-2.2,2.3c-1.4,0-2.6-1-2.8-2.4c-0.1-1.3,0.9-2.3,2.3-2.2
		C157.8,2433.3,159,2434.3,159.1,2435.6L159.1,2435.6z M176.6,2442.2c0.2,1.3-0.8,2.3-2.1,2.3s-2.6-1.1-2.7-2.3
		c-0.2-1.3,0.8-2.3,2.1-2.3S176.4,2440.9,176.6,2442.2z M193.5,2446.9c0.2,1.3-0.7,2.3-2,2.3s-2.5-1-2.7-2.3s0.7-2.3,2-2.2
		C192.1,2444.6,193.3,2445.7,193.5,2446.9z"/>
	<path class="st23" d="M156.6,2435.5c0,0,0.9-8.1,4.3-7.3 M178.5,2436c-4.7,0.4-4.4,6.2-4.4,6.2s-2.4-7.8-11.8-11.9 M182,2437.5
		c0,0,5.5,1.5,9.2,9.4c0,0,0.7-4.7,3.1-5.6"/>
	<path class="st21" d="M170.1,2471.7h-1.3c0.1-0.1,12.5-11,24.1-14.3c15.9-4.4,19.2-12.3,19.2-12.4l0.6,0.1
		c-0.1,0.3-3.1,8.6-19.4,13.1C181.9,2461.5,170.3,2471.6,170.1,2471.7L170.1,2471.7z"/>
	<path class="st24" d="M147.4,2423.3c-1.1,4.1-8.8,25.6-44.8,25.4c-32.3-0.2-42.8-15.5-45.1-20l2.4-4.7c2.4-4.4,10.1-4.2,12.7,0.3
		c4.3,7.4,12.9,15.1,30,15.4c24.9,0.4,35.7-12.2,39.1-17.3c0.7-1,2.3-1.2,3.5-0.4C145.8,2422.4,146.5,2422.9,147.4,2423.3
		L147.4,2423.3z"/>
	<path class="st21" d="M79.7,2472.2h-1.1c0-20.5-22.9-38.7-23.2-38.9l0.4-1C56,2432.5,79.7,2451.2,79.7,2472.2z"/>
	<path class="st25" d="M147.4,2423.5c0,0-20.3,19.5-8,22.2C151.4,2448.4,147.4,2423.5,147.4,2423.5z"/>
	<path class="st24" d="M246.6,2464l2.2,10.3c-0.5,26.7-180.1,23.7-197.5,12.1c-5.1-11.3,0.9-19.8,0.9-19.8s34.8,16.1,150.8,5
		c0,0,45.9-4.8,36-16.4C246.1,2460,246.6,2464,246.6,2464L246.6,2464z"/>
	<path class="st26" d="M239,2455.2c6.5,6.4-6.6,11.3-19.4,13.6l1.8,1.8c0,0,5.1,4.1,5.1,16.5c17-4.2,22.2-7.7,22.2-13.5l-2.4-10.3
		C246.4,2463.3,246.6,2459.8,239,2455.2L239,2455.2z"/>
	<path class="st27" d="M174.5,2492.6L185,2481c3.7-4.1,9.1-6.5,16.5-7.6c34.4-5,39.7-10.8,39.9-13.8c0.1-1.9-1.6-3.3-2.3-3.8
		l-0.3-0.2l0.2-0.3l1,0.7c0.6,0.4,1.1,0.9,1.5,1.5l0.3,0.5c0.3,0.6,0.4,1.2,0.3,1.9c-0.4,5.7-13.5,10.5-40.5,14.5
		c-6,0.5-11.7,3.2-16,7.4l-9.3,10.3l-0.4,0.5L174.5,2492.6L174.5,2492.6z"/>
	<path class="st11" d="M165.8,2466.6l4.2-55.3l64.7-4.6l4.2,78.1l-43.7,21.2L165.8,2466.6z"/>
	<path class="st15" d="M174.3,1453.3L147,2402.7c-0.1,3.2-2.1,6.1-5.1,7.3c-17.7,6.9-49.7,9.4-69.5-0.8c-2.4-1.2-4-3.6-4.3-6.3
		L7,1463L174.3,1453.3z"/>
	<path class="st28" d="M139.2,1455.3l-132.2-2L68,2403c0.3,2.7,1.9,5.1,4.3,6.3c10.9,4.8,22.7,7.1,34.6,6.8L139.2,1455.3z"/>
	<path class="st29" d="M139.2,1580.5L106.9,2412"/>
	<path class="st15" d="M112.8,1475.1l48.5,961.2c-0.1,4.1,2.1,8,5.8,9.8c15,7.5,52,11.6,68.4,4.8c3.4-1.4,5.8-4.4,6.4-8l76.4-1044.6
		L112.8,1475.1L112.8,1475.1z"/>
	<path class="st28" d="M112.8,1468.2l47.1,940.7l1.1,27c-0.1,4.1,2.1,8,5.8,9.8c2.3,1.1,20.1,7.9,35,7.9l21.5-1000.2L112.8,1468.2z"
		/>
	<path class="st29" d="M223.3,1453.3l-21.5,1000.2"/>
	<path class="st30" d="M321.3,1388.9v35.5c0,0-184.8,118.2-314.5,63.8l-5.1-32.7L321.3,1388.9L321.3,1388.9z"/>
	<path class="st31" d="M297.5,1414.6v23.4l23.8-13.7v-27.5L297.5,1414.6z"/>
	<path class="st12" d="M164.3,621.4c0,0-17.3-6.2-16.1-26.9c1.4-23.3,19.3-21.8,19.3-21.8s-16-0.5-17.3,22
		C149.4,605.6,154.8,616,164.3,621.4z M280.6,693.2c-21.2,19.9-87.5,0.2-87.5,0.2l5.5,13.9C222.9,709.4,270.8,710.6,280.6,693.2
		L280.6,693.2z"/>
	<path class="st16" d="M292.3,783.8c0,0-75.6-36.8-87.6-41.1c-76.1,22.4-83.9-6.5-87.1-5.2v-0.1c0,0-68.7,28.6-101.8,95.3
		c-50.6,102-33.6,625.4-12,636.4c110.8,56,320.5-55.5,320.6-70.8c0.5-77.6,7.1-382.2-10.2-556.9
		C309.6,794.2,293.3,785.8,292.3,783.8L292.3,783.8z"/>
	<path class="st17" d="M105.8,852c0,0,76.5,24.5,125.3,158.4c37.9,104,71.9,236.6,61.8,269.4c-19.1,62-245.6,84.5-288.1,55.4
		c-21.6-14.8-62-290.2-19-408.8C27.4,812.3,105.8,852,105.8,852L105.8,852z"/>
	<path class="st32" d="M276.5,1276.4c0,0,59.3-69.1,72.3-150.3c1.1-7.1,1-14.3-0.1-21.4l-6.5-32c-4.8,33.5-2.8,91.8-90.9,162.4
		C249.2,1236.8,276.5,1276.4,276.5,1276.4z"/>
	<path class="st30" d="M37.1,860.6c0,0-41.6-38.5,26.6-46.1c68.2-7.5,22.8,49.9,22.8,49.9s27-52.3-25.5-41.2
		C8.5,834.4,37.1,860.6,37.1,860.6L37.1,860.6z"/>
	<path class="st32" d="M37.1,860.6c0,0-43.3-47.5,24.9-55.1c68.2-7.5,22.8,49.9,22.8,49.9s27-52.3-25.5-41.2S37.1,860.6,37.1,860.6
		L37.1,860.6z"/>
	<path class="st16" d="M78.5,1337.4c0,0,13,38.7,12.3,48.3s-31.5,32.6-53.9,26.9c-22.3-5.7-29.8-88.4-29.8-88.4L78.5,1337.4z"/>
	<path class="st33" d="M78.5,1389.5c0,0,8-2.4-43.6-113.2l-19.1,1.2l14.6,117.6c0,0,20.4,3.5,22.1,3.2
		C54.3,1398,78.5,1389.5,78.5,1389.5L78.5,1389.5z"/>
	<path class="st32" d="M-25.9,1293.9c0,0,14.8,55.9,37.1,100.9c7.4,15.1,25.4,21.8,40.9,15c10.4-4.4,19.5-11.4,26.5-20.3
		c0,0-24.6-1.9-58.5-109.1C20.1,1280.4-25.9,1293.9-25.9,1293.9z"/>
	<path class="st34" d="M-4.1,919.1c0,0-33.7-7.5-8.3-35.4s24.4-30.5,42.5-22.1C30.1,861.6-4.1,919.1-4.1,919.1z"/>
	<path class="st35" d="M-39.3,1296.5c-75-418.8,82.6-460.1,107.9-454.6c33-4.4,149.5,58.6,217.9,417.6c3.1,16.5-5.2,33.1-20.4,40.3
		c-25.2,11.9-71.2,29.2-146.9,43C-14.2,1367-35.4,1318.7-39.3,1296.5L-39.3,1296.5z"/>
	<path class="st36" d="M-24.2,1009.6c0,0,66.3,0.3,136.8-24c0,0,13.9,29,14.2,44.3c0,0-111.2,36.2-143.7,19.5L-24.2,1009.6
		L-24.2,1009.6z M-18.3,1181.5c0,0,125.2-42.8,187.3-26.2c0,0,7.2,74.2,27.9,111.7c0,0-55.7,37.6-118.7,41.1s-75.6-12-75.6-12
		S-23.3,1245-18.3,1181.5z"/>
	<path class="st32" d="M-16.6,1151.8c2.5-2,82.2,10.5,175-24.6c0,0,14.5-1.4,20.4,31.1c0,0-99.3,44.7-208.7,25.8
		C-30,1184.2-34.1,1165.6-16.6,1151.8z"/>
	<path class="st34" d="M342.2,1072.6c0,0-3.9,82.8-65.2,140v7.7C277,1220.3,344.1,1161.4,342.2,1072.6z M349.6,1120.6
		c0,0-9.9,75.5-70.6,143.9l8.2-0.6C287.2,1264,344.7,1189.1,349.6,1120.6z"/>
	<path class="st32" d="M8.3,1293.9c0,0-23.6-23.6-27.1-89.4c0,0-6.2,50.7,19.1,98.4c0,0,94.1,44.1,196.7-35.9
		C197,1267,79.4,1330.2,8.3,1293.9z M-24.5,1007.1c0,0-4.2,35.7,8.6,47c0,0,51,9.7,143.4-20.2c0,0,1.5-26.9-14.9-48.2
		c0,0,9,35.5,4.2,40.6c0,0-64.7,28.9-129,20.7C-12.2,1047-21.4,1035.8-24.5,1007.1L-24.5,1007.1z"/>
	<path class="st32" d="M199.4,1324.2c21-6.8,55.3-19,66.8-24.4c15.2-7.2,23.5-23.8,20.4-40.3c-68.4-359-184.9-421.9-217.9-417.6
		c-13.9-3-68.1,8.2-101.3,89.1c0,0,19.6-43,67-51.6c64.3-11.7,98,38.6,132.2,127.4c33.7,87.5,67.7,216.2,74.1,254.7
		C246.2,1295.9,217.8,1318.4,199.4,1324.2L199.4,1324.2z"/>
	<path class="st30" d="M113.9,744.6c0,0,11.1,26.1,93.8,6.4C207.7,751,125.1,778.4,113.9,744.6z"/>
	<path class="st37" d="M118.2,693.4c-6.7-21.1-33.8-83-48.7-135.1c-9.4-32.9,5-67.9,34.7-84.7c54-30.7,123.2-69.9,159.8-63.4
		c54.4,9.7,33.6,82.4-9.7,115.3c-31.6,24-49.8,3-58.9,20.5c-6.5,12.6,20.9,16.9,9.1,35c-12.8,19.7-13.8-17-35.7-16.9
		s-34.3,34.4-18.1,52.9c9.9,11.2,16.6,17.5,26.8,27.7c7.8,7.9,8.4,20.4,1.3,28.9c-8.4,9.9-23.5,21.2-50.2,26
		C124,700.4,119.6,697.8,118.2,693.4L118.2,693.4z"/>
	<path class="st38" d="M264,410.3c-12.4-1.4-25,0-36.9,4c0.2,0,91.1-8.2,36.6,103.1h0.2C300.3,481.9,314.3,419.2,264,410.3
		L264,410.3z"/>
	<path class="st34" d="M46.7,1349.4c0,0,17.6,36.6,31.9,40.2l-2.7,3.4c0,0-21.3-9.2-33.1-43.9C42.8,1349.1,46.7,1349.4,46.7,1349.4z
		 M8.5,1389.3c-8.3-15.8-22-55.1-22-55.1l5,2.9c0.2,0.1,22,73,44.9,75.3c0,0-10.3,0-18.2-8.2S8.5,1389.3,8.5,1389.3L8.5,1389.3z"/>
	<g>
		
			<ellipse transform="matrix(9.089790e-03 -1 1 9.089790e-03 -1045.2554 1144.9999)" class="st39" cx="55.1" cy="1099.9" rx="29.8" ry="29.8"/>
		<path class="st40" d="M31.6,1095.3c-0.6-0.2-1.2-0.6-1.6-1.1c-0.4-0.5-0.7-1.1-0.8-1.8c-0.1-0.7-0.1-1.4,0.2-2
			c0.2-0.6,0.6-1.1,1.2-1.5c0.6-0.4,1.3-0.7,2-0.8c0.8-0.1,1.5-0.1,2.1,0.1c1.3,0.4,2.2,1.6,2.4,2.9c0.1,0.7,0.1,1.4-0.2,2
			c-0.2,0.6-0.6,1.1-1.2,1.5c-0.6,0.4-1.2,0.7-1.9,0.8C32.9,1095.5,32.2,1095.5,31.6,1095.3z M34.6,1092.9c0.3-0.4,0.4-0.9,0.3-1.5
			c-0.1-0.6-0.4-1.1-0.8-1.4c-0.4-0.3-0.9-0.4-1.4-0.3s-0.9,0.3-1.2,0.8c-0.3,0.4-0.4,0.9-0.3,1.5s0.4,1.1,0.8,1.4
			c0.4,0.3,0.9,0.4,1.4,0.3C33.9,1093.6,34.3,1093.3,34.6,1092.9z M44.7,1086.8c0.6,0.4,1,1.2,1.2,2.2l0.7,4.1l-2.1,0.3l-0.6-3.8
			c-0.1-0.6-0.3-1-0.6-1.2s-0.7-0.3-1.1-0.2c-0.5,0.1-0.9,0.3-1.2,0.7c-0.3,0.4-0.3,0.9-0.2,1.5l0.6,3.5l-2.1,0.3l-1.2-7.2l2-0.3
			l0.1,0.8l0.9-0.9l1.3-0.5C43.3,1086.2,44.1,1086.4,44.7,1086.8z M55.4,1088.6l-5.4,0.9c0.2,0.4,0.5,0.7,0.9,0.9
			c0.4,0.2,0.9,0.3,1.4,0.2l1-0.3l0.7-0.7l1.3,1c-0.5,0.9-1.5,1.4-2.8,1.6c-0.8,0.1-1.6,0.1-2.2-0.1c-0.7-0.2-1.2-0.6-1.7-1.1
			c-0.4-0.5-0.7-1.1-0.8-1.8c-0.1-0.7-0.1-1.4,0.2-2c0.2-0.6,0.6-1.1,1.2-1.5c0.6-0.4,1.2-0.7,1.9-0.8c0.7-0.1,1.4-0.1,2,0.1
			s1.1,0.6,1.6,1.1c0.4,0.5,0.7,1.1,0.8,1.9C55.3,1088.1,55.3,1088.3,55.4,1088.6L55.4,1088.6z M50.1,1087.1
			c-0.3,0.3-0.4,0.7-0.4,1.2l3.5-0.6c-0.1-0.4-0.4-0.8-0.8-1c-0.4-0.2-0.8-0.3-1.2-0.2C50.8,1086.6,50.4,1086.8,50.1,1087.1z
			 M36.8,1106.7l-0.7,0.5l-0.9,0.3c-0.9,0.1-1.5,0-2.1-0.3c-0.5-0.4-0.9-1-1-1.8l-0.5-2.9l-1.1,0.2l-0.3-1.6l1.1-0.2L31,1099
			l2.1-0.3l0.3,1.7l1.8-0.3l0.3,1.6l-1.8,0.3l0.5,2.9c0,0.3,0.2,0.5,0.3,0.7c0.2,0.1,0.4,0.2,0.7,0.1l0.8-0.4L36.8,1106.7
			L36.8,1106.7z M48.5,1097.7l-1.4,7.6l-2,0.3l-2.3-4.2l-0.9,4.7l-2,0.3l-3.8-6.7l2-0.3l2.5,4.6l1-5.1l1.8-0.3l2.5,4.6l0.9-5.1
			L48.5,1097.7z M52.1,1104.1c-0.6-0.2-1.2-0.6-1.6-1.1c-0.4-0.5-0.7-1.1-0.8-1.8c-0.1-0.7-0.1-1.4,0.2-2c0.2-0.6,0.6-1.1,1.2-1.5
			c0.6-0.4,1.3-0.7,2-0.8c0.8-0.1,1.5-0.1,2.1,0.1c1.3,0.4,2.2,1.6,2.4,2.9c0.1,0.7,0.1,1.4-0.2,2c-0.2,0.6-0.6,1.1-1.2,1.5
			c-0.6,0.4-1.2,0.7-1.9,0.8C53.6,1104.4,52.8,1104.3,52.1,1104.1z M55.2,1101.8c0.3-0.4,0.4-0.9,0.3-1.5c-0.1-0.6-0.4-1.1-0.8-1.4
			c-0.4-0.3-0.9-0.4-1.4-0.3s-0.9,0.3-1.2,0.8c-0.3,0.4-0.4,0.9-0.3,1.5c0.1,0.6,0.4,1.1,0.8,1.4c0.4,0.3,0.9,0.4,1.4,0.3
			C54.5,1102.5,54.9,1102.2,55.2,1101.8z M35.4,1118.2c-0.6-0.2-1.2-0.6-1.6-1.1c-0.4-0.5-0.7-1.1-0.8-1.8c-0.3-1.3,0.3-2.7,1.4-3.5
			c1.2-0.8,2.7-1.1,4.1-0.7c0.6,0.2,1.1,0.6,1.5,1.1l-1.5,1.1c-0.5-0.6-1.1-0.8-1.8-0.7c-0.5,0.1-1,0.3-1.3,0.8
			c-0.3,0.4-0.4,0.9-0.3,1.5s0.4,1.1,0.8,1.4c0.4,0.3,0.9,0.4,1.4,0.3c0.7-0.1,1.2-0.5,1.5-1.3l1.8,0.6c-0.2,0.6-0.5,1.1-1,1.5
			c-0.5,0.4-1.1,0.7-1.9,0.8C36.7,1118.4,36,1118.4,35.4,1118.2L35.4,1118.2z M47.5,1109.9c0.7,0.4,1.1,1.2,1.3,2.2l0.7,4.1
			l-1.9,0.3l-0.1-0.9c-0.3,0.7-1,1.2-2,1.4H44c-0.4-0.1-0.8-0.3-1.1-0.6c-0.3-0.3-0.4-0.6-0.5-1.1c-0.1-0.6,0.1-1.2,0.5-1.7
			c0.4-0.5,1.2-0.8,2.2-1l1.7-0.3c-0.1-0.5-0.3-0.8-0.6-1s-0.7-0.3-1.3-0.2l-1.1,0.4l-0.9,0.6l-1-1.3l1.3-0.9l1.6-0.5
			C45.9,1109.3,46.8,1109.5,47.5,1109.9z M46.5,1115.1l0.5-0.8l-0.1-0.7l-1.4,0.2c-0.9,0.1-1.2,0.5-1.1,1.1c0,0.3,0.2,0.5,0.4,0.6
			s0.5,0.2,0.9,0.1L46.5,1115.1L46.5,1115.1z M54.4,1108.2l1.4-0.5l0.3,1.9l-0.5,0.1c-0.6,0.1-1,0.3-1.3,0.7
			c-0.3,0.4-0.4,0.9-0.3,1.6l0.6,3.4l-2.1,0.3l-1.2-7.2l2-0.3l0.2,0.9C53.7,1108.8,54,1108.4,54.4,1108.2z M65.9,1110.4l-5.4,0.9
			c0.2,0.4,0.5,0.7,0.9,0.9c0.4,0.2,0.9,0.3,1.4,0.2l1-0.3l0.7-0.7l1.3,1c-0.5,0.9-1.5,1.4-2.8,1.6c-0.8,0.1-1.6,0.1-2.2-0.1
			c-0.7-0.2-1.2-0.6-1.7-1.1c-0.4-0.5-0.7-1.1-0.8-1.8c-0.1-0.7-0.1-1.4,0.2-2c0.2-0.6,0.6-1.1,1.2-1.5c0.6-0.4,1.2-0.7,1.9-0.8
			c0.7-0.1,1.4-0.1,2,0.1s1.1,0.6,1.6,1.1c0.4,0.5,0.7,1.1,0.8,1.9C65.8,1109.9,65.9,1110.1,65.9,1110.4L65.9,1110.4z M60.6,1108.9
			c-0.3,0.3-0.4,0.7-0.4,1.2l3.5-0.6c-0.1-0.4-0.4-0.8-0.8-1c-0.4-0.2-0.8-0.3-1.2-0.2C61.3,1108.4,60.9,1108.6,60.6,1108.9z
			 M75.5,1108.8l-5.4,0.9c0.2,0.4,0.5,0.7,0.9,0.9c0.4,0.2,0.9,0.3,1.4,0.2l1-0.3l0.7-0.7l1.3,1c-0.5,0.9-1.5,1.4-2.8,1.6
			c-0.8,0.1-1.6,0.1-2.2-0.1c-0.7-0.2-1.2-0.6-1.7-1.1c-0.4-0.5-0.7-1.1-0.8-1.8c-0.1-0.7-0.1-1.4,0.2-2c0.2-0.6,0.6-1.1,1.2-1.5
			c0.6-0.4,1.2-0.7,1.9-0.8c0.7-0.1,1.4-0.1,2,0.1s1.1,0.6,1.6,1.1c0.4,0.5,0.7,1.1,0.8,1.9L75.5,1108.8L75.5,1108.8z M70.3,1107.3
			c-0.3,0.3-0.4,0.7-0.4,1.2l3.5-0.6c-0.1-0.4-0.4-0.8-0.8-1s-0.8-0.3-1.2-0.2C70.9,1106.8,70.5,1107,70.3,1107.3z M80.5,1103.9
			l1.4-0.5l0.3,1.9l-0.5,0.1c-0.6,0.1-1,0.3-1.3,0.7c-0.3,0.4-0.4,0.9-0.3,1.6l0.6,3.4l-2.1,0.3l-1.2-7.2l2-0.3l0.2,0.9
			C79.8,1104.5,80.1,1104.1,80.5,1103.9z"/>
	</g>
	<path class="st41" d="M193.9,956.5c0,0-26.2-134.6,81.3-181.5l-40.1-22l-76.7,149.7L193.9,956.5L193.9,956.5z"/>
	<path class="st32" d="M176.6,969.4l-25.7-52.2c0,0-10.1-109,83.1-164.9c0,0,11.6-0.5,42.1,15.6c1.9,1,2.6,3.4,1.6,5.3
		c-0.5,0.9-1.4,1.6-2.4,1.9C248.7,781.6,192.6,806.1,176.6,969.4L176.6,969.4z"/>
	<path class="st34" d="M154.6,901.2l-4.1-4.8c0,0,0-96,83.4-144.3l5.4,0.3C239.3,752.5,158.4,801.4,154.6,901.2L154.6,901.2z
		 M180.3,939.5c0,0,15.9-147.4,94.9-164.5c3.7-0.8,4.3-5.9,0.9-7.6H276c0,0-77.3,8.4-99.4,167.2L180.3,939.5L180.3,939.5z"/>
	<path class="st11" d="M346.5,1395.9c0,0,21.7,34.5,12,78c-6.7,29.9-32.7,55.2-11.1,60.9c21.5,5.8,62.4-24.9,64.1-92.2
		c1.6-66.6-28.6-71.5-28.6-71.5L346.5,1395.9L346.5,1395.9z"/>
	<path class="st16" d="M343.4,1097.3c-8.7-95.3-14.7-297.7-57.2-313c-30.7-11-63.9,122.9-63.9,122.9c3.5,25.6-4.8,155.6,18.7,238.8
		c11.3,40.2,22.5,86.6,64.5,80.9C342.3,1221.9,348.1,1149.2,343.4,1097.3L343.4,1097.3z"/>
	<path class="st16" d="M253.4,1180.3l87.4,214.7c2.8,6.6,9.2,11,16.4,11.3c9.7,0.2,27-1.8,38.9-10.3c5.9-4.3,8.6-11.7,7-18.8
		l-59.4-265.8C343.8,1111.4,283.2,1041.4,253.4,1180.3L253.4,1180.3z"/>
	<path class="st17" d="M258.1,1161c-6.4-28.1-30.7-195.4-34.8-228.9c0.5,48.3-1.4,146.7,17.7,214.2c6.3,22.3,12.5,46.6,24.1,62.7
		l75.9,186.3c2.8,6.6,9.2,11,16.4,11.3l5.9-0.1C340,1342.4,265.8,1194.6,258.1,1161L258.1,1161z"/>
	<path class="st30" d="M223.5,923c0,0,20.8-150.3,68.8-139.3C292.3,783.8,233,746.8,223.5,923L223.5,923z"/>
	<path class="st31" d="M347.9,1398.3c0,0,33.9,6.9,50.2-16C398.1,1382.3,379,1397.5,347.9,1398.3z"/>
	<g>
		<path class="st20" d="M145.5,2506.6c0,0,1.9,10.1,7.9,22.3c0,0,210.7,26.1,219.7-5.7l0.4-13.2c0,0,2.5-17.7-56.2-28.2
			c-6.7-1.2-13.2-2.9-19.6-5.1c-14.7-5.1-39.8-14.3-48.9-21.3c-1.3-1-3.3-0.7-4.3,0.6c-11,14.5-28.5,22.6-46.7,21.7
			c-18-0.3-26.6-9.1-30.6-17.7c-2.5-5.2-10.3-5.3-13-0.1C147.8,2472.7,141.1,2491,145.5,2506.6L145.5,2506.6z"/>
		<path class="st24" d="M373.5,2510l-0.4,13.2c-7.4,29.9-218.9,16.3-224.2,9.5c-6.7-14.1-3.4-26.1-3.4-26.1
			c7,6.5,12.8,11.7,117.7,12.2c15.4,0.1,32.7-2,52.7-2c0,0,60.1-3.1,49.6-18.5C374.2,2504.7,373.5,2510,373.5,2510L373.5,2510z"/>
		<path class="st21" d="M324.6,2483.2l-7.4-1.4c-6.7-1.2-13.2-2.9-19.6-5.1c-14.7-5.1-39.8-14.3-48.9-21.3c-0.3-0.3-0.7-0.4-1.1-0.5
			l-1.4,11.2c0,0,57.3,18.8,67.1,19.8C323.3,2487,324.6,2483.2,324.6,2483.2z"/>
		<path class="st26" d="M365.5,2498.3c6.3,9.2-12.7,14-29,16.4l1.8,2.3c0,0,5.2,5.6,1.7,20.3c18.5-2.6,31.2-7,33.2-14.1l0.4-13.2
			C373.5,2510,374.2,2504.7,365.5,2498.3z"/>
		<path class="st27" d="M271.9,2540.3l14.8-12.5c6.5-4.9,14.3-7.8,22.4-8.1c47.7-4.6,57.1-11.8,58.4-15.7c0.8-2.4-1.2-4.4-2.1-5.1
			l-0.3-0.3l0.4-0.4l1.2,1c0.7,0.6,1.3,1.2,1.8,2l0.3,0.6c0.2,0.8,0.2,1.6-0.1,2.5c-2.5,7.4-22.5,12.9-59.4,16.4
			c-7.9,0.4-15.4,3.1-21.7,7.8l-13.2,11.1l-0.5,0.5L271.9,2540.3L271.9,2540.3z"/>
		
			<ellipse transform="matrix(0.9972 -7.497873e-02 7.497873e-02 0.9972 -184.6386 26.4906)" class="st42" cx="260.5" cy="2472.3" rx="3.1" ry="2.9"/>
		
			<ellipse transform="matrix(0.9972 -7.497873e-02 7.497873e-02 0.9972 -185.2024 28.0585)" class="st42" cx="281.1" cy="2480.6" rx="3.1" ry="2.9"/>
		
			<ellipse transform="matrix(0.9972 -7.497873e-02 7.497873e-02 0.9972 -185.6015 29.6427)" class="st42" cx="302" cy="2486.7" rx="3.1" ry="2.9"/>
		<path class="st43" d="M260.5,2472.4c0,0,2.6-10.3,6.7-9.4 M288,2472.8c-6.2,0.6-6.9,7.9-6.9,7.9s-1.4-9.9-12.5-15 M292.1,2474.8
			c0,0,6.9,1.9,9.8,12c0,0,2-6,5.4-7.1"/>
		<path class="st24" d="M251.3,2457.1c-2,5.3-14.3,31.6-54.3,31c-33.3-0.5-43.2-17.6-45.4-22.7c0.8-1.9,1.7-3.7,2.6-5.4
			c2.6-5.2,10.5-5.1,13,0.1c4,8.5,12.6,17.4,30.6,17.7c18.2,1,35.7-7.2,46.7-21.7c1-1.3,3-1.6,4.3-0.6L251.3,2457.1L251.3,2457.1z"
			/>
		<path class="st21" d="M267.2,2518.3h-1.7c0.2-0.1,16.7-14.9,31.9-19.2c21.7-6.1,26.5-15.9,26.6-16l1.1,0.4
			c-0.2,0.4-5.1,10.3-27.3,16.6C282.8,2504.3,267.4,2518.1,267.2,2518.3z M175.1,2515.7H174c-0.6-21.8-24.6-44.2-24.8-44.4l0.5-1.2
			C149.8,2470.4,174.4,2493.4,175.1,2515.7L175.1,2515.7z"/>
		<path class="st43" d="M254.5,2460.1c0,0-41.9,11.6-29.5,23S254.5,2460.1,254.5,2460.1z"/>
	</g>
</g>
</svg>
