<svg xmlns="http://www.w3.org/2000/svg" viewBox="0 0 1280 800"><style>.st0{display:none}.st1,.st2{display:inline;fill:#c5e5e5}.st2{opacity:.45;fill:#fff}.st6{fill:#75aeb9}.st7{fill:#7bb7c2}.st8{fill:#58838b}.st9{fill:#426268}.st11{fill:#9bb5b9}.st13{fill:#875d46}.st14{fill:#654635}.st17{fill:#363847}.st18{fill:#4e9da3}.st19{fill:#43888c}.st22{fill:#d7684b}.st23{fill:#a14730}.st24,.st25{fill:none;stroke:#595651;stroke-width:3.1586;stroke-miterlimit:10}.st25{stroke:#312a20;stroke-linecap:round;stroke-linejoin:round}.st26{fill:#e2e2e2}.st28{fill:#c9c8c8}.st29{fill:#595651}.st31{fill:#262833}.st32{fill:none;stroke:#434659;stroke-width:4.3058;stroke-linecap:round;stroke-linejoin:round;stroke-miterlimit:10;stroke-dasharray:10.7645}.st33{fill:#3b767a}.st34{fill:#2c595c}.st35{fill:#dbbc32}.st37{fill:#a48d26}.st39{fill:#ffe579}.st43{fill:#fff}.st45,.st46{fill:none;stroke:#595651;stroke-width:3.2838;stroke-miterlimit:10}.st46{stroke:#312a20;stroke-linecap:round;stroke-linejoin:round}</style><g id="Sky" class="st0"><path d="M0 0h1280v800H0zM628.6 168.8C631 182 572.1 250.6 533 298" class="st1"/></g><g id="Cloud1" class="st0"><path d="M0 141.8L1280 96V75.2L0 42z" class="st2"/></g><g id="Cloud2" class="st0"><path d="M0 709.1v-37.4l593.2 17.5z" class="st2"/></g><g id="Cloud3" class="st0"><path d="M1280 553.4V490l-997 29.6z" class="st2"/></g><g id="Cloud4" class="st0"><path d="M1280 347.4v-39.3l-570.7 18.4z" class="st2"/></g><g id="Plane" class="st0"><path fill="#c5e5e5" d="M749.8 183.2c3 16.4-70.1 101.4-118.6 160.3"/><path fill="#6ca0ab" d="M445.8 189.7l-72-13.5-15.5 2.3 41.6 29.5z"/><path d="M699.5 158.2l-173.6-52.4-15.3 2.3 119.5 67.7z" class="st6"/><path d="M373.8 176.2l65.8 15.9 6.2-2.4-72-13.5" class="st7"/><path d="M522.5 172.8c-46.1-15.5-95.4-53.4-114.2-68.9a23.8 23.8 0 0 0-18.5-5.1l-27.1 4.1s60.4 82.6 47.7 91l112.1-21.1z" class="st6"/><path d="M525.8 105.3l156 57.4 18.5-4-174.5-53.4" class="st7"/><path d="M377.6 201.5c186.5-42 405.5-67.8 464.1-69.9 63.6-2.3 71.1 23.6 71.1 23.6s14.6 36.7-311.3 67.2c0 0-49.4 5.2-98 2.9S379.3 213 379.3 213l-1.7-11.5z" class="st8"/><path d="M616.6 157.5l-100.2-48.6-3.4.6 88.8 50.2z" class="st8"/><path d="M601.4 222.4c141.3-13.3 218.6-27.7 260.8-39.7C616.6 237.4 379.3 213 379.3 213s75.6 10 124.1 12.3c48.6 2.3 98-2.9 98-2.9z" class="st9"/><path fill="#75aeb9" d="M508.4 225.5c48.6 2.3 93-3.1 93-3.1C839.8 200 896 174.4 909 162.3c0 0-14.7 3.7-26.2-10.6 0 0-44.5 14.7-201.9 38.4-133.1 20-207.6 28.2-302.2 18.7l.6 4.2s80.6 10.2 129.1 12.5z" opacity=".6"/><path d="M367.8 110l14.9-2.2 45.5 70.1-18.1 2.8z" class="st8"/><path d="M571.9 204.3l-7.2 1.1c-.5.1-1-.3-1-.8l-1.6-10.6c-.1-.5.3-1 .8-1l7.2-1.1c.5-.1 1 .3 1 .8l1.6 10.6c.1.5-.3.9-.8 1zM586 202.2l-7.2 1.1c-.5.1-1-.3-1-.8l-1.6-10.6c-.1-.5.3-1 .8-1l7.2-1.1c.5-.1 1 .3 1 .8l1.6 10.6c0 .4-.3.9-.8 1zM599.9 200.1l-7.2 1.1c-.5.1-1-.3-1-.8l-1.6-10.6c-.1-.5.3-1 .8-1l7.2-1.1c.5-.1 1 .3 1 .8l1.6 10.6c.1.4-.3.9-.8 1zM614 198l-7.2 1.1c-.5.1-1-.3-1-.8l-1.6-10.6c-.1-.5.3-1 .8-1l7.2-1.1c.5-.1 1 .3 1 .8l1.6 10.6c0 .4-.3.9-.8 1zM628.1 195.8l-7.2 1.1c-.5.1-1-.3-1-.8l-1.6-10.6c-.1-.5.3-1 .8-1l7.2-1.1c.5-.1 1 .3 1 .8l1.6 10.6c0 .5-.3 1-.8 1zM642.1 193.7l-7.2 1.1c-.5.1-1-.3-1-.8l-1.6-10.6c-.1-.5.3-1 .8-1l7.2-1.1c.5-.1 1 .3 1 .8l1.6 10.6c.1.5-.3 1-.8 1zM656 191.6l-7.2 1.1c-.5.1-1-.3-1-.8l-1.6-10.6c-.1-.5.3-1 .8-1l7.2-1.1c.5-.1 1 .3 1 .8l1.6 10.6c0 .5-.3 1-.8 1zM670 189.5l-7.2 1.1c-.5.1-1-.3-1-.8l-1.6-10.6c-.1-.5.3-1 .8-1l7.2-1.1c.5-.1 1 .3 1 .8l1.6 10.6c.1.5-.3 1-.8 1zM684.1 187.4l-7.2 1.1c-.5.1-1-.3-1-.8l-1.6-10.6c-.1-.5.3-1 .8-1l7.2-1.1c.5-.1 1 .3 1 .8l1.6 10.6c0 .5-.3.9-.8 1zM698.1 185.3l-7.2 1.1c-.5.1-1-.3-1-.8l-1.6-10.6c-.1-.5.3-1 .8-1l7.2-1.1c.5-.1 1 .3 1 .8l1.6 10.6c.1.5-.3.9-.8 1zM712.1 183.2l-7.2 1.1c-.5.1-1-.3-1-.8l-1.6-10.6c-.1-.5.3-1 .8-1l7.2-1.1c.5-.1 1 .3 1 .8l1.6 10.6c.1.4-.3.9-.8 1zM726.2 181.1l-7.2 1.1c-.5.1-1-.3-1-.8l-1.6-10.6c-.1-.5.3-1 .8-1l7.2-1.1c.5-.1 1 .3 1 .8l1.6 10.6c0 .4-.3.9-.8 1zM740.2 179l-7.2 1c-.5.1-1-.3-1-.8l-1.6-10.6c-.1-.5.3-1 .8-1l7.2-1.1c.5-.1 1 .3 1 .8l1.6 10.6c.1.5-.3 1-.8 1.1zM754.3 176.8l-7.2 1.1c-.5.1-1-.3-1-.8l-1.6-10.6c-.1-.5.3-1 .8-1l7.2-1.1c.5-.1 1 .3 1 .8l1.6 10.6c0 .5-.3 1-.8 1zM768.3 174.7l-7.2 1.1c-.5.1-1-.3-1-.8l-1.6-10.6c-.1-.5.3-1 .8-1l7.2-1.1c.5-.1 1 .3 1 .8l1.6 10.6c.1.5-.3.9-.8 1zM782.4 172.6l-7.2 1.1c-.5.1-1-.3-1-.8l-1.6-10.6c-.1-.5.3-1 .8-1l7.2-1.1c.5-.1 1 .3 1 .8l1.6 10.6c0 .5-.3.9-.8 1zM796.5 170.5l-7.2 1.1c-.5.1-1-.3-1-.8l-1.6-10.6c-.1-.5.3-1 .8-1l7.2-1.1c.5-.1 1 .3 1 .8l1.6 10.6c0 .4-.3.9-.8 1zM810.5 168.4l-7.2 1.1c-.5.1-1-.3-1-.8l-1.6-10.6c-.1-.5.3-1 .8-1l7.2-1.1c.5-.1 1 .3 1 .8l1.6 10.6c0 .4-.3.9-.8 1z" class="st9"/><path d="M473.2 212.3L410 237.4l-26.5 4 24.9-29.5c2.6-3.1 6.4-4.8 10.5-4.8l53.3.3c2.9 0 3.6 3.9 1 4.9zM775.8 191.3L631 343.2l-18.9 2.8 59.5-126.5-12.4-11a5 5 0 0 1 1-8.1c6.3-3.3 20.3-7.9 51.6-12.7 35.3-5.3 52.5-5.6 60.9-4.6 4.1.4 5.9 5.3 3.1 8.2z" class="st6"/><path d="M671.6 219.5l17.5-2.6-60.8 113.4-9.5 1.4z" class="st8"/><path d="M655.2 191.1l-5.6.8c-.4.1-.7-.2-.8-.6l-1.5-9.8c-.1-.4.2-.7.6-.8l5.6-.8c.4-.1.7.2.8.6l1.5 9.8c.1.4-.2.8-.6.8zM669.2 189l-5.6.8c-.4.1-.7-.2-.8-.6l-1.5-9.8c-.1-.4.2-.7.6-.8l5.6-.8c.4-.1.7.2.8.6l1.5 9.8c.1.4-.2.7-.6.8zM683.3 186.9l-5.6.8c-.4.1-.7-.2-.8-.6l-1.5-9.8c-.1-.4.2-.7.6-.8l5.6-.8c.4-.1.7.2.8.6l1.5 9.8c0 .4-.2.7-.6.8zM697.3 184.8l-5.6.8c-.4.1-.7-.2-.8-.6l-1.5-9.8c-.1-.4.2-.7.6-.8l5.6-.8c.4-.1.7.2.8.6l1.5 9.8c.1.4-.2.7-.6.8zM711.3 182.7l-5.6.8c-.4.1-.7-.2-.8-.6l-1.5-9.8c-.1-.4.2-.7.6-.8l5.6-.8c.4-.1.7.2.8.6l1.5 9.8c.1.3-.2.7-.6.8zM725.4 180.5l-5.6.8c-.4.1-.7-.2-.8-.6l-1.5-9.8c-.1-.4.2-.7.6-.8l5.6-.8c.4-.1.7.2.8.6l1.5 9.8c0 .4-.2.8-.6.8zM739.4 178.4l-5.6.8c-.4.1-.7-.2-.8-.6l-1.5-9.8c-.1-.4.2-.7.6-.8l5.6-.8c.4-.1.7.2.8.6l1.5 9.8c0 .4-.2.8-.6.8zM753.4 176.3l-5.6.8c-.4.1-.7-.2-.8-.6l-1.5-9.8c-.1-.4.2-.7.6-.8l5.6-.8c.4-.1.7.2.8.6l1.5 9.8c.1.4-.2.8-.6.8zM767.5 174.2l-5.6.8c-.4.1-.7-.2-.8-.6l-1.5-9.8c-.1-.4.2-.7.6-.8l5.6-.8c.4-.1.7.2.8.6l1.5 9.8c0 .4-.3.8-.6.8zM781.5 172.1l-5.6.8c-.4.1-.7-.2-.8-.6l-1.5-9.8c-.1-.4.2-.7.6-.8l5.6-.8c.4-.1.7.2.8.6l1.5 9.8c0 .4-.2.7-.6.8zM795.5 170l-5.6.8c-.4.1-.7-.2-.8-.6l-1.5-9.8c-.1-.4.2-.7.6-.8l5.6-.8c.4-.1.7.2.8.6l1.5 9.8c.1.4-.2.7-.6.8zM809.5 167.9l-5.6.8c-.4.1-.7-.2-.8-.6l-1.5-9.8c-.1-.4.2-.7.6-.8l5.6-.8c.4-.1.7.2.8.6l1.5 9.8c.1.4-.2.7-.6.8zM571 203.8l-5.6.8c-.4.1-.7-.2-.8-.6l-1.5-9.8c-.1-.4.2-.7.6-.8l5.6-.8c.4-.1.7.2.8.6l1.5 9.8c.1.4-.2.7-.6.8zM585.1 201.7l-5.6.8c-.4.1-.7-.2-.8-.6l-1.5-9.8c-.1-.4.2-.7.6-.8l5.6-.8c.4-.1.7.2.8.6l1.5 9.8c0 .4-.2.7-.6.8zM599.1 199.6l-5.6.8c-.4.1-.7-.2-.8-.6l-1.5-9.8c-.1-.4.2-.7.6-.8l5.6-.8c.4-.1.7.2.8.6l1.5 9.8c.1.3-.2.7-.6.8zM613.1 197.4l-5.6.8c-.4.1-.7-.2-.8-.6l-1.5-9.8c-.1-.4.2-.7.6-.8l5.6-.8c.4-.1.7.2.8.6l1.5 9.8c.1.4-.2.8-.6.8zM627.2 195.3l-5.6.8c-.4.1-.7-.2-.8-.6l-1.5-9.8c-.1-.4.2-.7.6-.8l5.6-.8c.4-.1.7.2.8.6l1.5 9.8c0 .4-.3.8-.6.8zM641.2 193.2l-5.6.8c-.4.1-.7-.2-.8-.6l-1.5-9.8c-.1-.4.2-.7.6-.8l5.6-.8c.4-.1.7.2.8.6l1.5 9.8c0 .4-.2.8-.6.8zM904.1 144.6s4.1 6.6-10.4 9a14 14 0 0 1-10.8-2s17.9-2.2 13.3-11.8c2.2 1.1 5 2.9 7.9 4.8z" class="st11"/><path d="M775.8 191.3c2.7-3 1-7.8-3.1-8.2a120 120 0 0 0-19.6-.1c14.1 7.7-72.7 101-118.5 156.3l141.2-148z" class="st7"/><path fill="#fff" d="M841.7 131.6c-43.7 1.6-176.9 16.3-319.1 41.2 2.5-.3 267.7-29 327-29 59.5 0 35 31.6 35 31.6 31.5-12 28.2-20.2 28.2-20.2s-7.6-25.9-71.1-23.6z" opacity=".1"/><path d="M472.3 207.4h-2l-60.2 30 63.2-25.1c2.5-1 1.8-4.9-1-4.9z" class="st7"/></g><g id="Слой_7"><path d="M72.4 2426l2.9-55.4 60.1-6 5.4 78.3-40.2 21.8z" class="st13"/><path d="M344.3 1454c-9.9 19.5 8 35.5 19.7 15.2s9.4-73.9 9.4-73.9l-19.9 6.4c-.1.1.7 32.8-9.2 52.3" class="st14"/><path fill="#d1b951" d="M49.7 2496.5c13.1 6.6 67.5 7.9 73.5 14.6 3.8 4.3-.4 10.9-1 16.5-2.7 26.7 151.5 27.6 224.4 18.4 38.3-4.9 44.7-10.8 42.7-19.1-1.6-6.5-13.2-8.7-20.2-11.7s-14.9-4.1-22.7-5.3c-20.3-2.9-87.5-46.6-91.9-46.9-41.9-3.2-66.4-2.9-108.5-2.9-107.2 0-115.4 26.8-96.3 36.4z"/><path fill="#383530" d="M187 2343.4V2343.6c.1-.1.1-.1 0-.2z"/><path d="M267.1 1797.8l-157.1.2" class="st17"/><path d="M307.4 1263s37.2 16.7 53.2 58.4c11 28.6 3.3 64 24.4 56.9 21.1-7.1 38.2-55.3 2.4-112.3-35.5-56.4-63.4-43.7-63.4-43.7l-16.6 40.7z" class="st13"/><path d="M268.9 1016C208.9 941.4 92 776.1 48 786.9c-31.7 7.8 14.7 137.7 14.7 137.7 17.1 19.4 82.1 132.3 147.7 188.6 31.7 27.2 66.6 59.7 98.5 31.7 28-24.5-7.3-88.3-40-128.9z" class="st18"/><path d="M110.5 1134.9l191.6 130.5c6 4 13.8 4.2 19.9.3a69.5 69.5 0 0 0 26.7-30.1c2.6-6.8.7-14.5-4.5-19.5l-196.5-188.5c.1-.1-89.1-24.8-37.2 107.3z" class="st18"/><path d="M126.1 1161.7c-13.4-25.5-79.9-181-92.4-212.3 12.9 46.6 36.4 142.1 72.1 202.5 11.8 20 24.1 41.8 39.4 54.4l121.2 160.5a18.4 18.4 0 0 0 18.8 6.7l5.7-1.6c-39-56-148.8-179.8-164.8-210.2z" class="st19"/><path fill="#7b6a1c" d="M277.3 769.6s-.2 11.9-1.3 21.7-22.3-17.7-22.3-17.7l23.6-4z"/><path fill="#232121" d="M28.7 1353.7s189.1 57.2 297.9-8.7c86.6-52.5-297.9-21.7-297.9-21.7v30.4z" opacity=".3"/><path d="M121.7 687.1c11.8 14.8 6.4 43.7-7.9 59.1 26.9 10.5 65.1 14.9 91.6 3.6-10.1-12.4-6.6-35.7-5.3-42.6 58.4-1.6 88 5.5 86.6-45.2-.7-24.6-2.6-47.4-5.8-71.8-3-22.6-6.2-52.5-17.3-72.7-18-32.8-80.7-33.5-109.9-20.9a109 109 0 0 0-62.4 83.2c-5.3 35.9 8 70.6 30.4 107.3z" class="st13"/><path d="M68.6 2424.3s16.5 32.4 66 8.8l2.8 19.8-32.1 11.4c-2.1.7-28.3-.7-28.3-.7l-11.2-19.1 2.8-20.2z" class="st14"/><path d="M52.2 2466.5s-.2 5 6.6 16.9c0 0 189.6 16.9 189.9-9.2l-2.2-10.3s-1.5-13.4-44.6-21c-5.1-.9-10.3-2.2-15.5-3.9-12.1-4-33.2-11.5-41.3-17.1-1.2-.8-2.8-.6-3.5.4-3.4 5.1-14.1 17.7-39.1 17.3-17-.3-25.7-8-30-15.4-2.6-4.5-10.3-4.7-12.7-.3-6.1 11.2-12.5 27.9-7.6 42.6z" class="st22"/><path d="M212.1 2445c-1.8-.6-16.5-3.2-21.7-4.8-12.4-3.8-34.3-11.1-42.8-16.6a3 3 0 0 0-1-.4l-3.7 7s53.3 16.3 61.1 17c7.8.6 7.6-1.2 8.1-2.2z" class="st23"/><path d="M159.1 2435.6c.2 1.3-.8 2.3-2.2 2.3a2.9 2.9 0 0 1-2.8-2.4c-.1-1.3.9-2.3 2.3-2.2 1.4 0 2.6 1 2.7 2.3zM176.6 2442.2c.2 1.3-.8 2.3-2.1 2.3s-2.6-1.1-2.7-2.3c-.2-1.3.8-2.3 2.1-2.3s2.5 1 2.7 2.3zM193.5 2446.9c.2 1.3-.7 2.3-2 2.3s-2.5-1-2.7-2.3c-.2-1.3.7-2.3 2-2.2 1.3-.1 2.5 1 2.7 2.2z" class="st24"/><path d="M156.6 2435.5s.9-8.1 4.3-7.3M178.5 2436c-4.7.4-4.4 6.2-4.4 6.2s-2.4-7.8-11.8-11.9M182 2437.5s5.5 1.5 9.2 9.4c0 0 .7-4.7 3.1-5.6" class="st25"/><path d="M170.1 2471.7h-1.3c.1-.1 12.5-11 24.1-14.3 15.9-4.4 19.2-12.3 19.2-12.4l.6.1c-.1.3-3.1 8.6-19.4 13.1-11.4 3.3-23 13.4-23.2 13.5z" class="st23"/><path d="M147.4 2423.3c-1.1 4.1-8.8 25.6-44.8 25.4-32.3-.2-42.8-15.5-45.1-20l2.4-4.7c2.4-4.4 10.1-4.2 12.7.3 4.3 7.4 12.9 15.1 30 15.4 24.9.4 35.7-12.2 39.1-17.3.7-1 2.3-1.2 3.5-.4.6.4 1.3.9 2.2 1.3z" class="st26"/><path d="M79.7 2472.2h-1.1c0-20.5-22.9-38.7-23.2-38.9l.4-1c.2.2 23.9 18.9 23.9 39.9z" class="st23"/><path fill="none" stroke="#312a20" stroke-linecap="round" stroke-linejoin="round" stroke-miterlimit="10" stroke-width="2.6" d="M147.4 2423.5s-20.3 19.5-8 22.2c12 2.7 8-22.2 8-22.2z"/><path d="M246.6 2464l2.2 10.3c-.5 26.7-180.1 23.7-197.5 12.1-5.1-11.3.9-19.8.9-19.8s34.8 16.1 150.8 5c0 0 45.9-4.8 36-16.4 7.1 4.8 7.6 8.8 7.6 8.8z" class="st26"/><path d="M239 2455.2c6.5 6.4-6.6 11.3-19.4 13.6l1.8 1.8s5.1 4.1 5.1 16.5c17-4.2 22.2-7.7 22.2-13.5l-2.4-10.3c.1 0 .3-3.5-7.3-8.1z" class="st28"/><path d="M174.5 2492.6L185 2481c3.7-4.1 9.1-6.5 16.5-7.6 34.4-5 39.7-10.8 39.9-13.8.1-1.9-1.6-3.3-2.3-3.8l-.3-.2.2-.3 1 .7c.6.4 1.1.9 1.5 1.5l.3.5c.3.6.4 1.2.3 1.9-.4 5.7-13.5 10.5-40.5 14.5a26.1 26.1 0 0 0-16 7.4l-9.3 10.3-.4.5h-1.4z" class="st29"/><path d="M165.8 2466.6l4.2-55.3 64.7-4.6 4.2 78.1-43.7 21.2z" class="st13"/><path d="M174.3 1453.3L147 2402.7a8 8 0 0 1-5.1 7.3c-17.7 6.9-49.7 9.4-69.5-.8a8 8 0 0 1-4.3-6.3L7 1463l167.3-9.7z" class="st17"/><path d="M139.2 1455.3l-132.2-2L68 2403a8 8 0 0 0 4.3 6.3 81.2 81.2 0 0 0 34.6 6.8l32.3-960.8z" class="st31"/><path d="M139.2 1580.5L106.9 2412" class="st32"/><path d="M112.8 1475.1l48.5 961.2c-.1 4.1 2.1 8 5.8 9.8 15 7.5 52 11.6 68.4 4.8 3.4-1.4 5.8-4.4 6.4-8l76.4-1044.6-205.5 76.8z" class="st17"/><path d="M112.8 1468.2l47.1 940.7 1.1 27c-.1 4.1 2.1 8 5.8 9.8 2.3 1.1 20.1 7.9 35 7.9l21.5-1000.2-110.5 14.8z" class="st31"/><path d="M223.3 1453.3l-21.5 1000.2" class="st32"/><path d="M321.3 1388.9v35.5s-184.8 118.2-314.5 63.8l-5.1-32.7 319.6-66.6z" class="st33"/><path d="M297.5 1414.6v23.4l23.8-13.7v-27.5z" class="st34"/><path d="M164.3 621.4s-17.3-6.2-16.1-26.9c1.4-23.3 19.3-21.8 19.3-21.8s-16-.5-17.3 22a28.3 28.3 0 0 0 14.1 26.7zM280.6 693.2c-21.2 19.9-87.5.2-87.5.2l5.5 13.9c24.3 2.1 72.2 3.3 82-14.1z" class="st14"/><path d="M292.3 783.8s-75.6-36.8-87.6-41.1c-76.1 22.4-83.9-6.5-87.1-5.2v-.1S48.9 766 15.8 832.7c-50.6 102-33.6 625.4-12 636.4 110.8 56 320.5-55.5 320.6-70.8.5-77.6 7.1-382.2-10.2-556.9-4.6-47.2-20.9-55.6-21.9-57.6z" class="st18"/><path d="M105.8 852s76.5 24.5 125.3 158.4c37.9 104 71.9 236.6 61.8 269.4-19.1 62-245.6 84.5-288.1 55.4-21.6-14.8-62-290.2-19-408.8 41.6-114.1 120-74.4 120-74.4z" class="st19"/><path d="M276.5 1276.4s59.3-69.1 72.3-150.3c1.1-7.1 1-14.3-.1-21.4l-6.5-32c-4.8 33.5-2.8 91.8-90.9 162.4-2.1 1.7 25.2 41.3 25.2 41.3z" class="st35"/><path d="M37.1 860.6s-41.6-38.5 26.6-46.1c68.2-7.5 22.8 49.9 22.8 49.9s27-52.3-25.5-41.2c-52.5 11.2-23.9 37.4-23.9 37.4z" class="st33"/><path d="M37.1 860.6S-6.2 813.1 62 805.5c68.2-7.5 22.8 49.9 22.8 49.9s27-52.3-25.5-41.2-22.2 46.4-22.2 46.4z" class="st35"/><path d="M78.5 1337.4s13 38.7 12.3 48.3-31.5 32.6-53.9 26.9c-22.3-5.7-29.8-88.4-29.8-88.4l71.4 13.2z" class="st18"/><path fill="#836b0b" d="M78.5 1389.5s8-2.4-43.6-113.2l-19.1 1.2 14.6 117.6s20.4 3.5 22.1 3.2c1.8-.3 26-8.8 26-8.8z"/><path d="M-25.9 1293.9s14.8 55.9 37.1 100.9a31.5 31.5 0 0 0 40.9 15 66.1 66.1 0 0 0 26.5-20.3s-24.6-1.9-58.5-109.1l-46 13.5z" class="st35"/><path d="M-4.1 919.1s-33.7-7.5-8.3-35.4 24.4-30.5 42.5-22.1l-34.2 57.5z" class="st37"/><path fill="#ffdf57" d="M-39.3 1296.5c-75-418.8 82.6-460.1 107.9-454.6 33-4.4 149.5 58.6 217.9 417.6a37 37 0 0 1-20.4 40.3c-25.2 11.9-71.2 29.2-146.9 43-133.4 24.2-154.6-24.1-158.5-46.3z"/><path d="M-24.2 1009.6s66.3.3 136.8-24c0 0 13.9 29 14.2 44.3 0 0-111.2 36.2-143.7 19.5l-7.3-39.8zM-18.3 1181.5s125.2-42.8 187.3-26.2c0 0 7.2 74.2 27.9 111.7 0 0-55.7 37.6-118.7 41.1s-75.6-12-75.6-12-25.9-51.1-20.9-114.6z" class="st39"/><path d="M-16.6 1151.8c2.5-2 82.2 10.5 175-24.6 0 0 14.5-1.4 20.4 31.1 0 0-99.3 44.7-208.7 25.8-.1.1-4.2-18.5 13.3-32.3z" class="st35"/><path d="M342.2 1072.6s-3.9 82.8-65.2 140v7.7s67.1-58.9 65.2-147.7zM349.6 1120.6s-9.9 75.5-70.6 143.9l8.2-.6c0 .1 57.5-74.8 62.4-143.3z" class="st37"/><path d="M8.3 1293.9s-23.6-23.6-27.1-89.4c0 0-6.2 50.7 19.1 98.4 0 0 94.1 44.1 196.7-35.9 0 0-117.6 63.2-188.7 26.9zM-24.5 1007.1s-4.2 35.7 8.6 47c0 0 51 9.7 143.4-20.2 0 0 1.5-26.9-14.9-48.2 0 0 9 35.5 4.2 40.6 0 0-64.7 28.9-129 20.7 0 0-9.2-11.2-12.3-39.9z" class="st35"/><path d="M199.4 1324.2c21-6.8 55.3-19 66.8-24.4a37 37 0 0 0 20.4-40.3c-68.4-359-184.9-421.9-217.9-417.6-13.9-3-68.1 8.2-101.3 89.1 0 0 19.6-43 67-51.6 64.3-11.7 98 38.6 132.2 127.4 33.7 87.5 67.7 216.2 74.1 254.7 5.5 34.4-22.9 56.9-41.3 62.7z" class="st35"/><path d="M113.9 744.6s11.1 26.1 93.8 6.4c0 0-82.6 27.4-93.8-6.4z" class="st33"/><path fill="#41465f" d="M118.2 693.4c-6.7-21.1-33.8-83-48.7-135.1a74 74 0 0 1 34.7-84.7c54-30.7 123.2-69.9 159.8-63.4 54.4 9.7 33.6 82.4-9.7 115.3-31.6 24-49.8 3-58.9 20.5-6.5 12.6 20.9 16.9 9.1 35-12.8 19.7-13.8-17-35.7-16.9s-34.3 34.4-18.1 52.9c9.9 11.2 16.6 17.5 26.8 27.7a21.5 21.5 0 0 1 1.3 28.9c-8.4 9.9-23.5 21.2-50.2 26-4.6.8-9-1.8-10.4-6.2z"/><path fill="#676b7f" d="M264 410.3a84.8 84.8 0 0 0-36.9 4c.2 0 91.1-8.2 36.6 103.1h.2c36.4-35.5 50.4-98.2.1-107.1z"/><path d="M46.7 1349.4s17.6 36.6 31.9 40.2l-2.7 3.4s-21.3-9.2-33.1-43.9l3.9.3zM8.5 1389.3c-8.3-15.8-22-55.1-22-55.1l5 2.9c.2.1 22 73 44.9 75.3 0 0-10.3 0-18.2-8.2s-9.7-14.9-9.7-14.9z" class="st37"/><g><circle cx="55.1" cy="1099.9" r="29.8" fill="#ff882a"/><path d="M31.6 1095.3a3 3 0 0 1-1.6-1.1c-.4-.5-.7-1.1-.8-1.8-.1-.7-.1-1.4.2-2 .2-.6.6-1.1 1.2-1.5a4 4 0 0 1 2-.8c.8-.1 1.5-.1 2.1.1a3.6 3.6 0 0 1 2.4 2.9c.1.7.1 1.4-.2 2-.2.6-.6 1.1-1.2 1.5a4 4 0 0 1-1.9.8c-.9.1-1.6.1-2.2-.1zm3-2.4c.3-.4.4-.9.3-1.5-.1-.6-.4-1.1-.8-1.4-.4-.3-.9-.4-1.4-.3-.5.1-.9.3-1.2.8-.3.4-.4.9-.3 1.5.1.6.4 1.1.8 1.4.4.3.9.4 1.4.3a2 2 0 0 0 1.2-.8zM44.7 1086.8c.6.4 1 1.2 1.2 2.2l.7 4.1-2.1.3-.6-3.8c-.1-.6-.3-1-.6-1.2-.3-.2-.7-.3-1.1-.2-.5.1-.9.3-1.2.7-.3.4-.3.9-.2 1.5l.6 3.5-2.1.3-1.2-7.2 2-.3.1.8.9-.9 1.3-.5c.9.1 1.7.3 2.3.7zM55.4 1088.6l-5.4.9c.2.4.5.7.9.9.4.2.9.3 1.4.2l1-.3.7-.7 1.3 1c-.5.9-1.5 1.4-2.8 1.6-.8.1-1.6.1-2.2-.1-.7-.2-1.2-.6-1.7-1.1-.4-.5-.7-1.1-.8-1.8-.1-.7-.1-1.4.2-2 .2-.6.6-1.1 1.2-1.5a4 4 0 0 1 1.9-.8c.7-.1 1.4-.1 2 .1.6.2 1.1.6 1.6 1.1.4.5.7 1.1.8 1.9-.2.1-.2.3-.1.6zm-5.3-1.5c-.3.3-.4.7-.4 1.2l3.5-.6c-.1-.4-.4-.8-.8-1-.4-.2-.8-.3-1.2-.2-.4.1-.8.3-1.1.6zM36.8 1106.7l-.7.5-.9.3c-.9.1-1.5 0-2.1-.3-.5-.4-.9-1-1-1.8l-.5-2.9-1.1.2-.3-1.6 1.1-.2-.3-1.9 2.1-.3.3 1.7 1.8-.3.3 1.6-1.8.3.5 2.9c0 .3.2.5.3.7.2.1.4.2.7.1l.8-.4.8 1.4zM48.5 1097.7l-1.4 7.6-2 .3-2.3-4.2-.9 4.7-2 .3-3.8-6.7 2-.3 2.5 4.6 1-5.1 1.8-.3 2.5 4.6.9-5.1 1.7-.4zM52.1 1104.1a3 3 0 0 1-1.6-1.1c-.4-.5-.7-1.1-.8-1.8-.1-.7-.1-1.4.2-2 .2-.6.6-1.1 1.2-1.5a4 4 0 0 1 2-.8c.8-.1 1.5-.1 2.1.1a3.6 3.6 0 0 1 2.4 2.9c.1.7.1 1.4-.2 2-.2.6-.6 1.1-1.2 1.5a4 4 0 0 1-1.9.8 4 4 0 0 1-2.2-.1zm3.1-2.3c.3-.4.4-.9.3-1.5-.1-.6-.4-1.1-.8-1.4-.4-.3-.9-.4-1.4-.3-.5.1-.9.3-1.2.8-.3.4-.4.9-.3 1.5.1.6.4 1.1.8 1.4.4.3.9.4 1.4.3a2 2 0 0 0 1.2-.8zM35.4 1118.2a3 3 0 0 1-1.6-1.1c-.4-.5-.7-1.1-.8-1.8a3.5 3.5 0 0 1 1.4-3.5 4.9 4.9 0 0 1 4.1-.7c.6.2 1.1.6 1.5 1.1l-1.5 1.1c-.5-.6-1.1-.8-1.8-.7-.5.1-1 .3-1.3.8-.3.4-.4.9-.3 1.5s.4 1.1.8 1.4c.4.3.9.4 1.4.3.7-.1 1.2-.5 1.5-1.3l1.8.6a3 3 0 0 1-1 1.5c-.5.4-1.1.7-1.9.8-1 .2-1.7.2-2.3 0zM47.5 1109.9c.7.4 1.1 1.2 1.3 2.2l.7 4.1-1.9.3-.1-.9c-.3.7-1 1.2-2 1.4H44c-.4-.1-.8-.3-1.1-.6-.3-.3-.4-.6-.5-1.1a2 2 0 0 1 .5-1.7c.4-.5 1.2-.8 2.2-1l1.7-.3c-.1-.5-.3-.8-.6-1-.3-.2-.7-.3-1.3-.2l-1.1.4-.9.6-1-1.3 1.3-.9 1.6-.5c1.1-.1 2 .1 2.7.5zm-1 5.2l.5-.8-.1-.7-1.4.2c-.9.1-1.2.5-1.1 1.1 0 .3.2.5.4.6.2.1.5.2.9.1l.8-.5zM54.4 1108.2l1.4-.5.3 1.9-.5.1c-.6.1-1 .3-1.3.7-.3.4-.4.9-.3 1.6l.6 3.4-2.1.3-1.2-7.2 2-.3.2.9c.2-.3.5-.7.9-.9zM65.9 1110.4l-5.4.9c.2.4.5.7.9.9.4.2.9.3 1.4.2l1-.3.7-.7 1.3 1c-.5.9-1.5 1.4-2.8 1.6-.8.1-1.6.1-2.2-.1-.7-.2-1.2-.6-1.7-1.1-.4-.5-.7-1.1-.8-1.8-.1-.7-.1-1.4.2-2 .2-.6.6-1.1 1.2-1.5a4 4 0 0 1 1.9-.8c.7-.1 1.4-.1 2 .1.6.2 1.1.6 1.6 1.1.4.5.7 1.1.8 1.9-.2.1-.1.3-.1.6zm-5.3-1.5c-.3.3-.4.7-.4 1.2l3.5-.6c-.1-.4-.4-.8-.8-1-.4-.2-.8-.3-1.2-.2-.4.1-.8.3-1.1.6zM75.5 1108.8l-5.4.9c.2.4.5.7.9.9.4.2.9.3 1.4.2l1-.3.7-.7 1.3 1c-.5.9-1.5 1.4-2.8 1.6-.8.1-1.6.1-2.2-.1-.7-.2-1.2-.6-1.7-1.1-.4-.5-.7-1.1-.8-1.8-.1-.7-.1-1.4.2-2 .2-.6.6-1.1 1.2-1.5a4 4 0 0 1 1.9-.8c.7-.1 1.4-.1 2 .1.6.2 1.1.6 1.6 1.1.4.5.7 1.1.8 1.9l-.1.6zm-5.2-1.5c-.3.3-.4.7-.4 1.2l3.5-.6c-.1-.4-.4-.8-.8-1-.4-.2-.8-.3-1.2-.2-.5.1-.9.3-1.1.6zM80.5 1103.9l1.4-.5.3 1.9-.5.1c-.6.1-1 .3-1.3.7-.3.4-.4.9-.3 1.6l.6 3.4-2.1.3-1.2-7.2 2-.3.2.9c.2-.3.5-.7.9-.9z" class="st43"/></g><path fill="#489196" d="M193.9 956.5S167.7 821.9 275.2 775l-40.1-22-76.7 149.7 35.5 53.8z"/><path d="M176.6 969.4l-25.7-52.2s-10.1-109 83.1-164.9c0 0 11.6-.5 42.1 15.6a3.9 3.9 0 0 1-.8 7.2c-26.6 6.5-82.7 31-98.7 194.3z" class="st35"/><path d="M154.6 901.2l-4.1-4.8s0-96 83.4-144.3l5.4.3c0 .1-80.9 49-84.7 148.8zM180.3 939.5s15.9-147.4 94.9-164.5c3.7-.8 4.3-5.9.9-7.6h-.1s-77.3 8.4-99.4 167.2l3.7 4.9z" class="st37"/><path d="M346.5 1395.9s21.7 34.5 12 78c-6.7 29.9-32.7 55.2-11.1 60.9 21.5 5.8 62.4-24.9 64.1-92.2 1.6-66.6-28.6-71.5-28.6-71.5l-36.4 24.8z" class="st13"/><path d="M343.4 1097.3c-8.7-95.3-14.7-297.7-57.2-313-30.7-11-63.9 122.9-63.9 122.9 3.5 25.6-4.8 155.6 18.7 238.8 11.3 40.2 22.5 86.6 64.5 80.9 36.8-5 42.6-77.7 37.9-129.6z" class="st18"/><path d="M253.4 1180.3l87.4 214.7a18.5 18.5 0 0 0 16.4 11.3c9.7.2 27-1.8 38.9-10.3a18.2 18.2 0 0 0 7-18.8l-59.4-265.8c.1 0-60.5-70-90.3 68.9z" class="st18"/><path d="M258.1 1161c-6.4-28.1-30.7-195.4-34.8-228.9.5 48.3-1.4 146.7 17.7 214.2 6.3 22.3 12.5 46.6 24.1 62.7l75.9 186.3a18.5 18.5 0 0 0 16.4 11.3l5.9-.1c-23.3-64.1-97.5-211.9-105.2-245.5z" class="st19"/><path d="M223.5 923s20.8-150.3 68.8-139.3c0 .1-59.3-36.9-68.8 139.3z" class="st33"/><path d="M347.9 1398.3s33.9 6.9 50.2-16c0 0-19.1 15.2-50.2 16z" class="st34"/><g><path d="M145.5 2506.6s1.9 10.1 7.9 22.3c0 0 210.7 26.1 219.7-5.7l.4-13.2s2.5-17.7-56.2-28.2c-6.7-1.2-13.2-2.9-19.6-5.1-14.7-5.1-39.8-14.3-48.9-21.3-1.3-1-3.3-.7-4.3.6a55.1 55.1 0 0 1-46.7 21.7c-18-.3-26.6-9.1-30.6-17.7-2.5-5.2-10.3-5.3-13-.1-6.4 12.8-13.1 31.1-8.7 46.7z" class="st22"/><path d="M373.5 2510l-.4 13.2c-7.4 29.9-218.9 16.3-224.2 9.5-6.7-14.1-3.4-26.1-3.4-26.1 7 6.5 12.8 11.7 117.7 12.2 15.4.1 32.7-2 52.7-2 0 0 60.1-3.1 49.6-18.5 8.7 6.4 8 11.7 8 11.7z" class="st26"/><path d="M324.6 2483.2l-7.4-1.4c-6.7-1.2-13.2-2.9-19.6-5.1-14.7-5.1-39.8-14.3-48.9-21.3-.3-.3-.7-.4-1.1-.5l-1.4 11.2s57.3 18.8 67.1 19.8c10 1.1 11.3-2.7 11.3-2.7z" class="st23"/><path d="M365.5 2498.3c6.3 9.2-12.7 14-29 16.4l1.8 2.3s5.2 5.6 1.7 20.3c18.5-2.6 31.2-7 33.2-14.1l.4-13.2c-.1 0 .6-5.3-8.1-11.7z" class="st28"/><path d="M271.9 2540.3l14.8-12.5a39.6 39.6 0 0 1 22.4-8.1c47.7-4.6 57.1-11.8 58.4-15.7.8-2.4-1.2-4.4-2.1-5.1l-.3-.3.4-.4 1.2 1c.7.6 1.3 1.2 1.8 2l.3.6c.2.8.2 1.6-.1 2.5-2.5 7.4-22.5 12.9-59.4 16.4a39 39 0 0 0-21.7 7.8l-13.2 11.1-.5.5-2 .2z" class="st29"/><ellipse cx="260.5" cy="2472.4" class="st45" rx="3.1" ry="2.9" transform="scale(.99997) rotate(-4.3 260.5 2472.4)"/><ellipse cx="281.1" cy="2480.7" class="st45" rx="3.1" ry="2.9" transform="scale(.99997) rotate(-4.3 281 2480.7)"/><ellipse cx="302" cy="2486.8" class="st45" rx="3.1" ry="2.9" transform="scale(.99997) rotate(-4.3 302 2486.8)"/><path d="M260.5 2472.4s2.6-10.3 6.7-9.4M288 2472.8c-6.2.6-6.9 7.9-6.9 7.9s-1.4-9.9-12.5-15M292.1 2474.8s6.9 1.9 9.8 12c0 0 2-6 5.4-7.1" class="st46"/><path d="M251.3 2457.1c-2 5.3-14.3 31.6-54.3 31-33.3-.5-43.2-17.6-45.4-22.7.8-1.9 1.7-3.7 2.6-5.4 2.6-5.2 10.5-5.1 13 .1 4 8.5 12.6 17.4 30.6 17.7a55 55 0 0 0 46.7-21.7c1-1.3 3-1.6 4.3-.6l2.5 1.6z" class="st26"/><path d="M267.2 2518.3h-1.7c.2-.1 16.7-14.9 31.9-19.2 21.7-6.1 26.5-15.9 26.6-16l1.1.4c-.2.4-5.1 10.3-27.3 16.6-15 4.2-30.4 18-30.6 18.2zM175.1 2515.7H174c-.6-21.8-24.6-44.2-24.8-44.4l.5-1.2c.1.3 24.7 23.3 25.4 45.6z" class="st23"/><path d="M254.5 2460.1s-41.9 11.6-29.5 23 29.5-23 29.5-23z" class="st46"/></g></g></svg>